G04 #@! TF.GenerationSoftware,KiCad,Pcbnew,8.0.3+1*
G04 #@! TF.CreationDate,2024-08-19T07:23:01+00:00*
G04 #@! TF.ProjectId,STM32103_Devel,53544d33-3231-4303-935f-446576656c2e,0.0.3*
G04 #@! TF.SameCoordinates,Original*
G04 #@! TF.FileFunction,Soldermask,Bot*
G04 #@! TF.FilePolarity,Negative*
%FSLAX46Y46*%
G04 Gerber Fmt 4.6, Leading zero omitted, Abs format (unit mm)*
G04 Created by KiCad (PCBNEW 8.0.3+1) date 2024-08-19 07:23:01*
%MOMM*%
%LPD*%
G01*
G04 APERTURE LIST*
%ADD10C,4.800000*%
%ADD11O,1.700000X1.000000*%
%ADD12O,1.800000X1.800000*%
G04 APERTURE END LIST*
D10*
X165000000Y-116000000D03*
X165000000Y-74000000D03*
X104000000Y-74000000D03*
X104000000Y-116000000D03*
D11*
X167500000Y-89300000D03*
X167500000Y-82700000D03*
G36*
G01*
X109850000Y-74900000D02*
X108150000Y-74900000D01*
G75*
G02*
X108100000Y-74850000I0J50000D01*
G01*
X108100000Y-73150000D01*
G75*
G02*
X108150000Y-73100000I50000J0D01*
G01*
X109850000Y-73100000D01*
G75*
G02*
X109900000Y-73150000I0J-50000D01*
G01*
X109900000Y-74850000D01*
G75*
G02*
X109850000Y-74900000I-50000J0D01*
G01*
G37*
D12*
X111540000Y-74000000D03*
X114080000Y-74000000D03*
X116620000Y-74000000D03*
X119160000Y-74000000D03*
X121700000Y-74000000D03*
X124240000Y-74000000D03*
X126780000Y-74000000D03*
X129320000Y-74000000D03*
X131860000Y-74000000D03*
X134400000Y-74000000D03*
X136940000Y-74000000D03*
X139480000Y-74000000D03*
X142020000Y-74000000D03*
X144560000Y-74000000D03*
X147100000Y-74000000D03*
G36*
G01*
X109850000Y-116900000D02*
X108150000Y-116900000D01*
G75*
G02*
X108100000Y-116850000I0J50000D01*
G01*
X108100000Y-115150000D01*
G75*
G02*
X108150000Y-115100000I50000J0D01*
G01*
X109850000Y-115100000D01*
G75*
G02*
X109900000Y-115150000I0J-50000D01*
G01*
X109900000Y-116850000D01*
G75*
G02*
X109850000Y-116900000I-50000J0D01*
G01*
G37*
X111540000Y-116000000D03*
X114080000Y-116000000D03*
X116620000Y-116000000D03*
X119160000Y-116000000D03*
X121700000Y-116000000D03*
X124240000Y-116000000D03*
X126780000Y-116000000D03*
X129320000Y-116000000D03*
X131860000Y-116000000D03*
X134400000Y-116000000D03*
X136940000Y-116000000D03*
X139480000Y-116000000D03*
X142020000Y-116000000D03*
X144560000Y-116000000D03*
X147100000Y-116000000D03*
G36*
G01*
X153850000Y-77300000D02*
X152150000Y-77300000D01*
G75*
G02*
X152100000Y-77250000I0J50000D01*
G01*
X152100000Y-75550000D01*
G75*
G02*
X152150000Y-75500000I50000J0D01*
G01*
X153850000Y-75500000D01*
G75*
G02*
X153900000Y-75550000I0J-50000D01*
G01*
X153900000Y-77250000D01*
G75*
G02*
X153850000Y-77300000I-50000J0D01*
G01*
G37*
X153000000Y-73860000D03*
X155540000Y-76400000D03*
X155540000Y-73860000D03*
X158080000Y-76400000D03*
X158080000Y-73860000D03*
G36*
G01*
X164550000Y-94300000D02*
X166250000Y-94300000D01*
G75*
G02*
X166300000Y-94350000I0J-50000D01*
G01*
X166300000Y-96050000D01*
G75*
G02*
X166250000Y-96100000I-50000J0D01*
G01*
X164550000Y-96100000D01*
G75*
G02*
X164500000Y-96050000I0J50000D01*
G01*
X164500000Y-94350000D01*
G75*
G02*
X164550000Y-94300000I50000J0D01*
G01*
G37*
X165400000Y-97740000D03*
X162860000Y-95200000D03*
X162860000Y-97740000D03*
X160320000Y-95200000D03*
X160320000Y-97740000D03*
G36*
X127010355Y-107214645D02*
G01*
X127016603Y-107222265D01*
X127516603Y-107972265D01*
X127524029Y-108009806D01*
X127516603Y-108027735D01*
X127016603Y-108777735D01*
X126984806Y-108799029D01*
X126975000Y-108800000D01*
X125975000Y-108800000D01*
X125939645Y-108785355D01*
X125925000Y-108750000D01*
X125925000Y-107250000D01*
X125939645Y-107214645D01*
X125975000Y-107200000D01*
X126975000Y-107200000D01*
X127010355Y-107214645D01*
G37*
G36*
X128460355Y-107214645D02*
G01*
X128475000Y-107250000D01*
X128475000Y-108750000D01*
X128460355Y-108785355D01*
X128425000Y-108800000D01*
X127275000Y-108800000D01*
X127239645Y-108785355D01*
X127225000Y-108750000D01*
X127233397Y-108722265D01*
X127714907Y-108000000D01*
X127233397Y-107277735D01*
X127225971Y-107240194D01*
X127247265Y-107208397D01*
X127275000Y-107200000D01*
X128425000Y-107200000D01*
X128460355Y-107214645D01*
G37*
G36*
X127010355Y-104214645D02*
G01*
X127016603Y-104222265D01*
X127516603Y-104972265D01*
X127524029Y-105009806D01*
X127516603Y-105027735D01*
X127016603Y-105777735D01*
X126984806Y-105799029D01*
X126975000Y-105800000D01*
X125975000Y-105800000D01*
X125939645Y-105785355D01*
X125925000Y-105750000D01*
X125925000Y-104250000D01*
X125939645Y-104214645D01*
X125975000Y-104200000D01*
X126975000Y-104200000D01*
X127010355Y-104214645D01*
G37*
G36*
X128460355Y-104214645D02*
G01*
X128475000Y-104250000D01*
X128475000Y-105750000D01*
X128460355Y-105785355D01*
X128425000Y-105800000D01*
X127275000Y-105800000D01*
X127239645Y-105785355D01*
X127225000Y-105750000D01*
X127233397Y-105722265D01*
X127714907Y-105000000D01*
X127233397Y-104277735D01*
X127225971Y-104240194D01*
X127247265Y-104208397D01*
X127275000Y-104200000D01*
X128425000Y-104200000D01*
X128460355Y-104214645D01*
G37*
M02*
