G04 #@! TF.GenerationSoftware,KiCad,Pcbnew,8.0.3+1*
G04 #@! TF.CreationDate,2024-07-01T11:39:10+00:00*
G04 #@! TF.ProjectId,STM32103_Devel,53544d33-3231-4303-935f-446576656c2e,0.0.2*
G04 #@! TF.SameCoordinates,Original*
G04 #@! TF.FileFunction,Legend,Top*
G04 #@! TF.FilePolarity,Positive*
%FSLAX46Y46*%
G04 Gerber Fmt 4.6, Leading zero omitted, Abs format (unit mm)*
G04 Created by KiCad (PCBNEW 8.0.3+1) date 2024-07-01 11:39:10*
%MOMM*%
%LPD*%
G01*
G04 APERTURE LIST*
%ADD10C,0.150000*%
%ADD11C,0.120000*%
%ADD12C,2.800000*%
%ADD13C,2.100000*%
%ADD14C,0.900000*%
%ADD15C,1.900000*%
%ADD16O,1.800000X1.800000*%
%ADD17O,1.100000X1.100000*%
G04 APERTURE END LIST*
D10*
X109131633Y-75995419D02*
X109226871Y-75995419D01*
X109226871Y-75995419D02*
X109322109Y-76043038D01*
X109322109Y-76043038D02*
X109369728Y-76090657D01*
X109369728Y-76090657D02*
X109417347Y-76185895D01*
X109417347Y-76185895D02*
X109464966Y-76376371D01*
X109464966Y-76376371D02*
X109464966Y-76614466D01*
X109464966Y-76614466D02*
X109417347Y-76804942D01*
X109417347Y-76804942D02*
X109369728Y-76900180D01*
X109369728Y-76900180D02*
X109322109Y-76947800D01*
X109322109Y-76947800D02*
X109226871Y-76995419D01*
X109226871Y-76995419D02*
X109131633Y-76995419D01*
X109131633Y-76995419D02*
X109036395Y-76947800D01*
X109036395Y-76947800D02*
X108988776Y-76900180D01*
X108988776Y-76900180D02*
X108941157Y-76804942D01*
X108941157Y-76804942D02*
X108893538Y-76614466D01*
X108893538Y-76614466D02*
X108893538Y-76376371D01*
X108893538Y-76376371D02*
X108941157Y-76185895D01*
X108941157Y-76185895D02*
X108988776Y-76090657D01*
X108988776Y-76090657D02*
X109036395Y-76043038D01*
X109036395Y-76043038D02*
X109131633Y-75995419D01*
X111417348Y-76614466D02*
X112179253Y-76614466D01*
X114703062Y-76995419D02*
X114131634Y-76995419D01*
X114417348Y-76995419D02*
X114417348Y-75995419D01*
X114417348Y-75995419D02*
X114322110Y-76138276D01*
X114322110Y-76138276D02*
X114226872Y-76233514D01*
X114226872Y-76233514D02*
X114131634Y-76281133D01*
X126362857Y-77233866D02*
X127124762Y-77233866D01*
X127600952Y-77614819D02*
X127600952Y-76614819D01*
X127600952Y-76614819D02*
X127981904Y-76614819D01*
X127981904Y-76614819D02*
X128077142Y-76662438D01*
X128077142Y-76662438D02*
X128124761Y-76710057D01*
X128124761Y-76710057D02*
X128172380Y-76805295D01*
X128172380Y-76805295D02*
X128172380Y-76948152D01*
X128172380Y-76948152D02*
X128124761Y-77043390D01*
X128124761Y-77043390D02*
X128077142Y-77091009D01*
X128077142Y-77091009D02*
X127981904Y-77138628D01*
X127981904Y-77138628D02*
X127600952Y-77138628D01*
X128934285Y-77091009D02*
X129077142Y-77138628D01*
X129077142Y-77138628D02*
X129124761Y-77186247D01*
X129124761Y-77186247D02*
X129172380Y-77281485D01*
X129172380Y-77281485D02*
X129172380Y-77424342D01*
X129172380Y-77424342D02*
X129124761Y-77519580D01*
X129124761Y-77519580D02*
X129077142Y-77567200D01*
X129077142Y-77567200D02*
X128981904Y-77614819D01*
X128981904Y-77614819D02*
X128600952Y-77614819D01*
X128600952Y-77614819D02*
X128600952Y-76614819D01*
X128600952Y-76614819D02*
X128934285Y-76614819D01*
X128934285Y-76614819D02*
X129029523Y-76662438D01*
X129029523Y-76662438D02*
X129077142Y-76710057D01*
X129077142Y-76710057D02*
X129124761Y-76805295D01*
X129124761Y-76805295D02*
X129124761Y-76900533D01*
X129124761Y-76900533D02*
X129077142Y-76995771D01*
X129077142Y-76995771D02*
X129029523Y-77043390D01*
X129029523Y-77043390D02*
X128934285Y-77091009D01*
X128934285Y-77091009D02*
X128600952Y-77091009D01*
X130077142Y-76614819D02*
X129600952Y-76614819D01*
X129600952Y-76614819D02*
X129553333Y-77091009D01*
X129553333Y-77091009D02*
X129600952Y-77043390D01*
X129600952Y-77043390D02*
X129696190Y-76995771D01*
X129696190Y-76995771D02*
X129934285Y-76995771D01*
X129934285Y-76995771D02*
X130029523Y-77043390D01*
X130029523Y-77043390D02*
X130077142Y-77091009D01*
X130077142Y-77091009D02*
X130124761Y-77186247D01*
X130124761Y-77186247D02*
X130124761Y-77424342D01*
X130124761Y-77424342D02*
X130077142Y-77519580D01*
X130077142Y-77519580D02*
X130029523Y-77567200D01*
X130029523Y-77567200D02*
X129934285Y-77614819D01*
X129934285Y-77614819D02*
X129696190Y-77614819D01*
X129696190Y-77614819D02*
X129600952Y-77567200D01*
X129600952Y-77567200D02*
X129553333Y-77519580D01*
X145184819Y-114386666D02*
X144184819Y-114386666D01*
X144184819Y-114386666D02*
X144184819Y-114148571D01*
X144184819Y-114148571D02*
X144232438Y-114005714D01*
X144232438Y-114005714D02*
X144327676Y-113910476D01*
X144327676Y-113910476D02*
X144422914Y-113862857D01*
X144422914Y-113862857D02*
X144613390Y-113815238D01*
X144613390Y-113815238D02*
X144756247Y-113815238D01*
X144756247Y-113815238D02*
X144946723Y-113862857D01*
X144946723Y-113862857D02*
X145041961Y-113910476D01*
X145041961Y-113910476D02*
X145137200Y-114005714D01*
X145137200Y-114005714D02*
X145184819Y-114148571D01*
X145184819Y-114148571D02*
X145184819Y-114386666D01*
X145089580Y-112815238D02*
X145137200Y-112862857D01*
X145137200Y-112862857D02*
X145184819Y-113005714D01*
X145184819Y-113005714D02*
X145184819Y-113100952D01*
X145184819Y-113100952D02*
X145137200Y-113243809D01*
X145137200Y-113243809D02*
X145041961Y-113339047D01*
X145041961Y-113339047D02*
X144946723Y-113386666D01*
X144946723Y-113386666D02*
X144756247Y-113434285D01*
X144756247Y-113434285D02*
X144613390Y-113434285D01*
X144613390Y-113434285D02*
X144422914Y-113386666D01*
X144422914Y-113386666D02*
X144327676Y-113339047D01*
X144327676Y-113339047D02*
X144232438Y-113243809D01*
X144232438Y-113243809D02*
X144184819Y-113100952D01*
X144184819Y-113100952D02*
X144184819Y-113005714D01*
X144184819Y-113005714D02*
X144232438Y-112862857D01*
X144232438Y-112862857D02*
X144280057Y-112815238D01*
X145184819Y-111910476D02*
X145184819Y-112386666D01*
X145184819Y-112386666D02*
X144184819Y-112386666D01*
X145184819Y-111577142D02*
X144184819Y-111577142D01*
X145184819Y-111005714D02*
X144613390Y-111434285D01*
X144184819Y-111005714D02*
X144756247Y-111577142D01*
X146561180Y-71127523D02*
X146561180Y-70556095D01*
X146561180Y-70841809D02*
X147561180Y-70841809D01*
X147561180Y-70841809D02*
X147418323Y-70746571D01*
X147418323Y-70746571D02*
X147323085Y-70651333D01*
X147323085Y-70651333D02*
X147275466Y-70556095D01*
X147561180Y-72032285D02*
X147561180Y-71556095D01*
X147561180Y-71556095D02*
X147084990Y-71508476D01*
X147084990Y-71508476D02*
X147132609Y-71556095D01*
X147132609Y-71556095D02*
X147180228Y-71651333D01*
X147180228Y-71651333D02*
X147180228Y-71889428D01*
X147180228Y-71889428D02*
X147132609Y-71984666D01*
X147132609Y-71984666D02*
X147084990Y-72032285D01*
X147084990Y-72032285D02*
X146989752Y-72079904D01*
X146989752Y-72079904D02*
X146751657Y-72079904D01*
X146751657Y-72079904D02*
X146656419Y-72032285D01*
X146656419Y-72032285D02*
X146608800Y-71984666D01*
X146608800Y-71984666D02*
X146561180Y-71889428D01*
X146561180Y-71889428D02*
X146561180Y-71651333D01*
X146561180Y-71651333D02*
X146608800Y-71556095D01*
X146608800Y-71556095D02*
X146656419Y-71508476D01*
X101986209Y-79984637D02*
X102129066Y-80032256D01*
X102129066Y-80032256D02*
X102176685Y-80079875D01*
X102176685Y-80079875D02*
X102224304Y-80175113D01*
X102224304Y-80175113D02*
X102224304Y-80317970D01*
X102224304Y-80317970D02*
X102176685Y-80413208D01*
X102176685Y-80413208D02*
X102129066Y-80460828D01*
X102129066Y-80460828D02*
X102033828Y-80508447D01*
X102033828Y-80508447D02*
X101652876Y-80508447D01*
X101652876Y-80508447D02*
X101652876Y-79508447D01*
X101652876Y-79508447D02*
X101986209Y-79508447D01*
X101986209Y-79508447D02*
X102081447Y-79556066D01*
X102081447Y-79556066D02*
X102129066Y-79603685D01*
X102129066Y-79603685D02*
X102176685Y-79698923D01*
X102176685Y-79698923D02*
X102176685Y-79794161D01*
X102176685Y-79794161D02*
X102129066Y-79889399D01*
X102129066Y-79889399D02*
X102081447Y-79937018D01*
X102081447Y-79937018D02*
X101986209Y-79984637D01*
X101986209Y-79984637D02*
X101652876Y-79984637D01*
X102795733Y-80508447D02*
X102700495Y-80460828D01*
X102700495Y-80460828D02*
X102652876Y-80413208D01*
X102652876Y-80413208D02*
X102605257Y-80317970D01*
X102605257Y-80317970D02*
X102605257Y-80032256D01*
X102605257Y-80032256D02*
X102652876Y-79937018D01*
X102652876Y-79937018D02*
X102700495Y-79889399D01*
X102700495Y-79889399D02*
X102795733Y-79841780D01*
X102795733Y-79841780D02*
X102938590Y-79841780D01*
X102938590Y-79841780D02*
X103033828Y-79889399D01*
X103033828Y-79889399D02*
X103081447Y-79937018D01*
X103081447Y-79937018D02*
X103129066Y-80032256D01*
X103129066Y-80032256D02*
X103129066Y-80317970D01*
X103129066Y-80317970D02*
X103081447Y-80413208D01*
X103081447Y-80413208D02*
X103033828Y-80460828D01*
X103033828Y-80460828D02*
X102938590Y-80508447D01*
X102938590Y-80508447D02*
X102795733Y-80508447D01*
X103700495Y-80508447D02*
X103605257Y-80460828D01*
X103605257Y-80460828D02*
X103557638Y-80413208D01*
X103557638Y-80413208D02*
X103510019Y-80317970D01*
X103510019Y-80317970D02*
X103510019Y-80032256D01*
X103510019Y-80032256D02*
X103557638Y-79937018D01*
X103557638Y-79937018D02*
X103605257Y-79889399D01*
X103605257Y-79889399D02*
X103700495Y-79841780D01*
X103700495Y-79841780D02*
X103843352Y-79841780D01*
X103843352Y-79841780D02*
X103938590Y-79889399D01*
X103938590Y-79889399D02*
X103986209Y-79937018D01*
X103986209Y-79937018D02*
X104033828Y-80032256D01*
X104033828Y-80032256D02*
X104033828Y-80317970D01*
X104033828Y-80317970D02*
X103986209Y-80413208D01*
X103986209Y-80413208D02*
X103938590Y-80460828D01*
X103938590Y-80460828D02*
X103843352Y-80508447D01*
X103843352Y-80508447D02*
X103700495Y-80508447D01*
X104319543Y-79841780D02*
X104700495Y-79841780D01*
X104462400Y-79508447D02*
X104462400Y-80365589D01*
X104462400Y-80365589D02*
X104510019Y-80460828D01*
X104510019Y-80460828D02*
X104605257Y-80508447D01*
X104605257Y-80508447D02*
X104700495Y-80508447D01*
X105986210Y-79508447D02*
X106081448Y-79508447D01*
X106081448Y-79508447D02*
X106176686Y-79556066D01*
X106176686Y-79556066D02*
X106224305Y-79603685D01*
X106224305Y-79603685D02*
X106271924Y-79698923D01*
X106271924Y-79698923D02*
X106319543Y-79889399D01*
X106319543Y-79889399D02*
X106319543Y-80127494D01*
X106319543Y-80127494D02*
X106271924Y-80317970D01*
X106271924Y-80317970D02*
X106224305Y-80413208D01*
X106224305Y-80413208D02*
X106176686Y-80460828D01*
X106176686Y-80460828D02*
X106081448Y-80508447D01*
X106081448Y-80508447D02*
X105986210Y-80508447D01*
X105986210Y-80508447D02*
X105890972Y-80460828D01*
X105890972Y-80460828D02*
X105843353Y-80413208D01*
X105843353Y-80413208D02*
X105795734Y-80317970D01*
X105795734Y-80317970D02*
X105748115Y-80127494D01*
X105748115Y-80127494D02*
X105748115Y-79889399D01*
X105748115Y-79889399D02*
X105795734Y-79698923D01*
X105795734Y-79698923D02*
X105843353Y-79603685D01*
X105843353Y-79603685D02*
X105890972Y-79556066D01*
X105890972Y-79556066D02*
X105986210Y-79508447D01*
X101986209Y-81594581D02*
X102129066Y-81642200D01*
X102129066Y-81642200D02*
X102176685Y-81689819D01*
X102176685Y-81689819D02*
X102224304Y-81785057D01*
X102224304Y-81785057D02*
X102224304Y-81927914D01*
X102224304Y-81927914D02*
X102176685Y-82023152D01*
X102176685Y-82023152D02*
X102129066Y-82070772D01*
X102129066Y-82070772D02*
X102033828Y-82118391D01*
X102033828Y-82118391D02*
X101652876Y-82118391D01*
X101652876Y-82118391D02*
X101652876Y-81118391D01*
X101652876Y-81118391D02*
X101986209Y-81118391D01*
X101986209Y-81118391D02*
X102081447Y-81166010D01*
X102081447Y-81166010D02*
X102129066Y-81213629D01*
X102129066Y-81213629D02*
X102176685Y-81308867D01*
X102176685Y-81308867D02*
X102176685Y-81404105D01*
X102176685Y-81404105D02*
X102129066Y-81499343D01*
X102129066Y-81499343D02*
X102081447Y-81546962D01*
X102081447Y-81546962D02*
X101986209Y-81594581D01*
X101986209Y-81594581D02*
X101652876Y-81594581D01*
X102795733Y-82118391D02*
X102700495Y-82070772D01*
X102700495Y-82070772D02*
X102652876Y-82023152D01*
X102652876Y-82023152D02*
X102605257Y-81927914D01*
X102605257Y-81927914D02*
X102605257Y-81642200D01*
X102605257Y-81642200D02*
X102652876Y-81546962D01*
X102652876Y-81546962D02*
X102700495Y-81499343D01*
X102700495Y-81499343D02*
X102795733Y-81451724D01*
X102795733Y-81451724D02*
X102938590Y-81451724D01*
X102938590Y-81451724D02*
X103033828Y-81499343D01*
X103033828Y-81499343D02*
X103081447Y-81546962D01*
X103081447Y-81546962D02*
X103129066Y-81642200D01*
X103129066Y-81642200D02*
X103129066Y-81927914D01*
X103129066Y-81927914D02*
X103081447Y-82023152D01*
X103081447Y-82023152D02*
X103033828Y-82070772D01*
X103033828Y-82070772D02*
X102938590Y-82118391D01*
X102938590Y-82118391D02*
X102795733Y-82118391D01*
X103700495Y-82118391D02*
X103605257Y-82070772D01*
X103605257Y-82070772D02*
X103557638Y-82023152D01*
X103557638Y-82023152D02*
X103510019Y-81927914D01*
X103510019Y-81927914D02*
X103510019Y-81642200D01*
X103510019Y-81642200D02*
X103557638Y-81546962D01*
X103557638Y-81546962D02*
X103605257Y-81499343D01*
X103605257Y-81499343D02*
X103700495Y-81451724D01*
X103700495Y-81451724D02*
X103843352Y-81451724D01*
X103843352Y-81451724D02*
X103938590Y-81499343D01*
X103938590Y-81499343D02*
X103986209Y-81546962D01*
X103986209Y-81546962D02*
X104033828Y-81642200D01*
X104033828Y-81642200D02*
X104033828Y-81927914D01*
X104033828Y-81927914D02*
X103986209Y-82023152D01*
X103986209Y-82023152D02*
X103938590Y-82070772D01*
X103938590Y-82070772D02*
X103843352Y-82118391D01*
X103843352Y-82118391D02*
X103700495Y-82118391D01*
X104319543Y-81451724D02*
X104700495Y-81451724D01*
X104462400Y-81118391D02*
X104462400Y-81975533D01*
X104462400Y-81975533D02*
X104510019Y-82070772D01*
X104510019Y-82070772D02*
X104605257Y-82118391D01*
X104605257Y-82118391D02*
X104700495Y-82118391D01*
X106319543Y-82118391D02*
X105748115Y-82118391D01*
X106033829Y-82118391D02*
X106033829Y-81118391D01*
X106033829Y-81118391D02*
X105938591Y-81261248D01*
X105938591Y-81261248D02*
X105843353Y-81356486D01*
X105843353Y-81356486D02*
X105748115Y-81404105D01*
X109461180Y-71524381D02*
X109461180Y-71619619D01*
X109461180Y-71619619D02*
X109413561Y-71714857D01*
X109413561Y-71714857D02*
X109365942Y-71762476D01*
X109365942Y-71762476D02*
X109270704Y-71810095D01*
X109270704Y-71810095D02*
X109080228Y-71857714D01*
X109080228Y-71857714D02*
X108842133Y-71857714D01*
X108842133Y-71857714D02*
X108651657Y-71810095D01*
X108651657Y-71810095D02*
X108556419Y-71762476D01*
X108556419Y-71762476D02*
X108508800Y-71714857D01*
X108508800Y-71714857D02*
X108461180Y-71619619D01*
X108461180Y-71619619D02*
X108461180Y-71524381D01*
X108461180Y-71524381D02*
X108508800Y-71429143D01*
X108508800Y-71429143D02*
X108556419Y-71381524D01*
X108556419Y-71381524D02*
X108651657Y-71333905D01*
X108651657Y-71333905D02*
X108842133Y-71286286D01*
X108842133Y-71286286D02*
X109080228Y-71286286D01*
X109080228Y-71286286D02*
X109270704Y-71333905D01*
X109270704Y-71333905D02*
X109365942Y-71381524D01*
X109365942Y-71381524D02*
X109413561Y-71429143D01*
X109413561Y-71429143D02*
X109461180Y-71524381D01*
X138850819Y-114386761D02*
X139660342Y-114386761D01*
X139660342Y-114386761D02*
X139755580Y-114339142D01*
X139755580Y-114339142D02*
X139803200Y-114291523D01*
X139803200Y-114291523D02*
X139850819Y-114196285D01*
X139850819Y-114196285D02*
X139850819Y-114005809D01*
X139850819Y-114005809D02*
X139803200Y-113910571D01*
X139803200Y-113910571D02*
X139755580Y-113862952D01*
X139755580Y-113862952D02*
X139660342Y-113815333D01*
X139660342Y-113815333D02*
X138850819Y-113815333D01*
X139469866Y-113339142D02*
X139469866Y-112577238D01*
X139850819Y-112958190D02*
X139088914Y-112958190D01*
X146561180Y-118117523D02*
X146561180Y-117546095D01*
X146561180Y-117831809D02*
X147561180Y-117831809D01*
X147561180Y-117831809D02*
X147418323Y-117736571D01*
X147418323Y-117736571D02*
X147323085Y-117641333D01*
X147323085Y-117641333D02*
X147275466Y-117546095D01*
X147561180Y-119022285D02*
X147561180Y-118546095D01*
X147561180Y-118546095D02*
X147084990Y-118498476D01*
X147084990Y-118498476D02*
X147132609Y-118546095D01*
X147132609Y-118546095D02*
X147180228Y-118641333D01*
X147180228Y-118641333D02*
X147180228Y-118879428D01*
X147180228Y-118879428D02*
X147132609Y-118974666D01*
X147132609Y-118974666D02*
X147084990Y-119022285D01*
X147084990Y-119022285D02*
X146989752Y-119069904D01*
X146989752Y-119069904D02*
X146751657Y-119069904D01*
X146751657Y-119069904D02*
X146656419Y-119022285D01*
X146656419Y-119022285D02*
X146608800Y-118974666D01*
X146608800Y-118974666D02*
X146561180Y-118879428D01*
X146561180Y-118879428D02*
X146561180Y-118641333D01*
X146561180Y-118641333D02*
X146608800Y-118546095D01*
X146608800Y-118546095D02*
X146656419Y-118498476D01*
X109461180Y-118387381D02*
X109461180Y-118482619D01*
X109461180Y-118482619D02*
X109413561Y-118577857D01*
X109413561Y-118577857D02*
X109365942Y-118625476D01*
X109365942Y-118625476D02*
X109270704Y-118673095D01*
X109270704Y-118673095D02*
X109080228Y-118720714D01*
X109080228Y-118720714D02*
X108842133Y-118720714D01*
X108842133Y-118720714D02*
X108651657Y-118673095D01*
X108651657Y-118673095D02*
X108556419Y-118625476D01*
X108556419Y-118625476D02*
X108508800Y-118577857D01*
X108508800Y-118577857D02*
X108461180Y-118482619D01*
X108461180Y-118482619D02*
X108461180Y-118387381D01*
X108461180Y-118387381D02*
X108508800Y-118292143D01*
X108508800Y-118292143D02*
X108556419Y-118244524D01*
X108556419Y-118244524D02*
X108651657Y-118196905D01*
X108651657Y-118196905D02*
X108842133Y-118149286D01*
X108842133Y-118149286D02*
X109080228Y-118149286D01*
X109080228Y-118149286D02*
X109270704Y-118196905D01*
X109270704Y-118196905D02*
X109365942Y-118244524D01*
X109365942Y-118244524D02*
X109413561Y-118292143D01*
X109413561Y-118292143D02*
X109461180Y-118387381D01*
X142644819Y-114251808D02*
X141644819Y-114251808D01*
X141644819Y-114251808D02*
X141644819Y-114013713D01*
X141644819Y-114013713D02*
X141692438Y-113870856D01*
X141692438Y-113870856D02*
X141787676Y-113775618D01*
X141787676Y-113775618D02*
X141882914Y-113727999D01*
X141882914Y-113727999D02*
X142073390Y-113680380D01*
X142073390Y-113680380D02*
X142216247Y-113680380D01*
X142216247Y-113680380D02*
X142406723Y-113727999D01*
X142406723Y-113727999D02*
X142501961Y-113775618D01*
X142501961Y-113775618D02*
X142597200Y-113870856D01*
X142597200Y-113870856D02*
X142644819Y-114013713D01*
X142644819Y-114013713D02*
X142644819Y-114251808D01*
X142644819Y-113251808D02*
X141644819Y-113251808D01*
X141644819Y-112585142D02*
X141644819Y-112394666D01*
X141644819Y-112394666D02*
X141692438Y-112299428D01*
X141692438Y-112299428D02*
X141787676Y-112204190D01*
X141787676Y-112204190D02*
X141978152Y-112156571D01*
X141978152Y-112156571D02*
X142311485Y-112156571D01*
X142311485Y-112156571D02*
X142501961Y-112204190D01*
X142501961Y-112204190D02*
X142597200Y-112299428D01*
X142597200Y-112299428D02*
X142644819Y-112394666D01*
X142644819Y-112394666D02*
X142644819Y-112585142D01*
X142644819Y-112585142D02*
X142597200Y-112680380D01*
X142597200Y-112680380D02*
X142501961Y-112775618D01*
X142501961Y-112775618D02*
X142311485Y-112823237D01*
X142311485Y-112823237D02*
X141978152Y-112823237D01*
X141978152Y-112823237D02*
X141787676Y-112775618D01*
X141787676Y-112775618D02*
X141692438Y-112680380D01*
X141692438Y-112680380D02*
X141644819Y-112585142D01*
X114181009Y-71976761D02*
X114228628Y-71833904D01*
X114228628Y-71833904D02*
X114276247Y-71786285D01*
X114276247Y-71786285D02*
X114371485Y-71738666D01*
X114371485Y-71738666D02*
X114514342Y-71738666D01*
X114514342Y-71738666D02*
X114609580Y-71786285D01*
X114609580Y-71786285D02*
X114657200Y-71833904D01*
X114657200Y-71833904D02*
X114704819Y-71929142D01*
X114704819Y-71929142D02*
X114704819Y-72310094D01*
X114704819Y-72310094D02*
X113704819Y-72310094D01*
X113704819Y-72310094D02*
X113704819Y-71976761D01*
X113704819Y-71976761D02*
X113752438Y-71881523D01*
X113752438Y-71881523D02*
X113800057Y-71833904D01*
X113800057Y-71833904D02*
X113895295Y-71786285D01*
X113895295Y-71786285D02*
X113990533Y-71786285D01*
X113990533Y-71786285D02*
X114085771Y-71833904D01*
X114085771Y-71833904D02*
X114133390Y-71881523D01*
X114133390Y-71881523D02*
X114181009Y-71976761D01*
X114181009Y-71976761D02*
X114181009Y-72310094D01*
X114704819Y-70786285D02*
X114704819Y-71357713D01*
X114704819Y-71071999D02*
X113704819Y-71071999D01*
X113704819Y-71071999D02*
X113847676Y-71167237D01*
X113847676Y-71167237D02*
X113942914Y-71262475D01*
X113942914Y-71262475D02*
X113990533Y-71357713D01*
X122070819Y-71738666D02*
X122070819Y-72214856D01*
X122070819Y-72214856D02*
X121070819Y-72214856D01*
X122070819Y-70881523D02*
X122070819Y-71452951D01*
X122070819Y-71167237D02*
X121070819Y-71167237D01*
X121070819Y-71167237D02*
X121213676Y-71262475D01*
X121213676Y-71262475D02*
X121308914Y-71357713D01*
X121308914Y-71357713D02*
X121356533Y-71452951D01*
X116244819Y-72381523D02*
X116244819Y-71810095D01*
X117244819Y-72095809D02*
X116244819Y-72095809D01*
X116244819Y-71286285D02*
X116244819Y-71095809D01*
X116244819Y-71095809D02*
X116292438Y-71000571D01*
X116292438Y-71000571D02*
X116387676Y-70905333D01*
X116387676Y-70905333D02*
X116578152Y-70857714D01*
X116578152Y-70857714D02*
X116911485Y-70857714D01*
X116911485Y-70857714D02*
X117101961Y-70905333D01*
X117101961Y-70905333D02*
X117197200Y-71000571D01*
X117197200Y-71000571D02*
X117244819Y-71095809D01*
X117244819Y-71095809D02*
X117244819Y-71286285D01*
X117244819Y-71286285D02*
X117197200Y-71381523D01*
X117197200Y-71381523D02*
X117101961Y-71476761D01*
X117101961Y-71476761D02*
X116911485Y-71524380D01*
X116911485Y-71524380D02*
X116578152Y-71524380D01*
X116578152Y-71524380D02*
X116387676Y-71476761D01*
X116387676Y-71476761D02*
X116292438Y-71381523D01*
X116292438Y-71381523D02*
X116244819Y-71286285D01*
X127204095Y-71772819D02*
X127204095Y-70772819D01*
X127204095Y-70772819D02*
X127585047Y-70772819D01*
X127585047Y-70772819D02*
X127680285Y-70820438D01*
X127680285Y-70820438D02*
X127727904Y-70868057D01*
X127727904Y-70868057D02*
X127775523Y-70963295D01*
X127775523Y-70963295D02*
X127775523Y-71106152D01*
X127775523Y-71106152D02*
X127727904Y-71201390D01*
X127727904Y-71201390D02*
X127680285Y-71249009D01*
X127680285Y-71249009D02*
X127585047Y-71296628D01*
X127585047Y-71296628D02*
X127204095Y-71296628D01*
X128537428Y-71249009D02*
X128680285Y-71296628D01*
X128680285Y-71296628D02*
X128727904Y-71344247D01*
X128727904Y-71344247D02*
X128775523Y-71439485D01*
X128775523Y-71439485D02*
X128775523Y-71582342D01*
X128775523Y-71582342D02*
X128727904Y-71677580D01*
X128727904Y-71677580D02*
X128680285Y-71725200D01*
X128680285Y-71725200D02*
X128585047Y-71772819D01*
X128585047Y-71772819D02*
X128204095Y-71772819D01*
X128204095Y-71772819D02*
X128204095Y-70772819D01*
X128204095Y-70772819D02*
X128537428Y-70772819D01*
X128537428Y-70772819D02*
X128632666Y-70820438D01*
X128632666Y-70820438D02*
X128680285Y-70868057D01*
X128680285Y-70868057D02*
X128727904Y-70963295D01*
X128727904Y-70963295D02*
X128727904Y-71058533D01*
X128727904Y-71058533D02*
X128680285Y-71153771D01*
X128680285Y-71153771D02*
X128632666Y-71201390D01*
X128632666Y-71201390D02*
X128537428Y-71249009D01*
X128537428Y-71249009D02*
X128204095Y-71249009D01*
X127275524Y-118762819D02*
X127275524Y-117762819D01*
X127275524Y-117762819D02*
X127656476Y-117762819D01*
X127656476Y-117762819D02*
X127751714Y-117810438D01*
X127751714Y-117810438D02*
X127799333Y-117858057D01*
X127799333Y-117858057D02*
X127846952Y-117953295D01*
X127846952Y-117953295D02*
X127846952Y-118096152D01*
X127846952Y-118096152D02*
X127799333Y-118191390D01*
X127799333Y-118191390D02*
X127751714Y-118239009D01*
X127751714Y-118239009D02*
X127656476Y-118286628D01*
X127656476Y-118286628D02*
X127275524Y-118286628D01*
X128227905Y-118477104D02*
X128704095Y-118477104D01*
X128132667Y-118762819D02*
X128466000Y-117762819D01*
X128466000Y-117762819D02*
X128799333Y-118762819D01*
X153278953Y-95347200D02*
X153421810Y-95394819D01*
X153421810Y-95394819D02*
X153659905Y-95394819D01*
X153659905Y-95394819D02*
X153755143Y-95347200D01*
X153755143Y-95347200D02*
X153802762Y-95299580D01*
X153802762Y-95299580D02*
X153850381Y-95204342D01*
X153850381Y-95204342D02*
X153850381Y-95109104D01*
X153850381Y-95109104D02*
X153802762Y-95013866D01*
X153802762Y-95013866D02*
X153755143Y-94966247D01*
X153755143Y-94966247D02*
X153659905Y-94918628D01*
X153659905Y-94918628D02*
X153469429Y-94871009D01*
X153469429Y-94871009D02*
X153374191Y-94823390D01*
X153374191Y-94823390D02*
X153326572Y-94775771D01*
X153326572Y-94775771D02*
X153278953Y-94680533D01*
X153278953Y-94680533D02*
X153278953Y-94585295D01*
X153278953Y-94585295D02*
X153326572Y-94490057D01*
X153326572Y-94490057D02*
X153374191Y-94442438D01*
X153374191Y-94442438D02*
X153469429Y-94394819D01*
X153469429Y-94394819D02*
X153707524Y-94394819D01*
X153707524Y-94394819D02*
X153850381Y-94442438D01*
X154183715Y-94394819D02*
X154421810Y-95394819D01*
X154421810Y-95394819D02*
X154612286Y-94680533D01*
X154612286Y-94680533D02*
X154802762Y-95394819D01*
X154802762Y-95394819D02*
X155040858Y-94394819D01*
X155421810Y-95394819D02*
X155421810Y-94394819D01*
X155421810Y-94394819D02*
X155659905Y-94394819D01*
X155659905Y-94394819D02*
X155802762Y-94442438D01*
X155802762Y-94442438D02*
X155898000Y-94537676D01*
X155898000Y-94537676D02*
X155945619Y-94632914D01*
X155945619Y-94632914D02*
X155993238Y-94823390D01*
X155993238Y-94823390D02*
X155993238Y-94966247D01*
X155993238Y-94966247D02*
X155945619Y-95156723D01*
X155945619Y-95156723D02*
X155898000Y-95251961D01*
X155898000Y-95251961D02*
X155802762Y-95347200D01*
X155802762Y-95347200D02*
X155659905Y-95394819D01*
X155659905Y-95394819D02*
X155421810Y-95394819D01*
X156421810Y-95394819D02*
X156421810Y-94394819D01*
X157088476Y-94394819D02*
X157278952Y-94394819D01*
X157278952Y-94394819D02*
X157374190Y-94442438D01*
X157374190Y-94442438D02*
X157469428Y-94537676D01*
X157469428Y-94537676D02*
X157517047Y-94728152D01*
X157517047Y-94728152D02*
X157517047Y-95061485D01*
X157517047Y-95061485D02*
X157469428Y-95251961D01*
X157469428Y-95251961D02*
X157374190Y-95347200D01*
X157374190Y-95347200D02*
X157278952Y-95394819D01*
X157278952Y-95394819D02*
X157088476Y-95394819D01*
X157088476Y-95394819D02*
X156993238Y-95347200D01*
X156993238Y-95347200D02*
X156898000Y-95251961D01*
X156898000Y-95251961D02*
X156850381Y-95061485D01*
X156850381Y-95061485D02*
X156850381Y-94728152D01*
X156850381Y-94728152D02*
X156898000Y-94537676D01*
X156898000Y-94537676D02*
X156993238Y-94442438D01*
X156993238Y-94442438D02*
X157088476Y-94394819D01*
X152128095Y-98014200D02*
X152270952Y-98061819D01*
X152270952Y-98061819D02*
X152509047Y-98061819D01*
X152509047Y-98061819D02*
X152604285Y-98014200D01*
X152604285Y-98014200D02*
X152651904Y-97966580D01*
X152651904Y-97966580D02*
X152699523Y-97871342D01*
X152699523Y-97871342D02*
X152699523Y-97776104D01*
X152699523Y-97776104D02*
X152651904Y-97680866D01*
X152651904Y-97680866D02*
X152604285Y-97633247D01*
X152604285Y-97633247D02*
X152509047Y-97585628D01*
X152509047Y-97585628D02*
X152318571Y-97538009D01*
X152318571Y-97538009D02*
X152223333Y-97490390D01*
X152223333Y-97490390D02*
X152175714Y-97442771D01*
X152175714Y-97442771D02*
X152128095Y-97347533D01*
X152128095Y-97347533D02*
X152128095Y-97252295D01*
X152128095Y-97252295D02*
X152175714Y-97157057D01*
X152175714Y-97157057D02*
X152223333Y-97109438D01*
X152223333Y-97109438D02*
X152318571Y-97061819D01*
X152318571Y-97061819D02*
X152556666Y-97061819D01*
X152556666Y-97061819D02*
X152699523Y-97109438D01*
X153032857Y-97061819D02*
X153270952Y-98061819D01*
X153270952Y-98061819D02*
X153461428Y-97347533D01*
X153461428Y-97347533D02*
X153651904Y-98061819D01*
X153651904Y-98061819D02*
X153890000Y-97061819D01*
X154270952Y-98061819D02*
X154270952Y-97061819D01*
X154270952Y-97061819D02*
X154509047Y-97061819D01*
X154509047Y-97061819D02*
X154651904Y-97109438D01*
X154651904Y-97109438D02*
X154747142Y-97204676D01*
X154747142Y-97204676D02*
X154794761Y-97299914D01*
X154794761Y-97299914D02*
X154842380Y-97490390D01*
X154842380Y-97490390D02*
X154842380Y-97633247D01*
X154842380Y-97633247D02*
X154794761Y-97823723D01*
X154794761Y-97823723D02*
X154747142Y-97918961D01*
X154747142Y-97918961D02*
X154651904Y-98014200D01*
X154651904Y-98014200D02*
X154509047Y-98061819D01*
X154509047Y-98061819D02*
X154270952Y-98061819D01*
X155842380Y-97966580D02*
X155794761Y-98014200D01*
X155794761Y-98014200D02*
X155651904Y-98061819D01*
X155651904Y-98061819D02*
X155556666Y-98061819D01*
X155556666Y-98061819D02*
X155413809Y-98014200D01*
X155413809Y-98014200D02*
X155318571Y-97918961D01*
X155318571Y-97918961D02*
X155270952Y-97823723D01*
X155270952Y-97823723D02*
X155223333Y-97633247D01*
X155223333Y-97633247D02*
X155223333Y-97490390D01*
X155223333Y-97490390D02*
X155270952Y-97299914D01*
X155270952Y-97299914D02*
X155318571Y-97204676D01*
X155318571Y-97204676D02*
X155413809Y-97109438D01*
X155413809Y-97109438D02*
X155556666Y-97061819D01*
X155556666Y-97061819D02*
X155651904Y-97061819D01*
X155651904Y-97061819D02*
X155794761Y-97109438D01*
X155794761Y-97109438D02*
X155842380Y-97157057D01*
X156747142Y-98061819D02*
X156270952Y-98061819D01*
X156270952Y-98061819D02*
X156270952Y-97061819D01*
X157080476Y-98061819D02*
X157080476Y-97061819D01*
X157651904Y-98061819D02*
X157223333Y-97490390D01*
X157651904Y-97061819D02*
X157080476Y-97633247D01*
X154779048Y-102840200D02*
X154921905Y-102887819D01*
X154921905Y-102887819D02*
X155160000Y-102887819D01*
X155160000Y-102887819D02*
X155255238Y-102840200D01*
X155255238Y-102840200D02*
X155302857Y-102792580D01*
X155302857Y-102792580D02*
X155350476Y-102697342D01*
X155350476Y-102697342D02*
X155350476Y-102602104D01*
X155350476Y-102602104D02*
X155302857Y-102506866D01*
X155302857Y-102506866D02*
X155255238Y-102459247D01*
X155255238Y-102459247D02*
X155160000Y-102411628D01*
X155160000Y-102411628D02*
X154969524Y-102364009D01*
X154969524Y-102364009D02*
X154874286Y-102316390D01*
X154874286Y-102316390D02*
X154826667Y-102268771D01*
X154826667Y-102268771D02*
X154779048Y-102173533D01*
X154779048Y-102173533D02*
X154779048Y-102078295D01*
X154779048Y-102078295D02*
X154826667Y-101983057D01*
X154826667Y-101983057D02*
X154874286Y-101935438D01*
X154874286Y-101935438D02*
X154969524Y-101887819D01*
X154969524Y-101887819D02*
X155207619Y-101887819D01*
X155207619Y-101887819D02*
X155350476Y-101935438D01*
X155683810Y-101887819D02*
X155921905Y-102887819D01*
X155921905Y-102887819D02*
X156112381Y-102173533D01*
X156112381Y-102173533D02*
X156302857Y-102887819D01*
X156302857Y-102887819D02*
X156540953Y-101887819D01*
X157112381Y-101887819D02*
X157302857Y-101887819D01*
X157302857Y-101887819D02*
X157398095Y-101935438D01*
X157398095Y-101935438D02*
X157493333Y-102030676D01*
X157493333Y-102030676D02*
X157540952Y-102221152D01*
X157540952Y-102221152D02*
X157540952Y-102554485D01*
X157540952Y-102554485D02*
X157493333Y-102744961D01*
X157493333Y-102744961D02*
X157398095Y-102840200D01*
X157398095Y-102840200D02*
X157302857Y-102887819D01*
X157302857Y-102887819D02*
X157112381Y-102887819D01*
X157112381Y-102887819D02*
X157017143Y-102840200D01*
X157017143Y-102840200D02*
X156921905Y-102744961D01*
X156921905Y-102744961D02*
X156874286Y-102554485D01*
X156874286Y-102554485D02*
X156874286Y-102221152D01*
X156874286Y-102221152D02*
X156921905Y-102030676D01*
X156921905Y-102030676D02*
X157017143Y-101935438D01*
X157017143Y-101935438D02*
X157112381Y-101887819D01*
X155612380Y-105427819D02*
X155279047Y-104951628D01*
X155040952Y-105427819D02*
X155040952Y-104427819D01*
X155040952Y-104427819D02*
X155421904Y-104427819D01*
X155421904Y-104427819D02*
X155517142Y-104475438D01*
X155517142Y-104475438D02*
X155564761Y-104523057D01*
X155564761Y-104523057D02*
X155612380Y-104618295D01*
X155612380Y-104618295D02*
X155612380Y-104761152D01*
X155612380Y-104761152D02*
X155564761Y-104856390D01*
X155564761Y-104856390D02*
X155517142Y-104904009D01*
X155517142Y-104904009D02*
X155421904Y-104951628D01*
X155421904Y-104951628D02*
X155040952Y-104951628D01*
X155993333Y-105380200D02*
X156136190Y-105427819D01*
X156136190Y-105427819D02*
X156374285Y-105427819D01*
X156374285Y-105427819D02*
X156469523Y-105380200D01*
X156469523Y-105380200D02*
X156517142Y-105332580D01*
X156517142Y-105332580D02*
X156564761Y-105237342D01*
X156564761Y-105237342D02*
X156564761Y-105142104D01*
X156564761Y-105142104D02*
X156517142Y-105046866D01*
X156517142Y-105046866D02*
X156469523Y-104999247D01*
X156469523Y-104999247D02*
X156374285Y-104951628D01*
X156374285Y-104951628D02*
X156183809Y-104904009D01*
X156183809Y-104904009D02*
X156088571Y-104856390D01*
X156088571Y-104856390D02*
X156040952Y-104808771D01*
X156040952Y-104808771D02*
X155993333Y-104713533D01*
X155993333Y-104713533D02*
X155993333Y-104618295D01*
X155993333Y-104618295D02*
X156040952Y-104523057D01*
X156040952Y-104523057D02*
X156088571Y-104475438D01*
X156088571Y-104475438D02*
X156183809Y-104427819D01*
X156183809Y-104427819D02*
X156421904Y-104427819D01*
X156421904Y-104427819D02*
X156564761Y-104475438D01*
X156850476Y-104427819D02*
X157421904Y-104427819D01*
X157136190Y-105427819D02*
X157136190Y-104427819D01*
X136310819Y-114386761D02*
X137120342Y-114386761D01*
X137120342Y-114386761D02*
X137215580Y-114339142D01*
X137215580Y-114339142D02*
X137263200Y-114291523D01*
X137263200Y-114291523D02*
X137310819Y-114196285D01*
X137310819Y-114196285D02*
X137310819Y-114005809D01*
X137310819Y-114005809D02*
X137263200Y-113910571D01*
X137263200Y-113910571D02*
X137215580Y-113862952D01*
X137215580Y-113862952D02*
X137120342Y-113815333D01*
X137120342Y-113815333D02*
X136310819Y-113815333D01*
X136929866Y-113339142D02*
X136929866Y-112577238D01*
X143596866Y-96050999D02*
X143596866Y-95289095D01*
X142977819Y-94908142D02*
X142977819Y-94289095D01*
X142977819Y-94289095D02*
X143358771Y-94622428D01*
X143358771Y-94622428D02*
X143358771Y-94479571D01*
X143358771Y-94479571D02*
X143406390Y-94384333D01*
X143406390Y-94384333D02*
X143454009Y-94336714D01*
X143454009Y-94336714D02*
X143549247Y-94289095D01*
X143549247Y-94289095D02*
X143787342Y-94289095D01*
X143787342Y-94289095D02*
X143882580Y-94336714D01*
X143882580Y-94336714D02*
X143930200Y-94384333D01*
X143930200Y-94384333D02*
X143977819Y-94479571D01*
X143977819Y-94479571D02*
X143977819Y-94765285D01*
X143977819Y-94765285D02*
X143930200Y-94860523D01*
X143930200Y-94860523D02*
X143882580Y-94908142D01*
X143882580Y-93860523D02*
X143930200Y-93812904D01*
X143930200Y-93812904D02*
X143977819Y-93860523D01*
X143977819Y-93860523D02*
X143930200Y-93908142D01*
X143930200Y-93908142D02*
X143882580Y-93860523D01*
X143882580Y-93860523D02*
X143977819Y-93860523D01*
X142977819Y-93479571D02*
X142977819Y-92860524D01*
X142977819Y-92860524D02*
X143358771Y-93193857D01*
X143358771Y-93193857D02*
X143358771Y-93051000D01*
X143358771Y-93051000D02*
X143406390Y-92955762D01*
X143406390Y-92955762D02*
X143454009Y-92908143D01*
X143454009Y-92908143D02*
X143549247Y-92860524D01*
X143549247Y-92860524D02*
X143787342Y-92860524D01*
X143787342Y-92860524D02*
X143882580Y-92908143D01*
X143882580Y-92908143D02*
X143930200Y-92955762D01*
X143930200Y-92955762D02*
X143977819Y-93051000D01*
X143977819Y-93051000D02*
X143977819Y-93336714D01*
X143977819Y-93336714D02*
X143930200Y-93431952D01*
X143930200Y-93431952D02*
X143882580Y-93479571D01*
X142977819Y-92574809D02*
X143977819Y-92241476D01*
X143977819Y-92241476D02*
X142977819Y-91908143D01*
X137373866Y-96098713D02*
X137373866Y-95336809D01*
X136754819Y-94384428D02*
X136754819Y-94860618D01*
X136754819Y-94860618D02*
X137231009Y-94908237D01*
X137231009Y-94908237D02*
X137183390Y-94860618D01*
X137183390Y-94860618D02*
X137135771Y-94765380D01*
X137135771Y-94765380D02*
X137135771Y-94527285D01*
X137135771Y-94527285D02*
X137183390Y-94432047D01*
X137183390Y-94432047D02*
X137231009Y-94384428D01*
X137231009Y-94384428D02*
X137326247Y-94336809D01*
X137326247Y-94336809D02*
X137564342Y-94336809D01*
X137564342Y-94336809D02*
X137659580Y-94384428D01*
X137659580Y-94384428D02*
X137707200Y-94432047D01*
X137707200Y-94432047D02*
X137754819Y-94527285D01*
X137754819Y-94527285D02*
X137754819Y-94765380D01*
X137754819Y-94765380D02*
X137707200Y-94860618D01*
X137707200Y-94860618D02*
X137659580Y-94908237D01*
X136754819Y-94051094D02*
X137754819Y-93717761D01*
X137754819Y-93717761D02*
X136754819Y-93384428D01*
X114778628Y-94476190D02*
X115254819Y-94476190D01*
X114254819Y-94809523D02*
X114778628Y-94476190D01*
X114778628Y-94476190D02*
X114254819Y-94142857D01*
X115254819Y-93285714D02*
X115254819Y-93857142D01*
X115254819Y-93571428D02*
X114254819Y-93571428D01*
X114254819Y-93571428D02*
X114397676Y-93666666D01*
X114397676Y-93666666D02*
X114492914Y-93761904D01*
X114492914Y-93761904D02*
X114540533Y-93857142D01*
X125005333Y-79900819D02*
X124672000Y-79424628D01*
X124433905Y-79900819D02*
X124433905Y-78900819D01*
X124433905Y-78900819D02*
X124814857Y-78900819D01*
X124814857Y-78900819D02*
X124910095Y-78948438D01*
X124910095Y-78948438D02*
X124957714Y-78996057D01*
X124957714Y-78996057D02*
X125005333Y-79091295D01*
X125005333Y-79091295D02*
X125005333Y-79234152D01*
X125005333Y-79234152D02*
X124957714Y-79329390D01*
X124957714Y-79329390D02*
X124910095Y-79377009D01*
X124910095Y-79377009D02*
X124814857Y-79424628D01*
X124814857Y-79424628D02*
X124433905Y-79424628D01*
X125862476Y-78900819D02*
X125672000Y-78900819D01*
X125672000Y-78900819D02*
X125576762Y-78948438D01*
X125576762Y-78948438D02*
X125529143Y-78996057D01*
X125529143Y-78996057D02*
X125433905Y-79138914D01*
X125433905Y-79138914D02*
X125386286Y-79329390D01*
X125386286Y-79329390D02*
X125386286Y-79710342D01*
X125386286Y-79710342D02*
X125433905Y-79805580D01*
X125433905Y-79805580D02*
X125481524Y-79853200D01*
X125481524Y-79853200D02*
X125576762Y-79900819D01*
X125576762Y-79900819D02*
X125767238Y-79900819D01*
X125767238Y-79900819D02*
X125862476Y-79853200D01*
X125862476Y-79853200D02*
X125910095Y-79805580D01*
X125910095Y-79805580D02*
X125957714Y-79710342D01*
X125957714Y-79710342D02*
X125957714Y-79472247D01*
X125957714Y-79472247D02*
X125910095Y-79377009D01*
X125910095Y-79377009D02*
X125862476Y-79329390D01*
X125862476Y-79329390D02*
X125767238Y-79281771D01*
X125767238Y-79281771D02*
X125576762Y-79281771D01*
X125576762Y-79281771D02*
X125481524Y-79329390D01*
X125481524Y-79329390D02*
X125433905Y-79377009D01*
X125433905Y-79377009D02*
X125386286Y-79472247D01*
X113978628Y-88476190D02*
X114454819Y-88476190D01*
X113454819Y-88809523D02*
X113978628Y-88476190D01*
X113978628Y-88476190D02*
X113454819Y-88142857D01*
X113550057Y-87857142D02*
X113502438Y-87809523D01*
X113502438Y-87809523D02*
X113454819Y-87714285D01*
X113454819Y-87714285D02*
X113454819Y-87476190D01*
X113454819Y-87476190D02*
X113502438Y-87380952D01*
X113502438Y-87380952D02*
X113550057Y-87333333D01*
X113550057Y-87333333D02*
X113645295Y-87285714D01*
X113645295Y-87285714D02*
X113740533Y-87285714D01*
X113740533Y-87285714D02*
X113883390Y-87333333D01*
X113883390Y-87333333D02*
X114454819Y-87904761D01*
X114454819Y-87904761D02*
X114454819Y-87285714D01*
X152215142Y-105459580D02*
X152167523Y-105507200D01*
X152167523Y-105507200D02*
X152024666Y-105554819D01*
X152024666Y-105554819D02*
X151929428Y-105554819D01*
X151929428Y-105554819D02*
X151786571Y-105507200D01*
X151786571Y-105507200D02*
X151691333Y-105411961D01*
X151691333Y-105411961D02*
X151643714Y-105316723D01*
X151643714Y-105316723D02*
X151596095Y-105126247D01*
X151596095Y-105126247D02*
X151596095Y-104983390D01*
X151596095Y-104983390D02*
X151643714Y-104792914D01*
X151643714Y-104792914D02*
X151691333Y-104697676D01*
X151691333Y-104697676D02*
X151786571Y-104602438D01*
X151786571Y-104602438D02*
X151929428Y-104554819D01*
X151929428Y-104554819D02*
X152024666Y-104554819D01*
X152024666Y-104554819D02*
X152167523Y-104602438D01*
X152167523Y-104602438D02*
X152215142Y-104650057D01*
X153167523Y-105554819D02*
X152596095Y-105554819D01*
X152881809Y-105554819D02*
X152881809Y-104554819D01*
X152881809Y-104554819D02*
X152786571Y-104697676D01*
X152786571Y-104697676D02*
X152691333Y-104792914D01*
X152691333Y-104792914D02*
X152596095Y-104840533D01*
X154024666Y-104888152D02*
X154024666Y-105554819D01*
X153786571Y-104507200D02*
X153548476Y-105221485D01*
X153548476Y-105221485D02*
X154167523Y-105221485D01*
X115625580Y-106758857D02*
X115673200Y-106806476D01*
X115673200Y-106806476D02*
X115720819Y-106949333D01*
X115720819Y-106949333D02*
X115720819Y-107044571D01*
X115720819Y-107044571D02*
X115673200Y-107187428D01*
X115673200Y-107187428D02*
X115577961Y-107282666D01*
X115577961Y-107282666D02*
X115482723Y-107330285D01*
X115482723Y-107330285D02*
X115292247Y-107377904D01*
X115292247Y-107377904D02*
X115149390Y-107377904D01*
X115149390Y-107377904D02*
X114958914Y-107330285D01*
X114958914Y-107330285D02*
X114863676Y-107282666D01*
X114863676Y-107282666D02*
X114768438Y-107187428D01*
X114768438Y-107187428D02*
X114720819Y-107044571D01*
X114720819Y-107044571D02*
X114720819Y-106949333D01*
X114720819Y-106949333D02*
X114768438Y-106806476D01*
X114768438Y-106806476D02*
X114816057Y-106758857D01*
X115720819Y-105806476D02*
X115720819Y-106377904D01*
X115720819Y-106092190D02*
X114720819Y-106092190D01*
X114720819Y-106092190D02*
X114863676Y-106187428D01*
X114863676Y-106187428D02*
X114958914Y-106282666D01*
X114958914Y-106282666D02*
X115006533Y-106377904D01*
X114720819Y-105473142D02*
X114720819Y-104854095D01*
X114720819Y-104854095D02*
X115101771Y-105187428D01*
X115101771Y-105187428D02*
X115101771Y-105044571D01*
X115101771Y-105044571D02*
X115149390Y-104949333D01*
X115149390Y-104949333D02*
X115197009Y-104901714D01*
X115197009Y-104901714D02*
X115292247Y-104854095D01*
X115292247Y-104854095D02*
X115530342Y-104854095D01*
X115530342Y-104854095D02*
X115625580Y-104901714D01*
X115625580Y-104901714D02*
X115673200Y-104949333D01*
X115673200Y-104949333D02*
X115720819Y-105044571D01*
X115720819Y-105044571D02*
X115720819Y-105330285D01*
X115720819Y-105330285D02*
X115673200Y-105425523D01*
X115673200Y-105425523D02*
X115625580Y-105473142D01*
X103923333Y-86409580D02*
X103875714Y-86457200D01*
X103875714Y-86457200D02*
X103732857Y-86504819D01*
X103732857Y-86504819D02*
X103637619Y-86504819D01*
X103637619Y-86504819D02*
X103494762Y-86457200D01*
X103494762Y-86457200D02*
X103399524Y-86361961D01*
X103399524Y-86361961D02*
X103351905Y-86266723D01*
X103351905Y-86266723D02*
X103304286Y-86076247D01*
X103304286Y-86076247D02*
X103304286Y-85933390D01*
X103304286Y-85933390D02*
X103351905Y-85742914D01*
X103351905Y-85742914D02*
X103399524Y-85647676D01*
X103399524Y-85647676D02*
X103494762Y-85552438D01*
X103494762Y-85552438D02*
X103637619Y-85504819D01*
X103637619Y-85504819D02*
X103732857Y-85504819D01*
X103732857Y-85504819D02*
X103875714Y-85552438D01*
X103875714Y-85552438D02*
X103923333Y-85600057D01*
X104828095Y-85504819D02*
X104351905Y-85504819D01*
X104351905Y-85504819D02*
X104304286Y-85981009D01*
X104304286Y-85981009D02*
X104351905Y-85933390D01*
X104351905Y-85933390D02*
X104447143Y-85885771D01*
X104447143Y-85885771D02*
X104685238Y-85885771D01*
X104685238Y-85885771D02*
X104780476Y-85933390D01*
X104780476Y-85933390D02*
X104828095Y-85981009D01*
X104828095Y-85981009D02*
X104875714Y-86076247D01*
X104875714Y-86076247D02*
X104875714Y-86314342D01*
X104875714Y-86314342D02*
X104828095Y-86409580D01*
X104828095Y-86409580D02*
X104780476Y-86457200D01*
X104780476Y-86457200D02*
X104685238Y-86504819D01*
X104685238Y-86504819D02*
X104447143Y-86504819D01*
X104447143Y-86504819D02*
X104351905Y-86457200D01*
X104351905Y-86457200D02*
X104304286Y-86409580D01*
X120009580Y-88166666D02*
X120057200Y-88214285D01*
X120057200Y-88214285D02*
X120104819Y-88357142D01*
X120104819Y-88357142D02*
X120104819Y-88452380D01*
X120104819Y-88452380D02*
X120057200Y-88595237D01*
X120057200Y-88595237D02*
X119961961Y-88690475D01*
X119961961Y-88690475D02*
X119866723Y-88738094D01*
X119866723Y-88738094D02*
X119676247Y-88785713D01*
X119676247Y-88785713D02*
X119533390Y-88785713D01*
X119533390Y-88785713D02*
X119342914Y-88738094D01*
X119342914Y-88738094D02*
X119247676Y-88690475D01*
X119247676Y-88690475D02*
X119152438Y-88595237D01*
X119152438Y-88595237D02*
X119104819Y-88452380D01*
X119104819Y-88452380D02*
X119104819Y-88357142D01*
X119104819Y-88357142D02*
X119152438Y-88214285D01*
X119152438Y-88214285D02*
X119200057Y-88166666D01*
X120104819Y-87214285D02*
X120104819Y-87785713D01*
X120104819Y-87499999D02*
X119104819Y-87499999D01*
X119104819Y-87499999D02*
X119247676Y-87595237D01*
X119247676Y-87595237D02*
X119342914Y-87690475D01*
X119342914Y-87690475D02*
X119390533Y-87785713D01*
X139737333Y-91838819D02*
X139404000Y-91362628D01*
X139165905Y-91838819D02*
X139165905Y-90838819D01*
X139165905Y-90838819D02*
X139546857Y-90838819D01*
X139546857Y-90838819D02*
X139642095Y-90886438D01*
X139642095Y-90886438D02*
X139689714Y-90934057D01*
X139689714Y-90934057D02*
X139737333Y-91029295D01*
X139737333Y-91029295D02*
X139737333Y-91172152D01*
X139737333Y-91172152D02*
X139689714Y-91267390D01*
X139689714Y-91267390D02*
X139642095Y-91315009D01*
X139642095Y-91315009D02*
X139546857Y-91362628D01*
X139546857Y-91362628D02*
X139165905Y-91362628D01*
X140118286Y-90934057D02*
X140165905Y-90886438D01*
X140165905Y-90886438D02*
X140261143Y-90838819D01*
X140261143Y-90838819D02*
X140499238Y-90838819D01*
X140499238Y-90838819D02*
X140594476Y-90886438D01*
X140594476Y-90886438D02*
X140642095Y-90934057D01*
X140642095Y-90934057D02*
X140689714Y-91029295D01*
X140689714Y-91029295D02*
X140689714Y-91124533D01*
X140689714Y-91124533D02*
X140642095Y-91267390D01*
X140642095Y-91267390D02*
X140070667Y-91838819D01*
X140070667Y-91838819D02*
X140689714Y-91838819D01*
X131609333Y-101775580D02*
X131561714Y-101823200D01*
X131561714Y-101823200D02*
X131418857Y-101870819D01*
X131418857Y-101870819D02*
X131323619Y-101870819D01*
X131323619Y-101870819D02*
X131180762Y-101823200D01*
X131180762Y-101823200D02*
X131085524Y-101727961D01*
X131085524Y-101727961D02*
X131037905Y-101632723D01*
X131037905Y-101632723D02*
X130990286Y-101442247D01*
X130990286Y-101442247D02*
X130990286Y-101299390D01*
X130990286Y-101299390D02*
X131037905Y-101108914D01*
X131037905Y-101108914D02*
X131085524Y-101013676D01*
X131085524Y-101013676D02*
X131180762Y-100918438D01*
X131180762Y-100918438D02*
X131323619Y-100870819D01*
X131323619Y-100870819D02*
X131418857Y-100870819D01*
X131418857Y-100870819D02*
X131561714Y-100918438D01*
X131561714Y-100918438D02*
X131609333Y-100966057D01*
X132180762Y-101299390D02*
X132085524Y-101251771D01*
X132085524Y-101251771D02*
X132037905Y-101204152D01*
X132037905Y-101204152D02*
X131990286Y-101108914D01*
X131990286Y-101108914D02*
X131990286Y-101061295D01*
X131990286Y-101061295D02*
X132037905Y-100966057D01*
X132037905Y-100966057D02*
X132085524Y-100918438D01*
X132085524Y-100918438D02*
X132180762Y-100870819D01*
X132180762Y-100870819D02*
X132371238Y-100870819D01*
X132371238Y-100870819D02*
X132466476Y-100918438D01*
X132466476Y-100918438D02*
X132514095Y-100966057D01*
X132514095Y-100966057D02*
X132561714Y-101061295D01*
X132561714Y-101061295D02*
X132561714Y-101108914D01*
X132561714Y-101108914D02*
X132514095Y-101204152D01*
X132514095Y-101204152D02*
X132466476Y-101251771D01*
X132466476Y-101251771D02*
X132371238Y-101299390D01*
X132371238Y-101299390D02*
X132180762Y-101299390D01*
X132180762Y-101299390D02*
X132085524Y-101347009D01*
X132085524Y-101347009D02*
X132037905Y-101394628D01*
X132037905Y-101394628D02*
X131990286Y-101489866D01*
X131990286Y-101489866D02*
X131990286Y-101680342D01*
X131990286Y-101680342D02*
X132037905Y-101775580D01*
X132037905Y-101775580D02*
X132085524Y-101823200D01*
X132085524Y-101823200D02*
X132180762Y-101870819D01*
X132180762Y-101870819D02*
X132371238Y-101870819D01*
X132371238Y-101870819D02*
X132466476Y-101823200D01*
X132466476Y-101823200D02*
X132514095Y-101775580D01*
X132514095Y-101775580D02*
X132561714Y-101680342D01*
X132561714Y-101680342D02*
X132561714Y-101489866D01*
X132561714Y-101489866D02*
X132514095Y-101394628D01*
X132514095Y-101394628D02*
X132466476Y-101347009D01*
X132466476Y-101347009D02*
X132371238Y-101299390D01*
X106735580Y-105266666D02*
X106783200Y-105314285D01*
X106783200Y-105314285D02*
X106830819Y-105457142D01*
X106830819Y-105457142D02*
X106830819Y-105552380D01*
X106830819Y-105552380D02*
X106783200Y-105695237D01*
X106783200Y-105695237D02*
X106687961Y-105790475D01*
X106687961Y-105790475D02*
X106592723Y-105838094D01*
X106592723Y-105838094D02*
X106402247Y-105885713D01*
X106402247Y-105885713D02*
X106259390Y-105885713D01*
X106259390Y-105885713D02*
X106068914Y-105838094D01*
X106068914Y-105838094D02*
X105973676Y-105790475D01*
X105973676Y-105790475D02*
X105878438Y-105695237D01*
X105878438Y-105695237D02*
X105830819Y-105552380D01*
X105830819Y-105552380D02*
X105830819Y-105457142D01*
X105830819Y-105457142D02*
X105878438Y-105314285D01*
X105878438Y-105314285D02*
X105926057Y-105266666D01*
X106830819Y-104790475D02*
X106830819Y-104599999D01*
X106830819Y-104599999D02*
X106783200Y-104504761D01*
X106783200Y-104504761D02*
X106735580Y-104457142D01*
X106735580Y-104457142D02*
X106592723Y-104361904D01*
X106592723Y-104361904D02*
X106402247Y-104314285D01*
X106402247Y-104314285D02*
X106021295Y-104314285D01*
X106021295Y-104314285D02*
X105926057Y-104361904D01*
X105926057Y-104361904D02*
X105878438Y-104409523D01*
X105878438Y-104409523D02*
X105830819Y-104504761D01*
X105830819Y-104504761D02*
X105830819Y-104695237D01*
X105830819Y-104695237D02*
X105878438Y-104790475D01*
X105878438Y-104790475D02*
X105926057Y-104838094D01*
X105926057Y-104838094D02*
X106021295Y-104885713D01*
X106021295Y-104885713D02*
X106259390Y-104885713D01*
X106259390Y-104885713D02*
X106354628Y-104838094D01*
X106354628Y-104838094D02*
X106402247Y-104790475D01*
X106402247Y-104790475D02*
X106449866Y-104695237D01*
X106449866Y-104695237D02*
X106449866Y-104504761D01*
X106449866Y-104504761D02*
X106402247Y-104409523D01*
X106402247Y-104409523D02*
X106354628Y-104361904D01*
X106354628Y-104361904D02*
X106259390Y-104314285D01*
X152179833Y-80994819D02*
X151846500Y-80518628D01*
X151608405Y-80994819D02*
X151608405Y-79994819D01*
X151608405Y-79994819D02*
X151989357Y-79994819D01*
X151989357Y-79994819D02*
X152084595Y-80042438D01*
X152084595Y-80042438D02*
X152132214Y-80090057D01*
X152132214Y-80090057D02*
X152179833Y-80185295D01*
X152179833Y-80185295D02*
X152179833Y-80328152D01*
X152179833Y-80328152D02*
X152132214Y-80423390D01*
X152132214Y-80423390D02*
X152084595Y-80471009D01*
X152084595Y-80471009D02*
X151989357Y-80518628D01*
X151989357Y-80518628D02*
X151608405Y-80518628D01*
X152513167Y-79994819D02*
X153179833Y-79994819D01*
X153179833Y-79994819D02*
X152751262Y-80994819D01*
X146104819Y-109229166D02*
X145628628Y-109562499D01*
X146104819Y-109800594D02*
X145104819Y-109800594D01*
X145104819Y-109800594D02*
X145104819Y-109419642D01*
X145104819Y-109419642D02*
X145152438Y-109324404D01*
X145152438Y-109324404D02*
X145200057Y-109276785D01*
X145200057Y-109276785D02*
X145295295Y-109229166D01*
X145295295Y-109229166D02*
X145438152Y-109229166D01*
X145438152Y-109229166D02*
X145533390Y-109276785D01*
X145533390Y-109276785D02*
X145581009Y-109324404D01*
X145581009Y-109324404D02*
X145628628Y-109419642D01*
X145628628Y-109419642D02*
X145628628Y-109800594D01*
X145104819Y-108895832D02*
X145104819Y-108276785D01*
X145104819Y-108276785D02*
X145485771Y-108610118D01*
X145485771Y-108610118D02*
X145485771Y-108467261D01*
X145485771Y-108467261D02*
X145533390Y-108372023D01*
X145533390Y-108372023D02*
X145581009Y-108324404D01*
X145581009Y-108324404D02*
X145676247Y-108276785D01*
X145676247Y-108276785D02*
X145914342Y-108276785D01*
X145914342Y-108276785D02*
X146009580Y-108324404D01*
X146009580Y-108324404D02*
X146057200Y-108372023D01*
X146057200Y-108372023D02*
X146104819Y-108467261D01*
X146104819Y-108467261D02*
X146104819Y-108752975D01*
X146104819Y-108752975D02*
X146057200Y-108848213D01*
X146057200Y-108848213D02*
X146009580Y-108895832D01*
X144104819Y-97800594D02*
X143104819Y-97800594D01*
X143104819Y-97800594D02*
X143104819Y-97562499D01*
X143104819Y-97562499D02*
X143152438Y-97419642D01*
X143152438Y-97419642D02*
X143247676Y-97324404D01*
X143247676Y-97324404D02*
X143342914Y-97276785D01*
X143342914Y-97276785D02*
X143533390Y-97229166D01*
X143533390Y-97229166D02*
X143676247Y-97229166D01*
X143676247Y-97229166D02*
X143866723Y-97276785D01*
X143866723Y-97276785D02*
X143961961Y-97324404D01*
X143961961Y-97324404D02*
X144057200Y-97419642D01*
X144057200Y-97419642D02*
X144104819Y-97562499D01*
X144104819Y-97562499D02*
X144104819Y-97800594D01*
X143200057Y-96848213D02*
X143152438Y-96800594D01*
X143152438Y-96800594D02*
X143104819Y-96705356D01*
X143104819Y-96705356D02*
X143104819Y-96467261D01*
X143104819Y-96467261D02*
X143152438Y-96372023D01*
X143152438Y-96372023D02*
X143200057Y-96324404D01*
X143200057Y-96324404D02*
X143295295Y-96276785D01*
X143295295Y-96276785D02*
X143390533Y-96276785D01*
X143390533Y-96276785D02*
X143533390Y-96324404D01*
X143533390Y-96324404D02*
X144104819Y-96895832D01*
X144104819Y-96895832D02*
X144104819Y-96276785D01*
X140804819Y-102104166D02*
X140328628Y-102437499D01*
X140804819Y-102675594D02*
X139804819Y-102675594D01*
X139804819Y-102675594D02*
X139804819Y-102294642D01*
X139804819Y-102294642D02*
X139852438Y-102199404D01*
X139852438Y-102199404D02*
X139900057Y-102151785D01*
X139900057Y-102151785D02*
X139995295Y-102104166D01*
X139995295Y-102104166D02*
X140138152Y-102104166D01*
X140138152Y-102104166D02*
X140233390Y-102151785D01*
X140233390Y-102151785D02*
X140281009Y-102199404D01*
X140281009Y-102199404D02*
X140328628Y-102294642D01*
X140328628Y-102294642D02*
X140328628Y-102675594D01*
X140138152Y-101247023D02*
X140804819Y-101247023D01*
X139757200Y-101485118D02*
X140471485Y-101723213D01*
X140471485Y-101723213D02*
X140471485Y-101104166D01*
X118401333Y-81296819D02*
X118068000Y-80820628D01*
X117829905Y-81296819D02*
X117829905Y-80296819D01*
X117829905Y-80296819D02*
X118210857Y-80296819D01*
X118210857Y-80296819D02*
X118306095Y-80344438D01*
X118306095Y-80344438D02*
X118353714Y-80392057D01*
X118353714Y-80392057D02*
X118401333Y-80487295D01*
X118401333Y-80487295D02*
X118401333Y-80630152D01*
X118401333Y-80630152D02*
X118353714Y-80725390D01*
X118353714Y-80725390D02*
X118306095Y-80773009D01*
X118306095Y-80773009D02*
X118210857Y-80820628D01*
X118210857Y-80820628D02*
X117829905Y-80820628D01*
X119353714Y-81296819D02*
X118782286Y-81296819D01*
X119068000Y-81296819D02*
X119068000Y-80296819D01*
X119068000Y-80296819D02*
X118972762Y-80439676D01*
X118972762Y-80439676D02*
X118877524Y-80534914D01*
X118877524Y-80534914D02*
X118782286Y-80582533D01*
X149645819Y-99765904D02*
X150455342Y-99765904D01*
X150455342Y-99765904D02*
X150550580Y-99718285D01*
X150550580Y-99718285D02*
X150598200Y-99670666D01*
X150598200Y-99670666D02*
X150645819Y-99575428D01*
X150645819Y-99575428D02*
X150645819Y-99384952D01*
X150645819Y-99384952D02*
X150598200Y-99289714D01*
X150598200Y-99289714D02*
X150550580Y-99242095D01*
X150550580Y-99242095D02*
X150455342Y-99194476D01*
X150455342Y-99194476D02*
X149645819Y-99194476D01*
X149741057Y-98765904D02*
X149693438Y-98718285D01*
X149693438Y-98718285D02*
X149645819Y-98623047D01*
X149645819Y-98623047D02*
X149645819Y-98384952D01*
X149645819Y-98384952D02*
X149693438Y-98289714D01*
X149693438Y-98289714D02*
X149741057Y-98242095D01*
X149741057Y-98242095D02*
X149836295Y-98194476D01*
X149836295Y-98194476D02*
X149931533Y-98194476D01*
X149931533Y-98194476D02*
X150074390Y-98242095D01*
X150074390Y-98242095D02*
X150645819Y-98813523D01*
X150645819Y-98813523D02*
X150645819Y-98194476D01*
X149407200Y-114083332D02*
X149454819Y-113940475D01*
X149454819Y-113940475D02*
X149454819Y-113702380D01*
X149454819Y-113702380D02*
X149407200Y-113607142D01*
X149407200Y-113607142D02*
X149359580Y-113559523D01*
X149359580Y-113559523D02*
X149264342Y-113511904D01*
X149264342Y-113511904D02*
X149169104Y-113511904D01*
X149169104Y-113511904D02*
X149073866Y-113559523D01*
X149073866Y-113559523D02*
X149026247Y-113607142D01*
X149026247Y-113607142D02*
X148978628Y-113702380D01*
X148978628Y-113702380D02*
X148931009Y-113892856D01*
X148931009Y-113892856D02*
X148883390Y-113988094D01*
X148883390Y-113988094D02*
X148835771Y-114035713D01*
X148835771Y-114035713D02*
X148740533Y-114083332D01*
X148740533Y-114083332D02*
X148645295Y-114083332D01*
X148645295Y-114083332D02*
X148550057Y-114035713D01*
X148550057Y-114035713D02*
X148502438Y-113988094D01*
X148502438Y-113988094D02*
X148454819Y-113892856D01*
X148454819Y-113892856D02*
X148454819Y-113654761D01*
X148454819Y-113654761D02*
X148502438Y-113511904D01*
X148454819Y-113178570D02*
X149454819Y-112940475D01*
X149454819Y-112940475D02*
X148740533Y-112749999D01*
X148740533Y-112749999D02*
X149454819Y-112559523D01*
X149454819Y-112559523D02*
X148454819Y-112321428D01*
X149454819Y-111416666D02*
X149454819Y-111988094D01*
X149454819Y-111702380D02*
X148454819Y-111702380D01*
X148454819Y-111702380D02*
X148597676Y-111797618D01*
X148597676Y-111797618D02*
X148692914Y-111892856D01*
X148692914Y-111892856D02*
X148740533Y-111988094D01*
X118479333Y-81742319D02*
X118146000Y-81266128D01*
X117907905Y-81742319D02*
X117907905Y-80742319D01*
X117907905Y-80742319D02*
X118288857Y-80742319D01*
X118288857Y-80742319D02*
X118384095Y-80789938D01*
X118384095Y-80789938D02*
X118431714Y-80837557D01*
X118431714Y-80837557D02*
X118479333Y-80932795D01*
X118479333Y-80932795D02*
X118479333Y-81075652D01*
X118479333Y-81075652D02*
X118431714Y-81170890D01*
X118431714Y-81170890D02*
X118384095Y-81218509D01*
X118384095Y-81218509D02*
X118288857Y-81266128D01*
X118288857Y-81266128D02*
X117907905Y-81266128D01*
X119384095Y-80742319D02*
X118907905Y-80742319D01*
X118907905Y-80742319D02*
X118860286Y-81218509D01*
X118860286Y-81218509D02*
X118907905Y-81170890D01*
X118907905Y-81170890D02*
X119003143Y-81123271D01*
X119003143Y-81123271D02*
X119241238Y-81123271D01*
X119241238Y-81123271D02*
X119336476Y-81170890D01*
X119336476Y-81170890D02*
X119384095Y-81218509D01*
X119384095Y-81218509D02*
X119431714Y-81313747D01*
X119431714Y-81313747D02*
X119431714Y-81551842D01*
X119431714Y-81551842D02*
X119384095Y-81647080D01*
X119384095Y-81647080D02*
X119336476Y-81694700D01*
X119336476Y-81694700D02*
X119241238Y-81742319D01*
X119241238Y-81742319D02*
X119003143Y-81742319D01*
X119003143Y-81742319D02*
X118907905Y-81694700D01*
X118907905Y-81694700D02*
X118860286Y-81647080D01*
X103923333Y-96315580D02*
X103875714Y-96363200D01*
X103875714Y-96363200D02*
X103732857Y-96410819D01*
X103732857Y-96410819D02*
X103637619Y-96410819D01*
X103637619Y-96410819D02*
X103494762Y-96363200D01*
X103494762Y-96363200D02*
X103399524Y-96267961D01*
X103399524Y-96267961D02*
X103351905Y-96172723D01*
X103351905Y-96172723D02*
X103304286Y-95982247D01*
X103304286Y-95982247D02*
X103304286Y-95839390D01*
X103304286Y-95839390D02*
X103351905Y-95648914D01*
X103351905Y-95648914D02*
X103399524Y-95553676D01*
X103399524Y-95553676D02*
X103494762Y-95458438D01*
X103494762Y-95458438D02*
X103637619Y-95410819D01*
X103637619Y-95410819D02*
X103732857Y-95410819D01*
X103732857Y-95410819D02*
X103875714Y-95458438D01*
X103875714Y-95458438D02*
X103923333Y-95506057D01*
X104256667Y-95410819D02*
X104875714Y-95410819D01*
X104875714Y-95410819D02*
X104542381Y-95791771D01*
X104542381Y-95791771D02*
X104685238Y-95791771D01*
X104685238Y-95791771D02*
X104780476Y-95839390D01*
X104780476Y-95839390D02*
X104828095Y-95887009D01*
X104828095Y-95887009D02*
X104875714Y-95982247D01*
X104875714Y-95982247D02*
X104875714Y-96220342D01*
X104875714Y-96220342D02*
X104828095Y-96315580D01*
X104828095Y-96315580D02*
X104780476Y-96363200D01*
X104780476Y-96363200D02*
X104685238Y-96410819D01*
X104685238Y-96410819D02*
X104399524Y-96410819D01*
X104399524Y-96410819D02*
X104304286Y-96363200D01*
X104304286Y-96363200D02*
X104256667Y-96315580D01*
X124433905Y-77628819D02*
X124433905Y-76628819D01*
X124433905Y-76628819D02*
X124672000Y-76628819D01*
X124672000Y-76628819D02*
X124814857Y-76676438D01*
X124814857Y-76676438D02*
X124910095Y-76771676D01*
X124910095Y-76771676D02*
X124957714Y-76866914D01*
X124957714Y-76866914D02*
X125005333Y-77057390D01*
X125005333Y-77057390D02*
X125005333Y-77200247D01*
X125005333Y-77200247D02*
X124957714Y-77390723D01*
X124957714Y-77390723D02*
X124910095Y-77485961D01*
X124910095Y-77485961D02*
X124814857Y-77581200D01*
X124814857Y-77581200D02*
X124672000Y-77628819D01*
X124672000Y-77628819D02*
X124433905Y-77628819D01*
X125338667Y-76628819D02*
X125957714Y-76628819D01*
X125957714Y-76628819D02*
X125624381Y-77009771D01*
X125624381Y-77009771D02*
X125767238Y-77009771D01*
X125767238Y-77009771D02*
X125862476Y-77057390D01*
X125862476Y-77057390D02*
X125910095Y-77105009D01*
X125910095Y-77105009D02*
X125957714Y-77200247D01*
X125957714Y-77200247D02*
X125957714Y-77438342D01*
X125957714Y-77438342D02*
X125910095Y-77533580D01*
X125910095Y-77533580D02*
X125862476Y-77581200D01*
X125862476Y-77581200D02*
X125767238Y-77628819D01*
X125767238Y-77628819D02*
X125481524Y-77628819D01*
X125481524Y-77628819D02*
X125386286Y-77581200D01*
X125386286Y-77581200D02*
X125338667Y-77533580D01*
X147865333Y-81424819D02*
X147532000Y-80948628D01*
X147293905Y-81424819D02*
X147293905Y-80424819D01*
X147293905Y-80424819D02*
X147674857Y-80424819D01*
X147674857Y-80424819D02*
X147770095Y-80472438D01*
X147770095Y-80472438D02*
X147817714Y-80520057D01*
X147817714Y-80520057D02*
X147865333Y-80615295D01*
X147865333Y-80615295D02*
X147865333Y-80758152D01*
X147865333Y-80758152D02*
X147817714Y-80853390D01*
X147817714Y-80853390D02*
X147770095Y-80901009D01*
X147770095Y-80901009D02*
X147674857Y-80948628D01*
X147674857Y-80948628D02*
X147293905Y-80948628D01*
X148341524Y-81424819D02*
X148532000Y-81424819D01*
X148532000Y-81424819D02*
X148627238Y-81377200D01*
X148627238Y-81377200D02*
X148674857Y-81329580D01*
X148674857Y-81329580D02*
X148770095Y-81186723D01*
X148770095Y-81186723D02*
X148817714Y-80996247D01*
X148817714Y-80996247D02*
X148817714Y-80615295D01*
X148817714Y-80615295D02*
X148770095Y-80520057D01*
X148770095Y-80520057D02*
X148722476Y-80472438D01*
X148722476Y-80472438D02*
X148627238Y-80424819D01*
X148627238Y-80424819D02*
X148436762Y-80424819D01*
X148436762Y-80424819D02*
X148341524Y-80472438D01*
X148341524Y-80472438D02*
X148293905Y-80520057D01*
X148293905Y-80520057D02*
X148246286Y-80615295D01*
X148246286Y-80615295D02*
X148246286Y-80853390D01*
X148246286Y-80853390D02*
X148293905Y-80948628D01*
X148293905Y-80948628D02*
X148341524Y-80996247D01*
X148341524Y-80996247D02*
X148436762Y-81043866D01*
X148436762Y-81043866D02*
X148627238Y-81043866D01*
X148627238Y-81043866D02*
X148722476Y-80996247D01*
X148722476Y-80996247D02*
X148770095Y-80948628D01*
X148770095Y-80948628D02*
X148817714Y-80853390D01*
X137804819Y-97738094D02*
X136804819Y-97738094D01*
X136804819Y-97738094D02*
X136804819Y-97499999D01*
X136804819Y-97499999D02*
X136852438Y-97357142D01*
X136852438Y-97357142D02*
X136947676Y-97261904D01*
X136947676Y-97261904D02*
X137042914Y-97214285D01*
X137042914Y-97214285D02*
X137233390Y-97166666D01*
X137233390Y-97166666D02*
X137376247Y-97166666D01*
X137376247Y-97166666D02*
X137566723Y-97214285D01*
X137566723Y-97214285D02*
X137661961Y-97261904D01*
X137661961Y-97261904D02*
X137757200Y-97357142D01*
X137757200Y-97357142D02*
X137804819Y-97499999D01*
X137804819Y-97499999D02*
X137804819Y-97738094D01*
X137804819Y-96214285D02*
X137804819Y-96785713D01*
X137804819Y-96499999D02*
X136804819Y-96499999D01*
X136804819Y-96499999D02*
X136947676Y-96595237D01*
X136947676Y-96595237D02*
X137042914Y-96690475D01*
X137042914Y-96690475D02*
X137090533Y-96785713D01*
X108985580Y-106250857D02*
X109033200Y-106298476D01*
X109033200Y-106298476D02*
X109080819Y-106441333D01*
X109080819Y-106441333D02*
X109080819Y-106536571D01*
X109080819Y-106536571D02*
X109033200Y-106679428D01*
X109033200Y-106679428D02*
X108937961Y-106774666D01*
X108937961Y-106774666D02*
X108842723Y-106822285D01*
X108842723Y-106822285D02*
X108652247Y-106869904D01*
X108652247Y-106869904D02*
X108509390Y-106869904D01*
X108509390Y-106869904D02*
X108318914Y-106822285D01*
X108318914Y-106822285D02*
X108223676Y-106774666D01*
X108223676Y-106774666D02*
X108128438Y-106679428D01*
X108128438Y-106679428D02*
X108080819Y-106536571D01*
X108080819Y-106536571D02*
X108080819Y-106441333D01*
X108080819Y-106441333D02*
X108128438Y-106298476D01*
X108128438Y-106298476D02*
X108176057Y-106250857D01*
X109080819Y-105298476D02*
X109080819Y-105869904D01*
X109080819Y-105584190D02*
X108080819Y-105584190D01*
X108080819Y-105584190D02*
X108223676Y-105679428D01*
X108223676Y-105679428D02*
X108318914Y-105774666D01*
X108318914Y-105774666D02*
X108366533Y-105869904D01*
X108176057Y-104917523D02*
X108128438Y-104869904D01*
X108128438Y-104869904D02*
X108080819Y-104774666D01*
X108080819Y-104774666D02*
X108080819Y-104536571D01*
X108080819Y-104536571D02*
X108128438Y-104441333D01*
X108128438Y-104441333D02*
X108176057Y-104393714D01*
X108176057Y-104393714D02*
X108271295Y-104346095D01*
X108271295Y-104346095D02*
X108366533Y-104346095D01*
X108366533Y-104346095D02*
X108509390Y-104393714D01*
X108509390Y-104393714D02*
X109080819Y-104965142D01*
X109080819Y-104965142D02*
X109080819Y-104346095D01*
X127238095Y-85604819D02*
X127238095Y-86414342D01*
X127238095Y-86414342D02*
X127285714Y-86509580D01*
X127285714Y-86509580D02*
X127333333Y-86557200D01*
X127333333Y-86557200D02*
X127428571Y-86604819D01*
X127428571Y-86604819D02*
X127619047Y-86604819D01*
X127619047Y-86604819D02*
X127714285Y-86557200D01*
X127714285Y-86557200D02*
X127761904Y-86509580D01*
X127761904Y-86509580D02*
X127809523Y-86414342D01*
X127809523Y-86414342D02*
X127809523Y-85604819D01*
X128809523Y-86604819D02*
X128238095Y-86604819D01*
X128523809Y-86604819D02*
X128523809Y-85604819D01*
X128523809Y-85604819D02*
X128428571Y-85747676D01*
X128428571Y-85747676D02*
X128333333Y-85842914D01*
X128333333Y-85842914D02*
X128238095Y-85890533D01*
X123580400Y-88317847D02*
X123532781Y-88365466D01*
X123532781Y-88365466D02*
X123580400Y-88413085D01*
X123580400Y-88413085D02*
X123628019Y-88365466D01*
X123628019Y-88365466D02*
X123580400Y-88317847D01*
X123580400Y-88317847D02*
X123580400Y-88413085D01*
X103923333Y-89457580D02*
X103875714Y-89505200D01*
X103875714Y-89505200D02*
X103732857Y-89552819D01*
X103732857Y-89552819D02*
X103637619Y-89552819D01*
X103637619Y-89552819D02*
X103494762Y-89505200D01*
X103494762Y-89505200D02*
X103399524Y-89409961D01*
X103399524Y-89409961D02*
X103351905Y-89314723D01*
X103351905Y-89314723D02*
X103304286Y-89124247D01*
X103304286Y-89124247D02*
X103304286Y-88981390D01*
X103304286Y-88981390D02*
X103351905Y-88790914D01*
X103351905Y-88790914D02*
X103399524Y-88695676D01*
X103399524Y-88695676D02*
X103494762Y-88600438D01*
X103494762Y-88600438D02*
X103637619Y-88552819D01*
X103637619Y-88552819D02*
X103732857Y-88552819D01*
X103732857Y-88552819D02*
X103875714Y-88600438D01*
X103875714Y-88600438D02*
X103923333Y-88648057D01*
X104780476Y-88886152D02*
X104780476Y-89552819D01*
X104542381Y-88505200D02*
X104304286Y-89219485D01*
X104304286Y-89219485D02*
X104923333Y-89219485D01*
X111797333Y-98732819D02*
X111321143Y-98732819D01*
X111321143Y-98732819D02*
X111321143Y-97732819D01*
X112083048Y-97828057D02*
X112130667Y-97780438D01*
X112130667Y-97780438D02*
X112225905Y-97732819D01*
X112225905Y-97732819D02*
X112464000Y-97732819D01*
X112464000Y-97732819D02*
X112559238Y-97780438D01*
X112559238Y-97780438D02*
X112606857Y-97828057D01*
X112606857Y-97828057D02*
X112654476Y-97923295D01*
X112654476Y-97923295D02*
X112654476Y-98018533D01*
X112654476Y-98018533D02*
X112606857Y-98161390D01*
X112606857Y-98161390D02*
X112035429Y-98732819D01*
X112035429Y-98732819D02*
X112654476Y-98732819D01*
X149261905Y-85954819D02*
X149261905Y-84954819D01*
X149261905Y-84954819D02*
X149500000Y-84954819D01*
X149500000Y-84954819D02*
X149642857Y-85002438D01*
X149642857Y-85002438D02*
X149738095Y-85097676D01*
X149738095Y-85097676D02*
X149785714Y-85192914D01*
X149785714Y-85192914D02*
X149833333Y-85383390D01*
X149833333Y-85383390D02*
X149833333Y-85526247D01*
X149833333Y-85526247D02*
X149785714Y-85716723D01*
X149785714Y-85716723D02*
X149738095Y-85811961D01*
X149738095Y-85811961D02*
X149642857Y-85907200D01*
X149642857Y-85907200D02*
X149500000Y-85954819D01*
X149500000Y-85954819D02*
X149261905Y-85954819D01*
X150690476Y-85288152D02*
X150690476Y-85954819D01*
X150452381Y-84907200D02*
X150214286Y-85621485D01*
X150214286Y-85621485D02*
X150833333Y-85621485D01*
X103923333Y-92505580D02*
X103875714Y-92553200D01*
X103875714Y-92553200D02*
X103732857Y-92600819D01*
X103732857Y-92600819D02*
X103637619Y-92600819D01*
X103637619Y-92600819D02*
X103494762Y-92553200D01*
X103494762Y-92553200D02*
X103399524Y-92457961D01*
X103399524Y-92457961D02*
X103351905Y-92362723D01*
X103351905Y-92362723D02*
X103304286Y-92172247D01*
X103304286Y-92172247D02*
X103304286Y-92029390D01*
X103304286Y-92029390D02*
X103351905Y-91838914D01*
X103351905Y-91838914D02*
X103399524Y-91743676D01*
X103399524Y-91743676D02*
X103494762Y-91648438D01*
X103494762Y-91648438D02*
X103637619Y-91600819D01*
X103637619Y-91600819D02*
X103732857Y-91600819D01*
X103732857Y-91600819D02*
X103875714Y-91648438D01*
X103875714Y-91648438D02*
X103923333Y-91696057D01*
X104304286Y-91696057D02*
X104351905Y-91648438D01*
X104351905Y-91648438D02*
X104447143Y-91600819D01*
X104447143Y-91600819D02*
X104685238Y-91600819D01*
X104685238Y-91600819D02*
X104780476Y-91648438D01*
X104780476Y-91648438D02*
X104828095Y-91696057D01*
X104828095Y-91696057D02*
X104875714Y-91791295D01*
X104875714Y-91791295D02*
X104875714Y-91886533D01*
X104875714Y-91886533D02*
X104828095Y-92029390D01*
X104828095Y-92029390D02*
X104256667Y-92600819D01*
X104256667Y-92600819D02*
X104875714Y-92600819D01*
X139709580Y-109642857D02*
X139757200Y-109690476D01*
X139757200Y-109690476D02*
X139804819Y-109833333D01*
X139804819Y-109833333D02*
X139804819Y-109928571D01*
X139804819Y-109928571D02*
X139757200Y-110071428D01*
X139757200Y-110071428D02*
X139661961Y-110166666D01*
X139661961Y-110166666D02*
X139566723Y-110214285D01*
X139566723Y-110214285D02*
X139376247Y-110261904D01*
X139376247Y-110261904D02*
X139233390Y-110261904D01*
X139233390Y-110261904D02*
X139042914Y-110214285D01*
X139042914Y-110214285D02*
X138947676Y-110166666D01*
X138947676Y-110166666D02*
X138852438Y-110071428D01*
X138852438Y-110071428D02*
X138804819Y-109928571D01*
X138804819Y-109928571D02*
X138804819Y-109833333D01*
X138804819Y-109833333D02*
X138852438Y-109690476D01*
X138852438Y-109690476D02*
X138900057Y-109642857D01*
X139804819Y-108690476D02*
X139804819Y-109261904D01*
X139804819Y-108976190D02*
X138804819Y-108976190D01*
X138804819Y-108976190D02*
X138947676Y-109071428D01*
X138947676Y-109071428D02*
X139042914Y-109166666D01*
X139042914Y-109166666D02*
X139090533Y-109261904D01*
X139804819Y-107738095D02*
X139804819Y-108309523D01*
X139804819Y-108023809D02*
X138804819Y-108023809D01*
X138804819Y-108023809D02*
X138947676Y-108119047D01*
X138947676Y-108119047D02*
X139042914Y-108214285D01*
X139042914Y-108214285D02*
X139090533Y-108309523D01*
X146357142Y-91609580D02*
X146309523Y-91657200D01*
X146309523Y-91657200D02*
X146166666Y-91704819D01*
X146166666Y-91704819D02*
X146071428Y-91704819D01*
X146071428Y-91704819D02*
X145928571Y-91657200D01*
X145928571Y-91657200D02*
X145833333Y-91561961D01*
X145833333Y-91561961D02*
X145785714Y-91466723D01*
X145785714Y-91466723D02*
X145738095Y-91276247D01*
X145738095Y-91276247D02*
X145738095Y-91133390D01*
X145738095Y-91133390D02*
X145785714Y-90942914D01*
X145785714Y-90942914D02*
X145833333Y-90847676D01*
X145833333Y-90847676D02*
X145928571Y-90752438D01*
X145928571Y-90752438D02*
X146071428Y-90704819D01*
X146071428Y-90704819D02*
X146166666Y-90704819D01*
X146166666Y-90704819D02*
X146309523Y-90752438D01*
X146309523Y-90752438D02*
X146357142Y-90800057D01*
X147309523Y-91704819D02*
X146738095Y-91704819D01*
X147023809Y-91704819D02*
X147023809Y-90704819D01*
X147023809Y-90704819D02*
X146928571Y-90847676D01*
X146928571Y-90847676D02*
X146833333Y-90942914D01*
X146833333Y-90942914D02*
X146738095Y-90990533D01*
X147928571Y-90704819D02*
X148023809Y-90704819D01*
X148023809Y-90704819D02*
X148119047Y-90752438D01*
X148119047Y-90752438D02*
X148166666Y-90800057D01*
X148166666Y-90800057D02*
X148214285Y-90895295D01*
X148214285Y-90895295D02*
X148261904Y-91085771D01*
X148261904Y-91085771D02*
X148261904Y-91323866D01*
X148261904Y-91323866D02*
X148214285Y-91514342D01*
X148214285Y-91514342D02*
X148166666Y-91609580D01*
X148166666Y-91609580D02*
X148119047Y-91657200D01*
X148119047Y-91657200D02*
X148023809Y-91704819D01*
X148023809Y-91704819D02*
X147928571Y-91704819D01*
X147928571Y-91704819D02*
X147833333Y-91657200D01*
X147833333Y-91657200D02*
X147785714Y-91609580D01*
X147785714Y-91609580D02*
X147738095Y-91514342D01*
X147738095Y-91514342D02*
X147690476Y-91323866D01*
X147690476Y-91323866D02*
X147690476Y-91085771D01*
X147690476Y-91085771D02*
X147738095Y-90895295D01*
X147738095Y-90895295D02*
X147785714Y-90800057D01*
X147785714Y-90800057D02*
X147833333Y-90752438D01*
X147833333Y-90752438D02*
X147928571Y-90704819D01*
X112051333Y-105680819D02*
X111575143Y-105680819D01*
X111575143Y-105680819D02*
X111575143Y-104680819D01*
X112908476Y-105680819D02*
X112337048Y-105680819D01*
X112622762Y-105680819D02*
X112622762Y-104680819D01*
X112622762Y-104680819D02*
X112527524Y-104823676D01*
X112527524Y-104823676D02*
X112432286Y-104918914D01*
X112432286Y-104918914D02*
X112337048Y-104966533D01*
X148117333Y-79344819D02*
X147784000Y-78868628D01*
X147545905Y-79344819D02*
X147545905Y-78344819D01*
X147545905Y-78344819D02*
X147926857Y-78344819D01*
X147926857Y-78344819D02*
X148022095Y-78392438D01*
X148022095Y-78392438D02*
X148069714Y-78440057D01*
X148069714Y-78440057D02*
X148117333Y-78535295D01*
X148117333Y-78535295D02*
X148117333Y-78678152D01*
X148117333Y-78678152D02*
X148069714Y-78773390D01*
X148069714Y-78773390D02*
X148022095Y-78821009D01*
X148022095Y-78821009D02*
X147926857Y-78868628D01*
X147926857Y-78868628D02*
X147545905Y-78868628D01*
X148688762Y-78773390D02*
X148593524Y-78725771D01*
X148593524Y-78725771D02*
X148545905Y-78678152D01*
X148545905Y-78678152D02*
X148498286Y-78582914D01*
X148498286Y-78582914D02*
X148498286Y-78535295D01*
X148498286Y-78535295D02*
X148545905Y-78440057D01*
X148545905Y-78440057D02*
X148593524Y-78392438D01*
X148593524Y-78392438D02*
X148688762Y-78344819D01*
X148688762Y-78344819D02*
X148879238Y-78344819D01*
X148879238Y-78344819D02*
X148974476Y-78392438D01*
X148974476Y-78392438D02*
X149022095Y-78440057D01*
X149022095Y-78440057D02*
X149069714Y-78535295D01*
X149069714Y-78535295D02*
X149069714Y-78582914D01*
X149069714Y-78582914D02*
X149022095Y-78678152D01*
X149022095Y-78678152D02*
X148974476Y-78725771D01*
X148974476Y-78725771D02*
X148879238Y-78773390D01*
X148879238Y-78773390D02*
X148688762Y-78773390D01*
X148688762Y-78773390D02*
X148593524Y-78821009D01*
X148593524Y-78821009D02*
X148545905Y-78868628D01*
X148545905Y-78868628D02*
X148498286Y-78963866D01*
X148498286Y-78963866D02*
X148498286Y-79154342D01*
X148498286Y-79154342D02*
X148545905Y-79249580D01*
X148545905Y-79249580D02*
X148593524Y-79297200D01*
X148593524Y-79297200D02*
X148688762Y-79344819D01*
X148688762Y-79344819D02*
X148879238Y-79344819D01*
X148879238Y-79344819D02*
X148974476Y-79297200D01*
X148974476Y-79297200D02*
X149022095Y-79249580D01*
X149022095Y-79249580D02*
X149069714Y-79154342D01*
X149069714Y-79154342D02*
X149069714Y-78963866D01*
X149069714Y-78963866D02*
X149022095Y-78868628D01*
X149022095Y-78868628D02*
X148974476Y-78821009D01*
X148974476Y-78821009D02*
X148879238Y-78773390D01*
X135419333Y-90091580D02*
X135371714Y-90139200D01*
X135371714Y-90139200D02*
X135228857Y-90186819D01*
X135228857Y-90186819D02*
X135133619Y-90186819D01*
X135133619Y-90186819D02*
X134990762Y-90139200D01*
X134990762Y-90139200D02*
X134895524Y-90043961D01*
X134895524Y-90043961D02*
X134847905Y-89948723D01*
X134847905Y-89948723D02*
X134800286Y-89758247D01*
X134800286Y-89758247D02*
X134800286Y-89615390D01*
X134800286Y-89615390D02*
X134847905Y-89424914D01*
X134847905Y-89424914D02*
X134895524Y-89329676D01*
X134895524Y-89329676D02*
X134990762Y-89234438D01*
X134990762Y-89234438D02*
X135133619Y-89186819D01*
X135133619Y-89186819D02*
X135228857Y-89186819D01*
X135228857Y-89186819D02*
X135371714Y-89234438D01*
X135371714Y-89234438D02*
X135419333Y-89282057D01*
X136276476Y-89186819D02*
X136086000Y-89186819D01*
X136086000Y-89186819D02*
X135990762Y-89234438D01*
X135990762Y-89234438D02*
X135943143Y-89282057D01*
X135943143Y-89282057D02*
X135847905Y-89424914D01*
X135847905Y-89424914D02*
X135800286Y-89615390D01*
X135800286Y-89615390D02*
X135800286Y-89996342D01*
X135800286Y-89996342D02*
X135847905Y-90091580D01*
X135847905Y-90091580D02*
X135895524Y-90139200D01*
X135895524Y-90139200D02*
X135990762Y-90186819D01*
X135990762Y-90186819D02*
X136181238Y-90186819D01*
X136181238Y-90186819D02*
X136276476Y-90139200D01*
X136276476Y-90139200D02*
X136324095Y-90091580D01*
X136324095Y-90091580D02*
X136371714Y-89996342D01*
X136371714Y-89996342D02*
X136371714Y-89758247D01*
X136371714Y-89758247D02*
X136324095Y-89663009D01*
X136324095Y-89663009D02*
X136276476Y-89615390D01*
X136276476Y-89615390D02*
X136181238Y-89567771D01*
X136181238Y-89567771D02*
X135990762Y-89567771D01*
X135990762Y-89567771D02*
X135895524Y-89615390D01*
X135895524Y-89615390D02*
X135847905Y-89663009D01*
X135847905Y-89663009D02*
X135800286Y-89758247D01*
X155950666Y-76844819D02*
X155950666Y-77559104D01*
X155950666Y-77559104D02*
X155903047Y-77701961D01*
X155903047Y-77701961D02*
X155807809Y-77797200D01*
X155807809Y-77797200D02*
X155664952Y-77844819D01*
X155664952Y-77844819D02*
X155569714Y-77844819D01*
X156379238Y-76940057D02*
X156426857Y-76892438D01*
X156426857Y-76892438D02*
X156522095Y-76844819D01*
X156522095Y-76844819D02*
X156760190Y-76844819D01*
X156760190Y-76844819D02*
X156855428Y-76892438D01*
X156855428Y-76892438D02*
X156903047Y-76940057D01*
X156903047Y-76940057D02*
X156950666Y-77035295D01*
X156950666Y-77035295D02*
X156950666Y-77130533D01*
X156950666Y-77130533D02*
X156903047Y-77273390D01*
X156903047Y-77273390D02*
X156331619Y-77844819D01*
X156331619Y-77844819D02*
X156950666Y-77844819D01*
X117813580Y-106318857D02*
X117861200Y-106366476D01*
X117861200Y-106366476D02*
X117908819Y-106509333D01*
X117908819Y-106509333D02*
X117908819Y-106604571D01*
X117908819Y-106604571D02*
X117861200Y-106747428D01*
X117861200Y-106747428D02*
X117765961Y-106842666D01*
X117765961Y-106842666D02*
X117670723Y-106890285D01*
X117670723Y-106890285D02*
X117480247Y-106937904D01*
X117480247Y-106937904D02*
X117337390Y-106937904D01*
X117337390Y-106937904D02*
X117146914Y-106890285D01*
X117146914Y-106890285D02*
X117051676Y-106842666D01*
X117051676Y-106842666D02*
X116956438Y-106747428D01*
X116956438Y-106747428D02*
X116908819Y-106604571D01*
X116908819Y-106604571D02*
X116908819Y-106509333D01*
X116908819Y-106509333D02*
X116956438Y-106366476D01*
X116956438Y-106366476D02*
X117004057Y-106318857D01*
X117908819Y-105366476D02*
X117908819Y-105937904D01*
X117908819Y-105652190D02*
X116908819Y-105652190D01*
X116908819Y-105652190D02*
X117051676Y-105747428D01*
X117051676Y-105747428D02*
X117146914Y-105842666D01*
X117146914Y-105842666D02*
X117194533Y-105937904D01*
X116908819Y-104461714D02*
X116908819Y-104937904D01*
X116908819Y-104937904D02*
X117385009Y-104985523D01*
X117385009Y-104985523D02*
X117337390Y-104937904D01*
X117337390Y-104937904D02*
X117289771Y-104842666D01*
X117289771Y-104842666D02*
X117289771Y-104604571D01*
X117289771Y-104604571D02*
X117337390Y-104509333D01*
X117337390Y-104509333D02*
X117385009Y-104461714D01*
X117385009Y-104461714D02*
X117480247Y-104414095D01*
X117480247Y-104414095D02*
X117718342Y-104414095D01*
X117718342Y-104414095D02*
X117813580Y-104461714D01*
X117813580Y-104461714D02*
X117861200Y-104509333D01*
X117861200Y-104509333D02*
X117908819Y-104604571D01*
X117908819Y-104604571D02*
X117908819Y-104842666D01*
X117908819Y-104842666D02*
X117861200Y-104937904D01*
X117861200Y-104937904D02*
X117813580Y-104985523D01*
X147897142Y-83710819D02*
X147563809Y-83234628D01*
X147325714Y-83710819D02*
X147325714Y-82710819D01*
X147325714Y-82710819D02*
X147706666Y-82710819D01*
X147706666Y-82710819D02*
X147801904Y-82758438D01*
X147801904Y-82758438D02*
X147849523Y-82806057D01*
X147849523Y-82806057D02*
X147897142Y-82901295D01*
X147897142Y-82901295D02*
X147897142Y-83044152D01*
X147897142Y-83044152D02*
X147849523Y-83139390D01*
X147849523Y-83139390D02*
X147801904Y-83187009D01*
X147801904Y-83187009D02*
X147706666Y-83234628D01*
X147706666Y-83234628D02*
X147325714Y-83234628D01*
X148849523Y-83710819D02*
X148278095Y-83710819D01*
X148563809Y-83710819D02*
X148563809Y-82710819D01*
X148563809Y-82710819D02*
X148468571Y-82853676D01*
X148468571Y-82853676D02*
X148373333Y-82948914D01*
X148373333Y-82948914D02*
X148278095Y-82996533D01*
X149468571Y-82710819D02*
X149563809Y-82710819D01*
X149563809Y-82710819D02*
X149659047Y-82758438D01*
X149659047Y-82758438D02*
X149706666Y-82806057D01*
X149706666Y-82806057D02*
X149754285Y-82901295D01*
X149754285Y-82901295D02*
X149801904Y-83091771D01*
X149801904Y-83091771D02*
X149801904Y-83329866D01*
X149801904Y-83329866D02*
X149754285Y-83520342D01*
X149754285Y-83520342D02*
X149706666Y-83615580D01*
X149706666Y-83615580D02*
X149659047Y-83663200D01*
X149659047Y-83663200D02*
X149563809Y-83710819D01*
X149563809Y-83710819D02*
X149468571Y-83710819D01*
X149468571Y-83710819D02*
X149373333Y-83663200D01*
X149373333Y-83663200D02*
X149325714Y-83615580D01*
X149325714Y-83615580D02*
X149278095Y-83520342D01*
X149278095Y-83520342D02*
X149230476Y-83329866D01*
X149230476Y-83329866D02*
X149230476Y-83091771D01*
X149230476Y-83091771D02*
X149278095Y-82901295D01*
X149278095Y-82901295D02*
X149325714Y-82806057D01*
X149325714Y-82806057D02*
X149373333Y-82758438D01*
X149373333Y-82758438D02*
X149468571Y-82710819D01*
X122759080Y-84982166D02*
X122806700Y-85029785D01*
X122806700Y-85029785D02*
X122854319Y-85172642D01*
X122854319Y-85172642D02*
X122854319Y-85267880D01*
X122854319Y-85267880D02*
X122806700Y-85410737D01*
X122806700Y-85410737D02*
X122711461Y-85505975D01*
X122711461Y-85505975D02*
X122616223Y-85553594D01*
X122616223Y-85553594D02*
X122425747Y-85601213D01*
X122425747Y-85601213D02*
X122282890Y-85601213D01*
X122282890Y-85601213D02*
X122092414Y-85553594D01*
X122092414Y-85553594D02*
X121997176Y-85505975D01*
X121997176Y-85505975D02*
X121901938Y-85410737D01*
X121901938Y-85410737D02*
X121854319Y-85267880D01*
X121854319Y-85267880D02*
X121854319Y-85172642D01*
X121854319Y-85172642D02*
X121901938Y-85029785D01*
X121901938Y-85029785D02*
X121949557Y-84982166D01*
X121854319Y-84648832D02*
X121854319Y-83982166D01*
X121854319Y-83982166D02*
X122854319Y-84410737D01*
X106740666Y-75979819D02*
X106740666Y-76694104D01*
X106740666Y-76694104D02*
X106693047Y-76836961D01*
X106693047Y-76836961D02*
X106597809Y-76932200D01*
X106597809Y-76932200D02*
X106454952Y-76979819D01*
X106454952Y-76979819D02*
X106359714Y-76979819D01*
X107693047Y-75979819D02*
X107216857Y-75979819D01*
X107216857Y-75979819D02*
X107169238Y-76456009D01*
X107169238Y-76456009D02*
X107216857Y-76408390D01*
X107216857Y-76408390D02*
X107312095Y-76360771D01*
X107312095Y-76360771D02*
X107550190Y-76360771D01*
X107550190Y-76360771D02*
X107645428Y-76408390D01*
X107645428Y-76408390D02*
X107693047Y-76456009D01*
X107693047Y-76456009D02*
X107740666Y-76551247D01*
X107740666Y-76551247D02*
X107740666Y-76789342D01*
X107740666Y-76789342D02*
X107693047Y-76884580D01*
X107693047Y-76884580D02*
X107645428Y-76932200D01*
X107645428Y-76932200D02*
X107550190Y-76979819D01*
X107550190Y-76979819D02*
X107312095Y-76979819D01*
X107312095Y-76979819D02*
X107216857Y-76932200D01*
X107216857Y-76932200D02*
X107169238Y-76884580D01*
X107502666Y-113063819D02*
X107502666Y-113778104D01*
X107502666Y-113778104D02*
X107455047Y-113920961D01*
X107455047Y-113920961D02*
X107359809Y-114016200D01*
X107359809Y-114016200D02*
X107216952Y-114063819D01*
X107216952Y-114063819D02*
X107121714Y-114063819D01*
X108407428Y-113397152D02*
X108407428Y-114063819D01*
X108169333Y-113016200D02*
X107931238Y-113730485D01*
X107931238Y-113730485D02*
X108550285Y-113730485D01*
X160398666Y-84444819D02*
X160398666Y-85159104D01*
X160398666Y-85159104D02*
X160351047Y-85301961D01*
X160351047Y-85301961D02*
X160255809Y-85397200D01*
X160255809Y-85397200D02*
X160112952Y-85444819D01*
X160112952Y-85444819D02*
X160017714Y-85444819D01*
X160779619Y-84444819D02*
X161398666Y-84444819D01*
X161398666Y-84444819D02*
X161065333Y-84825771D01*
X161065333Y-84825771D02*
X161208190Y-84825771D01*
X161208190Y-84825771D02*
X161303428Y-84873390D01*
X161303428Y-84873390D02*
X161351047Y-84921009D01*
X161351047Y-84921009D02*
X161398666Y-85016247D01*
X161398666Y-85016247D02*
X161398666Y-85254342D01*
X161398666Y-85254342D02*
X161351047Y-85349580D01*
X161351047Y-85349580D02*
X161303428Y-85397200D01*
X161303428Y-85397200D02*
X161208190Y-85444819D01*
X161208190Y-85444819D02*
X160922476Y-85444819D01*
X160922476Y-85444819D02*
X160827238Y-85397200D01*
X160827238Y-85397200D02*
X160779619Y-85349580D01*
X166008819Y-82192333D02*
X166723104Y-82192333D01*
X166723104Y-82192333D02*
X166865961Y-82239952D01*
X166865961Y-82239952D02*
X166961200Y-82335190D01*
X166961200Y-82335190D02*
X167008819Y-82478047D01*
X167008819Y-82478047D02*
X167008819Y-82573285D01*
X166008819Y-81287571D02*
X166008819Y-81478047D01*
X166008819Y-81478047D02*
X166056438Y-81573285D01*
X166056438Y-81573285D02*
X166104057Y-81620904D01*
X166104057Y-81620904D02*
X166246914Y-81716142D01*
X166246914Y-81716142D02*
X166437390Y-81763761D01*
X166437390Y-81763761D02*
X166818342Y-81763761D01*
X166818342Y-81763761D02*
X166913580Y-81716142D01*
X166913580Y-81716142D02*
X166961200Y-81668523D01*
X166961200Y-81668523D02*
X167008819Y-81573285D01*
X167008819Y-81573285D02*
X167008819Y-81382809D01*
X167008819Y-81382809D02*
X166961200Y-81287571D01*
X166961200Y-81287571D02*
X166913580Y-81239952D01*
X166913580Y-81239952D02*
X166818342Y-81192333D01*
X166818342Y-81192333D02*
X166580247Y-81192333D01*
X166580247Y-81192333D02*
X166485009Y-81239952D01*
X166485009Y-81239952D02*
X166437390Y-81287571D01*
X166437390Y-81287571D02*
X166389771Y-81382809D01*
X166389771Y-81382809D02*
X166389771Y-81573285D01*
X166389771Y-81573285D02*
X166437390Y-81668523D01*
X166437390Y-81668523D02*
X166485009Y-81716142D01*
X166485009Y-81716142D02*
X166580247Y-81763761D01*
X110401467Y-84072500D02*
X110544324Y-84120119D01*
X110544324Y-84120119D02*
X110782419Y-84120119D01*
X110782419Y-84120119D02*
X110877657Y-84072500D01*
X110877657Y-84072500D02*
X110925276Y-84024880D01*
X110925276Y-84024880D02*
X110972895Y-83929642D01*
X110972895Y-83929642D02*
X110972895Y-83834404D01*
X110972895Y-83834404D02*
X110925276Y-83739166D01*
X110925276Y-83739166D02*
X110877657Y-83691547D01*
X110877657Y-83691547D02*
X110782419Y-83643928D01*
X110782419Y-83643928D02*
X110591943Y-83596309D01*
X110591943Y-83596309D02*
X110496705Y-83548690D01*
X110496705Y-83548690D02*
X110449086Y-83501071D01*
X110449086Y-83501071D02*
X110401467Y-83405833D01*
X110401467Y-83405833D02*
X110401467Y-83310595D01*
X110401467Y-83310595D02*
X110449086Y-83215357D01*
X110449086Y-83215357D02*
X110496705Y-83167738D01*
X110496705Y-83167738D02*
X110591943Y-83120119D01*
X110591943Y-83120119D02*
X110830038Y-83120119D01*
X110830038Y-83120119D02*
X110972895Y-83167738D01*
X111306229Y-83120119D02*
X111544324Y-84120119D01*
X111544324Y-84120119D02*
X111734800Y-83405833D01*
X111734800Y-83405833D02*
X111925276Y-84120119D01*
X111925276Y-84120119D02*
X112163372Y-83120119D01*
X112496705Y-83215357D02*
X112544324Y-83167738D01*
X112544324Y-83167738D02*
X112639562Y-83120119D01*
X112639562Y-83120119D02*
X112877657Y-83120119D01*
X112877657Y-83120119D02*
X112972895Y-83167738D01*
X112972895Y-83167738D02*
X113020514Y-83215357D01*
X113020514Y-83215357D02*
X113068133Y-83310595D01*
X113068133Y-83310595D02*
X113068133Y-83405833D01*
X113068133Y-83405833D02*
X113020514Y-83548690D01*
X113020514Y-83548690D02*
X112449086Y-84120119D01*
X112449086Y-84120119D02*
X113068133Y-84120119D01*
D11*
X110200000Y-90950000D02*
X110200000Y-96700000D01*
X113800000Y-90950000D02*
X110200000Y-90950000D01*
X113800000Y-96700000D02*
X113800000Y-90950000D01*
X122373422Y-78736000D02*
X122890578Y-78736000D01*
X122373422Y-80156000D02*
X122890578Y-80156000D01*
X111125000Y-87325000D02*
X111125000Y-88675000D01*
X112875000Y-87325000D02*
X112875000Y-88675000D01*
X146690000Y-104065000D02*
X146690000Y-105935000D01*
X146690000Y-105935000D02*
X150600000Y-105935000D01*
X150600000Y-104065000D02*
X146690000Y-104065000D01*
X114464000Y-102559078D02*
X114464000Y-102041922D01*
X115884000Y-102559078D02*
X115884000Y-102041922D01*
X107321078Y-85290000D02*
X106803922Y-85290000D01*
X107321078Y-86710000D02*
X106803922Y-86710000D01*
X117290000Y-87741422D02*
X117290000Y-88258578D01*
X118710000Y-87741422D02*
X118710000Y-88258578D01*
X140162578Y-92452000D02*
X139645422Y-92452000D01*
X140162578Y-93872000D02*
X139645422Y-93872000D01*
X132034578Y-99056000D02*
X131517422Y-99056000D01*
X132034578Y-100476000D02*
X131517422Y-100476000D01*
X105666000Y-102496578D02*
X105666000Y-101979422D01*
X107086000Y-102496578D02*
X107086000Y-101979422D01*
X152605078Y-78180000D02*
X152087922Y-78180000D01*
X152605078Y-79600000D02*
X152087922Y-79600000D01*
X143290000Y-108803922D02*
X143290000Y-109321078D01*
X144710000Y-108803922D02*
X144710000Y-109321078D01*
X141040000Y-95377500D02*
X141040000Y-98062500D01*
X142960000Y-95377500D02*
X141040000Y-95377500D01*
X142960000Y-98062500D02*
X142960000Y-95377500D01*
X141290000Y-102196078D02*
X141290000Y-101678922D01*
X142710000Y-102196078D02*
X142710000Y-101678922D01*
X118826578Y-78482000D02*
X118309422Y-78482000D01*
X118826578Y-79902000D02*
X118309422Y-79902000D01*
X144590000Y-97150000D02*
X144590000Y-100910000D01*
X144590000Y-100910000D02*
X145850000Y-100910000D01*
X151410000Y-94900000D02*
X151410000Y-100910000D01*
X151410000Y-100910000D02*
X150150000Y-100910000D01*
X150000000Y-110500000D02*
X150000000Y-115000000D01*
X152500000Y-116250000D02*
X154000000Y-116250000D01*
X154000000Y-109250000D02*
X152500000Y-109250000D01*
X156500000Y-115000000D02*
X156500000Y-110500000D01*
X118905078Y-82292000D02*
X118387922Y-82292000D01*
X118905078Y-83712000D02*
X118387922Y-83712000D01*
X107321078Y-95290000D02*
X106803922Y-95290000D01*
X107321078Y-96710000D02*
X106803922Y-96710000D01*
X120868500Y-76200000D02*
X120868500Y-78120000D01*
X120868500Y-78120000D02*
X123553500Y-78120000D01*
X123553500Y-76200000D02*
X120868500Y-76200000D01*
X144995422Y-80260000D02*
X145512578Y-80260000D01*
X144995422Y-81680000D02*
X145512578Y-81680000D01*
X138040000Y-96000000D02*
X138040000Y-98685000D01*
X138040000Y-98685000D02*
X139960000Y-98685000D01*
X139960000Y-98685000D02*
X139960000Y-96000000D01*
X107952000Y-102496578D02*
X107952000Y-101979422D01*
X109372000Y-102496578D02*
X109372000Y-101979422D01*
X124390000Y-88390000D02*
X124390000Y-88840000D01*
X124390000Y-88840000D02*
X123100000Y-88840000D01*
X124390000Y-95610000D02*
X124390000Y-95160000D01*
X124840000Y-88390000D02*
X124390000Y-88390000D01*
X124840000Y-95610000D02*
X124390000Y-95610000D01*
X131160000Y-88390000D02*
X131610000Y-88390000D01*
X131160000Y-95610000D02*
X131610000Y-95610000D01*
X131610000Y-88390000D02*
X131610000Y-88840000D01*
X131610000Y-95610000D02*
X131610000Y-95160000D01*
X125504400Y-89155200D02*
G75*
G02*
X124704400Y-89155200I-400000J0D01*
G01*
X124704400Y-89155200D02*
G75*
G02*
X125504400Y-89155200I400000J0D01*
G01*
X107321078Y-88290000D02*
X106803922Y-88290000D01*
X107321078Y-89710000D02*
X106803922Y-89710000D01*
X112222578Y-99564000D02*
X111705422Y-99564000D01*
X112222578Y-100984000D02*
X111705422Y-100984000D01*
X146600000Y-86350000D02*
X146600000Y-89650000D01*
X146600000Y-86350000D02*
X152000000Y-86350000D01*
X146600000Y-89650000D02*
X152000000Y-89650000D01*
X107258578Y-91290000D02*
X106741422Y-91290000D01*
X107258578Y-92710000D02*
X106741422Y-92710000D01*
X140290000Y-109258578D02*
X140290000Y-108741422D01*
X141710000Y-109258578D02*
X141710000Y-108741422D01*
X144690000Y-92065000D02*
X144690000Y-93935000D01*
X144690000Y-93935000D02*
X148600000Y-93935000D01*
X148600000Y-92065000D02*
X144690000Y-92065000D01*
X112476578Y-102866000D02*
X111959422Y-102866000D01*
X112476578Y-104286000D02*
X111959422Y-104286000D01*
X145542578Y-78180000D02*
X145025422Y-78180000D01*
X145542578Y-79600000D02*
X145025422Y-79600000D01*
X135844578Y-87372000D02*
X135327422Y-87372000D01*
X135844578Y-88792000D02*
X135327422Y-88792000D01*
D10*
X152134000Y-70590000D02*
X152134000Y-70740000D01*
X152134000Y-73140000D02*
X152134000Y-74540000D01*
X152434000Y-70140000D02*
X152434000Y-70590000D01*
X152434000Y-70590000D02*
X152134000Y-70590000D01*
X154484000Y-76290000D02*
X153759000Y-76290000D01*
X157359000Y-76715000D02*
X158084000Y-76715000D01*
X158084000Y-76290000D02*
X158809000Y-76290000D01*
X158084000Y-76715000D02*
X158084000Y-76290000D01*
X160134000Y-70590000D02*
X160134000Y-70140000D01*
X160434000Y-70590000D02*
X160134000Y-70590000D01*
X160434000Y-70740000D02*
X160434000Y-70590000D01*
X160434000Y-74540000D02*
X160434000Y-73140000D01*
D11*
X116588000Y-102564578D02*
X116588000Y-102047422D01*
X118008000Y-102564578D02*
X118008000Y-102047422D01*
X145512578Y-82306000D02*
X144995422Y-82306000D01*
X145512578Y-83726000D02*
X144995422Y-83726000D01*
X123227500Y-84521422D02*
X123227500Y-85038578D01*
X124647500Y-84521422D02*
X124647500Y-85038578D01*
X107670000Y-72670000D02*
X109000000Y-72670000D01*
X107670000Y-74000000D02*
X107670000Y-72670000D01*
X110270000Y-72670000D02*
X148430000Y-72670000D01*
X110270000Y-75330000D02*
X110270000Y-72670000D01*
X110270000Y-75330000D02*
X148430000Y-75330000D01*
X148430000Y-75330000D02*
X148430000Y-72670000D01*
X107670000Y-114670000D02*
X109000000Y-114670000D01*
X107670000Y-116000000D02*
X107670000Y-114670000D01*
X110270000Y-114670000D02*
X148430000Y-114670000D01*
X110270000Y-117330000D02*
X110270000Y-114670000D01*
X110270000Y-117330000D02*
X148430000Y-117330000D01*
X148430000Y-117330000D02*
X148430000Y-114670000D01*
X158132000Y-85990000D02*
X159462000Y-85990000D01*
X158132000Y-87320000D02*
X158132000Y-85990000D01*
X158132000Y-88590000D02*
X158132000Y-111510000D01*
X158132000Y-88590000D02*
X160732000Y-88590000D01*
X158132000Y-111510000D02*
X163332000Y-111510000D01*
X160732000Y-85990000D02*
X163332000Y-85990000D01*
X160732000Y-88590000D02*
X160732000Y-85990000D01*
X163332000Y-85990000D02*
X163332000Y-111510000D01*
X159084000Y-80094000D02*
X159084000Y-80916470D01*
X159084000Y-81531530D02*
X159084000Y-82186470D01*
X159084000Y-82801530D02*
X159084000Y-83624000D01*
X164099000Y-80094000D02*
X159084000Y-80094000D01*
X164099000Y-80094000D02*
X164099000Y-80660529D01*
X164099000Y-81787471D02*
X164099000Y-81930529D01*
X164152471Y-81984000D02*
X164295529Y-81984000D01*
X164859000Y-80094000D02*
X165619000Y-80094000D01*
X165422471Y-81984000D02*
X165554000Y-81984000D01*
X165554000Y-81984000D02*
X165554000Y-82186470D01*
X165554000Y-82801530D02*
X165554000Y-83624000D01*
X165554000Y-83624000D02*
X159084000Y-83624000D01*
X165619000Y-80094000D02*
X165619000Y-81224000D01*
X107843500Y-77276700D02*
X107843500Y-78659700D01*
X107843500Y-77276700D02*
X109226500Y-77276700D01*
X108083500Y-77516700D02*
X108083500Y-78826700D01*
X108083500Y-77516700D02*
X114903500Y-77516700D01*
X108083500Y-80426700D02*
X108083500Y-81366700D01*
X108083500Y-82966700D02*
X108083500Y-84276700D01*
X108083500Y-84276700D02*
X114903500Y-84276700D01*
X109683500Y-78991700D02*
X109683500Y-80261700D01*
X109683500Y-79111700D02*
X110890167Y-79111700D01*
X109683500Y-79231700D02*
X110890167Y-79231700D01*
X109683500Y-79351700D02*
X110890167Y-79351700D01*
X109683500Y-79471700D02*
X110890167Y-79471700D01*
X109683500Y-79591700D02*
X110890167Y-79591700D01*
X109683500Y-79711700D02*
X110890167Y-79711700D01*
X109683500Y-79831700D02*
X110890167Y-79831700D01*
X109683500Y-79951700D02*
X110890167Y-79951700D01*
X109683500Y-80071700D02*
X110890167Y-80071700D01*
X109683500Y-80191700D02*
X110890167Y-80191700D01*
X109683500Y-80261700D02*
X113303500Y-80261700D01*
X109683500Y-81531700D02*
X109683500Y-82801700D01*
X109683500Y-81651700D02*
X110890167Y-81651700D01*
X109683500Y-81771700D02*
X110890167Y-81771700D01*
X109683500Y-81891700D02*
X110890167Y-81891700D01*
X109683500Y-82011700D02*
X110890167Y-82011700D01*
X109683500Y-82131700D02*
X110890167Y-82131700D01*
X109683500Y-82251700D02*
X110890167Y-82251700D01*
X109683500Y-82371700D02*
X110890167Y-82371700D01*
X109683500Y-82491700D02*
X110890167Y-82491700D01*
X109683500Y-82611700D02*
X110890167Y-82611700D01*
X109683500Y-82731700D02*
X110890167Y-82731700D01*
X109683500Y-82801700D02*
X113303500Y-82801700D01*
X110890167Y-78991700D02*
X110890167Y-80261700D01*
X110890167Y-81531700D02*
X110890167Y-82801700D01*
X113303500Y-78991700D02*
X109683500Y-78991700D01*
X113303500Y-80261700D02*
X113303500Y-78991700D01*
X113303500Y-81531700D02*
X109683500Y-81531700D01*
X113303500Y-82801700D02*
X113303500Y-81531700D01*
X114903500Y-77516700D02*
X114903500Y-78826700D01*
X114903500Y-80426700D02*
X114903500Y-81366700D01*
X114903500Y-82966700D02*
X114903500Y-84276700D01*
%LPC*%
D12*
X165000000Y-116000000D03*
X165000000Y-74000000D03*
X104000000Y-74000000D03*
X104000000Y-116000000D03*
G36*
G01*
X110800000Y-91100000D02*
X113200000Y-91100000D01*
G75*
G02*
X113250000Y-91150000I0J-50000D01*
G01*
X113250000Y-93150000D01*
G75*
G02*
X113200000Y-93200000I-50000J0D01*
G01*
X110800000Y-93200000D01*
G75*
G02*
X110750000Y-93150000I0J50000D01*
G01*
X110750000Y-91150000D01*
G75*
G02*
X110800000Y-91100000I50000J0D01*
G01*
G37*
G36*
G01*
X110800000Y-94800000D02*
X113200000Y-94800000D01*
G75*
G02*
X113250000Y-94850000I0J-50000D01*
G01*
X113250000Y-96850000D01*
G75*
G02*
X113200000Y-96900000I-50000J0D01*
G01*
X110800000Y-96900000D01*
G75*
G02*
X110750000Y-96850000I0J50000D01*
G01*
X110750000Y-94850000D01*
G75*
G02*
X110800000Y-94800000I50000J0D01*
G01*
G37*
G36*
G01*
X121157000Y-79927250D02*
X121157000Y-78964750D01*
G75*
G02*
X121425750Y-78696000I268750J0D01*
G01*
X121963250Y-78696000D01*
G75*
G02*
X122232000Y-78964750I0J-268750D01*
G01*
X122232000Y-79927250D01*
G75*
G02*
X121963250Y-80196000I-268750J0D01*
G01*
X121425750Y-80196000D01*
G75*
G02*
X121157000Y-79927250I0J268750D01*
G01*
G37*
G36*
G01*
X123032000Y-79927250D02*
X123032000Y-78964750D01*
G75*
G02*
X123300750Y-78696000I268750J0D01*
G01*
X123838250Y-78696000D01*
G75*
G02*
X124107000Y-78964750I0J-268750D01*
G01*
X124107000Y-79927250D01*
G75*
G02*
X123838250Y-80196000I-268750J0D01*
G01*
X123300750Y-80196000D01*
G75*
G02*
X123032000Y-79927250I0J268750D01*
G01*
G37*
G36*
G01*
X111100000Y-88700000D02*
X112900000Y-88700000D01*
G75*
G02*
X112950000Y-88750000I0J-50000D01*
G01*
X112950000Y-89750000D01*
G75*
G02*
X112900000Y-89800000I-50000J0D01*
G01*
X111100000Y-89800000D01*
G75*
G02*
X111050000Y-89750000I0J50000D01*
G01*
X111050000Y-88750000D01*
G75*
G02*
X111100000Y-88700000I50000J0D01*
G01*
G37*
G36*
G01*
X111100000Y-86200000D02*
X112900000Y-86200000D01*
G75*
G02*
X112950000Y-86250000I0J-50000D01*
G01*
X112950000Y-87250000D01*
G75*
G02*
X112900000Y-87300000I-50000J0D01*
G01*
X111100000Y-87300000D01*
G75*
G02*
X111050000Y-87250000I0J50000D01*
G01*
X111050000Y-86250000D01*
G75*
G02*
X111100000Y-86200000I50000J0D01*
G01*
G37*
G36*
G01*
X146900000Y-105456482D02*
X146900000Y-104543518D01*
G75*
G02*
X147168518Y-104275000I268518J0D01*
G01*
X148131482Y-104275000D01*
G75*
G02*
X148400000Y-104543518I0J-268518D01*
G01*
X148400000Y-105456482D01*
G75*
G02*
X148131482Y-105725000I-268518J0D01*
G01*
X147168518Y-105725000D01*
G75*
G02*
X146900000Y-105456482I0J268518D01*
G01*
G37*
G36*
G01*
X149600000Y-105456482D02*
X149600000Y-104543518D01*
G75*
G02*
X149868518Y-104275000I268518J0D01*
G01*
X150831482Y-104275000D01*
G75*
G02*
X151100000Y-104543518I0J-268518D01*
G01*
X151100000Y-105456482D01*
G75*
G02*
X150831482Y-105725000I-268518J0D01*
G01*
X149868518Y-105725000D01*
G75*
G02*
X149600000Y-105456482I0J268518D01*
G01*
G37*
G36*
G01*
X115655250Y-103775500D02*
X114692750Y-103775500D01*
G75*
G02*
X114424000Y-103506750I0J268750D01*
G01*
X114424000Y-102969250D01*
G75*
G02*
X114692750Y-102700500I268750J0D01*
G01*
X115655250Y-102700500D01*
G75*
G02*
X115924000Y-102969250I0J-268750D01*
G01*
X115924000Y-103506750D01*
G75*
G02*
X115655250Y-103775500I-268750J0D01*
G01*
G37*
G36*
G01*
X115655250Y-101900500D02*
X114692750Y-101900500D01*
G75*
G02*
X114424000Y-101631750I0J268750D01*
G01*
X114424000Y-101094250D01*
G75*
G02*
X114692750Y-100825500I268750J0D01*
G01*
X115655250Y-100825500D01*
G75*
G02*
X115924000Y-101094250I0J-268750D01*
G01*
X115924000Y-101631750D01*
G75*
G02*
X115655250Y-101900500I-268750J0D01*
G01*
G37*
G36*
G01*
X108537500Y-85518750D02*
X108537500Y-86481250D01*
G75*
G02*
X108268750Y-86750000I-268750J0D01*
G01*
X107731250Y-86750000D01*
G75*
G02*
X107462500Y-86481250I0J268750D01*
G01*
X107462500Y-85518750D01*
G75*
G02*
X107731250Y-85250000I268750J0D01*
G01*
X108268750Y-85250000D01*
G75*
G02*
X108537500Y-85518750I0J-268750D01*
G01*
G37*
G36*
G01*
X106662500Y-85518750D02*
X106662500Y-86481250D01*
G75*
G02*
X106393750Y-86750000I-268750J0D01*
G01*
X105856250Y-86750000D01*
G75*
G02*
X105587500Y-86481250I0J268750D01*
G01*
X105587500Y-85518750D01*
G75*
G02*
X105856250Y-85250000I268750J0D01*
G01*
X106393750Y-85250000D01*
G75*
G02*
X106662500Y-85518750I0J-268750D01*
G01*
G37*
G36*
G01*
X117518750Y-86525000D02*
X118481250Y-86525000D01*
G75*
G02*
X118750000Y-86793750I0J-268750D01*
G01*
X118750000Y-87331250D01*
G75*
G02*
X118481250Y-87600000I-268750J0D01*
G01*
X117518750Y-87600000D01*
G75*
G02*
X117250000Y-87331250I0J268750D01*
G01*
X117250000Y-86793750D01*
G75*
G02*
X117518750Y-86525000I268750J0D01*
G01*
G37*
G36*
G01*
X117518750Y-88400000D02*
X118481250Y-88400000D01*
G75*
G02*
X118750000Y-88668750I0J-268750D01*
G01*
X118750000Y-89206250D01*
G75*
G02*
X118481250Y-89475000I-268750J0D01*
G01*
X117518750Y-89475000D01*
G75*
G02*
X117250000Y-89206250I0J268750D01*
G01*
X117250000Y-88668750D01*
G75*
G02*
X117518750Y-88400000I268750J0D01*
G01*
G37*
G36*
G01*
X141379000Y-92680750D02*
X141379000Y-93643250D01*
G75*
G02*
X141110250Y-93912000I-268750J0D01*
G01*
X140572750Y-93912000D01*
G75*
G02*
X140304000Y-93643250I0J268750D01*
G01*
X140304000Y-92680750D01*
G75*
G02*
X140572750Y-92412000I268750J0D01*
G01*
X141110250Y-92412000D01*
G75*
G02*
X141379000Y-92680750I0J-268750D01*
G01*
G37*
G36*
G01*
X139504000Y-92680750D02*
X139504000Y-93643250D01*
G75*
G02*
X139235250Y-93912000I-268750J0D01*
G01*
X138697750Y-93912000D01*
G75*
G02*
X138429000Y-93643250I0J268750D01*
G01*
X138429000Y-92680750D01*
G75*
G02*
X138697750Y-92412000I268750J0D01*
G01*
X139235250Y-92412000D01*
G75*
G02*
X139504000Y-92680750I0J-268750D01*
G01*
G37*
G36*
G01*
X133251000Y-99284750D02*
X133251000Y-100247250D01*
G75*
G02*
X132982250Y-100516000I-268750J0D01*
G01*
X132444750Y-100516000D01*
G75*
G02*
X132176000Y-100247250I0J268750D01*
G01*
X132176000Y-99284750D01*
G75*
G02*
X132444750Y-99016000I268750J0D01*
G01*
X132982250Y-99016000D01*
G75*
G02*
X133251000Y-99284750I0J-268750D01*
G01*
G37*
G36*
G01*
X131376000Y-99284750D02*
X131376000Y-100247250D01*
G75*
G02*
X131107250Y-100516000I-268750J0D01*
G01*
X130569750Y-100516000D01*
G75*
G02*
X130301000Y-100247250I0J268750D01*
G01*
X130301000Y-99284750D01*
G75*
G02*
X130569750Y-99016000I268750J0D01*
G01*
X131107250Y-99016000D01*
G75*
G02*
X131376000Y-99284750I0J-268750D01*
G01*
G37*
G36*
G01*
X106857250Y-103713000D02*
X105894750Y-103713000D01*
G75*
G02*
X105626000Y-103444250I0J268750D01*
G01*
X105626000Y-102906750D01*
G75*
G02*
X105894750Y-102638000I268750J0D01*
G01*
X106857250Y-102638000D01*
G75*
G02*
X107126000Y-102906750I0J-268750D01*
G01*
X107126000Y-103444250D01*
G75*
G02*
X106857250Y-103713000I-268750J0D01*
G01*
G37*
G36*
G01*
X106857250Y-101838000D02*
X105894750Y-101838000D01*
G75*
G02*
X105626000Y-101569250I0J268750D01*
G01*
X105626000Y-101031750D01*
G75*
G02*
X105894750Y-100763000I268750J0D01*
G01*
X106857250Y-100763000D01*
G75*
G02*
X107126000Y-101031750I0J-268750D01*
G01*
X107126000Y-101569250D01*
G75*
G02*
X106857250Y-101838000I-268750J0D01*
G01*
G37*
G36*
G01*
X153821500Y-78408750D02*
X153821500Y-79371250D01*
G75*
G02*
X153552750Y-79640000I-268750J0D01*
G01*
X153015250Y-79640000D01*
G75*
G02*
X152746500Y-79371250I0J268750D01*
G01*
X152746500Y-78408750D01*
G75*
G02*
X153015250Y-78140000I268750J0D01*
G01*
X153552750Y-78140000D01*
G75*
G02*
X153821500Y-78408750I0J-268750D01*
G01*
G37*
G36*
G01*
X151946500Y-78408750D02*
X151946500Y-79371250D01*
G75*
G02*
X151677750Y-79640000I-268750J0D01*
G01*
X151140250Y-79640000D01*
G75*
G02*
X150871500Y-79371250I0J268750D01*
G01*
X150871500Y-78408750D01*
G75*
G02*
X151140250Y-78140000I268750J0D01*
G01*
X151677750Y-78140000D01*
G75*
G02*
X151946500Y-78408750I0J-268750D01*
G01*
G37*
G36*
G01*
X143518750Y-107587500D02*
X144481250Y-107587500D01*
G75*
G02*
X144750000Y-107856250I0J-268750D01*
G01*
X144750000Y-108393750D01*
G75*
G02*
X144481250Y-108662500I-268750J0D01*
G01*
X143518750Y-108662500D01*
G75*
G02*
X143250000Y-108393750I0J268750D01*
G01*
X143250000Y-107856250D01*
G75*
G02*
X143518750Y-107587500I268750J0D01*
G01*
G37*
G36*
G01*
X143518750Y-109462500D02*
X144481250Y-109462500D01*
G75*
G02*
X144750000Y-109731250I0J-268750D01*
G01*
X144750000Y-110268750D01*
G75*
G02*
X144481250Y-110537500I-268750J0D01*
G01*
X143518750Y-110537500D01*
G75*
G02*
X143250000Y-110268750I0J268750D01*
G01*
X143250000Y-109731250D01*
G75*
G02*
X143518750Y-109462500I268750J0D01*
G01*
G37*
G36*
G01*
X141518750Y-95587500D02*
X142481250Y-95587500D01*
G75*
G02*
X142750000Y-95856250I0J-268750D01*
G01*
X142750000Y-96393750D01*
G75*
G02*
X142481250Y-96662500I-268750J0D01*
G01*
X141518750Y-96662500D01*
G75*
G02*
X141250000Y-96393750I0J268750D01*
G01*
X141250000Y-95856250D01*
G75*
G02*
X141518750Y-95587500I268750J0D01*
G01*
G37*
G36*
G01*
X141518750Y-97462500D02*
X142481250Y-97462500D01*
G75*
G02*
X142750000Y-97731250I0J-268750D01*
G01*
X142750000Y-98268750D01*
G75*
G02*
X142481250Y-98537500I-268750J0D01*
G01*
X141518750Y-98537500D01*
G75*
G02*
X141250000Y-98268750I0J268750D01*
G01*
X141250000Y-97731250D01*
G75*
G02*
X141518750Y-97462500I268750J0D01*
G01*
G37*
G36*
G01*
X142481250Y-103412500D02*
X141518750Y-103412500D01*
G75*
G02*
X141250000Y-103143750I0J268750D01*
G01*
X141250000Y-102606250D01*
G75*
G02*
X141518750Y-102337500I268750J0D01*
G01*
X142481250Y-102337500D01*
G75*
G02*
X142750000Y-102606250I0J-268750D01*
G01*
X142750000Y-103143750D01*
G75*
G02*
X142481250Y-103412500I-268750J0D01*
G01*
G37*
G36*
G01*
X142481250Y-101537500D02*
X141518750Y-101537500D01*
G75*
G02*
X141250000Y-101268750I0J268750D01*
G01*
X141250000Y-100731250D01*
G75*
G02*
X141518750Y-100462500I268750J0D01*
G01*
X142481250Y-100462500D01*
G75*
G02*
X142750000Y-100731250I0J-268750D01*
G01*
X142750000Y-101268750D01*
G75*
G02*
X142481250Y-101537500I-268750J0D01*
G01*
G37*
G36*
G01*
X120043000Y-78710750D02*
X120043000Y-79673250D01*
G75*
G02*
X119774250Y-79942000I-268750J0D01*
G01*
X119236750Y-79942000D01*
G75*
G02*
X118968000Y-79673250I0J268750D01*
G01*
X118968000Y-78710750D01*
G75*
G02*
X119236750Y-78442000I268750J0D01*
G01*
X119774250Y-78442000D01*
G75*
G02*
X120043000Y-78710750I0J-268750D01*
G01*
G37*
G36*
G01*
X118168000Y-78710750D02*
X118168000Y-79673250D01*
G75*
G02*
X117899250Y-79942000I-268750J0D01*
G01*
X117361750Y-79942000D01*
G75*
G02*
X117093000Y-79673250I0J268750D01*
G01*
X117093000Y-78710750D01*
G75*
G02*
X117361750Y-78442000I268750J0D01*
G01*
X117899250Y-78442000D01*
G75*
G02*
X118168000Y-78710750I0J-268750D01*
G01*
G37*
G36*
G01*
X149550000Y-94800000D02*
X151050000Y-94800000D01*
G75*
G02*
X151100000Y-94850000I0J-50000D01*
G01*
X151100000Y-96850000D01*
G75*
G02*
X151050000Y-96900000I-50000J0D01*
G01*
X149550000Y-96900000D01*
G75*
G02*
X149500000Y-96850000I0J50000D01*
G01*
X149500000Y-94850000D01*
G75*
G02*
X149550000Y-94800000I50000J0D01*
G01*
G37*
G36*
G01*
X147250000Y-94800000D02*
X148750000Y-94800000D01*
G75*
G02*
X148800000Y-94850000I0J-50000D01*
G01*
X148800000Y-96850000D01*
G75*
G02*
X148750000Y-96900000I-50000J0D01*
G01*
X147250000Y-96900000D01*
G75*
G02*
X147200000Y-96850000I0J50000D01*
G01*
X147200000Y-94850000D01*
G75*
G02*
X147250000Y-94800000I50000J0D01*
G01*
G37*
G36*
G01*
X146100000Y-101100000D02*
X149900000Y-101100000D01*
G75*
G02*
X149950000Y-101150000I0J-50000D01*
G01*
X149950000Y-103150000D01*
G75*
G02*
X149900000Y-103200000I-50000J0D01*
G01*
X146100000Y-103200000D01*
G75*
G02*
X146050000Y-103150000I0J50000D01*
G01*
X146050000Y-101150000D01*
G75*
G02*
X146100000Y-101100000I50000J0D01*
G01*
G37*
G36*
G01*
X144950000Y-94800000D02*
X146450000Y-94800000D01*
G75*
G02*
X146500000Y-94850000I0J-50000D01*
G01*
X146500000Y-96850000D01*
G75*
G02*
X146450000Y-96900000I-50000J0D01*
G01*
X144950000Y-96900000D01*
G75*
G02*
X144900000Y-96850000I0J50000D01*
G01*
X144900000Y-94850000D01*
G75*
G02*
X144950000Y-94800000I50000J0D01*
G01*
G37*
D13*
X151000000Y-116000000D03*
X151000000Y-109500000D03*
X155500000Y-116000000D03*
X155500000Y-109500000D03*
G36*
G01*
X120121500Y-82520750D02*
X120121500Y-83483250D01*
G75*
G02*
X119852750Y-83752000I-268750J0D01*
G01*
X119315250Y-83752000D01*
G75*
G02*
X119046500Y-83483250I0J268750D01*
G01*
X119046500Y-82520750D01*
G75*
G02*
X119315250Y-82252000I268750J0D01*
G01*
X119852750Y-82252000D01*
G75*
G02*
X120121500Y-82520750I0J-268750D01*
G01*
G37*
G36*
G01*
X118246500Y-82520750D02*
X118246500Y-83483250D01*
G75*
G02*
X117977750Y-83752000I-268750J0D01*
G01*
X117440250Y-83752000D01*
G75*
G02*
X117171500Y-83483250I0J268750D01*
G01*
X117171500Y-82520750D01*
G75*
G02*
X117440250Y-82252000I268750J0D01*
G01*
X117977750Y-82252000D01*
G75*
G02*
X118246500Y-82520750I0J-268750D01*
G01*
G37*
G36*
G01*
X108537500Y-95518750D02*
X108537500Y-96481250D01*
G75*
G02*
X108268750Y-96750000I-268750J0D01*
G01*
X107731250Y-96750000D01*
G75*
G02*
X107462500Y-96481250I0J268750D01*
G01*
X107462500Y-95518750D01*
G75*
G02*
X107731250Y-95250000I268750J0D01*
G01*
X108268750Y-95250000D01*
G75*
G02*
X108537500Y-95518750I0J-268750D01*
G01*
G37*
G36*
G01*
X106662500Y-95518750D02*
X106662500Y-96481250D01*
G75*
G02*
X106393750Y-96750000I-268750J0D01*
G01*
X105856250Y-96750000D01*
G75*
G02*
X105587500Y-96481250I0J268750D01*
G01*
X105587500Y-95518750D01*
G75*
G02*
X105856250Y-95250000I268750J0D01*
G01*
X106393750Y-95250000D01*
G75*
G02*
X106662500Y-95518750I0J-268750D01*
G01*
G37*
G36*
G01*
X121078500Y-77641250D02*
X121078500Y-76678750D01*
G75*
G02*
X121347250Y-76410000I268750J0D01*
G01*
X121884750Y-76410000D01*
G75*
G02*
X122153500Y-76678750I0J-268750D01*
G01*
X122153500Y-77641250D01*
G75*
G02*
X121884750Y-77910000I-268750J0D01*
G01*
X121347250Y-77910000D01*
G75*
G02*
X121078500Y-77641250I0J268750D01*
G01*
G37*
G36*
G01*
X122953500Y-77641250D02*
X122953500Y-76678750D01*
G75*
G02*
X123222250Y-76410000I268750J0D01*
G01*
X123759750Y-76410000D01*
G75*
G02*
X124028500Y-76678750I0J-268750D01*
G01*
X124028500Y-77641250D01*
G75*
G02*
X123759750Y-77910000I-268750J0D01*
G01*
X123222250Y-77910000D01*
G75*
G02*
X122953500Y-77641250I0J268750D01*
G01*
G37*
G36*
G01*
X143779000Y-81451250D02*
X143779000Y-80488750D01*
G75*
G02*
X144047750Y-80220000I268750J0D01*
G01*
X144585250Y-80220000D01*
G75*
G02*
X144854000Y-80488750I0J-268750D01*
G01*
X144854000Y-81451250D01*
G75*
G02*
X144585250Y-81720000I-268750J0D01*
G01*
X144047750Y-81720000D01*
G75*
G02*
X143779000Y-81451250I0J268750D01*
G01*
G37*
G36*
G01*
X145654000Y-81451250D02*
X145654000Y-80488750D01*
G75*
G02*
X145922750Y-80220000I268750J0D01*
G01*
X146460250Y-80220000D01*
G75*
G02*
X146729000Y-80488750I0J-268750D01*
G01*
X146729000Y-81451250D01*
G75*
G02*
X146460250Y-81720000I-268750J0D01*
G01*
X145922750Y-81720000D01*
G75*
G02*
X145654000Y-81451250I0J268750D01*
G01*
G37*
G36*
G01*
X139481250Y-98475000D02*
X138518750Y-98475000D01*
G75*
G02*
X138250000Y-98206250I0J268750D01*
G01*
X138250000Y-97668750D01*
G75*
G02*
X138518750Y-97400000I268750J0D01*
G01*
X139481250Y-97400000D01*
G75*
G02*
X139750000Y-97668750I0J-268750D01*
G01*
X139750000Y-98206250D01*
G75*
G02*
X139481250Y-98475000I-268750J0D01*
G01*
G37*
G36*
G01*
X139481250Y-96600000D02*
X138518750Y-96600000D01*
G75*
G02*
X138250000Y-96331250I0J268750D01*
G01*
X138250000Y-95793750D01*
G75*
G02*
X138518750Y-95525000I268750J0D01*
G01*
X139481250Y-95525000D01*
G75*
G02*
X139750000Y-95793750I0J-268750D01*
G01*
X139750000Y-96331250D01*
G75*
G02*
X139481250Y-96600000I-268750J0D01*
G01*
G37*
G36*
G01*
X109143250Y-103713000D02*
X108180750Y-103713000D01*
G75*
G02*
X107912000Y-103444250I0J268750D01*
G01*
X107912000Y-102906750D01*
G75*
G02*
X108180750Y-102638000I268750J0D01*
G01*
X109143250Y-102638000D01*
G75*
G02*
X109412000Y-102906750I0J-268750D01*
G01*
X109412000Y-103444250D01*
G75*
G02*
X109143250Y-103713000I-268750J0D01*
G01*
G37*
G36*
G01*
X109143250Y-101838000D02*
X108180750Y-101838000D01*
G75*
G02*
X107912000Y-101569250I0J268750D01*
G01*
X107912000Y-101031750D01*
G75*
G02*
X108180750Y-100763000I268750J0D01*
G01*
X109143250Y-100763000D01*
G75*
G02*
X109412000Y-101031750I0J-268750D01*
G01*
X109412000Y-101569250D01*
G75*
G02*
X109143250Y-101838000I-268750J0D01*
G01*
G37*
G36*
G01*
X123050000Y-89350000D02*
X123050000Y-89150000D01*
G75*
G02*
X123150000Y-89050000I100000J0D01*
G01*
X124525000Y-89050000D01*
G75*
G02*
X124625000Y-89150000I0J-100000D01*
G01*
X124625000Y-89350000D01*
G75*
G02*
X124525000Y-89450000I-100000J0D01*
G01*
X123150000Y-89450000D01*
G75*
G02*
X123050000Y-89350000I0J100000D01*
G01*
G37*
G36*
G01*
X123050000Y-89850000D02*
X123050000Y-89650000D01*
G75*
G02*
X123150000Y-89550000I100000J0D01*
G01*
X124525000Y-89550000D01*
G75*
G02*
X124625000Y-89650000I0J-100000D01*
G01*
X124625000Y-89850000D01*
G75*
G02*
X124525000Y-89950000I-100000J0D01*
G01*
X123150000Y-89950000D01*
G75*
G02*
X123050000Y-89850000I0J100000D01*
G01*
G37*
G36*
G01*
X123050000Y-90350000D02*
X123050000Y-90150000D01*
G75*
G02*
X123150000Y-90050000I100000J0D01*
G01*
X124525000Y-90050000D01*
G75*
G02*
X124625000Y-90150000I0J-100000D01*
G01*
X124625000Y-90350000D01*
G75*
G02*
X124525000Y-90450000I-100000J0D01*
G01*
X123150000Y-90450000D01*
G75*
G02*
X123050000Y-90350000I0J100000D01*
G01*
G37*
G36*
G01*
X123050000Y-90850000D02*
X123050000Y-90650000D01*
G75*
G02*
X123150000Y-90550000I100000J0D01*
G01*
X124525000Y-90550000D01*
G75*
G02*
X124625000Y-90650000I0J-100000D01*
G01*
X124625000Y-90850000D01*
G75*
G02*
X124525000Y-90950000I-100000J0D01*
G01*
X123150000Y-90950000D01*
G75*
G02*
X123050000Y-90850000I0J100000D01*
G01*
G37*
G36*
G01*
X123050000Y-91350000D02*
X123050000Y-91150000D01*
G75*
G02*
X123150000Y-91050000I100000J0D01*
G01*
X124525000Y-91050000D01*
G75*
G02*
X124625000Y-91150000I0J-100000D01*
G01*
X124625000Y-91350000D01*
G75*
G02*
X124525000Y-91450000I-100000J0D01*
G01*
X123150000Y-91450000D01*
G75*
G02*
X123050000Y-91350000I0J100000D01*
G01*
G37*
G36*
G01*
X123050000Y-91850000D02*
X123050000Y-91650000D01*
G75*
G02*
X123150000Y-91550000I100000J0D01*
G01*
X124525000Y-91550000D01*
G75*
G02*
X124625000Y-91650000I0J-100000D01*
G01*
X124625000Y-91850000D01*
G75*
G02*
X124525000Y-91950000I-100000J0D01*
G01*
X123150000Y-91950000D01*
G75*
G02*
X123050000Y-91850000I0J100000D01*
G01*
G37*
G36*
G01*
X123050000Y-92350000D02*
X123050000Y-92150000D01*
G75*
G02*
X123150000Y-92050000I100000J0D01*
G01*
X124525000Y-92050000D01*
G75*
G02*
X124625000Y-92150000I0J-100000D01*
G01*
X124625000Y-92350000D01*
G75*
G02*
X124525000Y-92450000I-100000J0D01*
G01*
X123150000Y-92450000D01*
G75*
G02*
X123050000Y-92350000I0J100000D01*
G01*
G37*
G36*
G01*
X123050000Y-92850000D02*
X123050000Y-92650000D01*
G75*
G02*
X123150000Y-92550000I100000J0D01*
G01*
X124525000Y-92550000D01*
G75*
G02*
X124625000Y-92650000I0J-100000D01*
G01*
X124625000Y-92850000D01*
G75*
G02*
X124525000Y-92950000I-100000J0D01*
G01*
X123150000Y-92950000D01*
G75*
G02*
X123050000Y-92850000I0J100000D01*
G01*
G37*
G36*
G01*
X123050000Y-93350000D02*
X123050000Y-93150000D01*
G75*
G02*
X123150000Y-93050000I100000J0D01*
G01*
X124525000Y-93050000D01*
G75*
G02*
X124625000Y-93150000I0J-100000D01*
G01*
X124625000Y-93350000D01*
G75*
G02*
X124525000Y-93450000I-100000J0D01*
G01*
X123150000Y-93450000D01*
G75*
G02*
X123050000Y-93350000I0J100000D01*
G01*
G37*
G36*
G01*
X123050000Y-93850000D02*
X123050000Y-93650000D01*
G75*
G02*
X123150000Y-93550000I100000J0D01*
G01*
X124525000Y-93550000D01*
G75*
G02*
X124625000Y-93650000I0J-100000D01*
G01*
X124625000Y-93850000D01*
G75*
G02*
X124525000Y-93950000I-100000J0D01*
G01*
X123150000Y-93950000D01*
G75*
G02*
X123050000Y-93850000I0J100000D01*
G01*
G37*
G36*
G01*
X123050000Y-94350000D02*
X123050000Y-94150000D01*
G75*
G02*
X123150000Y-94050000I100000J0D01*
G01*
X124525000Y-94050000D01*
G75*
G02*
X124625000Y-94150000I0J-100000D01*
G01*
X124625000Y-94350000D01*
G75*
G02*
X124525000Y-94450000I-100000J0D01*
G01*
X123150000Y-94450000D01*
G75*
G02*
X123050000Y-94350000I0J100000D01*
G01*
G37*
G36*
G01*
X123050000Y-94850000D02*
X123050000Y-94650000D01*
G75*
G02*
X123150000Y-94550000I100000J0D01*
G01*
X124525000Y-94550000D01*
G75*
G02*
X124625000Y-94650000I0J-100000D01*
G01*
X124625000Y-94850000D01*
G75*
G02*
X124525000Y-94950000I-100000J0D01*
G01*
X123150000Y-94950000D01*
G75*
G02*
X123050000Y-94850000I0J100000D01*
G01*
G37*
G36*
G01*
X125050000Y-96850000D02*
X125050000Y-95475000D01*
G75*
G02*
X125150000Y-95375000I100000J0D01*
G01*
X125350000Y-95375000D01*
G75*
G02*
X125450000Y-95475000I0J-100000D01*
G01*
X125450000Y-96850000D01*
G75*
G02*
X125350000Y-96950000I-100000J0D01*
G01*
X125150000Y-96950000D01*
G75*
G02*
X125050000Y-96850000I0J100000D01*
G01*
G37*
G36*
G01*
X125550000Y-96850000D02*
X125550000Y-95475000D01*
G75*
G02*
X125650000Y-95375000I100000J0D01*
G01*
X125850000Y-95375000D01*
G75*
G02*
X125950000Y-95475000I0J-100000D01*
G01*
X125950000Y-96850000D01*
G75*
G02*
X125850000Y-96950000I-100000J0D01*
G01*
X125650000Y-96950000D01*
G75*
G02*
X125550000Y-96850000I0J100000D01*
G01*
G37*
G36*
G01*
X126050000Y-96850000D02*
X126050000Y-95475000D01*
G75*
G02*
X126150000Y-95375000I100000J0D01*
G01*
X126350000Y-95375000D01*
G75*
G02*
X126450000Y-95475000I0J-100000D01*
G01*
X126450000Y-96850000D01*
G75*
G02*
X126350000Y-96950000I-100000J0D01*
G01*
X126150000Y-96950000D01*
G75*
G02*
X126050000Y-96850000I0J100000D01*
G01*
G37*
G36*
G01*
X126550000Y-96850000D02*
X126550000Y-95475000D01*
G75*
G02*
X126650000Y-95375000I100000J0D01*
G01*
X126850000Y-95375000D01*
G75*
G02*
X126950000Y-95475000I0J-100000D01*
G01*
X126950000Y-96850000D01*
G75*
G02*
X126850000Y-96950000I-100000J0D01*
G01*
X126650000Y-96950000D01*
G75*
G02*
X126550000Y-96850000I0J100000D01*
G01*
G37*
G36*
G01*
X127050000Y-96850000D02*
X127050000Y-95475000D01*
G75*
G02*
X127150000Y-95375000I100000J0D01*
G01*
X127350000Y-95375000D01*
G75*
G02*
X127450000Y-95475000I0J-100000D01*
G01*
X127450000Y-96850000D01*
G75*
G02*
X127350000Y-96950000I-100000J0D01*
G01*
X127150000Y-96950000D01*
G75*
G02*
X127050000Y-96850000I0J100000D01*
G01*
G37*
G36*
G01*
X127550000Y-96850000D02*
X127550000Y-95475000D01*
G75*
G02*
X127650000Y-95375000I100000J0D01*
G01*
X127850000Y-95375000D01*
G75*
G02*
X127950000Y-95475000I0J-100000D01*
G01*
X127950000Y-96850000D01*
G75*
G02*
X127850000Y-96950000I-100000J0D01*
G01*
X127650000Y-96950000D01*
G75*
G02*
X127550000Y-96850000I0J100000D01*
G01*
G37*
G36*
G01*
X128050000Y-96850000D02*
X128050000Y-95475000D01*
G75*
G02*
X128150000Y-95375000I100000J0D01*
G01*
X128350000Y-95375000D01*
G75*
G02*
X128450000Y-95475000I0J-100000D01*
G01*
X128450000Y-96850000D01*
G75*
G02*
X128350000Y-96950000I-100000J0D01*
G01*
X128150000Y-96950000D01*
G75*
G02*
X128050000Y-96850000I0J100000D01*
G01*
G37*
G36*
G01*
X128550000Y-96850000D02*
X128550000Y-95475000D01*
G75*
G02*
X128650000Y-95375000I100000J0D01*
G01*
X128850000Y-95375000D01*
G75*
G02*
X128950000Y-95475000I0J-100000D01*
G01*
X128950000Y-96850000D01*
G75*
G02*
X128850000Y-96950000I-100000J0D01*
G01*
X128650000Y-96950000D01*
G75*
G02*
X128550000Y-96850000I0J100000D01*
G01*
G37*
G36*
G01*
X129050000Y-96850000D02*
X129050000Y-95475000D01*
G75*
G02*
X129150000Y-95375000I100000J0D01*
G01*
X129350000Y-95375000D01*
G75*
G02*
X129450000Y-95475000I0J-100000D01*
G01*
X129450000Y-96850000D01*
G75*
G02*
X129350000Y-96950000I-100000J0D01*
G01*
X129150000Y-96950000D01*
G75*
G02*
X129050000Y-96850000I0J100000D01*
G01*
G37*
G36*
G01*
X129550000Y-96850000D02*
X129550000Y-95475000D01*
G75*
G02*
X129650000Y-95375000I100000J0D01*
G01*
X129850000Y-95375000D01*
G75*
G02*
X129950000Y-95475000I0J-100000D01*
G01*
X129950000Y-96850000D01*
G75*
G02*
X129850000Y-96950000I-100000J0D01*
G01*
X129650000Y-96950000D01*
G75*
G02*
X129550000Y-96850000I0J100000D01*
G01*
G37*
G36*
G01*
X130050000Y-96850000D02*
X130050000Y-95475000D01*
G75*
G02*
X130150000Y-95375000I100000J0D01*
G01*
X130350000Y-95375000D01*
G75*
G02*
X130450000Y-95475000I0J-100000D01*
G01*
X130450000Y-96850000D01*
G75*
G02*
X130350000Y-96950000I-100000J0D01*
G01*
X130150000Y-96950000D01*
G75*
G02*
X130050000Y-96850000I0J100000D01*
G01*
G37*
G36*
G01*
X130550000Y-96850000D02*
X130550000Y-95475000D01*
G75*
G02*
X130650000Y-95375000I100000J0D01*
G01*
X130850000Y-95375000D01*
G75*
G02*
X130950000Y-95475000I0J-100000D01*
G01*
X130950000Y-96850000D01*
G75*
G02*
X130850000Y-96950000I-100000J0D01*
G01*
X130650000Y-96950000D01*
G75*
G02*
X130550000Y-96850000I0J100000D01*
G01*
G37*
G36*
G01*
X131375000Y-94850000D02*
X131375000Y-94650000D01*
G75*
G02*
X131475000Y-94550000I100000J0D01*
G01*
X132850000Y-94550000D01*
G75*
G02*
X132950000Y-94650000I0J-100000D01*
G01*
X132950000Y-94850000D01*
G75*
G02*
X132850000Y-94950000I-100000J0D01*
G01*
X131475000Y-94950000D01*
G75*
G02*
X131375000Y-94850000I0J100000D01*
G01*
G37*
G36*
G01*
X131375000Y-94350000D02*
X131375000Y-94150000D01*
G75*
G02*
X131475000Y-94050000I100000J0D01*
G01*
X132850000Y-94050000D01*
G75*
G02*
X132950000Y-94150000I0J-100000D01*
G01*
X132950000Y-94350000D01*
G75*
G02*
X132850000Y-94450000I-100000J0D01*
G01*
X131475000Y-94450000D01*
G75*
G02*
X131375000Y-94350000I0J100000D01*
G01*
G37*
G36*
G01*
X131375000Y-93850000D02*
X131375000Y-93650000D01*
G75*
G02*
X131475000Y-93550000I100000J0D01*
G01*
X132850000Y-93550000D01*
G75*
G02*
X132950000Y-93650000I0J-100000D01*
G01*
X132950000Y-93850000D01*
G75*
G02*
X132850000Y-93950000I-100000J0D01*
G01*
X131475000Y-93950000D01*
G75*
G02*
X131375000Y-93850000I0J100000D01*
G01*
G37*
G36*
G01*
X131375000Y-93350000D02*
X131375000Y-93150000D01*
G75*
G02*
X131475000Y-93050000I100000J0D01*
G01*
X132850000Y-93050000D01*
G75*
G02*
X132950000Y-93150000I0J-100000D01*
G01*
X132950000Y-93350000D01*
G75*
G02*
X132850000Y-93450000I-100000J0D01*
G01*
X131475000Y-93450000D01*
G75*
G02*
X131375000Y-93350000I0J100000D01*
G01*
G37*
G36*
G01*
X131375000Y-92850000D02*
X131375000Y-92650000D01*
G75*
G02*
X131475000Y-92550000I100000J0D01*
G01*
X132850000Y-92550000D01*
G75*
G02*
X132950000Y-92650000I0J-100000D01*
G01*
X132950000Y-92850000D01*
G75*
G02*
X132850000Y-92950000I-100000J0D01*
G01*
X131475000Y-92950000D01*
G75*
G02*
X131375000Y-92850000I0J100000D01*
G01*
G37*
G36*
G01*
X131375000Y-92350000D02*
X131375000Y-92150000D01*
G75*
G02*
X131475000Y-92050000I100000J0D01*
G01*
X132850000Y-92050000D01*
G75*
G02*
X132950000Y-92150000I0J-100000D01*
G01*
X132950000Y-92350000D01*
G75*
G02*
X132850000Y-92450000I-100000J0D01*
G01*
X131475000Y-92450000D01*
G75*
G02*
X131375000Y-92350000I0J100000D01*
G01*
G37*
G36*
G01*
X131375000Y-91850000D02*
X131375000Y-91650000D01*
G75*
G02*
X131475000Y-91550000I100000J0D01*
G01*
X132850000Y-91550000D01*
G75*
G02*
X132950000Y-91650000I0J-100000D01*
G01*
X132950000Y-91850000D01*
G75*
G02*
X132850000Y-91950000I-100000J0D01*
G01*
X131475000Y-91950000D01*
G75*
G02*
X131375000Y-91850000I0J100000D01*
G01*
G37*
G36*
G01*
X131375000Y-91350000D02*
X131375000Y-91150000D01*
G75*
G02*
X131475000Y-91050000I100000J0D01*
G01*
X132850000Y-91050000D01*
G75*
G02*
X132950000Y-91150000I0J-100000D01*
G01*
X132950000Y-91350000D01*
G75*
G02*
X132850000Y-91450000I-100000J0D01*
G01*
X131475000Y-91450000D01*
G75*
G02*
X131375000Y-91350000I0J100000D01*
G01*
G37*
G36*
G01*
X131375000Y-90850000D02*
X131375000Y-90650000D01*
G75*
G02*
X131475000Y-90550000I100000J0D01*
G01*
X132850000Y-90550000D01*
G75*
G02*
X132950000Y-90650000I0J-100000D01*
G01*
X132950000Y-90850000D01*
G75*
G02*
X132850000Y-90950000I-100000J0D01*
G01*
X131475000Y-90950000D01*
G75*
G02*
X131375000Y-90850000I0J100000D01*
G01*
G37*
G36*
G01*
X131375000Y-90350000D02*
X131375000Y-90150000D01*
G75*
G02*
X131475000Y-90050000I100000J0D01*
G01*
X132850000Y-90050000D01*
G75*
G02*
X132950000Y-90150000I0J-100000D01*
G01*
X132950000Y-90350000D01*
G75*
G02*
X132850000Y-90450000I-100000J0D01*
G01*
X131475000Y-90450000D01*
G75*
G02*
X131375000Y-90350000I0J100000D01*
G01*
G37*
G36*
G01*
X131375000Y-89850000D02*
X131375000Y-89650000D01*
G75*
G02*
X131475000Y-89550000I100000J0D01*
G01*
X132850000Y-89550000D01*
G75*
G02*
X132950000Y-89650000I0J-100000D01*
G01*
X132950000Y-89850000D01*
G75*
G02*
X132850000Y-89950000I-100000J0D01*
G01*
X131475000Y-89950000D01*
G75*
G02*
X131375000Y-89850000I0J100000D01*
G01*
G37*
G36*
G01*
X131375000Y-89350000D02*
X131375000Y-89150000D01*
G75*
G02*
X131475000Y-89050000I100000J0D01*
G01*
X132850000Y-89050000D01*
G75*
G02*
X132950000Y-89150000I0J-100000D01*
G01*
X132950000Y-89350000D01*
G75*
G02*
X132850000Y-89450000I-100000J0D01*
G01*
X131475000Y-89450000D01*
G75*
G02*
X131375000Y-89350000I0J100000D01*
G01*
G37*
G36*
G01*
X130550000Y-88525000D02*
X130550000Y-87150000D01*
G75*
G02*
X130650000Y-87050000I100000J0D01*
G01*
X130850000Y-87050000D01*
G75*
G02*
X130950000Y-87150000I0J-100000D01*
G01*
X130950000Y-88525000D01*
G75*
G02*
X130850000Y-88625000I-100000J0D01*
G01*
X130650000Y-88625000D01*
G75*
G02*
X130550000Y-88525000I0J100000D01*
G01*
G37*
G36*
G01*
X130050000Y-88525000D02*
X130050000Y-87150000D01*
G75*
G02*
X130150000Y-87050000I100000J0D01*
G01*
X130350000Y-87050000D01*
G75*
G02*
X130450000Y-87150000I0J-100000D01*
G01*
X130450000Y-88525000D01*
G75*
G02*
X130350000Y-88625000I-100000J0D01*
G01*
X130150000Y-88625000D01*
G75*
G02*
X130050000Y-88525000I0J100000D01*
G01*
G37*
G36*
G01*
X129550000Y-88525000D02*
X129550000Y-87150000D01*
G75*
G02*
X129650000Y-87050000I100000J0D01*
G01*
X129850000Y-87050000D01*
G75*
G02*
X129950000Y-87150000I0J-100000D01*
G01*
X129950000Y-88525000D01*
G75*
G02*
X129850000Y-88625000I-100000J0D01*
G01*
X129650000Y-88625000D01*
G75*
G02*
X129550000Y-88525000I0J100000D01*
G01*
G37*
G36*
G01*
X129050000Y-88525000D02*
X129050000Y-87150000D01*
G75*
G02*
X129150000Y-87050000I100000J0D01*
G01*
X129350000Y-87050000D01*
G75*
G02*
X129450000Y-87150000I0J-100000D01*
G01*
X129450000Y-88525000D01*
G75*
G02*
X129350000Y-88625000I-100000J0D01*
G01*
X129150000Y-88625000D01*
G75*
G02*
X129050000Y-88525000I0J100000D01*
G01*
G37*
G36*
G01*
X128550000Y-88525000D02*
X128550000Y-87150000D01*
G75*
G02*
X128650000Y-87050000I100000J0D01*
G01*
X128850000Y-87050000D01*
G75*
G02*
X128950000Y-87150000I0J-100000D01*
G01*
X128950000Y-88525000D01*
G75*
G02*
X128850000Y-88625000I-100000J0D01*
G01*
X128650000Y-88625000D01*
G75*
G02*
X128550000Y-88525000I0J100000D01*
G01*
G37*
G36*
G01*
X128050000Y-88525000D02*
X128050000Y-87150000D01*
G75*
G02*
X128150000Y-87050000I100000J0D01*
G01*
X128350000Y-87050000D01*
G75*
G02*
X128450000Y-87150000I0J-100000D01*
G01*
X128450000Y-88525000D01*
G75*
G02*
X128350000Y-88625000I-100000J0D01*
G01*
X128150000Y-88625000D01*
G75*
G02*
X128050000Y-88525000I0J100000D01*
G01*
G37*
G36*
G01*
X127550000Y-88525000D02*
X127550000Y-87150000D01*
G75*
G02*
X127650000Y-87050000I100000J0D01*
G01*
X127850000Y-87050000D01*
G75*
G02*
X127950000Y-87150000I0J-100000D01*
G01*
X127950000Y-88525000D01*
G75*
G02*
X127850000Y-88625000I-100000J0D01*
G01*
X127650000Y-88625000D01*
G75*
G02*
X127550000Y-88525000I0J100000D01*
G01*
G37*
G36*
G01*
X127050000Y-88525000D02*
X127050000Y-87150000D01*
G75*
G02*
X127150000Y-87050000I100000J0D01*
G01*
X127350000Y-87050000D01*
G75*
G02*
X127450000Y-87150000I0J-100000D01*
G01*
X127450000Y-88525000D01*
G75*
G02*
X127350000Y-88625000I-100000J0D01*
G01*
X127150000Y-88625000D01*
G75*
G02*
X127050000Y-88525000I0J100000D01*
G01*
G37*
G36*
G01*
X126550000Y-88525000D02*
X126550000Y-87150000D01*
G75*
G02*
X126650000Y-87050000I100000J0D01*
G01*
X126850000Y-87050000D01*
G75*
G02*
X126950000Y-87150000I0J-100000D01*
G01*
X126950000Y-88525000D01*
G75*
G02*
X126850000Y-88625000I-100000J0D01*
G01*
X126650000Y-88625000D01*
G75*
G02*
X126550000Y-88525000I0J100000D01*
G01*
G37*
G36*
G01*
X126050000Y-88525000D02*
X126050000Y-87150000D01*
G75*
G02*
X126150000Y-87050000I100000J0D01*
G01*
X126350000Y-87050000D01*
G75*
G02*
X126450000Y-87150000I0J-100000D01*
G01*
X126450000Y-88525000D01*
G75*
G02*
X126350000Y-88625000I-100000J0D01*
G01*
X126150000Y-88625000D01*
G75*
G02*
X126050000Y-88525000I0J100000D01*
G01*
G37*
G36*
G01*
X125550000Y-88525000D02*
X125550000Y-87150000D01*
G75*
G02*
X125650000Y-87050000I100000J0D01*
G01*
X125850000Y-87050000D01*
G75*
G02*
X125950000Y-87150000I0J-100000D01*
G01*
X125950000Y-88525000D01*
G75*
G02*
X125850000Y-88625000I-100000J0D01*
G01*
X125650000Y-88625000D01*
G75*
G02*
X125550000Y-88525000I0J100000D01*
G01*
G37*
G36*
G01*
X125050000Y-88525000D02*
X125050000Y-87150000D01*
G75*
G02*
X125150000Y-87050000I100000J0D01*
G01*
X125350000Y-87050000D01*
G75*
G02*
X125450000Y-87150000I0J-100000D01*
G01*
X125450000Y-88525000D01*
G75*
G02*
X125350000Y-88625000I-100000J0D01*
G01*
X125150000Y-88625000D01*
G75*
G02*
X125050000Y-88525000I0J100000D01*
G01*
G37*
G36*
G01*
X108537500Y-88518750D02*
X108537500Y-89481250D01*
G75*
G02*
X108268750Y-89750000I-268750J0D01*
G01*
X107731250Y-89750000D01*
G75*
G02*
X107462500Y-89481250I0J268750D01*
G01*
X107462500Y-88518750D01*
G75*
G02*
X107731250Y-88250000I268750J0D01*
G01*
X108268750Y-88250000D01*
G75*
G02*
X108537500Y-88518750I0J-268750D01*
G01*
G37*
G36*
G01*
X106662500Y-88518750D02*
X106662500Y-89481250D01*
G75*
G02*
X106393750Y-89750000I-268750J0D01*
G01*
X105856250Y-89750000D01*
G75*
G02*
X105587500Y-89481250I0J268750D01*
G01*
X105587500Y-88518750D01*
G75*
G02*
X105856250Y-88250000I268750J0D01*
G01*
X106393750Y-88250000D01*
G75*
G02*
X106662500Y-88518750I0J-268750D01*
G01*
G37*
G36*
G01*
X113439000Y-99792750D02*
X113439000Y-100755250D01*
G75*
G02*
X113170250Y-101024000I-268750J0D01*
G01*
X112632750Y-101024000D01*
G75*
G02*
X112364000Y-100755250I0J268750D01*
G01*
X112364000Y-99792750D01*
G75*
G02*
X112632750Y-99524000I268750J0D01*
G01*
X113170250Y-99524000D01*
G75*
G02*
X113439000Y-99792750I0J-268750D01*
G01*
G37*
G36*
G01*
X111564000Y-99792750D02*
X111564000Y-100755250D01*
G75*
G02*
X111295250Y-101024000I-268750J0D01*
G01*
X110757750Y-101024000D01*
G75*
G02*
X110489000Y-100755250I0J268750D01*
G01*
X110489000Y-99792750D01*
G75*
G02*
X110757750Y-99524000I268750J0D01*
G01*
X111295250Y-99524000D01*
G75*
G02*
X111564000Y-99792750I0J-268750D01*
G01*
G37*
G36*
G01*
X146700000Y-88900000D02*
X146700000Y-87100000D01*
G75*
G02*
X146750000Y-87050000I50000J0D01*
G01*
X149250000Y-87050000D01*
G75*
G02*
X149300000Y-87100000I0J-50000D01*
G01*
X149300000Y-88900000D01*
G75*
G02*
X149250000Y-88950000I-50000J0D01*
G01*
X146750000Y-88950000D01*
G75*
G02*
X146700000Y-88900000I0J50000D01*
G01*
G37*
G36*
G01*
X150700000Y-88900000D02*
X150700000Y-87100000D01*
G75*
G02*
X150750000Y-87050000I50000J0D01*
G01*
X153250000Y-87050000D01*
G75*
G02*
X153300000Y-87100000I0J-50000D01*
G01*
X153300000Y-88900000D01*
G75*
G02*
X153250000Y-88950000I-50000J0D01*
G01*
X150750000Y-88950000D01*
G75*
G02*
X150700000Y-88900000I0J50000D01*
G01*
G37*
G36*
G01*
X108475000Y-91518750D02*
X108475000Y-92481250D01*
G75*
G02*
X108206250Y-92750000I-268750J0D01*
G01*
X107668750Y-92750000D01*
G75*
G02*
X107400000Y-92481250I0J268750D01*
G01*
X107400000Y-91518750D01*
G75*
G02*
X107668750Y-91250000I268750J0D01*
G01*
X108206250Y-91250000D01*
G75*
G02*
X108475000Y-91518750I0J-268750D01*
G01*
G37*
G36*
G01*
X106600000Y-91518750D02*
X106600000Y-92481250D01*
G75*
G02*
X106331250Y-92750000I-268750J0D01*
G01*
X105793750Y-92750000D01*
G75*
G02*
X105525000Y-92481250I0J268750D01*
G01*
X105525000Y-91518750D01*
G75*
G02*
X105793750Y-91250000I268750J0D01*
G01*
X106331250Y-91250000D01*
G75*
G02*
X106600000Y-91518750I0J-268750D01*
G01*
G37*
G36*
G01*
X141481250Y-110475000D02*
X140518750Y-110475000D01*
G75*
G02*
X140250000Y-110206250I0J268750D01*
G01*
X140250000Y-109668750D01*
G75*
G02*
X140518750Y-109400000I268750J0D01*
G01*
X141481250Y-109400000D01*
G75*
G02*
X141750000Y-109668750I0J-268750D01*
G01*
X141750000Y-110206250D01*
G75*
G02*
X141481250Y-110475000I-268750J0D01*
G01*
G37*
G36*
G01*
X141481250Y-108600000D02*
X140518750Y-108600000D01*
G75*
G02*
X140250000Y-108331250I0J268750D01*
G01*
X140250000Y-107793750D01*
G75*
G02*
X140518750Y-107525000I268750J0D01*
G01*
X141481250Y-107525000D01*
G75*
G02*
X141750000Y-107793750I0J-268750D01*
G01*
X141750000Y-108331250D01*
G75*
G02*
X141481250Y-108600000I-268750J0D01*
G01*
G37*
G36*
G01*
X144900000Y-93456482D02*
X144900000Y-92543518D01*
G75*
G02*
X145168518Y-92275000I268518J0D01*
G01*
X146131482Y-92275000D01*
G75*
G02*
X146400000Y-92543518I0J-268518D01*
G01*
X146400000Y-93456482D01*
G75*
G02*
X146131482Y-93725000I-268518J0D01*
G01*
X145168518Y-93725000D01*
G75*
G02*
X144900000Y-93456482I0J268518D01*
G01*
G37*
G36*
G01*
X147600000Y-93456482D02*
X147600000Y-92543518D01*
G75*
G02*
X147868518Y-92275000I268518J0D01*
G01*
X148831482Y-92275000D01*
G75*
G02*
X149100000Y-92543518I0J-268518D01*
G01*
X149100000Y-93456482D01*
G75*
G02*
X148831482Y-93725000I-268518J0D01*
G01*
X147868518Y-93725000D01*
G75*
G02*
X147600000Y-93456482I0J268518D01*
G01*
G37*
G36*
G01*
X113693000Y-103094750D02*
X113693000Y-104057250D01*
G75*
G02*
X113424250Y-104326000I-268750J0D01*
G01*
X112886750Y-104326000D01*
G75*
G02*
X112618000Y-104057250I0J268750D01*
G01*
X112618000Y-103094750D01*
G75*
G02*
X112886750Y-102826000I268750J0D01*
G01*
X113424250Y-102826000D01*
G75*
G02*
X113693000Y-103094750I0J-268750D01*
G01*
G37*
G36*
G01*
X111818000Y-103094750D02*
X111818000Y-104057250D01*
G75*
G02*
X111549250Y-104326000I-268750J0D01*
G01*
X111011750Y-104326000D01*
G75*
G02*
X110743000Y-104057250I0J268750D01*
G01*
X110743000Y-103094750D01*
G75*
G02*
X111011750Y-102826000I268750J0D01*
G01*
X111549250Y-102826000D01*
G75*
G02*
X111818000Y-103094750I0J-268750D01*
G01*
G37*
G36*
G01*
X146759000Y-78408750D02*
X146759000Y-79371250D01*
G75*
G02*
X146490250Y-79640000I-268750J0D01*
G01*
X145952750Y-79640000D01*
G75*
G02*
X145684000Y-79371250I0J268750D01*
G01*
X145684000Y-78408750D01*
G75*
G02*
X145952750Y-78140000I268750J0D01*
G01*
X146490250Y-78140000D01*
G75*
G02*
X146759000Y-78408750I0J-268750D01*
G01*
G37*
G36*
G01*
X144884000Y-78408750D02*
X144884000Y-79371250D01*
G75*
G02*
X144615250Y-79640000I-268750J0D01*
G01*
X144077750Y-79640000D01*
G75*
G02*
X143809000Y-79371250I0J268750D01*
G01*
X143809000Y-78408750D01*
G75*
G02*
X144077750Y-78140000I268750J0D01*
G01*
X144615250Y-78140000D01*
G75*
G02*
X144884000Y-78408750I0J-268750D01*
G01*
G37*
G36*
G01*
X137061000Y-87600750D02*
X137061000Y-88563250D01*
G75*
G02*
X136792250Y-88832000I-268750J0D01*
G01*
X136254750Y-88832000D01*
G75*
G02*
X135986000Y-88563250I0J268750D01*
G01*
X135986000Y-87600750D01*
G75*
G02*
X136254750Y-87332000I268750J0D01*
G01*
X136792250Y-87332000D01*
G75*
G02*
X137061000Y-87600750I0J-268750D01*
G01*
G37*
G36*
G01*
X135186000Y-87600750D02*
X135186000Y-88563250D01*
G75*
G02*
X134917250Y-88832000I-268750J0D01*
G01*
X134379750Y-88832000D01*
G75*
G02*
X134111000Y-88563250I0J268750D01*
G01*
X134111000Y-87600750D01*
G75*
G02*
X134379750Y-87332000I268750J0D01*
G01*
X134917250Y-87332000D01*
G75*
G02*
X135186000Y-87600750I0J-268750D01*
G01*
G37*
D14*
X158784000Y-74690000D03*
X153784000Y-74690000D03*
G36*
G01*
X157859000Y-75140000D02*
X157859000Y-76440000D01*
G75*
G02*
X157809000Y-76490000I-50000J0D01*
G01*
X157359000Y-76490000D01*
G75*
G02*
X157309000Y-76440000I0J50000D01*
G01*
X157309000Y-75140000D01*
G75*
G02*
X157359000Y-75090000I50000J0D01*
G01*
X157809000Y-75090000D01*
G75*
G02*
X157859000Y-75140000I0J-50000D01*
G01*
G37*
G36*
G01*
X157209000Y-75140000D02*
X157209000Y-76440000D01*
G75*
G02*
X157159000Y-76490000I-50000J0D01*
G01*
X156709000Y-76490000D01*
G75*
G02*
X156659000Y-76440000I0J50000D01*
G01*
X156659000Y-75140000D01*
G75*
G02*
X156709000Y-75090000I50000J0D01*
G01*
X157159000Y-75090000D01*
G75*
G02*
X157209000Y-75140000I0J-50000D01*
G01*
G37*
G36*
G01*
X156559000Y-75140000D02*
X156559000Y-76440000D01*
G75*
G02*
X156509000Y-76490000I-50000J0D01*
G01*
X156059000Y-76490000D01*
G75*
G02*
X156009000Y-76440000I0J50000D01*
G01*
X156009000Y-75140000D01*
G75*
G02*
X156059000Y-75090000I50000J0D01*
G01*
X156509000Y-75090000D01*
G75*
G02*
X156559000Y-75140000I0J-50000D01*
G01*
G37*
G36*
G01*
X155909000Y-75140000D02*
X155909000Y-76440000D01*
G75*
G02*
X155859000Y-76490000I-50000J0D01*
G01*
X155409000Y-76490000D01*
G75*
G02*
X155359000Y-76440000I0J50000D01*
G01*
X155359000Y-75140000D01*
G75*
G02*
X155409000Y-75090000I50000J0D01*
G01*
X155859000Y-75090000D01*
G75*
G02*
X155909000Y-75140000I0J-50000D01*
G01*
G37*
G36*
G01*
X155259000Y-75140000D02*
X155259000Y-76440000D01*
G75*
G02*
X155209000Y-76490000I-50000J0D01*
G01*
X154759000Y-76490000D01*
G75*
G02*
X154709000Y-76440000I0J50000D01*
G01*
X154709000Y-75140000D01*
G75*
G02*
X154759000Y-75090000I50000J0D01*
G01*
X155209000Y-75090000D01*
G75*
G02*
X155259000Y-75140000I0J-50000D01*
G01*
G37*
D15*
X160159000Y-71940000D03*
D13*
X160009000Y-75740000D03*
X152559000Y-75740000D03*
D15*
X152409000Y-71940000D03*
G36*
G01*
X117779250Y-103781000D02*
X116816750Y-103781000D01*
G75*
G02*
X116548000Y-103512250I0J268750D01*
G01*
X116548000Y-102974750D01*
G75*
G02*
X116816750Y-102706000I268750J0D01*
G01*
X117779250Y-102706000D01*
G75*
G02*
X118048000Y-102974750I0J-268750D01*
G01*
X118048000Y-103512250D01*
G75*
G02*
X117779250Y-103781000I-268750J0D01*
G01*
G37*
G36*
G01*
X117779250Y-101906000D02*
X116816750Y-101906000D01*
G75*
G02*
X116548000Y-101637250I0J268750D01*
G01*
X116548000Y-101099750D01*
G75*
G02*
X116816750Y-100831000I268750J0D01*
G01*
X117779250Y-100831000D01*
G75*
G02*
X118048000Y-101099750I0J-268750D01*
G01*
X118048000Y-101637250D01*
G75*
G02*
X117779250Y-101906000I-268750J0D01*
G01*
G37*
G36*
G01*
X146729000Y-82534750D02*
X146729000Y-83497250D01*
G75*
G02*
X146460250Y-83766000I-268750J0D01*
G01*
X145922750Y-83766000D01*
G75*
G02*
X145654000Y-83497250I0J268750D01*
G01*
X145654000Y-82534750D01*
G75*
G02*
X145922750Y-82266000I268750J0D01*
G01*
X146460250Y-82266000D01*
G75*
G02*
X146729000Y-82534750I0J-268750D01*
G01*
G37*
G36*
G01*
X144854000Y-82534750D02*
X144854000Y-83497250D01*
G75*
G02*
X144585250Y-83766000I-268750J0D01*
G01*
X144047750Y-83766000D01*
G75*
G02*
X143779000Y-83497250I0J268750D01*
G01*
X143779000Y-82534750D01*
G75*
G02*
X144047750Y-82266000I268750J0D01*
G01*
X144585250Y-82266000D01*
G75*
G02*
X144854000Y-82534750I0J-268750D01*
G01*
G37*
G36*
G01*
X123456250Y-83305000D02*
X124418750Y-83305000D01*
G75*
G02*
X124687500Y-83573750I0J-268750D01*
G01*
X124687500Y-84111250D01*
G75*
G02*
X124418750Y-84380000I-268750J0D01*
G01*
X123456250Y-84380000D01*
G75*
G02*
X123187500Y-84111250I0J268750D01*
G01*
X123187500Y-83573750D01*
G75*
G02*
X123456250Y-83305000I268750J0D01*
G01*
G37*
G36*
G01*
X123456250Y-85180000D02*
X124418750Y-85180000D01*
G75*
G02*
X124687500Y-85448750I0J-268750D01*
G01*
X124687500Y-85986250D01*
G75*
G02*
X124418750Y-86255000I-268750J0D01*
G01*
X123456250Y-86255000D01*
G75*
G02*
X123187500Y-85986250I0J268750D01*
G01*
X123187500Y-85448750D01*
G75*
G02*
X123456250Y-85180000I268750J0D01*
G01*
G37*
G36*
G01*
X109850000Y-74900000D02*
X108150000Y-74900000D01*
G75*
G02*
X108100000Y-74850000I0J50000D01*
G01*
X108100000Y-73150000D01*
G75*
G02*
X108150000Y-73100000I50000J0D01*
G01*
X109850000Y-73100000D01*
G75*
G02*
X109900000Y-73150000I0J-50000D01*
G01*
X109900000Y-74850000D01*
G75*
G02*
X109850000Y-74900000I-50000J0D01*
G01*
G37*
D16*
X111540000Y-74000000D03*
X114080000Y-74000000D03*
X116620000Y-74000000D03*
X119160000Y-74000000D03*
X121700000Y-74000000D03*
X124240000Y-74000000D03*
X126780000Y-74000000D03*
X129320000Y-74000000D03*
X131860000Y-74000000D03*
X134400000Y-74000000D03*
X136940000Y-74000000D03*
X139480000Y-74000000D03*
X142020000Y-74000000D03*
X144560000Y-74000000D03*
X147100000Y-74000000D03*
G36*
G01*
X109850000Y-116900000D02*
X108150000Y-116900000D01*
G75*
G02*
X108100000Y-116850000I0J50000D01*
G01*
X108100000Y-115150000D01*
G75*
G02*
X108150000Y-115100000I50000J0D01*
G01*
X109850000Y-115100000D01*
G75*
G02*
X109900000Y-115150000I0J-50000D01*
G01*
X109900000Y-116850000D01*
G75*
G02*
X109850000Y-116900000I-50000J0D01*
G01*
G37*
X111540000Y-116000000D03*
X114080000Y-116000000D03*
X116620000Y-116000000D03*
X119160000Y-116000000D03*
X121700000Y-116000000D03*
X124240000Y-116000000D03*
X126780000Y-116000000D03*
X129320000Y-116000000D03*
X131860000Y-116000000D03*
X134400000Y-116000000D03*
X136940000Y-116000000D03*
X139480000Y-116000000D03*
X142020000Y-116000000D03*
X144560000Y-116000000D03*
X147100000Y-116000000D03*
G36*
G01*
X158562000Y-88170000D02*
X158562000Y-86470000D01*
G75*
G02*
X158612000Y-86420000I50000J0D01*
G01*
X160312000Y-86420000D01*
G75*
G02*
X160362000Y-86470000I0J-50000D01*
G01*
X160362000Y-88170000D01*
G75*
G02*
X160312000Y-88220000I-50000J0D01*
G01*
X158612000Y-88220000D01*
G75*
G02*
X158562000Y-88170000I0J50000D01*
G01*
G37*
X162002000Y-87320000D03*
X159462000Y-89860000D03*
X162002000Y-89860000D03*
X159462000Y-92400000D03*
X162002000Y-92400000D03*
X159462000Y-94940000D03*
X162002000Y-94940000D03*
X159462000Y-97480000D03*
X162002000Y-97480000D03*
X159462000Y-100020000D03*
X162002000Y-100020000D03*
X159462000Y-102560000D03*
X162002000Y-102560000D03*
X159462000Y-105100000D03*
X162002000Y-105100000D03*
X159462000Y-107640000D03*
X162002000Y-107640000D03*
X159462000Y-110180000D03*
X162002000Y-110180000D03*
G36*
G01*
X164359000Y-80674000D02*
X165359000Y-80674000D01*
G75*
G02*
X165409000Y-80724000I0J-50000D01*
G01*
X165409000Y-81724000D01*
G75*
G02*
X165359000Y-81774000I-50000J0D01*
G01*
X164359000Y-81774000D01*
G75*
G02*
X164309000Y-81724000I0J50000D01*
G01*
X164309000Y-80724000D01*
G75*
G02*
X164359000Y-80674000I50000J0D01*
G01*
G37*
D17*
X164859000Y-82494000D03*
X163589000Y-81224000D03*
X163589000Y-82494000D03*
X162319000Y-81224000D03*
X162319000Y-82494000D03*
X161049000Y-81224000D03*
X161049000Y-82494000D03*
X159779000Y-81224000D03*
X159779000Y-82494000D03*
G36*
G01*
X106998500Y-80186700D02*
X106998500Y-79066700D01*
G75*
G02*
X107048500Y-79016700I50000J0D01*
G01*
X109208500Y-79016700D01*
G75*
G02*
X109258500Y-79066700I0J-50000D01*
G01*
X109258500Y-80186700D01*
G75*
G02*
X109208500Y-80236700I-50000J0D01*
G01*
X107048500Y-80236700D01*
G75*
G02*
X106998500Y-80186700I0J50000D01*
G01*
G37*
G36*
G01*
X106998500Y-82726700D02*
X106998500Y-81606700D01*
G75*
G02*
X107048500Y-81556700I50000J0D01*
G01*
X109208500Y-81556700D01*
G75*
G02*
X109258500Y-81606700I0J-50000D01*
G01*
X109258500Y-82726700D01*
G75*
G02*
X109208500Y-82776700I-50000J0D01*
G01*
X107048500Y-82776700D01*
G75*
G02*
X106998500Y-82726700I0J50000D01*
G01*
G37*
G36*
G01*
X113728500Y-82726700D02*
X113728500Y-81606700D01*
G75*
G02*
X113778500Y-81556700I50000J0D01*
G01*
X115938500Y-81556700D01*
G75*
G02*
X115988500Y-81606700I0J-50000D01*
G01*
X115988500Y-82726700D01*
G75*
G02*
X115938500Y-82776700I-50000J0D01*
G01*
X113778500Y-82776700D01*
G75*
G02*
X113728500Y-82726700I0J50000D01*
G01*
G37*
G36*
G01*
X113728500Y-80186700D02*
X113728500Y-79066700D01*
G75*
G02*
X113778500Y-79016700I50000J0D01*
G01*
X115938500Y-79016700D01*
G75*
G02*
X115988500Y-79066700I0J-50000D01*
G01*
X115988500Y-80186700D01*
G75*
G02*
X115938500Y-80236700I-50000J0D01*
G01*
X113778500Y-80236700D01*
G75*
G02*
X113728500Y-80186700I0J50000D01*
G01*
G37*
%LPD*%
M02*
