G04 #@! TF.GenerationSoftware,KiCad,Pcbnew,8.0.3+1*
G04 #@! TF.CreationDate,2024-07-01T14:09:21+00:00*
G04 #@! TF.ProjectId,STM32103_Devel,53544d33-3231-4303-935f-446576656c2e,0.0.2*
G04 #@! TF.SameCoordinates,Original*
G04 #@! TF.FileFunction,Copper,L3,Inr*
G04 #@! TF.FilePolarity,Positive*
%FSLAX46Y46*%
G04 Gerber Fmt 4.6, Leading zero omitted, Abs format (unit mm)*
G04 Created by KiCad (PCBNEW 8.0.3+1) date 2024-07-01 14:09:21*
%MOMM*%
%LPD*%
G01*
G04 APERTURE LIST*
G04 #@! TA.AperFunction,ComponentPad*
%ADD10C,4.700000*%
G04 #@! TD*
G04 #@! TA.AperFunction,ComponentPad*
%ADD11C,2.000000*%
G04 #@! TD*
G04 #@! TA.AperFunction,ComponentPad*
%ADD12C,1.800000*%
G04 #@! TD*
G04 #@! TA.AperFunction,ComponentPad*
%ADD13R,1.700000X1.700000*%
G04 #@! TD*
G04 #@! TA.AperFunction,ComponentPad*
%ADD14O,1.700000X1.700000*%
G04 #@! TD*
G04 #@! TA.AperFunction,ViaPad*
%ADD15C,0.800000*%
G04 #@! TD*
G04 APERTURE END LIST*
D10*
X165000000Y-116000000D03*
X165000000Y-74000000D03*
X104000000Y-74000000D03*
X104000000Y-116000000D03*
D11*
X151000000Y-116000000D03*
X151000000Y-109500000D03*
X155500000Y-116000000D03*
X155500000Y-109500000D03*
D12*
X167195000Y-89880000D03*
D11*
X163395000Y-89730000D03*
X163395000Y-82280000D03*
D12*
X167195000Y-82130000D03*
D13*
X109000000Y-74000000D03*
D14*
X111540000Y-74000000D03*
X114080000Y-74000000D03*
X116620000Y-74000000D03*
X119160000Y-74000000D03*
X121700000Y-74000000D03*
X124240000Y-74000000D03*
X126780000Y-74000000D03*
X129320000Y-74000000D03*
X131860000Y-74000000D03*
X134400000Y-74000000D03*
X136940000Y-74000000D03*
X139480000Y-74000000D03*
X142020000Y-74000000D03*
X144560000Y-74000000D03*
X147100000Y-74000000D03*
D13*
X109000000Y-116000000D03*
D14*
X111540000Y-116000000D03*
X114080000Y-116000000D03*
X116620000Y-116000000D03*
X119160000Y-116000000D03*
X121700000Y-116000000D03*
X124240000Y-116000000D03*
X126780000Y-116000000D03*
X129320000Y-116000000D03*
X131860000Y-116000000D03*
X134400000Y-116000000D03*
X136940000Y-116000000D03*
X139480000Y-116000000D03*
X142020000Y-116000000D03*
X144560000Y-116000000D03*
X147100000Y-116000000D03*
D15*
X133046000Y-86812000D03*
X123140000Y-81224000D03*
X122378000Y-85034000D03*
X130760000Y-101036000D03*
X116944443Y-88181557D03*
X104344000Y-103322000D03*
X142284000Y-78890000D03*
X145084000Y-105000000D03*
X146100000Y-105000000D03*
X114846300Y-83906600D03*
X148000000Y-97956000D03*
X114820900Y-77912200D03*
X166000000Y-108000000D03*
X114504000Y-91130000D03*
X126378000Y-78811000D03*
X128728000Y-80970000D03*
X140000000Y-111000000D03*
X120350661Y-91633341D03*
X137872000Y-89969009D03*
X137872000Y-99512000D03*
X125426000Y-84782301D03*
X126442000Y-84018000D03*
X127975000Y-83002000D03*
X127975000Y-81986000D03*
X129490000Y-80208000D03*
X140412000Y-84272000D03*
X130435840Y-78571897D03*
X158000000Y-103000000D03*
X140920000Y-89098000D03*
X139396000Y-103576000D03*
X139904000Y-89098000D03*
X138888000Y-102052000D03*
X156000000Y-104000000D03*
X138779999Y-89243999D03*
X138380000Y-100782000D03*
X157000000Y-105500000D03*
X132284000Y-96718000D03*
X133300000Y-96718000D03*
X133300000Y-95702000D03*
X132284000Y-95702000D03*
X130252000Y-94178000D03*
X129490000Y-93416000D03*
X128601000Y-99258008D03*
X127999990Y-100093718D03*
X128994924Y-98211844D03*
X120790499Y-82303501D03*
G04 #@! TA.AperFunction,Conductor*
G36*
X166671776Y-70104793D02*
G01*
X166912793Y-70169373D01*
X166925336Y-70173449D01*
X167203671Y-70280292D01*
X167215719Y-70285656D01*
X167481368Y-70421010D01*
X167492785Y-70427601D01*
X167742838Y-70589988D01*
X167753495Y-70597732D01*
X167985197Y-70785360D01*
X167994998Y-70794185D01*
X168205814Y-71005001D01*
X168214639Y-71014802D01*
X168402263Y-71246498D01*
X168410015Y-71257167D01*
X168572394Y-71507208D01*
X168578989Y-71518631D01*
X168714343Y-71784280D01*
X168719707Y-71796327D01*
X168826550Y-72074661D01*
X168830626Y-72087205D01*
X168907790Y-72375188D01*
X168910532Y-72388088D01*
X168957172Y-72682563D01*
X168958550Y-72695679D01*
X168974327Y-72996698D01*
X168974500Y-73003293D01*
X168974500Y-116996706D01*
X168974327Y-117003301D01*
X168958550Y-117304320D01*
X168957172Y-117317436D01*
X168910532Y-117611911D01*
X168907790Y-117624811D01*
X168830626Y-117912794D01*
X168826550Y-117925338D01*
X168719707Y-118203672D01*
X168714343Y-118215719D01*
X168578989Y-118481368D01*
X168572394Y-118492791D01*
X168410015Y-118742832D01*
X168402263Y-118753501D01*
X168214639Y-118985197D01*
X168205814Y-118994998D01*
X167994998Y-119205814D01*
X167985197Y-119214639D01*
X167753501Y-119402263D01*
X167742832Y-119410015D01*
X167492791Y-119572394D01*
X167481368Y-119578989D01*
X167215719Y-119714343D01*
X167203671Y-119719707D01*
X166925336Y-119826550D01*
X166912794Y-119830626D01*
X166748336Y-119874692D01*
X166671774Y-119895207D01*
X166639165Y-119899500D01*
X102360835Y-119899500D01*
X102328224Y-119895207D01*
X102087206Y-119830626D01*
X102074663Y-119826550D01*
X101796328Y-119719707D01*
X101784280Y-119714343D01*
X101518631Y-119578989D01*
X101507208Y-119572394D01*
X101257167Y-119410015D01*
X101246498Y-119402263D01*
X101187493Y-119354482D01*
X101014802Y-119214639D01*
X101005001Y-119205814D01*
X100794185Y-118994998D01*
X100785360Y-118985197D01*
X100597736Y-118753501D01*
X100589988Y-118742838D01*
X100427601Y-118492785D01*
X100421010Y-118481368D01*
X100297733Y-118239420D01*
X100284000Y-118182218D01*
X100284000Y-116000000D01*
X101137157Y-116000000D01*
X101156514Y-116332345D01*
X101156515Y-116332354D01*
X101214325Y-116660215D01*
X101214325Y-116660216D01*
X101309809Y-116979152D01*
X101309808Y-116979152D01*
X101441668Y-117284839D01*
X101441671Y-117284844D01*
X101608123Y-117573146D01*
X101608133Y-117573162D01*
X101804227Y-117836562D01*
X102882348Y-116758441D01*
X102970278Y-116879466D01*
X103120534Y-117029722D01*
X103241557Y-117117650D01*
X102166686Y-118192522D01*
X102290432Y-118296355D01*
X102290433Y-118296356D01*
X102568570Y-118479290D01*
X102866090Y-118628710D01*
X103178924Y-118742572D01*
X103178927Y-118742573D01*
X103502867Y-118819348D01*
X103502877Y-118819350D01*
X103833537Y-118858000D01*
X104166463Y-118858000D01*
X104497122Y-118819350D01*
X104497132Y-118819348D01*
X104821072Y-118742573D01*
X104821075Y-118742572D01*
X105133909Y-118628710D01*
X105431429Y-118479290D01*
X105709566Y-118296356D01*
X105833312Y-118192522D01*
X105833312Y-118192521D01*
X104758441Y-117117650D01*
X104879466Y-117029722D01*
X105029722Y-116879466D01*
X105117650Y-116758441D01*
X106195771Y-117836562D01*
X106195772Y-117836562D01*
X106391859Y-117573173D01*
X106391876Y-117573146D01*
X106558328Y-117284844D01*
X106558331Y-117284839D01*
X106690190Y-116979152D01*
X106785674Y-116660216D01*
X106785674Y-116660215D01*
X106843484Y-116332354D01*
X106843485Y-116332345D01*
X106862842Y-116000000D01*
X106843485Y-115667654D01*
X106843484Y-115667645D01*
X106785674Y-115339784D01*
X106785674Y-115339783D01*
X106714291Y-115101350D01*
X107641500Y-115101350D01*
X107641500Y-116898649D01*
X107648009Y-116959196D01*
X107648011Y-116959204D01*
X107699110Y-117096202D01*
X107699112Y-117096207D01*
X107786738Y-117213261D01*
X107903792Y-117300887D01*
X107903794Y-117300888D01*
X107903796Y-117300889D01*
X107930690Y-117310920D01*
X108040795Y-117351988D01*
X108040803Y-117351990D01*
X108101350Y-117358499D01*
X108101355Y-117358499D01*
X108101362Y-117358500D01*
X108101368Y-117358500D01*
X109898632Y-117358500D01*
X109898638Y-117358500D01*
X109898645Y-117358499D01*
X109898649Y-117358499D01*
X109959196Y-117351990D01*
X109959199Y-117351989D01*
X109959201Y-117351989D01*
X109969253Y-117348240D01*
X109978045Y-117344960D01*
X110096204Y-117300889D01*
X110117645Y-117284839D01*
X110213261Y-117213261D01*
X110300886Y-117096208D01*
X110300885Y-117096208D01*
X110300889Y-117096204D01*
X110344999Y-116977939D01*
X110387545Y-116921107D01*
X110454066Y-116896296D01*
X110523440Y-116911388D01*
X110555753Y-116936635D01*
X110614085Y-117000000D01*
X110616762Y-117002908D01*
X110617267Y-117003301D01*
X110794424Y-117141189D01*
X110992426Y-117248342D01*
X110992427Y-117248342D01*
X110992428Y-117248343D01*
X111098738Y-117284839D01*
X111205365Y-117321444D01*
X111427431Y-117358500D01*
X111427435Y-117358500D01*
X111652565Y-117358500D01*
X111652569Y-117358500D01*
X111874635Y-117321444D01*
X112087574Y-117248342D01*
X112285576Y-117141189D01*
X112463240Y-117002906D01*
X112615722Y-116837268D01*
X112704518Y-116701354D01*
X112758520Y-116655268D01*
X112828868Y-116645692D01*
X112893225Y-116675669D01*
X112915480Y-116701353D01*
X112919532Y-116707554D01*
X113004275Y-116837265D01*
X113004279Y-116837270D01*
X113072511Y-116911388D01*
X113151052Y-116996706D01*
X113156762Y-117002908D01*
X113157267Y-117003301D01*
X113334424Y-117141189D01*
X113532426Y-117248342D01*
X113532427Y-117248342D01*
X113532428Y-117248343D01*
X113638738Y-117284839D01*
X113745365Y-117321444D01*
X113967431Y-117358500D01*
X113967435Y-117358500D01*
X114192565Y-117358500D01*
X114192569Y-117358500D01*
X114414635Y-117321444D01*
X114627574Y-117248342D01*
X114825576Y-117141189D01*
X115003240Y-117002906D01*
X115155722Y-116837268D01*
X115244518Y-116701354D01*
X115298520Y-116655268D01*
X115368868Y-116645692D01*
X115433225Y-116675669D01*
X115455480Y-116701353D01*
X115459532Y-116707554D01*
X115544275Y-116837265D01*
X115544279Y-116837270D01*
X115612511Y-116911388D01*
X115691052Y-116996706D01*
X115696762Y-117002908D01*
X115697267Y-117003301D01*
X115874424Y-117141189D01*
X116072426Y-117248342D01*
X116072427Y-117248342D01*
X116072428Y-117248343D01*
X116178738Y-117284839D01*
X116285365Y-117321444D01*
X116507431Y-117358500D01*
X116507435Y-117358500D01*
X116732565Y-117358500D01*
X116732569Y-117358500D01*
X116954635Y-117321444D01*
X117167574Y-117248342D01*
X117365576Y-117141189D01*
X117543240Y-117002906D01*
X117695722Y-116837268D01*
X117784518Y-116701354D01*
X117838520Y-116655268D01*
X117908868Y-116645692D01*
X117973225Y-116675669D01*
X117995480Y-116701353D01*
X117999532Y-116707554D01*
X118084275Y-116837265D01*
X118084279Y-116837270D01*
X118152511Y-116911388D01*
X118231052Y-116996706D01*
X118236762Y-117002908D01*
X118237267Y-117003301D01*
X118414424Y-117141189D01*
X118612426Y-117248342D01*
X118612427Y-117248342D01*
X118612428Y-117248343D01*
X118718738Y-117284839D01*
X118825365Y-117321444D01*
X119047431Y-117358500D01*
X119047435Y-117358500D01*
X119272565Y-117358500D01*
X119272569Y-117358500D01*
X119494635Y-117321444D01*
X119707574Y-117248342D01*
X119905576Y-117141189D01*
X120083240Y-117002906D01*
X120235722Y-116837268D01*
X120324518Y-116701354D01*
X120378520Y-116655268D01*
X120448868Y-116645692D01*
X120513225Y-116675669D01*
X120535480Y-116701353D01*
X120539532Y-116707554D01*
X120624275Y-116837265D01*
X120624279Y-116837270D01*
X120692511Y-116911388D01*
X120771052Y-116996706D01*
X120776762Y-117002908D01*
X120777267Y-117003301D01*
X120954424Y-117141189D01*
X121152426Y-117248342D01*
X121152427Y-117248342D01*
X121152428Y-117248343D01*
X121258738Y-117284839D01*
X121365365Y-117321444D01*
X121587431Y-117358500D01*
X121587435Y-117358500D01*
X121812565Y-117358500D01*
X121812569Y-117358500D01*
X122034635Y-117321444D01*
X122247574Y-117248342D01*
X122445576Y-117141189D01*
X122623240Y-117002906D01*
X122775722Y-116837268D01*
X122864518Y-116701354D01*
X122918520Y-116655268D01*
X122988868Y-116645692D01*
X123053225Y-116675669D01*
X123075480Y-116701353D01*
X123079532Y-116707554D01*
X123164275Y-116837265D01*
X123164279Y-116837270D01*
X123232511Y-116911388D01*
X123311052Y-116996706D01*
X123316762Y-117002908D01*
X123317267Y-117003301D01*
X123494424Y-117141189D01*
X123692426Y-117248342D01*
X123692427Y-117248342D01*
X123692428Y-117248343D01*
X123798738Y-117284839D01*
X123905365Y-117321444D01*
X124127431Y-117358500D01*
X124127435Y-117358500D01*
X124352565Y-117358500D01*
X124352569Y-117358500D01*
X124574635Y-117321444D01*
X124787574Y-117248342D01*
X124985576Y-117141189D01*
X125163240Y-117002906D01*
X125315722Y-116837268D01*
X125404518Y-116701354D01*
X125458520Y-116655268D01*
X125528868Y-116645692D01*
X125593225Y-116675669D01*
X125615480Y-116701353D01*
X125619532Y-116707554D01*
X125704275Y-116837265D01*
X125704279Y-116837270D01*
X125772511Y-116911388D01*
X125851052Y-116996706D01*
X125856762Y-117002908D01*
X125857267Y-117003301D01*
X126034424Y-117141189D01*
X126232426Y-117248342D01*
X126232427Y-117248342D01*
X126232428Y-117248343D01*
X126338738Y-117284839D01*
X126445365Y-117321444D01*
X126667431Y-117358500D01*
X126667435Y-117358500D01*
X126892565Y-117358500D01*
X126892569Y-117358500D01*
X127114635Y-117321444D01*
X127327574Y-117248342D01*
X127525576Y-117141189D01*
X127703240Y-117002906D01*
X127855722Y-116837268D01*
X127944518Y-116701354D01*
X127998520Y-116655268D01*
X128068868Y-116645692D01*
X128133225Y-116675669D01*
X128155480Y-116701353D01*
X128159532Y-116707554D01*
X128244275Y-116837265D01*
X128244279Y-116837270D01*
X128312511Y-116911388D01*
X128391052Y-116996706D01*
X128396762Y-117002908D01*
X128397267Y-117003301D01*
X128574424Y-117141189D01*
X128772426Y-117248342D01*
X128772427Y-117248342D01*
X128772428Y-117248343D01*
X128878738Y-117284839D01*
X128985365Y-117321444D01*
X129207431Y-117358500D01*
X129207435Y-117358500D01*
X129432565Y-117358500D01*
X129432569Y-117358500D01*
X129654635Y-117321444D01*
X129867574Y-117248342D01*
X130065576Y-117141189D01*
X130243240Y-117002906D01*
X130395722Y-116837268D01*
X130484518Y-116701354D01*
X130538520Y-116655268D01*
X130608868Y-116645692D01*
X130673225Y-116675669D01*
X130695480Y-116701353D01*
X130699532Y-116707554D01*
X130784275Y-116837265D01*
X130784279Y-116837270D01*
X130852511Y-116911388D01*
X130931052Y-116996706D01*
X130936762Y-117002908D01*
X130937267Y-117003301D01*
X131114424Y-117141189D01*
X131312426Y-117248342D01*
X131312427Y-117248342D01*
X131312428Y-117248343D01*
X131418738Y-117284839D01*
X131525365Y-117321444D01*
X131747431Y-117358500D01*
X131747435Y-117358500D01*
X131972565Y-117358500D01*
X131972569Y-117358500D01*
X132194635Y-117321444D01*
X132407574Y-117248342D01*
X132605576Y-117141189D01*
X132783240Y-117002906D01*
X132935722Y-116837268D01*
X133024518Y-116701354D01*
X133078520Y-116655268D01*
X133148868Y-116645692D01*
X133213225Y-116675669D01*
X133235480Y-116701353D01*
X133239532Y-116707554D01*
X133324275Y-116837265D01*
X133324279Y-116837270D01*
X133392511Y-116911388D01*
X133471052Y-116996706D01*
X133476762Y-117002908D01*
X133477267Y-117003301D01*
X133654424Y-117141189D01*
X133852426Y-117248342D01*
X133852427Y-117248342D01*
X133852428Y-117248343D01*
X133958738Y-117284839D01*
X134065365Y-117321444D01*
X134287431Y-117358500D01*
X134287435Y-117358500D01*
X134512565Y-117358500D01*
X134512569Y-117358500D01*
X134734635Y-117321444D01*
X134947574Y-117248342D01*
X135145576Y-117141189D01*
X135323240Y-117002906D01*
X135475722Y-116837268D01*
X135564518Y-116701354D01*
X135618520Y-116655268D01*
X135688868Y-116645692D01*
X135753225Y-116675669D01*
X135775480Y-116701353D01*
X135779532Y-116707554D01*
X135864275Y-116837265D01*
X135864279Y-116837270D01*
X135932511Y-116911388D01*
X136011052Y-116996706D01*
X136016762Y-117002908D01*
X136017267Y-117003301D01*
X136194424Y-117141189D01*
X136392426Y-117248342D01*
X136392427Y-117248342D01*
X136392428Y-117248343D01*
X136498738Y-117284839D01*
X136605365Y-117321444D01*
X136827431Y-117358500D01*
X136827435Y-117358500D01*
X137052565Y-117358500D01*
X137052569Y-117358500D01*
X137274635Y-117321444D01*
X137487574Y-117248342D01*
X137685576Y-117141189D01*
X137863240Y-117002906D01*
X138015722Y-116837268D01*
X138104518Y-116701354D01*
X138158520Y-116655268D01*
X138228868Y-116645692D01*
X138293225Y-116675669D01*
X138315480Y-116701353D01*
X138319532Y-116707554D01*
X138404275Y-116837265D01*
X138404279Y-116837270D01*
X138472511Y-116911388D01*
X138551052Y-116996706D01*
X138556762Y-117002908D01*
X138557267Y-117003301D01*
X138734424Y-117141189D01*
X138932426Y-117248342D01*
X138932427Y-117248342D01*
X138932428Y-117248343D01*
X139038738Y-117284839D01*
X139145365Y-117321444D01*
X139367431Y-117358500D01*
X139367435Y-117358500D01*
X139592565Y-117358500D01*
X139592569Y-117358500D01*
X139814635Y-117321444D01*
X140027574Y-117248342D01*
X140225576Y-117141189D01*
X140403240Y-117002906D01*
X140555722Y-116837268D01*
X140644518Y-116701354D01*
X140698520Y-116655268D01*
X140768868Y-116645692D01*
X140833225Y-116675669D01*
X140855480Y-116701353D01*
X140859532Y-116707554D01*
X140944275Y-116837265D01*
X140944279Y-116837270D01*
X141012511Y-116911388D01*
X141091052Y-116996706D01*
X141096762Y-117002908D01*
X141097267Y-117003301D01*
X141274424Y-117141189D01*
X141472426Y-117248342D01*
X141472427Y-117248342D01*
X141472428Y-117248343D01*
X141578738Y-117284839D01*
X141685365Y-117321444D01*
X141907431Y-117358500D01*
X141907435Y-117358500D01*
X142132565Y-117358500D01*
X142132569Y-117358500D01*
X142354635Y-117321444D01*
X142567574Y-117248342D01*
X142765576Y-117141189D01*
X142943240Y-117002906D01*
X143095722Y-116837268D01*
X143184518Y-116701354D01*
X143238520Y-116655268D01*
X143308868Y-116645692D01*
X143373225Y-116675669D01*
X143395480Y-116701353D01*
X143399532Y-116707554D01*
X143484275Y-116837265D01*
X143484279Y-116837270D01*
X143552511Y-116911388D01*
X143631052Y-116996706D01*
X143636762Y-117002908D01*
X143637267Y-117003301D01*
X143814424Y-117141189D01*
X144012426Y-117248342D01*
X144012427Y-117248342D01*
X144012428Y-117248343D01*
X144118738Y-117284839D01*
X144225365Y-117321444D01*
X144447431Y-117358500D01*
X144447435Y-117358500D01*
X144672565Y-117358500D01*
X144672569Y-117358500D01*
X144894635Y-117321444D01*
X145107574Y-117248342D01*
X145305576Y-117141189D01*
X145483240Y-117002906D01*
X145635722Y-116837268D01*
X145724518Y-116701354D01*
X145778520Y-116655268D01*
X145848868Y-116645692D01*
X145913225Y-116675669D01*
X145935480Y-116701353D01*
X145939532Y-116707554D01*
X146024275Y-116837265D01*
X146024279Y-116837270D01*
X146092511Y-116911388D01*
X146171052Y-116996706D01*
X146176762Y-117002908D01*
X146177267Y-117003301D01*
X146354424Y-117141189D01*
X146552426Y-117248342D01*
X146552427Y-117248342D01*
X146552428Y-117248343D01*
X146658738Y-117284839D01*
X146765365Y-117321444D01*
X146987431Y-117358500D01*
X146987435Y-117358500D01*
X147212565Y-117358500D01*
X147212569Y-117358500D01*
X147434635Y-117321444D01*
X147647574Y-117248342D01*
X147845576Y-117141189D01*
X148023240Y-117002906D01*
X148175722Y-116837268D01*
X148298860Y-116648791D01*
X148389296Y-116442616D01*
X148444564Y-116224368D01*
X148463156Y-116000000D01*
X149486835Y-116000000D01*
X149505465Y-116236710D01*
X149560894Y-116467592D01*
X149638632Y-116655268D01*
X149651760Y-116686963D01*
X149766310Y-116873891D01*
X149775825Y-116889417D01*
X149775826Y-116889419D01*
X149930030Y-117069969D01*
X150097804Y-117213261D01*
X150110584Y-117224176D01*
X150313037Y-117348240D01*
X150532406Y-117439105D01*
X150763289Y-117494535D01*
X151000000Y-117513165D01*
X151236711Y-117494535D01*
X151467594Y-117439105D01*
X151686963Y-117348240D01*
X151889416Y-117224176D01*
X152069969Y-117069969D01*
X152224176Y-116889416D01*
X152348240Y-116686963D01*
X152439105Y-116467594D01*
X152494535Y-116236711D01*
X152513165Y-116000000D01*
X153987337Y-116000000D01*
X154005960Y-116236632D01*
X154061371Y-116467437D01*
X154152208Y-116686738D01*
X154266896Y-116873890D01*
X154266897Y-116873890D01*
X154975016Y-116165771D01*
X154987482Y-116212292D01*
X155059890Y-116337708D01*
X155162292Y-116440110D01*
X155287708Y-116512518D01*
X155334226Y-116524982D01*
X154626107Y-117233101D01*
X154626108Y-117233102D01*
X154813261Y-117347791D01*
X155032562Y-117438628D01*
X155263367Y-117494039D01*
X155500000Y-117512662D01*
X155736632Y-117494039D01*
X155967437Y-117438628D01*
X156186738Y-117347791D01*
X156373890Y-117233102D01*
X156373891Y-117233102D01*
X155665772Y-116524982D01*
X155712292Y-116512518D01*
X155837708Y-116440110D01*
X155940110Y-116337708D01*
X156012518Y-116212292D01*
X156024983Y-116165772D01*
X156733102Y-116873891D01*
X156733102Y-116873890D01*
X156847791Y-116686738D01*
X156938628Y-116467437D01*
X156994039Y-116236632D01*
X157012662Y-116000000D01*
X162137157Y-116000000D01*
X162156514Y-116332345D01*
X162156515Y-116332354D01*
X162214325Y-116660215D01*
X162214325Y-116660216D01*
X162309809Y-116979152D01*
X162309808Y-116979152D01*
X162441668Y-117284839D01*
X162441671Y-117284844D01*
X162608123Y-117573146D01*
X162608133Y-117573162D01*
X162804227Y-117836562D01*
X163882348Y-116758441D01*
X163970278Y-116879466D01*
X164120534Y-117029722D01*
X164241557Y-117117650D01*
X163166686Y-118192522D01*
X163290432Y-118296355D01*
X163290433Y-118296356D01*
X163568570Y-118479290D01*
X163866090Y-118628710D01*
X164178924Y-118742572D01*
X164178927Y-118742573D01*
X164502867Y-118819348D01*
X164502877Y-118819350D01*
X164833537Y-118858000D01*
X165166463Y-118858000D01*
X165497122Y-118819350D01*
X165497132Y-118819348D01*
X165821072Y-118742573D01*
X165821075Y-118742572D01*
X166133909Y-118628710D01*
X166431429Y-118479290D01*
X166709566Y-118296356D01*
X166833312Y-118192522D01*
X166833312Y-118192521D01*
X165758441Y-117117650D01*
X165879466Y-117029722D01*
X166029722Y-116879466D01*
X166117650Y-116758441D01*
X167195771Y-117836562D01*
X167195772Y-117836562D01*
X167391859Y-117573173D01*
X167391876Y-117573146D01*
X167558328Y-117284844D01*
X167558331Y-117284839D01*
X167690190Y-116979152D01*
X167785674Y-116660216D01*
X167785674Y-116660215D01*
X167843484Y-116332354D01*
X167843485Y-116332345D01*
X167862842Y-116000000D01*
X167843485Y-115667654D01*
X167843484Y-115667645D01*
X167785674Y-115339784D01*
X167785674Y-115339783D01*
X167690190Y-115020847D01*
X167690191Y-115020847D01*
X167558331Y-114715160D01*
X167558328Y-114715155D01*
X167391876Y-114426853D01*
X167391858Y-114426826D01*
X167195771Y-114163436D01*
X166117650Y-115241557D01*
X166029722Y-115120534D01*
X165879466Y-114970278D01*
X165758441Y-114882348D01*
X166833312Y-113807477D01*
X166833312Y-113807476D01*
X166709567Y-113703644D01*
X166709566Y-113703643D01*
X166431429Y-113520709D01*
X166133909Y-113371289D01*
X165821075Y-113257427D01*
X165821072Y-113257426D01*
X165497132Y-113180651D01*
X165497122Y-113180649D01*
X165166463Y-113142000D01*
X164833537Y-113142000D01*
X164502877Y-113180649D01*
X164502867Y-113180651D01*
X164178927Y-113257426D01*
X164178924Y-113257427D01*
X163866090Y-113371289D01*
X163568570Y-113520709D01*
X163290437Y-113703641D01*
X163290427Y-113703648D01*
X163166687Y-113807477D01*
X163166687Y-113807478D01*
X164241558Y-114882349D01*
X164120534Y-114970278D01*
X163970278Y-115120534D01*
X163882349Y-115241558D01*
X162804227Y-114163436D01*
X162608133Y-114426837D01*
X162608123Y-114426853D01*
X162441671Y-114715155D01*
X162441668Y-114715160D01*
X162309809Y-115020847D01*
X162214325Y-115339783D01*
X162214325Y-115339784D01*
X162156515Y-115667645D01*
X162156514Y-115667654D01*
X162137157Y-116000000D01*
X157012662Y-116000000D01*
X156994039Y-115763367D01*
X156938628Y-115532562D01*
X156847791Y-115313261D01*
X156733102Y-115126108D01*
X156733101Y-115126107D01*
X156024982Y-115834226D01*
X156012518Y-115787708D01*
X155940110Y-115662292D01*
X155837708Y-115559890D01*
X155712292Y-115487482D01*
X155665771Y-115475016D01*
X156373890Y-114766897D01*
X156373890Y-114766896D01*
X156186738Y-114652208D01*
X155967437Y-114561371D01*
X155736632Y-114505960D01*
X155500000Y-114487337D01*
X155263367Y-114505960D01*
X155032562Y-114561371D01*
X154813266Y-114652206D01*
X154626108Y-114766897D01*
X154626108Y-114766898D01*
X155334227Y-115475017D01*
X155287708Y-115487482D01*
X155162292Y-115559890D01*
X155059890Y-115662292D01*
X154987482Y-115787708D01*
X154975017Y-115834227D01*
X154266898Y-115126108D01*
X154266897Y-115126108D01*
X154152206Y-115313266D01*
X154061371Y-115532562D01*
X154005960Y-115763367D01*
X153987337Y-116000000D01*
X152513165Y-116000000D01*
X152494535Y-115763289D01*
X152439105Y-115532406D01*
X152348240Y-115313037D01*
X152224176Y-115110584D01*
X152216300Y-115101362D01*
X152069969Y-114930030D01*
X151889419Y-114775826D01*
X151889417Y-114775825D01*
X151889416Y-114775824D01*
X151686963Y-114651760D01*
X151677908Y-114648009D01*
X151467592Y-114560894D01*
X151309651Y-114522976D01*
X151236711Y-114505465D01*
X151000000Y-114486835D01*
X150763289Y-114505465D01*
X150532407Y-114560894D01*
X150313038Y-114651759D01*
X150110582Y-114775825D01*
X150110580Y-114775826D01*
X149930030Y-114930030D01*
X149775826Y-115110580D01*
X149775825Y-115110582D01*
X149651759Y-115313038D01*
X149560894Y-115532407D01*
X149505465Y-115763289D01*
X149486835Y-116000000D01*
X148463156Y-116000000D01*
X148444564Y-115775632D01*
X148389296Y-115557384D01*
X148298860Y-115351209D01*
X148281500Y-115324637D01*
X148175724Y-115162734D01*
X148175720Y-115162729D01*
X148023237Y-114997091D01*
X147903367Y-114903792D01*
X147845576Y-114858811D01*
X147647574Y-114751658D01*
X147647572Y-114751657D01*
X147647571Y-114751656D01*
X147434639Y-114678557D01*
X147434630Y-114678555D01*
X147390476Y-114671187D01*
X147212569Y-114641500D01*
X146987431Y-114641500D01*
X146839211Y-114666233D01*
X146765369Y-114678555D01*
X146765360Y-114678557D01*
X146552428Y-114751656D01*
X146552426Y-114751658D01*
X146354426Y-114858810D01*
X146354424Y-114858811D01*
X146176762Y-114997091D01*
X146024279Y-115162729D01*
X145935483Y-115298643D01*
X145881479Y-115344731D01*
X145811131Y-115354306D01*
X145746774Y-115324329D01*
X145724517Y-115298643D01*
X145635720Y-115162729D01*
X145483237Y-114997091D01*
X145363367Y-114903792D01*
X145305576Y-114858811D01*
X145107574Y-114751658D01*
X145107572Y-114751657D01*
X145107571Y-114751656D01*
X144894639Y-114678557D01*
X144894630Y-114678555D01*
X144850476Y-114671187D01*
X144672569Y-114641500D01*
X144447431Y-114641500D01*
X144299211Y-114666233D01*
X144225369Y-114678555D01*
X144225360Y-114678557D01*
X144012428Y-114751656D01*
X144012426Y-114751658D01*
X143814426Y-114858810D01*
X143814424Y-114858811D01*
X143636762Y-114997091D01*
X143484279Y-115162729D01*
X143395483Y-115298643D01*
X143341479Y-115344731D01*
X143271131Y-115354306D01*
X143206774Y-115324329D01*
X143184517Y-115298643D01*
X143095720Y-115162729D01*
X142943237Y-114997091D01*
X142823367Y-114903792D01*
X142765576Y-114858811D01*
X142567574Y-114751658D01*
X142567572Y-114751657D01*
X142567571Y-114751656D01*
X142354639Y-114678557D01*
X142354630Y-114678555D01*
X142310476Y-114671187D01*
X142132569Y-114641500D01*
X141907431Y-114641500D01*
X141759211Y-114666233D01*
X141685369Y-114678555D01*
X141685360Y-114678557D01*
X141472428Y-114751656D01*
X141472426Y-114751658D01*
X141274426Y-114858810D01*
X141274424Y-114858811D01*
X141096762Y-114997091D01*
X140944279Y-115162729D01*
X140855483Y-115298643D01*
X140801479Y-115344731D01*
X140731131Y-115354306D01*
X140666774Y-115324329D01*
X140644517Y-115298643D01*
X140555720Y-115162729D01*
X140403237Y-114997091D01*
X140283367Y-114903792D01*
X140225576Y-114858811D01*
X140027574Y-114751658D01*
X140027572Y-114751657D01*
X140027571Y-114751656D01*
X139814639Y-114678557D01*
X139814630Y-114678555D01*
X139770476Y-114671187D01*
X139592569Y-114641500D01*
X139367431Y-114641500D01*
X139219211Y-114666233D01*
X139145369Y-114678555D01*
X139145360Y-114678557D01*
X138932428Y-114751656D01*
X138932426Y-114751658D01*
X138734426Y-114858810D01*
X138734424Y-114858811D01*
X138556762Y-114997091D01*
X138404279Y-115162729D01*
X138315483Y-115298643D01*
X138261479Y-115344731D01*
X138191131Y-115354306D01*
X138126774Y-115324329D01*
X138104517Y-115298643D01*
X138015720Y-115162729D01*
X137863237Y-114997091D01*
X137743367Y-114903792D01*
X137685576Y-114858811D01*
X137487574Y-114751658D01*
X137487572Y-114751657D01*
X137487571Y-114751656D01*
X137274639Y-114678557D01*
X137274630Y-114678555D01*
X137230476Y-114671187D01*
X137052569Y-114641500D01*
X136827431Y-114641500D01*
X136679211Y-114666233D01*
X136605369Y-114678555D01*
X136605360Y-114678557D01*
X136392428Y-114751656D01*
X136392426Y-114751658D01*
X136194426Y-114858810D01*
X136194424Y-114858811D01*
X136016762Y-114997091D01*
X135864279Y-115162729D01*
X135775483Y-115298643D01*
X135721479Y-115344731D01*
X135651131Y-115354306D01*
X135586774Y-115324329D01*
X135564517Y-115298643D01*
X135475720Y-115162729D01*
X135323237Y-114997091D01*
X135203367Y-114903792D01*
X135145576Y-114858811D01*
X134947574Y-114751658D01*
X134947572Y-114751657D01*
X134947571Y-114751656D01*
X134734639Y-114678557D01*
X134734630Y-114678555D01*
X134690476Y-114671187D01*
X134512569Y-114641500D01*
X134287431Y-114641500D01*
X134139211Y-114666233D01*
X134065369Y-114678555D01*
X134065360Y-114678557D01*
X133852428Y-114751656D01*
X133852426Y-114751658D01*
X133654426Y-114858810D01*
X133654424Y-114858811D01*
X133476762Y-114997091D01*
X133324279Y-115162729D01*
X133235483Y-115298643D01*
X133181479Y-115344731D01*
X133111131Y-115354306D01*
X133046774Y-115324329D01*
X133024517Y-115298643D01*
X132935720Y-115162729D01*
X132783237Y-114997091D01*
X132663367Y-114903792D01*
X132605576Y-114858811D01*
X132407574Y-114751658D01*
X132407572Y-114751657D01*
X132407571Y-114751656D01*
X132194639Y-114678557D01*
X132194630Y-114678555D01*
X132150476Y-114671187D01*
X131972569Y-114641500D01*
X131747431Y-114641500D01*
X131599211Y-114666233D01*
X131525369Y-114678555D01*
X131525360Y-114678557D01*
X131312428Y-114751656D01*
X131312426Y-114751658D01*
X131114426Y-114858810D01*
X131114424Y-114858811D01*
X130936762Y-114997091D01*
X130784279Y-115162729D01*
X130695483Y-115298643D01*
X130641479Y-115344731D01*
X130571131Y-115354306D01*
X130506774Y-115324329D01*
X130484517Y-115298643D01*
X130395720Y-115162729D01*
X130243237Y-114997091D01*
X130123367Y-114903792D01*
X130065576Y-114858811D01*
X129867574Y-114751658D01*
X129867572Y-114751657D01*
X129867571Y-114751656D01*
X129654639Y-114678557D01*
X129654630Y-114678555D01*
X129610476Y-114671187D01*
X129432569Y-114641500D01*
X129207431Y-114641500D01*
X129059211Y-114666233D01*
X128985369Y-114678555D01*
X128985360Y-114678557D01*
X128772428Y-114751656D01*
X128772426Y-114751658D01*
X128574426Y-114858810D01*
X128574424Y-114858811D01*
X128396762Y-114997091D01*
X128244279Y-115162729D01*
X128155483Y-115298643D01*
X128101479Y-115344731D01*
X128031131Y-115354306D01*
X127966774Y-115324329D01*
X127944517Y-115298643D01*
X127855720Y-115162729D01*
X127703237Y-114997091D01*
X127583367Y-114903792D01*
X127525576Y-114858811D01*
X127327574Y-114751658D01*
X127327572Y-114751657D01*
X127327571Y-114751656D01*
X127114639Y-114678557D01*
X127114630Y-114678555D01*
X127070476Y-114671187D01*
X126892569Y-114641500D01*
X126667431Y-114641500D01*
X126519211Y-114666233D01*
X126445369Y-114678555D01*
X126445360Y-114678557D01*
X126232428Y-114751656D01*
X126232426Y-114751658D01*
X126034426Y-114858810D01*
X126034424Y-114858811D01*
X125856762Y-114997091D01*
X125704279Y-115162729D01*
X125615483Y-115298643D01*
X125561479Y-115344731D01*
X125491131Y-115354306D01*
X125426774Y-115324329D01*
X125404517Y-115298643D01*
X125315720Y-115162729D01*
X125163237Y-114997091D01*
X125043367Y-114903792D01*
X124985576Y-114858811D01*
X124787574Y-114751658D01*
X124787572Y-114751657D01*
X124787571Y-114751656D01*
X124574639Y-114678557D01*
X124574630Y-114678555D01*
X124530476Y-114671187D01*
X124352569Y-114641500D01*
X124127431Y-114641500D01*
X123979211Y-114666233D01*
X123905369Y-114678555D01*
X123905360Y-114678557D01*
X123692428Y-114751656D01*
X123692426Y-114751658D01*
X123494426Y-114858810D01*
X123494424Y-114858811D01*
X123316762Y-114997091D01*
X123164279Y-115162729D01*
X123075483Y-115298643D01*
X123021479Y-115344731D01*
X122951131Y-115354306D01*
X122886774Y-115324329D01*
X122864517Y-115298643D01*
X122775720Y-115162729D01*
X122623237Y-114997091D01*
X122503367Y-114903792D01*
X122445576Y-114858811D01*
X122247574Y-114751658D01*
X122247572Y-114751657D01*
X122247571Y-114751656D01*
X122034639Y-114678557D01*
X122034630Y-114678555D01*
X121990476Y-114671187D01*
X121812569Y-114641500D01*
X121587431Y-114641500D01*
X121439211Y-114666233D01*
X121365369Y-114678555D01*
X121365360Y-114678557D01*
X121152428Y-114751656D01*
X121152426Y-114751658D01*
X120954426Y-114858810D01*
X120954424Y-114858811D01*
X120776762Y-114997091D01*
X120624279Y-115162729D01*
X120535483Y-115298643D01*
X120481479Y-115344731D01*
X120411131Y-115354306D01*
X120346774Y-115324329D01*
X120324517Y-115298643D01*
X120235720Y-115162729D01*
X120083237Y-114997091D01*
X119963367Y-114903792D01*
X119905576Y-114858811D01*
X119707574Y-114751658D01*
X119707572Y-114751657D01*
X119707571Y-114751656D01*
X119494639Y-114678557D01*
X119494630Y-114678555D01*
X119450476Y-114671187D01*
X119272569Y-114641500D01*
X119047431Y-114641500D01*
X118899211Y-114666233D01*
X118825369Y-114678555D01*
X118825360Y-114678557D01*
X118612428Y-114751656D01*
X118612426Y-114751658D01*
X118414426Y-114858810D01*
X118414424Y-114858811D01*
X118236762Y-114997091D01*
X118084279Y-115162729D01*
X117995483Y-115298643D01*
X117941479Y-115344731D01*
X117871131Y-115354306D01*
X117806774Y-115324329D01*
X117784517Y-115298643D01*
X117695720Y-115162729D01*
X117543237Y-114997091D01*
X117423367Y-114903792D01*
X117365576Y-114858811D01*
X117167574Y-114751658D01*
X117167572Y-114751657D01*
X117167571Y-114751656D01*
X116954639Y-114678557D01*
X116954630Y-114678555D01*
X116910476Y-114671187D01*
X116732569Y-114641500D01*
X116507431Y-114641500D01*
X116359211Y-114666233D01*
X116285369Y-114678555D01*
X116285360Y-114678557D01*
X116072428Y-114751656D01*
X116072426Y-114751658D01*
X115874426Y-114858810D01*
X115874424Y-114858811D01*
X115696762Y-114997091D01*
X115544279Y-115162729D01*
X115455483Y-115298643D01*
X115401479Y-115344731D01*
X115331131Y-115354306D01*
X115266774Y-115324329D01*
X115244517Y-115298643D01*
X115155720Y-115162729D01*
X115003237Y-114997091D01*
X114883367Y-114903792D01*
X114825576Y-114858811D01*
X114627574Y-114751658D01*
X114627572Y-114751657D01*
X114627571Y-114751656D01*
X114414639Y-114678557D01*
X114414630Y-114678555D01*
X114370476Y-114671187D01*
X114192569Y-114641500D01*
X113967431Y-114641500D01*
X113819211Y-114666233D01*
X113745369Y-114678555D01*
X113745360Y-114678557D01*
X113532428Y-114751656D01*
X113532426Y-114751658D01*
X113334426Y-114858810D01*
X113334424Y-114858811D01*
X113156762Y-114997091D01*
X113004279Y-115162729D01*
X112915483Y-115298643D01*
X112861479Y-115344731D01*
X112791131Y-115354306D01*
X112726774Y-115324329D01*
X112704517Y-115298643D01*
X112615720Y-115162729D01*
X112463237Y-114997091D01*
X112343367Y-114903792D01*
X112285576Y-114858811D01*
X112087574Y-114751658D01*
X112087572Y-114751657D01*
X112087571Y-114751656D01*
X111874639Y-114678557D01*
X111874630Y-114678555D01*
X111830476Y-114671187D01*
X111652569Y-114641500D01*
X111427431Y-114641500D01*
X111279211Y-114666233D01*
X111205369Y-114678555D01*
X111205360Y-114678557D01*
X110992428Y-114751656D01*
X110992426Y-114751658D01*
X110794426Y-114858810D01*
X110794424Y-114858811D01*
X110616762Y-114997091D01*
X110555754Y-115063363D01*
X110494901Y-115099933D01*
X110423936Y-115097798D01*
X110365391Y-115057636D01*
X110344999Y-115022057D01*
X110300889Y-114903797D01*
X110300887Y-114903792D01*
X110213261Y-114786738D01*
X110096207Y-114699112D01*
X110096202Y-114699110D01*
X109959204Y-114648011D01*
X109959196Y-114648009D01*
X109898649Y-114641500D01*
X109898638Y-114641500D01*
X108101362Y-114641500D01*
X108101350Y-114641500D01*
X108040803Y-114648009D01*
X108040795Y-114648011D01*
X107903797Y-114699110D01*
X107903792Y-114699112D01*
X107786738Y-114786738D01*
X107699112Y-114903792D01*
X107699110Y-114903797D01*
X107648011Y-115040795D01*
X107648009Y-115040803D01*
X107641500Y-115101350D01*
X106714291Y-115101350D01*
X106690190Y-115020847D01*
X106690191Y-115020847D01*
X106558331Y-114715160D01*
X106558328Y-114715155D01*
X106391876Y-114426853D01*
X106391858Y-114426826D01*
X106195771Y-114163436D01*
X105117650Y-115241557D01*
X105029722Y-115120534D01*
X104879466Y-114970278D01*
X104758441Y-114882348D01*
X105833312Y-113807477D01*
X105833312Y-113807476D01*
X105709567Y-113703644D01*
X105709566Y-113703643D01*
X105431429Y-113520709D01*
X105133909Y-113371289D01*
X104821075Y-113257427D01*
X104821072Y-113257426D01*
X104497132Y-113180651D01*
X104497122Y-113180649D01*
X104166463Y-113142000D01*
X103833537Y-113142000D01*
X103502877Y-113180649D01*
X103502867Y-113180651D01*
X103178927Y-113257426D01*
X103178924Y-113257427D01*
X102866090Y-113371289D01*
X102568570Y-113520709D01*
X102290437Y-113703641D01*
X102290427Y-113703648D01*
X102166687Y-113807477D01*
X102166687Y-113807478D01*
X103241558Y-114882349D01*
X103120534Y-114970278D01*
X102970278Y-115120534D01*
X102882349Y-115241558D01*
X101804227Y-114163436D01*
X101608133Y-114426837D01*
X101608123Y-114426853D01*
X101441671Y-114715155D01*
X101441668Y-114715160D01*
X101309809Y-115020847D01*
X101214325Y-115339783D01*
X101214325Y-115339784D01*
X101156515Y-115667645D01*
X101156514Y-115667654D01*
X101137157Y-116000000D01*
X100284000Y-116000000D01*
X100284000Y-111000000D01*
X139086496Y-111000000D01*
X139106457Y-111189927D01*
X139136526Y-111282470D01*
X139165473Y-111371556D01*
X139165476Y-111371561D01*
X139260958Y-111536941D01*
X139260965Y-111536951D01*
X139388744Y-111678864D01*
X139388747Y-111678866D01*
X139543248Y-111791118D01*
X139717712Y-111868794D01*
X139904513Y-111908500D01*
X140095487Y-111908500D01*
X140282288Y-111868794D01*
X140456752Y-111791118D01*
X140611253Y-111678866D01*
X140739040Y-111536944D01*
X140834527Y-111371556D01*
X140893542Y-111189928D01*
X140913504Y-111000000D01*
X140893542Y-110810072D01*
X140834527Y-110628444D01*
X140739040Y-110463056D01*
X140739038Y-110463054D01*
X140739034Y-110463048D01*
X140611255Y-110321135D01*
X140456752Y-110208882D01*
X140282288Y-110131206D01*
X140095487Y-110091500D01*
X139904513Y-110091500D01*
X139717711Y-110131206D01*
X139543247Y-110208882D01*
X139388744Y-110321135D01*
X139260965Y-110463048D01*
X139260958Y-110463058D01*
X139165476Y-110628438D01*
X139165473Y-110628445D01*
X139106457Y-110810072D01*
X139086496Y-111000000D01*
X100284000Y-111000000D01*
X100284000Y-109500000D01*
X149486835Y-109500000D01*
X149505465Y-109736710D01*
X149560894Y-109967592D01*
X149560895Y-109967594D01*
X149651760Y-110186963D01*
X149766310Y-110373891D01*
X149775825Y-110389417D01*
X149775826Y-110389419D01*
X149930030Y-110569969D01*
X150110580Y-110724173D01*
X150110584Y-110724176D01*
X150313037Y-110848240D01*
X150532406Y-110939105D01*
X150763289Y-110994535D01*
X151000000Y-111013165D01*
X151236711Y-110994535D01*
X151467594Y-110939105D01*
X151686963Y-110848240D01*
X151889416Y-110724176D01*
X152069969Y-110569969D01*
X152224176Y-110389416D01*
X152348240Y-110186963D01*
X152439105Y-109967594D01*
X152494535Y-109736711D01*
X152513165Y-109500000D01*
X153987337Y-109500000D01*
X154005960Y-109736632D01*
X154061371Y-109967437D01*
X154152208Y-110186738D01*
X154266896Y-110373890D01*
X154266897Y-110373890D01*
X154975016Y-109665771D01*
X154987482Y-109712292D01*
X155059890Y-109837708D01*
X155162292Y-109940110D01*
X155287708Y-110012518D01*
X155334226Y-110024982D01*
X154626107Y-110733101D01*
X154626108Y-110733102D01*
X154813261Y-110847791D01*
X155032562Y-110938628D01*
X155263367Y-110994039D01*
X155500000Y-111012662D01*
X155736632Y-110994039D01*
X155967437Y-110938628D01*
X156186738Y-110847791D01*
X156373890Y-110733102D01*
X156373891Y-110733102D01*
X155665772Y-110024982D01*
X155712292Y-110012518D01*
X155837708Y-109940110D01*
X155940110Y-109837708D01*
X156012518Y-109712292D01*
X156024982Y-109665772D01*
X156733102Y-110373891D01*
X156733102Y-110373890D01*
X156847791Y-110186738D01*
X156938628Y-109967437D01*
X156994039Y-109736632D01*
X157012662Y-109500000D01*
X156994039Y-109263367D01*
X156938628Y-109032562D01*
X156847791Y-108813261D01*
X156733102Y-108626108D01*
X156733101Y-108626107D01*
X156024982Y-109334225D01*
X156012518Y-109287708D01*
X155940110Y-109162292D01*
X155837708Y-109059890D01*
X155712292Y-108987482D01*
X155665771Y-108975016D01*
X156373890Y-108266897D01*
X156373890Y-108266896D01*
X156186738Y-108152208D01*
X155967437Y-108061371D01*
X155736632Y-108005960D01*
X155660902Y-108000000D01*
X165086496Y-108000000D01*
X165106457Y-108189927D01*
X165134368Y-108275825D01*
X165165473Y-108371556D01*
X165165476Y-108371561D01*
X165260958Y-108536941D01*
X165260965Y-108536951D01*
X165388744Y-108678864D01*
X165388747Y-108678866D01*
X165543248Y-108791118D01*
X165717712Y-108868794D01*
X165904513Y-108908500D01*
X166095487Y-108908500D01*
X166282288Y-108868794D01*
X166456752Y-108791118D01*
X166611253Y-108678866D01*
X166611255Y-108678864D01*
X166739034Y-108536951D01*
X166739035Y-108536949D01*
X166739040Y-108536944D01*
X166834527Y-108371556D01*
X166893542Y-108189928D01*
X166913504Y-108000000D01*
X166893542Y-107810072D01*
X166834527Y-107628444D01*
X166739040Y-107463056D01*
X166739038Y-107463054D01*
X166739034Y-107463048D01*
X166611255Y-107321135D01*
X166456752Y-107208882D01*
X166282288Y-107131206D01*
X166095487Y-107091500D01*
X165904513Y-107091500D01*
X165717711Y-107131206D01*
X165543247Y-107208882D01*
X165388744Y-107321135D01*
X165260965Y-107463048D01*
X165260958Y-107463058D01*
X165165476Y-107628438D01*
X165165473Y-107628445D01*
X165106457Y-107810072D01*
X165086496Y-108000000D01*
X155660902Y-108000000D01*
X155500000Y-107987337D01*
X155263367Y-108005960D01*
X155032562Y-108061371D01*
X154813266Y-108152206D01*
X154626108Y-108266897D01*
X154626108Y-108266898D01*
X155334227Y-108975017D01*
X155287708Y-108987482D01*
X155162292Y-109059890D01*
X155059890Y-109162292D01*
X154987482Y-109287708D01*
X154975017Y-109334227D01*
X154266898Y-108626108D01*
X154266897Y-108626108D01*
X154152206Y-108813266D01*
X154061371Y-109032562D01*
X154005960Y-109263367D01*
X153987337Y-109500000D01*
X152513165Y-109500000D01*
X152494535Y-109263289D01*
X152439105Y-109032406D01*
X152348240Y-108813037D01*
X152224176Y-108610584D01*
X152224173Y-108610580D01*
X152069969Y-108430030D01*
X151889419Y-108275826D01*
X151889417Y-108275825D01*
X151889416Y-108275824D01*
X151686963Y-108151760D01*
X151468744Y-108061371D01*
X151467592Y-108060894D01*
X151309651Y-108022976D01*
X151236711Y-108005465D01*
X151000000Y-107986835D01*
X150763289Y-108005465D01*
X150532407Y-108060894D01*
X150313038Y-108151759D01*
X150110582Y-108275825D01*
X150110580Y-108275826D01*
X149930030Y-108430030D01*
X149775826Y-108610580D01*
X149775825Y-108610582D01*
X149651759Y-108813038D01*
X149560894Y-109032407D01*
X149505465Y-109263289D01*
X149486835Y-109500000D01*
X100284000Y-109500000D01*
X100284000Y-105000000D01*
X144170496Y-105000000D01*
X144190457Y-105189927D01*
X144220526Y-105282470D01*
X144249473Y-105371556D01*
X144249476Y-105371561D01*
X144344958Y-105536941D01*
X144344965Y-105536951D01*
X144472744Y-105678864D01*
X144472747Y-105678866D01*
X144627248Y-105791118D01*
X144801712Y-105868794D01*
X144988513Y-105908500D01*
X145179487Y-105908500D01*
X145366288Y-105868794D01*
X145540752Y-105791118D01*
X145540752Y-105791117D01*
X145611118Y-105781684D01*
X145643247Y-105791117D01*
X145643248Y-105791118D01*
X145817712Y-105868794D01*
X146004513Y-105908500D01*
X146195487Y-105908500D01*
X146382288Y-105868794D01*
X146556752Y-105791118D01*
X146711253Y-105678866D01*
X146839040Y-105536944D01*
X146934527Y-105371556D01*
X146993542Y-105189928D01*
X147013504Y-105000000D01*
X146993542Y-104810072D01*
X146934527Y-104628444D01*
X146839040Y-104463056D01*
X146839038Y-104463054D01*
X146839034Y-104463048D01*
X146711255Y-104321135D01*
X146556752Y-104208882D01*
X146382288Y-104131206D01*
X146195487Y-104091500D01*
X146004513Y-104091500D01*
X145817709Y-104131206D01*
X145643248Y-104208881D01*
X145572881Y-104218315D01*
X145540752Y-104208881D01*
X145366290Y-104131206D01*
X145179487Y-104091500D01*
X144988513Y-104091500D01*
X144801711Y-104131206D01*
X144627247Y-104208882D01*
X144472744Y-104321135D01*
X144344965Y-104463048D01*
X144344958Y-104463058D01*
X144249476Y-104628438D01*
X144249473Y-104628445D01*
X144190457Y-104810072D01*
X144170496Y-105000000D01*
X100284000Y-105000000D01*
X100284000Y-103322000D01*
X103430496Y-103322000D01*
X103450457Y-103511927D01*
X103471276Y-103576000D01*
X103509473Y-103693556D01*
X103509476Y-103693561D01*
X103604958Y-103858941D01*
X103604965Y-103858951D01*
X103732744Y-104000864D01*
X103732747Y-104000866D01*
X103887248Y-104113118D01*
X104061712Y-104190794D01*
X104248513Y-104230500D01*
X104439487Y-104230500D01*
X104626288Y-104190794D01*
X104800752Y-104113118D01*
X104955253Y-104000866D01*
X105003249Y-103947561D01*
X105083034Y-103858951D01*
X105083035Y-103858949D01*
X105083040Y-103858944D01*
X105178527Y-103693556D01*
X105237542Y-103511928D01*
X105257504Y-103322000D01*
X105237542Y-103132072D01*
X105178527Y-102950444D01*
X105083040Y-102785056D01*
X105083038Y-102785054D01*
X105083034Y-102785048D01*
X104955255Y-102643135D01*
X104800752Y-102530882D01*
X104626288Y-102453206D01*
X104439487Y-102413500D01*
X104248513Y-102413500D01*
X104061711Y-102453206D01*
X103887247Y-102530882D01*
X103732744Y-102643135D01*
X103604965Y-102785048D01*
X103604958Y-102785058D01*
X103509476Y-102950438D01*
X103509473Y-102950445D01*
X103450457Y-103132072D01*
X103430496Y-103322000D01*
X100284000Y-103322000D01*
X100284000Y-101036000D01*
X129846496Y-101036000D01*
X129866457Y-101225927D01*
X129877815Y-101260882D01*
X129925473Y-101407556D01*
X129925476Y-101407561D01*
X130020958Y-101572941D01*
X130020965Y-101572951D01*
X130148744Y-101714864D01*
X130148747Y-101714866D01*
X130303248Y-101827118D01*
X130477712Y-101904794D01*
X130664513Y-101944500D01*
X130855487Y-101944500D01*
X131042288Y-101904794D01*
X131216752Y-101827118D01*
X131371253Y-101714866D01*
X131482612Y-101591189D01*
X131499034Y-101572951D01*
X131499035Y-101572949D01*
X131499040Y-101572944D01*
X131594527Y-101407556D01*
X131653542Y-101225928D01*
X131673504Y-101036000D01*
X131653542Y-100846072D01*
X131594527Y-100664444D01*
X131499040Y-100499056D01*
X131499038Y-100499054D01*
X131499034Y-100499048D01*
X131371255Y-100357135D01*
X131216752Y-100244882D01*
X131042288Y-100167206D01*
X130855487Y-100127500D01*
X130664513Y-100127500D01*
X130477711Y-100167206D01*
X130303247Y-100244882D01*
X130148744Y-100357135D01*
X130020965Y-100499048D01*
X130020958Y-100499058D01*
X129925476Y-100664438D01*
X129925473Y-100664445D01*
X129866457Y-100846072D01*
X129846496Y-101036000D01*
X100284000Y-101036000D01*
X100284000Y-100093718D01*
X127086486Y-100093718D01*
X127106447Y-100283645D01*
X127130326Y-100357134D01*
X127165463Y-100465274D01*
X127184967Y-100499056D01*
X127260948Y-100630659D01*
X127260955Y-100630669D01*
X127388734Y-100772582D01*
X127388737Y-100772584D01*
X127543238Y-100884836D01*
X127717702Y-100962512D01*
X127904503Y-101002218D01*
X128095477Y-101002218D01*
X128282278Y-100962512D01*
X128456742Y-100884836D01*
X128611243Y-100772584D01*
X128739030Y-100630662D01*
X128834517Y-100465274D01*
X128893532Y-100283646D01*
X128903724Y-100186664D01*
X128930736Y-100121009D01*
X128977787Y-100084728D01*
X129057752Y-100049126D01*
X129212253Y-99936874D01*
X129221298Y-99926829D01*
X129340034Y-99794959D01*
X129340035Y-99794957D01*
X129340040Y-99794952D01*
X129435527Y-99629564D01*
X129473726Y-99512000D01*
X136958496Y-99512000D01*
X136978457Y-99701927D01*
X137008526Y-99794470D01*
X137037473Y-99883556D01*
X137037476Y-99883561D01*
X137132958Y-100048941D01*
X137132965Y-100048951D01*
X137260744Y-100190864D01*
X137260747Y-100190866D01*
X137415248Y-100303118D01*
X137455837Y-100321189D01*
X137509933Y-100367169D01*
X137530582Y-100435096D01*
X137524421Y-100475232D01*
X137486457Y-100592071D01*
X137466496Y-100782000D01*
X137486457Y-100971927D01*
X137507276Y-101036000D01*
X137545473Y-101153556D01*
X137545476Y-101153561D01*
X137640958Y-101318941D01*
X137640965Y-101318951D01*
X137768744Y-101460864D01*
X137768747Y-101460866D01*
X137923248Y-101573118D01*
X137963837Y-101591189D01*
X138017933Y-101637169D01*
X138038582Y-101705096D01*
X138032421Y-101745232D01*
X137994457Y-101862071D01*
X137974496Y-102052000D01*
X137994457Y-102241927D01*
X138020194Y-102321134D01*
X138053473Y-102423556D01*
X138076274Y-102463048D01*
X138148958Y-102588941D01*
X138148965Y-102588951D01*
X138276744Y-102730864D01*
X138276747Y-102730866D01*
X138431248Y-102843118D01*
X138572958Y-102906211D01*
X138627053Y-102952190D01*
X138647703Y-103020117D01*
X138630828Y-103084317D01*
X138561476Y-103204438D01*
X138561473Y-103204445D01*
X138502457Y-103386072D01*
X138482496Y-103576000D01*
X138502457Y-103765927D01*
X138516801Y-103810072D01*
X138561473Y-103947556D01*
X138561476Y-103947561D01*
X138656958Y-104112941D01*
X138656965Y-104112951D01*
X138784744Y-104254864D01*
X138784747Y-104254866D01*
X138939248Y-104367118D01*
X139113712Y-104444794D01*
X139300513Y-104484500D01*
X139491487Y-104484500D01*
X139678288Y-104444794D01*
X139852752Y-104367118D01*
X140007253Y-104254866D01*
X140064945Y-104190793D01*
X140135034Y-104112951D01*
X140135035Y-104112949D01*
X140135040Y-104112944D01*
X140200248Y-104000000D01*
X155086496Y-104000000D01*
X155106457Y-104189927D01*
X155127557Y-104254864D01*
X155165473Y-104371556D01*
X155165476Y-104371561D01*
X155260958Y-104536941D01*
X155260965Y-104536951D01*
X155388744Y-104678864D01*
X155388747Y-104678866D01*
X155543248Y-104791118D01*
X155717712Y-104868794D01*
X155904513Y-104908500D01*
X156074219Y-104908500D01*
X156142340Y-104928502D01*
X156188833Y-104982158D01*
X156198937Y-105052432D01*
X156183339Y-105097499D01*
X156165474Y-105128441D01*
X156165473Y-105128445D01*
X156106457Y-105310072D01*
X156086496Y-105500000D01*
X156106457Y-105689927D01*
X156127238Y-105753883D01*
X156165473Y-105871556D01*
X156165476Y-105871561D01*
X156260958Y-106036941D01*
X156260965Y-106036951D01*
X156388744Y-106178864D01*
X156388747Y-106178866D01*
X156543248Y-106291118D01*
X156717712Y-106368794D01*
X156904513Y-106408500D01*
X157095487Y-106408500D01*
X157282288Y-106368794D01*
X157456752Y-106291118D01*
X157611253Y-106178866D01*
X157739040Y-106036944D01*
X157834527Y-105871556D01*
X157893542Y-105689928D01*
X157913504Y-105500000D01*
X157893542Y-105310072D01*
X157834527Y-105128444D01*
X157739040Y-104963056D01*
X157739038Y-104963054D01*
X157739034Y-104963048D01*
X157611255Y-104821135D01*
X157456752Y-104708882D01*
X157282288Y-104631206D01*
X157095487Y-104591500D01*
X156925781Y-104591500D01*
X156857660Y-104571498D01*
X156811167Y-104517842D01*
X156801063Y-104447568D01*
X156816661Y-104402501D01*
X156819204Y-104398095D01*
X156834527Y-104371556D01*
X156893542Y-104189928D01*
X156913504Y-104000000D01*
X156893542Y-103810072D01*
X156834527Y-103628444D01*
X156739040Y-103463056D01*
X156739038Y-103463054D01*
X156739034Y-103463048D01*
X156611255Y-103321135D01*
X156456752Y-103208882D01*
X156282288Y-103131206D01*
X156095487Y-103091500D01*
X155904513Y-103091500D01*
X155717711Y-103131206D01*
X155543247Y-103208882D01*
X155388744Y-103321135D01*
X155260965Y-103463048D01*
X155260958Y-103463058D01*
X155165476Y-103628438D01*
X155165473Y-103628445D01*
X155106457Y-103810072D01*
X155086496Y-104000000D01*
X140200248Y-104000000D01*
X140230527Y-103947556D01*
X140289542Y-103765928D01*
X140309504Y-103576000D01*
X140289542Y-103386072D01*
X140230527Y-103204444D01*
X140135040Y-103039056D01*
X140135038Y-103039054D01*
X140135034Y-103039048D01*
X140099875Y-103000000D01*
X157086496Y-103000000D01*
X157106457Y-103189927D01*
X157136526Y-103282470D01*
X157165473Y-103371556D01*
X157165476Y-103371561D01*
X157260958Y-103536941D01*
X157260965Y-103536951D01*
X157388744Y-103678864D01*
X157388747Y-103678866D01*
X157543248Y-103791118D01*
X157717712Y-103868794D01*
X157904513Y-103908500D01*
X158095487Y-103908500D01*
X158282288Y-103868794D01*
X158456752Y-103791118D01*
X158611253Y-103678866D01*
X158739040Y-103536944D01*
X158834527Y-103371556D01*
X158893542Y-103189928D01*
X158913504Y-103000000D01*
X158893542Y-102810072D01*
X158834527Y-102628444D01*
X158739040Y-102463056D01*
X158739038Y-102463054D01*
X158739034Y-102463048D01*
X158611255Y-102321135D01*
X158456752Y-102208882D01*
X158282288Y-102131206D01*
X158095487Y-102091500D01*
X157904513Y-102091500D01*
X157717711Y-102131206D01*
X157543247Y-102208882D01*
X157388744Y-102321135D01*
X157260965Y-102463048D01*
X157260958Y-102463058D01*
X157165476Y-102628438D01*
X157165473Y-102628445D01*
X157106457Y-102810072D01*
X157086496Y-103000000D01*
X140099875Y-103000000D01*
X140007255Y-102897135D01*
X139852752Y-102784882D01*
X139731429Y-102730866D01*
X139711039Y-102721787D01*
X139656946Y-102675809D01*
X139636296Y-102607882D01*
X139653169Y-102543686D01*
X139722527Y-102423556D01*
X139781542Y-102241928D01*
X139801504Y-102052000D01*
X139781542Y-101862072D01*
X139722527Y-101680444D01*
X139627040Y-101515056D01*
X139627038Y-101515054D01*
X139627034Y-101515048D01*
X139499255Y-101373135D01*
X139424663Y-101318941D01*
X139344752Y-101260882D01*
X139344748Y-101260880D01*
X139304161Y-101242809D01*
X139250066Y-101196829D01*
X139229417Y-101128901D01*
X139235577Y-101088770D01*
X139273542Y-100971928D01*
X139293504Y-100782000D01*
X139273542Y-100592072D01*
X139214527Y-100410444D01*
X139119040Y-100245056D01*
X139119038Y-100245054D01*
X139119034Y-100245048D01*
X138991255Y-100103135D01*
X138916663Y-100048941D01*
X138836752Y-99990882D01*
X138836748Y-99990880D01*
X138796161Y-99972809D01*
X138742066Y-99926829D01*
X138721417Y-99858901D01*
X138727577Y-99818770D01*
X138765542Y-99701928D01*
X138785504Y-99512000D01*
X138765542Y-99322072D01*
X138706527Y-99140444D01*
X138611040Y-98975056D01*
X138611038Y-98975054D01*
X138611034Y-98975048D01*
X138483255Y-98833135D01*
X138328752Y-98720882D01*
X138154288Y-98643206D01*
X137967487Y-98603500D01*
X137776513Y-98603500D01*
X137589711Y-98643206D01*
X137415247Y-98720882D01*
X137260744Y-98833135D01*
X137132965Y-98975048D01*
X137132958Y-98975058D01*
X137079252Y-99068080D01*
X137037473Y-99140444D01*
X137022999Y-99184986D01*
X136978457Y-99322072D01*
X136958496Y-99512000D01*
X129473726Y-99512000D01*
X129494542Y-99447936D01*
X129514504Y-99258008D01*
X129494542Y-99068080D01*
X129494540Y-99068075D01*
X129493833Y-99064749D01*
X129493983Y-99062767D01*
X129493852Y-99061512D01*
X129494081Y-99061487D01*
X129499225Y-98993958D01*
X129542034Y-98937319D01*
X129542909Y-98936675D01*
X129606177Y-98890710D01*
X129610011Y-98886452D01*
X129733958Y-98748795D01*
X129733959Y-98748793D01*
X129733964Y-98748788D01*
X129829451Y-98583400D01*
X129888466Y-98401772D01*
X129908428Y-98211844D01*
X129888466Y-98021916D01*
X129867048Y-97956000D01*
X147086496Y-97956000D01*
X147106457Y-98145927D01*
X147136526Y-98238470D01*
X147165473Y-98327556D01*
X147165476Y-98327561D01*
X147260958Y-98492941D01*
X147260965Y-98492951D01*
X147388744Y-98634864D01*
X147388747Y-98634866D01*
X147543248Y-98747118D01*
X147717712Y-98824794D01*
X147904513Y-98864500D01*
X148095487Y-98864500D01*
X148282288Y-98824794D01*
X148456752Y-98747118D01*
X148611253Y-98634866D01*
X148657595Y-98583398D01*
X148739034Y-98492951D01*
X148739035Y-98492949D01*
X148739040Y-98492944D01*
X148834527Y-98327556D01*
X148893542Y-98145928D01*
X148913504Y-97956000D01*
X148893542Y-97766072D01*
X148834527Y-97584444D01*
X148739040Y-97419056D01*
X148739038Y-97419054D01*
X148739034Y-97419048D01*
X148611255Y-97277135D01*
X148456752Y-97164882D01*
X148282288Y-97087206D01*
X148095487Y-97047500D01*
X147904513Y-97047500D01*
X147717711Y-97087206D01*
X147543247Y-97164882D01*
X147388744Y-97277135D01*
X147260965Y-97419048D01*
X147260958Y-97419058D01*
X147195186Y-97532979D01*
X147165473Y-97584444D01*
X147151808Y-97626500D01*
X147106457Y-97766072D01*
X147086496Y-97956000D01*
X129867048Y-97956000D01*
X129829451Y-97840288D01*
X129733964Y-97674900D01*
X129733962Y-97674898D01*
X129733958Y-97674892D01*
X129606179Y-97532979D01*
X129451676Y-97420726D01*
X129277212Y-97343050D01*
X129090411Y-97303344D01*
X128899437Y-97303344D01*
X128712635Y-97343050D01*
X128538171Y-97420726D01*
X128383668Y-97532979D01*
X128255889Y-97674892D01*
X128255882Y-97674902D01*
X128160400Y-97840282D01*
X128160397Y-97840289D01*
X128101381Y-98021916D01*
X128081420Y-98211844D01*
X128101382Y-98401780D01*
X128102093Y-98405123D01*
X128101941Y-98407102D01*
X128102072Y-98408340D01*
X128101845Y-98408363D01*
X128096689Y-98475914D01*
X128053871Y-98532545D01*
X128052909Y-98533251D01*
X127989742Y-98579145D01*
X127861965Y-98721056D01*
X127861958Y-98721066D01*
X127779147Y-98864500D01*
X127766473Y-98886452D01*
X127751999Y-98930994D01*
X127707457Y-99068080D01*
X127697264Y-99165061D01*
X127670250Y-99230717D01*
X127623205Y-99266995D01*
X127543238Y-99302600D01*
X127388734Y-99414853D01*
X127260955Y-99556766D01*
X127260948Y-99556776D01*
X127165466Y-99722156D01*
X127165463Y-99722163D01*
X127106447Y-99903790D01*
X127086486Y-100093718D01*
X100284000Y-100093718D01*
X100284000Y-95702000D01*
X131370496Y-95702000D01*
X131390457Y-95891927D01*
X131420526Y-95984470D01*
X131449473Y-96073556D01*
X131449473Y-96073557D01*
X131449474Y-96073558D01*
X131491876Y-96147001D01*
X131508613Y-96215996D01*
X131491876Y-96272999D01*
X131449474Y-96346441D01*
X131449473Y-96346445D01*
X131390457Y-96528072D01*
X131370496Y-96718000D01*
X131390457Y-96907927D01*
X131420526Y-97000470D01*
X131449473Y-97089556D01*
X131449476Y-97089561D01*
X131544958Y-97254941D01*
X131544965Y-97254951D01*
X131672744Y-97396864D01*
X131705587Y-97420726D01*
X131827248Y-97509118D01*
X132001712Y-97586794D01*
X132188513Y-97626500D01*
X132379487Y-97626500D01*
X132566288Y-97586794D01*
X132740752Y-97509118D01*
X132740752Y-97509117D01*
X132811118Y-97499684D01*
X132843247Y-97509117D01*
X132843248Y-97509118D01*
X133017712Y-97586794D01*
X133204513Y-97626500D01*
X133395487Y-97626500D01*
X133582288Y-97586794D01*
X133756752Y-97509118D01*
X133911253Y-97396866D01*
X133959709Y-97343050D01*
X134039034Y-97254951D01*
X134039035Y-97254949D01*
X134039040Y-97254944D01*
X134134527Y-97089556D01*
X134193542Y-96907928D01*
X134213504Y-96718000D01*
X134193542Y-96528072D01*
X134134527Y-96346444D01*
X134092123Y-96273000D01*
X134075386Y-96204006D01*
X134092124Y-96146999D01*
X134134527Y-96073556D01*
X134193542Y-95891928D01*
X134213504Y-95702000D01*
X134193542Y-95512072D01*
X134134527Y-95330444D01*
X134039040Y-95165056D01*
X134039038Y-95165054D01*
X134039034Y-95165048D01*
X133911255Y-95023135D01*
X133756752Y-94910882D01*
X133582288Y-94833206D01*
X133395487Y-94793500D01*
X133204513Y-94793500D01*
X133017709Y-94833206D01*
X132843248Y-94910881D01*
X132772881Y-94920315D01*
X132740752Y-94910881D01*
X132566290Y-94833206D01*
X132379487Y-94793500D01*
X132188513Y-94793500D01*
X132001711Y-94833206D01*
X131827247Y-94910882D01*
X131672744Y-95023135D01*
X131544965Y-95165048D01*
X131544958Y-95165058D01*
X131449476Y-95330438D01*
X131449473Y-95330445D01*
X131390457Y-95512072D01*
X131370496Y-95702000D01*
X100284000Y-95702000D01*
X100284000Y-93416000D01*
X128576496Y-93416000D01*
X128596457Y-93605927D01*
X128626526Y-93698470D01*
X128655473Y-93787556D01*
X128655476Y-93787561D01*
X128750958Y-93952941D01*
X128750965Y-93952951D01*
X128878744Y-94094864D01*
X128878747Y-94094866D01*
X129033248Y-94207118D01*
X129207712Y-94284794D01*
X129269469Y-94297920D01*
X129331941Y-94331648D01*
X129363105Y-94382230D01*
X129417473Y-94549556D01*
X129417476Y-94549561D01*
X129512958Y-94714941D01*
X129512965Y-94714951D01*
X129640744Y-94856864D01*
X129640747Y-94856866D01*
X129795248Y-94969118D01*
X129969712Y-95046794D01*
X130156513Y-95086500D01*
X130347487Y-95086500D01*
X130534288Y-95046794D01*
X130708752Y-94969118D01*
X130863253Y-94856866D01*
X130991040Y-94714944D01*
X131086527Y-94549556D01*
X131145542Y-94367928D01*
X131165504Y-94178000D01*
X131145542Y-93988072D01*
X131086527Y-93806444D01*
X130991040Y-93641056D01*
X130991038Y-93641054D01*
X130991034Y-93641048D01*
X130863255Y-93499135D01*
X130708752Y-93386882D01*
X130534288Y-93309206D01*
X130472529Y-93296078D01*
X130410057Y-93262351D01*
X130378894Y-93211768D01*
X130324528Y-93044447D01*
X130324527Y-93044445D01*
X130324527Y-93044444D01*
X130229040Y-92879056D01*
X130229038Y-92879054D01*
X130229034Y-92879048D01*
X130101255Y-92737135D01*
X129946752Y-92624882D01*
X129772288Y-92547206D01*
X129585487Y-92507500D01*
X129394513Y-92507500D01*
X129207711Y-92547206D01*
X129033247Y-92624882D01*
X128878744Y-92737135D01*
X128750965Y-92879048D01*
X128750958Y-92879058D01*
X128655476Y-93044438D01*
X128655473Y-93044445D01*
X128596457Y-93226072D01*
X128576496Y-93416000D01*
X100284000Y-93416000D01*
X100284000Y-91633341D01*
X119437157Y-91633341D01*
X119457118Y-91823268D01*
X119487187Y-91915811D01*
X119516134Y-92004897D01*
X119516137Y-92004902D01*
X119611619Y-92170282D01*
X119611626Y-92170292D01*
X119739405Y-92312205D01*
X119739408Y-92312207D01*
X119893909Y-92424459D01*
X120068373Y-92502135D01*
X120255174Y-92541841D01*
X120446148Y-92541841D01*
X120632949Y-92502135D01*
X120807413Y-92424459D01*
X120961914Y-92312207D01*
X121089701Y-92170285D01*
X121185188Y-92004897D01*
X121244203Y-91823269D01*
X121264165Y-91633341D01*
X121244203Y-91443413D01*
X121185188Y-91261785D01*
X121089701Y-91096397D01*
X121089699Y-91096395D01*
X121089695Y-91096389D01*
X120961916Y-90954476D01*
X120807413Y-90842223D01*
X120632949Y-90764547D01*
X120446148Y-90724841D01*
X120255174Y-90724841D01*
X120068372Y-90764547D01*
X119893908Y-90842223D01*
X119739405Y-90954476D01*
X119611626Y-91096389D01*
X119611619Y-91096399D01*
X119516137Y-91261779D01*
X119516134Y-91261786D01*
X119457118Y-91443413D01*
X119437157Y-91633341D01*
X100284000Y-91633341D01*
X100284000Y-89969009D01*
X136958496Y-89969009D01*
X136978457Y-90158936D01*
X137004540Y-90239210D01*
X137037473Y-90340565D01*
X137037476Y-90340570D01*
X137132958Y-90505950D01*
X137132965Y-90505960D01*
X137260744Y-90647873D01*
X137260747Y-90647875D01*
X137415248Y-90760127D01*
X137589712Y-90837803D01*
X137776513Y-90877509D01*
X137967487Y-90877509D01*
X138154288Y-90837803D01*
X138328752Y-90760127D01*
X138483253Y-90647875D01*
X138483255Y-90647873D01*
X138611034Y-90505960D01*
X138611035Y-90505958D01*
X138611040Y-90505953D01*
X138706527Y-90340565D01*
X138739345Y-90239561D01*
X138779419Y-90180957D01*
X138844816Y-90153320D01*
X138859178Y-90152499D01*
X138875486Y-90152499D01*
X139062287Y-90112793D01*
X139236751Y-90035117D01*
X139382477Y-89929240D01*
X139449342Y-89905383D01*
X139507782Y-89916069D01*
X139621712Y-89966794D01*
X139808513Y-90006500D01*
X139999487Y-90006500D01*
X140186288Y-89966794D01*
X140360752Y-89889118D01*
X140360752Y-89889117D01*
X140431118Y-89879684D01*
X140463247Y-89889117D01*
X140463248Y-89889118D01*
X140637712Y-89966794D01*
X140824513Y-90006500D01*
X141015487Y-90006500D01*
X141202288Y-89966794D01*
X141376752Y-89889118D01*
X141531253Y-89776866D01*
X141531255Y-89776864D01*
X141573452Y-89730000D01*
X161882337Y-89730000D01*
X161900960Y-89966632D01*
X161956371Y-90197437D01*
X162047208Y-90416738D01*
X162161896Y-90603890D01*
X162161897Y-90603890D01*
X162754032Y-90011755D01*
X162774668Y-90061574D01*
X162851274Y-90176224D01*
X162948776Y-90273726D01*
X163063426Y-90350332D01*
X163113242Y-90370966D01*
X162521107Y-90963101D01*
X162521108Y-90963102D01*
X162708261Y-91077791D01*
X162927562Y-91168628D01*
X163158367Y-91224039D01*
X163395000Y-91242662D01*
X163631632Y-91224039D01*
X163862437Y-91168628D01*
X164081738Y-91077791D01*
X164268890Y-90963102D01*
X164268891Y-90963102D01*
X163676756Y-90370966D01*
X163726574Y-90350332D01*
X163841224Y-90273726D01*
X163938726Y-90176224D01*
X164015332Y-90061574D01*
X164035966Y-90011756D01*
X164628101Y-90603891D01*
X164628102Y-90603890D01*
X164742791Y-90416738D01*
X164833628Y-90197437D01*
X164889039Y-89966632D01*
X164895857Y-89880000D01*
X165782174Y-89880000D01*
X165801444Y-90112549D01*
X165858724Y-90338743D01*
X165858726Y-90338747D01*
X165952455Y-90552427D01*
X166035796Y-90679990D01*
X166629191Y-90086596D01*
X166635889Y-90111591D01*
X166714881Y-90248408D01*
X166826592Y-90360119D01*
X166963409Y-90439111D01*
X166988401Y-90445807D01*
X166393680Y-91040528D01*
X166393680Y-91040529D01*
X166422251Y-91062767D01*
X166422259Y-91062772D01*
X166627474Y-91173827D01*
X166627477Y-91173829D01*
X166848167Y-91249592D01*
X166848176Y-91249594D01*
X167078334Y-91288000D01*
X167311666Y-91288000D01*
X167541823Y-91249594D01*
X167541832Y-91249592D01*
X167762522Y-91173829D01*
X167762525Y-91173827D01*
X167967741Y-91062771D01*
X167967750Y-91062765D01*
X167996318Y-91040529D01*
X167996319Y-91040528D01*
X167401598Y-90445807D01*
X167426591Y-90439111D01*
X167563408Y-90360119D01*
X167675119Y-90248408D01*
X167754111Y-90111591D01*
X167760807Y-90086598D01*
X168354200Y-90679991D01*
X168354202Y-90679991D01*
X168437544Y-90552427D01*
X168531273Y-90338747D01*
X168531275Y-90338743D01*
X168588555Y-90112549D01*
X168607825Y-89880000D01*
X168588555Y-89647450D01*
X168531275Y-89421256D01*
X168531273Y-89421252D01*
X168437544Y-89207572D01*
X168354201Y-89080007D01*
X167760807Y-89673401D01*
X167754111Y-89648409D01*
X167675119Y-89511592D01*
X167563408Y-89399881D01*
X167426591Y-89320889D01*
X167401597Y-89314192D01*
X167996318Y-88719470D01*
X167967740Y-88697227D01*
X167762525Y-88586172D01*
X167762522Y-88586170D01*
X167541832Y-88510407D01*
X167541823Y-88510405D01*
X167311666Y-88472000D01*
X167078334Y-88472000D01*
X166848176Y-88510405D01*
X166848167Y-88510407D01*
X166627477Y-88586170D01*
X166627474Y-88586172D01*
X166422258Y-88697227D01*
X166393680Y-88719469D01*
X166393680Y-88719471D01*
X166988401Y-89314192D01*
X166963409Y-89320889D01*
X166826592Y-89399881D01*
X166714881Y-89511592D01*
X166635889Y-89648409D01*
X166629192Y-89673401D01*
X166035798Y-89080007D01*
X166035797Y-89080007D01*
X165952459Y-89207566D01*
X165952452Y-89207578D01*
X165858726Y-89421252D01*
X165858724Y-89421256D01*
X165801444Y-89647450D01*
X165782174Y-89880000D01*
X164895857Y-89880000D01*
X164907662Y-89730000D01*
X164889039Y-89493367D01*
X164833627Y-89262561D01*
X164833627Y-89262559D01*
X164796997Y-89174125D01*
X164789408Y-89103536D01*
X164821188Y-89040049D01*
X164843398Y-89021147D01*
X164859669Y-89010276D01*
X164950276Y-88919669D01*
X165021465Y-88813127D01*
X165070501Y-88694744D01*
X165095500Y-88569069D01*
X165095500Y-88440931D01*
X165070501Y-88315256D01*
X165021465Y-88196873D01*
X164950276Y-88090331D01*
X164859669Y-87999724D01*
X164753127Y-87928535D01*
X164634745Y-87879499D01*
X164592852Y-87871166D01*
X164509069Y-87854500D01*
X164380931Y-87854500D01*
X164339039Y-87862833D01*
X164255254Y-87879499D01*
X164255253Y-87879500D01*
X164136871Y-87928536D01*
X164030335Y-87999721D01*
X164030328Y-87999726D01*
X163939726Y-88090328D01*
X163939724Y-88090331D01*
X163873462Y-88189500D01*
X163865096Y-88202020D01*
X163863906Y-88201225D01*
X163819197Y-88246730D01*
X163749959Y-88262432D01*
X163728425Y-88259198D01*
X163631632Y-88235960D01*
X163395000Y-88217337D01*
X163158367Y-88235960D01*
X162927562Y-88291371D01*
X162708266Y-88382206D01*
X162521108Y-88496897D01*
X162521108Y-88496898D01*
X163113243Y-89089033D01*
X163063426Y-89109668D01*
X162948776Y-89186274D01*
X162851274Y-89283776D01*
X162774668Y-89398426D01*
X162754033Y-89448243D01*
X162161898Y-88856108D01*
X162161897Y-88856108D01*
X162047206Y-89043266D01*
X161956371Y-89262562D01*
X161900960Y-89493367D01*
X161882337Y-89730000D01*
X141573452Y-89730000D01*
X141659034Y-89634951D01*
X141659035Y-89634949D01*
X141659040Y-89634944D01*
X141754527Y-89469556D01*
X141813542Y-89287928D01*
X141833504Y-89098000D01*
X141813542Y-88908072D01*
X141754527Y-88726444D01*
X141659040Y-88561056D01*
X141659038Y-88561054D01*
X141659034Y-88561048D01*
X141531255Y-88419135D01*
X141376752Y-88306882D01*
X141202288Y-88229206D01*
X141015487Y-88189500D01*
X140824513Y-88189500D01*
X140637709Y-88229206D01*
X140463248Y-88306881D01*
X140392881Y-88316315D01*
X140360752Y-88306881D01*
X140186290Y-88229206D01*
X139999487Y-88189500D01*
X139808513Y-88189500D01*
X139621711Y-88229206D01*
X139447247Y-88306882D01*
X139301523Y-88412757D01*
X139234655Y-88436616D01*
X139176213Y-88425928D01*
X139160953Y-88419134D01*
X139062287Y-88375205D01*
X138875486Y-88335499D01*
X138684512Y-88335499D01*
X138497710Y-88375205D01*
X138323246Y-88452881D01*
X138168743Y-88565134D01*
X138040964Y-88707047D01*
X138040957Y-88707057D01*
X137945475Y-88872437D01*
X137945472Y-88872443D01*
X137912654Y-88973446D01*
X137872580Y-89032051D01*
X137807183Y-89059688D01*
X137792821Y-89060509D01*
X137776513Y-89060509D01*
X137589711Y-89100215D01*
X137415247Y-89177891D01*
X137260744Y-89290144D01*
X137132965Y-89432057D01*
X137132958Y-89432067D01*
X137037476Y-89597447D01*
X137037473Y-89597454D01*
X136978457Y-89779081D01*
X136958496Y-89969009D01*
X100284000Y-89969009D01*
X100284000Y-88181557D01*
X116030939Y-88181557D01*
X116050900Y-88371484D01*
X116073466Y-88440932D01*
X116109916Y-88553113D01*
X116109919Y-88553118D01*
X116205401Y-88718498D01*
X116205408Y-88718508D01*
X116333187Y-88860421D01*
X116333190Y-88860423D01*
X116487691Y-88972675D01*
X116662155Y-89050351D01*
X116848956Y-89090057D01*
X117039930Y-89090057D01*
X117226731Y-89050351D01*
X117401195Y-88972675D01*
X117555696Y-88860423D01*
X117598281Y-88813128D01*
X117683477Y-88718508D01*
X117683478Y-88718506D01*
X117683483Y-88718501D01*
X117778970Y-88553113D01*
X117837985Y-88371485D01*
X117857947Y-88181557D01*
X117837985Y-87991629D01*
X117778970Y-87810001D01*
X117683483Y-87644613D01*
X117683481Y-87644611D01*
X117683477Y-87644605D01*
X117555698Y-87502692D01*
X117401195Y-87390439D01*
X117226731Y-87312763D01*
X117039930Y-87273057D01*
X116848956Y-87273057D01*
X116662154Y-87312763D01*
X116487690Y-87390439D01*
X116333187Y-87502692D01*
X116205408Y-87644605D01*
X116205401Y-87644615D01*
X116109919Y-87809995D01*
X116109916Y-87810002D01*
X116050900Y-87991629D01*
X116030939Y-88181557D01*
X100284000Y-88181557D01*
X100284000Y-86812000D01*
X132132496Y-86812000D01*
X132152457Y-87001927D01*
X132182526Y-87094470D01*
X132211473Y-87183556D01*
X132211476Y-87183561D01*
X132306958Y-87348941D01*
X132306965Y-87348951D01*
X132434744Y-87490864D01*
X132451024Y-87502692D01*
X132589248Y-87603118D01*
X132763712Y-87680794D01*
X132950513Y-87720500D01*
X133141487Y-87720500D01*
X133328288Y-87680794D01*
X133502752Y-87603118D01*
X133657253Y-87490866D01*
X133785040Y-87348944D01*
X133880527Y-87183556D01*
X133939542Y-87001928D01*
X133959504Y-86812000D01*
X133939542Y-86622072D01*
X133880527Y-86440444D01*
X133785040Y-86275056D01*
X133785038Y-86275054D01*
X133785034Y-86275048D01*
X133657255Y-86133135D01*
X133502752Y-86020882D01*
X133328288Y-85943206D01*
X133141487Y-85903500D01*
X132950513Y-85903500D01*
X132763711Y-85943206D01*
X132589247Y-86020882D01*
X132434744Y-86133135D01*
X132306965Y-86275048D01*
X132306958Y-86275058D01*
X132211476Y-86440438D01*
X132211473Y-86440445D01*
X132152457Y-86622072D01*
X132132496Y-86812000D01*
X100284000Y-86812000D01*
X100284000Y-85034000D01*
X121464496Y-85034000D01*
X121484457Y-85223927D01*
X121514526Y-85316470D01*
X121543473Y-85405556D01*
X121543476Y-85405561D01*
X121638958Y-85570941D01*
X121638965Y-85570951D01*
X121766744Y-85712864D01*
X121766747Y-85712866D01*
X121921248Y-85825118D01*
X122095712Y-85902794D01*
X122282513Y-85942500D01*
X122473487Y-85942500D01*
X122660288Y-85902794D01*
X122834752Y-85825118D01*
X122989253Y-85712866D01*
X122989255Y-85712864D01*
X123117034Y-85570951D01*
X123117035Y-85570949D01*
X123117040Y-85570944D01*
X123212527Y-85405556D01*
X123271542Y-85223928D01*
X123291504Y-85034000D01*
X123271542Y-84844072D01*
X123251471Y-84782301D01*
X124512496Y-84782301D01*
X124532457Y-84972228D01*
X124545888Y-85013563D01*
X124591473Y-85153857D01*
X124591476Y-85153862D01*
X124686958Y-85319242D01*
X124686965Y-85319252D01*
X124814744Y-85461165D01*
X124814747Y-85461167D01*
X124969248Y-85573419D01*
X125143712Y-85651095D01*
X125330513Y-85690801D01*
X125521487Y-85690801D01*
X125708288Y-85651095D01*
X125882752Y-85573419D01*
X126037253Y-85461167D01*
X126087321Y-85405561D01*
X126165034Y-85319252D01*
X126165035Y-85319250D01*
X126165040Y-85319245D01*
X126260527Y-85153857D01*
X126306112Y-85013563D01*
X126346186Y-84954958D01*
X126411583Y-84927321D01*
X126425945Y-84926500D01*
X126537487Y-84926500D01*
X126724288Y-84886794D01*
X126898752Y-84809118D01*
X127053253Y-84696866D01*
X127101249Y-84643561D01*
X127181034Y-84554951D01*
X127181035Y-84554949D01*
X127181040Y-84554944D01*
X127276527Y-84389556D01*
X127314724Y-84272000D01*
X139498496Y-84272000D01*
X139518457Y-84461927D01*
X139548526Y-84554470D01*
X139577473Y-84643556D01*
X139577476Y-84643561D01*
X139672958Y-84808941D01*
X139672965Y-84808951D01*
X139800744Y-84950864D01*
X139861999Y-84995368D01*
X139955248Y-85063118D01*
X140129712Y-85140794D01*
X140316513Y-85180500D01*
X140507487Y-85180500D01*
X140694288Y-85140794D01*
X140868752Y-85063118D01*
X141023253Y-84950866D01*
X141145497Y-84815100D01*
X141151034Y-84808951D01*
X141151035Y-84808949D01*
X141151040Y-84808944D01*
X141246527Y-84643556D01*
X141305542Y-84461928D01*
X141325504Y-84272000D01*
X141305542Y-84082072D01*
X141246527Y-83900444D01*
X141151040Y-83735056D01*
X141151038Y-83735054D01*
X141151034Y-83735048D01*
X141023255Y-83593135D01*
X140868752Y-83480882D01*
X140694288Y-83403206D01*
X140507487Y-83363500D01*
X140316513Y-83363500D01*
X140129711Y-83403206D01*
X139955247Y-83480882D01*
X139800744Y-83593135D01*
X139672965Y-83735048D01*
X139672958Y-83735058D01*
X139577476Y-83900438D01*
X139577473Y-83900444D01*
X139571226Y-83919671D01*
X139518457Y-84082072D01*
X139498496Y-84272000D01*
X127314724Y-84272000D01*
X127335542Y-84207928D01*
X127355504Y-84018000D01*
X127345530Y-83923103D01*
X127358302Y-83853266D01*
X127406804Y-83801419D01*
X127475637Y-83784025D01*
X127522083Y-83794825D01*
X127692712Y-83870794D01*
X127879513Y-83910500D01*
X128070487Y-83910500D01*
X128257288Y-83870794D01*
X128431752Y-83793118D01*
X128586253Y-83680866D01*
X128634042Y-83627791D01*
X128714034Y-83538951D01*
X128714035Y-83538949D01*
X128714040Y-83538944D01*
X128809527Y-83373556D01*
X128868542Y-83191928D01*
X128888504Y-83002000D01*
X128868542Y-82812072D01*
X128809527Y-82630444D01*
X128767123Y-82557000D01*
X128750386Y-82488006D01*
X128767124Y-82430999D01*
X128809527Y-82357556D01*
X128834727Y-82280000D01*
X161882337Y-82280000D01*
X161900960Y-82516632D01*
X161956371Y-82747437D01*
X162047208Y-82966738D01*
X162161896Y-83153890D01*
X162161897Y-83153890D01*
X162754032Y-82561755D01*
X162774668Y-82611574D01*
X162851274Y-82726224D01*
X162948776Y-82823726D01*
X163063426Y-82900332D01*
X163113243Y-82920966D01*
X162521107Y-83513102D01*
X162708261Y-83627791D01*
X162927562Y-83718628D01*
X163158367Y-83774039D01*
X163395000Y-83792662D01*
X163631634Y-83774039D01*
X163631641Y-83774038D01*
X163728424Y-83750802D01*
X163799332Y-83754348D01*
X163857066Y-83795667D01*
X163865090Y-83807983D01*
X163865096Y-83807980D01*
X163868534Y-83813126D01*
X163868535Y-83813127D01*
X163939724Y-83919669D01*
X164030331Y-84010276D01*
X164136873Y-84081465D01*
X164255256Y-84130501D01*
X164380931Y-84155500D01*
X164380936Y-84155500D01*
X164509064Y-84155500D01*
X164509069Y-84155500D01*
X164634744Y-84130501D01*
X164753127Y-84081465D01*
X164859669Y-84010276D01*
X164950276Y-83919669D01*
X165021465Y-83813127D01*
X165070501Y-83694744D01*
X165095500Y-83569069D01*
X165095500Y-83440931D01*
X165070501Y-83315256D01*
X165021465Y-83196873D01*
X164950276Y-83090331D01*
X164859669Y-82999724D01*
X164857239Y-82998100D01*
X164843401Y-82988853D01*
X164797875Y-82934375D01*
X164789029Y-82863931D01*
X164796997Y-82835872D01*
X164833628Y-82747436D01*
X164889039Y-82516632D01*
X164907662Y-82280000D01*
X164895857Y-82130000D01*
X165782174Y-82130000D01*
X165801444Y-82362549D01*
X165858724Y-82588743D01*
X165858726Y-82588747D01*
X165952455Y-82802427D01*
X166035796Y-82929990D01*
X166629191Y-82336596D01*
X166635889Y-82361591D01*
X166714881Y-82498408D01*
X166826592Y-82610119D01*
X166963409Y-82689111D01*
X166988401Y-82695807D01*
X166393680Y-83290528D01*
X166393680Y-83290529D01*
X166422251Y-83312767D01*
X166422259Y-83312772D01*
X166627474Y-83423827D01*
X166627477Y-83423829D01*
X166848167Y-83499592D01*
X166848176Y-83499594D01*
X167078334Y-83538000D01*
X167311666Y-83538000D01*
X167541823Y-83499594D01*
X167541832Y-83499592D01*
X167762522Y-83423829D01*
X167762525Y-83423827D01*
X167967741Y-83312771D01*
X167967750Y-83312765D01*
X167996318Y-83290529D01*
X167996319Y-83290528D01*
X167401598Y-82695807D01*
X167426591Y-82689111D01*
X167563408Y-82610119D01*
X167675119Y-82498408D01*
X167754111Y-82361591D01*
X167760807Y-82336598D01*
X168354200Y-82929991D01*
X168354202Y-82929991D01*
X168437544Y-82802427D01*
X168531273Y-82588747D01*
X168531275Y-82588743D01*
X168588555Y-82362549D01*
X168607825Y-82130000D01*
X168588555Y-81897450D01*
X168531275Y-81671256D01*
X168531273Y-81671252D01*
X168437544Y-81457572D01*
X168354201Y-81330007D01*
X167760807Y-81923401D01*
X167754111Y-81898409D01*
X167675119Y-81761592D01*
X167563408Y-81649881D01*
X167426591Y-81570889D01*
X167401597Y-81564192D01*
X167996318Y-80969470D01*
X167967740Y-80947227D01*
X167762525Y-80836172D01*
X167762522Y-80836170D01*
X167541832Y-80760407D01*
X167541823Y-80760405D01*
X167311666Y-80722000D01*
X167078334Y-80722000D01*
X166848176Y-80760405D01*
X166848167Y-80760407D01*
X166627477Y-80836170D01*
X166627474Y-80836172D01*
X166422258Y-80947227D01*
X166393680Y-80969469D01*
X166393680Y-80969471D01*
X166988401Y-81564192D01*
X166963409Y-81570889D01*
X166826592Y-81649881D01*
X166714881Y-81761592D01*
X166635889Y-81898409D01*
X166629192Y-81923401D01*
X166035798Y-81330007D01*
X166035797Y-81330007D01*
X165952459Y-81457566D01*
X165952452Y-81457578D01*
X165858726Y-81671252D01*
X165858724Y-81671256D01*
X165801444Y-81897450D01*
X165782174Y-82130000D01*
X164895857Y-82130000D01*
X164889039Y-82043367D01*
X164833628Y-81812562D01*
X164742791Y-81593261D01*
X164628102Y-81406108D01*
X164628101Y-81406107D01*
X164035966Y-81998242D01*
X164015332Y-81948426D01*
X163938726Y-81833776D01*
X163841224Y-81736274D01*
X163726574Y-81659668D01*
X163676755Y-81639032D01*
X164268890Y-81046897D01*
X164268890Y-81046896D01*
X164081738Y-80932208D01*
X163862437Y-80841371D01*
X163631632Y-80785960D01*
X163395000Y-80767337D01*
X163158367Y-80785960D01*
X162927562Y-80841371D01*
X162708266Y-80932206D01*
X162521108Y-81046897D01*
X162521108Y-81046898D01*
X163113243Y-81639033D01*
X163063426Y-81659668D01*
X162948776Y-81736274D01*
X162851274Y-81833776D01*
X162774668Y-81948426D01*
X162754033Y-81998243D01*
X162161898Y-81406108D01*
X162161897Y-81406108D01*
X162047206Y-81593266D01*
X161956371Y-81812562D01*
X161900960Y-82043367D01*
X161882337Y-82280000D01*
X128834727Y-82280000D01*
X128868542Y-82175928D01*
X128888504Y-81986000D01*
X128887890Y-81980160D01*
X128900662Y-81910323D01*
X128949163Y-81858476D01*
X128987003Y-81843743D01*
X129010288Y-81838794D01*
X129184752Y-81761118D01*
X129339253Y-81648866D01*
X129370252Y-81614438D01*
X129467034Y-81506951D01*
X129467035Y-81506949D01*
X129467040Y-81506944D01*
X129562527Y-81341556D01*
X129616895Y-81174229D01*
X129656967Y-81115625D01*
X129710528Y-81089921D01*
X129772288Y-81076794D01*
X129946752Y-80999118D01*
X130101253Y-80886866D01*
X130197411Y-80780072D01*
X130229034Y-80744951D01*
X130229035Y-80744949D01*
X130229040Y-80744944D01*
X130324527Y-80579556D01*
X130383542Y-80397928D01*
X130403504Y-80208000D01*
X130383542Y-80018072D01*
X130324527Y-79836444D01*
X130229040Y-79671056D01*
X130229039Y-79671055D01*
X130228082Y-79669397D01*
X130211344Y-79600402D01*
X130234564Y-79533310D01*
X130290371Y-79489423D01*
X130337201Y-79480397D01*
X130531327Y-79480397D01*
X130718128Y-79440691D01*
X130892592Y-79363015D01*
X131047093Y-79250763D01*
X131111263Y-79179495D01*
X131174874Y-79108848D01*
X131174875Y-79108846D01*
X131174880Y-79108841D01*
X131270367Y-78943453D01*
X131287735Y-78890000D01*
X141370496Y-78890000D01*
X141390457Y-79079927D01*
X141420526Y-79172470D01*
X141449473Y-79261556D01*
X141449476Y-79261561D01*
X141544958Y-79426941D01*
X141544965Y-79426951D01*
X141672744Y-79568864D01*
X141672747Y-79568866D01*
X141827248Y-79681118D01*
X142001712Y-79758794D01*
X142188513Y-79798500D01*
X142379487Y-79798500D01*
X142566288Y-79758794D01*
X142740752Y-79681118D01*
X142895253Y-79568866D01*
X143023040Y-79426944D01*
X143118527Y-79261556D01*
X143177542Y-79079928D01*
X143197504Y-78890000D01*
X143177542Y-78700072D01*
X143118527Y-78518444D01*
X143023040Y-78353056D01*
X143023038Y-78353054D01*
X143023034Y-78353048D01*
X142895255Y-78211135D01*
X142740752Y-78098882D01*
X142566288Y-78021206D01*
X142379487Y-77981500D01*
X142188513Y-77981500D01*
X142001711Y-78021206D01*
X141827247Y-78098882D01*
X141672744Y-78211135D01*
X141544965Y-78353048D01*
X141544958Y-78353058D01*
X141449476Y-78518438D01*
X141449473Y-78518445D01*
X141390457Y-78700072D01*
X141370496Y-78890000D01*
X131287735Y-78890000D01*
X131329382Y-78761825D01*
X131349344Y-78571897D01*
X131329382Y-78381969D01*
X131270367Y-78200341D01*
X131174880Y-78034953D01*
X131174878Y-78034951D01*
X131174874Y-78034945D01*
X131047095Y-77893032D01*
X130892592Y-77780779D01*
X130718128Y-77703103D01*
X130531327Y-77663397D01*
X130340353Y-77663397D01*
X130153551Y-77703103D01*
X129979087Y-77780779D01*
X129824584Y-77893032D01*
X129696805Y-78034945D01*
X129696798Y-78034955D01*
X129601316Y-78200335D01*
X129601313Y-78200342D01*
X129542297Y-78381969D01*
X129522336Y-78571897D01*
X129542297Y-78761824D01*
X129548526Y-78780993D01*
X129601313Y-78943453D01*
X129680106Y-79079927D01*
X129697758Y-79110500D01*
X129714496Y-79179495D01*
X129691276Y-79246587D01*
X129635469Y-79290474D01*
X129588639Y-79299500D01*
X129394513Y-79299500D01*
X129207711Y-79339206D01*
X129033247Y-79416882D01*
X128878744Y-79529135D01*
X128750965Y-79671048D01*
X128750958Y-79671058D01*
X128655476Y-79836438D01*
X128655473Y-79836445D01*
X128601105Y-80003768D01*
X128561031Y-80062374D01*
X128507471Y-80088077D01*
X128445714Y-80101204D01*
X128271247Y-80178882D01*
X128116744Y-80291135D01*
X127988965Y-80433048D01*
X127988958Y-80433058D01*
X127893476Y-80598438D01*
X127893473Y-80598445D01*
X127834457Y-80780072D01*
X127814496Y-80970001D01*
X127814496Y-80970002D01*
X127815110Y-80975848D01*
X127802333Y-81045685D01*
X127753827Y-81097528D01*
X127715999Y-81112255D01*
X127692714Y-81117204D01*
X127518247Y-81194882D01*
X127363744Y-81307135D01*
X127235965Y-81449048D01*
X127235958Y-81449058D01*
X127140476Y-81614438D01*
X127140473Y-81614444D01*
X127129289Y-81648864D01*
X127081457Y-81796072D01*
X127061496Y-81986000D01*
X127081457Y-82175927D01*
X127111526Y-82268470D01*
X127140473Y-82357556D01*
X127140473Y-82357557D01*
X127140474Y-82357558D01*
X127182876Y-82431001D01*
X127199613Y-82499996D01*
X127182876Y-82556999D01*
X127140474Y-82630441D01*
X127140473Y-82630443D01*
X127140473Y-82630444D01*
X127125999Y-82674986D01*
X127081457Y-82812072D01*
X127061496Y-83002000D01*
X127071469Y-83096896D01*
X127058696Y-83166734D01*
X127010194Y-83218580D01*
X126941361Y-83235974D01*
X126894912Y-83225172D01*
X126724288Y-83149206D01*
X126537487Y-83109500D01*
X126346513Y-83109500D01*
X126159711Y-83149206D01*
X125985247Y-83226882D01*
X125830744Y-83339135D01*
X125702965Y-83481048D01*
X125702958Y-83481058D01*
X125607476Y-83646438D01*
X125607473Y-83646445D01*
X125561888Y-83786738D01*
X125521814Y-83845343D01*
X125456417Y-83872980D01*
X125442055Y-83873801D01*
X125330513Y-83873801D01*
X125143711Y-83913507D01*
X124969247Y-83991183D01*
X124814744Y-84103436D01*
X124686965Y-84245349D01*
X124686958Y-84245359D01*
X124591476Y-84410739D01*
X124591473Y-84410746D01*
X124532457Y-84592373D01*
X124512496Y-84782301D01*
X123251471Y-84782301D01*
X123212527Y-84662444D01*
X123117040Y-84497056D01*
X123117038Y-84497054D01*
X123117034Y-84497048D01*
X122989255Y-84355135D01*
X122834752Y-84242882D01*
X122660288Y-84165206D01*
X122473487Y-84125500D01*
X122282513Y-84125500D01*
X122095711Y-84165206D01*
X121921247Y-84242882D01*
X121766744Y-84355135D01*
X121638965Y-84497048D01*
X121638958Y-84497058D01*
X121543476Y-84662438D01*
X121543473Y-84662445D01*
X121484457Y-84844072D01*
X121464496Y-85034000D01*
X100284000Y-85034000D01*
X100284000Y-83906600D01*
X113932796Y-83906600D01*
X113952757Y-84096527D01*
X113971919Y-84155499D01*
X114011773Y-84278156D01*
X114011776Y-84278161D01*
X114107258Y-84443541D01*
X114107265Y-84443551D01*
X114235044Y-84585464D01*
X114296299Y-84629968D01*
X114389548Y-84697718D01*
X114564012Y-84775394D01*
X114750813Y-84815100D01*
X114941787Y-84815100D01*
X115128588Y-84775394D01*
X115303052Y-84697718D01*
X115457553Y-84585466D01*
X115585340Y-84443544D01*
X115680827Y-84278156D01*
X115739842Y-84096528D01*
X115759804Y-83906600D01*
X115739842Y-83716672D01*
X115680827Y-83535044D01*
X115585340Y-83369656D01*
X115585338Y-83369654D01*
X115585334Y-83369648D01*
X115457555Y-83227735D01*
X115303052Y-83115482D01*
X115128588Y-83037806D01*
X114941787Y-82998100D01*
X114750813Y-82998100D01*
X114564011Y-83037806D01*
X114389547Y-83115482D01*
X114235044Y-83227735D01*
X114107265Y-83369648D01*
X114107258Y-83369658D01*
X114011776Y-83535038D01*
X114011773Y-83535045D01*
X113952757Y-83716672D01*
X113932796Y-83906600D01*
X100284000Y-83906600D01*
X100284000Y-82303501D01*
X119876995Y-82303501D01*
X119896956Y-82493428D01*
X119904496Y-82516632D01*
X119955972Y-82675057D01*
X119955975Y-82675062D01*
X120051457Y-82840442D01*
X120051464Y-82840452D01*
X120179243Y-82982365D01*
X120203133Y-82999722D01*
X120333747Y-83094619D01*
X120508211Y-83172295D01*
X120695012Y-83212001D01*
X120885986Y-83212001D01*
X121072787Y-83172295D01*
X121247251Y-83094619D01*
X121401752Y-82982367D01*
X121403883Y-82980000D01*
X121529533Y-82840452D01*
X121529534Y-82840450D01*
X121529539Y-82840445D01*
X121625026Y-82675057D01*
X121684041Y-82493429D01*
X121704003Y-82303501D01*
X121684041Y-82113573D01*
X121625026Y-81931945D01*
X121529539Y-81766557D01*
X121529537Y-81766555D01*
X121529533Y-81766549D01*
X121401754Y-81624636D01*
X121247251Y-81512383D01*
X121072787Y-81434707D01*
X120885986Y-81395001D01*
X120695012Y-81395001D01*
X120508210Y-81434707D01*
X120333746Y-81512383D01*
X120179243Y-81624636D01*
X120051464Y-81766549D01*
X120051457Y-81766559D01*
X119955975Y-81931939D01*
X119955972Y-81931946D01*
X119896956Y-82113573D01*
X119876995Y-82303501D01*
X100284000Y-82303501D01*
X100284000Y-81224000D01*
X122226496Y-81224000D01*
X122246457Y-81413927D01*
X122260637Y-81457566D01*
X122305473Y-81595556D01*
X122305476Y-81595561D01*
X122400958Y-81760941D01*
X122400965Y-81760951D01*
X122528744Y-81902864D01*
X122553416Y-81920789D01*
X122683248Y-82015118D01*
X122857712Y-82092794D01*
X123044513Y-82132500D01*
X123235487Y-82132500D01*
X123422288Y-82092794D01*
X123596752Y-82015118D01*
X123751253Y-81902866D01*
X123870175Y-81770790D01*
X123879034Y-81760951D01*
X123879035Y-81760949D01*
X123879040Y-81760944D01*
X123974527Y-81595556D01*
X124033542Y-81413928D01*
X124053504Y-81224000D01*
X124033542Y-81034072D01*
X123974527Y-80852444D01*
X123879040Y-80687056D01*
X123879038Y-80687054D01*
X123879034Y-80687048D01*
X123751255Y-80545135D01*
X123596752Y-80432882D01*
X123422288Y-80355206D01*
X123235487Y-80315500D01*
X123044513Y-80315500D01*
X122857711Y-80355206D01*
X122683247Y-80432882D01*
X122528744Y-80545135D01*
X122400965Y-80687048D01*
X122400958Y-80687058D01*
X122305476Y-80852438D01*
X122305473Y-80852445D01*
X122246457Y-81034072D01*
X122226496Y-81224000D01*
X100284000Y-81224000D01*
X100284000Y-77912200D01*
X113907396Y-77912200D01*
X113927357Y-78102127D01*
X113957426Y-78194670D01*
X113986373Y-78283756D01*
X113986376Y-78283761D01*
X114081858Y-78449141D01*
X114081865Y-78449151D01*
X114209644Y-78591064D01*
X114209647Y-78591066D01*
X114364148Y-78703318D01*
X114538612Y-78780994D01*
X114725413Y-78820700D01*
X114916387Y-78820700D01*
X115103188Y-78780994D01*
X115277652Y-78703318D01*
X115432153Y-78591066D01*
X115497542Y-78518444D01*
X115559934Y-78449151D01*
X115559935Y-78449149D01*
X115559940Y-78449144D01*
X115655427Y-78283756D01*
X115714442Y-78102128D01*
X115734404Y-77912200D01*
X115714442Y-77722272D01*
X115655427Y-77540644D01*
X115559940Y-77375256D01*
X115559938Y-77375254D01*
X115559934Y-77375248D01*
X115432155Y-77233335D01*
X115277652Y-77121082D01*
X115103188Y-77043406D01*
X114916387Y-77003700D01*
X114725413Y-77003700D01*
X114538611Y-77043406D01*
X114364147Y-77121082D01*
X114209644Y-77233335D01*
X114081865Y-77375248D01*
X114081858Y-77375258D01*
X113986376Y-77540638D01*
X113986373Y-77540645D01*
X113927357Y-77722272D01*
X113907396Y-77912200D01*
X100284000Y-77912200D01*
X100284000Y-74000000D01*
X101137157Y-74000000D01*
X101156514Y-74332345D01*
X101156515Y-74332354D01*
X101214325Y-74660215D01*
X101214325Y-74660216D01*
X101309809Y-74979152D01*
X101309808Y-74979152D01*
X101441668Y-75284839D01*
X101441671Y-75284844D01*
X101608123Y-75573146D01*
X101608133Y-75573162D01*
X101804227Y-75836562D01*
X102882348Y-74758441D01*
X102970278Y-74879466D01*
X103120534Y-75029722D01*
X103241557Y-75117650D01*
X102166686Y-76192522D01*
X102290432Y-76296355D01*
X102290433Y-76296356D01*
X102568570Y-76479290D01*
X102866090Y-76628710D01*
X103178924Y-76742572D01*
X103178927Y-76742573D01*
X103502867Y-76819348D01*
X103502877Y-76819350D01*
X103833537Y-76858000D01*
X104166463Y-76858000D01*
X104497122Y-76819350D01*
X104497132Y-76819348D01*
X104821072Y-76742573D01*
X104821075Y-76742572D01*
X105133909Y-76628710D01*
X105431429Y-76479290D01*
X105709566Y-76296356D01*
X105833312Y-76192522D01*
X105833312Y-76192521D01*
X104758441Y-75117650D01*
X104879466Y-75029722D01*
X105029722Y-74879466D01*
X105117650Y-74758441D01*
X106195771Y-75836562D01*
X106195772Y-75836562D01*
X106391859Y-75573173D01*
X106391876Y-75573146D01*
X106558328Y-75284844D01*
X106558331Y-75284839D01*
X106690190Y-74979152D01*
X106785674Y-74660216D01*
X106785674Y-74660215D01*
X106843484Y-74332354D01*
X106843485Y-74332345D01*
X106862842Y-74000000D01*
X106843485Y-73667654D01*
X106843484Y-73667645D01*
X106785674Y-73339784D01*
X106785674Y-73339783D01*
X106714291Y-73101350D01*
X107641500Y-73101350D01*
X107641500Y-74898649D01*
X107648009Y-74959196D01*
X107648011Y-74959204D01*
X107699110Y-75096202D01*
X107699112Y-75096207D01*
X107786738Y-75213261D01*
X107903792Y-75300887D01*
X107903794Y-75300888D01*
X107903796Y-75300889D01*
X107946342Y-75316758D01*
X108040795Y-75351988D01*
X108040803Y-75351990D01*
X108101350Y-75358499D01*
X108101355Y-75358499D01*
X108101362Y-75358500D01*
X108101368Y-75358500D01*
X109898632Y-75358500D01*
X109898638Y-75358500D01*
X109898645Y-75358499D01*
X109898649Y-75358499D01*
X109959196Y-75351990D01*
X109959199Y-75351989D01*
X109959201Y-75351989D01*
X110096204Y-75300889D01*
X110117645Y-75284839D01*
X110213261Y-75213261D01*
X110300886Y-75096208D01*
X110300885Y-75096208D01*
X110300889Y-75096204D01*
X110344999Y-74977939D01*
X110387545Y-74921107D01*
X110454066Y-74896296D01*
X110523440Y-74911388D01*
X110555753Y-74936635D01*
X110576529Y-74959204D01*
X110616762Y-75002908D01*
X110651213Y-75029722D01*
X110794424Y-75141189D01*
X110992426Y-75248342D01*
X110992427Y-75248342D01*
X110992428Y-75248343D01*
X111098738Y-75284839D01*
X111205365Y-75321444D01*
X111427431Y-75358500D01*
X111427435Y-75358500D01*
X111652565Y-75358500D01*
X111652569Y-75358500D01*
X111874635Y-75321444D01*
X112087574Y-75248342D01*
X112285576Y-75141189D01*
X112463240Y-75002906D01*
X112615722Y-74837268D01*
X112704518Y-74701354D01*
X112758520Y-74655268D01*
X112828868Y-74645692D01*
X112893225Y-74675669D01*
X112915480Y-74701353D01*
X112919532Y-74707554D01*
X113004275Y-74837265D01*
X113004279Y-74837270D01*
X113156762Y-75002908D01*
X113191213Y-75029722D01*
X113334424Y-75141189D01*
X113532426Y-75248342D01*
X113532427Y-75248342D01*
X113532428Y-75248343D01*
X113638738Y-75284839D01*
X113745365Y-75321444D01*
X113967431Y-75358500D01*
X113967435Y-75358500D01*
X114192565Y-75358500D01*
X114192569Y-75358500D01*
X114414635Y-75321444D01*
X114627574Y-75248342D01*
X114825576Y-75141189D01*
X115003240Y-75002906D01*
X115155722Y-74837268D01*
X115244518Y-74701354D01*
X115298520Y-74655268D01*
X115368868Y-74645692D01*
X115433225Y-74675669D01*
X115455480Y-74701353D01*
X115459532Y-74707554D01*
X115544275Y-74837265D01*
X115544279Y-74837270D01*
X115696762Y-75002908D01*
X115731213Y-75029722D01*
X115874424Y-75141189D01*
X116072426Y-75248342D01*
X116072427Y-75248342D01*
X116072428Y-75248343D01*
X116178738Y-75284839D01*
X116285365Y-75321444D01*
X116507431Y-75358500D01*
X116507435Y-75358500D01*
X116732565Y-75358500D01*
X116732569Y-75358500D01*
X116954635Y-75321444D01*
X117167574Y-75248342D01*
X117365576Y-75141189D01*
X117543240Y-75002906D01*
X117695722Y-74837268D01*
X117784518Y-74701354D01*
X117838520Y-74655268D01*
X117908868Y-74645692D01*
X117973225Y-74675669D01*
X117995480Y-74701353D01*
X117999532Y-74707554D01*
X118084275Y-74837265D01*
X118084279Y-74837270D01*
X118236762Y-75002908D01*
X118271213Y-75029722D01*
X118414424Y-75141189D01*
X118612426Y-75248342D01*
X118612427Y-75248342D01*
X118612428Y-75248343D01*
X118718738Y-75284839D01*
X118825365Y-75321444D01*
X119047431Y-75358500D01*
X119047435Y-75358500D01*
X119272565Y-75358500D01*
X119272569Y-75358500D01*
X119494635Y-75321444D01*
X119707574Y-75248342D01*
X119905576Y-75141189D01*
X120083240Y-75002906D01*
X120235722Y-74837268D01*
X120324518Y-74701354D01*
X120378520Y-74655268D01*
X120448868Y-74645692D01*
X120513225Y-74675669D01*
X120535480Y-74701353D01*
X120539532Y-74707554D01*
X120624275Y-74837265D01*
X120624279Y-74837270D01*
X120776762Y-75002908D01*
X120811213Y-75029722D01*
X120954424Y-75141189D01*
X121152426Y-75248342D01*
X121152427Y-75248342D01*
X121152428Y-75248343D01*
X121258738Y-75284839D01*
X121365365Y-75321444D01*
X121587431Y-75358500D01*
X121587435Y-75358500D01*
X121812565Y-75358500D01*
X121812569Y-75358500D01*
X122034635Y-75321444D01*
X122247574Y-75248342D01*
X122445576Y-75141189D01*
X122623240Y-75002906D01*
X122775722Y-74837268D01*
X122864518Y-74701354D01*
X122918520Y-74655268D01*
X122988868Y-74645692D01*
X123053225Y-74675669D01*
X123075480Y-74701353D01*
X123079532Y-74707554D01*
X123164275Y-74837265D01*
X123164279Y-74837270D01*
X123316762Y-75002908D01*
X123351213Y-75029722D01*
X123494424Y-75141189D01*
X123692426Y-75248342D01*
X123692427Y-75248342D01*
X123692428Y-75248343D01*
X123798738Y-75284839D01*
X123905365Y-75321444D01*
X124127431Y-75358500D01*
X124127435Y-75358500D01*
X124352565Y-75358500D01*
X124352569Y-75358500D01*
X124574635Y-75321444D01*
X124787574Y-75248342D01*
X124985576Y-75141189D01*
X125163240Y-75002906D01*
X125315722Y-74837268D01*
X125404518Y-74701354D01*
X125458520Y-74655268D01*
X125528868Y-74645692D01*
X125593225Y-74675669D01*
X125615480Y-74701353D01*
X125619532Y-74707554D01*
X125704275Y-74837265D01*
X125704279Y-74837270D01*
X125856762Y-75002908D01*
X125891213Y-75029722D01*
X126034424Y-75141189D01*
X126232426Y-75248342D01*
X126232427Y-75248342D01*
X126232428Y-75248343D01*
X126338738Y-75284839D01*
X126445365Y-75321444D01*
X126667431Y-75358500D01*
X126667435Y-75358500D01*
X126892565Y-75358500D01*
X126892569Y-75358500D01*
X127114635Y-75321444D01*
X127327574Y-75248342D01*
X127525576Y-75141189D01*
X127703240Y-75002906D01*
X127855722Y-74837268D01*
X127944518Y-74701354D01*
X127998520Y-74655268D01*
X128068868Y-74645692D01*
X128133225Y-74675669D01*
X128155480Y-74701353D01*
X128159532Y-74707554D01*
X128244275Y-74837265D01*
X128244279Y-74837270D01*
X128396762Y-75002908D01*
X128431213Y-75029722D01*
X128574424Y-75141189D01*
X128772426Y-75248342D01*
X128772427Y-75248342D01*
X128772428Y-75248343D01*
X128878738Y-75284839D01*
X128985365Y-75321444D01*
X129207431Y-75358500D01*
X129207435Y-75358500D01*
X129432565Y-75358500D01*
X129432569Y-75358500D01*
X129654635Y-75321444D01*
X129867574Y-75248342D01*
X130065576Y-75141189D01*
X130243240Y-75002906D01*
X130395722Y-74837268D01*
X130484518Y-74701354D01*
X130538520Y-74655268D01*
X130608868Y-74645692D01*
X130673225Y-74675669D01*
X130695480Y-74701353D01*
X130699532Y-74707554D01*
X130784275Y-74837265D01*
X130784279Y-74837270D01*
X130936762Y-75002908D01*
X130971213Y-75029722D01*
X131114424Y-75141189D01*
X131312426Y-75248342D01*
X131312427Y-75248342D01*
X131312428Y-75248343D01*
X131418738Y-75284839D01*
X131525365Y-75321444D01*
X131747431Y-75358500D01*
X131747435Y-75358500D01*
X131972565Y-75358500D01*
X131972569Y-75358500D01*
X132194635Y-75321444D01*
X132407574Y-75248342D01*
X132605576Y-75141189D01*
X132783240Y-75002906D01*
X132935722Y-74837268D01*
X133024518Y-74701354D01*
X133078520Y-74655268D01*
X133148868Y-74645692D01*
X133213225Y-74675669D01*
X133235480Y-74701353D01*
X133239532Y-74707554D01*
X133324275Y-74837265D01*
X133324279Y-74837270D01*
X133476762Y-75002908D01*
X133511213Y-75029722D01*
X133654424Y-75141189D01*
X133852426Y-75248342D01*
X133852427Y-75248342D01*
X133852428Y-75248343D01*
X133958738Y-75284839D01*
X134065365Y-75321444D01*
X134287431Y-75358500D01*
X134287435Y-75358500D01*
X134512565Y-75358500D01*
X134512569Y-75358500D01*
X134734635Y-75321444D01*
X134947574Y-75248342D01*
X135145576Y-75141189D01*
X135323240Y-75002906D01*
X135475722Y-74837268D01*
X135564518Y-74701354D01*
X135618520Y-74655268D01*
X135688868Y-74645692D01*
X135753225Y-74675669D01*
X135775480Y-74701353D01*
X135779532Y-74707554D01*
X135864275Y-74837265D01*
X135864279Y-74837270D01*
X136016762Y-75002908D01*
X136051213Y-75029722D01*
X136194424Y-75141189D01*
X136392426Y-75248342D01*
X136392427Y-75248342D01*
X136392428Y-75248343D01*
X136498738Y-75284839D01*
X136605365Y-75321444D01*
X136827431Y-75358500D01*
X136827435Y-75358500D01*
X137052565Y-75358500D01*
X137052569Y-75358500D01*
X137274635Y-75321444D01*
X137487574Y-75248342D01*
X137685576Y-75141189D01*
X137863240Y-75002906D01*
X138015722Y-74837268D01*
X138104518Y-74701354D01*
X138158520Y-74655268D01*
X138228868Y-74645692D01*
X138293225Y-74675669D01*
X138315480Y-74701353D01*
X138319532Y-74707554D01*
X138404275Y-74837265D01*
X138404279Y-74837270D01*
X138556762Y-75002908D01*
X138591213Y-75029722D01*
X138734424Y-75141189D01*
X138932426Y-75248342D01*
X138932427Y-75248342D01*
X138932428Y-75248343D01*
X139038738Y-75284839D01*
X139145365Y-75321444D01*
X139367431Y-75358500D01*
X139367435Y-75358500D01*
X139592565Y-75358500D01*
X139592569Y-75358500D01*
X139814635Y-75321444D01*
X140027574Y-75248342D01*
X140225576Y-75141189D01*
X140403240Y-75002906D01*
X140555722Y-74837268D01*
X140644518Y-74701354D01*
X140698520Y-74655268D01*
X140768868Y-74645692D01*
X140833225Y-74675669D01*
X140855480Y-74701353D01*
X140859532Y-74707554D01*
X140944275Y-74837265D01*
X140944279Y-74837270D01*
X141096762Y-75002908D01*
X141131213Y-75029722D01*
X141274424Y-75141189D01*
X141472426Y-75248342D01*
X141472427Y-75248342D01*
X141472428Y-75248343D01*
X141578738Y-75284839D01*
X141685365Y-75321444D01*
X141907431Y-75358500D01*
X141907435Y-75358500D01*
X142132565Y-75358500D01*
X142132569Y-75358500D01*
X142354635Y-75321444D01*
X142567574Y-75248342D01*
X142765576Y-75141189D01*
X142943240Y-75002906D01*
X143095722Y-74837268D01*
X143184518Y-74701354D01*
X143238520Y-74655268D01*
X143308868Y-74645692D01*
X143373225Y-74675669D01*
X143395480Y-74701353D01*
X143399532Y-74707554D01*
X143484275Y-74837265D01*
X143484279Y-74837270D01*
X143636762Y-75002908D01*
X143671213Y-75029722D01*
X143814424Y-75141189D01*
X144012426Y-75248342D01*
X144012427Y-75248342D01*
X144012428Y-75248343D01*
X144118738Y-75284839D01*
X144225365Y-75321444D01*
X144447431Y-75358500D01*
X144447435Y-75358500D01*
X144672565Y-75358500D01*
X144672569Y-75358500D01*
X144894635Y-75321444D01*
X145107574Y-75248342D01*
X145305576Y-75141189D01*
X145483240Y-75002906D01*
X145635722Y-74837268D01*
X145724518Y-74701354D01*
X145778520Y-74655268D01*
X145848868Y-74645692D01*
X145913225Y-74675669D01*
X145935480Y-74701353D01*
X145939532Y-74707554D01*
X146024275Y-74837265D01*
X146024279Y-74837270D01*
X146176762Y-75002908D01*
X146211213Y-75029722D01*
X146354424Y-75141189D01*
X146552426Y-75248342D01*
X146552427Y-75248342D01*
X146552428Y-75248343D01*
X146658738Y-75284839D01*
X146765365Y-75321444D01*
X146987431Y-75358500D01*
X146987435Y-75358500D01*
X147212565Y-75358500D01*
X147212569Y-75358500D01*
X147434635Y-75321444D01*
X147647574Y-75248342D01*
X147845576Y-75141189D01*
X148023240Y-75002906D01*
X148175722Y-74837268D01*
X148298860Y-74648791D01*
X148389296Y-74442616D01*
X148444564Y-74224368D01*
X148463156Y-74000000D01*
X162137157Y-74000000D01*
X162156514Y-74332345D01*
X162156515Y-74332354D01*
X162214325Y-74660215D01*
X162214325Y-74660216D01*
X162309809Y-74979152D01*
X162309808Y-74979152D01*
X162441668Y-75284839D01*
X162441671Y-75284844D01*
X162608123Y-75573146D01*
X162608133Y-75573162D01*
X162804227Y-75836562D01*
X163882348Y-74758441D01*
X163970278Y-74879466D01*
X164120534Y-75029722D01*
X164241557Y-75117650D01*
X163166686Y-76192522D01*
X163290432Y-76296355D01*
X163290433Y-76296356D01*
X163568570Y-76479290D01*
X163866090Y-76628710D01*
X164178924Y-76742572D01*
X164178927Y-76742573D01*
X164502867Y-76819348D01*
X164502877Y-76819350D01*
X164833537Y-76858000D01*
X165166463Y-76858000D01*
X165497122Y-76819350D01*
X165497132Y-76819348D01*
X165821072Y-76742573D01*
X165821075Y-76742572D01*
X166133909Y-76628710D01*
X166431429Y-76479290D01*
X166709566Y-76296356D01*
X166833312Y-76192522D01*
X166833312Y-76192521D01*
X165758441Y-75117650D01*
X165879466Y-75029722D01*
X166029722Y-74879466D01*
X166117650Y-74758441D01*
X167195771Y-75836562D01*
X167195772Y-75836562D01*
X167391859Y-75573173D01*
X167391876Y-75573146D01*
X167558328Y-75284844D01*
X167558331Y-75284839D01*
X167690190Y-74979152D01*
X167785674Y-74660216D01*
X167785674Y-74660215D01*
X167843484Y-74332354D01*
X167843485Y-74332345D01*
X167862842Y-74000000D01*
X167843485Y-73667654D01*
X167843484Y-73667645D01*
X167785674Y-73339784D01*
X167785674Y-73339783D01*
X167690190Y-73020847D01*
X167690191Y-73020847D01*
X167558331Y-72715160D01*
X167558328Y-72715155D01*
X167391876Y-72426853D01*
X167391858Y-72426826D01*
X167195771Y-72163436D01*
X166117650Y-73241557D01*
X166029722Y-73120534D01*
X165879466Y-72970278D01*
X165758441Y-72882348D01*
X166833312Y-71807477D01*
X166833312Y-71807476D01*
X166709567Y-71703644D01*
X166709566Y-71703643D01*
X166431429Y-71520709D01*
X166133909Y-71371289D01*
X165821075Y-71257427D01*
X165821072Y-71257426D01*
X165497132Y-71180651D01*
X165497122Y-71180649D01*
X165166463Y-71142000D01*
X164833537Y-71142000D01*
X164502877Y-71180649D01*
X164502867Y-71180651D01*
X164178927Y-71257426D01*
X164178924Y-71257427D01*
X163866090Y-71371289D01*
X163568570Y-71520709D01*
X163290437Y-71703641D01*
X163290427Y-71703648D01*
X163166687Y-71807477D01*
X163166687Y-71807478D01*
X164241558Y-72882349D01*
X164120534Y-72970278D01*
X163970278Y-73120534D01*
X163882349Y-73241558D01*
X162804227Y-72163436D01*
X162608133Y-72426837D01*
X162608123Y-72426853D01*
X162441671Y-72715155D01*
X162441668Y-72715160D01*
X162309809Y-73020847D01*
X162214325Y-73339783D01*
X162214325Y-73339784D01*
X162156515Y-73667645D01*
X162156514Y-73667654D01*
X162137157Y-74000000D01*
X148463156Y-74000000D01*
X148444564Y-73775632D01*
X148389296Y-73557384D01*
X148298860Y-73351209D01*
X148281500Y-73324637D01*
X148175724Y-73162734D01*
X148175720Y-73162729D01*
X148045106Y-73020847D01*
X148023240Y-72997094D01*
X148023239Y-72997093D01*
X148023237Y-72997091D01*
X147903367Y-72903792D01*
X147845576Y-72858811D01*
X147647574Y-72751658D01*
X147647572Y-72751657D01*
X147647571Y-72751656D01*
X147434639Y-72678557D01*
X147434630Y-72678555D01*
X147390476Y-72671187D01*
X147212569Y-72641500D01*
X146987431Y-72641500D01*
X146839211Y-72666233D01*
X146765369Y-72678555D01*
X146765360Y-72678557D01*
X146552428Y-72751656D01*
X146552426Y-72751658D01*
X146354426Y-72858810D01*
X146354424Y-72858811D01*
X146176762Y-72997091D01*
X146024279Y-73162729D01*
X145935483Y-73298643D01*
X145881479Y-73344731D01*
X145811131Y-73354306D01*
X145746774Y-73324329D01*
X145724517Y-73298643D01*
X145635720Y-73162729D01*
X145505106Y-73020847D01*
X145483240Y-72997094D01*
X145483239Y-72997093D01*
X145483237Y-72997091D01*
X145363367Y-72903792D01*
X145305576Y-72858811D01*
X145107574Y-72751658D01*
X145107572Y-72751657D01*
X145107571Y-72751656D01*
X144894639Y-72678557D01*
X144894630Y-72678555D01*
X144850476Y-72671187D01*
X144672569Y-72641500D01*
X144447431Y-72641500D01*
X144299211Y-72666233D01*
X144225369Y-72678555D01*
X144225360Y-72678557D01*
X144012428Y-72751656D01*
X144012426Y-72751658D01*
X143814426Y-72858810D01*
X143814424Y-72858811D01*
X143636762Y-72997091D01*
X143484279Y-73162729D01*
X143395483Y-73298643D01*
X143341479Y-73344731D01*
X143271131Y-73354306D01*
X143206774Y-73324329D01*
X143184517Y-73298643D01*
X143095720Y-73162729D01*
X142965106Y-73020847D01*
X142943240Y-72997094D01*
X142943239Y-72997093D01*
X142943237Y-72997091D01*
X142823367Y-72903792D01*
X142765576Y-72858811D01*
X142567574Y-72751658D01*
X142567572Y-72751657D01*
X142567571Y-72751656D01*
X142354639Y-72678557D01*
X142354630Y-72678555D01*
X142310476Y-72671187D01*
X142132569Y-72641500D01*
X141907431Y-72641500D01*
X141759211Y-72666233D01*
X141685369Y-72678555D01*
X141685360Y-72678557D01*
X141472428Y-72751656D01*
X141472426Y-72751658D01*
X141274426Y-72858810D01*
X141274424Y-72858811D01*
X141096762Y-72997091D01*
X140944279Y-73162729D01*
X140855483Y-73298643D01*
X140801479Y-73344731D01*
X140731131Y-73354306D01*
X140666774Y-73324329D01*
X140644517Y-73298643D01*
X140555720Y-73162729D01*
X140425106Y-73020847D01*
X140403240Y-72997094D01*
X140403239Y-72997093D01*
X140403237Y-72997091D01*
X140283367Y-72903792D01*
X140225576Y-72858811D01*
X140027574Y-72751658D01*
X140027572Y-72751657D01*
X140027571Y-72751656D01*
X139814639Y-72678557D01*
X139814630Y-72678555D01*
X139770476Y-72671187D01*
X139592569Y-72641500D01*
X139367431Y-72641500D01*
X139219211Y-72666233D01*
X139145369Y-72678555D01*
X139145360Y-72678557D01*
X138932428Y-72751656D01*
X138932426Y-72751658D01*
X138734426Y-72858810D01*
X138734424Y-72858811D01*
X138556762Y-72997091D01*
X138404279Y-73162729D01*
X138315483Y-73298643D01*
X138261479Y-73344731D01*
X138191131Y-73354306D01*
X138126774Y-73324329D01*
X138104517Y-73298643D01*
X138015720Y-73162729D01*
X137885106Y-73020847D01*
X137863240Y-72997094D01*
X137863239Y-72997093D01*
X137863237Y-72997091D01*
X137743367Y-72903792D01*
X137685576Y-72858811D01*
X137487574Y-72751658D01*
X137487572Y-72751657D01*
X137487571Y-72751656D01*
X137274639Y-72678557D01*
X137274630Y-72678555D01*
X137230476Y-72671187D01*
X137052569Y-72641500D01*
X136827431Y-72641500D01*
X136679211Y-72666233D01*
X136605369Y-72678555D01*
X136605360Y-72678557D01*
X136392428Y-72751656D01*
X136392426Y-72751658D01*
X136194426Y-72858810D01*
X136194424Y-72858811D01*
X136016762Y-72997091D01*
X135864279Y-73162729D01*
X135775483Y-73298643D01*
X135721479Y-73344731D01*
X135651131Y-73354306D01*
X135586774Y-73324329D01*
X135564517Y-73298643D01*
X135475720Y-73162729D01*
X135345106Y-73020847D01*
X135323240Y-72997094D01*
X135323239Y-72997093D01*
X135323237Y-72997091D01*
X135203367Y-72903792D01*
X135145576Y-72858811D01*
X134947574Y-72751658D01*
X134947572Y-72751657D01*
X134947571Y-72751656D01*
X134734639Y-72678557D01*
X134734630Y-72678555D01*
X134690476Y-72671187D01*
X134512569Y-72641500D01*
X134287431Y-72641500D01*
X134139211Y-72666233D01*
X134065369Y-72678555D01*
X134065360Y-72678557D01*
X133852428Y-72751656D01*
X133852426Y-72751658D01*
X133654426Y-72858810D01*
X133654424Y-72858811D01*
X133476762Y-72997091D01*
X133324279Y-73162729D01*
X133235483Y-73298643D01*
X133181479Y-73344731D01*
X133111131Y-73354306D01*
X133046774Y-73324329D01*
X133024517Y-73298643D01*
X132935720Y-73162729D01*
X132805106Y-73020847D01*
X132783240Y-72997094D01*
X132783239Y-72997093D01*
X132783237Y-72997091D01*
X132663367Y-72903792D01*
X132605576Y-72858811D01*
X132407574Y-72751658D01*
X132407572Y-72751657D01*
X132407571Y-72751656D01*
X132194639Y-72678557D01*
X132194630Y-72678555D01*
X132150476Y-72671187D01*
X131972569Y-72641500D01*
X131747431Y-72641500D01*
X131599211Y-72666233D01*
X131525369Y-72678555D01*
X131525360Y-72678557D01*
X131312428Y-72751656D01*
X131312426Y-72751658D01*
X131114426Y-72858810D01*
X131114424Y-72858811D01*
X130936762Y-72997091D01*
X130784279Y-73162729D01*
X130695483Y-73298643D01*
X130641479Y-73344731D01*
X130571131Y-73354306D01*
X130506774Y-73324329D01*
X130484517Y-73298643D01*
X130395720Y-73162729D01*
X130265106Y-73020847D01*
X130243240Y-72997094D01*
X130243239Y-72997093D01*
X130243237Y-72997091D01*
X130123367Y-72903792D01*
X130065576Y-72858811D01*
X129867574Y-72751658D01*
X129867572Y-72751657D01*
X129867571Y-72751656D01*
X129654639Y-72678557D01*
X129654630Y-72678555D01*
X129610476Y-72671187D01*
X129432569Y-72641500D01*
X129207431Y-72641500D01*
X129059211Y-72666233D01*
X128985369Y-72678555D01*
X128985360Y-72678557D01*
X128772428Y-72751656D01*
X128772426Y-72751658D01*
X128574426Y-72858810D01*
X128574424Y-72858811D01*
X128396762Y-72997091D01*
X128244279Y-73162729D01*
X128155483Y-73298643D01*
X128101479Y-73344731D01*
X128031131Y-73354306D01*
X127966774Y-73324329D01*
X127944517Y-73298643D01*
X127855720Y-73162729D01*
X127725106Y-73020847D01*
X127703240Y-72997094D01*
X127703239Y-72997093D01*
X127703237Y-72997091D01*
X127583367Y-72903792D01*
X127525576Y-72858811D01*
X127327574Y-72751658D01*
X127327572Y-72751657D01*
X127327571Y-72751656D01*
X127114639Y-72678557D01*
X127114630Y-72678555D01*
X127070476Y-72671187D01*
X126892569Y-72641500D01*
X126667431Y-72641500D01*
X126519211Y-72666233D01*
X126445369Y-72678555D01*
X126445360Y-72678557D01*
X126232428Y-72751656D01*
X126232426Y-72751658D01*
X126034426Y-72858810D01*
X126034424Y-72858811D01*
X125856762Y-72997091D01*
X125704279Y-73162729D01*
X125615483Y-73298643D01*
X125561479Y-73344731D01*
X125491131Y-73354306D01*
X125426774Y-73324329D01*
X125404517Y-73298643D01*
X125315720Y-73162729D01*
X125185106Y-73020847D01*
X125163240Y-72997094D01*
X125163239Y-72997093D01*
X125163237Y-72997091D01*
X125043367Y-72903792D01*
X124985576Y-72858811D01*
X124787574Y-72751658D01*
X124787572Y-72751657D01*
X124787571Y-72751656D01*
X124574639Y-72678557D01*
X124574630Y-72678555D01*
X124530476Y-72671187D01*
X124352569Y-72641500D01*
X124127431Y-72641500D01*
X123979211Y-72666233D01*
X123905369Y-72678555D01*
X123905360Y-72678557D01*
X123692428Y-72751656D01*
X123692426Y-72751658D01*
X123494426Y-72858810D01*
X123494424Y-72858811D01*
X123316762Y-72997091D01*
X123164279Y-73162729D01*
X123075483Y-73298643D01*
X123021479Y-73344731D01*
X122951131Y-73354306D01*
X122886774Y-73324329D01*
X122864517Y-73298643D01*
X122775720Y-73162729D01*
X122645106Y-73020847D01*
X122623240Y-72997094D01*
X122623239Y-72997093D01*
X122623237Y-72997091D01*
X122503367Y-72903792D01*
X122445576Y-72858811D01*
X122247574Y-72751658D01*
X122247572Y-72751657D01*
X122247571Y-72751656D01*
X122034639Y-72678557D01*
X122034630Y-72678555D01*
X121990476Y-72671187D01*
X121812569Y-72641500D01*
X121587431Y-72641500D01*
X121439211Y-72666233D01*
X121365369Y-72678555D01*
X121365360Y-72678557D01*
X121152428Y-72751656D01*
X121152426Y-72751658D01*
X120954426Y-72858810D01*
X120954424Y-72858811D01*
X120776762Y-72997091D01*
X120624279Y-73162729D01*
X120535483Y-73298643D01*
X120481479Y-73344731D01*
X120411131Y-73354306D01*
X120346774Y-73324329D01*
X120324517Y-73298643D01*
X120235720Y-73162729D01*
X120105106Y-73020847D01*
X120083240Y-72997094D01*
X120083239Y-72997093D01*
X120083237Y-72997091D01*
X119963367Y-72903792D01*
X119905576Y-72858811D01*
X119707574Y-72751658D01*
X119707572Y-72751657D01*
X119707571Y-72751656D01*
X119494639Y-72678557D01*
X119494630Y-72678555D01*
X119450476Y-72671187D01*
X119272569Y-72641500D01*
X119047431Y-72641500D01*
X118899211Y-72666233D01*
X118825369Y-72678555D01*
X118825360Y-72678557D01*
X118612428Y-72751656D01*
X118612426Y-72751658D01*
X118414426Y-72858810D01*
X118414424Y-72858811D01*
X118236762Y-72997091D01*
X118084279Y-73162729D01*
X117995483Y-73298643D01*
X117941479Y-73344731D01*
X117871131Y-73354306D01*
X117806774Y-73324329D01*
X117784517Y-73298643D01*
X117695720Y-73162729D01*
X117565106Y-73020847D01*
X117543240Y-72997094D01*
X117543239Y-72997093D01*
X117543237Y-72997091D01*
X117423367Y-72903792D01*
X117365576Y-72858811D01*
X117167574Y-72751658D01*
X117167572Y-72751657D01*
X117167571Y-72751656D01*
X116954639Y-72678557D01*
X116954630Y-72678555D01*
X116910476Y-72671187D01*
X116732569Y-72641500D01*
X116507431Y-72641500D01*
X116359211Y-72666233D01*
X116285369Y-72678555D01*
X116285360Y-72678557D01*
X116072428Y-72751656D01*
X116072426Y-72751658D01*
X115874426Y-72858810D01*
X115874424Y-72858811D01*
X115696762Y-72997091D01*
X115544279Y-73162729D01*
X115455483Y-73298643D01*
X115401479Y-73344731D01*
X115331131Y-73354306D01*
X115266774Y-73324329D01*
X115244517Y-73298643D01*
X115155720Y-73162729D01*
X115025106Y-73020847D01*
X115003240Y-72997094D01*
X115003239Y-72997093D01*
X115003237Y-72997091D01*
X114883367Y-72903792D01*
X114825576Y-72858811D01*
X114627574Y-72751658D01*
X114627572Y-72751657D01*
X114627571Y-72751656D01*
X114414639Y-72678557D01*
X114414630Y-72678555D01*
X114370476Y-72671187D01*
X114192569Y-72641500D01*
X113967431Y-72641500D01*
X113819211Y-72666233D01*
X113745369Y-72678555D01*
X113745360Y-72678557D01*
X113532428Y-72751656D01*
X113532426Y-72751658D01*
X113334426Y-72858810D01*
X113334424Y-72858811D01*
X113156762Y-72997091D01*
X113004279Y-73162729D01*
X112915483Y-73298643D01*
X112861479Y-73344731D01*
X112791131Y-73354306D01*
X112726774Y-73324329D01*
X112704517Y-73298643D01*
X112615720Y-73162729D01*
X112485106Y-73020847D01*
X112463240Y-72997094D01*
X112463239Y-72997093D01*
X112463237Y-72997091D01*
X112343367Y-72903792D01*
X112285576Y-72858811D01*
X112087574Y-72751658D01*
X112087572Y-72751657D01*
X112087571Y-72751656D01*
X111874639Y-72678557D01*
X111874630Y-72678555D01*
X111830476Y-72671187D01*
X111652569Y-72641500D01*
X111427431Y-72641500D01*
X111279211Y-72666233D01*
X111205369Y-72678555D01*
X111205360Y-72678557D01*
X110992428Y-72751656D01*
X110992426Y-72751658D01*
X110794426Y-72858810D01*
X110794424Y-72858811D01*
X110616762Y-72997091D01*
X110555754Y-73063363D01*
X110494901Y-73099933D01*
X110423936Y-73097798D01*
X110365391Y-73057636D01*
X110344999Y-73022057D01*
X110300889Y-72903797D01*
X110300887Y-72903792D01*
X110213261Y-72786738D01*
X110096207Y-72699112D01*
X110096202Y-72699110D01*
X109959204Y-72648011D01*
X109959196Y-72648009D01*
X109898649Y-72641500D01*
X109898638Y-72641500D01*
X108101362Y-72641500D01*
X108101350Y-72641500D01*
X108040803Y-72648009D01*
X108040795Y-72648011D01*
X107903797Y-72699110D01*
X107903792Y-72699112D01*
X107786738Y-72786738D01*
X107699112Y-72903792D01*
X107699110Y-72903797D01*
X107648011Y-73040795D01*
X107648009Y-73040803D01*
X107641500Y-73101350D01*
X106714291Y-73101350D01*
X106690190Y-73020847D01*
X106690191Y-73020847D01*
X106558331Y-72715160D01*
X106558328Y-72715155D01*
X106391876Y-72426853D01*
X106391858Y-72426826D01*
X106195771Y-72163436D01*
X105117650Y-73241557D01*
X105029722Y-73120534D01*
X104879466Y-72970278D01*
X104758441Y-72882348D01*
X105833312Y-71807477D01*
X105833312Y-71807476D01*
X105709567Y-71703644D01*
X105709566Y-71703643D01*
X105431429Y-71520709D01*
X105133909Y-71371289D01*
X104821075Y-71257427D01*
X104821072Y-71257426D01*
X104497132Y-71180651D01*
X104497122Y-71180649D01*
X104166463Y-71142000D01*
X103833537Y-71142000D01*
X103502877Y-71180649D01*
X103502867Y-71180651D01*
X103178927Y-71257426D01*
X103178924Y-71257427D01*
X102866090Y-71371289D01*
X102568570Y-71520709D01*
X102290437Y-71703641D01*
X102290427Y-71703648D01*
X102166687Y-71807477D01*
X102166687Y-71807478D01*
X103241558Y-72882349D01*
X103120534Y-72970278D01*
X102970278Y-73120534D01*
X102882349Y-73241558D01*
X101804227Y-72163436D01*
X101608133Y-72426837D01*
X101608123Y-72426853D01*
X101441671Y-72715155D01*
X101441668Y-72715160D01*
X101309809Y-73020847D01*
X101214325Y-73339783D01*
X101214325Y-73339784D01*
X101156515Y-73667645D01*
X101156514Y-73667654D01*
X101137157Y-74000000D01*
X100284000Y-74000000D01*
X100284000Y-71817780D01*
X100297733Y-71760578D01*
X100339292Y-71679011D01*
X100421014Y-71518623D01*
X100427596Y-71507222D01*
X100589994Y-71257151D01*
X100597725Y-71246512D01*
X100785369Y-71014790D01*
X100794175Y-71005011D01*
X101005011Y-70794175D01*
X101014790Y-70785369D01*
X101246512Y-70597725D01*
X101257151Y-70589994D01*
X101507222Y-70427596D01*
X101518623Y-70421014D01*
X101784280Y-70285655D01*
X101796328Y-70280292D01*
X102074663Y-70173449D01*
X102087200Y-70169374D01*
X102328224Y-70104792D01*
X102360835Y-70100500D01*
X166639165Y-70100500D01*
X166671776Y-70104793D01*
G37*
G04 #@! TD.AperFunction*
M02*
