G04 #@! TF.GenerationSoftware,KiCad,Pcbnew,8.0.3+1*
G04 #@! TF.CreationDate,2024-08-19T09:37:56+00:00*
G04 #@! TF.ProjectId,STM32103_Devel,53544d33-3231-4303-935f-446576656c2e,0.0.3*
G04 #@! TF.SameCoordinates,Original*
G04 #@! TF.FileFunction,Copper,L4,Bot*
G04 #@! TF.FilePolarity,Positive*
%FSLAX46Y46*%
G04 Gerber Fmt 4.6, Leading zero omitted, Abs format (unit mm)*
G04 Created by KiCad (PCBNEW 8.0.3+1) date 2024-08-19 09:37:56*
%MOMM*%
%LPD*%
G01*
G04 APERTURE LIST*
G04 #@! TA.AperFunction,ComponentPad*
%ADD10C,4.700000*%
G04 #@! TD*
G04 #@! TA.AperFunction,ComponentPad*
%ADD11O,1.600000X0.900000*%
G04 #@! TD*
G04 #@! TA.AperFunction,ComponentPad*
%ADD12R,1.700000X1.700000*%
G04 #@! TD*
G04 #@! TA.AperFunction,ComponentPad*
%ADD13O,1.700000X1.700000*%
G04 #@! TD*
G04 #@! TA.AperFunction,ViaPad*
%ADD14C,0.800000*%
G04 #@! TD*
G04 #@! TA.AperFunction,Conductor*
%ADD15C,0.250000*%
G04 #@! TD*
G04 APERTURE END LIST*
D10*
X165000000Y-116000000D03*
X165000000Y-74000000D03*
X104000000Y-74000000D03*
X104000000Y-116000000D03*
D11*
X167500000Y-89300000D03*
X167500000Y-82700000D03*
D12*
X109000000Y-74000000D03*
D13*
X111540000Y-74000000D03*
X114080000Y-74000000D03*
X116620000Y-74000000D03*
X119160000Y-74000000D03*
X121700000Y-74000000D03*
X124240000Y-74000000D03*
X126780000Y-74000000D03*
X129320000Y-74000000D03*
X131860000Y-74000000D03*
X134400000Y-74000000D03*
X136940000Y-74000000D03*
X139480000Y-74000000D03*
X142020000Y-74000000D03*
X144560000Y-74000000D03*
X147100000Y-74000000D03*
D12*
X109000000Y-116000000D03*
D13*
X111540000Y-116000000D03*
X114080000Y-116000000D03*
X116620000Y-116000000D03*
X119160000Y-116000000D03*
X121700000Y-116000000D03*
X124240000Y-116000000D03*
X126780000Y-116000000D03*
X129320000Y-116000000D03*
X131860000Y-116000000D03*
X134400000Y-116000000D03*
X136940000Y-116000000D03*
X139480000Y-116000000D03*
X142020000Y-116000000D03*
X144560000Y-116000000D03*
X147100000Y-116000000D03*
D12*
X153000000Y-76400000D03*
D13*
X153000000Y-73860000D03*
X155540000Y-76400000D03*
X155540000Y-73860000D03*
X158080000Y-76400000D03*
X158080000Y-73860000D03*
D12*
X165400000Y-95200000D03*
D13*
X165400000Y-97740000D03*
X162860000Y-95200000D03*
X162860000Y-97740000D03*
X160320000Y-95200000D03*
X160320000Y-97740000D03*
G04 #@! TA.AperFunction,SMDPad,CuDef*
G36*
X127475000Y-108000000D02*
G01*
X126975000Y-108750000D01*
X125975000Y-108750000D01*
X125975000Y-107250000D01*
X126975000Y-107250000D01*
X127475000Y-108000000D01*
G37*
G04 #@! TD.AperFunction*
G04 #@! TA.AperFunction,SMDPad,CuDef*
G36*
X128425000Y-108750000D02*
G01*
X127275000Y-108750000D01*
X127775000Y-108000000D01*
X127275000Y-107250000D01*
X128425000Y-107250000D01*
X128425000Y-108750000D01*
G37*
G04 #@! TD.AperFunction*
G04 #@! TA.AperFunction,SMDPad,CuDef*
G36*
X127475000Y-105000000D02*
G01*
X126975000Y-105750000D01*
X125975000Y-105750000D01*
X125975000Y-104250000D01*
X126975000Y-104250000D01*
X127475000Y-105000000D01*
G37*
G04 #@! TD.AperFunction*
G04 #@! TA.AperFunction,SMDPad,CuDef*
G36*
X128425000Y-105750000D02*
G01*
X127275000Y-105750000D01*
X127775000Y-105000000D01*
X127275000Y-104250000D01*
X128425000Y-104250000D01*
X128425000Y-105750000D01*
G37*
G04 #@! TD.AperFunction*
D14*
X133046000Y-86812000D03*
X123140000Y-81224000D03*
X122378000Y-85034000D03*
X130760000Y-101036000D03*
X116944443Y-88181557D03*
X104344000Y-103322000D03*
X142284000Y-78890000D03*
X145084000Y-105000000D03*
X146100000Y-105000000D03*
X114846300Y-83906600D03*
X148000000Y-97956000D03*
X114820900Y-77912200D03*
X133800000Y-106600000D03*
X165800000Y-111600000D03*
X114504000Y-91130000D03*
X153600000Y-97200000D03*
X146000000Y-85800000D03*
X104200000Y-110000000D03*
X124000000Y-87500000D03*
X126378000Y-78811000D03*
X127000000Y-90200000D03*
X133600000Y-102200000D03*
X131000000Y-110000000D03*
X110500000Y-81000000D03*
X128728000Y-80970000D03*
X140000000Y-111000000D03*
X120350661Y-91633341D03*
X137872000Y-89969009D03*
X137872000Y-99512000D03*
X125426000Y-84782301D03*
X126442000Y-84018000D03*
X127975000Y-83002000D03*
X124200000Y-104800000D03*
X127975000Y-81986000D03*
X124200000Y-106200000D03*
X129490000Y-80208000D03*
X140412000Y-84272000D03*
X130435840Y-78571897D03*
X159600000Y-107400000D03*
X140920000Y-89098000D03*
X139396000Y-103576000D03*
X139904000Y-89098000D03*
X138888000Y-102052000D03*
X158075000Y-108600000D03*
X138779999Y-89243999D03*
X138380000Y-100782000D03*
X159600000Y-110000000D03*
X132284000Y-96718000D03*
X133300000Y-96718000D03*
X133300000Y-95702000D03*
X132284000Y-95702000D03*
X130252000Y-94178000D03*
X129490000Y-93416000D03*
X128601000Y-99258008D03*
X127999990Y-100093718D03*
X128994924Y-98211844D03*
X120790499Y-82303501D03*
X129200000Y-105000000D03*
X129200000Y-108000000D03*
D15*
X128728000Y-76398000D02*
X129118610Y-76788610D01*
X124156000Y-75382000D02*
X124664000Y-75890000D01*
X130885590Y-77414000D02*
X131522000Y-77414000D01*
X124664000Y-75890000D02*
X126442000Y-75890000D01*
X121700000Y-74704000D02*
X122378000Y-75382000D01*
X131776000Y-77668000D02*
X131776000Y-79954000D01*
X121700000Y-74000000D02*
X121700000Y-74704000D01*
X126950000Y-76398000D02*
X128728000Y-76398000D01*
X130760000Y-80970000D02*
X128728000Y-80970000D01*
X122378000Y-75382000D02*
X124156000Y-75382000D01*
X126442000Y-75890000D02*
X126950000Y-76398000D01*
X131776000Y-79954000D02*
X130760000Y-80970000D01*
X131522000Y-77414000D02*
X131776000Y-77668000D01*
X130260200Y-76788610D02*
X130885590Y-77414000D01*
X129118610Y-76788610D02*
X130260200Y-76788610D01*
X120350661Y-91633341D02*
X119838000Y-92146002D01*
X139804000Y-111196000D02*
X140000000Y-111000000D01*
X124664000Y-111196000D02*
X139804000Y-111196000D01*
X119838000Y-92146002D02*
X119838000Y-106370000D01*
X119838000Y-106370000D02*
X124664000Y-111196000D01*
X137872000Y-99512000D02*
X137872000Y-89969009D01*
X131860000Y-74958000D02*
X131860000Y-74000000D01*
X133576042Y-83487958D02*
X133576042Y-75867958D01*
X133090084Y-75382000D02*
X133576042Y-75867958D01*
X125426000Y-84782301D02*
X132281699Y-84782301D01*
X132284000Y-75382000D02*
X131860000Y-74958000D01*
X133046000Y-75382000D02*
X132284000Y-75382000D01*
X133046000Y-75382000D02*
X133090084Y-75382000D01*
X132281699Y-84782301D02*
X133576042Y-83487958D01*
X133126031Y-76674041D02*
X133126031Y-82921969D01*
X129998000Y-75382000D02*
X131268000Y-75382000D01*
X132030000Y-84018000D02*
X126442000Y-84018000D01*
X131268000Y-75382000D02*
X131776000Y-75890000D01*
X133126031Y-82921969D02*
X132030000Y-84018000D01*
X131776000Y-75890000D02*
X132341990Y-75890000D01*
X129320000Y-74704000D02*
X129998000Y-75382000D01*
X129320000Y-74000000D02*
X129320000Y-74704000D01*
X132341990Y-75890000D02*
X133126031Y-76674041D01*
X130758590Y-75888590D02*
X131268000Y-76398000D01*
X131268000Y-76398000D02*
X132030000Y-76398000D01*
X132030000Y-76398000D02*
X132676020Y-77044020D01*
X132676020Y-77044020D02*
X132676020Y-82101980D01*
X126780000Y-74000000D02*
X128162000Y-75382000D01*
X131776000Y-83002000D02*
X127975000Y-83002000D01*
X132676020Y-82101980D02*
X131776000Y-83002000D01*
X128162000Y-75382000D02*
X128984821Y-75382000D01*
X128984821Y-75382000D02*
X129491410Y-75888590D01*
X129491410Y-75888590D02*
X130758590Y-75888590D01*
X124400000Y-105000000D02*
X124200000Y-104800000D01*
X126475000Y-105000000D02*
X124400000Y-105000000D01*
X132226009Y-81535991D02*
X131776000Y-81986000D01*
X127204000Y-75890000D02*
X128856411Y-75890000D01*
X131901590Y-76906000D02*
X132226009Y-77230419D01*
X130446600Y-76338600D02*
X131014000Y-76906000D01*
X129305010Y-76338600D02*
X130446600Y-76338600D01*
X126696000Y-75382000D02*
X127204000Y-75890000D01*
X125622000Y-75382000D02*
X126696000Y-75382000D01*
X132226009Y-77230419D02*
X132226009Y-81535991D01*
X128856411Y-75890000D02*
X129305010Y-76338600D01*
X124240000Y-74000000D02*
X125622000Y-75382000D01*
X131014000Y-76906000D02*
X131901590Y-76906000D01*
X131776000Y-81986000D02*
X127975000Y-81986000D01*
X125000000Y-108000000D02*
X124200000Y-107200000D01*
X126475000Y-108000000D02*
X125000000Y-108000000D01*
X124200000Y-107200000D02*
X124200000Y-106200000D01*
X124535590Y-76398000D02*
X126188000Y-76398000D01*
X130757180Y-77922000D02*
X131014000Y-77922000D01*
X122249590Y-75890000D02*
X123902000Y-75890000D01*
X123902000Y-75890000D02*
X124027590Y-75890000D01*
X131014000Y-77922000D02*
X131325990Y-78233990D01*
X126188000Y-76398000D02*
X126696000Y-76906000D01*
X128599590Y-76906000D02*
X128932209Y-77238619D01*
X119584000Y-75382000D02*
X121741590Y-75382000D01*
X119160000Y-74958000D02*
X119584000Y-75382000D01*
X131325990Y-78233990D02*
X131325990Y-79767600D01*
X128932210Y-77238620D02*
X130073800Y-77238620D01*
X121741590Y-75382000D02*
X122249590Y-75890000D01*
X126696000Y-76906000D02*
X128599590Y-76906000D01*
X128932209Y-77238619D02*
X128932210Y-77238620D01*
X119160000Y-74000000D02*
X119160000Y-74958000D01*
X130073800Y-77238620D02*
X130757180Y-77922000D01*
X124027590Y-75890000D02*
X124535590Y-76398000D01*
X130885590Y-80208000D02*
X129490000Y-80208000D01*
X131325990Y-79767600D02*
X130885590Y-80208000D01*
X124407180Y-76906000D02*
X125934000Y-76906000D01*
X126442000Y-77414000D02*
X128471180Y-77414000D01*
X116620000Y-74958000D02*
X117044000Y-75382000D01*
X116620000Y-74000000D02*
X116620000Y-74958000D01*
X128471180Y-77414000D02*
X128745808Y-77688628D01*
X129552571Y-77688628D02*
X130435840Y-78571897D01*
X118568000Y-75890000D02*
X121613180Y-75890000D01*
X122121180Y-76398000D02*
X123899180Y-76398000D01*
X125934000Y-76906000D02*
X126442000Y-77414000D01*
X121613180Y-75890000D02*
X122121180Y-76398000D01*
X117044000Y-75382000D02*
X118060000Y-75382000D01*
X123899180Y-76398000D02*
X124407180Y-76906000D01*
X128745808Y-77688628D02*
X129552571Y-77688628D01*
X118060000Y-75382000D02*
X118568000Y-75890000D01*
X159600000Y-107400000D02*
X158200000Y-106000000D01*
X152072000Y-84272000D02*
X140412000Y-84272000D01*
X158200000Y-106000000D02*
X158200000Y-90400000D01*
X158200000Y-90400000D02*
X152072000Y-84272000D01*
X140920000Y-102052000D02*
X140920000Y-89098000D01*
X139396000Y-103576000D02*
X140920000Y-102052000D01*
X139904000Y-101036000D02*
X139904000Y-89098000D01*
X138888000Y-102052000D02*
X139904000Y-101036000D01*
X157200000Y-91200000D02*
X154000000Y-88000000D01*
X139904000Y-88532315D02*
X139904000Y-89098000D01*
X154000000Y-88000000D02*
X140436315Y-88000000D01*
X158075000Y-108600000D02*
X157200000Y-107725000D01*
X140436315Y-88000000D02*
X139904000Y-88532315D01*
X157200000Y-107725000D02*
X157200000Y-91200000D01*
X138779999Y-100382001D02*
X138779999Y-89243999D01*
X138380000Y-100782000D02*
X138779999Y-100382001D01*
X159600000Y-110000000D02*
X159600000Y-109099695D01*
X157650000Y-90650000D02*
X154320000Y-87320000D01*
X139904000Y-87320000D02*
X138779999Y-88444001D01*
X138779999Y-88444001D02*
X138779999Y-89243999D01*
X154320000Y-87320000D02*
X139904000Y-87320000D01*
X159600000Y-109099695D02*
X157650000Y-107149695D01*
X157650000Y-107149695D02*
X157650000Y-90650000D01*
X142444000Y-75890000D02*
X141936000Y-76398000D01*
X138380000Y-77162820D02*
X138380000Y-88207590D01*
X139841205Y-76906000D02*
X138636820Y-76906000D01*
X132951999Y-97443001D02*
X132284000Y-96775002D01*
X141936000Y-76398000D02*
X140349205Y-76398000D01*
X140349205Y-76398000D02*
X139841205Y-76906000D01*
X146593000Y-75382000D02*
X144730000Y-75382000D01*
X138380000Y-88207590D02*
X135332000Y-91255590D01*
X147100000Y-74875000D02*
X146593000Y-75382000D01*
X132284000Y-96775002D02*
X132284000Y-96718000D01*
X144730000Y-75382000D02*
X144222000Y-75890000D01*
X147100000Y-74000000D02*
X147100000Y-74875000D01*
X144222000Y-75890000D02*
X142444000Y-75890000D01*
X135332000Y-95888095D02*
X133777094Y-97443001D01*
X135332000Y-91255590D02*
X135332000Y-95888095D01*
X133777094Y-97443001D02*
X132951999Y-97443001D01*
X138636820Y-76906000D02*
X138380000Y-77162820D01*
X134824000Y-95759685D02*
X133865685Y-96718000D01*
X143178000Y-75382000D02*
X142190000Y-75382000D01*
X139650000Y-76398000D02*
X138254410Y-76398000D01*
X138254410Y-76398000D02*
X137809205Y-76843205D01*
X141682000Y-75890000D02*
X140158000Y-75890000D01*
X144560000Y-74000000D02*
X143178000Y-75382000D01*
X137809205Y-87636795D02*
X134824000Y-90622000D01*
X137809205Y-76843205D02*
X137809205Y-87636795D01*
X133865685Y-96718000D02*
X133300000Y-96718000D01*
X134824000Y-90622000D02*
X134824000Y-95759685D01*
X142190000Y-75382000D02*
X141682000Y-75890000D01*
X140158000Y-75890000D02*
X139650000Y-76398000D01*
X142020000Y-74000000D02*
X142020000Y-74790000D01*
X134279001Y-90404999D02*
X134279001Y-95230999D01*
X137359196Y-76656804D02*
X137359196Y-87324804D01*
X139396000Y-75890000D02*
X138126000Y-75890000D01*
X139904000Y-75382000D02*
X139396000Y-75890000D01*
X142020000Y-74790000D02*
X141428000Y-75382000D01*
X137359196Y-87324804D02*
X134279001Y-90404999D01*
X141428000Y-75382000D02*
X139904000Y-75382000D01*
X133808000Y-95702000D02*
X133300000Y-95702000D01*
X138126000Y-75890000D02*
X137359196Y-76656804D01*
X134279001Y-95230999D02*
X133808000Y-95702000D01*
X139142000Y-75382000D02*
X139480000Y-75044000D01*
X132284000Y-94940000D02*
X132792000Y-94432000D01*
X132792000Y-94432000D02*
X133300000Y-94432000D01*
X132284000Y-95702000D02*
X132284000Y-94940000D01*
X139480000Y-75044000D02*
X139480000Y-74000000D01*
X133554000Y-94178000D02*
X133554000Y-90368000D01*
X133554000Y-90368000D02*
X136856000Y-87066000D01*
X136856000Y-87066000D02*
X136856000Y-76398000D01*
X137872000Y-75382000D02*
X139142000Y-75382000D01*
X133300000Y-94432000D02*
X133554000Y-94178000D01*
X136856000Y-76398000D02*
X137872000Y-75382000D01*
X136940000Y-75044000D02*
X136348000Y-75636000D01*
X136940000Y-74000000D02*
X136940000Y-75044000D01*
X132284000Y-94178000D02*
X130252000Y-94178000D01*
X136348000Y-86361002D02*
X133046000Y-89663002D01*
X133046000Y-89663002D02*
X133046000Y-93416000D01*
X133046000Y-93416000D02*
X132284000Y-94178000D01*
X136348000Y-75636000D02*
X136348000Y-86361002D01*
X135332000Y-75382000D02*
X134824000Y-75382000D01*
X135840000Y-86232592D02*
X135840000Y-75890000D01*
X129490000Y-93416000D02*
X132030000Y-93416000D01*
X132030000Y-93416000D02*
X132538000Y-92908000D01*
X134824000Y-75382000D02*
X134400000Y-74958000D01*
X135840000Y-75890000D02*
X135332000Y-75382000D01*
X134400000Y-74958000D02*
X134400000Y-74000000D01*
X132538000Y-92908000D02*
X132538000Y-89534592D01*
X132538000Y-89534592D02*
X135840000Y-86232592D01*
X120796996Y-86629406D02*
X128201001Y-94033411D01*
X114825590Y-75382000D02*
X120065498Y-80621908D01*
X120065498Y-82651502D02*
X120796996Y-83383000D01*
X112091000Y-75382000D02*
X114825590Y-75382000D01*
X120796996Y-83383000D02*
X120796996Y-86629406D01*
X128201001Y-98858009D02*
X128601000Y-99258008D01*
X120065498Y-80621908D02*
X120065498Y-82651502D01*
X111540000Y-74000000D02*
X111540000Y-74831000D01*
X128201001Y-94033411D02*
X128201001Y-98858009D01*
X111540000Y-74831000D02*
X112091000Y-75382000D01*
X119615489Y-82837903D02*
X120346986Y-83569400D01*
X111581590Y-75509000D02*
X111904599Y-75832009D01*
X127585000Y-99678728D02*
X127999990Y-100093718D01*
X120346987Y-86815807D02*
X127585000Y-94053820D01*
X109000000Y-74450000D02*
X110059000Y-75509000D01*
X110059000Y-75509000D02*
X111581590Y-75509000D01*
X119615488Y-80874488D02*
X119615489Y-82837903D01*
X127585000Y-94053820D02*
X127585000Y-99678728D01*
X109000000Y-74000000D02*
X109000000Y-74450000D01*
X120346986Y-83569400D02*
X120346987Y-86815807D01*
X114573009Y-75832009D02*
X119615488Y-80874488D01*
X111904599Y-75832009D02*
X114573009Y-75832009D01*
X121362000Y-86558000D02*
X128994924Y-94190924D01*
X128994924Y-94190924D02*
X128994924Y-98211844D01*
X121362000Y-81605000D02*
X121362000Y-86558000D01*
X121362000Y-81732000D02*
X121362000Y-81605000D01*
X120790499Y-82303501D02*
X121362000Y-81732000D01*
X121362000Y-81282000D02*
X121362000Y-81605000D01*
X114080000Y-74000000D02*
X121362000Y-81282000D01*
X127925000Y-105000000D02*
X129200000Y-105000000D01*
X127925000Y-108000000D02*
X129200000Y-108000000D01*
G04 #@! TA.AperFunction,Conductor*
G36*
X162394075Y-97547007D02*
G01*
X162360000Y-97674174D01*
X162360000Y-97805826D01*
X162394075Y-97932993D01*
X162429297Y-97994000D01*
X160750703Y-97994000D01*
X160785925Y-97932993D01*
X160820000Y-97805826D01*
X160820000Y-97674174D01*
X160785925Y-97547007D01*
X160750703Y-97486000D01*
X162429297Y-97486000D01*
X162394075Y-97547007D01*
G37*
G04 #@! TD.AperFunction*
G04 #@! TA.AperFunction,Conductor*
G36*
X164934075Y-97547007D02*
G01*
X164900000Y-97674174D01*
X164900000Y-97805826D01*
X164934075Y-97932993D01*
X164969297Y-97994000D01*
X163290703Y-97994000D01*
X163325925Y-97932993D01*
X163360000Y-97805826D01*
X163360000Y-97674174D01*
X163325925Y-97547007D01*
X163290703Y-97486000D01*
X164969297Y-97486000D01*
X164934075Y-97547007D01*
G37*
G04 #@! TD.AperFunction*
G04 #@! TA.AperFunction,Conductor*
G36*
X134415477Y-75870223D02*
G01*
X134420166Y-75874071D01*
X134420167Y-75874072D01*
X134523925Y-75943401D01*
X134605447Y-75977168D01*
X134639215Y-75991155D01*
X134761606Y-76015500D01*
X134761607Y-76015500D01*
X134886394Y-76015500D01*
X135017406Y-76015500D01*
X135085527Y-76035502D01*
X135106501Y-76052405D01*
X135169595Y-76115499D01*
X135203621Y-76177811D01*
X135206500Y-76204594D01*
X135206500Y-85917998D01*
X135186498Y-85986119D01*
X135169595Y-86007093D01*
X134163513Y-87013174D01*
X134101201Y-87047200D01*
X134030385Y-87042135D01*
X133973550Y-86999588D01*
X133948739Y-86933068D01*
X133949108Y-86910908D01*
X133959504Y-86812000D01*
X133939542Y-86622072D01*
X133880527Y-86440444D01*
X133785040Y-86275056D01*
X133785038Y-86275054D01*
X133785034Y-86275048D01*
X133657255Y-86133135D01*
X133502752Y-86020882D01*
X133328288Y-85943206D01*
X133141487Y-85903500D01*
X132950513Y-85903500D01*
X132763711Y-85943206D01*
X132589247Y-86020882D01*
X132434744Y-86133135D01*
X132306965Y-86275048D01*
X132306958Y-86275058D01*
X132211476Y-86440438D01*
X132211473Y-86440445D01*
X132152457Y-86622072D01*
X132132496Y-86812000D01*
X132152457Y-87001927D01*
X132158133Y-87019395D01*
X132211473Y-87183556D01*
X132211476Y-87183561D01*
X132306958Y-87348941D01*
X132306965Y-87348951D01*
X132434744Y-87490864D01*
X132451024Y-87502692D01*
X132589248Y-87603118D01*
X132763712Y-87680794D01*
X132950513Y-87720500D01*
X133148090Y-87720500D01*
X133148090Y-87722342D01*
X133209121Y-87733502D01*
X133260969Y-87782002D01*
X133278365Y-87850835D01*
X133255786Y-87918145D01*
X133241551Y-87935136D01*
X132134167Y-89042521D01*
X132045931Y-89130756D01*
X132045926Y-89130763D01*
X131976601Y-89234515D01*
X131928846Y-89349804D01*
X131904500Y-89472195D01*
X131904500Y-92593406D01*
X131884498Y-92661527D01*
X131867595Y-92682501D01*
X131804501Y-92745595D01*
X131742189Y-92779621D01*
X131715406Y-92782500D01*
X130198200Y-92782500D01*
X130130079Y-92762498D01*
X130104563Y-92740810D01*
X130101252Y-92737133D01*
X129946752Y-92624882D01*
X129772288Y-92547206D01*
X129585487Y-92507500D01*
X129394513Y-92507500D01*
X129207711Y-92547206D01*
X129033247Y-92624882D01*
X128878746Y-92737134D01*
X128758311Y-92870891D01*
X128697865Y-92908130D01*
X128626881Y-92906778D01*
X128575580Y-92875675D01*
X122032405Y-86332500D01*
X121998379Y-86270188D01*
X121995500Y-86243405D01*
X121995500Y-86037090D01*
X122015502Y-85968969D01*
X122069158Y-85922476D01*
X122139432Y-85912372D01*
X122147698Y-85913844D01*
X122282509Y-85942500D01*
X122282513Y-85942500D01*
X122473487Y-85942500D01*
X122660288Y-85902794D01*
X122834752Y-85825118D01*
X122989253Y-85712866D01*
X122989255Y-85712864D01*
X123117034Y-85570951D01*
X123117035Y-85570949D01*
X123117040Y-85570944D01*
X123212527Y-85405556D01*
X123271542Y-85223928D01*
X123291504Y-85034000D01*
X123271542Y-84844072D01*
X123212527Y-84662444D01*
X123117040Y-84497056D01*
X123117038Y-84497054D01*
X123117034Y-84497048D01*
X122989255Y-84355135D01*
X122834752Y-84242882D01*
X122660288Y-84165206D01*
X122473487Y-84125500D01*
X122282513Y-84125500D01*
X122147697Y-84154156D01*
X122076906Y-84148754D01*
X122020274Y-84105937D01*
X121995780Y-84039299D01*
X121995500Y-84030909D01*
X121995500Y-81430450D01*
X122015502Y-81362329D01*
X122069158Y-81315836D01*
X122139432Y-81305732D01*
X122204012Y-81335226D01*
X122242396Y-81394952D01*
X122244878Y-81407510D01*
X122245084Y-81407467D01*
X122246456Y-81413924D01*
X122277067Y-81508133D01*
X122305473Y-81595556D01*
X122305476Y-81595561D01*
X122400958Y-81760941D01*
X122400965Y-81760951D01*
X122528744Y-81902864D01*
X122528747Y-81902866D01*
X122683248Y-82015118D01*
X122857712Y-82092794D01*
X123044513Y-82132500D01*
X123235487Y-82132500D01*
X123422288Y-82092794D01*
X123596752Y-82015118D01*
X123751253Y-81902866D01*
X123751255Y-81902864D01*
X123879034Y-81760951D01*
X123879035Y-81760949D01*
X123879040Y-81760944D01*
X123974527Y-81595556D01*
X124033542Y-81413928D01*
X124053504Y-81224000D01*
X124033542Y-81034072D01*
X123974527Y-80852444D01*
X123879040Y-80687056D01*
X123879038Y-80687054D01*
X123879034Y-80687048D01*
X123751255Y-80545135D01*
X123596752Y-80432882D01*
X123422288Y-80355206D01*
X123235487Y-80315500D01*
X123044513Y-80315500D01*
X122857711Y-80355206D01*
X122683247Y-80432882D01*
X122528744Y-80545135D01*
X122400965Y-80687048D01*
X122400958Y-80687058D01*
X122305476Y-80852438D01*
X122305473Y-80852445D01*
X122246457Y-81034072D01*
X122233768Y-81154804D01*
X122206755Y-81220461D01*
X122148533Y-81261090D01*
X122077588Y-81263793D01*
X122016444Y-81227711D01*
X121984880Y-81166216D01*
X121971155Y-81097215D01*
X121923400Y-80981925D01*
X121854071Y-80878167D01*
X121765833Y-80789929D01*
X117206499Y-76230595D01*
X117172473Y-76168283D01*
X117177538Y-76097468D01*
X117220085Y-76040632D01*
X117286605Y-76015821D01*
X117295594Y-76015500D01*
X117745406Y-76015500D01*
X117813527Y-76035502D01*
X117834501Y-76052405D01*
X118075928Y-76293832D01*
X118075929Y-76293833D01*
X118164167Y-76382071D01*
X118267925Y-76451400D01*
X118383215Y-76499155D01*
X118505606Y-76523500D01*
X121298586Y-76523500D01*
X121366707Y-76543502D01*
X121387681Y-76560405D01*
X121629109Y-76801833D01*
X121717347Y-76890071D01*
X121821105Y-76959400D01*
X121936395Y-77007155D01*
X122058786Y-77031500D01*
X123584586Y-77031500D01*
X123652707Y-77051502D01*
X123673681Y-77068405D01*
X123915109Y-77309833D01*
X124003347Y-77398071D01*
X124107105Y-77467400D01*
X124222395Y-77515155D01*
X124344786Y-77539500D01*
X125619406Y-77539500D01*
X125687527Y-77559502D01*
X125708501Y-77576405D01*
X125949929Y-77817833D01*
X126038167Y-77906071D01*
X126141925Y-77975400D01*
X126257215Y-78023155D01*
X126379606Y-78047500D01*
X128156585Y-78047500D01*
X128224706Y-78067502D01*
X128245680Y-78084405D01*
X128341975Y-78180700D01*
X128445733Y-78250029D01*
X128527159Y-78283756D01*
X128561023Y-78297783D01*
X128683414Y-78322128D01*
X128683415Y-78322128D01*
X128808202Y-78322128D01*
X129237977Y-78322128D01*
X129306098Y-78342130D01*
X129327072Y-78359033D01*
X129488717Y-78520678D01*
X129522743Y-78582990D01*
X129524932Y-78596602D01*
X129542297Y-78761824D01*
X129548526Y-78780993D01*
X129601313Y-78943453D01*
X129680106Y-79079927D01*
X129697758Y-79110500D01*
X129714496Y-79179495D01*
X129691276Y-79246587D01*
X129635469Y-79290474D01*
X129588639Y-79299500D01*
X129394513Y-79299500D01*
X129207711Y-79339206D01*
X129033247Y-79416882D01*
X128878744Y-79529135D01*
X128750965Y-79671048D01*
X128750958Y-79671058D01*
X128655476Y-79836438D01*
X128655473Y-79836445D01*
X128601105Y-80003768D01*
X128561031Y-80062374D01*
X128507471Y-80088077D01*
X128445714Y-80101204D01*
X128271247Y-80178882D01*
X128116744Y-80291135D01*
X127988965Y-80433048D01*
X127988958Y-80433058D01*
X127893476Y-80598438D01*
X127893473Y-80598445D01*
X127834457Y-80780072D01*
X127814496Y-80970001D01*
X127814496Y-80970002D01*
X127815110Y-80975848D01*
X127802333Y-81045685D01*
X127753827Y-81097528D01*
X127715999Y-81112255D01*
X127692714Y-81117204D01*
X127518247Y-81194882D01*
X127363744Y-81307135D01*
X127235965Y-81449048D01*
X127235958Y-81449058D01*
X127140476Y-81614438D01*
X127140473Y-81614445D01*
X127081457Y-81796072D01*
X127061496Y-81986000D01*
X127081457Y-82175927D01*
X127104296Y-82246216D01*
X127140473Y-82357556D01*
X127140473Y-82357557D01*
X127140474Y-82357558D01*
X127182876Y-82431001D01*
X127199613Y-82499996D01*
X127182876Y-82556999D01*
X127140474Y-82630441D01*
X127140473Y-82630443D01*
X127140473Y-82630444D01*
X127125999Y-82674986D01*
X127081457Y-82812072D01*
X127061496Y-83002000D01*
X127071469Y-83096896D01*
X127058696Y-83166734D01*
X127010194Y-83218580D01*
X126941361Y-83235974D01*
X126894912Y-83225172D01*
X126724288Y-83149206D01*
X126537487Y-83109500D01*
X126346513Y-83109500D01*
X126159711Y-83149206D01*
X125985247Y-83226882D01*
X125830744Y-83339135D01*
X125702965Y-83481048D01*
X125702958Y-83481058D01*
X125622058Y-83621182D01*
X125607473Y-83646444D01*
X125598928Y-83672743D01*
X125561888Y-83786738D01*
X125521814Y-83845343D01*
X125456417Y-83872980D01*
X125442055Y-83873801D01*
X125330513Y-83873801D01*
X125143711Y-83913507D01*
X124969247Y-83991183D01*
X124814744Y-84103436D01*
X124686965Y-84245349D01*
X124686958Y-84245359D01*
X124591476Y-84410739D01*
X124591473Y-84410746D01*
X124532457Y-84592373D01*
X124512496Y-84782301D01*
X124532457Y-84972228D01*
X124552529Y-85034000D01*
X124591473Y-85153857D01*
X124591476Y-85153862D01*
X124686958Y-85319242D01*
X124686965Y-85319252D01*
X124814744Y-85461165D01*
X124814747Y-85461167D01*
X124969248Y-85573419D01*
X125143712Y-85651095D01*
X125330513Y-85690801D01*
X125521487Y-85690801D01*
X125708288Y-85651095D01*
X125882752Y-85573419D01*
X126037253Y-85461167D01*
X126040563Y-85457491D01*
X126101009Y-85420251D01*
X126134200Y-85415801D01*
X132344092Y-85415801D01*
X132344093Y-85415801D01*
X132466484Y-85391456D01*
X132581774Y-85343701D01*
X132685532Y-85274372D01*
X134068113Y-83891791D01*
X134137442Y-83788033D01*
X134185197Y-83672743D01*
X134187166Y-83662845D01*
X134196848Y-83614169D01*
X134196848Y-83614168D01*
X134200301Y-83596810D01*
X134209542Y-83550352D01*
X134209542Y-75967621D01*
X134229544Y-75899500D01*
X134283200Y-75853007D01*
X134353474Y-75842903D01*
X134415477Y-75870223D01*
G37*
G04 #@! TD.AperFunction*
G04 #@! TA.AperFunction,Conductor*
G36*
X155074075Y-73667007D02*
G01*
X155040000Y-73794174D01*
X155040000Y-73925826D01*
X155074075Y-74052993D01*
X155109297Y-74114000D01*
X153430703Y-74114000D01*
X153465925Y-74052993D01*
X153500000Y-73925826D01*
X153500000Y-73794174D01*
X153465925Y-73667007D01*
X153430703Y-73606000D01*
X155109297Y-73606000D01*
X155074075Y-73667007D01*
G37*
G04 #@! TD.AperFunction*
G04 #@! TA.AperFunction,Conductor*
G36*
X157614075Y-73667007D02*
G01*
X157580000Y-73794174D01*
X157580000Y-73925826D01*
X157614075Y-74052993D01*
X157649297Y-74114000D01*
X155970703Y-74114000D01*
X156005925Y-74052993D01*
X156040000Y-73925826D01*
X156040000Y-73794174D01*
X156005925Y-73667007D01*
X155970703Y-73606000D01*
X157649297Y-73606000D01*
X157614075Y-73667007D01*
G37*
G04 #@! TD.AperFunction*
G04 #@! TA.AperFunction,Conductor*
G36*
X166671776Y-70104793D02*
G01*
X166912793Y-70169373D01*
X166925336Y-70173449D01*
X167203671Y-70280292D01*
X167215719Y-70285656D01*
X167481368Y-70421010D01*
X167492785Y-70427601D01*
X167742838Y-70589988D01*
X167753495Y-70597732D01*
X167985197Y-70785360D01*
X167994998Y-70794185D01*
X168205814Y-71005001D01*
X168214639Y-71014802D01*
X168402263Y-71246498D01*
X168410015Y-71257167D01*
X168572394Y-71507208D01*
X168578989Y-71518631D01*
X168714343Y-71784280D01*
X168719707Y-71796327D01*
X168826550Y-72074661D01*
X168830626Y-72087205D01*
X168907790Y-72375188D01*
X168910532Y-72388088D01*
X168957172Y-72682563D01*
X168958550Y-72695679D01*
X168974327Y-72996698D01*
X168974500Y-73003293D01*
X168974500Y-82277965D01*
X168954498Y-82346086D01*
X168900842Y-82392579D01*
X168830568Y-82402683D01*
X168765988Y-82373189D01*
X168732091Y-82326183D01*
X168698967Y-82246216D01*
X168594129Y-82089315D01*
X168594124Y-82089308D01*
X168460691Y-81955875D01*
X168460684Y-81955870D01*
X168303783Y-81851032D01*
X168129441Y-81778817D01*
X168129438Y-81778816D01*
X167944358Y-81742000D01*
X167754000Y-81742000D01*
X167754000Y-82450000D01*
X167100272Y-82450000D01*
X167008386Y-82488060D01*
X166938060Y-82558386D01*
X166900000Y-82650272D01*
X166900000Y-82749728D01*
X166938060Y-82841614D01*
X167008386Y-82911940D01*
X167100272Y-82950000D01*
X167754000Y-82950000D01*
X167754000Y-83658000D01*
X167944355Y-83658000D01*
X167944358Y-83657999D01*
X168129438Y-83621183D01*
X168129441Y-83621182D01*
X168303783Y-83548967D01*
X168460684Y-83444129D01*
X168460691Y-83444124D01*
X168594124Y-83310691D01*
X168594129Y-83310684D01*
X168698967Y-83153783D01*
X168732091Y-83073816D01*
X168776639Y-83018535D01*
X168844002Y-82996114D01*
X168912794Y-83013672D01*
X168961172Y-83065634D01*
X168974500Y-83122034D01*
X168974500Y-88877965D01*
X168954498Y-88946086D01*
X168900842Y-88992579D01*
X168830568Y-89002683D01*
X168765988Y-88973189D01*
X168732091Y-88926183D01*
X168698967Y-88846216D01*
X168594129Y-88689315D01*
X168594124Y-88689308D01*
X168460691Y-88555875D01*
X168460684Y-88555870D01*
X168303783Y-88451032D01*
X168129441Y-88378817D01*
X168129438Y-88378816D01*
X167944358Y-88342000D01*
X167754000Y-88342000D01*
X167754000Y-89050000D01*
X167100272Y-89050000D01*
X167008386Y-89088060D01*
X166938060Y-89158386D01*
X166900000Y-89250272D01*
X166900000Y-89349728D01*
X166938060Y-89441614D01*
X167008386Y-89511940D01*
X167100272Y-89550000D01*
X167754000Y-89550000D01*
X167754000Y-90258000D01*
X167944355Y-90258000D01*
X167944358Y-90257999D01*
X168129438Y-90221183D01*
X168129441Y-90221182D01*
X168303783Y-90148967D01*
X168460684Y-90044129D01*
X168460691Y-90044124D01*
X168594124Y-89910691D01*
X168594129Y-89910684D01*
X168698967Y-89753783D01*
X168732091Y-89673816D01*
X168776639Y-89618535D01*
X168844002Y-89596114D01*
X168912794Y-89613672D01*
X168961172Y-89665634D01*
X168974500Y-89722034D01*
X168974500Y-116996706D01*
X168974327Y-117003301D01*
X168958550Y-117304320D01*
X168957172Y-117317436D01*
X168910532Y-117611911D01*
X168907790Y-117624811D01*
X168830626Y-117912794D01*
X168826550Y-117925338D01*
X168719707Y-118203672D01*
X168714343Y-118215719D01*
X168578989Y-118481368D01*
X168572394Y-118492791D01*
X168410015Y-118742832D01*
X168402263Y-118753501D01*
X168214639Y-118985197D01*
X168205814Y-118994998D01*
X167994998Y-119205814D01*
X167985197Y-119214639D01*
X167753501Y-119402263D01*
X167742832Y-119410015D01*
X167492791Y-119572394D01*
X167481368Y-119578989D01*
X167215719Y-119714343D01*
X167203671Y-119719707D01*
X166925336Y-119826550D01*
X166912794Y-119830625D01*
X166772095Y-119868326D01*
X166739483Y-119872620D01*
X102260517Y-119872620D01*
X102227907Y-119868327D01*
X102169085Y-119852566D01*
X102087205Y-119830626D01*
X102074663Y-119826550D01*
X101796328Y-119719707D01*
X101784280Y-119714343D01*
X101518631Y-119578989D01*
X101507208Y-119572394D01*
X101257167Y-119410015D01*
X101246498Y-119402263D01*
X101187493Y-119354482D01*
X101014802Y-119214639D01*
X101005001Y-119205814D01*
X100794185Y-118994998D01*
X100785360Y-118985197D01*
X100597736Y-118753501D01*
X100589988Y-118742838D01*
X100427601Y-118492785D01*
X100421010Y-118481368D01*
X100297733Y-118239420D01*
X100284000Y-118182218D01*
X100284000Y-116000000D01*
X101137157Y-116000000D01*
X101156514Y-116332345D01*
X101156515Y-116332354D01*
X101214325Y-116660215D01*
X101214325Y-116660216D01*
X101309809Y-116979152D01*
X101309808Y-116979152D01*
X101441668Y-117284839D01*
X101441671Y-117284844D01*
X101608123Y-117573146D01*
X101608133Y-117573162D01*
X101804227Y-117836562D01*
X102882348Y-116758441D01*
X102970278Y-116879466D01*
X103120534Y-117029722D01*
X103241557Y-117117650D01*
X102166686Y-118192522D01*
X102290432Y-118296355D01*
X102290433Y-118296356D01*
X102568570Y-118479290D01*
X102866090Y-118628710D01*
X103178924Y-118742572D01*
X103178927Y-118742573D01*
X103502867Y-118819348D01*
X103502877Y-118819350D01*
X103833537Y-118858000D01*
X104166463Y-118858000D01*
X104497122Y-118819350D01*
X104497132Y-118819348D01*
X104821072Y-118742573D01*
X104821075Y-118742572D01*
X105133909Y-118628710D01*
X105431429Y-118479290D01*
X105709566Y-118296356D01*
X105833312Y-118192522D01*
X105833312Y-118192521D01*
X104758441Y-117117650D01*
X104879466Y-117029722D01*
X105029722Y-116879466D01*
X105117650Y-116758441D01*
X106195771Y-117836562D01*
X106195772Y-117836562D01*
X106391859Y-117573173D01*
X106391876Y-117573146D01*
X106558328Y-117284844D01*
X106558331Y-117284839D01*
X106690190Y-116979152D01*
X106785674Y-116660216D01*
X106785674Y-116660215D01*
X106843484Y-116332354D01*
X106843485Y-116332345D01*
X106862842Y-116000000D01*
X106843485Y-115667654D01*
X106843484Y-115667645D01*
X106785674Y-115339784D01*
X106785674Y-115339783D01*
X106714291Y-115101350D01*
X107641500Y-115101350D01*
X107641500Y-116898649D01*
X107648009Y-116959196D01*
X107648011Y-116959204D01*
X107699110Y-117096202D01*
X107699112Y-117096207D01*
X107786738Y-117213261D01*
X107903792Y-117300887D01*
X107903794Y-117300888D01*
X107903796Y-117300889D01*
X107930690Y-117310920D01*
X108040795Y-117351988D01*
X108040803Y-117351990D01*
X108101350Y-117358499D01*
X108101355Y-117358499D01*
X108101362Y-117358500D01*
X108101368Y-117358500D01*
X109898632Y-117358500D01*
X109898638Y-117358500D01*
X109898645Y-117358499D01*
X109898649Y-117358499D01*
X109959196Y-117351990D01*
X109959199Y-117351989D01*
X109959201Y-117351989D01*
X110096204Y-117300889D01*
X110117645Y-117284839D01*
X110213261Y-117213261D01*
X110300886Y-117096208D01*
X110300885Y-117096208D01*
X110300889Y-117096204D01*
X110344999Y-116977939D01*
X110387545Y-116921107D01*
X110454066Y-116896296D01*
X110523440Y-116911388D01*
X110555753Y-116936635D01*
X110614085Y-117000000D01*
X110616762Y-117002908D01*
X110617267Y-117003301D01*
X110794424Y-117141189D01*
X110992426Y-117248342D01*
X110992427Y-117248342D01*
X110992428Y-117248343D01*
X111098738Y-117284839D01*
X111205365Y-117321444D01*
X111427431Y-117358500D01*
X111427435Y-117358500D01*
X111652565Y-117358500D01*
X111652569Y-117358500D01*
X111874635Y-117321444D01*
X112087574Y-117248342D01*
X112285576Y-117141189D01*
X112463240Y-117002906D01*
X112615722Y-116837268D01*
X112704518Y-116701354D01*
X112758520Y-116655268D01*
X112828868Y-116645692D01*
X112893225Y-116675669D01*
X112915480Y-116701353D01*
X112919532Y-116707554D01*
X113004275Y-116837265D01*
X113004279Y-116837270D01*
X113072511Y-116911388D01*
X113151052Y-116996706D01*
X113156762Y-117002908D01*
X113157267Y-117003301D01*
X113334424Y-117141189D01*
X113532426Y-117248342D01*
X113532427Y-117248342D01*
X113532428Y-117248343D01*
X113638738Y-117284839D01*
X113745365Y-117321444D01*
X113967431Y-117358500D01*
X113967435Y-117358500D01*
X114192565Y-117358500D01*
X114192569Y-117358500D01*
X114414635Y-117321444D01*
X114627574Y-117248342D01*
X114825576Y-117141189D01*
X115003240Y-117002906D01*
X115155722Y-116837268D01*
X115244518Y-116701354D01*
X115298520Y-116655268D01*
X115368868Y-116645692D01*
X115433225Y-116675669D01*
X115455480Y-116701353D01*
X115459532Y-116707554D01*
X115544275Y-116837265D01*
X115544279Y-116837270D01*
X115612511Y-116911388D01*
X115691052Y-116996706D01*
X115696762Y-117002908D01*
X115697267Y-117003301D01*
X115874424Y-117141189D01*
X116072426Y-117248342D01*
X116072427Y-117248342D01*
X116072428Y-117248343D01*
X116178738Y-117284839D01*
X116285365Y-117321444D01*
X116507431Y-117358500D01*
X116507435Y-117358500D01*
X116732565Y-117358500D01*
X116732569Y-117358500D01*
X116954635Y-117321444D01*
X117167574Y-117248342D01*
X117365576Y-117141189D01*
X117543240Y-117002906D01*
X117695722Y-116837268D01*
X117784518Y-116701354D01*
X117838520Y-116655268D01*
X117908868Y-116645692D01*
X117973225Y-116675669D01*
X117995480Y-116701353D01*
X117999532Y-116707554D01*
X118084275Y-116837265D01*
X118084279Y-116837270D01*
X118152511Y-116911388D01*
X118231052Y-116996706D01*
X118236762Y-117002908D01*
X118237267Y-117003301D01*
X118414424Y-117141189D01*
X118612426Y-117248342D01*
X118612427Y-117248342D01*
X118612428Y-117248343D01*
X118718738Y-117284839D01*
X118825365Y-117321444D01*
X119047431Y-117358500D01*
X119047435Y-117358500D01*
X119272565Y-117358500D01*
X119272569Y-117358500D01*
X119494635Y-117321444D01*
X119707574Y-117248342D01*
X119905576Y-117141189D01*
X120083240Y-117002906D01*
X120235722Y-116837268D01*
X120324518Y-116701354D01*
X120378520Y-116655268D01*
X120448868Y-116645692D01*
X120513225Y-116675669D01*
X120535480Y-116701353D01*
X120539532Y-116707554D01*
X120624275Y-116837265D01*
X120624279Y-116837270D01*
X120692511Y-116911388D01*
X120771052Y-116996706D01*
X120776762Y-117002908D01*
X120777267Y-117003301D01*
X120954424Y-117141189D01*
X121152426Y-117248342D01*
X121152427Y-117248342D01*
X121152428Y-117248343D01*
X121258738Y-117284839D01*
X121365365Y-117321444D01*
X121587431Y-117358500D01*
X121587435Y-117358500D01*
X121812565Y-117358500D01*
X121812569Y-117358500D01*
X122034635Y-117321444D01*
X122247574Y-117248342D01*
X122445576Y-117141189D01*
X122623240Y-117002906D01*
X122775722Y-116837268D01*
X122864518Y-116701354D01*
X122918520Y-116655268D01*
X122988868Y-116645692D01*
X123053225Y-116675669D01*
X123075480Y-116701353D01*
X123079532Y-116707554D01*
X123164275Y-116837265D01*
X123164279Y-116837270D01*
X123232511Y-116911388D01*
X123311052Y-116996706D01*
X123316762Y-117002908D01*
X123317267Y-117003301D01*
X123494424Y-117141189D01*
X123692426Y-117248342D01*
X123692427Y-117248342D01*
X123692428Y-117248343D01*
X123798738Y-117284839D01*
X123905365Y-117321444D01*
X124127431Y-117358500D01*
X124127435Y-117358500D01*
X124352565Y-117358500D01*
X124352569Y-117358500D01*
X124574635Y-117321444D01*
X124787574Y-117248342D01*
X124985576Y-117141189D01*
X125163240Y-117002906D01*
X125315722Y-116837268D01*
X125404518Y-116701354D01*
X125458520Y-116655268D01*
X125528868Y-116645692D01*
X125593225Y-116675669D01*
X125615480Y-116701353D01*
X125619532Y-116707554D01*
X125704275Y-116837265D01*
X125704279Y-116837270D01*
X125772511Y-116911388D01*
X125851052Y-116996706D01*
X125856762Y-117002908D01*
X125857267Y-117003301D01*
X126034424Y-117141189D01*
X126232426Y-117248342D01*
X126232427Y-117248342D01*
X126232428Y-117248343D01*
X126338738Y-117284839D01*
X126445365Y-117321444D01*
X126667431Y-117358500D01*
X126667435Y-117358500D01*
X126892565Y-117358500D01*
X126892569Y-117358500D01*
X127114635Y-117321444D01*
X127327574Y-117248342D01*
X127525576Y-117141189D01*
X127703240Y-117002906D01*
X127855722Y-116837268D01*
X127944518Y-116701354D01*
X127998520Y-116655268D01*
X128068868Y-116645692D01*
X128133225Y-116675669D01*
X128155480Y-116701353D01*
X128159532Y-116707554D01*
X128244275Y-116837265D01*
X128244279Y-116837270D01*
X128312511Y-116911388D01*
X128391052Y-116996706D01*
X128396762Y-117002908D01*
X128397267Y-117003301D01*
X128574424Y-117141189D01*
X128772426Y-117248342D01*
X128772427Y-117248342D01*
X128772428Y-117248343D01*
X128878738Y-117284839D01*
X128985365Y-117321444D01*
X129207431Y-117358500D01*
X129207435Y-117358500D01*
X129432565Y-117358500D01*
X129432569Y-117358500D01*
X129654635Y-117321444D01*
X129867574Y-117248342D01*
X130065576Y-117141189D01*
X130243240Y-117002906D01*
X130395722Y-116837268D01*
X130484518Y-116701354D01*
X130538520Y-116655268D01*
X130608868Y-116645692D01*
X130673225Y-116675669D01*
X130695480Y-116701353D01*
X130699532Y-116707554D01*
X130784275Y-116837265D01*
X130784279Y-116837270D01*
X130852511Y-116911388D01*
X130931052Y-116996706D01*
X130936762Y-117002908D01*
X130937267Y-117003301D01*
X131114424Y-117141189D01*
X131312426Y-117248342D01*
X131312427Y-117248342D01*
X131312428Y-117248343D01*
X131418738Y-117284839D01*
X131525365Y-117321444D01*
X131747431Y-117358500D01*
X131747435Y-117358500D01*
X131972565Y-117358500D01*
X131972569Y-117358500D01*
X132194635Y-117321444D01*
X132407574Y-117248342D01*
X132605576Y-117141189D01*
X132783240Y-117002906D01*
X132935722Y-116837268D01*
X133024518Y-116701354D01*
X133078520Y-116655268D01*
X133148868Y-116645692D01*
X133213225Y-116675669D01*
X133235480Y-116701353D01*
X133239532Y-116707554D01*
X133324275Y-116837265D01*
X133324279Y-116837270D01*
X133392511Y-116911388D01*
X133471052Y-116996706D01*
X133476762Y-117002908D01*
X133477267Y-117003301D01*
X133654424Y-117141189D01*
X133852426Y-117248342D01*
X133852427Y-117248342D01*
X133852428Y-117248343D01*
X133958738Y-117284839D01*
X134065365Y-117321444D01*
X134287431Y-117358500D01*
X134287435Y-117358500D01*
X134512565Y-117358500D01*
X134512569Y-117358500D01*
X134734635Y-117321444D01*
X134947574Y-117248342D01*
X135145576Y-117141189D01*
X135323240Y-117002906D01*
X135475722Y-116837268D01*
X135564518Y-116701354D01*
X135618520Y-116655268D01*
X135688868Y-116645692D01*
X135753225Y-116675669D01*
X135775480Y-116701353D01*
X135779532Y-116707554D01*
X135864275Y-116837265D01*
X135864279Y-116837270D01*
X135932511Y-116911388D01*
X136011052Y-116996706D01*
X136016762Y-117002908D01*
X136017267Y-117003301D01*
X136194424Y-117141189D01*
X136392426Y-117248342D01*
X136392427Y-117248342D01*
X136392428Y-117248343D01*
X136498738Y-117284839D01*
X136605365Y-117321444D01*
X136827431Y-117358500D01*
X136827435Y-117358500D01*
X137052565Y-117358500D01*
X137052569Y-117358500D01*
X137274635Y-117321444D01*
X137487574Y-117248342D01*
X137685576Y-117141189D01*
X137863240Y-117002906D01*
X138015722Y-116837268D01*
X138104518Y-116701354D01*
X138158520Y-116655268D01*
X138228868Y-116645692D01*
X138293225Y-116675669D01*
X138315480Y-116701353D01*
X138319532Y-116707554D01*
X138404275Y-116837265D01*
X138404279Y-116837270D01*
X138472511Y-116911388D01*
X138551052Y-116996706D01*
X138556762Y-117002908D01*
X138557267Y-117003301D01*
X138734424Y-117141189D01*
X138932426Y-117248342D01*
X138932427Y-117248342D01*
X138932428Y-117248343D01*
X139038738Y-117284839D01*
X139145365Y-117321444D01*
X139367431Y-117358500D01*
X139367435Y-117358500D01*
X139592565Y-117358500D01*
X139592569Y-117358500D01*
X139814635Y-117321444D01*
X140027574Y-117248342D01*
X140225576Y-117141189D01*
X140403240Y-117002906D01*
X140555722Y-116837268D01*
X140644518Y-116701354D01*
X140698520Y-116655268D01*
X140768868Y-116645692D01*
X140833225Y-116675669D01*
X140855480Y-116701353D01*
X140859532Y-116707554D01*
X140944275Y-116837265D01*
X140944279Y-116837270D01*
X141012511Y-116911388D01*
X141091052Y-116996706D01*
X141096762Y-117002908D01*
X141097267Y-117003301D01*
X141274424Y-117141189D01*
X141472426Y-117248342D01*
X141472427Y-117248342D01*
X141472428Y-117248343D01*
X141578738Y-117284839D01*
X141685365Y-117321444D01*
X141907431Y-117358500D01*
X141907435Y-117358500D01*
X142132565Y-117358500D01*
X142132569Y-117358500D01*
X142354635Y-117321444D01*
X142567574Y-117248342D01*
X142765576Y-117141189D01*
X142943240Y-117002906D01*
X143095722Y-116837268D01*
X143184518Y-116701354D01*
X143238520Y-116655268D01*
X143308868Y-116645692D01*
X143373225Y-116675669D01*
X143395480Y-116701353D01*
X143399532Y-116707554D01*
X143484275Y-116837265D01*
X143484279Y-116837270D01*
X143552511Y-116911388D01*
X143631052Y-116996706D01*
X143636762Y-117002908D01*
X143637267Y-117003301D01*
X143814424Y-117141189D01*
X144012426Y-117248342D01*
X144012427Y-117248342D01*
X144012428Y-117248343D01*
X144118738Y-117284839D01*
X144225365Y-117321444D01*
X144447431Y-117358500D01*
X144447435Y-117358500D01*
X144672565Y-117358500D01*
X144672569Y-117358500D01*
X144894635Y-117321444D01*
X145107574Y-117248342D01*
X145305576Y-117141189D01*
X145483240Y-117002906D01*
X145635722Y-116837268D01*
X145724518Y-116701354D01*
X145778520Y-116655268D01*
X145848868Y-116645692D01*
X145913225Y-116675669D01*
X145935480Y-116701353D01*
X145939532Y-116707554D01*
X146024275Y-116837265D01*
X146024279Y-116837270D01*
X146092511Y-116911388D01*
X146171052Y-116996706D01*
X146176762Y-117002908D01*
X146177267Y-117003301D01*
X146354424Y-117141189D01*
X146552426Y-117248342D01*
X146552427Y-117248342D01*
X146552428Y-117248343D01*
X146658738Y-117284839D01*
X146765365Y-117321444D01*
X146987431Y-117358500D01*
X146987435Y-117358500D01*
X147212565Y-117358500D01*
X147212569Y-117358500D01*
X147434635Y-117321444D01*
X147647574Y-117248342D01*
X147845576Y-117141189D01*
X148023240Y-117002906D01*
X148175722Y-116837268D01*
X148298860Y-116648791D01*
X148389296Y-116442616D01*
X148444564Y-116224368D01*
X148463156Y-116000000D01*
X162137157Y-116000000D01*
X162156514Y-116332345D01*
X162156515Y-116332354D01*
X162214325Y-116660215D01*
X162214325Y-116660216D01*
X162309809Y-116979152D01*
X162309808Y-116979152D01*
X162441668Y-117284839D01*
X162441671Y-117284844D01*
X162608123Y-117573146D01*
X162608133Y-117573162D01*
X162804227Y-117836562D01*
X163882348Y-116758441D01*
X163970278Y-116879466D01*
X164120534Y-117029722D01*
X164241557Y-117117650D01*
X163166686Y-118192522D01*
X163290432Y-118296355D01*
X163290433Y-118296356D01*
X163568570Y-118479290D01*
X163866090Y-118628710D01*
X164178924Y-118742572D01*
X164178927Y-118742573D01*
X164502867Y-118819348D01*
X164502877Y-118819350D01*
X164833537Y-118858000D01*
X165166463Y-118858000D01*
X165497122Y-118819350D01*
X165497132Y-118819348D01*
X165821072Y-118742573D01*
X165821075Y-118742572D01*
X166133909Y-118628710D01*
X166431429Y-118479290D01*
X166709566Y-118296356D01*
X166833312Y-118192522D01*
X166833312Y-118192521D01*
X165758441Y-117117650D01*
X165879466Y-117029722D01*
X166029722Y-116879466D01*
X166117650Y-116758441D01*
X167195771Y-117836562D01*
X167195772Y-117836562D01*
X167391859Y-117573173D01*
X167391876Y-117573146D01*
X167558328Y-117284844D01*
X167558331Y-117284839D01*
X167690190Y-116979152D01*
X167785674Y-116660216D01*
X167785674Y-116660215D01*
X167843484Y-116332354D01*
X167843485Y-116332345D01*
X167862842Y-116000000D01*
X167843485Y-115667654D01*
X167843484Y-115667645D01*
X167785674Y-115339784D01*
X167785674Y-115339783D01*
X167690190Y-115020847D01*
X167690191Y-115020847D01*
X167558331Y-114715160D01*
X167558328Y-114715155D01*
X167391876Y-114426853D01*
X167391858Y-114426826D01*
X167195771Y-114163436D01*
X166117650Y-115241557D01*
X166029722Y-115120534D01*
X165879466Y-114970278D01*
X165758441Y-114882348D01*
X166833312Y-113807477D01*
X166833312Y-113807476D01*
X166709567Y-113703644D01*
X166709566Y-113703643D01*
X166431429Y-113520709D01*
X166133909Y-113371289D01*
X165821075Y-113257427D01*
X165821072Y-113257426D01*
X165497132Y-113180651D01*
X165497122Y-113180649D01*
X165166463Y-113142000D01*
X164833537Y-113142000D01*
X164502877Y-113180649D01*
X164502867Y-113180651D01*
X164178927Y-113257426D01*
X164178924Y-113257427D01*
X163866090Y-113371289D01*
X163568570Y-113520709D01*
X163290437Y-113703641D01*
X163290427Y-113703648D01*
X163166687Y-113807477D01*
X163166687Y-113807478D01*
X164241558Y-114882349D01*
X164120534Y-114970278D01*
X163970278Y-115120534D01*
X163882349Y-115241558D01*
X162804227Y-114163436D01*
X162608133Y-114426837D01*
X162608123Y-114426853D01*
X162441671Y-114715155D01*
X162441668Y-114715160D01*
X162309809Y-115020847D01*
X162214325Y-115339783D01*
X162214325Y-115339784D01*
X162156515Y-115667645D01*
X162156514Y-115667654D01*
X162137157Y-116000000D01*
X148463156Y-116000000D01*
X148444564Y-115775632D01*
X148389296Y-115557384D01*
X148298860Y-115351209D01*
X148281500Y-115324637D01*
X148175724Y-115162734D01*
X148175720Y-115162729D01*
X148023237Y-114997091D01*
X147903367Y-114903792D01*
X147845576Y-114858811D01*
X147647574Y-114751658D01*
X147647572Y-114751657D01*
X147647571Y-114751656D01*
X147434639Y-114678557D01*
X147434630Y-114678555D01*
X147390476Y-114671187D01*
X147212569Y-114641500D01*
X146987431Y-114641500D01*
X146839211Y-114666233D01*
X146765369Y-114678555D01*
X146765360Y-114678557D01*
X146552428Y-114751656D01*
X146552426Y-114751658D01*
X146354426Y-114858810D01*
X146354424Y-114858811D01*
X146176762Y-114997091D01*
X146024279Y-115162729D01*
X145935483Y-115298643D01*
X145881479Y-115344731D01*
X145811131Y-115354306D01*
X145746774Y-115324329D01*
X145724517Y-115298643D01*
X145635720Y-115162729D01*
X145483237Y-114997091D01*
X145363367Y-114903792D01*
X145305576Y-114858811D01*
X145107574Y-114751658D01*
X145107572Y-114751657D01*
X145107571Y-114751656D01*
X144894639Y-114678557D01*
X144894630Y-114678555D01*
X144850476Y-114671187D01*
X144672569Y-114641500D01*
X144447431Y-114641500D01*
X144299211Y-114666233D01*
X144225369Y-114678555D01*
X144225360Y-114678557D01*
X144012428Y-114751656D01*
X144012426Y-114751658D01*
X143814426Y-114858810D01*
X143814424Y-114858811D01*
X143636762Y-114997091D01*
X143484279Y-115162729D01*
X143395483Y-115298643D01*
X143341479Y-115344731D01*
X143271131Y-115354306D01*
X143206774Y-115324329D01*
X143184517Y-115298643D01*
X143095720Y-115162729D01*
X142943237Y-114997091D01*
X142823367Y-114903792D01*
X142765576Y-114858811D01*
X142567574Y-114751658D01*
X142567572Y-114751657D01*
X142567571Y-114751656D01*
X142354639Y-114678557D01*
X142354630Y-114678555D01*
X142310476Y-114671187D01*
X142132569Y-114641500D01*
X141907431Y-114641500D01*
X141759211Y-114666233D01*
X141685369Y-114678555D01*
X141685360Y-114678557D01*
X141472428Y-114751656D01*
X141472426Y-114751658D01*
X141274426Y-114858810D01*
X141274424Y-114858811D01*
X141096762Y-114997091D01*
X140944279Y-115162729D01*
X140855483Y-115298643D01*
X140801479Y-115344731D01*
X140731131Y-115354306D01*
X140666774Y-115324329D01*
X140644517Y-115298643D01*
X140555720Y-115162729D01*
X140403237Y-114997091D01*
X140283367Y-114903792D01*
X140225576Y-114858811D01*
X140027574Y-114751658D01*
X140027572Y-114751657D01*
X140027571Y-114751656D01*
X139814639Y-114678557D01*
X139814630Y-114678555D01*
X139770476Y-114671187D01*
X139592569Y-114641500D01*
X139367431Y-114641500D01*
X139219211Y-114666233D01*
X139145369Y-114678555D01*
X139145360Y-114678557D01*
X138932428Y-114751656D01*
X138932426Y-114751658D01*
X138734426Y-114858810D01*
X138734424Y-114858811D01*
X138556762Y-114997091D01*
X138404279Y-115162729D01*
X138315483Y-115298643D01*
X138261479Y-115344731D01*
X138191131Y-115354306D01*
X138126774Y-115324329D01*
X138104517Y-115298643D01*
X138015720Y-115162729D01*
X137863237Y-114997091D01*
X137743367Y-114903792D01*
X137685576Y-114858811D01*
X137487574Y-114751658D01*
X137487572Y-114751657D01*
X137487571Y-114751656D01*
X137274639Y-114678557D01*
X137274630Y-114678555D01*
X137230476Y-114671187D01*
X137052569Y-114641500D01*
X136827431Y-114641500D01*
X136679211Y-114666233D01*
X136605369Y-114678555D01*
X136605360Y-114678557D01*
X136392428Y-114751656D01*
X136392426Y-114751658D01*
X136194426Y-114858810D01*
X136194424Y-114858811D01*
X136016762Y-114997091D01*
X135864279Y-115162729D01*
X135775483Y-115298643D01*
X135721479Y-115344731D01*
X135651131Y-115354306D01*
X135586774Y-115324329D01*
X135564517Y-115298643D01*
X135475720Y-115162729D01*
X135323237Y-114997091D01*
X135203367Y-114903792D01*
X135145576Y-114858811D01*
X134947574Y-114751658D01*
X134947572Y-114751657D01*
X134947571Y-114751656D01*
X134734639Y-114678557D01*
X134734630Y-114678555D01*
X134690476Y-114671187D01*
X134512569Y-114641500D01*
X134287431Y-114641500D01*
X134139211Y-114666233D01*
X134065369Y-114678555D01*
X134065360Y-114678557D01*
X133852428Y-114751656D01*
X133852426Y-114751658D01*
X133654426Y-114858810D01*
X133654424Y-114858811D01*
X133476762Y-114997091D01*
X133324279Y-115162729D01*
X133235483Y-115298643D01*
X133181479Y-115344731D01*
X133111131Y-115354306D01*
X133046774Y-115324329D01*
X133024517Y-115298643D01*
X132935720Y-115162729D01*
X132783237Y-114997091D01*
X132663367Y-114903792D01*
X132605576Y-114858811D01*
X132407574Y-114751658D01*
X132407572Y-114751657D01*
X132407571Y-114751656D01*
X132194639Y-114678557D01*
X132194630Y-114678555D01*
X132150476Y-114671187D01*
X131972569Y-114641500D01*
X131747431Y-114641500D01*
X131599211Y-114666233D01*
X131525369Y-114678555D01*
X131525360Y-114678557D01*
X131312428Y-114751656D01*
X131312426Y-114751658D01*
X131114426Y-114858810D01*
X131114424Y-114858811D01*
X130936762Y-114997091D01*
X130784279Y-115162729D01*
X130695483Y-115298643D01*
X130641479Y-115344731D01*
X130571131Y-115354306D01*
X130506774Y-115324329D01*
X130484517Y-115298643D01*
X130395720Y-115162729D01*
X130243237Y-114997091D01*
X130123367Y-114903792D01*
X130065576Y-114858811D01*
X129867574Y-114751658D01*
X129867572Y-114751657D01*
X129867571Y-114751656D01*
X129654639Y-114678557D01*
X129654630Y-114678555D01*
X129610476Y-114671187D01*
X129432569Y-114641500D01*
X129207431Y-114641500D01*
X129059211Y-114666233D01*
X128985369Y-114678555D01*
X128985360Y-114678557D01*
X128772428Y-114751656D01*
X128772426Y-114751658D01*
X128574426Y-114858810D01*
X128574424Y-114858811D01*
X128396762Y-114997091D01*
X128244279Y-115162729D01*
X128155483Y-115298643D01*
X128101479Y-115344731D01*
X128031131Y-115354306D01*
X127966774Y-115324329D01*
X127944517Y-115298643D01*
X127855720Y-115162729D01*
X127703237Y-114997091D01*
X127583367Y-114903792D01*
X127525576Y-114858811D01*
X127327574Y-114751658D01*
X127327572Y-114751657D01*
X127327571Y-114751656D01*
X127114639Y-114678557D01*
X127114630Y-114678555D01*
X127070476Y-114671187D01*
X126892569Y-114641500D01*
X126667431Y-114641500D01*
X126519211Y-114666233D01*
X126445369Y-114678555D01*
X126445360Y-114678557D01*
X126232428Y-114751656D01*
X126232426Y-114751658D01*
X126034426Y-114858810D01*
X126034424Y-114858811D01*
X125856762Y-114997091D01*
X125704279Y-115162729D01*
X125615483Y-115298643D01*
X125561479Y-115344731D01*
X125491131Y-115354306D01*
X125426774Y-115324329D01*
X125404517Y-115298643D01*
X125315720Y-115162729D01*
X125163237Y-114997091D01*
X125043367Y-114903792D01*
X124985576Y-114858811D01*
X124787574Y-114751658D01*
X124787572Y-114751657D01*
X124787571Y-114751656D01*
X124574639Y-114678557D01*
X124574630Y-114678555D01*
X124530476Y-114671187D01*
X124352569Y-114641500D01*
X124127431Y-114641500D01*
X123979211Y-114666233D01*
X123905369Y-114678555D01*
X123905360Y-114678557D01*
X123692428Y-114751656D01*
X123692426Y-114751658D01*
X123494426Y-114858810D01*
X123494424Y-114858811D01*
X123316762Y-114997091D01*
X123164279Y-115162729D01*
X123075483Y-115298643D01*
X123021479Y-115344731D01*
X122951131Y-115354306D01*
X122886774Y-115324329D01*
X122864517Y-115298643D01*
X122775720Y-115162729D01*
X122623237Y-114997091D01*
X122503367Y-114903792D01*
X122445576Y-114858811D01*
X122247574Y-114751658D01*
X122247572Y-114751657D01*
X122247571Y-114751656D01*
X122034639Y-114678557D01*
X122034630Y-114678555D01*
X121990476Y-114671187D01*
X121812569Y-114641500D01*
X121587431Y-114641500D01*
X121439211Y-114666233D01*
X121365369Y-114678555D01*
X121365360Y-114678557D01*
X121152428Y-114751656D01*
X121152426Y-114751658D01*
X120954426Y-114858810D01*
X120954424Y-114858811D01*
X120776762Y-114997091D01*
X120624279Y-115162729D01*
X120535483Y-115298643D01*
X120481479Y-115344731D01*
X120411131Y-115354306D01*
X120346774Y-115324329D01*
X120324517Y-115298643D01*
X120235720Y-115162729D01*
X120083237Y-114997091D01*
X119963367Y-114903792D01*
X119905576Y-114858811D01*
X119707574Y-114751658D01*
X119707572Y-114751657D01*
X119707571Y-114751656D01*
X119494639Y-114678557D01*
X119494630Y-114678555D01*
X119450476Y-114671187D01*
X119272569Y-114641500D01*
X119047431Y-114641500D01*
X118899211Y-114666233D01*
X118825369Y-114678555D01*
X118825360Y-114678557D01*
X118612428Y-114751656D01*
X118612426Y-114751658D01*
X118414426Y-114858810D01*
X118414424Y-114858811D01*
X118236762Y-114997091D01*
X118084279Y-115162729D01*
X117995483Y-115298643D01*
X117941479Y-115344731D01*
X117871131Y-115354306D01*
X117806774Y-115324329D01*
X117784517Y-115298643D01*
X117695720Y-115162729D01*
X117543237Y-114997091D01*
X117423367Y-114903792D01*
X117365576Y-114858811D01*
X117167574Y-114751658D01*
X117167572Y-114751657D01*
X117167571Y-114751656D01*
X116954639Y-114678557D01*
X116954630Y-114678555D01*
X116910476Y-114671187D01*
X116732569Y-114641500D01*
X116507431Y-114641500D01*
X116359211Y-114666233D01*
X116285369Y-114678555D01*
X116285360Y-114678557D01*
X116072428Y-114751656D01*
X116072426Y-114751658D01*
X115874426Y-114858810D01*
X115874424Y-114858811D01*
X115696762Y-114997091D01*
X115544279Y-115162729D01*
X115455483Y-115298643D01*
X115401479Y-115344731D01*
X115331131Y-115354306D01*
X115266774Y-115324329D01*
X115244517Y-115298643D01*
X115155720Y-115162729D01*
X115003237Y-114997091D01*
X114883367Y-114903792D01*
X114825576Y-114858811D01*
X114627574Y-114751658D01*
X114627572Y-114751657D01*
X114627571Y-114751656D01*
X114414639Y-114678557D01*
X114414630Y-114678555D01*
X114370476Y-114671187D01*
X114192569Y-114641500D01*
X113967431Y-114641500D01*
X113819211Y-114666233D01*
X113745369Y-114678555D01*
X113745360Y-114678557D01*
X113532428Y-114751656D01*
X113532426Y-114751658D01*
X113334426Y-114858810D01*
X113334424Y-114858811D01*
X113156762Y-114997091D01*
X113004279Y-115162729D01*
X112915483Y-115298643D01*
X112861479Y-115344731D01*
X112791131Y-115354306D01*
X112726774Y-115324329D01*
X112704517Y-115298643D01*
X112615720Y-115162729D01*
X112463237Y-114997091D01*
X112343367Y-114903792D01*
X112285576Y-114858811D01*
X112087574Y-114751658D01*
X112087572Y-114751657D01*
X112087571Y-114751656D01*
X111874639Y-114678557D01*
X111874630Y-114678555D01*
X111830476Y-114671187D01*
X111652569Y-114641500D01*
X111427431Y-114641500D01*
X111279211Y-114666233D01*
X111205369Y-114678555D01*
X111205360Y-114678557D01*
X110992428Y-114751656D01*
X110992426Y-114751658D01*
X110794426Y-114858810D01*
X110794424Y-114858811D01*
X110616762Y-114997091D01*
X110555754Y-115063363D01*
X110494901Y-115099933D01*
X110423936Y-115097798D01*
X110365391Y-115057636D01*
X110344999Y-115022057D01*
X110300889Y-114903797D01*
X110300887Y-114903792D01*
X110213261Y-114786738D01*
X110096207Y-114699112D01*
X110096202Y-114699110D01*
X109959204Y-114648011D01*
X109959196Y-114648009D01*
X109898649Y-114641500D01*
X109898638Y-114641500D01*
X108101362Y-114641500D01*
X108101350Y-114641500D01*
X108040803Y-114648009D01*
X108040795Y-114648011D01*
X107903797Y-114699110D01*
X107903792Y-114699112D01*
X107786738Y-114786738D01*
X107699112Y-114903792D01*
X107699110Y-114903797D01*
X107648011Y-115040795D01*
X107648009Y-115040803D01*
X107641500Y-115101350D01*
X106714291Y-115101350D01*
X106690190Y-115020847D01*
X106690191Y-115020847D01*
X106558331Y-114715160D01*
X106558328Y-114715155D01*
X106391876Y-114426853D01*
X106391858Y-114426826D01*
X106195771Y-114163436D01*
X105117650Y-115241557D01*
X105029722Y-115120534D01*
X104879466Y-114970278D01*
X104758441Y-114882348D01*
X105833312Y-113807477D01*
X105833312Y-113807476D01*
X105709567Y-113703644D01*
X105709566Y-113703643D01*
X105431429Y-113520709D01*
X105133909Y-113371289D01*
X104821075Y-113257427D01*
X104821072Y-113257426D01*
X104497132Y-113180651D01*
X104497122Y-113180649D01*
X104166463Y-113142000D01*
X103833537Y-113142000D01*
X103502877Y-113180649D01*
X103502867Y-113180651D01*
X103178927Y-113257426D01*
X103178924Y-113257427D01*
X102866090Y-113371289D01*
X102568570Y-113520709D01*
X102290437Y-113703641D01*
X102290427Y-113703648D01*
X102166687Y-113807477D01*
X102166687Y-113807478D01*
X103241558Y-114882349D01*
X103120534Y-114970278D01*
X102970278Y-115120534D01*
X102882349Y-115241558D01*
X101804227Y-114163436D01*
X101608133Y-114426837D01*
X101608123Y-114426853D01*
X101441671Y-114715155D01*
X101441668Y-114715160D01*
X101309809Y-115020847D01*
X101214325Y-115339783D01*
X101214325Y-115339784D01*
X101156515Y-115667645D01*
X101156514Y-115667654D01*
X101137157Y-116000000D01*
X100284000Y-116000000D01*
X100284000Y-103322000D01*
X103430496Y-103322000D01*
X103450457Y-103511927D01*
X103457970Y-103535048D01*
X103509473Y-103693556D01*
X103509476Y-103693561D01*
X103604958Y-103858941D01*
X103604965Y-103858951D01*
X103732744Y-104000864D01*
X103732747Y-104000866D01*
X103887248Y-104113118D01*
X104061712Y-104190794D01*
X104248513Y-104230500D01*
X104439487Y-104230500D01*
X104626288Y-104190794D01*
X104800752Y-104113118D01*
X104955253Y-104000866D01*
X105003249Y-103947561D01*
X105083034Y-103858951D01*
X105083035Y-103858949D01*
X105083040Y-103858944D01*
X105178527Y-103693556D01*
X105237542Y-103511928D01*
X105257504Y-103322000D01*
X105237542Y-103132072D01*
X105178527Y-102950444D01*
X105083040Y-102785056D01*
X105083038Y-102785054D01*
X105083034Y-102785048D01*
X104955255Y-102643135D01*
X104800752Y-102530882D01*
X104626288Y-102453206D01*
X104439487Y-102413500D01*
X104248513Y-102413500D01*
X104061711Y-102453206D01*
X103887247Y-102530882D01*
X103732744Y-102643135D01*
X103604965Y-102785048D01*
X103604958Y-102785058D01*
X103509476Y-102950438D01*
X103509473Y-102950445D01*
X103450457Y-103132072D01*
X103430496Y-103322000D01*
X100284000Y-103322000D01*
X100284000Y-92083605D01*
X119204500Y-92083605D01*
X119204500Y-92083608D01*
X119204500Y-106307606D01*
X119204500Y-106432394D01*
X119228845Y-106554785D01*
X119276600Y-106670075D01*
X119345929Y-106773833D01*
X119345931Y-106773835D01*
X124260161Y-111688067D01*
X124260167Y-111688072D01*
X124363925Y-111757401D01*
X124442454Y-111789928D01*
X124479215Y-111805155D01*
X124601606Y-111829500D01*
X124601607Y-111829500D01*
X124726394Y-111829500D01*
X139602673Y-111829500D01*
X139653922Y-111840393D01*
X139717712Y-111868794D01*
X139904513Y-111908500D01*
X140095487Y-111908500D01*
X140282288Y-111868794D01*
X140456752Y-111791118D01*
X140611253Y-111678866D01*
X140682264Y-111600000D01*
X164886496Y-111600000D01*
X164906457Y-111789927D01*
X164922855Y-111840393D01*
X164965473Y-111971556D01*
X164965476Y-111971561D01*
X165060958Y-112136941D01*
X165060965Y-112136951D01*
X165188744Y-112278864D01*
X165188747Y-112278866D01*
X165343248Y-112391118D01*
X165517712Y-112468794D01*
X165704513Y-112508500D01*
X165895487Y-112508500D01*
X166082288Y-112468794D01*
X166256752Y-112391118D01*
X166411253Y-112278866D01*
X166539040Y-112136944D01*
X166634527Y-111971556D01*
X166693542Y-111789928D01*
X166713504Y-111600000D01*
X166693542Y-111410072D01*
X166634527Y-111228444D01*
X166539040Y-111063056D01*
X166539038Y-111063054D01*
X166539034Y-111063048D01*
X166411255Y-110921135D01*
X166256752Y-110808882D01*
X166082288Y-110731206D01*
X165895487Y-110691500D01*
X165704513Y-110691500D01*
X165517711Y-110731206D01*
X165343247Y-110808882D01*
X165188744Y-110921135D01*
X165060965Y-111063048D01*
X165060958Y-111063058D01*
X164965476Y-111228438D01*
X164965473Y-111228445D01*
X164906457Y-111410072D01*
X164886496Y-111600000D01*
X140682264Y-111600000D01*
X140739040Y-111536944D01*
X140834527Y-111371556D01*
X140893542Y-111189928D01*
X140913504Y-111000000D01*
X140893542Y-110810072D01*
X140834527Y-110628444D01*
X140739040Y-110463056D01*
X140739038Y-110463054D01*
X140739034Y-110463048D01*
X140611255Y-110321135D01*
X140456752Y-110208882D01*
X140282288Y-110131206D01*
X140095487Y-110091500D01*
X139904513Y-110091500D01*
X139717711Y-110131206D01*
X139543247Y-110208882D01*
X139388744Y-110321135D01*
X139260960Y-110463055D01*
X139260957Y-110463058D01*
X139239920Y-110499498D01*
X139188538Y-110548492D01*
X139130800Y-110562500D01*
X124978595Y-110562500D01*
X124910474Y-110542498D01*
X124889500Y-110525595D01*
X120508405Y-106144500D01*
X120474379Y-106082188D01*
X120471500Y-106055405D01*
X120471500Y-104800000D01*
X123286496Y-104800000D01*
X123306457Y-104989927D01*
X123336526Y-105082470D01*
X123365473Y-105171556D01*
X123365476Y-105171561D01*
X123460958Y-105336941D01*
X123460961Y-105336945D01*
X123531863Y-105415690D01*
X123562580Y-105479698D01*
X123553815Y-105550151D01*
X123531863Y-105584310D01*
X123460961Y-105663054D01*
X123460958Y-105663058D01*
X123365476Y-105828438D01*
X123365473Y-105828445D01*
X123306457Y-106010072D01*
X123286496Y-106200000D01*
X123306457Y-106389927D01*
X123327470Y-106454595D01*
X123365473Y-106571556D01*
X123365476Y-106571561D01*
X123460703Y-106736500D01*
X123460960Y-106736944D01*
X123534137Y-106818215D01*
X123564853Y-106882220D01*
X123566500Y-106902524D01*
X123566500Y-107137606D01*
X123566500Y-107262394D01*
X123590845Y-107384785D01*
X123638600Y-107500075D01*
X123707929Y-107603833D01*
X124507929Y-108403833D01*
X124596167Y-108492071D01*
X124699925Y-108561400D01*
X124815215Y-108609155D01*
X124937606Y-108633500D01*
X125335858Y-108633500D01*
X125403979Y-108653502D01*
X125450472Y-108707158D01*
X125461537Y-108750511D01*
X125466727Y-108823081D01*
X125493690Y-108914907D01*
X125507904Y-108963316D01*
X125586923Y-109086271D01*
X125697381Y-109181984D01*
X125830330Y-109242700D01*
X125975000Y-109263500D01*
X125975003Y-109263500D01*
X126975002Y-109263500D01*
X127039517Y-109259431D01*
X127039520Y-109259430D01*
X127039528Y-109259430D01*
X127085218Y-109246843D01*
X127136604Y-109243602D01*
X127275000Y-109263500D01*
X128424994Y-109263500D01*
X128425000Y-109263500D01*
X128498079Y-109258273D01*
X128638316Y-109217096D01*
X128761271Y-109138077D01*
X128856984Y-109027619D01*
X128886498Y-108962991D01*
X128932990Y-108909338D01*
X129001110Y-108889335D01*
X129027305Y-108892088D01*
X129104513Y-108908500D01*
X129104514Y-108908500D01*
X129295487Y-108908500D01*
X129482288Y-108868794D01*
X129656752Y-108791118D01*
X129811253Y-108678866D01*
X129939040Y-108536944D01*
X130034527Y-108371556D01*
X130093542Y-108189928D01*
X130113504Y-108000000D01*
X130093542Y-107810072D01*
X130034527Y-107628444D01*
X129939040Y-107463056D01*
X129939038Y-107463054D01*
X129939034Y-107463048D01*
X129811255Y-107321135D01*
X129656752Y-107208882D01*
X129482288Y-107131206D01*
X129295487Y-107091500D01*
X129104513Y-107091500D01*
X129104512Y-107091500D01*
X129032545Y-107106797D01*
X128961754Y-107101395D01*
X128905121Y-107058578D01*
X128893386Y-107038692D01*
X128886796Y-107028438D01*
X128813077Y-106913729D01*
X128702619Y-106818016D01*
X128569670Y-106757300D01*
X128425000Y-106736500D01*
X127275000Y-106736500D01*
X127255225Y-106738081D01*
X127193391Y-106743025D01*
X127166036Y-106751559D01*
X127110585Y-106755993D01*
X126975000Y-106736500D01*
X125975000Y-106736500D01*
X125926280Y-106739984D01*
X125901918Y-106741727D01*
X125761686Y-106782903D01*
X125761682Y-106782905D01*
X125638729Y-106861922D01*
X125543016Y-106972380D01*
X125482300Y-107105329D01*
X125460860Y-107254454D01*
X125459741Y-107254293D01*
X125436735Y-107315998D01*
X125379904Y-107358551D01*
X125335858Y-107366500D01*
X125314594Y-107366500D01*
X125246473Y-107346498D01*
X125225499Y-107329595D01*
X124878515Y-106982611D01*
X124844489Y-106920299D01*
X124849554Y-106849484D01*
X124873971Y-106809210D01*
X124939040Y-106736944D01*
X125018105Y-106600000D01*
X132886496Y-106600000D01*
X132906457Y-106789927D01*
X132936446Y-106882220D01*
X132965473Y-106971556D01*
X132965476Y-106971561D01*
X133060958Y-107136941D01*
X133060965Y-107136951D01*
X133188744Y-107278864D01*
X133188747Y-107278866D01*
X133343248Y-107391118D01*
X133517712Y-107468794D01*
X133704513Y-107508500D01*
X133895487Y-107508500D01*
X134082288Y-107468794D01*
X134256752Y-107391118D01*
X134411253Y-107278866D01*
X134426083Y-107262396D01*
X134539034Y-107136951D01*
X134539035Y-107136949D01*
X134539040Y-107136944D01*
X134634527Y-106971556D01*
X134693542Y-106789928D01*
X134713504Y-106600000D01*
X134693542Y-106410072D01*
X134634527Y-106228444D01*
X134539040Y-106063056D01*
X134539038Y-106063054D01*
X134539034Y-106063048D01*
X134411255Y-105921135D01*
X134256752Y-105808882D01*
X134082288Y-105731206D01*
X133895487Y-105691500D01*
X133704513Y-105691500D01*
X133517711Y-105731206D01*
X133343247Y-105808882D01*
X133188744Y-105921135D01*
X133060965Y-106063048D01*
X133060958Y-106063058D01*
X132965476Y-106228438D01*
X132965473Y-106228444D01*
X132955781Y-106258272D01*
X132906457Y-106410072D01*
X132886496Y-106600000D01*
X125018105Y-106600000D01*
X125034527Y-106571556D01*
X125093542Y-106389928D01*
X125113504Y-106200000D01*
X125093542Y-106010072D01*
X125034527Y-105828444D01*
X125031095Y-105822500D01*
X125014357Y-105753508D01*
X125037576Y-105686415D01*
X125093382Y-105642527D01*
X125140214Y-105633500D01*
X125335858Y-105633500D01*
X125403979Y-105653502D01*
X125450472Y-105707158D01*
X125461536Y-105750508D01*
X125466727Y-105823079D01*
X125507904Y-105963316D01*
X125547413Y-106024793D01*
X125572003Y-106063056D01*
X125586923Y-106086271D01*
X125697381Y-106181984D01*
X125830330Y-106242700D01*
X125975000Y-106263500D01*
X125975003Y-106263500D01*
X126975002Y-106263500D01*
X127039517Y-106259431D01*
X127039520Y-106259430D01*
X127039528Y-106259430D01*
X127085218Y-106246843D01*
X127136604Y-106243602D01*
X127275000Y-106263500D01*
X128424994Y-106263500D01*
X128425000Y-106263500D01*
X128498079Y-106258273D01*
X128638316Y-106217096D01*
X128761271Y-106138077D01*
X128856984Y-106027619D01*
X128886498Y-105962991D01*
X128932990Y-105909338D01*
X129001110Y-105889335D01*
X129027305Y-105892088D01*
X129104513Y-105908500D01*
X129104514Y-105908500D01*
X129295487Y-105908500D01*
X129482288Y-105868794D01*
X129656752Y-105791118D01*
X129811253Y-105678866D01*
X129825487Y-105663058D01*
X129939034Y-105536951D01*
X129939035Y-105536949D01*
X129939040Y-105536944D01*
X130034527Y-105371556D01*
X130093542Y-105189928D01*
X130113504Y-105000000D01*
X144170496Y-105000000D01*
X144190457Y-105189927D01*
X144220526Y-105282470D01*
X144249473Y-105371556D01*
X144249476Y-105371561D01*
X144344958Y-105536941D01*
X144344965Y-105536951D01*
X144472744Y-105678864D01*
X144483137Y-105686415D01*
X144627248Y-105791118D01*
X144801712Y-105868794D01*
X144988513Y-105908500D01*
X145179487Y-105908500D01*
X145366288Y-105868794D01*
X145540752Y-105791118D01*
X145540752Y-105791117D01*
X145611118Y-105781684D01*
X145643247Y-105791117D01*
X145643248Y-105791118D01*
X145817712Y-105868794D01*
X146004513Y-105908500D01*
X146195487Y-105908500D01*
X146382288Y-105868794D01*
X146556752Y-105791118D01*
X146711253Y-105678866D01*
X146725487Y-105663058D01*
X146839034Y-105536951D01*
X146839035Y-105536949D01*
X146839040Y-105536944D01*
X146934527Y-105371556D01*
X146993542Y-105189928D01*
X147013504Y-105000000D01*
X146993542Y-104810072D01*
X146934527Y-104628444D01*
X146839040Y-104463056D01*
X146839038Y-104463054D01*
X146839034Y-104463048D01*
X146711255Y-104321135D01*
X146556752Y-104208882D01*
X146382288Y-104131206D01*
X146195487Y-104091500D01*
X146004513Y-104091500D01*
X145817709Y-104131206D01*
X145643248Y-104208881D01*
X145572881Y-104218315D01*
X145540752Y-104208881D01*
X145366290Y-104131206D01*
X145179487Y-104091500D01*
X144988513Y-104091500D01*
X144801711Y-104131206D01*
X144627247Y-104208882D01*
X144472744Y-104321135D01*
X144344965Y-104463048D01*
X144344958Y-104463058D01*
X144249476Y-104628438D01*
X144249473Y-104628445D01*
X144190457Y-104810072D01*
X144170496Y-105000000D01*
X130113504Y-105000000D01*
X130093542Y-104810072D01*
X130034527Y-104628444D01*
X129939040Y-104463056D01*
X129939038Y-104463054D01*
X129939034Y-104463048D01*
X129811255Y-104321135D01*
X129656752Y-104208882D01*
X129482288Y-104131206D01*
X129295487Y-104091500D01*
X129104513Y-104091500D01*
X129104512Y-104091500D01*
X129032545Y-104106797D01*
X128961754Y-104101395D01*
X128905121Y-104058578D01*
X128893386Y-104038692D01*
X128874228Y-104008882D01*
X128813077Y-103913729D01*
X128702619Y-103818016D01*
X128569670Y-103757300D01*
X128425000Y-103736500D01*
X127275000Y-103736500D01*
X127255225Y-103738081D01*
X127193391Y-103743025D01*
X127166036Y-103751559D01*
X127110585Y-103755993D01*
X126975000Y-103736500D01*
X125975000Y-103736500D01*
X125926280Y-103739984D01*
X125901918Y-103741727D01*
X125761686Y-103782903D01*
X125761682Y-103782905D01*
X125638729Y-103861922D01*
X125543016Y-103972380D01*
X125512733Y-104038692D01*
X125482300Y-104105330D01*
X125462059Y-104246116D01*
X125460860Y-104254454D01*
X125459741Y-104254293D01*
X125436735Y-104315998D01*
X125379904Y-104358551D01*
X125335858Y-104366500D01*
X125071510Y-104366500D01*
X125003389Y-104346498D01*
X124962392Y-104303501D01*
X124939043Y-104263062D01*
X124939040Y-104263056D01*
X124939037Y-104263052D01*
X124939034Y-104263048D01*
X124811255Y-104121135D01*
X124656752Y-104008882D01*
X124482288Y-103931206D01*
X124295487Y-103891500D01*
X124104513Y-103891500D01*
X123917711Y-103931206D01*
X123743247Y-104008882D01*
X123588744Y-104121135D01*
X123460965Y-104263048D01*
X123460958Y-104263058D01*
X123365476Y-104428438D01*
X123365473Y-104428445D01*
X123306457Y-104610072D01*
X123286496Y-104800000D01*
X120471500Y-104800000D01*
X120471500Y-101036000D01*
X129846496Y-101036000D01*
X129866457Y-101225927D01*
X129896526Y-101318470D01*
X129925473Y-101407556D01*
X129925476Y-101407561D01*
X130020958Y-101572941D01*
X130020965Y-101572951D01*
X130148744Y-101714864D01*
X130148747Y-101714866D01*
X130303248Y-101827118D01*
X130477712Y-101904794D01*
X130664513Y-101944500D01*
X130855487Y-101944500D01*
X131042288Y-101904794D01*
X131216752Y-101827118D01*
X131371253Y-101714866D01*
X131482612Y-101591189D01*
X131499034Y-101572951D01*
X131499035Y-101572949D01*
X131499040Y-101572944D01*
X131594527Y-101407556D01*
X131653542Y-101225928D01*
X131673504Y-101036000D01*
X131653542Y-100846072D01*
X131594527Y-100664444D01*
X131499040Y-100499056D01*
X131499038Y-100499054D01*
X131499034Y-100499048D01*
X131371255Y-100357135D01*
X131216752Y-100244882D01*
X131042288Y-100167206D01*
X130855487Y-100127500D01*
X130664513Y-100127500D01*
X130477711Y-100167206D01*
X130303247Y-100244882D01*
X130148744Y-100357135D01*
X130020965Y-100499048D01*
X130020958Y-100499058D01*
X129925476Y-100664438D01*
X129925473Y-100664445D01*
X129866457Y-100846072D01*
X129846496Y-101036000D01*
X120471500Y-101036000D01*
X120471500Y-92638485D01*
X120491502Y-92570364D01*
X120545158Y-92523871D01*
X120571300Y-92515238D01*
X120632949Y-92502135D01*
X120807413Y-92424459D01*
X120961914Y-92312207D01*
X121089701Y-92170285D01*
X121185188Y-92004897D01*
X121244203Y-91823269D01*
X121264165Y-91633341D01*
X121244203Y-91443413D01*
X121185188Y-91261785D01*
X121089701Y-91096397D01*
X121089699Y-91096395D01*
X121089695Y-91096389D01*
X120961916Y-90954476D01*
X120807413Y-90842223D01*
X120632949Y-90764547D01*
X120446148Y-90724841D01*
X120255174Y-90724841D01*
X120068372Y-90764547D01*
X119893908Y-90842223D01*
X119739405Y-90954476D01*
X119611626Y-91096389D01*
X119611619Y-91096399D01*
X119516137Y-91261779D01*
X119516134Y-91261786D01*
X119457118Y-91443413D01*
X119439753Y-91608635D01*
X119412740Y-91674292D01*
X119403539Y-91684559D01*
X119345927Y-91742171D01*
X119345926Y-91742173D01*
X119276601Y-91845925D01*
X119228846Y-91961214D01*
X119204500Y-92083605D01*
X100284000Y-92083605D01*
X100284000Y-88181557D01*
X116030939Y-88181557D01*
X116050900Y-88371484D01*
X116053283Y-88378817D01*
X116109916Y-88553113D01*
X116109919Y-88553118D01*
X116205401Y-88718498D01*
X116205408Y-88718508D01*
X116333187Y-88860421D01*
X116333190Y-88860423D01*
X116487691Y-88972675D01*
X116662155Y-89050351D01*
X116848956Y-89090057D01*
X117039930Y-89090057D01*
X117226731Y-89050351D01*
X117401195Y-88972675D01*
X117555696Y-88860423D01*
X117568488Y-88846216D01*
X117683477Y-88718508D01*
X117683478Y-88718506D01*
X117683483Y-88718501D01*
X117778970Y-88553113D01*
X117837985Y-88371485D01*
X117857947Y-88181557D01*
X117837985Y-87991629D01*
X117778970Y-87810001D01*
X117683483Y-87644613D01*
X117683481Y-87644611D01*
X117683477Y-87644605D01*
X117555698Y-87502692D01*
X117401195Y-87390439D01*
X117226731Y-87312763D01*
X117039930Y-87273057D01*
X116848956Y-87273057D01*
X116662154Y-87312763D01*
X116487690Y-87390439D01*
X116333187Y-87502692D01*
X116205408Y-87644605D01*
X116205401Y-87644615D01*
X116109919Y-87809995D01*
X116109916Y-87810002D01*
X116050900Y-87991629D01*
X116030939Y-88181557D01*
X100284000Y-88181557D01*
X100284000Y-83906600D01*
X113932796Y-83906600D01*
X113952757Y-84096527D01*
X113975073Y-84165206D01*
X114011773Y-84278156D01*
X114011776Y-84278161D01*
X114107258Y-84443541D01*
X114107265Y-84443551D01*
X114235044Y-84585464D01*
X114296299Y-84629968D01*
X114389548Y-84697718D01*
X114564012Y-84775394D01*
X114750813Y-84815100D01*
X114941787Y-84815100D01*
X115128588Y-84775394D01*
X115303052Y-84697718D01*
X115457553Y-84585466D01*
X115585340Y-84443544D01*
X115680827Y-84278156D01*
X115739842Y-84096528D01*
X115759804Y-83906600D01*
X115739842Y-83716672D01*
X115680827Y-83535044D01*
X115585340Y-83369656D01*
X115585338Y-83369654D01*
X115585334Y-83369648D01*
X115457555Y-83227735D01*
X115303052Y-83115482D01*
X115128588Y-83037806D01*
X114941787Y-82998100D01*
X114750813Y-82998100D01*
X114564011Y-83037806D01*
X114389547Y-83115482D01*
X114235044Y-83227735D01*
X114107265Y-83369648D01*
X114107258Y-83369658D01*
X114011776Y-83535038D01*
X114011773Y-83535045D01*
X113952757Y-83716672D01*
X113932796Y-83906600D01*
X100284000Y-83906600D01*
X100284000Y-74000000D01*
X101137157Y-74000000D01*
X101156514Y-74332345D01*
X101156515Y-74332354D01*
X101214325Y-74660215D01*
X101214325Y-74660216D01*
X101309809Y-74979152D01*
X101309808Y-74979152D01*
X101441668Y-75284839D01*
X101441671Y-75284844D01*
X101608123Y-75573146D01*
X101608133Y-75573162D01*
X101804227Y-75836562D01*
X102882348Y-74758441D01*
X102970278Y-74879466D01*
X103120534Y-75029722D01*
X103241557Y-75117650D01*
X102166686Y-76192522D01*
X102290432Y-76296355D01*
X102290433Y-76296356D01*
X102568570Y-76479290D01*
X102866090Y-76628710D01*
X103178924Y-76742572D01*
X103178927Y-76742573D01*
X103502867Y-76819348D01*
X103502877Y-76819350D01*
X103833537Y-76858000D01*
X104166463Y-76858000D01*
X104497122Y-76819350D01*
X104497132Y-76819348D01*
X104821072Y-76742573D01*
X104821075Y-76742572D01*
X105133909Y-76628710D01*
X105431429Y-76479290D01*
X105709566Y-76296356D01*
X105833312Y-76192522D01*
X105833312Y-76192521D01*
X104758441Y-75117650D01*
X104879466Y-75029722D01*
X105029722Y-74879466D01*
X105117650Y-74758441D01*
X106195771Y-75836562D01*
X106195772Y-75836562D01*
X106391859Y-75573173D01*
X106391876Y-75573146D01*
X106558328Y-75284844D01*
X106558331Y-75284839D01*
X106690190Y-74979152D01*
X106785674Y-74660216D01*
X106785674Y-74660215D01*
X106843484Y-74332354D01*
X106843485Y-74332345D01*
X106862842Y-74000000D01*
X106843485Y-73667654D01*
X106843484Y-73667645D01*
X106785674Y-73339784D01*
X106785674Y-73339783D01*
X106714291Y-73101350D01*
X107641500Y-73101350D01*
X107641500Y-74898649D01*
X107648009Y-74959196D01*
X107648011Y-74959204D01*
X107699110Y-75096202D01*
X107699112Y-75096207D01*
X107786738Y-75213261D01*
X107903792Y-75300887D01*
X107903794Y-75300888D01*
X107903796Y-75300889D01*
X107911593Y-75303797D01*
X108040795Y-75351988D01*
X108040803Y-75351990D01*
X108101350Y-75358499D01*
X108101355Y-75358499D01*
X108101362Y-75358500D01*
X108960406Y-75358500D01*
X109028527Y-75378502D01*
X109049501Y-75395405D01*
X109566929Y-75912833D01*
X109655167Y-76001071D01*
X109758925Y-76070400D01*
X109874215Y-76118155D01*
X109996606Y-76142500D01*
X111266995Y-76142500D01*
X111335116Y-76162502D01*
X111356090Y-76179405D01*
X111500766Y-76324081D01*
X111604524Y-76393410D01*
X111686046Y-76427177D01*
X111719814Y-76441164D01*
X111842205Y-76465509D01*
X111842206Y-76465509D01*
X111966993Y-76465509D01*
X114258415Y-76465509D01*
X114326536Y-76485511D01*
X114347510Y-76502414D01*
X114663074Y-76817978D01*
X114697100Y-76880290D01*
X114692035Y-76951105D01*
X114649488Y-77007941D01*
X114600176Y-77030320D01*
X114538611Y-77043406D01*
X114364147Y-77121082D01*
X114209644Y-77233335D01*
X114081865Y-77375248D01*
X114081858Y-77375258D01*
X114012028Y-77496208D01*
X113986373Y-77540644D01*
X113971899Y-77585186D01*
X113927357Y-77722272D01*
X113907396Y-77912200D01*
X113927357Y-78102127D01*
X113952887Y-78180697D01*
X113986373Y-78283756D01*
X113986376Y-78283761D01*
X114081858Y-78449141D01*
X114081865Y-78449151D01*
X114209644Y-78591064D01*
X114270899Y-78635568D01*
X114364148Y-78703318D01*
X114538612Y-78780994D01*
X114725413Y-78820700D01*
X114916387Y-78820700D01*
X115103188Y-78780994D01*
X115277652Y-78703318D01*
X115432153Y-78591066D01*
X115497542Y-78518444D01*
X115559934Y-78449151D01*
X115559935Y-78449149D01*
X115559940Y-78449144D01*
X115655427Y-78283756D01*
X115707991Y-78121980D01*
X115748065Y-78063376D01*
X115813462Y-78035739D01*
X115883418Y-78047846D01*
X115916919Y-78071823D01*
X118945083Y-81099987D01*
X118979109Y-81162299D01*
X118981988Y-81189082D01*
X118981989Y-82775509D01*
X118981989Y-82900297D01*
X119006334Y-83022688D01*
X119054089Y-83137978D01*
X119123418Y-83241736D01*
X119123420Y-83241738D01*
X119676581Y-83794899D01*
X119710607Y-83857211D01*
X119713486Y-83883994D01*
X119713487Y-86753413D01*
X119713487Y-86878201D01*
X119737832Y-87000592D01*
X119785587Y-87115882D01*
X119854916Y-87219640D01*
X119854918Y-87219642D01*
X126914595Y-94279319D01*
X126948621Y-94341631D01*
X126951500Y-94368414D01*
X126951500Y-99616334D01*
X126951500Y-99741122D01*
X126975845Y-99863513D01*
X127023600Y-99978803D01*
X127023601Y-99978804D01*
X127066600Y-100043157D01*
X127087145Y-100099989D01*
X127106447Y-100283645D01*
X127130326Y-100357134D01*
X127165463Y-100465274D01*
X127184967Y-100499056D01*
X127260948Y-100630659D01*
X127260955Y-100630669D01*
X127388734Y-100772582D01*
X127388737Y-100772584D01*
X127543238Y-100884836D01*
X127717702Y-100962512D01*
X127904503Y-101002218D01*
X128095477Y-101002218D01*
X128282278Y-100962512D01*
X128456742Y-100884836D01*
X128611243Y-100772584D01*
X128739030Y-100630662D01*
X128834517Y-100465274D01*
X128893532Y-100283646D01*
X128903724Y-100186664D01*
X128930736Y-100121009D01*
X128977787Y-100084728D01*
X129057752Y-100049126D01*
X129212253Y-99936874D01*
X129260261Y-99883556D01*
X129340034Y-99794959D01*
X129340035Y-99794957D01*
X129340040Y-99794952D01*
X129435527Y-99629564D01*
X129494542Y-99447936D01*
X129514504Y-99258008D01*
X129498715Y-99107787D01*
X129494543Y-99068087D01*
X129493833Y-99064749D01*
X129493983Y-99062767D01*
X129493852Y-99061512D01*
X129494081Y-99061487D01*
X129499225Y-98993958D01*
X129542034Y-98937319D01*
X129542909Y-98936675D01*
X129606177Y-98890710D01*
X129629777Y-98864500D01*
X129733958Y-98748795D01*
X129733959Y-98748793D01*
X129733964Y-98748788D01*
X129829451Y-98583400D01*
X129888466Y-98401772D01*
X129908428Y-98211844D01*
X129888466Y-98021916D01*
X129829451Y-97840288D01*
X129733964Y-97674900D01*
X129660787Y-97593628D01*
X129630070Y-97529620D01*
X129628424Y-97509318D01*
X129628424Y-95088866D01*
X129648426Y-95020745D01*
X129702082Y-94974252D01*
X129772356Y-94964148D01*
X129805669Y-94973758D01*
X129969712Y-95046794D01*
X130156513Y-95086500D01*
X130347487Y-95086500D01*
X130534288Y-95046794D01*
X130708752Y-94969118D01*
X130863253Y-94856866D01*
X130866563Y-94853190D01*
X130927009Y-94815950D01*
X130960200Y-94811500D01*
X131524500Y-94811500D01*
X131592621Y-94831502D01*
X131639114Y-94885158D01*
X131650500Y-94937500D01*
X131650500Y-94999474D01*
X131630498Y-95067595D01*
X131618137Y-95083784D01*
X131544957Y-95165059D01*
X131449476Y-95330438D01*
X131449473Y-95330445D01*
X131390457Y-95512072D01*
X131370496Y-95702000D01*
X131390457Y-95891927D01*
X131393521Y-95901356D01*
X131449473Y-96073556D01*
X131449473Y-96073557D01*
X131449474Y-96073558D01*
X131491876Y-96147001D01*
X131508613Y-96215996D01*
X131491876Y-96272999D01*
X131449474Y-96346441D01*
X131449473Y-96346445D01*
X131390457Y-96528072D01*
X131370496Y-96718000D01*
X131390457Y-96907927D01*
X131420526Y-97000470D01*
X131449473Y-97089556D01*
X131449476Y-97089561D01*
X131544958Y-97254941D01*
X131544965Y-97254951D01*
X131672744Y-97396864D01*
X131722471Y-97432993D01*
X131827248Y-97509118D01*
X132001712Y-97586794D01*
X132158664Y-97620155D01*
X132188517Y-97626501D01*
X132195075Y-97627190D01*
X132194915Y-97628705D01*
X132255525Y-97646502D01*
X132276499Y-97663405D01*
X132459928Y-97846834D01*
X132548166Y-97935072D01*
X132651924Y-98004401D01*
X132767214Y-98052156D01*
X132889605Y-98076501D01*
X132889606Y-98076501D01*
X133839487Y-98076501D01*
X133839488Y-98076501D01*
X133961879Y-98052156D01*
X134077169Y-98004401D01*
X134180927Y-97935072D01*
X135824071Y-96291928D01*
X135893400Y-96188170D01*
X135941155Y-96072880D01*
X135965500Y-95950489D01*
X135965500Y-95825701D01*
X135965500Y-91570183D01*
X135985502Y-91502062D01*
X136002395Y-91481098D01*
X136965438Y-90518054D01*
X137027747Y-90484032D01*
X137098562Y-90489096D01*
X137148165Y-90522841D01*
X137206135Y-90587222D01*
X137236853Y-90651229D01*
X137238500Y-90671533D01*
X137238500Y-98809474D01*
X137218498Y-98877595D01*
X137206137Y-98893784D01*
X137132957Y-98975059D01*
X137037476Y-99140438D01*
X137037473Y-99140445D01*
X136978457Y-99322072D01*
X136958496Y-99512000D01*
X136978457Y-99701927D01*
X137008526Y-99794470D01*
X137037473Y-99883556D01*
X137037476Y-99883561D01*
X137132958Y-100048941D01*
X137132965Y-100048951D01*
X137260744Y-100190864D01*
X137260747Y-100190866D01*
X137415248Y-100303118D01*
X137455837Y-100321189D01*
X137509933Y-100367169D01*
X137530582Y-100435096D01*
X137524421Y-100475232D01*
X137486457Y-100592071D01*
X137466496Y-100782000D01*
X137486457Y-100971927D01*
X137507276Y-101036000D01*
X137545473Y-101153556D01*
X137545476Y-101153561D01*
X137640958Y-101318941D01*
X137640965Y-101318951D01*
X137768744Y-101460864D01*
X137768747Y-101460866D01*
X137923248Y-101573118D01*
X137963837Y-101591189D01*
X138017933Y-101637169D01*
X138038582Y-101705096D01*
X138032421Y-101745232D01*
X137994457Y-101862071D01*
X137974496Y-102052000D01*
X137994457Y-102241927D01*
X138019787Y-102319883D01*
X138053473Y-102423556D01*
X138072108Y-102455832D01*
X138148958Y-102588941D01*
X138148965Y-102588951D01*
X138276744Y-102730864D01*
X138276747Y-102730866D01*
X138431248Y-102843118D01*
X138572958Y-102906211D01*
X138627053Y-102952190D01*
X138647703Y-103020117D01*
X138630828Y-103084317D01*
X138561476Y-103204438D01*
X138561473Y-103204445D01*
X138502457Y-103386072D01*
X138482496Y-103576000D01*
X138502457Y-103765927D01*
X138532526Y-103858470D01*
X138561473Y-103947556D01*
X138561476Y-103947561D01*
X138656958Y-104112941D01*
X138656965Y-104112951D01*
X138784744Y-104254864D01*
X138796022Y-104263058D01*
X138939248Y-104367118D01*
X139113712Y-104444794D01*
X139300513Y-104484500D01*
X139491487Y-104484500D01*
X139678288Y-104444794D01*
X139852752Y-104367118D01*
X140007253Y-104254866D01*
X140007769Y-104254293D01*
X140135034Y-104112951D01*
X140135035Y-104112949D01*
X140135040Y-104112944D01*
X140230527Y-103947556D01*
X140289542Y-103765928D01*
X140306907Y-103600703D01*
X140333920Y-103535048D01*
X140343104Y-103524798D01*
X141412071Y-102455833D01*
X141481400Y-102352075D01*
X141529155Y-102236785D01*
X141553500Y-102114394D01*
X141553500Y-97956000D01*
X147086496Y-97956000D01*
X147106457Y-98145927D01*
X147129908Y-98218099D01*
X147165473Y-98327556D01*
X147193841Y-98376691D01*
X147260958Y-98492941D01*
X147260965Y-98492951D01*
X147388744Y-98634864D01*
X147388747Y-98634866D01*
X147543248Y-98747118D01*
X147717712Y-98824794D01*
X147904513Y-98864500D01*
X148095487Y-98864500D01*
X148282288Y-98824794D01*
X148456752Y-98747118D01*
X148611253Y-98634866D01*
X148739040Y-98492944D01*
X148834527Y-98327556D01*
X148893542Y-98145928D01*
X148913504Y-97956000D01*
X148893542Y-97766072D01*
X148834527Y-97584444D01*
X148739040Y-97419056D01*
X148739038Y-97419054D01*
X148739034Y-97419048D01*
X148611255Y-97277135D01*
X148456752Y-97164882D01*
X148282288Y-97087206D01*
X148095487Y-97047500D01*
X147904513Y-97047500D01*
X147717711Y-97087206D01*
X147543247Y-97164882D01*
X147388744Y-97277135D01*
X147260965Y-97419048D01*
X147260958Y-97419058D01*
X147188893Y-97543879D01*
X147165473Y-97584444D01*
X147151808Y-97626500D01*
X147106457Y-97766072D01*
X147086496Y-97956000D01*
X141553500Y-97956000D01*
X141553500Y-89800524D01*
X141573502Y-89732403D01*
X141585858Y-89716220D01*
X141659040Y-89634944D01*
X141754527Y-89469556D01*
X141813542Y-89287928D01*
X141833504Y-89098000D01*
X141813542Y-88908072D01*
X141777918Y-88798436D01*
X141775891Y-88727469D01*
X141812554Y-88666671D01*
X141876266Y-88635346D01*
X141897752Y-88633500D01*
X153685406Y-88633500D01*
X153753527Y-88653502D01*
X153774501Y-88670405D01*
X156529595Y-91425499D01*
X156563621Y-91487811D01*
X156566500Y-91514594D01*
X156566500Y-107662606D01*
X156566500Y-107787394D01*
X156590845Y-107909785D01*
X156638600Y-108025075D01*
X156707929Y-108128833D01*
X156707931Y-108128835D01*
X157127877Y-108548781D01*
X157161903Y-108611093D01*
X157164092Y-108624705D01*
X157181457Y-108789927D01*
X157211526Y-108882470D01*
X157240473Y-108971556D01*
X157240476Y-108971561D01*
X157335958Y-109136941D01*
X157335965Y-109136951D01*
X157463744Y-109278864D01*
X157517302Y-109317776D01*
X157618248Y-109391118D01*
X157792712Y-109468794D01*
X157979513Y-109508500D01*
X158170487Y-109508500D01*
X158357288Y-109468794D01*
X158531752Y-109391118D01*
X158686253Y-109278866D01*
X158690753Y-109273868D01*
X158751195Y-109236629D01*
X158822179Y-109237979D01*
X158873484Y-109269083D01*
X158874248Y-109269847D01*
X158908274Y-109332159D01*
X158903209Y-109402974D01*
X158878793Y-109443249D01*
X158860957Y-109463059D01*
X158765476Y-109628438D01*
X158765473Y-109628445D01*
X158706457Y-109810072D01*
X158686496Y-110000000D01*
X158706457Y-110189927D01*
X158736526Y-110282470D01*
X158765473Y-110371556D01*
X158765476Y-110371561D01*
X158860958Y-110536941D01*
X158860965Y-110536951D01*
X158988744Y-110678864D01*
X158988747Y-110678866D01*
X159143248Y-110791118D01*
X159317712Y-110868794D01*
X159504513Y-110908500D01*
X159695487Y-110908500D01*
X159882288Y-110868794D01*
X160056752Y-110791118D01*
X160211253Y-110678866D01*
X160256659Y-110628438D01*
X160339034Y-110536951D01*
X160339035Y-110536949D01*
X160339040Y-110536944D01*
X160434527Y-110371556D01*
X160493542Y-110189928D01*
X160513504Y-110000000D01*
X160493542Y-109810072D01*
X160434527Y-109628444D01*
X160342353Y-109468794D01*
X160339042Y-109463059D01*
X160339041Y-109463058D01*
X160339040Y-109463056D01*
X160265863Y-109381784D01*
X160235146Y-109317776D01*
X160233500Y-109297474D01*
X160233500Y-109037302D01*
X160233499Y-109037298D01*
X160231574Y-109027619D01*
X160209155Y-108914910D01*
X160161400Y-108799620D01*
X160092071Y-108695862D01*
X160003833Y-108607624D01*
X159861576Y-108465367D01*
X159827550Y-108403055D01*
X159832615Y-108332240D01*
X159875162Y-108275404D01*
X159899418Y-108261167D01*
X160056752Y-108191118D01*
X160211253Y-108078866D01*
X160339040Y-107936944D01*
X160434527Y-107771556D01*
X160493542Y-107589928D01*
X160513504Y-107400000D01*
X160493542Y-107210072D01*
X160434527Y-107028444D01*
X160339040Y-106863056D01*
X160339038Y-106863054D01*
X160339034Y-106863048D01*
X160211255Y-106721135D01*
X160056752Y-106608882D01*
X159882288Y-106531206D01*
X159695487Y-106491500D01*
X159639594Y-106491500D01*
X159571473Y-106471498D01*
X159550499Y-106454595D01*
X158870405Y-105774501D01*
X158836379Y-105712189D01*
X158833500Y-105685406D01*
X158833500Y-98332713D01*
X158853502Y-98264592D01*
X158907158Y-98218099D01*
X158977432Y-98207995D01*
X159042012Y-98237489D01*
X159074887Y-98282099D01*
X159121580Y-98388548D01*
X159244674Y-98576958D01*
X159397097Y-98742534D01*
X159574698Y-98880767D01*
X159574699Y-98880768D01*
X159772628Y-98987882D01*
X159772630Y-98987883D01*
X159985483Y-99060955D01*
X159985492Y-99060957D01*
X160066000Y-99074391D01*
X160066000Y-98170702D01*
X160127007Y-98205925D01*
X160254174Y-98240000D01*
X160385826Y-98240000D01*
X160512993Y-98205925D01*
X160574000Y-98170702D01*
X160574000Y-99074390D01*
X160654507Y-99060957D01*
X160654516Y-99060955D01*
X160867369Y-98987883D01*
X160867371Y-98987882D01*
X161065300Y-98880768D01*
X161065301Y-98880767D01*
X161242902Y-98742534D01*
X161395327Y-98576955D01*
X161484517Y-98440441D01*
X161538521Y-98394352D01*
X161608868Y-98384777D01*
X161673226Y-98414754D01*
X161695483Y-98440441D01*
X161784672Y-98576955D01*
X161937097Y-98742534D01*
X162114698Y-98880767D01*
X162114699Y-98880768D01*
X162312628Y-98987882D01*
X162312630Y-98987883D01*
X162525483Y-99060955D01*
X162525492Y-99060957D01*
X162606000Y-99074391D01*
X162606000Y-98170702D01*
X162667007Y-98205925D01*
X162794174Y-98240000D01*
X162925826Y-98240000D01*
X163052993Y-98205925D01*
X163114000Y-98170702D01*
X163114000Y-99074391D01*
X163194507Y-99060957D01*
X163194516Y-99060955D01*
X163407369Y-98987883D01*
X163407371Y-98987882D01*
X163605300Y-98880768D01*
X163605301Y-98880767D01*
X163782902Y-98742534D01*
X163935327Y-98576955D01*
X164024517Y-98440441D01*
X164078521Y-98394352D01*
X164148868Y-98384777D01*
X164213226Y-98414754D01*
X164235483Y-98440441D01*
X164324672Y-98576955D01*
X164477097Y-98742534D01*
X164654698Y-98880767D01*
X164654699Y-98880768D01*
X164852628Y-98987882D01*
X164852630Y-98987883D01*
X165065483Y-99060955D01*
X165065492Y-99060957D01*
X165146000Y-99074391D01*
X165146000Y-98170702D01*
X165207007Y-98205925D01*
X165334174Y-98240000D01*
X165465826Y-98240000D01*
X165592993Y-98205925D01*
X165654000Y-98170702D01*
X165654000Y-99074391D01*
X165734507Y-99060957D01*
X165734516Y-99060955D01*
X165947369Y-98987883D01*
X165947371Y-98987882D01*
X166145300Y-98880768D01*
X166145301Y-98880767D01*
X166322902Y-98742534D01*
X166475325Y-98576958D01*
X166598419Y-98388548D01*
X166688820Y-98182456D01*
X166688823Y-98182449D01*
X166736544Y-97994000D01*
X165830703Y-97994000D01*
X165865925Y-97932993D01*
X165900000Y-97805826D01*
X165900000Y-97674174D01*
X165865925Y-97547007D01*
X165830703Y-97486000D01*
X166736544Y-97486000D01*
X166736544Y-97485999D01*
X166688823Y-97297550D01*
X166688820Y-97297543D01*
X166598419Y-97091451D01*
X166475325Y-96903041D01*
X166332018Y-96747367D01*
X166300598Y-96683702D01*
X166308585Y-96613156D01*
X166353444Y-96558127D01*
X166380679Y-96543977D01*
X166496204Y-96500889D01*
X166613261Y-96413261D01*
X166700889Y-96296204D01*
X166751989Y-96159201D01*
X166753800Y-96142362D01*
X166758499Y-96098649D01*
X166758500Y-96098632D01*
X166758500Y-94301367D01*
X166758499Y-94301350D01*
X166751990Y-94240803D01*
X166751988Y-94240795D01*
X166700889Y-94103797D01*
X166700887Y-94103792D01*
X166613261Y-93986738D01*
X166496207Y-93899112D01*
X166496202Y-93899110D01*
X166359204Y-93848011D01*
X166359196Y-93848009D01*
X166298649Y-93841500D01*
X166298638Y-93841500D01*
X164501362Y-93841500D01*
X164501350Y-93841500D01*
X164440803Y-93848009D01*
X164440795Y-93848011D01*
X164303797Y-93899110D01*
X164303792Y-93899112D01*
X164186738Y-93986738D01*
X164099112Y-94103792D01*
X164099111Y-94103795D01*
X164055000Y-94222058D01*
X164012453Y-94278893D01*
X163945932Y-94303703D01*
X163876558Y-94288611D01*
X163844246Y-94263363D01*
X163783240Y-94197094D01*
X163783239Y-94197093D01*
X163783237Y-94197091D01*
X163663372Y-94103796D01*
X163605576Y-94058811D01*
X163407574Y-93951658D01*
X163407572Y-93951657D01*
X163407571Y-93951656D01*
X163194639Y-93878557D01*
X163194630Y-93878555D01*
X163150476Y-93871187D01*
X162972569Y-93841500D01*
X162747431Y-93841500D01*
X162599211Y-93866233D01*
X162525369Y-93878555D01*
X162525360Y-93878557D01*
X162312428Y-93951656D01*
X162312426Y-93951658D01*
X162114426Y-94058810D01*
X162114424Y-94058811D01*
X161936762Y-94197091D01*
X161784279Y-94362729D01*
X161695483Y-94498643D01*
X161641479Y-94544731D01*
X161571131Y-94554306D01*
X161506774Y-94524329D01*
X161484517Y-94498643D01*
X161395720Y-94362729D01*
X161243237Y-94197091D01*
X161123372Y-94103796D01*
X161065576Y-94058811D01*
X160867574Y-93951658D01*
X160867572Y-93951657D01*
X160867571Y-93951656D01*
X160654639Y-93878557D01*
X160654630Y-93878555D01*
X160610476Y-93871187D01*
X160432569Y-93841500D01*
X160207431Y-93841500D01*
X160059211Y-93866233D01*
X159985369Y-93878555D01*
X159985360Y-93878557D01*
X159772428Y-93951656D01*
X159772426Y-93951658D01*
X159574426Y-94058810D01*
X159574424Y-94058811D01*
X159396762Y-94197091D01*
X159244279Y-94362729D01*
X159244275Y-94362734D01*
X159121139Y-94551209D01*
X159074887Y-94656655D01*
X159029206Y-94711003D01*
X158961394Y-94732027D01*
X158892980Y-94713051D01*
X158845686Y-94660100D01*
X158833500Y-94606041D01*
X158833500Y-90337607D01*
X158833499Y-90337603D01*
X158817665Y-90258000D01*
X158809155Y-90215215D01*
X158809153Y-90215210D01*
X158785426Y-90157927D01*
X158785425Y-90157926D01*
X158761401Y-90099926D01*
X158761401Y-90099925D01*
X158692072Y-89996167D01*
X158249905Y-89554000D01*
X166223756Y-89554000D01*
X166228816Y-89579438D01*
X166228817Y-89579441D01*
X166301032Y-89753783D01*
X166405870Y-89910684D01*
X166405875Y-89910691D01*
X166539308Y-90044124D01*
X166539315Y-90044129D01*
X166696216Y-90148967D01*
X166870558Y-90221182D01*
X166870561Y-90221183D01*
X167055641Y-90257999D01*
X167055645Y-90258000D01*
X167246000Y-90258000D01*
X167246000Y-89554000D01*
X166223756Y-89554000D01*
X158249905Y-89554000D01*
X157741905Y-89046000D01*
X166223756Y-89046000D01*
X167246000Y-89046000D01*
X167246000Y-88342000D01*
X167055641Y-88342000D01*
X166870561Y-88378816D01*
X166870558Y-88378817D01*
X166696216Y-88451032D01*
X166539315Y-88555870D01*
X166539308Y-88555875D01*
X166405875Y-88689308D01*
X166405870Y-88689315D01*
X166301032Y-88846216D01*
X166228817Y-89020558D01*
X166228816Y-89020561D01*
X166223756Y-89046000D01*
X157741905Y-89046000D01*
X152475833Y-83779929D01*
X152372075Y-83710600D01*
X152256785Y-83662845D01*
X152183086Y-83648185D01*
X152134396Y-83638500D01*
X152134394Y-83638500D01*
X141120200Y-83638500D01*
X141052079Y-83618498D01*
X141026563Y-83596810D01*
X141023252Y-83593133D01*
X140868752Y-83480882D01*
X140694288Y-83403206D01*
X140507487Y-83363500D01*
X140316513Y-83363500D01*
X140129711Y-83403206D01*
X139955247Y-83480882D01*
X139800744Y-83593135D01*
X139672965Y-83735048D01*
X139672958Y-83735058D01*
X139577476Y-83900438D01*
X139577473Y-83900445D01*
X139518457Y-84082072D01*
X139498496Y-84272000D01*
X139518457Y-84461927D01*
X139548526Y-84554470D01*
X139577473Y-84643556D01*
X139577476Y-84643561D01*
X139672958Y-84808941D01*
X139672965Y-84808951D01*
X139800744Y-84950864D01*
X139861999Y-84995368D01*
X139955248Y-85063118D01*
X140129712Y-85140794D01*
X140316513Y-85180500D01*
X140507487Y-85180500D01*
X140694288Y-85140794D01*
X140868752Y-85063118D01*
X141023253Y-84950866D01*
X141026563Y-84947190D01*
X141087009Y-84909950D01*
X141120200Y-84905500D01*
X151757406Y-84905500D01*
X151825527Y-84925502D01*
X151846501Y-84942405D01*
X153375501Y-86471405D01*
X153409527Y-86533717D01*
X153404462Y-86604532D01*
X153361915Y-86661368D01*
X153295395Y-86686179D01*
X153286406Y-86686500D01*
X139841603Y-86686500D01*
X139768568Y-86701028D01*
X139719215Y-86710845D01*
X139719213Y-86710845D01*
X139719212Y-86710846D01*
X139651675Y-86738821D01*
X139616448Y-86753413D01*
X139603923Y-86758601D01*
X139500171Y-86827926D01*
X139500164Y-86827931D01*
X139228595Y-87099501D01*
X139166283Y-87133527D01*
X139095468Y-87128462D01*
X139038632Y-87085915D01*
X139013821Y-87019395D01*
X139013500Y-87010406D01*
X139013500Y-82954000D01*
X166223756Y-82954000D01*
X166228816Y-82979438D01*
X166228817Y-82979441D01*
X166301032Y-83153783D01*
X166405870Y-83310684D01*
X166405875Y-83310691D01*
X166539308Y-83444124D01*
X166539315Y-83444129D01*
X166696216Y-83548967D01*
X166870558Y-83621182D01*
X166870561Y-83621183D01*
X167055641Y-83657999D01*
X167055645Y-83658000D01*
X167246000Y-83658000D01*
X167246000Y-82954000D01*
X166223756Y-82954000D01*
X139013500Y-82954000D01*
X139013500Y-82446000D01*
X166223756Y-82446000D01*
X167246000Y-82446000D01*
X167246000Y-81742000D01*
X167055641Y-81742000D01*
X166870561Y-81778816D01*
X166870558Y-81778817D01*
X166696216Y-81851032D01*
X166539315Y-81955870D01*
X166539308Y-81955875D01*
X166405875Y-82089308D01*
X166405870Y-82089315D01*
X166301032Y-82246216D01*
X166228817Y-82420558D01*
X166228816Y-82420561D01*
X166223756Y-82446000D01*
X139013500Y-82446000D01*
X139013500Y-78890000D01*
X141370496Y-78890000D01*
X141390457Y-79079927D01*
X141420526Y-79172470D01*
X141449473Y-79261556D01*
X141449476Y-79261561D01*
X141544958Y-79426941D01*
X141544965Y-79426951D01*
X141672744Y-79568864D01*
X141733999Y-79613368D01*
X141827248Y-79681118D01*
X142001712Y-79758794D01*
X142188513Y-79798500D01*
X142379487Y-79798500D01*
X142566288Y-79758794D01*
X142740752Y-79681118D01*
X142895253Y-79568866D01*
X143023040Y-79426944D01*
X143118527Y-79261556D01*
X143177542Y-79079928D01*
X143197504Y-78890000D01*
X143177542Y-78700072D01*
X143118527Y-78518444D01*
X143023040Y-78353056D01*
X143023038Y-78353054D01*
X143023034Y-78353048D01*
X142895255Y-78211135D01*
X142740752Y-78098882D01*
X142566288Y-78021206D01*
X142379487Y-77981500D01*
X142188513Y-77981500D01*
X142001711Y-78021206D01*
X141827247Y-78098882D01*
X141672744Y-78211135D01*
X141544965Y-78353048D01*
X141544958Y-78353058D01*
X141449476Y-78518438D01*
X141449473Y-78518445D01*
X141390457Y-78700072D01*
X141370496Y-78890000D01*
X139013500Y-78890000D01*
X139013500Y-77665500D01*
X139033502Y-77597379D01*
X139087158Y-77550886D01*
X139139500Y-77539500D01*
X139903598Y-77539500D01*
X139903599Y-77539500D01*
X140025990Y-77515155D01*
X140141280Y-77467400D01*
X140245038Y-77398071D01*
X140574704Y-77068405D01*
X140637016Y-77034379D01*
X140663799Y-77031500D01*
X141998393Y-77031500D01*
X141998394Y-77031500D01*
X142120785Y-77007155D01*
X142236075Y-76959400D01*
X142339833Y-76890071D01*
X142669499Y-76560405D01*
X142731811Y-76526379D01*
X142758594Y-76523500D01*
X144284393Y-76523500D01*
X144284394Y-76523500D01*
X144406785Y-76499155D01*
X144522075Y-76451400D01*
X144625833Y-76382071D01*
X144955499Y-76052405D01*
X145017811Y-76018379D01*
X145044594Y-76015500D01*
X146655393Y-76015500D01*
X146655394Y-76015500D01*
X146777785Y-75991155D01*
X146893075Y-75943400D01*
X146996833Y-75874071D01*
X147369554Y-75501350D01*
X151641500Y-75501350D01*
X151641500Y-77298649D01*
X151648009Y-77359196D01*
X151648011Y-77359204D01*
X151699110Y-77496202D01*
X151699112Y-77496207D01*
X151786738Y-77613261D01*
X151903792Y-77700887D01*
X151903794Y-77700888D01*
X151903796Y-77700889D01*
X151958900Y-77721442D01*
X152040795Y-77751988D01*
X152040803Y-77751990D01*
X152101350Y-77758499D01*
X152101355Y-77758499D01*
X152101362Y-77758500D01*
X152101368Y-77758500D01*
X153898632Y-77758500D01*
X153898638Y-77758500D01*
X153898645Y-77758499D01*
X153898649Y-77758499D01*
X153959196Y-77751990D01*
X153959199Y-77751989D01*
X153959201Y-77751989D01*
X154096204Y-77700889D01*
X154166399Y-77648342D01*
X154213261Y-77613261D01*
X154300886Y-77496208D01*
X154300885Y-77496208D01*
X154300889Y-77496204D01*
X154344999Y-77377939D01*
X154387545Y-77321107D01*
X154454066Y-77296296D01*
X154523440Y-77311388D01*
X154555753Y-77336635D01*
X154576529Y-77359204D01*
X154616762Y-77402908D01*
X154671331Y-77445381D01*
X154794424Y-77541189D01*
X154992426Y-77648342D01*
X154992427Y-77648342D01*
X154992428Y-77648343D01*
X155104227Y-77686723D01*
X155205365Y-77721444D01*
X155427431Y-77758500D01*
X155427435Y-77758500D01*
X155652565Y-77758500D01*
X155652569Y-77758500D01*
X155874635Y-77721444D01*
X156087574Y-77648342D01*
X156285576Y-77541189D01*
X156463240Y-77402906D01*
X156615722Y-77237268D01*
X156704518Y-77101354D01*
X156758520Y-77055268D01*
X156828868Y-77045692D01*
X156893225Y-77075669D01*
X156915480Y-77101353D01*
X156928370Y-77121082D01*
X157004275Y-77237265D01*
X157004279Y-77237270D01*
X157156762Y-77402908D01*
X157211331Y-77445381D01*
X157334424Y-77541189D01*
X157532426Y-77648342D01*
X157532427Y-77648342D01*
X157532428Y-77648343D01*
X157644227Y-77686723D01*
X157745365Y-77721444D01*
X157967431Y-77758500D01*
X157967435Y-77758500D01*
X158192565Y-77758500D01*
X158192569Y-77758500D01*
X158414635Y-77721444D01*
X158627574Y-77648342D01*
X158825576Y-77541189D01*
X159003240Y-77402906D01*
X159155722Y-77237268D01*
X159278860Y-77048791D01*
X159369296Y-76842616D01*
X159424564Y-76624368D01*
X159443156Y-76400000D01*
X159424564Y-76175632D01*
X159380359Y-76001071D01*
X159369297Y-75957387D01*
X159369296Y-75957386D01*
X159369296Y-75957384D01*
X159278860Y-75751209D01*
X159261500Y-75724637D01*
X159155724Y-75562734D01*
X159155720Y-75562729D01*
X159003237Y-75397091D01*
X158879637Y-75300889D01*
X158825576Y-75258811D01*
X158791792Y-75240528D01*
X158741402Y-75190516D01*
X158726050Y-75121199D01*
X158750610Y-75054586D01*
X158791793Y-75018901D01*
X158825300Y-75000767D01*
X158825301Y-75000767D01*
X159002902Y-74862534D01*
X159155325Y-74696958D01*
X159278419Y-74508548D01*
X159368820Y-74302456D01*
X159368823Y-74302449D01*
X159416544Y-74114000D01*
X158510703Y-74114000D01*
X158545925Y-74052993D01*
X158560125Y-74000000D01*
X162137157Y-74000000D01*
X162156514Y-74332345D01*
X162156515Y-74332354D01*
X162214325Y-74660215D01*
X162214325Y-74660216D01*
X162309809Y-74979152D01*
X162309808Y-74979152D01*
X162441668Y-75284839D01*
X162441671Y-75284844D01*
X162608123Y-75573146D01*
X162608133Y-75573162D01*
X162804227Y-75836562D01*
X163882348Y-74758441D01*
X163970278Y-74879466D01*
X164120534Y-75029722D01*
X164241557Y-75117650D01*
X163166686Y-76192522D01*
X163290432Y-76296355D01*
X163290433Y-76296356D01*
X163568570Y-76479290D01*
X163866090Y-76628710D01*
X164178924Y-76742572D01*
X164178927Y-76742573D01*
X164502867Y-76819348D01*
X164502877Y-76819350D01*
X164833537Y-76858000D01*
X165166463Y-76858000D01*
X165497122Y-76819350D01*
X165497132Y-76819348D01*
X165821072Y-76742573D01*
X165821075Y-76742572D01*
X166133909Y-76628710D01*
X166431429Y-76479290D01*
X166709566Y-76296356D01*
X166833312Y-76192522D01*
X166833312Y-76192521D01*
X165758441Y-75117650D01*
X165879466Y-75029722D01*
X166029722Y-74879466D01*
X166117650Y-74758441D01*
X167195771Y-75836562D01*
X167195772Y-75836562D01*
X167391859Y-75573173D01*
X167391876Y-75573146D01*
X167558328Y-75284844D01*
X167558331Y-75284839D01*
X167690190Y-74979152D01*
X167785674Y-74660216D01*
X167785674Y-74660215D01*
X167843484Y-74332354D01*
X167843485Y-74332345D01*
X167862842Y-74000000D01*
X167843485Y-73667654D01*
X167843484Y-73667645D01*
X167785674Y-73339784D01*
X167785674Y-73339783D01*
X167690190Y-73020847D01*
X167690191Y-73020847D01*
X167558331Y-72715160D01*
X167558328Y-72715155D01*
X167391876Y-72426853D01*
X167391858Y-72426826D01*
X167195771Y-72163436D01*
X166117650Y-73241557D01*
X166029722Y-73120534D01*
X165879466Y-72970278D01*
X165758441Y-72882348D01*
X166833312Y-71807477D01*
X166833312Y-71807476D01*
X166709567Y-71703644D01*
X166709566Y-71703643D01*
X166431429Y-71520709D01*
X166133909Y-71371289D01*
X165821075Y-71257427D01*
X165821072Y-71257426D01*
X165497132Y-71180651D01*
X165497122Y-71180649D01*
X165166463Y-71142000D01*
X164833537Y-71142000D01*
X164502877Y-71180649D01*
X164502867Y-71180651D01*
X164178927Y-71257426D01*
X164178924Y-71257427D01*
X163866090Y-71371289D01*
X163568570Y-71520709D01*
X163290437Y-71703641D01*
X163290427Y-71703648D01*
X163166687Y-71807477D01*
X163166687Y-71807478D01*
X164241558Y-72882349D01*
X164120534Y-72970278D01*
X163970278Y-73120534D01*
X163882349Y-73241558D01*
X162804227Y-72163436D01*
X162608133Y-72426837D01*
X162608123Y-72426853D01*
X162441671Y-72715155D01*
X162441668Y-72715160D01*
X162309809Y-73020847D01*
X162214325Y-73339783D01*
X162214325Y-73339784D01*
X162156515Y-73667645D01*
X162156514Y-73667654D01*
X162137157Y-74000000D01*
X158560125Y-74000000D01*
X158580000Y-73925826D01*
X158580000Y-73794174D01*
X158545925Y-73667007D01*
X158510703Y-73606000D01*
X159416544Y-73606000D01*
X159416544Y-73605999D01*
X159368823Y-73417550D01*
X159368820Y-73417543D01*
X159278419Y-73211451D01*
X159155325Y-73023041D01*
X159002902Y-72857465D01*
X158825301Y-72719232D01*
X158825300Y-72719231D01*
X158627371Y-72612117D01*
X158627369Y-72612116D01*
X158414512Y-72539043D01*
X158414501Y-72539040D01*
X158334000Y-72525606D01*
X158334000Y-73429297D01*
X158272993Y-73394075D01*
X158145826Y-73360000D01*
X158014174Y-73360000D01*
X157887007Y-73394075D01*
X157826000Y-73429297D01*
X157826000Y-72525607D01*
X157825999Y-72525606D01*
X157745498Y-72539040D01*
X157745487Y-72539043D01*
X157532630Y-72612116D01*
X157532628Y-72612117D01*
X157334699Y-72719231D01*
X157334698Y-72719232D01*
X157157097Y-72857465D01*
X157004674Y-73023042D01*
X156915483Y-73159559D01*
X156861479Y-73205647D01*
X156791131Y-73215222D01*
X156726774Y-73185244D01*
X156704517Y-73159559D01*
X156615325Y-73023042D01*
X156462902Y-72857465D01*
X156285301Y-72719232D01*
X156285300Y-72719231D01*
X156087371Y-72612117D01*
X156087369Y-72612116D01*
X155874512Y-72539043D01*
X155874501Y-72539040D01*
X155794000Y-72525606D01*
X155794000Y-73429297D01*
X155732993Y-73394075D01*
X155605826Y-73360000D01*
X155474174Y-73360000D01*
X155347007Y-73394075D01*
X155286000Y-73429297D01*
X155286000Y-72525607D01*
X155285999Y-72525606D01*
X155205498Y-72539040D01*
X155205487Y-72539043D01*
X154992630Y-72612116D01*
X154992628Y-72612117D01*
X154794699Y-72719231D01*
X154794698Y-72719232D01*
X154617097Y-72857465D01*
X154464674Y-73023042D01*
X154375483Y-73159559D01*
X154321479Y-73205647D01*
X154251131Y-73215222D01*
X154186774Y-73185244D01*
X154164517Y-73159559D01*
X154075325Y-73023042D01*
X153922902Y-72857465D01*
X153745301Y-72719232D01*
X153745300Y-72719231D01*
X153547371Y-72612117D01*
X153547369Y-72612116D01*
X153334512Y-72539043D01*
X153334501Y-72539040D01*
X153254000Y-72525606D01*
X153254000Y-73429297D01*
X153192993Y-73394075D01*
X153065826Y-73360000D01*
X152934174Y-73360000D01*
X152807007Y-73394075D01*
X152746000Y-73429297D01*
X152746000Y-72525607D01*
X152745999Y-72525606D01*
X152665498Y-72539040D01*
X152665487Y-72539043D01*
X152452630Y-72612116D01*
X152452628Y-72612117D01*
X152254699Y-72719231D01*
X152254698Y-72719232D01*
X152077097Y-72857465D01*
X151924674Y-73023041D01*
X151801580Y-73211451D01*
X151711179Y-73417543D01*
X151711176Y-73417550D01*
X151663455Y-73605999D01*
X151663456Y-73606000D01*
X152569297Y-73606000D01*
X152534075Y-73667007D01*
X152500000Y-73794174D01*
X152500000Y-73925826D01*
X152534075Y-74052993D01*
X152569297Y-74114000D01*
X151663455Y-74114000D01*
X151711176Y-74302449D01*
X151711179Y-74302456D01*
X151801580Y-74508548D01*
X151924674Y-74696958D01*
X152067981Y-74852632D01*
X152099401Y-74916297D01*
X152091414Y-74986843D01*
X152046555Y-75041872D01*
X152019313Y-75056024D01*
X151903795Y-75099111D01*
X151903792Y-75099112D01*
X151786738Y-75186738D01*
X151699112Y-75303792D01*
X151699110Y-75303797D01*
X151648011Y-75440795D01*
X151648009Y-75440803D01*
X151641500Y-75501350D01*
X147369554Y-75501350D01*
X147588874Y-75282030D01*
X147637062Y-75251950D01*
X147647574Y-75248342D01*
X147845576Y-75141189D01*
X148023240Y-75002906D01*
X148175722Y-74837268D01*
X148298860Y-74648791D01*
X148389296Y-74442616D01*
X148444564Y-74224368D01*
X148463156Y-74000000D01*
X148444564Y-73775632D01*
X148389296Y-73557384D01*
X148298860Y-73351209D01*
X148281500Y-73324637D01*
X148175724Y-73162734D01*
X148175720Y-73162729D01*
X148045106Y-73020847D01*
X148023240Y-72997094D01*
X148023239Y-72997093D01*
X148023237Y-72997091D01*
X147903367Y-72903792D01*
X147845576Y-72858811D01*
X147647574Y-72751658D01*
X147647572Y-72751657D01*
X147647571Y-72751656D01*
X147434639Y-72678557D01*
X147434630Y-72678555D01*
X147390476Y-72671187D01*
X147212569Y-72641500D01*
X146987431Y-72641500D01*
X146839211Y-72666233D01*
X146765369Y-72678555D01*
X146765360Y-72678557D01*
X146552428Y-72751656D01*
X146552426Y-72751658D01*
X146354426Y-72858810D01*
X146354424Y-72858811D01*
X146176762Y-72997091D01*
X146024279Y-73162729D01*
X145935483Y-73298643D01*
X145881479Y-73344731D01*
X145811131Y-73354306D01*
X145746774Y-73324329D01*
X145724517Y-73298643D01*
X145635720Y-73162729D01*
X145505106Y-73020847D01*
X145483240Y-72997094D01*
X145483239Y-72997093D01*
X145483237Y-72997091D01*
X145363367Y-72903792D01*
X145305576Y-72858811D01*
X145107574Y-72751658D01*
X145107572Y-72751657D01*
X145107571Y-72751656D01*
X144894639Y-72678557D01*
X144894630Y-72678555D01*
X144850476Y-72671187D01*
X144672569Y-72641500D01*
X144447431Y-72641500D01*
X144299211Y-72666233D01*
X144225369Y-72678555D01*
X144225360Y-72678557D01*
X144012428Y-72751656D01*
X144012426Y-72751658D01*
X143814426Y-72858810D01*
X143814424Y-72858811D01*
X143636762Y-72997091D01*
X143484279Y-73162729D01*
X143395483Y-73298643D01*
X143341479Y-73344731D01*
X143271131Y-73354306D01*
X143206774Y-73324329D01*
X143184517Y-73298643D01*
X143095720Y-73162729D01*
X142965106Y-73020847D01*
X142943240Y-72997094D01*
X142943239Y-72997093D01*
X142943237Y-72997091D01*
X142823367Y-72903792D01*
X142765576Y-72858811D01*
X142567574Y-72751658D01*
X142567572Y-72751657D01*
X142567571Y-72751656D01*
X142354639Y-72678557D01*
X142354630Y-72678555D01*
X142310476Y-72671187D01*
X142132569Y-72641500D01*
X141907431Y-72641500D01*
X141759211Y-72666233D01*
X141685369Y-72678555D01*
X141685360Y-72678557D01*
X141472428Y-72751656D01*
X141472426Y-72751658D01*
X141274426Y-72858810D01*
X141274424Y-72858811D01*
X141096762Y-72997091D01*
X140944279Y-73162729D01*
X140855483Y-73298643D01*
X140801479Y-73344731D01*
X140731131Y-73354306D01*
X140666774Y-73324329D01*
X140644517Y-73298643D01*
X140555720Y-73162729D01*
X140425106Y-73020847D01*
X140403240Y-72997094D01*
X140403239Y-72997093D01*
X140403237Y-72997091D01*
X140283367Y-72903792D01*
X140225576Y-72858811D01*
X140027574Y-72751658D01*
X140027572Y-72751657D01*
X140027571Y-72751656D01*
X139814639Y-72678557D01*
X139814630Y-72678555D01*
X139770476Y-72671187D01*
X139592569Y-72641500D01*
X139367431Y-72641500D01*
X139219211Y-72666233D01*
X139145369Y-72678555D01*
X139145360Y-72678557D01*
X138932428Y-72751656D01*
X138932426Y-72751658D01*
X138734426Y-72858810D01*
X138734424Y-72858811D01*
X138556762Y-72997091D01*
X138404279Y-73162729D01*
X138315483Y-73298643D01*
X138261479Y-73344731D01*
X138191131Y-73354306D01*
X138126774Y-73324329D01*
X138104517Y-73298643D01*
X138015720Y-73162729D01*
X137885106Y-73020847D01*
X137863240Y-72997094D01*
X137863239Y-72997093D01*
X137863237Y-72997091D01*
X137743367Y-72903792D01*
X137685576Y-72858811D01*
X137487574Y-72751658D01*
X137487572Y-72751657D01*
X137487571Y-72751656D01*
X137274639Y-72678557D01*
X137274630Y-72678555D01*
X137230476Y-72671187D01*
X137052569Y-72641500D01*
X136827431Y-72641500D01*
X136679211Y-72666233D01*
X136605369Y-72678555D01*
X136605360Y-72678557D01*
X136392428Y-72751656D01*
X136392426Y-72751658D01*
X136194426Y-72858810D01*
X136194424Y-72858811D01*
X136016762Y-72997091D01*
X135864279Y-73162729D01*
X135775483Y-73298643D01*
X135721479Y-73344731D01*
X135651131Y-73354306D01*
X135586774Y-73324329D01*
X135564517Y-73298643D01*
X135475720Y-73162729D01*
X135345106Y-73020847D01*
X135323240Y-72997094D01*
X135323239Y-72997093D01*
X135323237Y-72997091D01*
X135203367Y-72903792D01*
X135145576Y-72858811D01*
X134947574Y-72751658D01*
X134947572Y-72751657D01*
X134947571Y-72751656D01*
X134734639Y-72678557D01*
X134734630Y-72678555D01*
X134690476Y-72671187D01*
X134512569Y-72641500D01*
X134287431Y-72641500D01*
X134139211Y-72666233D01*
X134065369Y-72678555D01*
X134065360Y-72678557D01*
X133852428Y-72751656D01*
X133852426Y-72751658D01*
X133654426Y-72858810D01*
X133654424Y-72858811D01*
X133476762Y-72997091D01*
X133324279Y-73162729D01*
X133235483Y-73298643D01*
X133181479Y-73344731D01*
X133111131Y-73354306D01*
X133046774Y-73324329D01*
X133024517Y-73298643D01*
X132935720Y-73162729D01*
X132805106Y-73020847D01*
X132783240Y-72997094D01*
X132783239Y-72997093D01*
X132783237Y-72997091D01*
X132663367Y-72903792D01*
X132605576Y-72858811D01*
X132407574Y-72751658D01*
X132407572Y-72751657D01*
X132407571Y-72751656D01*
X132194639Y-72678557D01*
X132194630Y-72678555D01*
X132150476Y-72671187D01*
X131972569Y-72641500D01*
X131747431Y-72641500D01*
X131599211Y-72666233D01*
X131525369Y-72678555D01*
X131525360Y-72678557D01*
X131312428Y-72751656D01*
X131312426Y-72751658D01*
X131114426Y-72858810D01*
X131114424Y-72858811D01*
X130936762Y-72997091D01*
X130784279Y-73162729D01*
X130695483Y-73298643D01*
X130641479Y-73344731D01*
X130571131Y-73354306D01*
X130506774Y-73324329D01*
X130484517Y-73298643D01*
X130395720Y-73162729D01*
X130265106Y-73020847D01*
X130243240Y-72997094D01*
X130243239Y-72997093D01*
X130243237Y-72997091D01*
X130123367Y-72903792D01*
X130065576Y-72858811D01*
X129867574Y-72751658D01*
X129867572Y-72751657D01*
X129867571Y-72751656D01*
X129654639Y-72678557D01*
X129654630Y-72678555D01*
X129610476Y-72671187D01*
X129432569Y-72641500D01*
X129207431Y-72641500D01*
X129059211Y-72666233D01*
X128985369Y-72678555D01*
X128985360Y-72678557D01*
X128772428Y-72751656D01*
X128772426Y-72751658D01*
X128574426Y-72858810D01*
X128574424Y-72858811D01*
X128396762Y-72997091D01*
X128244279Y-73162729D01*
X128155483Y-73298643D01*
X128101479Y-73344731D01*
X128031131Y-73354306D01*
X127966774Y-73324329D01*
X127944517Y-73298643D01*
X127855720Y-73162729D01*
X127725106Y-73020847D01*
X127703240Y-72997094D01*
X127703239Y-72997093D01*
X127703237Y-72997091D01*
X127583367Y-72903792D01*
X127525576Y-72858811D01*
X127327574Y-72751658D01*
X127327572Y-72751657D01*
X127327571Y-72751656D01*
X127114639Y-72678557D01*
X127114630Y-72678555D01*
X127070476Y-72671187D01*
X126892569Y-72641500D01*
X126667431Y-72641500D01*
X126519211Y-72666233D01*
X126445369Y-72678555D01*
X126445360Y-72678557D01*
X126232428Y-72751656D01*
X126232426Y-72751658D01*
X126034426Y-72858810D01*
X126034424Y-72858811D01*
X125856762Y-72997091D01*
X125704279Y-73162729D01*
X125615483Y-73298643D01*
X125561479Y-73344731D01*
X125491131Y-73354306D01*
X125426774Y-73324329D01*
X125404517Y-73298643D01*
X125315720Y-73162729D01*
X125185106Y-73020847D01*
X125163240Y-72997094D01*
X125163239Y-72997093D01*
X125163237Y-72997091D01*
X125043367Y-72903792D01*
X124985576Y-72858811D01*
X124787574Y-72751658D01*
X124787572Y-72751657D01*
X124787571Y-72751656D01*
X124574639Y-72678557D01*
X124574630Y-72678555D01*
X124530476Y-72671187D01*
X124352569Y-72641500D01*
X124127431Y-72641500D01*
X123979211Y-72666233D01*
X123905369Y-72678555D01*
X123905360Y-72678557D01*
X123692428Y-72751656D01*
X123692426Y-72751658D01*
X123494426Y-72858810D01*
X123494424Y-72858811D01*
X123316762Y-72997091D01*
X123164279Y-73162729D01*
X123075483Y-73298643D01*
X123021479Y-73344731D01*
X122951131Y-73354306D01*
X122886774Y-73324329D01*
X122864517Y-73298643D01*
X122775720Y-73162729D01*
X122645106Y-73020847D01*
X122623240Y-72997094D01*
X122623239Y-72997093D01*
X122623237Y-72997091D01*
X122503367Y-72903792D01*
X122445576Y-72858811D01*
X122247574Y-72751658D01*
X122247572Y-72751657D01*
X122247571Y-72751656D01*
X122034639Y-72678557D01*
X122034630Y-72678555D01*
X121990476Y-72671187D01*
X121812569Y-72641500D01*
X121587431Y-72641500D01*
X121439211Y-72666233D01*
X121365369Y-72678555D01*
X121365360Y-72678557D01*
X121152428Y-72751656D01*
X121152426Y-72751658D01*
X120954426Y-72858810D01*
X120954424Y-72858811D01*
X120776762Y-72997091D01*
X120624279Y-73162729D01*
X120535483Y-73298643D01*
X120481479Y-73344731D01*
X120411131Y-73354306D01*
X120346774Y-73324329D01*
X120324517Y-73298643D01*
X120235720Y-73162729D01*
X120105106Y-73020847D01*
X120083240Y-72997094D01*
X120083239Y-72997093D01*
X120083237Y-72997091D01*
X119963367Y-72903792D01*
X119905576Y-72858811D01*
X119707574Y-72751658D01*
X119707572Y-72751657D01*
X119707571Y-72751656D01*
X119494639Y-72678557D01*
X119494630Y-72678555D01*
X119450476Y-72671187D01*
X119272569Y-72641500D01*
X119047431Y-72641500D01*
X118899211Y-72666233D01*
X118825369Y-72678555D01*
X118825360Y-72678557D01*
X118612428Y-72751656D01*
X118612426Y-72751658D01*
X118414426Y-72858810D01*
X118414424Y-72858811D01*
X118236762Y-72997091D01*
X118084279Y-73162729D01*
X117995483Y-73298643D01*
X117941479Y-73344731D01*
X117871131Y-73354306D01*
X117806774Y-73324329D01*
X117784517Y-73298643D01*
X117695720Y-73162729D01*
X117565106Y-73020847D01*
X117543240Y-72997094D01*
X117543239Y-72997093D01*
X117543237Y-72997091D01*
X117423367Y-72903792D01*
X117365576Y-72858811D01*
X117167574Y-72751658D01*
X117167572Y-72751657D01*
X117167571Y-72751656D01*
X116954639Y-72678557D01*
X116954630Y-72678555D01*
X116910476Y-72671187D01*
X116732569Y-72641500D01*
X116507431Y-72641500D01*
X116359211Y-72666233D01*
X116285369Y-72678555D01*
X116285360Y-72678557D01*
X116072428Y-72751656D01*
X116072426Y-72751658D01*
X115874426Y-72858810D01*
X115874424Y-72858811D01*
X115696762Y-72997091D01*
X115544279Y-73162729D01*
X115455483Y-73298643D01*
X115401479Y-73344731D01*
X115331131Y-73354306D01*
X115266774Y-73324329D01*
X115244517Y-73298643D01*
X115155720Y-73162729D01*
X115025106Y-73020847D01*
X115003240Y-72997094D01*
X115003239Y-72997093D01*
X115003237Y-72997091D01*
X114883367Y-72903792D01*
X114825576Y-72858811D01*
X114627574Y-72751658D01*
X114627572Y-72751657D01*
X114627571Y-72751656D01*
X114414639Y-72678557D01*
X114414630Y-72678555D01*
X114370476Y-72671187D01*
X114192569Y-72641500D01*
X113967431Y-72641500D01*
X113819211Y-72666233D01*
X113745369Y-72678555D01*
X113745360Y-72678557D01*
X113532428Y-72751656D01*
X113532426Y-72751658D01*
X113334426Y-72858810D01*
X113334424Y-72858811D01*
X113156762Y-72997091D01*
X113004279Y-73162729D01*
X112915483Y-73298643D01*
X112861479Y-73344731D01*
X112791131Y-73354306D01*
X112726774Y-73324329D01*
X112704517Y-73298643D01*
X112615720Y-73162729D01*
X112485106Y-73020847D01*
X112463240Y-72997094D01*
X112463239Y-72997093D01*
X112463237Y-72997091D01*
X112343367Y-72903792D01*
X112285576Y-72858811D01*
X112087574Y-72751658D01*
X112087572Y-72751657D01*
X112087571Y-72751656D01*
X111874639Y-72678557D01*
X111874630Y-72678555D01*
X111830476Y-72671187D01*
X111652569Y-72641500D01*
X111427431Y-72641500D01*
X111279211Y-72666233D01*
X111205369Y-72678555D01*
X111205360Y-72678557D01*
X110992428Y-72751656D01*
X110992426Y-72751658D01*
X110794426Y-72858810D01*
X110794424Y-72858811D01*
X110616762Y-72997091D01*
X110555754Y-73063363D01*
X110494901Y-73099933D01*
X110423936Y-73097798D01*
X110365391Y-73057636D01*
X110344999Y-73022057D01*
X110300889Y-72903797D01*
X110300887Y-72903792D01*
X110213261Y-72786738D01*
X110096207Y-72699112D01*
X110096202Y-72699110D01*
X109959204Y-72648011D01*
X109959196Y-72648009D01*
X109898649Y-72641500D01*
X109898638Y-72641500D01*
X108101362Y-72641500D01*
X108101350Y-72641500D01*
X108040803Y-72648009D01*
X108040795Y-72648011D01*
X107903797Y-72699110D01*
X107903792Y-72699112D01*
X107786738Y-72786738D01*
X107699112Y-72903792D01*
X107699110Y-72903797D01*
X107648011Y-73040795D01*
X107648009Y-73040803D01*
X107641500Y-73101350D01*
X106714291Y-73101350D01*
X106690190Y-73020847D01*
X106690191Y-73020847D01*
X106558331Y-72715160D01*
X106558328Y-72715155D01*
X106391876Y-72426853D01*
X106391858Y-72426826D01*
X106195771Y-72163436D01*
X105117650Y-73241557D01*
X105029722Y-73120534D01*
X104879466Y-72970278D01*
X104758441Y-72882348D01*
X105833312Y-71807477D01*
X105833312Y-71807476D01*
X105709567Y-71703644D01*
X105709566Y-71703643D01*
X105431429Y-71520709D01*
X105133909Y-71371289D01*
X104821075Y-71257427D01*
X104821072Y-71257426D01*
X104497132Y-71180651D01*
X104497122Y-71180649D01*
X104166463Y-71142000D01*
X103833537Y-71142000D01*
X103502877Y-71180649D01*
X103502867Y-71180651D01*
X103178927Y-71257426D01*
X103178924Y-71257427D01*
X102866090Y-71371289D01*
X102568570Y-71520709D01*
X102290437Y-71703641D01*
X102290427Y-71703648D01*
X102166687Y-71807477D01*
X102166687Y-71807478D01*
X103241558Y-72882349D01*
X103120534Y-72970278D01*
X102970278Y-73120534D01*
X102882349Y-73241558D01*
X101804227Y-72163436D01*
X101608133Y-72426837D01*
X101608123Y-72426853D01*
X101441671Y-72715155D01*
X101441668Y-72715160D01*
X101309809Y-73020847D01*
X101214325Y-73339783D01*
X101214325Y-73339784D01*
X101156515Y-73667645D01*
X101156514Y-73667654D01*
X101137157Y-74000000D01*
X100284000Y-74000000D01*
X100284000Y-71817780D01*
X100297733Y-71760578D01*
X100339292Y-71679011D01*
X100421014Y-71518623D01*
X100427596Y-71507222D01*
X100589994Y-71257151D01*
X100597725Y-71246512D01*
X100785369Y-71014790D01*
X100794175Y-71005011D01*
X101005011Y-70794175D01*
X101014790Y-70785369D01*
X101246512Y-70597725D01*
X101257151Y-70589994D01*
X101507222Y-70427596D01*
X101518623Y-70421014D01*
X101784280Y-70285655D01*
X101796328Y-70280292D01*
X102074663Y-70173449D01*
X102087200Y-70169374D01*
X102328224Y-70104792D01*
X102360835Y-70100500D01*
X166639165Y-70100500D01*
X166671776Y-70104793D01*
G37*
G04 #@! TD.AperFunction*
M02*
