G04 #@! TF.GenerationSoftware,KiCad,Pcbnew,8.0.4+1*
G04 #@! TF.CreationDate,2024-10-24T13:22:59+00:00*
G04 #@! TF.ProjectId,STM32103_Devel,53544d33-3231-4303-935f-446576656c2e,0.0.3*
G04 #@! TF.SameCoordinates,Original*
G04 #@! TF.FileFunction,Legend,Bot*
G04 #@! TF.FilePolarity,Positive*
%FSLAX46Y46*%
G04 Gerber Fmt 4.6, Leading zero omitted, Abs format (unit mm)*
G04 Created by KiCad (PCBNEW 8.0.4+1) date 2024-10-24 13:22:59*
%MOMM*%
%LPD*%
G01*
G04 APERTURE LIST*
%ADD10C,0.150000*%
%ADD11C,0.120000*%
%ADD12C,4.800000*%
%ADD13O,1.700000X1.000000*%
%ADD14O,1.800000X1.800000*%
G04 APERTURE END LIST*
D10*
X147710839Y-91812256D02*
X147567982Y-91859875D01*
X147567982Y-91859875D02*
X147329887Y-91859875D01*
X147329887Y-91859875D02*
X147234649Y-91812256D01*
X147234649Y-91812256D02*
X147187030Y-91764636D01*
X147187030Y-91764636D02*
X147139411Y-91669398D01*
X147139411Y-91669398D02*
X147139411Y-91574160D01*
X147139411Y-91574160D02*
X147187030Y-91478922D01*
X147187030Y-91478922D02*
X147234649Y-91431303D01*
X147234649Y-91431303D02*
X147329887Y-91383684D01*
X147329887Y-91383684D02*
X147520363Y-91336065D01*
X147520363Y-91336065D02*
X147615601Y-91288446D01*
X147615601Y-91288446D02*
X147663220Y-91240827D01*
X147663220Y-91240827D02*
X147710839Y-91145589D01*
X147710839Y-91145589D02*
X147710839Y-91050351D01*
X147710839Y-91050351D02*
X147663220Y-90955113D01*
X147663220Y-90955113D02*
X147615601Y-90907494D01*
X147615601Y-90907494D02*
X147520363Y-90859875D01*
X147520363Y-90859875D02*
X147282268Y-90859875D01*
X147282268Y-90859875D02*
X147139411Y-90907494D01*
X146853696Y-90859875D02*
X146282268Y-90859875D01*
X146567982Y-91859875D02*
X146567982Y-90859875D01*
X145948934Y-91859875D02*
X145948934Y-90859875D01*
X145948934Y-90859875D02*
X145615601Y-91574160D01*
X145615601Y-91574160D02*
X145282268Y-90859875D01*
X145282268Y-90859875D02*
X145282268Y-91859875D01*
X144901315Y-90859875D02*
X144282268Y-90859875D01*
X144282268Y-90859875D02*
X144615601Y-91240827D01*
X144615601Y-91240827D02*
X144472744Y-91240827D01*
X144472744Y-91240827D02*
X144377506Y-91288446D01*
X144377506Y-91288446D02*
X144329887Y-91336065D01*
X144329887Y-91336065D02*
X144282268Y-91431303D01*
X144282268Y-91431303D02*
X144282268Y-91669398D01*
X144282268Y-91669398D02*
X144329887Y-91764636D01*
X144329887Y-91764636D02*
X144377506Y-91812256D01*
X144377506Y-91812256D02*
X144472744Y-91859875D01*
X144472744Y-91859875D02*
X144758458Y-91859875D01*
X144758458Y-91859875D02*
X144853696Y-91812256D01*
X144853696Y-91812256D02*
X144901315Y-91764636D01*
X143901315Y-90955113D02*
X143853696Y-90907494D01*
X143853696Y-90907494D02*
X143758458Y-90859875D01*
X143758458Y-90859875D02*
X143520363Y-90859875D01*
X143520363Y-90859875D02*
X143425125Y-90907494D01*
X143425125Y-90907494D02*
X143377506Y-90955113D01*
X143377506Y-90955113D02*
X143329887Y-91050351D01*
X143329887Y-91050351D02*
X143329887Y-91145589D01*
X143329887Y-91145589D02*
X143377506Y-91288446D01*
X143377506Y-91288446D02*
X143948934Y-91859875D01*
X143948934Y-91859875D02*
X143329887Y-91859875D01*
X142567982Y-91336065D02*
X142901315Y-91336065D01*
X142901315Y-91859875D02*
X142901315Y-90859875D01*
X142901315Y-90859875D02*
X142425125Y-90859875D01*
X141520363Y-91859875D02*
X142091791Y-91859875D01*
X141806077Y-91859875D02*
X141806077Y-90859875D01*
X141806077Y-90859875D02*
X141901315Y-91002732D01*
X141901315Y-91002732D02*
X141996553Y-91097970D01*
X141996553Y-91097970D02*
X142091791Y-91145589D01*
X140901315Y-90859875D02*
X140806077Y-90859875D01*
X140806077Y-90859875D02*
X140710839Y-90907494D01*
X140710839Y-90907494D02*
X140663220Y-90955113D01*
X140663220Y-90955113D02*
X140615601Y-91050351D01*
X140615601Y-91050351D02*
X140567982Y-91240827D01*
X140567982Y-91240827D02*
X140567982Y-91478922D01*
X140567982Y-91478922D02*
X140615601Y-91669398D01*
X140615601Y-91669398D02*
X140663220Y-91764636D01*
X140663220Y-91764636D02*
X140710839Y-91812256D01*
X140710839Y-91812256D02*
X140806077Y-91859875D01*
X140806077Y-91859875D02*
X140901315Y-91859875D01*
X140901315Y-91859875D02*
X140996553Y-91812256D01*
X140996553Y-91812256D02*
X141044172Y-91764636D01*
X141044172Y-91764636D02*
X141091791Y-91669398D01*
X141091791Y-91669398D02*
X141139410Y-91478922D01*
X141139410Y-91478922D02*
X141139410Y-91240827D01*
X141139410Y-91240827D02*
X141091791Y-91050351D01*
X141091791Y-91050351D02*
X141044172Y-90955113D01*
X141044172Y-90955113D02*
X140996553Y-90907494D01*
X140996553Y-90907494D02*
X140901315Y-90859875D01*
X140234648Y-90859875D02*
X139615601Y-90859875D01*
X139615601Y-90859875D02*
X139948934Y-91240827D01*
X139948934Y-91240827D02*
X139806077Y-91240827D01*
X139806077Y-91240827D02*
X139710839Y-91288446D01*
X139710839Y-91288446D02*
X139663220Y-91336065D01*
X139663220Y-91336065D02*
X139615601Y-91431303D01*
X139615601Y-91431303D02*
X139615601Y-91669398D01*
X139615601Y-91669398D02*
X139663220Y-91764636D01*
X139663220Y-91764636D02*
X139710839Y-91812256D01*
X139710839Y-91812256D02*
X139806077Y-91859875D01*
X139806077Y-91859875D02*
X140091791Y-91859875D01*
X140091791Y-91859875D02*
X140187029Y-91812256D01*
X140187029Y-91812256D02*
X140234648Y-91764636D01*
X147758458Y-92803152D02*
X147520363Y-93469819D01*
X147520363Y-93469819D02*
X147282268Y-92803152D01*
X145948934Y-92469819D02*
X145853696Y-92469819D01*
X145853696Y-92469819D02*
X145758458Y-92517438D01*
X145758458Y-92517438D02*
X145710839Y-92565057D01*
X145710839Y-92565057D02*
X145663220Y-92660295D01*
X145663220Y-92660295D02*
X145615601Y-92850771D01*
X145615601Y-92850771D02*
X145615601Y-93088866D01*
X145615601Y-93088866D02*
X145663220Y-93279342D01*
X145663220Y-93279342D02*
X145710839Y-93374580D01*
X145710839Y-93374580D02*
X145758458Y-93422200D01*
X145758458Y-93422200D02*
X145853696Y-93469819D01*
X145853696Y-93469819D02*
X145948934Y-93469819D01*
X145948934Y-93469819D02*
X146044172Y-93422200D01*
X146044172Y-93422200D02*
X146091791Y-93374580D01*
X146091791Y-93374580D02*
X146139410Y-93279342D01*
X146139410Y-93279342D02*
X146187029Y-93088866D01*
X146187029Y-93088866D02*
X146187029Y-92850771D01*
X146187029Y-92850771D02*
X146139410Y-92660295D01*
X146139410Y-92660295D02*
X146091791Y-92565057D01*
X146091791Y-92565057D02*
X146044172Y-92517438D01*
X146044172Y-92517438D02*
X145948934Y-92469819D01*
X145187029Y-93374580D02*
X145139410Y-93422200D01*
X145139410Y-93422200D02*
X145187029Y-93469819D01*
X145187029Y-93469819D02*
X145234648Y-93422200D01*
X145234648Y-93422200D02*
X145187029Y-93374580D01*
X145187029Y-93374580D02*
X145187029Y-93469819D01*
X144520363Y-92469819D02*
X144425125Y-92469819D01*
X144425125Y-92469819D02*
X144329887Y-92517438D01*
X144329887Y-92517438D02*
X144282268Y-92565057D01*
X144282268Y-92565057D02*
X144234649Y-92660295D01*
X144234649Y-92660295D02*
X144187030Y-92850771D01*
X144187030Y-92850771D02*
X144187030Y-93088866D01*
X144187030Y-93088866D02*
X144234649Y-93279342D01*
X144234649Y-93279342D02*
X144282268Y-93374580D01*
X144282268Y-93374580D02*
X144329887Y-93422200D01*
X144329887Y-93422200D02*
X144425125Y-93469819D01*
X144425125Y-93469819D02*
X144520363Y-93469819D01*
X144520363Y-93469819D02*
X144615601Y-93422200D01*
X144615601Y-93422200D02*
X144663220Y-93374580D01*
X144663220Y-93374580D02*
X144710839Y-93279342D01*
X144710839Y-93279342D02*
X144758458Y-93088866D01*
X144758458Y-93088866D02*
X144758458Y-92850771D01*
X144758458Y-92850771D02*
X144710839Y-92660295D01*
X144710839Y-92660295D02*
X144663220Y-92565057D01*
X144663220Y-92565057D02*
X144615601Y-92517438D01*
X144615601Y-92517438D02*
X144520363Y-92469819D01*
X143758458Y-93374580D02*
X143710839Y-93422200D01*
X143710839Y-93422200D02*
X143758458Y-93469819D01*
X143758458Y-93469819D02*
X143806077Y-93422200D01*
X143806077Y-93422200D02*
X143758458Y-93374580D01*
X143758458Y-93374580D02*
X143758458Y-93469819D01*
X143377506Y-92469819D02*
X142758459Y-92469819D01*
X142758459Y-92469819D02*
X143091792Y-92850771D01*
X143091792Y-92850771D02*
X142948935Y-92850771D01*
X142948935Y-92850771D02*
X142853697Y-92898390D01*
X142853697Y-92898390D02*
X142806078Y-92946009D01*
X142806078Y-92946009D02*
X142758459Y-93041247D01*
X142758459Y-93041247D02*
X142758459Y-93279342D01*
X142758459Y-93279342D02*
X142806078Y-93374580D01*
X142806078Y-93374580D02*
X142853697Y-93422200D01*
X142853697Y-93422200D02*
X142948935Y-93469819D01*
X142948935Y-93469819D02*
X143234649Y-93469819D01*
X143234649Y-93469819D02*
X143329887Y-93422200D01*
X143329887Y-93422200D02*
X143377506Y-93374580D01*
X143602312Y-75789160D02*
X143649931Y-75932017D01*
X143649931Y-75932017D02*
X143649931Y-76170112D01*
X143649931Y-76170112D02*
X143602312Y-76265350D01*
X143602312Y-76265350D02*
X143554692Y-76312969D01*
X143554692Y-76312969D02*
X143459454Y-76360588D01*
X143459454Y-76360588D02*
X143364216Y-76360588D01*
X143364216Y-76360588D02*
X143268978Y-76312969D01*
X143268978Y-76312969D02*
X143221359Y-76265350D01*
X143221359Y-76265350D02*
X143173740Y-76170112D01*
X143173740Y-76170112D02*
X143126121Y-75979636D01*
X143126121Y-75979636D02*
X143078502Y-75884398D01*
X143078502Y-75884398D02*
X143030883Y-75836779D01*
X143030883Y-75836779D02*
X142935645Y-75789160D01*
X142935645Y-75789160D02*
X142840407Y-75789160D01*
X142840407Y-75789160D02*
X142745169Y-75836779D01*
X142745169Y-75836779D02*
X142697550Y-75884398D01*
X142697550Y-75884398D02*
X142649931Y-75979636D01*
X142649931Y-75979636D02*
X142649931Y-76217731D01*
X142649931Y-76217731D02*
X142697550Y-76360588D01*
X143554692Y-77360588D02*
X143602312Y-77312969D01*
X143602312Y-77312969D02*
X143649931Y-77170112D01*
X143649931Y-77170112D02*
X143649931Y-77074874D01*
X143649931Y-77074874D02*
X143602312Y-76932017D01*
X143602312Y-76932017D02*
X143507073Y-76836779D01*
X143507073Y-76836779D02*
X143411835Y-76789160D01*
X143411835Y-76789160D02*
X143221359Y-76741541D01*
X143221359Y-76741541D02*
X143078502Y-76741541D01*
X143078502Y-76741541D02*
X142888026Y-76789160D01*
X142888026Y-76789160D02*
X142792788Y-76836779D01*
X142792788Y-76836779D02*
X142697550Y-76932017D01*
X142697550Y-76932017D02*
X142649931Y-77074874D01*
X142649931Y-77074874D02*
X142649931Y-77170112D01*
X142649931Y-77170112D02*
X142697550Y-77312969D01*
X142697550Y-77312969D02*
X142745169Y-77360588D01*
X143649931Y-77789160D02*
X142649931Y-77789160D01*
X143649931Y-78360588D02*
X143078502Y-77932017D01*
X142649931Y-78360588D02*
X143221359Y-77789160D01*
X142745169Y-78741541D02*
X142697550Y-78789160D01*
X142697550Y-78789160D02*
X142649931Y-78884398D01*
X142649931Y-78884398D02*
X142649931Y-79122493D01*
X142649931Y-79122493D02*
X142697550Y-79217731D01*
X142697550Y-79217731D02*
X142745169Y-79265350D01*
X142745169Y-79265350D02*
X142840407Y-79312969D01*
X142840407Y-79312969D02*
X142935645Y-79312969D01*
X142935645Y-79312969D02*
X143078502Y-79265350D01*
X143078502Y-79265350D02*
X143649931Y-78693922D01*
X143649931Y-78693922D02*
X143649931Y-79312969D01*
X145259875Y-75836779D02*
X144259875Y-75836779D01*
X144259875Y-75836779D02*
X144974160Y-76170112D01*
X144974160Y-76170112D02*
X144259875Y-76503445D01*
X144259875Y-76503445D02*
X145259875Y-76503445D01*
X145259875Y-76979636D02*
X144259875Y-76979636D01*
X145212256Y-77408207D02*
X145259875Y-77551064D01*
X145259875Y-77551064D02*
X145259875Y-77789159D01*
X145259875Y-77789159D02*
X145212256Y-77884397D01*
X145212256Y-77884397D02*
X145164636Y-77932016D01*
X145164636Y-77932016D02*
X145069398Y-77979635D01*
X145069398Y-77979635D02*
X144974160Y-77979635D01*
X144974160Y-77979635D02*
X144878922Y-77932016D01*
X144878922Y-77932016D02*
X144831303Y-77884397D01*
X144831303Y-77884397D02*
X144783684Y-77789159D01*
X144783684Y-77789159D02*
X144736065Y-77598683D01*
X144736065Y-77598683D02*
X144688446Y-77503445D01*
X144688446Y-77503445D02*
X144640827Y-77455826D01*
X144640827Y-77455826D02*
X144545589Y-77408207D01*
X144545589Y-77408207D02*
X144450351Y-77408207D01*
X144450351Y-77408207D02*
X144355113Y-77455826D01*
X144355113Y-77455826D02*
X144307494Y-77503445D01*
X144307494Y-77503445D02*
X144259875Y-77598683D01*
X144259875Y-77598683D02*
X144259875Y-77836778D01*
X144259875Y-77836778D02*
X144307494Y-77979635D01*
X144259875Y-78598683D02*
X144259875Y-78789159D01*
X144259875Y-78789159D02*
X144307494Y-78884397D01*
X144307494Y-78884397D02*
X144402732Y-78979635D01*
X144402732Y-78979635D02*
X144593208Y-79027254D01*
X144593208Y-79027254D02*
X144926541Y-79027254D01*
X144926541Y-79027254D02*
X145117017Y-78979635D01*
X145117017Y-78979635D02*
X145212256Y-78884397D01*
X145212256Y-78884397D02*
X145259875Y-78789159D01*
X145259875Y-78789159D02*
X145259875Y-78598683D01*
X145259875Y-78598683D02*
X145212256Y-78503445D01*
X145212256Y-78503445D02*
X145117017Y-78408207D01*
X145117017Y-78408207D02*
X144926541Y-78360588D01*
X144926541Y-78360588D02*
X144593208Y-78360588D01*
X144593208Y-78360588D02*
X144402732Y-78408207D01*
X144402732Y-78408207D02*
X144307494Y-78503445D01*
X144307494Y-78503445D02*
X144259875Y-78598683D01*
X144355113Y-79408207D02*
X144307494Y-79455826D01*
X144307494Y-79455826D02*
X144259875Y-79551064D01*
X144259875Y-79551064D02*
X144259875Y-79789159D01*
X144259875Y-79789159D02*
X144307494Y-79884397D01*
X144307494Y-79884397D02*
X144355113Y-79932016D01*
X144355113Y-79932016D02*
X144450351Y-79979635D01*
X144450351Y-79979635D02*
X144545589Y-79979635D01*
X144545589Y-79979635D02*
X144688446Y-79932016D01*
X144688446Y-79932016D02*
X145259875Y-79360588D01*
X145259875Y-79360588D02*
X145259875Y-79979635D01*
X146869819Y-75836779D02*
X145869819Y-75836779D01*
X145869819Y-75836779D02*
X146584104Y-76170112D01*
X146584104Y-76170112D02*
X145869819Y-76503445D01*
X145869819Y-76503445D02*
X146869819Y-76503445D01*
X145869819Y-77170112D02*
X145869819Y-77360588D01*
X145869819Y-77360588D02*
X145917438Y-77455826D01*
X145917438Y-77455826D02*
X146012676Y-77551064D01*
X146012676Y-77551064D02*
X146203152Y-77598683D01*
X146203152Y-77598683D02*
X146536485Y-77598683D01*
X146536485Y-77598683D02*
X146726961Y-77551064D01*
X146726961Y-77551064D02*
X146822200Y-77455826D01*
X146822200Y-77455826D02*
X146869819Y-77360588D01*
X146869819Y-77360588D02*
X146869819Y-77170112D01*
X146869819Y-77170112D02*
X146822200Y-77074874D01*
X146822200Y-77074874D02*
X146726961Y-76979636D01*
X146726961Y-76979636D02*
X146536485Y-76932017D01*
X146536485Y-76932017D02*
X146203152Y-76932017D01*
X146203152Y-76932017D02*
X146012676Y-76979636D01*
X146012676Y-76979636D02*
X145917438Y-77074874D01*
X145917438Y-77074874D02*
X145869819Y-77170112D01*
X146822200Y-77979636D02*
X146869819Y-78122493D01*
X146869819Y-78122493D02*
X146869819Y-78360588D01*
X146869819Y-78360588D02*
X146822200Y-78455826D01*
X146822200Y-78455826D02*
X146774580Y-78503445D01*
X146774580Y-78503445D02*
X146679342Y-78551064D01*
X146679342Y-78551064D02*
X146584104Y-78551064D01*
X146584104Y-78551064D02*
X146488866Y-78503445D01*
X146488866Y-78503445D02*
X146441247Y-78455826D01*
X146441247Y-78455826D02*
X146393628Y-78360588D01*
X146393628Y-78360588D02*
X146346009Y-78170112D01*
X146346009Y-78170112D02*
X146298390Y-78074874D01*
X146298390Y-78074874D02*
X146250771Y-78027255D01*
X146250771Y-78027255D02*
X146155533Y-77979636D01*
X146155533Y-77979636D02*
X146060295Y-77979636D01*
X146060295Y-77979636D02*
X145965057Y-78027255D01*
X145965057Y-78027255D02*
X145917438Y-78074874D01*
X145917438Y-78074874D02*
X145869819Y-78170112D01*
X145869819Y-78170112D02*
X145869819Y-78408207D01*
X145869819Y-78408207D02*
X145917438Y-78551064D01*
X146869819Y-78979636D02*
X145869819Y-78979636D01*
X145965057Y-79408207D02*
X145917438Y-79455826D01*
X145917438Y-79455826D02*
X145869819Y-79551064D01*
X145869819Y-79551064D02*
X145869819Y-79789159D01*
X145869819Y-79789159D02*
X145917438Y-79884397D01*
X145917438Y-79884397D02*
X145965057Y-79932016D01*
X145965057Y-79932016D02*
X146060295Y-79979635D01*
X146060295Y-79979635D02*
X146155533Y-79979635D01*
X146155533Y-79979635D02*
X146298390Y-79932016D01*
X146298390Y-79932016D02*
X146869819Y-79360588D01*
X146869819Y-79360588D02*
X146869819Y-79979635D01*
X125212256Y-75789160D02*
X125259875Y-75932017D01*
X125259875Y-75932017D02*
X125259875Y-76170112D01*
X125259875Y-76170112D02*
X125212256Y-76265350D01*
X125212256Y-76265350D02*
X125164636Y-76312969D01*
X125164636Y-76312969D02*
X125069398Y-76360588D01*
X125069398Y-76360588D02*
X124974160Y-76360588D01*
X124974160Y-76360588D02*
X124878922Y-76312969D01*
X124878922Y-76312969D02*
X124831303Y-76265350D01*
X124831303Y-76265350D02*
X124783684Y-76170112D01*
X124783684Y-76170112D02*
X124736065Y-75979636D01*
X124736065Y-75979636D02*
X124688446Y-75884398D01*
X124688446Y-75884398D02*
X124640827Y-75836779D01*
X124640827Y-75836779D02*
X124545589Y-75789160D01*
X124545589Y-75789160D02*
X124450351Y-75789160D01*
X124450351Y-75789160D02*
X124355113Y-75836779D01*
X124355113Y-75836779D02*
X124307494Y-75884398D01*
X124307494Y-75884398D02*
X124259875Y-75979636D01*
X124259875Y-75979636D02*
X124259875Y-76217731D01*
X124259875Y-76217731D02*
X124307494Y-76360588D01*
X125164636Y-77360588D02*
X125212256Y-77312969D01*
X125212256Y-77312969D02*
X125259875Y-77170112D01*
X125259875Y-77170112D02*
X125259875Y-77074874D01*
X125259875Y-77074874D02*
X125212256Y-76932017D01*
X125212256Y-76932017D02*
X125117017Y-76836779D01*
X125117017Y-76836779D02*
X125021779Y-76789160D01*
X125021779Y-76789160D02*
X124831303Y-76741541D01*
X124831303Y-76741541D02*
X124688446Y-76741541D01*
X124688446Y-76741541D02*
X124497970Y-76789160D01*
X124497970Y-76789160D02*
X124402732Y-76836779D01*
X124402732Y-76836779D02*
X124307494Y-76932017D01*
X124307494Y-76932017D02*
X124259875Y-77074874D01*
X124259875Y-77074874D02*
X124259875Y-77170112D01*
X124259875Y-77170112D02*
X124307494Y-77312969D01*
X124307494Y-77312969D02*
X124355113Y-77360588D01*
X125259875Y-78265350D02*
X125259875Y-77789160D01*
X125259875Y-77789160D02*
X124259875Y-77789160D01*
X125259875Y-79122493D02*
X125259875Y-78551065D01*
X125259875Y-78836779D02*
X124259875Y-78836779D01*
X124259875Y-78836779D02*
X124402732Y-78741541D01*
X124402732Y-78741541D02*
X124497970Y-78646303D01*
X124497970Y-78646303D02*
X124545589Y-78551065D01*
X126822200Y-75789160D02*
X126869819Y-75932017D01*
X126869819Y-75932017D02*
X126869819Y-76170112D01*
X126869819Y-76170112D02*
X126822200Y-76265350D01*
X126822200Y-76265350D02*
X126774580Y-76312969D01*
X126774580Y-76312969D02*
X126679342Y-76360588D01*
X126679342Y-76360588D02*
X126584104Y-76360588D01*
X126584104Y-76360588D02*
X126488866Y-76312969D01*
X126488866Y-76312969D02*
X126441247Y-76265350D01*
X126441247Y-76265350D02*
X126393628Y-76170112D01*
X126393628Y-76170112D02*
X126346009Y-75979636D01*
X126346009Y-75979636D02*
X126298390Y-75884398D01*
X126298390Y-75884398D02*
X126250771Y-75836779D01*
X126250771Y-75836779D02*
X126155533Y-75789160D01*
X126155533Y-75789160D02*
X126060295Y-75789160D01*
X126060295Y-75789160D02*
X125965057Y-75836779D01*
X125965057Y-75836779D02*
X125917438Y-75884398D01*
X125917438Y-75884398D02*
X125869819Y-75979636D01*
X125869819Y-75979636D02*
X125869819Y-76217731D01*
X125869819Y-76217731D02*
X125917438Y-76360588D01*
X126869819Y-76789160D02*
X125869819Y-76789160D01*
X125869819Y-76789160D02*
X125869819Y-77027255D01*
X125869819Y-77027255D02*
X125917438Y-77170112D01*
X125917438Y-77170112D02*
X126012676Y-77265350D01*
X126012676Y-77265350D02*
X126107914Y-77312969D01*
X126107914Y-77312969D02*
X126298390Y-77360588D01*
X126298390Y-77360588D02*
X126441247Y-77360588D01*
X126441247Y-77360588D02*
X126631723Y-77312969D01*
X126631723Y-77312969D02*
X126726961Y-77265350D01*
X126726961Y-77265350D02*
X126822200Y-77170112D01*
X126822200Y-77170112D02*
X126869819Y-77027255D01*
X126869819Y-77027255D02*
X126869819Y-76789160D01*
X126584104Y-77741541D02*
X126584104Y-78217731D01*
X126869819Y-77646303D02*
X125869819Y-77979636D01*
X125869819Y-77979636D02*
X126869819Y-78312969D01*
X126869819Y-79170112D02*
X126869819Y-78598684D01*
X126869819Y-78884398D02*
X125869819Y-78884398D01*
X125869819Y-78884398D02*
X126012676Y-78789160D01*
X126012676Y-78789160D02*
X126107914Y-78693922D01*
X126107914Y-78693922D02*
X126155533Y-78598684D01*
X133240124Y-113591792D02*
X133716315Y-113925125D01*
X133240124Y-114163220D02*
X134240124Y-114163220D01*
X134240124Y-114163220D02*
X134240124Y-113782268D01*
X134240124Y-113782268D02*
X134192505Y-113687030D01*
X134192505Y-113687030D02*
X134144886Y-113639411D01*
X134144886Y-113639411D02*
X134049648Y-113591792D01*
X134049648Y-113591792D02*
X133906791Y-113591792D01*
X133906791Y-113591792D02*
X133811553Y-113639411D01*
X133811553Y-113639411D02*
X133763934Y-113687030D01*
X133763934Y-113687030D02*
X133716315Y-113782268D01*
X133716315Y-113782268D02*
X133716315Y-114163220D01*
X134240124Y-113258458D02*
X133240124Y-112591792D01*
X134240124Y-112591792D02*
X133240124Y-113258458D01*
X133240124Y-111687030D02*
X133240124Y-112258458D01*
X133240124Y-111972744D02*
X134240124Y-111972744D01*
X134240124Y-111972744D02*
X134097267Y-112067982D01*
X134097267Y-112067982D02*
X134002029Y-112163220D01*
X134002029Y-112163220D02*
X133954410Y-112258458D01*
X132630180Y-114306077D02*
X132630180Y-113734649D01*
X131630180Y-114020363D02*
X132630180Y-114020363D01*
X132630180Y-113496553D02*
X131630180Y-112829887D01*
X132630180Y-112829887D02*
X131630180Y-113496553D01*
X131630180Y-111925125D02*
X131630180Y-112496553D01*
X131630180Y-112210839D02*
X132630180Y-112210839D01*
X132630180Y-112210839D02*
X132487323Y-112306077D01*
X132487323Y-112306077D02*
X132392085Y-112401315D01*
X132392085Y-112401315D02*
X132344466Y-112496553D01*
X135212256Y-75789160D02*
X135259875Y-75932017D01*
X135259875Y-75932017D02*
X135259875Y-76170112D01*
X135259875Y-76170112D02*
X135212256Y-76265350D01*
X135212256Y-76265350D02*
X135164636Y-76312969D01*
X135164636Y-76312969D02*
X135069398Y-76360588D01*
X135069398Y-76360588D02*
X134974160Y-76360588D01*
X134974160Y-76360588D02*
X134878922Y-76312969D01*
X134878922Y-76312969D02*
X134831303Y-76265350D01*
X134831303Y-76265350D02*
X134783684Y-76170112D01*
X134783684Y-76170112D02*
X134736065Y-75979636D01*
X134736065Y-75979636D02*
X134688446Y-75884398D01*
X134688446Y-75884398D02*
X134640827Y-75836779D01*
X134640827Y-75836779D02*
X134545589Y-75789160D01*
X134545589Y-75789160D02*
X134450351Y-75789160D01*
X134450351Y-75789160D02*
X134355113Y-75836779D01*
X134355113Y-75836779D02*
X134307494Y-75884398D01*
X134307494Y-75884398D02*
X134259875Y-75979636D01*
X134259875Y-75979636D02*
X134259875Y-76217731D01*
X134259875Y-76217731D02*
X134307494Y-76360588D01*
X135164636Y-77360588D02*
X135212256Y-77312969D01*
X135212256Y-77312969D02*
X135259875Y-77170112D01*
X135259875Y-77170112D02*
X135259875Y-77074874D01*
X135259875Y-77074874D02*
X135212256Y-76932017D01*
X135212256Y-76932017D02*
X135117017Y-76836779D01*
X135117017Y-76836779D02*
X135021779Y-76789160D01*
X135021779Y-76789160D02*
X134831303Y-76741541D01*
X134831303Y-76741541D02*
X134688446Y-76741541D01*
X134688446Y-76741541D02*
X134497970Y-76789160D01*
X134497970Y-76789160D02*
X134402732Y-76836779D01*
X134402732Y-76836779D02*
X134307494Y-76932017D01*
X134307494Y-76932017D02*
X134259875Y-77074874D01*
X134259875Y-77074874D02*
X134259875Y-77170112D01*
X134259875Y-77170112D02*
X134307494Y-77312969D01*
X134307494Y-77312969D02*
X134355113Y-77360588D01*
X135259875Y-78265350D02*
X135259875Y-77789160D01*
X135259875Y-77789160D02*
X134259875Y-77789160D01*
X134355113Y-78551065D02*
X134307494Y-78598684D01*
X134307494Y-78598684D02*
X134259875Y-78693922D01*
X134259875Y-78693922D02*
X134259875Y-78932017D01*
X134259875Y-78932017D02*
X134307494Y-79027255D01*
X134307494Y-79027255D02*
X134355113Y-79074874D01*
X134355113Y-79074874D02*
X134450351Y-79122493D01*
X134450351Y-79122493D02*
X134545589Y-79122493D01*
X134545589Y-79122493D02*
X134688446Y-79074874D01*
X134688446Y-79074874D02*
X135259875Y-78503446D01*
X135259875Y-78503446D02*
X135259875Y-79122493D01*
X134259875Y-80170113D02*
X134259875Y-80741541D01*
X135259875Y-80455827D02*
X134259875Y-80455827D01*
X134259875Y-80979637D02*
X135259875Y-81646303D01*
X134259875Y-81646303D02*
X135259875Y-80979637D01*
X134259875Y-81932018D02*
X134259875Y-82551065D01*
X134259875Y-82551065D02*
X134640827Y-82217732D01*
X134640827Y-82217732D02*
X134640827Y-82360589D01*
X134640827Y-82360589D02*
X134688446Y-82455827D01*
X134688446Y-82455827D02*
X134736065Y-82503446D01*
X134736065Y-82503446D02*
X134831303Y-82551065D01*
X134831303Y-82551065D02*
X135069398Y-82551065D01*
X135069398Y-82551065D02*
X135164636Y-82503446D01*
X135164636Y-82503446D02*
X135212256Y-82455827D01*
X135212256Y-82455827D02*
X135259875Y-82360589D01*
X135259875Y-82360589D02*
X135259875Y-82074875D01*
X135259875Y-82074875D02*
X135212256Y-81979637D01*
X135212256Y-81979637D02*
X135164636Y-81932018D01*
X136822200Y-75789160D02*
X136869819Y-75932017D01*
X136869819Y-75932017D02*
X136869819Y-76170112D01*
X136869819Y-76170112D02*
X136822200Y-76265350D01*
X136822200Y-76265350D02*
X136774580Y-76312969D01*
X136774580Y-76312969D02*
X136679342Y-76360588D01*
X136679342Y-76360588D02*
X136584104Y-76360588D01*
X136584104Y-76360588D02*
X136488866Y-76312969D01*
X136488866Y-76312969D02*
X136441247Y-76265350D01*
X136441247Y-76265350D02*
X136393628Y-76170112D01*
X136393628Y-76170112D02*
X136346009Y-75979636D01*
X136346009Y-75979636D02*
X136298390Y-75884398D01*
X136298390Y-75884398D02*
X136250771Y-75836779D01*
X136250771Y-75836779D02*
X136155533Y-75789160D01*
X136155533Y-75789160D02*
X136060295Y-75789160D01*
X136060295Y-75789160D02*
X135965057Y-75836779D01*
X135965057Y-75836779D02*
X135917438Y-75884398D01*
X135917438Y-75884398D02*
X135869819Y-75979636D01*
X135869819Y-75979636D02*
X135869819Y-76217731D01*
X135869819Y-76217731D02*
X135917438Y-76360588D01*
X136869819Y-76789160D02*
X135869819Y-76789160D01*
X135869819Y-76789160D02*
X135869819Y-77027255D01*
X135869819Y-77027255D02*
X135917438Y-77170112D01*
X135917438Y-77170112D02*
X136012676Y-77265350D01*
X136012676Y-77265350D02*
X136107914Y-77312969D01*
X136107914Y-77312969D02*
X136298390Y-77360588D01*
X136298390Y-77360588D02*
X136441247Y-77360588D01*
X136441247Y-77360588D02*
X136631723Y-77312969D01*
X136631723Y-77312969D02*
X136726961Y-77265350D01*
X136726961Y-77265350D02*
X136822200Y-77170112D01*
X136822200Y-77170112D02*
X136869819Y-77027255D01*
X136869819Y-77027255D02*
X136869819Y-76789160D01*
X136584104Y-77741541D02*
X136584104Y-78217731D01*
X136869819Y-77646303D02*
X135869819Y-77979636D01*
X135869819Y-77979636D02*
X136869819Y-78312969D01*
X135965057Y-78598684D02*
X135917438Y-78646303D01*
X135917438Y-78646303D02*
X135869819Y-78741541D01*
X135869819Y-78741541D02*
X135869819Y-78979636D01*
X135869819Y-78979636D02*
X135917438Y-79074874D01*
X135917438Y-79074874D02*
X135965057Y-79122493D01*
X135965057Y-79122493D02*
X136060295Y-79170112D01*
X136060295Y-79170112D02*
X136155533Y-79170112D01*
X136155533Y-79170112D02*
X136298390Y-79122493D01*
X136298390Y-79122493D02*
X136869819Y-78551065D01*
X136869819Y-78551065D02*
X136869819Y-79170112D01*
X136869819Y-80932017D02*
X136393628Y-80598684D01*
X136869819Y-80360589D02*
X135869819Y-80360589D01*
X135869819Y-80360589D02*
X135869819Y-80741541D01*
X135869819Y-80741541D02*
X135917438Y-80836779D01*
X135917438Y-80836779D02*
X135965057Y-80884398D01*
X135965057Y-80884398D02*
X136060295Y-80932017D01*
X136060295Y-80932017D02*
X136203152Y-80932017D01*
X136203152Y-80932017D02*
X136298390Y-80884398D01*
X136298390Y-80884398D02*
X136346009Y-80836779D01*
X136346009Y-80836779D02*
X136393628Y-80741541D01*
X136393628Y-80741541D02*
X136393628Y-80360589D01*
X135869819Y-81265351D02*
X136869819Y-81932017D01*
X135869819Y-81932017D02*
X136869819Y-81265351D01*
X135869819Y-82217732D02*
X135869819Y-82836779D01*
X135869819Y-82836779D02*
X136250771Y-82503446D01*
X136250771Y-82503446D02*
X136250771Y-82646303D01*
X136250771Y-82646303D02*
X136298390Y-82741541D01*
X136298390Y-82741541D02*
X136346009Y-82789160D01*
X136346009Y-82789160D02*
X136441247Y-82836779D01*
X136441247Y-82836779D02*
X136679342Y-82836779D01*
X136679342Y-82836779D02*
X136774580Y-82789160D01*
X136774580Y-82789160D02*
X136822200Y-82741541D01*
X136822200Y-82741541D02*
X136869819Y-82646303D01*
X136869819Y-82646303D02*
X136869819Y-82360589D01*
X136869819Y-82360589D02*
X136822200Y-82265351D01*
X136822200Y-82265351D02*
X136774580Y-82217732D01*
X125350068Y-114163220D02*
X126350068Y-114163220D01*
X126350068Y-114163220D02*
X125635783Y-113829887D01*
X125635783Y-113829887D02*
X126350068Y-113496554D01*
X126350068Y-113496554D02*
X125350068Y-113496554D01*
X126350068Y-112829887D02*
X126350068Y-112639411D01*
X126350068Y-112639411D02*
X126302449Y-112544173D01*
X126302449Y-112544173D02*
X126207211Y-112448935D01*
X126207211Y-112448935D02*
X126016735Y-112401316D01*
X126016735Y-112401316D02*
X125683402Y-112401316D01*
X125683402Y-112401316D02*
X125492926Y-112448935D01*
X125492926Y-112448935D02*
X125397688Y-112544173D01*
X125397688Y-112544173D02*
X125350068Y-112639411D01*
X125350068Y-112639411D02*
X125350068Y-112829887D01*
X125350068Y-112829887D02*
X125397688Y-112925125D01*
X125397688Y-112925125D02*
X125492926Y-113020363D01*
X125492926Y-113020363D02*
X125683402Y-113067982D01*
X125683402Y-113067982D02*
X126016735Y-113067982D01*
X126016735Y-113067982D02*
X126207211Y-113020363D01*
X126207211Y-113020363D02*
X126302449Y-112925125D01*
X126302449Y-112925125D02*
X126350068Y-112829887D01*
X125397688Y-112020363D02*
X125350068Y-111877506D01*
X125350068Y-111877506D02*
X125350068Y-111639411D01*
X125350068Y-111639411D02*
X125397688Y-111544173D01*
X125397688Y-111544173D02*
X125445307Y-111496554D01*
X125445307Y-111496554D02*
X125540545Y-111448935D01*
X125540545Y-111448935D02*
X125635783Y-111448935D01*
X125635783Y-111448935D02*
X125731021Y-111496554D01*
X125731021Y-111496554D02*
X125778640Y-111544173D01*
X125778640Y-111544173D02*
X125826259Y-111639411D01*
X125826259Y-111639411D02*
X125873878Y-111829887D01*
X125873878Y-111829887D02*
X125921497Y-111925125D01*
X125921497Y-111925125D02*
X125969116Y-111972744D01*
X125969116Y-111972744D02*
X126064354Y-112020363D01*
X126064354Y-112020363D02*
X126159592Y-112020363D01*
X126159592Y-112020363D02*
X126254830Y-111972744D01*
X126254830Y-111972744D02*
X126302449Y-111925125D01*
X126302449Y-111925125D02*
X126350068Y-111829887D01*
X126350068Y-111829887D02*
X126350068Y-111591792D01*
X126350068Y-111591792D02*
X126302449Y-111448935D01*
X125350068Y-111020363D02*
X126350068Y-111020363D01*
X125350068Y-110020364D02*
X125350068Y-110591792D01*
X125350068Y-110306078D02*
X126350068Y-110306078D01*
X126350068Y-110306078D02*
X126207211Y-110401316D01*
X126207211Y-110401316D02*
X126111973Y-110496554D01*
X126111973Y-110496554D02*
X126064354Y-110591792D01*
X123740124Y-114163220D02*
X124740124Y-114163220D01*
X124740124Y-114163220D02*
X124025839Y-113829887D01*
X124025839Y-113829887D02*
X124740124Y-113496554D01*
X124740124Y-113496554D02*
X123740124Y-113496554D01*
X123740124Y-113020363D02*
X124740124Y-113020363D01*
X123787744Y-112591792D02*
X123740124Y-112448935D01*
X123740124Y-112448935D02*
X123740124Y-112210840D01*
X123740124Y-112210840D02*
X123787744Y-112115602D01*
X123787744Y-112115602D02*
X123835363Y-112067983D01*
X123835363Y-112067983D02*
X123930601Y-112020364D01*
X123930601Y-112020364D02*
X124025839Y-112020364D01*
X124025839Y-112020364D02*
X124121077Y-112067983D01*
X124121077Y-112067983D02*
X124168696Y-112115602D01*
X124168696Y-112115602D02*
X124216315Y-112210840D01*
X124216315Y-112210840D02*
X124263934Y-112401316D01*
X124263934Y-112401316D02*
X124311553Y-112496554D01*
X124311553Y-112496554D02*
X124359172Y-112544173D01*
X124359172Y-112544173D02*
X124454410Y-112591792D01*
X124454410Y-112591792D02*
X124549648Y-112591792D01*
X124549648Y-112591792D02*
X124644886Y-112544173D01*
X124644886Y-112544173D02*
X124692505Y-112496554D01*
X124692505Y-112496554D02*
X124740124Y-112401316D01*
X124740124Y-112401316D02*
X124740124Y-112163221D01*
X124740124Y-112163221D02*
X124692505Y-112020364D01*
X124740124Y-111401316D02*
X124740124Y-111210840D01*
X124740124Y-111210840D02*
X124692505Y-111115602D01*
X124692505Y-111115602D02*
X124597267Y-111020364D01*
X124597267Y-111020364D02*
X124406791Y-110972745D01*
X124406791Y-110972745D02*
X124073458Y-110972745D01*
X124073458Y-110972745D02*
X123882982Y-111020364D01*
X123882982Y-111020364D02*
X123787744Y-111115602D01*
X123787744Y-111115602D02*
X123740124Y-111210840D01*
X123740124Y-111210840D02*
X123740124Y-111401316D01*
X123740124Y-111401316D02*
X123787744Y-111496554D01*
X123787744Y-111496554D02*
X123882982Y-111591792D01*
X123882982Y-111591792D02*
X124073458Y-111639411D01*
X124073458Y-111639411D02*
X124406791Y-111639411D01*
X124406791Y-111639411D02*
X124597267Y-111591792D01*
X124597267Y-111591792D02*
X124692505Y-111496554D01*
X124692505Y-111496554D02*
X124740124Y-111401316D01*
X123740124Y-110020364D02*
X123740124Y-110591792D01*
X123740124Y-110306078D02*
X124740124Y-110306078D01*
X124740124Y-110306078D02*
X124597267Y-110401316D01*
X124597267Y-110401316D02*
X124502029Y-110496554D01*
X124502029Y-110496554D02*
X124454410Y-110591792D01*
X122177800Y-114210839D02*
X122130180Y-114067982D01*
X122130180Y-114067982D02*
X122130180Y-113829887D01*
X122130180Y-113829887D02*
X122177800Y-113734649D01*
X122177800Y-113734649D02*
X122225419Y-113687030D01*
X122225419Y-113687030D02*
X122320657Y-113639411D01*
X122320657Y-113639411D02*
X122415895Y-113639411D01*
X122415895Y-113639411D02*
X122511133Y-113687030D01*
X122511133Y-113687030D02*
X122558752Y-113734649D01*
X122558752Y-113734649D02*
X122606371Y-113829887D01*
X122606371Y-113829887D02*
X122653990Y-114020363D01*
X122653990Y-114020363D02*
X122701609Y-114115601D01*
X122701609Y-114115601D02*
X122749228Y-114163220D01*
X122749228Y-114163220D02*
X122844466Y-114210839D01*
X122844466Y-114210839D02*
X122939704Y-114210839D01*
X122939704Y-114210839D02*
X123034942Y-114163220D01*
X123034942Y-114163220D02*
X123082561Y-114115601D01*
X123082561Y-114115601D02*
X123130180Y-114020363D01*
X123130180Y-114020363D02*
X123130180Y-113782268D01*
X123130180Y-113782268D02*
X123082561Y-113639411D01*
X122225419Y-112639411D02*
X122177800Y-112687030D01*
X122177800Y-112687030D02*
X122130180Y-112829887D01*
X122130180Y-112829887D02*
X122130180Y-112925125D01*
X122130180Y-112925125D02*
X122177800Y-113067982D01*
X122177800Y-113067982D02*
X122273038Y-113163220D01*
X122273038Y-113163220D02*
X122368276Y-113210839D01*
X122368276Y-113210839D02*
X122558752Y-113258458D01*
X122558752Y-113258458D02*
X122701609Y-113258458D01*
X122701609Y-113258458D02*
X122892085Y-113210839D01*
X122892085Y-113210839D02*
X122987323Y-113163220D01*
X122987323Y-113163220D02*
X123082561Y-113067982D01*
X123082561Y-113067982D02*
X123130180Y-112925125D01*
X123130180Y-112925125D02*
X123130180Y-112829887D01*
X123130180Y-112829887D02*
X123082561Y-112687030D01*
X123082561Y-112687030D02*
X123034942Y-112639411D01*
X122130180Y-112210839D02*
X123130180Y-112210839D01*
X122130180Y-111639411D02*
X122701609Y-112067982D01*
X123130180Y-111639411D02*
X122558752Y-112210839D01*
X122130180Y-110687030D02*
X122130180Y-111258458D01*
X122130180Y-110972744D02*
X123130180Y-110972744D01*
X123130180Y-110972744D02*
X122987323Y-111067982D01*
X122987323Y-111067982D02*
X122892085Y-111163220D01*
X122892085Y-111163220D02*
X122844466Y-111258458D01*
X130164636Y-76408207D02*
X130212256Y-76360588D01*
X130212256Y-76360588D02*
X130259875Y-76217731D01*
X130259875Y-76217731D02*
X130259875Y-76122493D01*
X130259875Y-76122493D02*
X130212256Y-75979636D01*
X130212256Y-75979636D02*
X130117017Y-75884398D01*
X130117017Y-75884398D02*
X130021779Y-75836779D01*
X130021779Y-75836779D02*
X129831303Y-75789160D01*
X129831303Y-75789160D02*
X129688446Y-75789160D01*
X129688446Y-75789160D02*
X129497970Y-75836779D01*
X129497970Y-75836779D02*
X129402732Y-75884398D01*
X129402732Y-75884398D02*
X129307494Y-75979636D01*
X129307494Y-75979636D02*
X129259875Y-76122493D01*
X129259875Y-76122493D02*
X129259875Y-76217731D01*
X129259875Y-76217731D02*
X129307494Y-76360588D01*
X129307494Y-76360588D02*
X129355113Y-76408207D01*
X129974160Y-76789160D02*
X129974160Y-77265350D01*
X130259875Y-76693922D02*
X129259875Y-77027255D01*
X129259875Y-77027255D02*
X130259875Y-77360588D01*
X130259875Y-77693922D02*
X129259875Y-77693922D01*
X129259875Y-77693922D02*
X130259875Y-78265350D01*
X130259875Y-78265350D02*
X129259875Y-78265350D01*
X130355113Y-78503446D02*
X130355113Y-79265350D01*
X130259875Y-80074874D02*
X129783684Y-79741541D01*
X130259875Y-79503446D02*
X129259875Y-79503446D01*
X129259875Y-79503446D02*
X129259875Y-79884398D01*
X129259875Y-79884398D02*
X129307494Y-79979636D01*
X129307494Y-79979636D02*
X129355113Y-80027255D01*
X129355113Y-80027255D02*
X129450351Y-80074874D01*
X129450351Y-80074874D02*
X129593208Y-80074874D01*
X129593208Y-80074874D02*
X129688446Y-80027255D01*
X129688446Y-80027255D02*
X129736065Y-79979636D01*
X129736065Y-79979636D02*
X129783684Y-79884398D01*
X129783684Y-79884398D02*
X129783684Y-79503446D01*
X129259875Y-80408208D02*
X130259875Y-81074874D01*
X129259875Y-81074874D02*
X130259875Y-80408208D01*
X131774580Y-76408207D02*
X131822200Y-76360588D01*
X131822200Y-76360588D02*
X131869819Y-76217731D01*
X131869819Y-76217731D02*
X131869819Y-76122493D01*
X131869819Y-76122493D02*
X131822200Y-75979636D01*
X131822200Y-75979636D02*
X131726961Y-75884398D01*
X131726961Y-75884398D02*
X131631723Y-75836779D01*
X131631723Y-75836779D02*
X131441247Y-75789160D01*
X131441247Y-75789160D02*
X131298390Y-75789160D01*
X131298390Y-75789160D02*
X131107914Y-75836779D01*
X131107914Y-75836779D02*
X131012676Y-75884398D01*
X131012676Y-75884398D02*
X130917438Y-75979636D01*
X130917438Y-75979636D02*
X130869819Y-76122493D01*
X130869819Y-76122493D02*
X130869819Y-76217731D01*
X130869819Y-76217731D02*
X130917438Y-76360588D01*
X130917438Y-76360588D02*
X130965057Y-76408207D01*
X131584104Y-76789160D02*
X131584104Y-77265350D01*
X131869819Y-76693922D02*
X130869819Y-77027255D01*
X130869819Y-77027255D02*
X131869819Y-77360588D01*
X131869819Y-77693922D02*
X130869819Y-77693922D01*
X130869819Y-77693922D02*
X131869819Y-78265350D01*
X131869819Y-78265350D02*
X130869819Y-78265350D01*
X131965057Y-78503446D02*
X131965057Y-79265350D01*
X130869819Y-79360589D02*
X130869819Y-79932017D01*
X131869819Y-79646303D02*
X130869819Y-79646303D01*
X130869819Y-80170113D02*
X131869819Y-80836779D01*
X130869819Y-80836779D02*
X131869819Y-80170113D01*
X164008458Y-95484048D02*
X163508458Y-96984048D01*
X163508458Y-96984048D02*
X163008458Y-95484048D01*
X161651316Y-96841191D02*
X161722744Y-96912620D01*
X161722744Y-96912620D02*
X161937030Y-96984048D01*
X161937030Y-96984048D02*
X162079887Y-96984048D01*
X162079887Y-96984048D02*
X162294173Y-96912620D01*
X162294173Y-96912620D02*
X162437030Y-96769762D01*
X162437030Y-96769762D02*
X162508459Y-96626905D01*
X162508459Y-96626905D02*
X162579887Y-96341191D01*
X162579887Y-96341191D02*
X162579887Y-96126905D01*
X162579887Y-96126905D02*
X162508459Y-95841191D01*
X162508459Y-95841191D02*
X162437030Y-95698334D01*
X162437030Y-95698334D02*
X162294173Y-95555477D01*
X162294173Y-95555477D02*
X162079887Y-95484048D01*
X162079887Y-95484048D02*
X161937030Y-95484048D01*
X161937030Y-95484048D02*
X161722744Y-95555477D01*
X161722744Y-95555477D02*
X161651316Y-95626905D01*
X160151316Y-96841191D02*
X160222744Y-96912620D01*
X160222744Y-96912620D02*
X160437030Y-96984048D01*
X160437030Y-96984048D02*
X160579887Y-96984048D01*
X160579887Y-96984048D02*
X160794173Y-96912620D01*
X160794173Y-96912620D02*
X160937030Y-96769762D01*
X160937030Y-96769762D02*
X161008459Y-96626905D01*
X161008459Y-96626905D02*
X161079887Y-96341191D01*
X161079887Y-96341191D02*
X161079887Y-96126905D01*
X161079887Y-96126905D02*
X161008459Y-95841191D01*
X161008459Y-95841191D02*
X160937030Y-95698334D01*
X160937030Y-95698334D02*
X160794173Y-95555477D01*
X160794173Y-95555477D02*
X160579887Y-95484048D01*
X160579887Y-95484048D02*
X160437030Y-95484048D01*
X160437030Y-95484048D02*
X160222744Y-95555477D01*
X160222744Y-95555477D02*
X160151316Y-95626905D01*
X163794173Y-99398964D02*
X163794173Y-97898964D01*
X163794173Y-97898964D02*
X163437030Y-97898964D01*
X163437030Y-97898964D02*
X163222744Y-97970393D01*
X163222744Y-97970393D02*
X163079887Y-98113250D01*
X163079887Y-98113250D02*
X163008458Y-98256107D01*
X163008458Y-98256107D02*
X162937030Y-98541821D01*
X162937030Y-98541821D02*
X162937030Y-98756107D01*
X162937030Y-98756107D02*
X163008458Y-99041821D01*
X163008458Y-99041821D02*
X163079887Y-99184678D01*
X163079887Y-99184678D02*
X163222744Y-99327536D01*
X163222744Y-99327536D02*
X163437030Y-99398964D01*
X163437030Y-99398964D02*
X163794173Y-99398964D01*
X161437030Y-99256107D02*
X161508458Y-99327536D01*
X161508458Y-99327536D02*
X161722744Y-99398964D01*
X161722744Y-99398964D02*
X161865601Y-99398964D01*
X161865601Y-99398964D02*
X162079887Y-99327536D01*
X162079887Y-99327536D02*
X162222744Y-99184678D01*
X162222744Y-99184678D02*
X162294173Y-99041821D01*
X162294173Y-99041821D02*
X162365601Y-98756107D01*
X162365601Y-98756107D02*
X162365601Y-98541821D01*
X162365601Y-98541821D02*
X162294173Y-98256107D01*
X162294173Y-98256107D02*
X162222744Y-98113250D01*
X162222744Y-98113250D02*
X162079887Y-97970393D01*
X162079887Y-97970393D02*
X161865601Y-97898964D01*
X161865601Y-97898964D02*
X161722744Y-97898964D01*
X161722744Y-97898964D02*
X161508458Y-97970393D01*
X161508458Y-97970393D02*
X161437030Y-98041821D01*
X160079887Y-99398964D02*
X160794173Y-99398964D01*
X160794173Y-99398964D02*
X160794173Y-97898964D01*
X159579887Y-99398964D02*
X159579887Y-97898964D01*
X158722744Y-99398964D02*
X159365601Y-98541821D01*
X158722744Y-97898964D02*
X159579887Y-98756107D01*
X163008458Y-100385309D02*
X163151316Y-100313880D01*
X163151316Y-100313880D02*
X163365601Y-100313880D01*
X163365601Y-100313880D02*
X163579887Y-100385309D01*
X163579887Y-100385309D02*
X163722744Y-100528166D01*
X163722744Y-100528166D02*
X163794173Y-100671023D01*
X163794173Y-100671023D02*
X163865601Y-100956737D01*
X163865601Y-100956737D02*
X163865601Y-101171023D01*
X163865601Y-101171023D02*
X163794173Y-101456737D01*
X163794173Y-101456737D02*
X163722744Y-101599594D01*
X163722744Y-101599594D02*
X163579887Y-101742452D01*
X163579887Y-101742452D02*
X163365601Y-101813880D01*
X163365601Y-101813880D02*
X163222744Y-101813880D01*
X163222744Y-101813880D02*
X163008458Y-101742452D01*
X163008458Y-101742452D02*
X162937030Y-101671023D01*
X162937030Y-101671023D02*
X162937030Y-101171023D01*
X162937030Y-101171023D02*
X163222744Y-101171023D01*
X162294173Y-101813880D02*
X162294173Y-100313880D01*
X162294173Y-100313880D02*
X161437030Y-101813880D01*
X161437030Y-101813880D02*
X161437030Y-100313880D01*
X160722744Y-101813880D02*
X160722744Y-100313880D01*
X160722744Y-100313880D02*
X160365601Y-100313880D01*
X160365601Y-100313880D02*
X160151315Y-100385309D01*
X160151315Y-100385309D02*
X160008458Y-100528166D01*
X160008458Y-100528166D02*
X159937029Y-100671023D01*
X159937029Y-100671023D02*
X159865601Y-100956737D01*
X159865601Y-100956737D02*
X159865601Y-101171023D01*
X159865601Y-101171023D02*
X159937029Y-101456737D01*
X159937029Y-101456737D02*
X160008458Y-101599594D01*
X160008458Y-101599594D02*
X160151315Y-101742452D01*
X160151315Y-101742452D02*
X160365601Y-101813880D01*
X160365601Y-101813880D02*
X160722744Y-101813880D01*
X163794173Y-104228796D02*
X163794173Y-102728796D01*
X163794173Y-102728796D02*
X163437030Y-102728796D01*
X163437030Y-102728796D02*
X163222744Y-102800225D01*
X163222744Y-102800225D02*
X163079887Y-102943082D01*
X163079887Y-102943082D02*
X163008458Y-103085939D01*
X163008458Y-103085939D02*
X162937030Y-103371653D01*
X162937030Y-103371653D02*
X162937030Y-103585939D01*
X162937030Y-103585939D02*
X163008458Y-103871653D01*
X163008458Y-103871653D02*
X163079887Y-104014510D01*
X163079887Y-104014510D02*
X163222744Y-104157368D01*
X163222744Y-104157368D02*
X163437030Y-104228796D01*
X163437030Y-104228796D02*
X163794173Y-104228796D01*
X162294173Y-104228796D02*
X162294173Y-102728796D01*
X161294172Y-102728796D02*
X161008458Y-102728796D01*
X161008458Y-102728796D02*
X160865601Y-102800225D01*
X160865601Y-102800225D02*
X160722744Y-102943082D01*
X160722744Y-102943082D02*
X160651315Y-103228796D01*
X160651315Y-103228796D02*
X160651315Y-103728796D01*
X160651315Y-103728796D02*
X160722744Y-104014510D01*
X160722744Y-104014510D02*
X160865601Y-104157368D01*
X160865601Y-104157368D02*
X161008458Y-104228796D01*
X161008458Y-104228796D02*
X161294172Y-104228796D01*
X161294172Y-104228796D02*
X161437030Y-104157368D01*
X161437030Y-104157368D02*
X161579887Y-104014510D01*
X161579887Y-104014510D02*
X161651315Y-103728796D01*
X161651315Y-103728796D02*
X161651315Y-103228796D01*
X161651315Y-103228796D02*
X161579887Y-102943082D01*
X161579887Y-102943082D02*
X161437030Y-102800225D01*
X161437030Y-102800225D02*
X161294172Y-102728796D01*
X162937030Y-106643712D02*
X163437030Y-105929426D01*
X163794173Y-106643712D02*
X163794173Y-105143712D01*
X163794173Y-105143712D02*
X163222744Y-105143712D01*
X163222744Y-105143712D02*
X163079887Y-105215141D01*
X163079887Y-105215141D02*
X163008458Y-105286569D01*
X163008458Y-105286569D02*
X162937030Y-105429426D01*
X162937030Y-105429426D02*
X162937030Y-105643712D01*
X162937030Y-105643712D02*
X163008458Y-105786569D01*
X163008458Y-105786569D02*
X163079887Y-105857998D01*
X163079887Y-105857998D02*
X163222744Y-105929426D01*
X163222744Y-105929426D02*
X163794173Y-105929426D01*
X162365601Y-106572284D02*
X162151316Y-106643712D01*
X162151316Y-106643712D02*
X161794173Y-106643712D01*
X161794173Y-106643712D02*
X161651316Y-106572284D01*
X161651316Y-106572284D02*
X161579887Y-106500855D01*
X161579887Y-106500855D02*
X161508458Y-106357998D01*
X161508458Y-106357998D02*
X161508458Y-106215141D01*
X161508458Y-106215141D02*
X161579887Y-106072284D01*
X161579887Y-106072284D02*
X161651316Y-106000855D01*
X161651316Y-106000855D02*
X161794173Y-105929426D01*
X161794173Y-105929426D02*
X162079887Y-105857998D01*
X162079887Y-105857998D02*
X162222744Y-105786569D01*
X162222744Y-105786569D02*
X162294173Y-105715141D01*
X162294173Y-105715141D02*
X162365601Y-105572284D01*
X162365601Y-105572284D02*
X162365601Y-105429426D01*
X162365601Y-105429426D02*
X162294173Y-105286569D01*
X162294173Y-105286569D02*
X162222744Y-105215141D01*
X162222744Y-105215141D02*
X162079887Y-105143712D01*
X162079887Y-105143712D02*
X161722744Y-105143712D01*
X161722744Y-105143712D02*
X161508458Y-105215141D01*
X161079887Y-105143712D02*
X160222745Y-105143712D01*
X160651316Y-106643712D02*
X160651316Y-105143712D01*
X163865601Y-108987200D02*
X163651316Y-109058628D01*
X163651316Y-109058628D02*
X163294173Y-109058628D01*
X163294173Y-109058628D02*
X163151316Y-108987200D01*
X163151316Y-108987200D02*
X163079887Y-108915771D01*
X163079887Y-108915771D02*
X163008458Y-108772914D01*
X163008458Y-108772914D02*
X163008458Y-108630057D01*
X163008458Y-108630057D02*
X163079887Y-108487200D01*
X163079887Y-108487200D02*
X163151316Y-108415771D01*
X163151316Y-108415771D02*
X163294173Y-108344342D01*
X163294173Y-108344342D02*
X163579887Y-108272914D01*
X163579887Y-108272914D02*
X163722744Y-108201485D01*
X163722744Y-108201485D02*
X163794173Y-108130057D01*
X163794173Y-108130057D02*
X163865601Y-107987200D01*
X163865601Y-107987200D02*
X163865601Y-107844342D01*
X163865601Y-107844342D02*
X163794173Y-107701485D01*
X163794173Y-107701485D02*
X163722744Y-107630057D01*
X163722744Y-107630057D02*
X163579887Y-107558628D01*
X163579887Y-107558628D02*
X163222744Y-107558628D01*
X163222744Y-107558628D02*
X163008458Y-107630057D01*
X162508459Y-107558628D02*
X162151316Y-109058628D01*
X162151316Y-109058628D02*
X161865602Y-107987200D01*
X161865602Y-107987200D02*
X161579887Y-109058628D01*
X161579887Y-109058628D02*
X161222745Y-107558628D01*
X160365601Y-107558628D02*
X160079887Y-107558628D01*
X160079887Y-107558628D02*
X159937030Y-107630057D01*
X159937030Y-107630057D02*
X159794173Y-107772914D01*
X159794173Y-107772914D02*
X159722744Y-108058628D01*
X159722744Y-108058628D02*
X159722744Y-108558628D01*
X159722744Y-108558628D02*
X159794173Y-108844342D01*
X159794173Y-108844342D02*
X159937030Y-108987200D01*
X159937030Y-108987200D02*
X160079887Y-109058628D01*
X160079887Y-109058628D02*
X160365601Y-109058628D01*
X160365601Y-109058628D02*
X160508459Y-108987200D01*
X160508459Y-108987200D02*
X160651316Y-108844342D01*
X160651316Y-108844342D02*
X160722744Y-108558628D01*
X160722744Y-108558628D02*
X160722744Y-108058628D01*
X160722744Y-108058628D02*
X160651316Y-107772914D01*
X160651316Y-107772914D02*
X160508459Y-107630057D01*
X160508459Y-107630057D02*
X160365601Y-107558628D01*
X115740124Y-113591792D02*
X116216315Y-113925125D01*
X115740124Y-114163220D02*
X116740124Y-114163220D01*
X116740124Y-114163220D02*
X116740124Y-113782268D01*
X116740124Y-113782268D02*
X116692505Y-113687030D01*
X116692505Y-113687030D02*
X116644886Y-113639411D01*
X116644886Y-113639411D02*
X116549648Y-113591792D01*
X116549648Y-113591792D02*
X116406791Y-113591792D01*
X116406791Y-113591792D02*
X116311553Y-113639411D01*
X116311553Y-113639411D02*
X116263934Y-113687030D01*
X116263934Y-113687030D02*
X116216315Y-113782268D01*
X116216315Y-113782268D02*
X116216315Y-114163220D01*
X116740124Y-113258458D02*
X115740124Y-112591792D01*
X116740124Y-112591792D02*
X115740124Y-113258458D01*
X116644886Y-112258458D02*
X116692505Y-112210839D01*
X116692505Y-112210839D02*
X116740124Y-112115601D01*
X116740124Y-112115601D02*
X116740124Y-111877506D01*
X116740124Y-111877506D02*
X116692505Y-111782268D01*
X116692505Y-111782268D02*
X116644886Y-111734649D01*
X116644886Y-111734649D02*
X116549648Y-111687030D01*
X116549648Y-111687030D02*
X116454410Y-111687030D01*
X116454410Y-111687030D02*
X116311553Y-111734649D01*
X116311553Y-111734649D02*
X115740124Y-112306077D01*
X115740124Y-112306077D02*
X115740124Y-111687030D01*
X115130180Y-114306077D02*
X115130180Y-113734649D01*
X114130180Y-114020363D02*
X115130180Y-114020363D01*
X115130180Y-113496553D02*
X114130180Y-112829887D01*
X115130180Y-112829887D02*
X114130180Y-113496553D01*
X115034942Y-112496553D02*
X115082561Y-112448934D01*
X115082561Y-112448934D02*
X115130180Y-112353696D01*
X115130180Y-112353696D02*
X115130180Y-112115601D01*
X115130180Y-112115601D02*
X115082561Y-112020363D01*
X115082561Y-112020363D02*
X115034942Y-111972744D01*
X115034942Y-111972744D02*
X114939704Y-111925125D01*
X114939704Y-111925125D02*
X114844466Y-111925125D01*
X114844466Y-111925125D02*
X114701609Y-111972744D01*
X114701609Y-111972744D02*
X114130180Y-112544172D01*
X114130180Y-112544172D02*
X114130180Y-111925125D01*
X131233333Y-107454819D02*
X131233333Y-108169104D01*
X131233333Y-108169104D02*
X131280952Y-108311961D01*
X131280952Y-108311961D02*
X131376190Y-108407200D01*
X131376190Y-108407200D02*
X131519047Y-108454819D01*
X131519047Y-108454819D02*
X131614285Y-108454819D01*
X130757142Y-108454819D02*
X130757142Y-107454819D01*
X130757142Y-107454819D02*
X130376190Y-107454819D01*
X130376190Y-107454819D02*
X130280952Y-107502438D01*
X130280952Y-107502438D02*
X130233333Y-107550057D01*
X130233333Y-107550057D02*
X130185714Y-107645295D01*
X130185714Y-107645295D02*
X130185714Y-107788152D01*
X130185714Y-107788152D02*
X130233333Y-107883390D01*
X130233333Y-107883390D02*
X130280952Y-107931009D01*
X130280952Y-107931009D02*
X130376190Y-107978628D01*
X130376190Y-107978628D02*
X130757142Y-107978628D01*
X129804761Y-107550057D02*
X129757142Y-107502438D01*
X129757142Y-107502438D02*
X129661904Y-107454819D01*
X129661904Y-107454819D02*
X129423809Y-107454819D01*
X129423809Y-107454819D02*
X129328571Y-107502438D01*
X129328571Y-107502438D02*
X129280952Y-107550057D01*
X129280952Y-107550057D02*
X129233333Y-107645295D01*
X129233333Y-107645295D02*
X129233333Y-107740533D01*
X129233333Y-107740533D02*
X129280952Y-107883390D01*
X129280952Y-107883390D02*
X129852380Y-108454819D01*
X129852380Y-108454819D02*
X129233333Y-108454819D01*
X131033333Y-104454819D02*
X131033333Y-105169104D01*
X131033333Y-105169104D02*
X131080952Y-105311961D01*
X131080952Y-105311961D02*
X131176190Y-105407200D01*
X131176190Y-105407200D02*
X131319047Y-105454819D01*
X131319047Y-105454819D02*
X131414285Y-105454819D01*
X130557142Y-105454819D02*
X130557142Y-104454819D01*
X130557142Y-104454819D02*
X130176190Y-104454819D01*
X130176190Y-104454819D02*
X130080952Y-104502438D01*
X130080952Y-104502438D02*
X130033333Y-104550057D01*
X130033333Y-104550057D02*
X129985714Y-104645295D01*
X129985714Y-104645295D02*
X129985714Y-104788152D01*
X129985714Y-104788152D02*
X130033333Y-104883390D01*
X130033333Y-104883390D02*
X130080952Y-104931009D01*
X130080952Y-104931009D02*
X130176190Y-104978628D01*
X130176190Y-104978628D02*
X130557142Y-104978628D01*
X129033333Y-105454819D02*
X129604761Y-105454819D01*
X129319047Y-105454819D02*
X129319047Y-104454819D01*
X129319047Y-104454819D02*
X129414285Y-104597676D01*
X129414285Y-104597676D02*
X129509523Y-104692914D01*
X129509523Y-104692914D02*
X129604761Y-104740533D01*
D11*
X125800000Y-107000000D02*
X128600000Y-107000000D01*
X125800000Y-109000000D02*
X125800000Y-107000000D01*
X128600000Y-107000000D02*
X128600000Y-109000000D01*
X128600000Y-109000000D02*
X125800000Y-109000000D01*
X125800000Y-104000000D02*
X128600000Y-104000000D01*
X125800000Y-106000000D02*
X125800000Y-104000000D01*
X128600000Y-104000000D02*
X128600000Y-106000000D01*
X128600000Y-106000000D02*
X125800000Y-106000000D01*
%LPC*%
D12*
X165000000Y-116000000D03*
X165000000Y-74000000D03*
X104000000Y-74000000D03*
X104000000Y-116000000D03*
D13*
X167500000Y-89300000D03*
X167500000Y-82700000D03*
G36*
G01*
X109850000Y-74900000D02*
X108150000Y-74900000D01*
G75*
G02*
X108100000Y-74850000I0J50000D01*
G01*
X108100000Y-73150000D01*
G75*
G02*
X108150000Y-73100000I50000J0D01*
G01*
X109850000Y-73100000D01*
G75*
G02*
X109900000Y-73150000I0J-50000D01*
G01*
X109900000Y-74850000D01*
G75*
G02*
X109850000Y-74900000I-50000J0D01*
G01*
G37*
D14*
X111540000Y-74000000D03*
X114080000Y-74000000D03*
X116620000Y-74000000D03*
X119160000Y-74000000D03*
X121700000Y-74000000D03*
X124240000Y-74000000D03*
X126780000Y-74000000D03*
X129320000Y-74000000D03*
X131860000Y-74000000D03*
X134400000Y-74000000D03*
X136940000Y-74000000D03*
X139480000Y-74000000D03*
X142020000Y-74000000D03*
X144560000Y-74000000D03*
X147100000Y-74000000D03*
G36*
G01*
X109850000Y-116900000D02*
X108150000Y-116900000D01*
G75*
G02*
X108100000Y-116850000I0J50000D01*
G01*
X108100000Y-115150000D01*
G75*
G02*
X108150000Y-115100000I50000J0D01*
G01*
X109850000Y-115100000D01*
G75*
G02*
X109900000Y-115150000I0J-50000D01*
G01*
X109900000Y-116850000D01*
G75*
G02*
X109850000Y-116900000I-50000J0D01*
G01*
G37*
X111540000Y-116000000D03*
X114080000Y-116000000D03*
X116620000Y-116000000D03*
X119160000Y-116000000D03*
X121700000Y-116000000D03*
X124240000Y-116000000D03*
X126780000Y-116000000D03*
X129320000Y-116000000D03*
X131860000Y-116000000D03*
X134400000Y-116000000D03*
X136940000Y-116000000D03*
X139480000Y-116000000D03*
X142020000Y-116000000D03*
X144560000Y-116000000D03*
X147100000Y-116000000D03*
G36*
G01*
X165600000Y-96770000D02*
X165600000Y-95070000D01*
G75*
G02*
X165650000Y-95020000I50000J0D01*
G01*
X167350000Y-95020000D01*
G75*
G02*
X167400000Y-95070000I0J-50000D01*
G01*
X167400000Y-96770000D01*
G75*
G02*
X167350000Y-96820000I-50000J0D01*
G01*
X165650000Y-96820000D01*
G75*
G02*
X165600000Y-96770000I0J50000D01*
G01*
G37*
X166500000Y-98460000D03*
X166500000Y-101000000D03*
X166500000Y-103540000D03*
X166500000Y-106080000D03*
X166500000Y-108620000D03*
G36*
G01*
X111230000Y-107850000D02*
X112930000Y-107850000D01*
G75*
G02*
X112980000Y-107900000I0J-50000D01*
G01*
X112980000Y-109600000D01*
G75*
G02*
X112930000Y-109650000I-50000J0D01*
G01*
X111230000Y-109650000D01*
G75*
G02*
X111180000Y-109600000I0J50000D01*
G01*
X111180000Y-107900000D01*
G75*
G02*
X111230000Y-107850000I50000J0D01*
G01*
G37*
X112080000Y-111290000D03*
X109540000Y-108750000D03*
X109540000Y-111290000D03*
X107000000Y-108750000D03*
X107000000Y-111290000D03*
G36*
G01*
X153825000Y-77175000D02*
X152125000Y-77175000D01*
G75*
G02*
X152075000Y-77125000I0J50000D01*
G01*
X152075000Y-75425000D01*
G75*
G02*
X152125000Y-75375000I50000J0D01*
G01*
X153825000Y-75375000D01*
G75*
G02*
X153875000Y-75425000I0J-50000D01*
G01*
X153875000Y-77125000D01*
G75*
G02*
X153825000Y-77175000I-50000J0D01*
G01*
G37*
X152975000Y-73735000D03*
X155515000Y-76275000D03*
X155515000Y-73735000D03*
X158055000Y-76275000D03*
X158055000Y-73735000D03*
G36*
X127010355Y-107214645D02*
G01*
X127016603Y-107222265D01*
X127516603Y-107972265D01*
X127524029Y-108009806D01*
X127516603Y-108027735D01*
X127016603Y-108777735D01*
X126984806Y-108799029D01*
X126975000Y-108800000D01*
X125975000Y-108800000D01*
X125939645Y-108785355D01*
X125925000Y-108750000D01*
X125925000Y-107250000D01*
X125939645Y-107214645D01*
X125975000Y-107200000D01*
X126975000Y-107200000D01*
X127010355Y-107214645D01*
G37*
G36*
X128460355Y-107214645D02*
G01*
X128475000Y-107250000D01*
X128475000Y-108750000D01*
X128460355Y-108785355D01*
X128425000Y-108800000D01*
X127275000Y-108800000D01*
X127239645Y-108785355D01*
X127225000Y-108750000D01*
X127233397Y-108722265D01*
X127714907Y-108000000D01*
X127233397Y-107277735D01*
X127225971Y-107240194D01*
X127247265Y-107208397D01*
X127275000Y-107200000D01*
X128425000Y-107200000D01*
X128460355Y-107214645D01*
G37*
G36*
X127010355Y-104214645D02*
G01*
X127016603Y-104222265D01*
X127516603Y-104972265D01*
X127524029Y-105009806D01*
X127516603Y-105027735D01*
X127016603Y-105777735D01*
X126984806Y-105799029D01*
X126975000Y-105800000D01*
X125975000Y-105800000D01*
X125939645Y-105785355D01*
X125925000Y-105750000D01*
X125925000Y-104250000D01*
X125939645Y-104214645D01*
X125975000Y-104200000D01*
X126975000Y-104200000D01*
X127010355Y-104214645D01*
G37*
G36*
X128460355Y-104214645D02*
G01*
X128475000Y-104250000D01*
X128475000Y-105750000D01*
X128460355Y-105785355D01*
X128425000Y-105800000D01*
X127275000Y-105800000D01*
X127239645Y-105785355D01*
X127225000Y-105750000D01*
X127233397Y-105722265D01*
X127714907Y-105000000D01*
X127233397Y-104277735D01*
X127225971Y-104240194D01*
X127247265Y-104208397D01*
X127275000Y-104200000D01*
X128425000Y-104200000D01*
X128460355Y-104214645D01*
G37*
%LPD*%
M02*
