M48
; DRILL file {KiCad 8.0.3+1} date 2024-06-30T17:40:31+0000
; FORMAT={-:-/ absolute / inch / decimal}
; #@! TF.CreationDate,2024-06-30T17:40:31+00:00
; #@! TF.GenerationSoftware,Kicad,Pcbnew,8.0.3+1
; #@! TF.FileFunction,Plated,1,4,PTH
FMAT,2
INCH
; #@! TA.AperFunction,Plated,PTH,ViaDrill
T1C0.0157
; #@! TA.AperFunction,Plated,PTH,ComponentDrill
T2C0.0256
; #@! TA.AperFunction,Plated,PTH,ComponentDrill
T3C0.0394
; #@! TA.AperFunction,Plated,PTH,ComponentDrill
T4C0.0433
; #@! TA.AperFunction,Plated,PTH,ComponentDrill
T5C0.0472
; #@! TA.AperFunction,Plated,PTH,ComponentDrill
T6C0.0551
%
G90
G05
T1
X4.108Y-4.0678
X4.508Y-3.5878
X4.5205Y-3.0674
X4.5215Y-3.3034
X4.6041Y-3.4717
X4.7382Y-3.6076
X4.7555Y-3.2403
X4.818Y-3.3478
X4.848Y-3.1978
X4.938Y-3.3379
X4.9755Y-3.1028
X4.978Y-3.3078
X5.0384Y-3.2278
X5.0384Y-3.2678
X5.0394Y-3.9407
X5.063Y-3.9078
X5.068Y-3.1878
X5.0785Y-3.8666
X5.098Y-3.1578
X5.098Y-3.6778
X5.128Y-3.7078
X5.1353Y-3.0934
X5.148Y-3.9778
X5.208Y-3.7678
X5.208Y-3.8078
X5.238Y-3.4178
X5.248Y-3.7678
X5.248Y-3.8078
X5.428Y-3.5421
X5.428Y-3.9178
X5.448Y-3.9678
X5.4638Y-3.5135
X5.468Y-4.0178
X5.488Y-4.0778
X5.508Y-3.5078
X5.5118Y-4.3701
X5.528Y-3.3178
X5.548Y-3.5078
X5.6017Y-3.1059
X5.712Y-4.1339
X5.752Y-4.1339
X5.8268Y-3.8565
X5.978Y-3.5678
X5.978Y-3.6178
X6.073Y-3.8328
X6.1355Y-3.6228
X6.1955Y-3.7728
X6.3805Y-3.3378
T2
X6.2905Y-3.1978
X6.2905Y-3.2478
X6.3405Y-3.1978
X6.3405Y-3.2478
X6.3905Y-3.1978
X6.3905Y-3.2478
X6.4405Y-3.1978
X6.4405Y-3.2478
X6.4905Y-3.1978
X6.4905Y-3.2478
T3
X4.2913Y-2.9134
X4.2913Y-4.5669
X4.3913Y-2.9134
X4.3913Y-4.5669
X4.4913Y-2.9134
X4.4913Y-4.5669
X4.5913Y-2.9134
X4.5913Y-4.5669
X4.6913Y-2.9134
X4.6913Y-4.5669
X4.7913Y-2.9134
X4.7913Y-4.5669
X4.8913Y-2.9134
X4.8913Y-4.5669
X4.9913Y-2.9134
X4.9913Y-4.5669
X5.0913Y-2.9134
X5.0913Y-4.5669
X5.1913Y-2.9134
X5.1913Y-4.5669
X5.2913Y-2.9134
X5.2913Y-4.5669
X5.3913Y-2.9134
X5.3913Y-4.5669
X5.4913Y-2.9134
X5.4913Y-4.5669
X5.5913Y-2.9134
X5.5913Y-4.5669
X5.6913Y-2.9134
X5.6913Y-4.5669
X5.7913Y-2.9134
X5.7913Y-4.5669
X6.278Y-3.4378
X6.278Y-3.5378
X6.278Y-3.6378
X6.278Y-3.7378
X6.278Y-3.8378
X6.278Y-3.9378
X6.278Y-4.0378
X6.278Y-4.1378
X6.278Y-4.2378
X6.278Y-4.3378
X6.378Y-3.4378
X6.378Y-3.5378
X6.378Y-3.6378
X6.378Y-3.7378
X6.378Y-3.8378
X6.378Y-3.9378
X6.378Y-4.0378
X6.378Y-4.1378
X6.378Y-4.2378
X6.378Y-4.3378
T4
X5.9449Y-4.311
X5.9449Y-4.5669
X6.122Y-4.311
X6.122Y-4.5669
T5
X6.0004Y-2.8323
X6.3055Y-2.8323
T6
X6.0063Y-2.9819
X6.2996Y-2.9819
M30
