G04 #@! TF.GenerationSoftware,KiCad,Pcbnew,8.0.3+1*
G04 #@! TF.CreationDate,2024-06-30T17:40:31+00:00*
G04 #@! TF.ProjectId,STM32103_Devel,53544d33-3231-4303-935f-446576656c2e,0.0.2*
G04 #@! TF.SameCoordinates,Original*
G04 #@! TF.FileFunction,Soldermask,Top*
G04 #@! TF.FilePolarity,Negative*
%FSLAX46Y46*%
G04 Gerber Fmt 4.6, Leading zero omitted, Abs format (unit mm)*
G04 Created by KiCad (PCBNEW 8.0.3+1) date 2024-06-30 17:40:31*
%MOMM*%
%LPD*%
G01*
G04 APERTURE LIST*
%ADD10C,2.800000*%
%ADD11C,2.100000*%
%ADD12C,0.900000*%
%ADD13C,1.900000*%
%ADD14O,1.800000X1.800000*%
%ADD15O,1.100000X1.100000*%
G04 APERTURE END LIST*
D10*
X165000000Y-116000000D03*
X165000000Y-74000000D03*
X104000000Y-74000000D03*
X104000000Y-116000000D03*
G36*
G01*
X110800000Y-91100000D02*
X113200000Y-91100000D01*
G75*
G02*
X113250000Y-91150000I0J-50000D01*
G01*
X113250000Y-93150000D01*
G75*
G02*
X113200000Y-93200000I-50000J0D01*
G01*
X110800000Y-93200000D01*
G75*
G02*
X110750000Y-93150000I0J50000D01*
G01*
X110750000Y-91150000D01*
G75*
G02*
X110800000Y-91100000I50000J0D01*
G01*
G37*
G36*
G01*
X110800000Y-94800000D02*
X113200000Y-94800000D01*
G75*
G02*
X113250000Y-94850000I0J-50000D01*
G01*
X113250000Y-96850000D01*
G75*
G02*
X113200000Y-96900000I-50000J0D01*
G01*
X110800000Y-96900000D01*
G75*
G02*
X110750000Y-96850000I0J50000D01*
G01*
X110750000Y-94850000D01*
G75*
G02*
X110800000Y-94800000I50000J0D01*
G01*
G37*
G36*
G01*
X121157000Y-79927250D02*
X121157000Y-78964750D01*
G75*
G02*
X121425750Y-78696000I268750J0D01*
G01*
X121963250Y-78696000D01*
G75*
G02*
X122232000Y-78964750I0J-268750D01*
G01*
X122232000Y-79927250D01*
G75*
G02*
X121963250Y-80196000I-268750J0D01*
G01*
X121425750Y-80196000D01*
G75*
G02*
X121157000Y-79927250I0J268750D01*
G01*
G37*
G36*
G01*
X123032000Y-79927250D02*
X123032000Y-78964750D01*
G75*
G02*
X123300750Y-78696000I268750J0D01*
G01*
X123838250Y-78696000D01*
G75*
G02*
X124107000Y-78964750I0J-268750D01*
G01*
X124107000Y-79927250D01*
G75*
G02*
X123838250Y-80196000I-268750J0D01*
G01*
X123300750Y-80196000D01*
G75*
G02*
X123032000Y-79927250I0J268750D01*
G01*
G37*
G36*
G01*
X111100000Y-88700000D02*
X112900000Y-88700000D01*
G75*
G02*
X112950000Y-88750000I0J-50000D01*
G01*
X112950000Y-89750000D01*
G75*
G02*
X112900000Y-89800000I-50000J0D01*
G01*
X111100000Y-89800000D01*
G75*
G02*
X111050000Y-89750000I0J50000D01*
G01*
X111050000Y-88750000D01*
G75*
G02*
X111100000Y-88700000I50000J0D01*
G01*
G37*
G36*
G01*
X111100000Y-86200000D02*
X112900000Y-86200000D01*
G75*
G02*
X112950000Y-86250000I0J-50000D01*
G01*
X112950000Y-87250000D01*
G75*
G02*
X112900000Y-87300000I-50000J0D01*
G01*
X111100000Y-87300000D01*
G75*
G02*
X111050000Y-87250000I0J50000D01*
G01*
X111050000Y-86250000D01*
G75*
G02*
X111100000Y-86200000I50000J0D01*
G01*
G37*
G36*
G01*
X146900000Y-105456482D02*
X146900000Y-104543518D01*
G75*
G02*
X147168518Y-104275000I268518J0D01*
G01*
X148131482Y-104275000D01*
G75*
G02*
X148400000Y-104543518I0J-268518D01*
G01*
X148400000Y-105456482D01*
G75*
G02*
X148131482Y-105725000I-268518J0D01*
G01*
X147168518Y-105725000D01*
G75*
G02*
X146900000Y-105456482I0J268518D01*
G01*
G37*
G36*
G01*
X149600000Y-105456482D02*
X149600000Y-104543518D01*
G75*
G02*
X149868518Y-104275000I268518J0D01*
G01*
X150831482Y-104275000D01*
G75*
G02*
X151100000Y-104543518I0J-268518D01*
G01*
X151100000Y-105456482D01*
G75*
G02*
X150831482Y-105725000I-268518J0D01*
G01*
X149868518Y-105725000D01*
G75*
G02*
X149600000Y-105456482I0J268518D01*
G01*
G37*
G36*
G01*
X115655250Y-103775500D02*
X114692750Y-103775500D01*
G75*
G02*
X114424000Y-103506750I0J268750D01*
G01*
X114424000Y-102969250D01*
G75*
G02*
X114692750Y-102700500I268750J0D01*
G01*
X115655250Y-102700500D01*
G75*
G02*
X115924000Y-102969250I0J-268750D01*
G01*
X115924000Y-103506750D01*
G75*
G02*
X115655250Y-103775500I-268750J0D01*
G01*
G37*
G36*
G01*
X115655250Y-101900500D02*
X114692750Y-101900500D01*
G75*
G02*
X114424000Y-101631750I0J268750D01*
G01*
X114424000Y-101094250D01*
G75*
G02*
X114692750Y-100825500I268750J0D01*
G01*
X115655250Y-100825500D01*
G75*
G02*
X115924000Y-101094250I0J-268750D01*
G01*
X115924000Y-101631750D01*
G75*
G02*
X115655250Y-101900500I-268750J0D01*
G01*
G37*
G36*
G01*
X108537500Y-85518750D02*
X108537500Y-86481250D01*
G75*
G02*
X108268750Y-86750000I-268750J0D01*
G01*
X107731250Y-86750000D01*
G75*
G02*
X107462500Y-86481250I0J268750D01*
G01*
X107462500Y-85518750D01*
G75*
G02*
X107731250Y-85250000I268750J0D01*
G01*
X108268750Y-85250000D01*
G75*
G02*
X108537500Y-85518750I0J-268750D01*
G01*
G37*
G36*
G01*
X106662500Y-85518750D02*
X106662500Y-86481250D01*
G75*
G02*
X106393750Y-86750000I-268750J0D01*
G01*
X105856250Y-86750000D01*
G75*
G02*
X105587500Y-86481250I0J268750D01*
G01*
X105587500Y-85518750D01*
G75*
G02*
X105856250Y-85250000I268750J0D01*
G01*
X106393750Y-85250000D01*
G75*
G02*
X106662500Y-85518750I0J-268750D01*
G01*
G37*
G36*
G01*
X117518750Y-86525000D02*
X118481250Y-86525000D01*
G75*
G02*
X118750000Y-86793750I0J-268750D01*
G01*
X118750000Y-87331250D01*
G75*
G02*
X118481250Y-87600000I-268750J0D01*
G01*
X117518750Y-87600000D01*
G75*
G02*
X117250000Y-87331250I0J268750D01*
G01*
X117250000Y-86793750D01*
G75*
G02*
X117518750Y-86525000I268750J0D01*
G01*
G37*
G36*
G01*
X117518750Y-88400000D02*
X118481250Y-88400000D01*
G75*
G02*
X118750000Y-88668750I0J-268750D01*
G01*
X118750000Y-89206250D01*
G75*
G02*
X118481250Y-89475000I-268750J0D01*
G01*
X117518750Y-89475000D01*
G75*
G02*
X117250000Y-89206250I0J268750D01*
G01*
X117250000Y-88668750D01*
G75*
G02*
X117518750Y-88400000I268750J0D01*
G01*
G37*
G36*
G01*
X141379000Y-92680750D02*
X141379000Y-93643250D01*
G75*
G02*
X141110250Y-93912000I-268750J0D01*
G01*
X140572750Y-93912000D01*
G75*
G02*
X140304000Y-93643250I0J268750D01*
G01*
X140304000Y-92680750D01*
G75*
G02*
X140572750Y-92412000I268750J0D01*
G01*
X141110250Y-92412000D01*
G75*
G02*
X141379000Y-92680750I0J-268750D01*
G01*
G37*
G36*
G01*
X139504000Y-92680750D02*
X139504000Y-93643250D01*
G75*
G02*
X139235250Y-93912000I-268750J0D01*
G01*
X138697750Y-93912000D01*
G75*
G02*
X138429000Y-93643250I0J268750D01*
G01*
X138429000Y-92680750D01*
G75*
G02*
X138697750Y-92412000I268750J0D01*
G01*
X139235250Y-92412000D01*
G75*
G02*
X139504000Y-92680750I0J-268750D01*
G01*
G37*
G36*
G01*
X133251000Y-99284750D02*
X133251000Y-100247250D01*
G75*
G02*
X132982250Y-100516000I-268750J0D01*
G01*
X132444750Y-100516000D01*
G75*
G02*
X132176000Y-100247250I0J268750D01*
G01*
X132176000Y-99284750D01*
G75*
G02*
X132444750Y-99016000I268750J0D01*
G01*
X132982250Y-99016000D01*
G75*
G02*
X133251000Y-99284750I0J-268750D01*
G01*
G37*
G36*
G01*
X131376000Y-99284750D02*
X131376000Y-100247250D01*
G75*
G02*
X131107250Y-100516000I-268750J0D01*
G01*
X130569750Y-100516000D01*
G75*
G02*
X130301000Y-100247250I0J268750D01*
G01*
X130301000Y-99284750D01*
G75*
G02*
X130569750Y-99016000I268750J0D01*
G01*
X131107250Y-99016000D01*
G75*
G02*
X131376000Y-99284750I0J-268750D01*
G01*
G37*
G36*
G01*
X106857250Y-103713000D02*
X105894750Y-103713000D01*
G75*
G02*
X105626000Y-103444250I0J268750D01*
G01*
X105626000Y-102906750D01*
G75*
G02*
X105894750Y-102638000I268750J0D01*
G01*
X106857250Y-102638000D01*
G75*
G02*
X107126000Y-102906750I0J-268750D01*
G01*
X107126000Y-103444250D01*
G75*
G02*
X106857250Y-103713000I-268750J0D01*
G01*
G37*
G36*
G01*
X106857250Y-101838000D02*
X105894750Y-101838000D01*
G75*
G02*
X105626000Y-101569250I0J268750D01*
G01*
X105626000Y-101031750D01*
G75*
G02*
X105894750Y-100763000I268750J0D01*
G01*
X106857250Y-100763000D01*
G75*
G02*
X107126000Y-101031750I0J-268750D01*
G01*
X107126000Y-101569250D01*
G75*
G02*
X106857250Y-101838000I-268750J0D01*
G01*
G37*
G36*
G01*
X153821500Y-78408750D02*
X153821500Y-79371250D01*
G75*
G02*
X153552750Y-79640000I-268750J0D01*
G01*
X153015250Y-79640000D01*
G75*
G02*
X152746500Y-79371250I0J268750D01*
G01*
X152746500Y-78408750D01*
G75*
G02*
X153015250Y-78140000I268750J0D01*
G01*
X153552750Y-78140000D01*
G75*
G02*
X153821500Y-78408750I0J-268750D01*
G01*
G37*
G36*
G01*
X151946500Y-78408750D02*
X151946500Y-79371250D01*
G75*
G02*
X151677750Y-79640000I-268750J0D01*
G01*
X151140250Y-79640000D01*
G75*
G02*
X150871500Y-79371250I0J268750D01*
G01*
X150871500Y-78408750D01*
G75*
G02*
X151140250Y-78140000I268750J0D01*
G01*
X151677750Y-78140000D01*
G75*
G02*
X151946500Y-78408750I0J-268750D01*
G01*
G37*
G36*
G01*
X143518750Y-107587500D02*
X144481250Y-107587500D01*
G75*
G02*
X144750000Y-107856250I0J-268750D01*
G01*
X144750000Y-108393750D01*
G75*
G02*
X144481250Y-108662500I-268750J0D01*
G01*
X143518750Y-108662500D01*
G75*
G02*
X143250000Y-108393750I0J268750D01*
G01*
X143250000Y-107856250D01*
G75*
G02*
X143518750Y-107587500I268750J0D01*
G01*
G37*
G36*
G01*
X143518750Y-109462500D02*
X144481250Y-109462500D01*
G75*
G02*
X144750000Y-109731250I0J-268750D01*
G01*
X144750000Y-110268750D01*
G75*
G02*
X144481250Y-110537500I-268750J0D01*
G01*
X143518750Y-110537500D01*
G75*
G02*
X143250000Y-110268750I0J268750D01*
G01*
X143250000Y-109731250D01*
G75*
G02*
X143518750Y-109462500I268750J0D01*
G01*
G37*
G36*
G01*
X141518750Y-95587500D02*
X142481250Y-95587500D01*
G75*
G02*
X142750000Y-95856250I0J-268750D01*
G01*
X142750000Y-96393750D01*
G75*
G02*
X142481250Y-96662500I-268750J0D01*
G01*
X141518750Y-96662500D01*
G75*
G02*
X141250000Y-96393750I0J268750D01*
G01*
X141250000Y-95856250D01*
G75*
G02*
X141518750Y-95587500I268750J0D01*
G01*
G37*
G36*
G01*
X141518750Y-97462500D02*
X142481250Y-97462500D01*
G75*
G02*
X142750000Y-97731250I0J-268750D01*
G01*
X142750000Y-98268750D01*
G75*
G02*
X142481250Y-98537500I-268750J0D01*
G01*
X141518750Y-98537500D01*
G75*
G02*
X141250000Y-98268750I0J268750D01*
G01*
X141250000Y-97731250D01*
G75*
G02*
X141518750Y-97462500I268750J0D01*
G01*
G37*
G36*
G01*
X142481250Y-103412500D02*
X141518750Y-103412500D01*
G75*
G02*
X141250000Y-103143750I0J268750D01*
G01*
X141250000Y-102606250D01*
G75*
G02*
X141518750Y-102337500I268750J0D01*
G01*
X142481250Y-102337500D01*
G75*
G02*
X142750000Y-102606250I0J-268750D01*
G01*
X142750000Y-103143750D01*
G75*
G02*
X142481250Y-103412500I-268750J0D01*
G01*
G37*
G36*
G01*
X142481250Y-101537500D02*
X141518750Y-101537500D01*
G75*
G02*
X141250000Y-101268750I0J268750D01*
G01*
X141250000Y-100731250D01*
G75*
G02*
X141518750Y-100462500I268750J0D01*
G01*
X142481250Y-100462500D01*
G75*
G02*
X142750000Y-100731250I0J-268750D01*
G01*
X142750000Y-101268750D01*
G75*
G02*
X142481250Y-101537500I-268750J0D01*
G01*
G37*
G36*
G01*
X120043000Y-78710750D02*
X120043000Y-79673250D01*
G75*
G02*
X119774250Y-79942000I-268750J0D01*
G01*
X119236750Y-79942000D01*
G75*
G02*
X118968000Y-79673250I0J268750D01*
G01*
X118968000Y-78710750D01*
G75*
G02*
X119236750Y-78442000I268750J0D01*
G01*
X119774250Y-78442000D01*
G75*
G02*
X120043000Y-78710750I0J-268750D01*
G01*
G37*
G36*
G01*
X118168000Y-78710750D02*
X118168000Y-79673250D01*
G75*
G02*
X117899250Y-79942000I-268750J0D01*
G01*
X117361750Y-79942000D01*
G75*
G02*
X117093000Y-79673250I0J268750D01*
G01*
X117093000Y-78710750D01*
G75*
G02*
X117361750Y-78442000I268750J0D01*
G01*
X117899250Y-78442000D01*
G75*
G02*
X118168000Y-78710750I0J-268750D01*
G01*
G37*
G36*
G01*
X149550000Y-94800000D02*
X151050000Y-94800000D01*
G75*
G02*
X151100000Y-94850000I0J-50000D01*
G01*
X151100000Y-96850000D01*
G75*
G02*
X151050000Y-96900000I-50000J0D01*
G01*
X149550000Y-96900000D01*
G75*
G02*
X149500000Y-96850000I0J50000D01*
G01*
X149500000Y-94850000D01*
G75*
G02*
X149550000Y-94800000I50000J0D01*
G01*
G37*
G36*
G01*
X147250000Y-94800000D02*
X148750000Y-94800000D01*
G75*
G02*
X148800000Y-94850000I0J-50000D01*
G01*
X148800000Y-96850000D01*
G75*
G02*
X148750000Y-96900000I-50000J0D01*
G01*
X147250000Y-96900000D01*
G75*
G02*
X147200000Y-96850000I0J50000D01*
G01*
X147200000Y-94850000D01*
G75*
G02*
X147250000Y-94800000I50000J0D01*
G01*
G37*
G36*
G01*
X146100000Y-101100000D02*
X149900000Y-101100000D01*
G75*
G02*
X149950000Y-101150000I0J-50000D01*
G01*
X149950000Y-103150000D01*
G75*
G02*
X149900000Y-103200000I-50000J0D01*
G01*
X146100000Y-103200000D01*
G75*
G02*
X146050000Y-103150000I0J50000D01*
G01*
X146050000Y-101150000D01*
G75*
G02*
X146100000Y-101100000I50000J0D01*
G01*
G37*
G36*
G01*
X144950000Y-94800000D02*
X146450000Y-94800000D01*
G75*
G02*
X146500000Y-94850000I0J-50000D01*
G01*
X146500000Y-96850000D01*
G75*
G02*
X146450000Y-96900000I-50000J0D01*
G01*
X144950000Y-96900000D01*
G75*
G02*
X144900000Y-96850000I0J50000D01*
G01*
X144900000Y-94850000D01*
G75*
G02*
X144950000Y-94800000I50000J0D01*
G01*
G37*
D11*
X151000000Y-116000000D03*
X151000000Y-109500000D03*
X155500000Y-116000000D03*
X155500000Y-109500000D03*
G36*
G01*
X120121500Y-82520750D02*
X120121500Y-83483250D01*
G75*
G02*
X119852750Y-83752000I-268750J0D01*
G01*
X119315250Y-83752000D01*
G75*
G02*
X119046500Y-83483250I0J268750D01*
G01*
X119046500Y-82520750D01*
G75*
G02*
X119315250Y-82252000I268750J0D01*
G01*
X119852750Y-82252000D01*
G75*
G02*
X120121500Y-82520750I0J-268750D01*
G01*
G37*
G36*
G01*
X118246500Y-82520750D02*
X118246500Y-83483250D01*
G75*
G02*
X117977750Y-83752000I-268750J0D01*
G01*
X117440250Y-83752000D01*
G75*
G02*
X117171500Y-83483250I0J268750D01*
G01*
X117171500Y-82520750D01*
G75*
G02*
X117440250Y-82252000I268750J0D01*
G01*
X117977750Y-82252000D01*
G75*
G02*
X118246500Y-82520750I0J-268750D01*
G01*
G37*
G36*
G01*
X108537500Y-95518750D02*
X108537500Y-96481250D01*
G75*
G02*
X108268750Y-96750000I-268750J0D01*
G01*
X107731250Y-96750000D01*
G75*
G02*
X107462500Y-96481250I0J268750D01*
G01*
X107462500Y-95518750D01*
G75*
G02*
X107731250Y-95250000I268750J0D01*
G01*
X108268750Y-95250000D01*
G75*
G02*
X108537500Y-95518750I0J-268750D01*
G01*
G37*
G36*
G01*
X106662500Y-95518750D02*
X106662500Y-96481250D01*
G75*
G02*
X106393750Y-96750000I-268750J0D01*
G01*
X105856250Y-96750000D01*
G75*
G02*
X105587500Y-96481250I0J268750D01*
G01*
X105587500Y-95518750D01*
G75*
G02*
X105856250Y-95250000I268750J0D01*
G01*
X106393750Y-95250000D01*
G75*
G02*
X106662500Y-95518750I0J-268750D01*
G01*
G37*
G36*
G01*
X121078500Y-77641250D02*
X121078500Y-76678750D01*
G75*
G02*
X121347250Y-76410000I268750J0D01*
G01*
X121884750Y-76410000D01*
G75*
G02*
X122153500Y-76678750I0J-268750D01*
G01*
X122153500Y-77641250D01*
G75*
G02*
X121884750Y-77910000I-268750J0D01*
G01*
X121347250Y-77910000D01*
G75*
G02*
X121078500Y-77641250I0J268750D01*
G01*
G37*
G36*
G01*
X122953500Y-77641250D02*
X122953500Y-76678750D01*
G75*
G02*
X123222250Y-76410000I268750J0D01*
G01*
X123759750Y-76410000D01*
G75*
G02*
X124028500Y-76678750I0J-268750D01*
G01*
X124028500Y-77641250D01*
G75*
G02*
X123759750Y-77910000I-268750J0D01*
G01*
X123222250Y-77910000D01*
G75*
G02*
X122953500Y-77641250I0J268750D01*
G01*
G37*
G36*
G01*
X143779000Y-81451250D02*
X143779000Y-80488750D01*
G75*
G02*
X144047750Y-80220000I268750J0D01*
G01*
X144585250Y-80220000D01*
G75*
G02*
X144854000Y-80488750I0J-268750D01*
G01*
X144854000Y-81451250D01*
G75*
G02*
X144585250Y-81720000I-268750J0D01*
G01*
X144047750Y-81720000D01*
G75*
G02*
X143779000Y-81451250I0J268750D01*
G01*
G37*
G36*
G01*
X145654000Y-81451250D02*
X145654000Y-80488750D01*
G75*
G02*
X145922750Y-80220000I268750J0D01*
G01*
X146460250Y-80220000D01*
G75*
G02*
X146729000Y-80488750I0J-268750D01*
G01*
X146729000Y-81451250D01*
G75*
G02*
X146460250Y-81720000I-268750J0D01*
G01*
X145922750Y-81720000D01*
G75*
G02*
X145654000Y-81451250I0J268750D01*
G01*
G37*
G36*
G01*
X139481250Y-98475000D02*
X138518750Y-98475000D01*
G75*
G02*
X138250000Y-98206250I0J268750D01*
G01*
X138250000Y-97668750D01*
G75*
G02*
X138518750Y-97400000I268750J0D01*
G01*
X139481250Y-97400000D01*
G75*
G02*
X139750000Y-97668750I0J-268750D01*
G01*
X139750000Y-98206250D01*
G75*
G02*
X139481250Y-98475000I-268750J0D01*
G01*
G37*
G36*
G01*
X139481250Y-96600000D02*
X138518750Y-96600000D01*
G75*
G02*
X138250000Y-96331250I0J268750D01*
G01*
X138250000Y-95793750D01*
G75*
G02*
X138518750Y-95525000I268750J0D01*
G01*
X139481250Y-95525000D01*
G75*
G02*
X139750000Y-95793750I0J-268750D01*
G01*
X139750000Y-96331250D01*
G75*
G02*
X139481250Y-96600000I-268750J0D01*
G01*
G37*
G36*
G01*
X109143250Y-103713000D02*
X108180750Y-103713000D01*
G75*
G02*
X107912000Y-103444250I0J268750D01*
G01*
X107912000Y-102906750D01*
G75*
G02*
X108180750Y-102638000I268750J0D01*
G01*
X109143250Y-102638000D01*
G75*
G02*
X109412000Y-102906750I0J-268750D01*
G01*
X109412000Y-103444250D01*
G75*
G02*
X109143250Y-103713000I-268750J0D01*
G01*
G37*
G36*
G01*
X109143250Y-101838000D02*
X108180750Y-101838000D01*
G75*
G02*
X107912000Y-101569250I0J268750D01*
G01*
X107912000Y-101031750D01*
G75*
G02*
X108180750Y-100763000I268750J0D01*
G01*
X109143250Y-100763000D01*
G75*
G02*
X109412000Y-101031750I0J-268750D01*
G01*
X109412000Y-101569250D01*
G75*
G02*
X109143250Y-101838000I-268750J0D01*
G01*
G37*
G36*
G01*
X123050000Y-89350000D02*
X123050000Y-89150000D01*
G75*
G02*
X123150000Y-89050000I100000J0D01*
G01*
X124525000Y-89050000D01*
G75*
G02*
X124625000Y-89150000I0J-100000D01*
G01*
X124625000Y-89350000D01*
G75*
G02*
X124525000Y-89450000I-100000J0D01*
G01*
X123150000Y-89450000D01*
G75*
G02*
X123050000Y-89350000I0J100000D01*
G01*
G37*
G36*
G01*
X123050000Y-89850000D02*
X123050000Y-89650000D01*
G75*
G02*
X123150000Y-89550000I100000J0D01*
G01*
X124525000Y-89550000D01*
G75*
G02*
X124625000Y-89650000I0J-100000D01*
G01*
X124625000Y-89850000D01*
G75*
G02*
X124525000Y-89950000I-100000J0D01*
G01*
X123150000Y-89950000D01*
G75*
G02*
X123050000Y-89850000I0J100000D01*
G01*
G37*
G36*
G01*
X123050000Y-90350000D02*
X123050000Y-90150000D01*
G75*
G02*
X123150000Y-90050000I100000J0D01*
G01*
X124525000Y-90050000D01*
G75*
G02*
X124625000Y-90150000I0J-100000D01*
G01*
X124625000Y-90350000D01*
G75*
G02*
X124525000Y-90450000I-100000J0D01*
G01*
X123150000Y-90450000D01*
G75*
G02*
X123050000Y-90350000I0J100000D01*
G01*
G37*
G36*
G01*
X123050000Y-90850000D02*
X123050000Y-90650000D01*
G75*
G02*
X123150000Y-90550000I100000J0D01*
G01*
X124525000Y-90550000D01*
G75*
G02*
X124625000Y-90650000I0J-100000D01*
G01*
X124625000Y-90850000D01*
G75*
G02*
X124525000Y-90950000I-100000J0D01*
G01*
X123150000Y-90950000D01*
G75*
G02*
X123050000Y-90850000I0J100000D01*
G01*
G37*
G36*
G01*
X123050000Y-91350000D02*
X123050000Y-91150000D01*
G75*
G02*
X123150000Y-91050000I100000J0D01*
G01*
X124525000Y-91050000D01*
G75*
G02*
X124625000Y-91150000I0J-100000D01*
G01*
X124625000Y-91350000D01*
G75*
G02*
X124525000Y-91450000I-100000J0D01*
G01*
X123150000Y-91450000D01*
G75*
G02*
X123050000Y-91350000I0J100000D01*
G01*
G37*
G36*
G01*
X123050000Y-91850000D02*
X123050000Y-91650000D01*
G75*
G02*
X123150000Y-91550000I100000J0D01*
G01*
X124525000Y-91550000D01*
G75*
G02*
X124625000Y-91650000I0J-100000D01*
G01*
X124625000Y-91850000D01*
G75*
G02*
X124525000Y-91950000I-100000J0D01*
G01*
X123150000Y-91950000D01*
G75*
G02*
X123050000Y-91850000I0J100000D01*
G01*
G37*
G36*
G01*
X123050000Y-92350000D02*
X123050000Y-92150000D01*
G75*
G02*
X123150000Y-92050000I100000J0D01*
G01*
X124525000Y-92050000D01*
G75*
G02*
X124625000Y-92150000I0J-100000D01*
G01*
X124625000Y-92350000D01*
G75*
G02*
X124525000Y-92450000I-100000J0D01*
G01*
X123150000Y-92450000D01*
G75*
G02*
X123050000Y-92350000I0J100000D01*
G01*
G37*
G36*
G01*
X123050000Y-92850000D02*
X123050000Y-92650000D01*
G75*
G02*
X123150000Y-92550000I100000J0D01*
G01*
X124525000Y-92550000D01*
G75*
G02*
X124625000Y-92650000I0J-100000D01*
G01*
X124625000Y-92850000D01*
G75*
G02*
X124525000Y-92950000I-100000J0D01*
G01*
X123150000Y-92950000D01*
G75*
G02*
X123050000Y-92850000I0J100000D01*
G01*
G37*
G36*
G01*
X123050000Y-93350000D02*
X123050000Y-93150000D01*
G75*
G02*
X123150000Y-93050000I100000J0D01*
G01*
X124525000Y-93050000D01*
G75*
G02*
X124625000Y-93150000I0J-100000D01*
G01*
X124625000Y-93350000D01*
G75*
G02*
X124525000Y-93450000I-100000J0D01*
G01*
X123150000Y-93450000D01*
G75*
G02*
X123050000Y-93350000I0J100000D01*
G01*
G37*
G36*
G01*
X123050000Y-93850000D02*
X123050000Y-93650000D01*
G75*
G02*
X123150000Y-93550000I100000J0D01*
G01*
X124525000Y-93550000D01*
G75*
G02*
X124625000Y-93650000I0J-100000D01*
G01*
X124625000Y-93850000D01*
G75*
G02*
X124525000Y-93950000I-100000J0D01*
G01*
X123150000Y-93950000D01*
G75*
G02*
X123050000Y-93850000I0J100000D01*
G01*
G37*
G36*
G01*
X123050000Y-94350000D02*
X123050000Y-94150000D01*
G75*
G02*
X123150000Y-94050000I100000J0D01*
G01*
X124525000Y-94050000D01*
G75*
G02*
X124625000Y-94150000I0J-100000D01*
G01*
X124625000Y-94350000D01*
G75*
G02*
X124525000Y-94450000I-100000J0D01*
G01*
X123150000Y-94450000D01*
G75*
G02*
X123050000Y-94350000I0J100000D01*
G01*
G37*
G36*
G01*
X123050000Y-94850000D02*
X123050000Y-94650000D01*
G75*
G02*
X123150000Y-94550000I100000J0D01*
G01*
X124525000Y-94550000D01*
G75*
G02*
X124625000Y-94650000I0J-100000D01*
G01*
X124625000Y-94850000D01*
G75*
G02*
X124525000Y-94950000I-100000J0D01*
G01*
X123150000Y-94950000D01*
G75*
G02*
X123050000Y-94850000I0J100000D01*
G01*
G37*
G36*
G01*
X125050000Y-96850000D02*
X125050000Y-95475000D01*
G75*
G02*
X125150000Y-95375000I100000J0D01*
G01*
X125350000Y-95375000D01*
G75*
G02*
X125450000Y-95475000I0J-100000D01*
G01*
X125450000Y-96850000D01*
G75*
G02*
X125350000Y-96950000I-100000J0D01*
G01*
X125150000Y-96950000D01*
G75*
G02*
X125050000Y-96850000I0J100000D01*
G01*
G37*
G36*
G01*
X125550000Y-96850000D02*
X125550000Y-95475000D01*
G75*
G02*
X125650000Y-95375000I100000J0D01*
G01*
X125850000Y-95375000D01*
G75*
G02*
X125950000Y-95475000I0J-100000D01*
G01*
X125950000Y-96850000D01*
G75*
G02*
X125850000Y-96950000I-100000J0D01*
G01*
X125650000Y-96950000D01*
G75*
G02*
X125550000Y-96850000I0J100000D01*
G01*
G37*
G36*
G01*
X126050000Y-96850000D02*
X126050000Y-95475000D01*
G75*
G02*
X126150000Y-95375000I100000J0D01*
G01*
X126350000Y-95375000D01*
G75*
G02*
X126450000Y-95475000I0J-100000D01*
G01*
X126450000Y-96850000D01*
G75*
G02*
X126350000Y-96950000I-100000J0D01*
G01*
X126150000Y-96950000D01*
G75*
G02*
X126050000Y-96850000I0J100000D01*
G01*
G37*
G36*
G01*
X126550000Y-96850000D02*
X126550000Y-95475000D01*
G75*
G02*
X126650000Y-95375000I100000J0D01*
G01*
X126850000Y-95375000D01*
G75*
G02*
X126950000Y-95475000I0J-100000D01*
G01*
X126950000Y-96850000D01*
G75*
G02*
X126850000Y-96950000I-100000J0D01*
G01*
X126650000Y-96950000D01*
G75*
G02*
X126550000Y-96850000I0J100000D01*
G01*
G37*
G36*
G01*
X127050000Y-96850000D02*
X127050000Y-95475000D01*
G75*
G02*
X127150000Y-95375000I100000J0D01*
G01*
X127350000Y-95375000D01*
G75*
G02*
X127450000Y-95475000I0J-100000D01*
G01*
X127450000Y-96850000D01*
G75*
G02*
X127350000Y-96950000I-100000J0D01*
G01*
X127150000Y-96950000D01*
G75*
G02*
X127050000Y-96850000I0J100000D01*
G01*
G37*
G36*
G01*
X127550000Y-96850000D02*
X127550000Y-95475000D01*
G75*
G02*
X127650000Y-95375000I100000J0D01*
G01*
X127850000Y-95375000D01*
G75*
G02*
X127950000Y-95475000I0J-100000D01*
G01*
X127950000Y-96850000D01*
G75*
G02*
X127850000Y-96950000I-100000J0D01*
G01*
X127650000Y-96950000D01*
G75*
G02*
X127550000Y-96850000I0J100000D01*
G01*
G37*
G36*
G01*
X128050000Y-96850000D02*
X128050000Y-95475000D01*
G75*
G02*
X128150000Y-95375000I100000J0D01*
G01*
X128350000Y-95375000D01*
G75*
G02*
X128450000Y-95475000I0J-100000D01*
G01*
X128450000Y-96850000D01*
G75*
G02*
X128350000Y-96950000I-100000J0D01*
G01*
X128150000Y-96950000D01*
G75*
G02*
X128050000Y-96850000I0J100000D01*
G01*
G37*
G36*
G01*
X128550000Y-96850000D02*
X128550000Y-95475000D01*
G75*
G02*
X128650000Y-95375000I100000J0D01*
G01*
X128850000Y-95375000D01*
G75*
G02*
X128950000Y-95475000I0J-100000D01*
G01*
X128950000Y-96850000D01*
G75*
G02*
X128850000Y-96950000I-100000J0D01*
G01*
X128650000Y-96950000D01*
G75*
G02*
X128550000Y-96850000I0J100000D01*
G01*
G37*
G36*
G01*
X129050000Y-96850000D02*
X129050000Y-95475000D01*
G75*
G02*
X129150000Y-95375000I100000J0D01*
G01*
X129350000Y-95375000D01*
G75*
G02*
X129450000Y-95475000I0J-100000D01*
G01*
X129450000Y-96850000D01*
G75*
G02*
X129350000Y-96950000I-100000J0D01*
G01*
X129150000Y-96950000D01*
G75*
G02*
X129050000Y-96850000I0J100000D01*
G01*
G37*
G36*
G01*
X129550000Y-96850000D02*
X129550000Y-95475000D01*
G75*
G02*
X129650000Y-95375000I100000J0D01*
G01*
X129850000Y-95375000D01*
G75*
G02*
X129950000Y-95475000I0J-100000D01*
G01*
X129950000Y-96850000D01*
G75*
G02*
X129850000Y-96950000I-100000J0D01*
G01*
X129650000Y-96950000D01*
G75*
G02*
X129550000Y-96850000I0J100000D01*
G01*
G37*
G36*
G01*
X130050000Y-96850000D02*
X130050000Y-95475000D01*
G75*
G02*
X130150000Y-95375000I100000J0D01*
G01*
X130350000Y-95375000D01*
G75*
G02*
X130450000Y-95475000I0J-100000D01*
G01*
X130450000Y-96850000D01*
G75*
G02*
X130350000Y-96950000I-100000J0D01*
G01*
X130150000Y-96950000D01*
G75*
G02*
X130050000Y-96850000I0J100000D01*
G01*
G37*
G36*
G01*
X130550000Y-96850000D02*
X130550000Y-95475000D01*
G75*
G02*
X130650000Y-95375000I100000J0D01*
G01*
X130850000Y-95375000D01*
G75*
G02*
X130950000Y-95475000I0J-100000D01*
G01*
X130950000Y-96850000D01*
G75*
G02*
X130850000Y-96950000I-100000J0D01*
G01*
X130650000Y-96950000D01*
G75*
G02*
X130550000Y-96850000I0J100000D01*
G01*
G37*
G36*
G01*
X131375000Y-94850000D02*
X131375000Y-94650000D01*
G75*
G02*
X131475000Y-94550000I100000J0D01*
G01*
X132850000Y-94550000D01*
G75*
G02*
X132950000Y-94650000I0J-100000D01*
G01*
X132950000Y-94850000D01*
G75*
G02*
X132850000Y-94950000I-100000J0D01*
G01*
X131475000Y-94950000D01*
G75*
G02*
X131375000Y-94850000I0J100000D01*
G01*
G37*
G36*
G01*
X131375000Y-94350000D02*
X131375000Y-94150000D01*
G75*
G02*
X131475000Y-94050000I100000J0D01*
G01*
X132850000Y-94050000D01*
G75*
G02*
X132950000Y-94150000I0J-100000D01*
G01*
X132950000Y-94350000D01*
G75*
G02*
X132850000Y-94450000I-100000J0D01*
G01*
X131475000Y-94450000D01*
G75*
G02*
X131375000Y-94350000I0J100000D01*
G01*
G37*
G36*
G01*
X131375000Y-93850000D02*
X131375000Y-93650000D01*
G75*
G02*
X131475000Y-93550000I100000J0D01*
G01*
X132850000Y-93550000D01*
G75*
G02*
X132950000Y-93650000I0J-100000D01*
G01*
X132950000Y-93850000D01*
G75*
G02*
X132850000Y-93950000I-100000J0D01*
G01*
X131475000Y-93950000D01*
G75*
G02*
X131375000Y-93850000I0J100000D01*
G01*
G37*
G36*
G01*
X131375000Y-93350000D02*
X131375000Y-93150000D01*
G75*
G02*
X131475000Y-93050000I100000J0D01*
G01*
X132850000Y-93050000D01*
G75*
G02*
X132950000Y-93150000I0J-100000D01*
G01*
X132950000Y-93350000D01*
G75*
G02*
X132850000Y-93450000I-100000J0D01*
G01*
X131475000Y-93450000D01*
G75*
G02*
X131375000Y-93350000I0J100000D01*
G01*
G37*
G36*
G01*
X131375000Y-92850000D02*
X131375000Y-92650000D01*
G75*
G02*
X131475000Y-92550000I100000J0D01*
G01*
X132850000Y-92550000D01*
G75*
G02*
X132950000Y-92650000I0J-100000D01*
G01*
X132950000Y-92850000D01*
G75*
G02*
X132850000Y-92950000I-100000J0D01*
G01*
X131475000Y-92950000D01*
G75*
G02*
X131375000Y-92850000I0J100000D01*
G01*
G37*
G36*
G01*
X131375000Y-92350000D02*
X131375000Y-92150000D01*
G75*
G02*
X131475000Y-92050000I100000J0D01*
G01*
X132850000Y-92050000D01*
G75*
G02*
X132950000Y-92150000I0J-100000D01*
G01*
X132950000Y-92350000D01*
G75*
G02*
X132850000Y-92450000I-100000J0D01*
G01*
X131475000Y-92450000D01*
G75*
G02*
X131375000Y-92350000I0J100000D01*
G01*
G37*
G36*
G01*
X131375000Y-91850000D02*
X131375000Y-91650000D01*
G75*
G02*
X131475000Y-91550000I100000J0D01*
G01*
X132850000Y-91550000D01*
G75*
G02*
X132950000Y-91650000I0J-100000D01*
G01*
X132950000Y-91850000D01*
G75*
G02*
X132850000Y-91950000I-100000J0D01*
G01*
X131475000Y-91950000D01*
G75*
G02*
X131375000Y-91850000I0J100000D01*
G01*
G37*
G36*
G01*
X131375000Y-91350000D02*
X131375000Y-91150000D01*
G75*
G02*
X131475000Y-91050000I100000J0D01*
G01*
X132850000Y-91050000D01*
G75*
G02*
X132950000Y-91150000I0J-100000D01*
G01*
X132950000Y-91350000D01*
G75*
G02*
X132850000Y-91450000I-100000J0D01*
G01*
X131475000Y-91450000D01*
G75*
G02*
X131375000Y-91350000I0J100000D01*
G01*
G37*
G36*
G01*
X131375000Y-90850000D02*
X131375000Y-90650000D01*
G75*
G02*
X131475000Y-90550000I100000J0D01*
G01*
X132850000Y-90550000D01*
G75*
G02*
X132950000Y-90650000I0J-100000D01*
G01*
X132950000Y-90850000D01*
G75*
G02*
X132850000Y-90950000I-100000J0D01*
G01*
X131475000Y-90950000D01*
G75*
G02*
X131375000Y-90850000I0J100000D01*
G01*
G37*
G36*
G01*
X131375000Y-90350000D02*
X131375000Y-90150000D01*
G75*
G02*
X131475000Y-90050000I100000J0D01*
G01*
X132850000Y-90050000D01*
G75*
G02*
X132950000Y-90150000I0J-100000D01*
G01*
X132950000Y-90350000D01*
G75*
G02*
X132850000Y-90450000I-100000J0D01*
G01*
X131475000Y-90450000D01*
G75*
G02*
X131375000Y-90350000I0J100000D01*
G01*
G37*
G36*
G01*
X131375000Y-89850000D02*
X131375000Y-89650000D01*
G75*
G02*
X131475000Y-89550000I100000J0D01*
G01*
X132850000Y-89550000D01*
G75*
G02*
X132950000Y-89650000I0J-100000D01*
G01*
X132950000Y-89850000D01*
G75*
G02*
X132850000Y-89950000I-100000J0D01*
G01*
X131475000Y-89950000D01*
G75*
G02*
X131375000Y-89850000I0J100000D01*
G01*
G37*
G36*
G01*
X131375000Y-89350000D02*
X131375000Y-89150000D01*
G75*
G02*
X131475000Y-89050000I100000J0D01*
G01*
X132850000Y-89050000D01*
G75*
G02*
X132950000Y-89150000I0J-100000D01*
G01*
X132950000Y-89350000D01*
G75*
G02*
X132850000Y-89450000I-100000J0D01*
G01*
X131475000Y-89450000D01*
G75*
G02*
X131375000Y-89350000I0J100000D01*
G01*
G37*
G36*
G01*
X130550000Y-88525000D02*
X130550000Y-87150000D01*
G75*
G02*
X130650000Y-87050000I100000J0D01*
G01*
X130850000Y-87050000D01*
G75*
G02*
X130950000Y-87150000I0J-100000D01*
G01*
X130950000Y-88525000D01*
G75*
G02*
X130850000Y-88625000I-100000J0D01*
G01*
X130650000Y-88625000D01*
G75*
G02*
X130550000Y-88525000I0J100000D01*
G01*
G37*
G36*
G01*
X130050000Y-88525000D02*
X130050000Y-87150000D01*
G75*
G02*
X130150000Y-87050000I100000J0D01*
G01*
X130350000Y-87050000D01*
G75*
G02*
X130450000Y-87150000I0J-100000D01*
G01*
X130450000Y-88525000D01*
G75*
G02*
X130350000Y-88625000I-100000J0D01*
G01*
X130150000Y-88625000D01*
G75*
G02*
X130050000Y-88525000I0J100000D01*
G01*
G37*
G36*
G01*
X129550000Y-88525000D02*
X129550000Y-87150000D01*
G75*
G02*
X129650000Y-87050000I100000J0D01*
G01*
X129850000Y-87050000D01*
G75*
G02*
X129950000Y-87150000I0J-100000D01*
G01*
X129950000Y-88525000D01*
G75*
G02*
X129850000Y-88625000I-100000J0D01*
G01*
X129650000Y-88625000D01*
G75*
G02*
X129550000Y-88525000I0J100000D01*
G01*
G37*
G36*
G01*
X129050000Y-88525000D02*
X129050000Y-87150000D01*
G75*
G02*
X129150000Y-87050000I100000J0D01*
G01*
X129350000Y-87050000D01*
G75*
G02*
X129450000Y-87150000I0J-100000D01*
G01*
X129450000Y-88525000D01*
G75*
G02*
X129350000Y-88625000I-100000J0D01*
G01*
X129150000Y-88625000D01*
G75*
G02*
X129050000Y-88525000I0J100000D01*
G01*
G37*
G36*
G01*
X128550000Y-88525000D02*
X128550000Y-87150000D01*
G75*
G02*
X128650000Y-87050000I100000J0D01*
G01*
X128850000Y-87050000D01*
G75*
G02*
X128950000Y-87150000I0J-100000D01*
G01*
X128950000Y-88525000D01*
G75*
G02*
X128850000Y-88625000I-100000J0D01*
G01*
X128650000Y-88625000D01*
G75*
G02*
X128550000Y-88525000I0J100000D01*
G01*
G37*
G36*
G01*
X128050000Y-88525000D02*
X128050000Y-87150000D01*
G75*
G02*
X128150000Y-87050000I100000J0D01*
G01*
X128350000Y-87050000D01*
G75*
G02*
X128450000Y-87150000I0J-100000D01*
G01*
X128450000Y-88525000D01*
G75*
G02*
X128350000Y-88625000I-100000J0D01*
G01*
X128150000Y-88625000D01*
G75*
G02*
X128050000Y-88525000I0J100000D01*
G01*
G37*
G36*
G01*
X127550000Y-88525000D02*
X127550000Y-87150000D01*
G75*
G02*
X127650000Y-87050000I100000J0D01*
G01*
X127850000Y-87050000D01*
G75*
G02*
X127950000Y-87150000I0J-100000D01*
G01*
X127950000Y-88525000D01*
G75*
G02*
X127850000Y-88625000I-100000J0D01*
G01*
X127650000Y-88625000D01*
G75*
G02*
X127550000Y-88525000I0J100000D01*
G01*
G37*
G36*
G01*
X127050000Y-88525000D02*
X127050000Y-87150000D01*
G75*
G02*
X127150000Y-87050000I100000J0D01*
G01*
X127350000Y-87050000D01*
G75*
G02*
X127450000Y-87150000I0J-100000D01*
G01*
X127450000Y-88525000D01*
G75*
G02*
X127350000Y-88625000I-100000J0D01*
G01*
X127150000Y-88625000D01*
G75*
G02*
X127050000Y-88525000I0J100000D01*
G01*
G37*
G36*
G01*
X126550000Y-88525000D02*
X126550000Y-87150000D01*
G75*
G02*
X126650000Y-87050000I100000J0D01*
G01*
X126850000Y-87050000D01*
G75*
G02*
X126950000Y-87150000I0J-100000D01*
G01*
X126950000Y-88525000D01*
G75*
G02*
X126850000Y-88625000I-100000J0D01*
G01*
X126650000Y-88625000D01*
G75*
G02*
X126550000Y-88525000I0J100000D01*
G01*
G37*
G36*
G01*
X126050000Y-88525000D02*
X126050000Y-87150000D01*
G75*
G02*
X126150000Y-87050000I100000J0D01*
G01*
X126350000Y-87050000D01*
G75*
G02*
X126450000Y-87150000I0J-100000D01*
G01*
X126450000Y-88525000D01*
G75*
G02*
X126350000Y-88625000I-100000J0D01*
G01*
X126150000Y-88625000D01*
G75*
G02*
X126050000Y-88525000I0J100000D01*
G01*
G37*
G36*
G01*
X125550000Y-88525000D02*
X125550000Y-87150000D01*
G75*
G02*
X125650000Y-87050000I100000J0D01*
G01*
X125850000Y-87050000D01*
G75*
G02*
X125950000Y-87150000I0J-100000D01*
G01*
X125950000Y-88525000D01*
G75*
G02*
X125850000Y-88625000I-100000J0D01*
G01*
X125650000Y-88625000D01*
G75*
G02*
X125550000Y-88525000I0J100000D01*
G01*
G37*
G36*
G01*
X125050000Y-88525000D02*
X125050000Y-87150000D01*
G75*
G02*
X125150000Y-87050000I100000J0D01*
G01*
X125350000Y-87050000D01*
G75*
G02*
X125450000Y-87150000I0J-100000D01*
G01*
X125450000Y-88525000D01*
G75*
G02*
X125350000Y-88625000I-100000J0D01*
G01*
X125150000Y-88625000D01*
G75*
G02*
X125050000Y-88525000I0J100000D01*
G01*
G37*
G36*
G01*
X108537500Y-88518750D02*
X108537500Y-89481250D01*
G75*
G02*
X108268750Y-89750000I-268750J0D01*
G01*
X107731250Y-89750000D01*
G75*
G02*
X107462500Y-89481250I0J268750D01*
G01*
X107462500Y-88518750D01*
G75*
G02*
X107731250Y-88250000I268750J0D01*
G01*
X108268750Y-88250000D01*
G75*
G02*
X108537500Y-88518750I0J-268750D01*
G01*
G37*
G36*
G01*
X106662500Y-88518750D02*
X106662500Y-89481250D01*
G75*
G02*
X106393750Y-89750000I-268750J0D01*
G01*
X105856250Y-89750000D01*
G75*
G02*
X105587500Y-89481250I0J268750D01*
G01*
X105587500Y-88518750D01*
G75*
G02*
X105856250Y-88250000I268750J0D01*
G01*
X106393750Y-88250000D01*
G75*
G02*
X106662500Y-88518750I0J-268750D01*
G01*
G37*
G36*
G01*
X113439000Y-99792750D02*
X113439000Y-100755250D01*
G75*
G02*
X113170250Y-101024000I-268750J0D01*
G01*
X112632750Y-101024000D01*
G75*
G02*
X112364000Y-100755250I0J268750D01*
G01*
X112364000Y-99792750D01*
G75*
G02*
X112632750Y-99524000I268750J0D01*
G01*
X113170250Y-99524000D01*
G75*
G02*
X113439000Y-99792750I0J-268750D01*
G01*
G37*
G36*
G01*
X111564000Y-99792750D02*
X111564000Y-100755250D01*
G75*
G02*
X111295250Y-101024000I-268750J0D01*
G01*
X110757750Y-101024000D01*
G75*
G02*
X110489000Y-100755250I0J268750D01*
G01*
X110489000Y-99792750D01*
G75*
G02*
X110757750Y-99524000I268750J0D01*
G01*
X111295250Y-99524000D01*
G75*
G02*
X111564000Y-99792750I0J-268750D01*
G01*
G37*
G36*
G01*
X146700000Y-88900000D02*
X146700000Y-87100000D01*
G75*
G02*
X146750000Y-87050000I50000J0D01*
G01*
X149250000Y-87050000D01*
G75*
G02*
X149300000Y-87100000I0J-50000D01*
G01*
X149300000Y-88900000D01*
G75*
G02*
X149250000Y-88950000I-50000J0D01*
G01*
X146750000Y-88950000D01*
G75*
G02*
X146700000Y-88900000I0J50000D01*
G01*
G37*
G36*
G01*
X150700000Y-88900000D02*
X150700000Y-87100000D01*
G75*
G02*
X150750000Y-87050000I50000J0D01*
G01*
X153250000Y-87050000D01*
G75*
G02*
X153300000Y-87100000I0J-50000D01*
G01*
X153300000Y-88900000D01*
G75*
G02*
X153250000Y-88950000I-50000J0D01*
G01*
X150750000Y-88950000D01*
G75*
G02*
X150700000Y-88900000I0J50000D01*
G01*
G37*
G36*
G01*
X108475000Y-91518750D02*
X108475000Y-92481250D01*
G75*
G02*
X108206250Y-92750000I-268750J0D01*
G01*
X107668750Y-92750000D01*
G75*
G02*
X107400000Y-92481250I0J268750D01*
G01*
X107400000Y-91518750D01*
G75*
G02*
X107668750Y-91250000I268750J0D01*
G01*
X108206250Y-91250000D01*
G75*
G02*
X108475000Y-91518750I0J-268750D01*
G01*
G37*
G36*
G01*
X106600000Y-91518750D02*
X106600000Y-92481250D01*
G75*
G02*
X106331250Y-92750000I-268750J0D01*
G01*
X105793750Y-92750000D01*
G75*
G02*
X105525000Y-92481250I0J268750D01*
G01*
X105525000Y-91518750D01*
G75*
G02*
X105793750Y-91250000I268750J0D01*
G01*
X106331250Y-91250000D01*
G75*
G02*
X106600000Y-91518750I0J-268750D01*
G01*
G37*
G36*
G01*
X141481250Y-110475000D02*
X140518750Y-110475000D01*
G75*
G02*
X140250000Y-110206250I0J268750D01*
G01*
X140250000Y-109668750D01*
G75*
G02*
X140518750Y-109400000I268750J0D01*
G01*
X141481250Y-109400000D01*
G75*
G02*
X141750000Y-109668750I0J-268750D01*
G01*
X141750000Y-110206250D01*
G75*
G02*
X141481250Y-110475000I-268750J0D01*
G01*
G37*
G36*
G01*
X141481250Y-108600000D02*
X140518750Y-108600000D01*
G75*
G02*
X140250000Y-108331250I0J268750D01*
G01*
X140250000Y-107793750D01*
G75*
G02*
X140518750Y-107525000I268750J0D01*
G01*
X141481250Y-107525000D01*
G75*
G02*
X141750000Y-107793750I0J-268750D01*
G01*
X141750000Y-108331250D01*
G75*
G02*
X141481250Y-108600000I-268750J0D01*
G01*
G37*
G36*
G01*
X144900000Y-93456482D02*
X144900000Y-92543518D01*
G75*
G02*
X145168518Y-92275000I268518J0D01*
G01*
X146131482Y-92275000D01*
G75*
G02*
X146400000Y-92543518I0J-268518D01*
G01*
X146400000Y-93456482D01*
G75*
G02*
X146131482Y-93725000I-268518J0D01*
G01*
X145168518Y-93725000D01*
G75*
G02*
X144900000Y-93456482I0J268518D01*
G01*
G37*
G36*
G01*
X147600000Y-93456482D02*
X147600000Y-92543518D01*
G75*
G02*
X147868518Y-92275000I268518J0D01*
G01*
X148831482Y-92275000D01*
G75*
G02*
X149100000Y-92543518I0J-268518D01*
G01*
X149100000Y-93456482D01*
G75*
G02*
X148831482Y-93725000I-268518J0D01*
G01*
X147868518Y-93725000D01*
G75*
G02*
X147600000Y-93456482I0J268518D01*
G01*
G37*
G36*
G01*
X113693000Y-103094750D02*
X113693000Y-104057250D01*
G75*
G02*
X113424250Y-104326000I-268750J0D01*
G01*
X112886750Y-104326000D01*
G75*
G02*
X112618000Y-104057250I0J268750D01*
G01*
X112618000Y-103094750D01*
G75*
G02*
X112886750Y-102826000I268750J0D01*
G01*
X113424250Y-102826000D01*
G75*
G02*
X113693000Y-103094750I0J-268750D01*
G01*
G37*
G36*
G01*
X111818000Y-103094750D02*
X111818000Y-104057250D01*
G75*
G02*
X111549250Y-104326000I-268750J0D01*
G01*
X111011750Y-104326000D01*
G75*
G02*
X110743000Y-104057250I0J268750D01*
G01*
X110743000Y-103094750D01*
G75*
G02*
X111011750Y-102826000I268750J0D01*
G01*
X111549250Y-102826000D01*
G75*
G02*
X111818000Y-103094750I0J-268750D01*
G01*
G37*
G36*
G01*
X146759000Y-78408750D02*
X146759000Y-79371250D01*
G75*
G02*
X146490250Y-79640000I-268750J0D01*
G01*
X145952750Y-79640000D01*
G75*
G02*
X145684000Y-79371250I0J268750D01*
G01*
X145684000Y-78408750D01*
G75*
G02*
X145952750Y-78140000I268750J0D01*
G01*
X146490250Y-78140000D01*
G75*
G02*
X146759000Y-78408750I0J-268750D01*
G01*
G37*
G36*
G01*
X144884000Y-78408750D02*
X144884000Y-79371250D01*
G75*
G02*
X144615250Y-79640000I-268750J0D01*
G01*
X144077750Y-79640000D01*
G75*
G02*
X143809000Y-79371250I0J268750D01*
G01*
X143809000Y-78408750D01*
G75*
G02*
X144077750Y-78140000I268750J0D01*
G01*
X144615250Y-78140000D01*
G75*
G02*
X144884000Y-78408750I0J-268750D01*
G01*
G37*
G36*
G01*
X137061000Y-87600750D02*
X137061000Y-88563250D01*
G75*
G02*
X136792250Y-88832000I-268750J0D01*
G01*
X136254750Y-88832000D01*
G75*
G02*
X135986000Y-88563250I0J268750D01*
G01*
X135986000Y-87600750D01*
G75*
G02*
X136254750Y-87332000I268750J0D01*
G01*
X136792250Y-87332000D01*
G75*
G02*
X137061000Y-87600750I0J-268750D01*
G01*
G37*
G36*
G01*
X135186000Y-87600750D02*
X135186000Y-88563250D01*
G75*
G02*
X134917250Y-88832000I-268750J0D01*
G01*
X134379750Y-88832000D01*
G75*
G02*
X134111000Y-88563250I0J268750D01*
G01*
X134111000Y-87600750D01*
G75*
G02*
X134379750Y-87332000I268750J0D01*
G01*
X134917250Y-87332000D01*
G75*
G02*
X135186000Y-87600750I0J-268750D01*
G01*
G37*
D12*
X158784000Y-74690000D03*
X153784000Y-74690000D03*
G36*
G01*
X157859000Y-75140000D02*
X157859000Y-76440000D01*
G75*
G02*
X157809000Y-76490000I-50000J0D01*
G01*
X157359000Y-76490000D01*
G75*
G02*
X157309000Y-76440000I0J50000D01*
G01*
X157309000Y-75140000D01*
G75*
G02*
X157359000Y-75090000I50000J0D01*
G01*
X157809000Y-75090000D01*
G75*
G02*
X157859000Y-75140000I0J-50000D01*
G01*
G37*
G36*
G01*
X157209000Y-75140000D02*
X157209000Y-76440000D01*
G75*
G02*
X157159000Y-76490000I-50000J0D01*
G01*
X156709000Y-76490000D01*
G75*
G02*
X156659000Y-76440000I0J50000D01*
G01*
X156659000Y-75140000D01*
G75*
G02*
X156709000Y-75090000I50000J0D01*
G01*
X157159000Y-75090000D01*
G75*
G02*
X157209000Y-75140000I0J-50000D01*
G01*
G37*
G36*
G01*
X156559000Y-75140000D02*
X156559000Y-76440000D01*
G75*
G02*
X156509000Y-76490000I-50000J0D01*
G01*
X156059000Y-76490000D01*
G75*
G02*
X156009000Y-76440000I0J50000D01*
G01*
X156009000Y-75140000D01*
G75*
G02*
X156059000Y-75090000I50000J0D01*
G01*
X156509000Y-75090000D01*
G75*
G02*
X156559000Y-75140000I0J-50000D01*
G01*
G37*
G36*
G01*
X155909000Y-75140000D02*
X155909000Y-76440000D01*
G75*
G02*
X155859000Y-76490000I-50000J0D01*
G01*
X155409000Y-76490000D01*
G75*
G02*
X155359000Y-76440000I0J50000D01*
G01*
X155359000Y-75140000D01*
G75*
G02*
X155409000Y-75090000I50000J0D01*
G01*
X155859000Y-75090000D01*
G75*
G02*
X155909000Y-75140000I0J-50000D01*
G01*
G37*
G36*
G01*
X155259000Y-75140000D02*
X155259000Y-76440000D01*
G75*
G02*
X155209000Y-76490000I-50000J0D01*
G01*
X154759000Y-76490000D01*
G75*
G02*
X154709000Y-76440000I0J50000D01*
G01*
X154709000Y-75140000D01*
G75*
G02*
X154759000Y-75090000I50000J0D01*
G01*
X155209000Y-75090000D01*
G75*
G02*
X155259000Y-75140000I0J-50000D01*
G01*
G37*
D13*
X160159000Y-71940000D03*
D11*
X160009000Y-75740000D03*
X152559000Y-75740000D03*
D13*
X152409000Y-71940000D03*
G36*
G01*
X117779250Y-103781000D02*
X116816750Y-103781000D01*
G75*
G02*
X116548000Y-103512250I0J268750D01*
G01*
X116548000Y-102974750D01*
G75*
G02*
X116816750Y-102706000I268750J0D01*
G01*
X117779250Y-102706000D01*
G75*
G02*
X118048000Y-102974750I0J-268750D01*
G01*
X118048000Y-103512250D01*
G75*
G02*
X117779250Y-103781000I-268750J0D01*
G01*
G37*
G36*
G01*
X117779250Y-101906000D02*
X116816750Y-101906000D01*
G75*
G02*
X116548000Y-101637250I0J268750D01*
G01*
X116548000Y-101099750D01*
G75*
G02*
X116816750Y-100831000I268750J0D01*
G01*
X117779250Y-100831000D01*
G75*
G02*
X118048000Y-101099750I0J-268750D01*
G01*
X118048000Y-101637250D01*
G75*
G02*
X117779250Y-101906000I-268750J0D01*
G01*
G37*
G36*
G01*
X146729000Y-82534750D02*
X146729000Y-83497250D01*
G75*
G02*
X146460250Y-83766000I-268750J0D01*
G01*
X145922750Y-83766000D01*
G75*
G02*
X145654000Y-83497250I0J268750D01*
G01*
X145654000Y-82534750D01*
G75*
G02*
X145922750Y-82266000I268750J0D01*
G01*
X146460250Y-82266000D01*
G75*
G02*
X146729000Y-82534750I0J-268750D01*
G01*
G37*
G36*
G01*
X144854000Y-82534750D02*
X144854000Y-83497250D01*
G75*
G02*
X144585250Y-83766000I-268750J0D01*
G01*
X144047750Y-83766000D01*
G75*
G02*
X143779000Y-83497250I0J268750D01*
G01*
X143779000Y-82534750D01*
G75*
G02*
X144047750Y-82266000I268750J0D01*
G01*
X144585250Y-82266000D01*
G75*
G02*
X144854000Y-82534750I0J-268750D01*
G01*
G37*
G36*
G01*
X123456250Y-83305000D02*
X124418750Y-83305000D01*
G75*
G02*
X124687500Y-83573750I0J-268750D01*
G01*
X124687500Y-84111250D01*
G75*
G02*
X124418750Y-84380000I-268750J0D01*
G01*
X123456250Y-84380000D01*
G75*
G02*
X123187500Y-84111250I0J268750D01*
G01*
X123187500Y-83573750D01*
G75*
G02*
X123456250Y-83305000I268750J0D01*
G01*
G37*
G36*
G01*
X123456250Y-85180000D02*
X124418750Y-85180000D01*
G75*
G02*
X124687500Y-85448750I0J-268750D01*
G01*
X124687500Y-85986250D01*
G75*
G02*
X124418750Y-86255000I-268750J0D01*
G01*
X123456250Y-86255000D01*
G75*
G02*
X123187500Y-85986250I0J268750D01*
G01*
X123187500Y-85448750D01*
G75*
G02*
X123456250Y-85180000I268750J0D01*
G01*
G37*
G36*
G01*
X109850000Y-74900000D02*
X108150000Y-74900000D01*
G75*
G02*
X108100000Y-74850000I0J50000D01*
G01*
X108100000Y-73150000D01*
G75*
G02*
X108150000Y-73100000I50000J0D01*
G01*
X109850000Y-73100000D01*
G75*
G02*
X109900000Y-73150000I0J-50000D01*
G01*
X109900000Y-74850000D01*
G75*
G02*
X109850000Y-74900000I-50000J0D01*
G01*
G37*
D14*
X111540000Y-74000000D03*
X114080000Y-74000000D03*
X116620000Y-74000000D03*
X119160000Y-74000000D03*
X121700000Y-74000000D03*
X124240000Y-74000000D03*
X126780000Y-74000000D03*
X129320000Y-74000000D03*
X131860000Y-74000000D03*
X134400000Y-74000000D03*
X136940000Y-74000000D03*
X139480000Y-74000000D03*
X142020000Y-74000000D03*
X144560000Y-74000000D03*
X147100000Y-74000000D03*
G36*
G01*
X109850000Y-116900000D02*
X108150000Y-116900000D01*
G75*
G02*
X108100000Y-116850000I0J50000D01*
G01*
X108100000Y-115150000D01*
G75*
G02*
X108150000Y-115100000I50000J0D01*
G01*
X109850000Y-115100000D01*
G75*
G02*
X109900000Y-115150000I0J-50000D01*
G01*
X109900000Y-116850000D01*
G75*
G02*
X109850000Y-116900000I-50000J0D01*
G01*
G37*
X111540000Y-116000000D03*
X114080000Y-116000000D03*
X116620000Y-116000000D03*
X119160000Y-116000000D03*
X121700000Y-116000000D03*
X124240000Y-116000000D03*
X126780000Y-116000000D03*
X129320000Y-116000000D03*
X131860000Y-116000000D03*
X134400000Y-116000000D03*
X136940000Y-116000000D03*
X139480000Y-116000000D03*
X142020000Y-116000000D03*
X144560000Y-116000000D03*
X147100000Y-116000000D03*
G36*
G01*
X158562000Y-88170000D02*
X158562000Y-86470000D01*
G75*
G02*
X158612000Y-86420000I50000J0D01*
G01*
X160312000Y-86420000D01*
G75*
G02*
X160362000Y-86470000I0J-50000D01*
G01*
X160362000Y-88170000D01*
G75*
G02*
X160312000Y-88220000I-50000J0D01*
G01*
X158612000Y-88220000D01*
G75*
G02*
X158562000Y-88170000I0J50000D01*
G01*
G37*
X162002000Y-87320000D03*
X159462000Y-89860000D03*
X162002000Y-89860000D03*
X159462000Y-92400000D03*
X162002000Y-92400000D03*
X159462000Y-94940000D03*
X162002000Y-94940000D03*
X159462000Y-97480000D03*
X162002000Y-97480000D03*
X159462000Y-100020000D03*
X162002000Y-100020000D03*
X159462000Y-102560000D03*
X162002000Y-102560000D03*
X159462000Y-105100000D03*
X162002000Y-105100000D03*
X159462000Y-107640000D03*
X162002000Y-107640000D03*
X159462000Y-110180000D03*
X162002000Y-110180000D03*
G36*
G01*
X164359000Y-80674000D02*
X165359000Y-80674000D01*
G75*
G02*
X165409000Y-80724000I0J-50000D01*
G01*
X165409000Y-81724000D01*
G75*
G02*
X165359000Y-81774000I-50000J0D01*
G01*
X164359000Y-81774000D01*
G75*
G02*
X164309000Y-81724000I0J50000D01*
G01*
X164309000Y-80724000D01*
G75*
G02*
X164359000Y-80674000I50000J0D01*
G01*
G37*
D15*
X164859000Y-82494000D03*
X163589000Y-81224000D03*
X163589000Y-82494000D03*
X162319000Y-81224000D03*
X162319000Y-82494000D03*
X161049000Y-81224000D03*
X161049000Y-82494000D03*
X159779000Y-81224000D03*
X159779000Y-82494000D03*
G36*
G01*
X106998500Y-80186700D02*
X106998500Y-79066700D01*
G75*
G02*
X107048500Y-79016700I50000J0D01*
G01*
X109208500Y-79016700D01*
G75*
G02*
X109258500Y-79066700I0J-50000D01*
G01*
X109258500Y-80186700D01*
G75*
G02*
X109208500Y-80236700I-50000J0D01*
G01*
X107048500Y-80236700D01*
G75*
G02*
X106998500Y-80186700I0J50000D01*
G01*
G37*
G36*
G01*
X106998500Y-82726700D02*
X106998500Y-81606700D01*
G75*
G02*
X107048500Y-81556700I50000J0D01*
G01*
X109208500Y-81556700D01*
G75*
G02*
X109258500Y-81606700I0J-50000D01*
G01*
X109258500Y-82726700D01*
G75*
G02*
X109208500Y-82776700I-50000J0D01*
G01*
X107048500Y-82776700D01*
G75*
G02*
X106998500Y-82726700I0J50000D01*
G01*
G37*
G36*
G01*
X113728500Y-82726700D02*
X113728500Y-81606700D01*
G75*
G02*
X113778500Y-81556700I50000J0D01*
G01*
X115938500Y-81556700D01*
G75*
G02*
X115988500Y-81606700I0J-50000D01*
G01*
X115988500Y-82726700D01*
G75*
G02*
X115938500Y-82776700I-50000J0D01*
G01*
X113778500Y-82776700D01*
G75*
G02*
X113728500Y-82726700I0J50000D01*
G01*
G37*
G36*
G01*
X113728500Y-80186700D02*
X113728500Y-79066700D01*
G75*
G02*
X113778500Y-79016700I50000J0D01*
G01*
X115938500Y-79016700D01*
G75*
G02*
X115988500Y-79066700I0J-50000D01*
G01*
X115988500Y-80186700D01*
G75*
G02*
X115938500Y-80236700I-50000J0D01*
G01*
X113778500Y-80236700D01*
G75*
G02*
X113728500Y-80186700I0J50000D01*
G01*
G37*
M02*
