G04 #@! TF.GenerationSoftware,KiCad,Pcbnew,8.0.3+1*
G04 #@! TF.CreationDate,2024-10-28T11:01:19+00:00*
G04 #@! TF.ProjectId,STM32103_Devel,53544d33-3231-4303-935f-446576656c2e,0.0.3*
G04 #@! TF.SameCoordinates,Original*
G04 #@! TF.FileFunction,Copper,L2,Inr*
G04 #@! TF.FilePolarity,Positive*
%FSLAX46Y46*%
G04 Gerber Fmt 4.6, Leading zero omitted, Abs format (unit mm)*
G04 Created by KiCad (PCBNEW 8.0.3+1) date 2024-10-28 11:01:19*
%MOMM*%
%LPD*%
G01*
G04 APERTURE LIST*
G04 #@! TA.AperFunction,ComponentPad*
%ADD10C,4.700000*%
G04 #@! TD*
G04 #@! TA.AperFunction,ComponentPad*
%ADD11O,1.600000X0.900000*%
G04 #@! TD*
G04 #@! TA.AperFunction,ComponentPad*
%ADD12R,1.700000X1.700000*%
G04 #@! TD*
G04 #@! TA.AperFunction,ComponentPad*
%ADD13O,1.700000X1.700000*%
G04 #@! TD*
G04 #@! TA.AperFunction,ViaPad*
%ADD14C,0.800000*%
G04 #@! TD*
G04 #@! TA.AperFunction,Conductor*
%ADD15C,0.250000*%
G04 #@! TD*
G04 APERTURE END LIST*
D10*
X165000000Y-116000000D03*
X165000000Y-74000000D03*
X104000000Y-74000000D03*
X104000000Y-116000000D03*
D11*
X167500000Y-89300000D03*
X167500000Y-82700000D03*
D12*
X109000000Y-74000000D03*
D13*
X111540000Y-74000000D03*
X114080000Y-74000000D03*
X116620000Y-74000000D03*
X119160000Y-74000000D03*
X121700000Y-74000000D03*
X124240000Y-74000000D03*
X126780000Y-74000000D03*
X129320000Y-74000000D03*
X131860000Y-74000000D03*
X134400000Y-74000000D03*
X136940000Y-74000000D03*
X139480000Y-74000000D03*
X142020000Y-74000000D03*
X144560000Y-74000000D03*
X147100000Y-74000000D03*
D12*
X109000000Y-116000000D03*
D13*
X111540000Y-116000000D03*
X114080000Y-116000000D03*
X116620000Y-116000000D03*
X119160000Y-116000000D03*
X121700000Y-116000000D03*
X124240000Y-116000000D03*
X126780000Y-116000000D03*
X129320000Y-116000000D03*
X131860000Y-116000000D03*
X134400000Y-116000000D03*
X136940000Y-116000000D03*
X139480000Y-116000000D03*
X142020000Y-116000000D03*
X144560000Y-116000000D03*
X147100000Y-116000000D03*
D12*
X166500000Y-95920000D03*
D13*
X166500000Y-98460000D03*
X166500000Y-101000000D03*
X166500000Y-103540000D03*
X166500000Y-106080000D03*
X166500000Y-108620000D03*
D12*
X112080000Y-108750000D03*
D13*
X112080000Y-111290000D03*
X109540000Y-108750000D03*
X109540000Y-111290000D03*
X107000000Y-108750000D03*
X107000000Y-111290000D03*
D12*
X152975000Y-76275000D03*
D13*
X152975000Y-73735000D03*
X155515000Y-76275000D03*
X155515000Y-73735000D03*
X158055000Y-76275000D03*
X158055000Y-73735000D03*
D14*
X133046000Y-86812000D03*
X123140000Y-81224000D03*
X122378000Y-85034000D03*
X130760000Y-101036000D03*
X116944443Y-88181557D03*
X104344000Y-103322000D03*
X142284000Y-78890000D03*
X145084000Y-105000000D03*
X146100000Y-105000000D03*
X114846300Y-83906600D03*
X148000000Y-97956000D03*
X114820900Y-77912200D03*
X133800000Y-106600000D03*
X163500000Y-106000000D03*
X114504000Y-91130000D03*
X152750000Y-97200000D03*
X146000000Y-85800000D03*
X104200000Y-110000000D03*
X124000000Y-87500000D03*
X126378000Y-78811000D03*
X127000000Y-90200000D03*
X133600000Y-102200000D03*
X131000000Y-110000000D03*
X110500000Y-81000000D03*
X154000000Y-84500000D03*
X128728000Y-80970000D03*
X140000000Y-111000000D03*
X120350661Y-91633341D03*
X157500000Y-99750000D03*
X137872000Y-89969009D03*
X137872000Y-99512000D03*
X125426000Y-84782301D03*
X126442000Y-84018000D03*
X127975000Y-83002000D03*
X124200000Y-104800000D03*
X127975000Y-81986000D03*
X124200000Y-106200000D03*
X129490000Y-80208000D03*
X140412000Y-84272000D03*
X130435840Y-78571897D03*
X155500000Y-102750000D03*
X140920000Y-89098000D03*
X139396000Y-103576000D03*
X139904000Y-89098000D03*
X138888000Y-102052000D03*
X154000000Y-104750000D03*
X152750000Y-98500000D03*
X138779999Y-89243999D03*
X138380000Y-100782000D03*
X154000000Y-106000000D03*
X132284000Y-96718000D03*
X133300000Y-96718000D03*
X133300000Y-95702000D03*
X132284000Y-95702000D03*
X130252000Y-94178000D03*
X129490000Y-93416000D03*
X128601000Y-99258008D03*
X127999990Y-100093718D03*
X128994924Y-98211844D03*
X120790499Y-82303501D03*
X129200000Y-105000000D03*
X129200000Y-108000000D03*
D15*
X124200000Y-94600000D02*
X124200000Y-104800000D01*
X127975000Y-83002000D02*
X127975000Y-84175000D01*
X127975000Y-84175000D02*
X128200000Y-84400000D01*
X128200000Y-84400000D02*
X128200000Y-90600000D01*
X128200000Y-90600000D02*
X124200000Y-94600000D01*
X124200000Y-106200000D02*
X124925000Y-105475000D01*
X124925000Y-105475000D02*
X124925000Y-94675000D01*
X124925000Y-94675000D02*
X128800000Y-90800000D01*
X127984305Y-81986000D02*
X127975000Y-81986000D01*
X128800000Y-82801695D02*
X127984305Y-81986000D01*
X128800000Y-90800000D02*
X128800000Y-82801695D01*
G04 #@! TA.AperFunction,Conductor*
G36*
X109074075Y-108557007D02*
G01*
X109040000Y-108684174D01*
X109040000Y-108815826D01*
X109074075Y-108942993D01*
X109109297Y-109004000D01*
X107430703Y-109004000D01*
X107465925Y-108942993D01*
X107500000Y-108815826D01*
X107500000Y-108684174D01*
X107465925Y-108557007D01*
X107430703Y-108496000D01*
X109109297Y-108496000D01*
X109074075Y-108557007D01*
G37*
G04 #@! TD.AperFunction*
G04 #@! TA.AperFunction,Conductor*
G36*
X111614075Y-108557007D02*
G01*
X111580000Y-108684174D01*
X111580000Y-108815826D01*
X111614075Y-108942993D01*
X111649297Y-109004000D01*
X109970703Y-109004000D01*
X110005925Y-108942993D01*
X110040000Y-108815826D01*
X110040000Y-108684174D01*
X110005925Y-108557007D01*
X109970703Y-108496000D01*
X111649297Y-108496000D01*
X111614075Y-108557007D01*
G37*
G04 #@! TD.AperFunction*
G04 #@! TA.AperFunction,Conductor*
G36*
X166671776Y-70104793D02*
G01*
X166912793Y-70169373D01*
X166925336Y-70173449D01*
X167203671Y-70280292D01*
X167215719Y-70285656D01*
X167481368Y-70421010D01*
X167492785Y-70427601D01*
X167742838Y-70589988D01*
X167753495Y-70597732D01*
X167985197Y-70785360D01*
X167994998Y-70794185D01*
X168205814Y-71005001D01*
X168214639Y-71014802D01*
X168402263Y-71246498D01*
X168410015Y-71257167D01*
X168572394Y-71507208D01*
X168578989Y-71518631D01*
X168714343Y-71784280D01*
X168719707Y-71796327D01*
X168826550Y-72074661D01*
X168830626Y-72087205D01*
X168907790Y-72375188D01*
X168910532Y-72388088D01*
X168957172Y-72682563D01*
X168958550Y-72695679D01*
X168974327Y-72996698D01*
X168974500Y-73003293D01*
X168974500Y-82276655D01*
X168954498Y-82344776D01*
X168900842Y-82391269D01*
X168830568Y-82401373D01*
X168765988Y-82371879D01*
X168732091Y-82324874D01*
X168723238Y-82303501D01*
X168699412Y-82245980D01*
X168594516Y-82088992D01*
X168461008Y-81955484D01*
X168304020Y-81850588D01*
X168129584Y-81778334D01*
X167944407Y-81741500D01*
X167944404Y-81741500D01*
X167055596Y-81741500D01*
X167055592Y-81741500D01*
X166870415Y-81778334D01*
X166870410Y-81778336D01*
X166695980Y-81850588D01*
X166538996Y-81955481D01*
X166538989Y-81955486D01*
X166405486Y-82088989D01*
X166405481Y-82088996D01*
X166300588Y-82245980D01*
X166228336Y-82420410D01*
X166228334Y-82420415D01*
X166191500Y-82605592D01*
X166191500Y-82794407D01*
X166195014Y-82812072D01*
X166228334Y-82979584D01*
X166300588Y-83154020D01*
X166405484Y-83311008D01*
X166538992Y-83444516D01*
X166695980Y-83549412D01*
X166870416Y-83621666D01*
X167055596Y-83658500D01*
X167055597Y-83658500D01*
X167944403Y-83658500D01*
X167944404Y-83658500D01*
X168129584Y-83621666D01*
X168304020Y-83549412D01*
X168461008Y-83444516D01*
X168594516Y-83311008D01*
X168699412Y-83154020D01*
X168732091Y-83075125D01*
X168776640Y-83019845D01*
X168844003Y-82997424D01*
X168912794Y-83014982D01*
X168961172Y-83066944D01*
X168974500Y-83123344D01*
X168974500Y-88876655D01*
X168954498Y-88944776D01*
X168900842Y-88991269D01*
X168830568Y-89001373D01*
X168765988Y-88971879D01*
X168732091Y-88924874D01*
X168725131Y-88908072D01*
X168699412Y-88845980D01*
X168594516Y-88688992D01*
X168461008Y-88555484D01*
X168304020Y-88450588D01*
X168129584Y-88378334D01*
X168113853Y-88375205D01*
X167944407Y-88341500D01*
X167944404Y-88341500D01*
X167055596Y-88341500D01*
X167055592Y-88341500D01*
X166870415Y-88378334D01*
X166870410Y-88378336D01*
X166695980Y-88450588D01*
X166538996Y-88555481D01*
X166538989Y-88555486D01*
X166405486Y-88688989D01*
X166405481Y-88688996D01*
X166300588Y-88845980D01*
X166228336Y-89020410D01*
X166228334Y-89020415D01*
X166191500Y-89205592D01*
X166191500Y-89394407D01*
X166206448Y-89469554D01*
X166228334Y-89579584D01*
X166300588Y-89754020D01*
X166405484Y-89911008D01*
X166538992Y-90044516D01*
X166695980Y-90149412D01*
X166870416Y-90221666D01*
X167055596Y-90258500D01*
X167055597Y-90258500D01*
X167944403Y-90258500D01*
X167944404Y-90258500D01*
X168129584Y-90221666D01*
X168304020Y-90149412D01*
X168461008Y-90044516D01*
X168594516Y-89911008D01*
X168699412Y-89754020D01*
X168732091Y-89675125D01*
X168776640Y-89619845D01*
X168844003Y-89597424D01*
X168912794Y-89614982D01*
X168961172Y-89666944D01*
X168974500Y-89723344D01*
X168974500Y-116996706D01*
X168974327Y-117003301D01*
X168958550Y-117304320D01*
X168957172Y-117317436D01*
X168910532Y-117611911D01*
X168907790Y-117624811D01*
X168830626Y-117912794D01*
X168826550Y-117925338D01*
X168719707Y-118203672D01*
X168714343Y-118215719D01*
X168578989Y-118481368D01*
X168572394Y-118492791D01*
X168410015Y-118742832D01*
X168402263Y-118753501D01*
X168214639Y-118985197D01*
X168205814Y-118994998D01*
X167994998Y-119205814D01*
X167985197Y-119214639D01*
X167753501Y-119402263D01*
X167742832Y-119410015D01*
X167492791Y-119572394D01*
X167481368Y-119578989D01*
X167215719Y-119714343D01*
X167203671Y-119719707D01*
X166925336Y-119826550D01*
X166912794Y-119830626D01*
X166783623Y-119865237D01*
X166707228Y-119885707D01*
X166674620Y-119890000D01*
X102325380Y-119890000D01*
X102292771Y-119885707D01*
X102192316Y-119858790D01*
X102087205Y-119830626D01*
X102074663Y-119826550D01*
X101796328Y-119719707D01*
X101784280Y-119714343D01*
X101518631Y-119578989D01*
X101507208Y-119572394D01*
X101257167Y-119410015D01*
X101246498Y-119402263D01*
X101187493Y-119354482D01*
X101014802Y-119214639D01*
X101005001Y-119205814D01*
X100794185Y-118994998D01*
X100785360Y-118985197D01*
X100651459Y-118819843D01*
X100597732Y-118753495D01*
X100589988Y-118742838D01*
X100427601Y-118492785D01*
X100421010Y-118481368D01*
X100297733Y-118239420D01*
X100284000Y-118182218D01*
X100284000Y-116000000D01*
X101136656Y-116000000D01*
X101156016Y-116332403D01*
X101156016Y-116332409D01*
X101156017Y-116332414D01*
X101213838Y-116660333D01*
X101309337Y-116979321D01*
X101309339Y-116979327D01*
X101309340Y-116979328D01*
X101441220Y-117285063D01*
X101441223Y-117285068D01*
X101483619Y-117358500D01*
X101607711Y-117573433D01*
X101607714Y-117573437D01*
X101806552Y-117840523D01*
X102035057Y-118082724D01*
X102290134Y-118296758D01*
X102568320Y-118479724D01*
X102568328Y-118479729D01*
X102865887Y-118629169D01*
X102923304Y-118650067D01*
X103178775Y-118743051D01*
X103178776Y-118743051D01*
X103178784Y-118743054D01*
X103502786Y-118819843D01*
X103691771Y-118841932D01*
X103833508Y-118858500D01*
X103833511Y-118858500D01*
X104166492Y-118858500D01*
X104290510Y-118844003D01*
X104497214Y-118819843D01*
X104821216Y-118743054D01*
X105134113Y-118629169D01*
X105431672Y-118479729D01*
X105709870Y-118296755D01*
X105964946Y-118082721D01*
X106193449Y-117840522D01*
X106392289Y-117573433D01*
X106558778Y-117285066D01*
X106690663Y-116979321D01*
X106786162Y-116660333D01*
X106843983Y-116332414D01*
X106863344Y-116000000D01*
X106843983Y-115667586D01*
X106786162Y-115339667D01*
X106714814Y-115101350D01*
X107641500Y-115101350D01*
X107641500Y-116898649D01*
X107648009Y-116959196D01*
X107648011Y-116959204D01*
X107699110Y-117096202D01*
X107699112Y-117096207D01*
X107786738Y-117213261D01*
X107903792Y-117300887D01*
X107903794Y-117300888D01*
X107903796Y-117300889D01*
X107930690Y-117310920D01*
X108040795Y-117351988D01*
X108040803Y-117351990D01*
X108101350Y-117358499D01*
X108101355Y-117358499D01*
X108101362Y-117358500D01*
X108101368Y-117358500D01*
X109898632Y-117358500D01*
X109898638Y-117358500D01*
X109898645Y-117358499D01*
X109898649Y-117358499D01*
X109959196Y-117351990D01*
X109959199Y-117351989D01*
X109959201Y-117351989D01*
X110096204Y-117300889D01*
X110117339Y-117285068D01*
X110213261Y-117213261D01*
X110300886Y-117096208D01*
X110300885Y-117096208D01*
X110300889Y-117096204D01*
X110344999Y-116977939D01*
X110387545Y-116921107D01*
X110454066Y-116896296D01*
X110523440Y-116911388D01*
X110555753Y-116936635D01*
X110614085Y-117000000D01*
X110616762Y-117002908D01*
X110617267Y-117003301D01*
X110794424Y-117141189D01*
X110992426Y-117248342D01*
X110992427Y-117248342D01*
X110992428Y-117248343D01*
X111099391Y-117285063D01*
X111205365Y-117321444D01*
X111427431Y-117358500D01*
X111427435Y-117358500D01*
X111652565Y-117358500D01*
X111652569Y-117358500D01*
X111874635Y-117321444D01*
X112087574Y-117248342D01*
X112285576Y-117141189D01*
X112463240Y-117002906D01*
X112615722Y-116837268D01*
X112704518Y-116701354D01*
X112758520Y-116655268D01*
X112828868Y-116645692D01*
X112893225Y-116675669D01*
X112915480Y-116701353D01*
X112948607Y-116752058D01*
X113004275Y-116837265D01*
X113004279Y-116837270D01*
X113072511Y-116911388D01*
X113151052Y-116996706D01*
X113156762Y-117002908D01*
X113157267Y-117003301D01*
X113334424Y-117141189D01*
X113532426Y-117248342D01*
X113532427Y-117248342D01*
X113532428Y-117248343D01*
X113639391Y-117285063D01*
X113745365Y-117321444D01*
X113967431Y-117358500D01*
X113967435Y-117358500D01*
X114192565Y-117358500D01*
X114192569Y-117358500D01*
X114414635Y-117321444D01*
X114627574Y-117248342D01*
X114825576Y-117141189D01*
X115003240Y-117002906D01*
X115155722Y-116837268D01*
X115244518Y-116701354D01*
X115298520Y-116655268D01*
X115368868Y-116645692D01*
X115433225Y-116675669D01*
X115455480Y-116701353D01*
X115488607Y-116752058D01*
X115544275Y-116837265D01*
X115544279Y-116837270D01*
X115612511Y-116911388D01*
X115691052Y-116996706D01*
X115696762Y-117002908D01*
X115697267Y-117003301D01*
X115874424Y-117141189D01*
X116072426Y-117248342D01*
X116072427Y-117248342D01*
X116072428Y-117248343D01*
X116179391Y-117285063D01*
X116285365Y-117321444D01*
X116507431Y-117358500D01*
X116507435Y-117358500D01*
X116732565Y-117358500D01*
X116732569Y-117358500D01*
X116954635Y-117321444D01*
X117167574Y-117248342D01*
X117365576Y-117141189D01*
X117543240Y-117002906D01*
X117695722Y-116837268D01*
X117784518Y-116701354D01*
X117838520Y-116655268D01*
X117908868Y-116645692D01*
X117973225Y-116675669D01*
X117995480Y-116701353D01*
X118028607Y-116752058D01*
X118084275Y-116837265D01*
X118084279Y-116837270D01*
X118152511Y-116911388D01*
X118231052Y-116996706D01*
X118236762Y-117002908D01*
X118237267Y-117003301D01*
X118414424Y-117141189D01*
X118612426Y-117248342D01*
X118612427Y-117248342D01*
X118612428Y-117248343D01*
X118719391Y-117285063D01*
X118825365Y-117321444D01*
X119047431Y-117358500D01*
X119047435Y-117358500D01*
X119272565Y-117358500D01*
X119272569Y-117358500D01*
X119494635Y-117321444D01*
X119707574Y-117248342D01*
X119905576Y-117141189D01*
X120083240Y-117002906D01*
X120235722Y-116837268D01*
X120324518Y-116701354D01*
X120378520Y-116655268D01*
X120448868Y-116645692D01*
X120513225Y-116675669D01*
X120535480Y-116701353D01*
X120568607Y-116752058D01*
X120624275Y-116837265D01*
X120624279Y-116837270D01*
X120692511Y-116911388D01*
X120771052Y-116996706D01*
X120776762Y-117002908D01*
X120777267Y-117003301D01*
X120954424Y-117141189D01*
X121152426Y-117248342D01*
X121152427Y-117248342D01*
X121152428Y-117248343D01*
X121259391Y-117285063D01*
X121365365Y-117321444D01*
X121587431Y-117358500D01*
X121587435Y-117358500D01*
X121812565Y-117358500D01*
X121812569Y-117358500D01*
X122034635Y-117321444D01*
X122247574Y-117248342D01*
X122445576Y-117141189D01*
X122623240Y-117002906D01*
X122775722Y-116837268D01*
X122864518Y-116701354D01*
X122918520Y-116655268D01*
X122988868Y-116645692D01*
X123053225Y-116675669D01*
X123075480Y-116701353D01*
X123108607Y-116752058D01*
X123164275Y-116837265D01*
X123164279Y-116837270D01*
X123232511Y-116911388D01*
X123311052Y-116996706D01*
X123316762Y-117002908D01*
X123317267Y-117003301D01*
X123494424Y-117141189D01*
X123692426Y-117248342D01*
X123692427Y-117248342D01*
X123692428Y-117248343D01*
X123799391Y-117285063D01*
X123905365Y-117321444D01*
X124127431Y-117358500D01*
X124127435Y-117358500D01*
X124352565Y-117358500D01*
X124352569Y-117358500D01*
X124574635Y-117321444D01*
X124787574Y-117248342D01*
X124985576Y-117141189D01*
X125163240Y-117002906D01*
X125315722Y-116837268D01*
X125404518Y-116701354D01*
X125458520Y-116655268D01*
X125528868Y-116645692D01*
X125593225Y-116675669D01*
X125615480Y-116701353D01*
X125648607Y-116752058D01*
X125704275Y-116837265D01*
X125704279Y-116837270D01*
X125772511Y-116911388D01*
X125851052Y-116996706D01*
X125856762Y-117002908D01*
X125857267Y-117003301D01*
X126034424Y-117141189D01*
X126232426Y-117248342D01*
X126232427Y-117248342D01*
X126232428Y-117248343D01*
X126339391Y-117285063D01*
X126445365Y-117321444D01*
X126667431Y-117358500D01*
X126667435Y-117358500D01*
X126892565Y-117358500D01*
X126892569Y-117358500D01*
X127114635Y-117321444D01*
X127327574Y-117248342D01*
X127525576Y-117141189D01*
X127703240Y-117002906D01*
X127855722Y-116837268D01*
X127944518Y-116701354D01*
X127998520Y-116655268D01*
X128068868Y-116645692D01*
X128133225Y-116675669D01*
X128155480Y-116701353D01*
X128188607Y-116752058D01*
X128244275Y-116837265D01*
X128244279Y-116837270D01*
X128312511Y-116911388D01*
X128391052Y-116996706D01*
X128396762Y-117002908D01*
X128397267Y-117003301D01*
X128574424Y-117141189D01*
X128772426Y-117248342D01*
X128772427Y-117248342D01*
X128772428Y-117248343D01*
X128879391Y-117285063D01*
X128985365Y-117321444D01*
X129207431Y-117358500D01*
X129207435Y-117358500D01*
X129432565Y-117358500D01*
X129432569Y-117358500D01*
X129654635Y-117321444D01*
X129867574Y-117248342D01*
X130065576Y-117141189D01*
X130243240Y-117002906D01*
X130395722Y-116837268D01*
X130484518Y-116701354D01*
X130538520Y-116655268D01*
X130608868Y-116645692D01*
X130673225Y-116675669D01*
X130695480Y-116701353D01*
X130728607Y-116752058D01*
X130784275Y-116837265D01*
X130784279Y-116837270D01*
X130852511Y-116911388D01*
X130931052Y-116996706D01*
X130936762Y-117002908D01*
X130937267Y-117003301D01*
X131114424Y-117141189D01*
X131312426Y-117248342D01*
X131312427Y-117248342D01*
X131312428Y-117248343D01*
X131419391Y-117285063D01*
X131525365Y-117321444D01*
X131747431Y-117358500D01*
X131747435Y-117358500D01*
X131972565Y-117358500D01*
X131972569Y-117358500D01*
X132194635Y-117321444D01*
X132407574Y-117248342D01*
X132605576Y-117141189D01*
X132783240Y-117002906D01*
X132935722Y-116837268D01*
X133024518Y-116701354D01*
X133078520Y-116655268D01*
X133148868Y-116645692D01*
X133213225Y-116675669D01*
X133235480Y-116701353D01*
X133268607Y-116752058D01*
X133324275Y-116837265D01*
X133324279Y-116837270D01*
X133392511Y-116911388D01*
X133471052Y-116996706D01*
X133476762Y-117002908D01*
X133477267Y-117003301D01*
X133654424Y-117141189D01*
X133852426Y-117248342D01*
X133852427Y-117248342D01*
X133852428Y-117248343D01*
X133959391Y-117285063D01*
X134065365Y-117321444D01*
X134287431Y-117358500D01*
X134287435Y-117358500D01*
X134512565Y-117358500D01*
X134512569Y-117358500D01*
X134734635Y-117321444D01*
X134947574Y-117248342D01*
X135145576Y-117141189D01*
X135323240Y-117002906D01*
X135475722Y-116837268D01*
X135564518Y-116701354D01*
X135618520Y-116655268D01*
X135688868Y-116645692D01*
X135753225Y-116675669D01*
X135775480Y-116701353D01*
X135808607Y-116752058D01*
X135864275Y-116837265D01*
X135864279Y-116837270D01*
X135932511Y-116911388D01*
X136011052Y-116996706D01*
X136016762Y-117002908D01*
X136017267Y-117003301D01*
X136194424Y-117141189D01*
X136392426Y-117248342D01*
X136392427Y-117248342D01*
X136392428Y-117248343D01*
X136499391Y-117285063D01*
X136605365Y-117321444D01*
X136827431Y-117358500D01*
X136827435Y-117358500D01*
X137052565Y-117358500D01*
X137052569Y-117358500D01*
X137274635Y-117321444D01*
X137487574Y-117248342D01*
X137685576Y-117141189D01*
X137863240Y-117002906D01*
X138015722Y-116837268D01*
X138104518Y-116701354D01*
X138158520Y-116655268D01*
X138228868Y-116645692D01*
X138293225Y-116675669D01*
X138315480Y-116701353D01*
X138348607Y-116752058D01*
X138404275Y-116837265D01*
X138404279Y-116837270D01*
X138472511Y-116911388D01*
X138551052Y-116996706D01*
X138556762Y-117002908D01*
X138557267Y-117003301D01*
X138734424Y-117141189D01*
X138932426Y-117248342D01*
X138932427Y-117248342D01*
X138932428Y-117248343D01*
X139039391Y-117285063D01*
X139145365Y-117321444D01*
X139367431Y-117358500D01*
X139367435Y-117358500D01*
X139592565Y-117358500D01*
X139592569Y-117358500D01*
X139814635Y-117321444D01*
X140027574Y-117248342D01*
X140225576Y-117141189D01*
X140403240Y-117002906D01*
X140555722Y-116837268D01*
X140644518Y-116701354D01*
X140698520Y-116655268D01*
X140768868Y-116645692D01*
X140833225Y-116675669D01*
X140855480Y-116701353D01*
X140888607Y-116752058D01*
X140944275Y-116837265D01*
X140944279Y-116837270D01*
X141012511Y-116911388D01*
X141091052Y-116996706D01*
X141096762Y-117002908D01*
X141097267Y-117003301D01*
X141274424Y-117141189D01*
X141472426Y-117248342D01*
X141472427Y-117248342D01*
X141472428Y-117248343D01*
X141579391Y-117285063D01*
X141685365Y-117321444D01*
X141907431Y-117358500D01*
X141907435Y-117358500D01*
X142132565Y-117358500D01*
X142132569Y-117358500D01*
X142354635Y-117321444D01*
X142567574Y-117248342D01*
X142765576Y-117141189D01*
X142943240Y-117002906D01*
X143095722Y-116837268D01*
X143184518Y-116701354D01*
X143238520Y-116655268D01*
X143308868Y-116645692D01*
X143373225Y-116675669D01*
X143395480Y-116701353D01*
X143428607Y-116752058D01*
X143484275Y-116837265D01*
X143484279Y-116837270D01*
X143552511Y-116911388D01*
X143631052Y-116996706D01*
X143636762Y-117002908D01*
X143637267Y-117003301D01*
X143814424Y-117141189D01*
X144012426Y-117248342D01*
X144012427Y-117248342D01*
X144012428Y-117248343D01*
X144119391Y-117285063D01*
X144225365Y-117321444D01*
X144447431Y-117358500D01*
X144447435Y-117358500D01*
X144672565Y-117358500D01*
X144672569Y-117358500D01*
X144894635Y-117321444D01*
X145107574Y-117248342D01*
X145305576Y-117141189D01*
X145483240Y-117002906D01*
X145635722Y-116837268D01*
X145724518Y-116701354D01*
X145778520Y-116655268D01*
X145848868Y-116645692D01*
X145913225Y-116675669D01*
X145935480Y-116701353D01*
X145968607Y-116752058D01*
X146024275Y-116837265D01*
X146024279Y-116837270D01*
X146092511Y-116911388D01*
X146171052Y-116996706D01*
X146176762Y-117002908D01*
X146177267Y-117003301D01*
X146354424Y-117141189D01*
X146552426Y-117248342D01*
X146552427Y-117248342D01*
X146552428Y-117248343D01*
X146659391Y-117285063D01*
X146765365Y-117321444D01*
X146987431Y-117358500D01*
X146987435Y-117358500D01*
X147212565Y-117358500D01*
X147212569Y-117358500D01*
X147434635Y-117321444D01*
X147647574Y-117248342D01*
X147845576Y-117141189D01*
X148023240Y-117002906D01*
X148175722Y-116837268D01*
X148298860Y-116648791D01*
X148389296Y-116442616D01*
X148444564Y-116224368D01*
X148463156Y-116000000D01*
X162136656Y-116000000D01*
X162156016Y-116332403D01*
X162156016Y-116332409D01*
X162156017Y-116332414D01*
X162213838Y-116660333D01*
X162309337Y-116979321D01*
X162309339Y-116979327D01*
X162309340Y-116979328D01*
X162441220Y-117285063D01*
X162441223Y-117285068D01*
X162483619Y-117358500D01*
X162607711Y-117573433D01*
X162607714Y-117573437D01*
X162806552Y-117840523D01*
X163035057Y-118082724D01*
X163290134Y-118296758D01*
X163568320Y-118479724D01*
X163568328Y-118479729D01*
X163865887Y-118629169D01*
X163923304Y-118650067D01*
X164178775Y-118743051D01*
X164178776Y-118743051D01*
X164178784Y-118743054D01*
X164502786Y-118819843D01*
X164691771Y-118841932D01*
X164833508Y-118858500D01*
X164833511Y-118858500D01*
X165166492Y-118858500D01*
X165290510Y-118844003D01*
X165497214Y-118819843D01*
X165821216Y-118743054D01*
X166134113Y-118629169D01*
X166431672Y-118479729D01*
X166709870Y-118296755D01*
X166964946Y-118082721D01*
X167193449Y-117840522D01*
X167392289Y-117573433D01*
X167558778Y-117285066D01*
X167690663Y-116979321D01*
X167786162Y-116660333D01*
X167843983Y-116332414D01*
X167863344Y-116000000D01*
X167843983Y-115667586D01*
X167786162Y-115339667D01*
X167690663Y-115020679D01*
X167558778Y-114714934D01*
X167392289Y-114426567D01*
X167193449Y-114159478D01*
X166964946Y-113917279D01*
X166964944Y-113917278D01*
X166964942Y-113917275D01*
X166709865Y-113703241D01*
X166431679Y-113520275D01*
X166431675Y-113520273D01*
X166431672Y-113520271D01*
X166134113Y-113370831D01*
X166134108Y-113370829D01*
X166134103Y-113370827D01*
X165821224Y-113256948D01*
X165821217Y-113256946D01*
X165821216Y-113256946D01*
X165639258Y-113213821D01*
X165497219Y-113180158D01*
X165497209Y-113180156D01*
X165166492Y-113141500D01*
X165166489Y-113141500D01*
X164833511Y-113141500D01*
X164833508Y-113141500D01*
X164502790Y-113180156D01*
X164502780Y-113180158D01*
X164178784Y-113256946D01*
X164178775Y-113256948D01*
X163865896Y-113370827D01*
X163865891Y-113370829D01*
X163568320Y-113520275D01*
X163290134Y-113703241D01*
X163035057Y-113917275D01*
X162806552Y-114159476D01*
X162607714Y-114426562D01*
X162607704Y-114426578D01*
X162441223Y-114714931D01*
X162441220Y-114714936D01*
X162309340Y-115020671D01*
X162309337Y-115020679D01*
X162286249Y-115097798D01*
X162213838Y-115339666D01*
X162156016Y-115667590D01*
X162156016Y-115667596D01*
X162136656Y-116000000D01*
X148463156Y-116000000D01*
X148444564Y-115775632D01*
X148389296Y-115557384D01*
X148298860Y-115351209D01*
X148281500Y-115324637D01*
X148175724Y-115162734D01*
X148175720Y-115162729D01*
X148023237Y-114997091D01*
X147903367Y-114903792D01*
X147845576Y-114858811D01*
X147647574Y-114751658D01*
X147647572Y-114751657D01*
X147647571Y-114751656D01*
X147434639Y-114678557D01*
X147434630Y-114678555D01*
X147390476Y-114671187D01*
X147212569Y-114641500D01*
X146987431Y-114641500D01*
X146839211Y-114666233D01*
X146765369Y-114678555D01*
X146765360Y-114678557D01*
X146552428Y-114751656D01*
X146552426Y-114751658D01*
X146354426Y-114858810D01*
X146354424Y-114858811D01*
X146176762Y-114997091D01*
X146024279Y-115162729D01*
X145935483Y-115298643D01*
X145881479Y-115344731D01*
X145811131Y-115354306D01*
X145746774Y-115324329D01*
X145724517Y-115298643D01*
X145635720Y-115162729D01*
X145483237Y-114997091D01*
X145363367Y-114903792D01*
X145305576Y-114858811D01*
X145107574Y-114751658D01*
X145107572Y-114751657D01*
X145107571Y-114751656D01*
X144894639Y-114678557D01*
X144894630Y-114678555D01*
X144850476Y-114671187D01*
X144672569Y-114641500D01*
X144447431Y-114641500D01*
X144299211Y-114666233D01*
X144225369Y-114678555D01*
X144225360Y-114678557D01*
X144012428Y-114751656D01*
X144012426Y-114751658D01*
X143814426Y-114858810D01*
X143814424Y-114858811D01*
X143636762Y-114997091D01*
X143484279Y-115162729D01*
X143395483Y-115298643D01*
X143341479Y-115344731D01*
X143271131Y-115354306D01*
X143206774Y-115324329D01*
X143184517Y-115298643D01*
X143095720Y-115162729D01*
X142943237Y-114997091D01*
X142823367Y-114903792D01*
X142765576Y-114858811D01*
X142567574Y-114751658D01*
X142567572Y-114751657D01*
X142567571Y-114751656D01*
X142354639Y-114678557D01*
X142354630Y-114678555D01*
X142310476Y-114671187D01*
X142132569Y-114641500D01*
X141907431Y-114641500D01*
X141759211Y-114666233D01*
X141685369Y-114678555D01*
X141685360Y-114678557D01*
X141472428Y-114751656D01*
X141472426Y-114751658D01*
X141274426Y-114858810D01*
X141274424Y-114858811D01*
X141096762Y-114997091D01*
X140944279Y-115162729D01*
X140855483Y-115298643D01*
X140801479Y-115344731D01*
X140731131Y-115354306D01*
X140666774Y-115324329D01*
X140644517Y-115298643D01*
X140555720Y-115162729D01*
X140403237Y-114997091D01*
X140283367Y-114903792D01*
X140225576Y-114858811D01*
X140027574Y-114751658D01*
X140027572Y-114751657D01*
X140027571Y-114751656D01*
X139814639Y-114678557D01*
X139814630Y-114678555D01*
X139770476Y-114671187D01*
X139592569Y-114641500D01*
X139367431Y-114641500D01*
X139219211Y-114666233D01*
X139145369Y-114678555D01*
X139145360Y-114678557D01*
X138932428Y-114751656D01*
X138932426Y-114751658D01*
X138734426Y-114858810D01*
X138734424Y-114858811D01*
X138556762Y-114997091D01*
X138404279Y-115162729D01*
X138315483Y-115298643D01*
X138261479Y-115344731D01*
X138191131Y-115354306D01*
X138126774Y-115324329D01*
X138104517Y-115298643D01*
X138015720Y-115162729D01*
X137863237Y-114997091D01*
X137743367Y-114903792D01*
X137685576Y-114858811D01*
X137487574Y-114751658D01*
X137487572Y-114751657D01*
X137487571Y-114751656D01*
X137274639Y-114678557D01*
X137274630Y-114678555D01*
X137230476Y-114671187D01*
X137052569Y-114641500D01*
X136827431Y-114641500D01*
X136679211Y-114666233D01*
X136605369Y-114678555D01*
X136605360Y-114678557D01*
X136392428Y-114751656D01*
X136392426Y-114751658D01*
X136194426Y-114858810D01*
X136194424Y-114858811D01*
X136016762Y-114997091D01*
X135864279Y-115162729D01*
X135775483Y-115298643D01*
X135721479Y-115344731D01*
X135651131Y-115354306D01*
X135586774Y-115324329D01*
X135564517Y-115298643D01*
X135475720Y-115162729D01*
X135323237Y-114997091D01*
X135203367Y-114903792D01*
X135145576Y-114858811D01*
X134947574Y-114751658D01*
X134947572Y-114751657D01*
X134947571Y-114751656D01*
X134734639Y-114678557D01*
X134734630Y-114678555D01*
X134690476Y-114671187D01*
X134512569Y-114641500D01*
X134287431Y-114641500D01*
X134139211Y-114666233D01*
X134065369Y-114678555D01*
X134065360Y-114678557D01*
X133852428Y-114751656D01*
X133852426Y-114751658D01*
X133654426Y-114858810D01*
X133654424Y-114858811D01*
X133476762Y-114997091D01*
X133324279Y-115162729D01*
X133235483Y-115298643D01*
X133181479Y-115344731D01*
X133111131Y-115354306D01*
X133046774Y-115324329D01*
X133024517Y-115298643D01*
X132935720Y-115162729D01*
X132783237Y-114997091D01*
X132663367Y-114903792D01*
X132605576Y-114858811D01*
X132407574Y-114751658D01*
X132407572Y-114751657D01*
X132407571Y-114751656D01*
X132194639Y-114678557D01*
X132194630Y-114678555D01*
X132150476Y-114671187D01*
X131972569Y-114641500D01*
X131747431Y-114641500D01*
X131599211Y-114666233D01*
X131525369Y-114678555D01*
X131525360Y-114678557D01*
X131312428Y-114751656D01*
X131312426Y-114751658D01*
X131114426Y-114858810D01*
X131114424Y-114858811D01*
X130936762Y-114997091D01*
X130784279Y-115162729D01*
X130695483Y-115298643D01*
X130641479Y-115344731D01*
X130571131Y-115354306D01*
X130506774Y-115324329D01*
X130484517Y-115298643D01*
X130395720Y-115162729D01*
X130243237Y-114997091D01*
X130123367Y-114903792D01*
X130065576Y-114858811D01*
X129867574Y-114751658D01*
X129867572Y-114751657D01*
X129867571Y-114751656D01*
X129654639Y-114678557D01*
X129654630Y-114678555D01*
X129610476Y-114671187D01*
X129432569Y-114641500D01*
X129207431Y-114641500D01*
X129059211Y-114666233D01*
X128985369Y-114678555D01*
X128985360Y-114678557D01*
X128772428Y-114751656D01*
X128772426Y-114751658D01*
X128574426Y-114858810D01*
X128574424Y-114858811D01*
X128396762Y-114997091D01*
X128244279Y-115162729D01*
X128155483Y-115298643D01*
X128101479Y-115344731D01*
X128031131Y-115354306D01*
X127966774Y-115324329D01*
X127944517Y-115298643D01*
X127855720Y-115162729D01*
X127703237Y-114997091D01*
X127583367Y-114903792D01*
X127525576Y-114858811D01*
X127327574Y-114751658D01*
X127327572Y-114751657D01*
X127327571Y-114751656D01*
X127114639Y-114678557D01*
X127114630Y-114678555D01*
X127070476Y-114671187D01*
X126892569Y-114641500D01*
X126667431Y-114641500D01*
X126519211Y-114666233D01*
X126445369Y-114678555D01*
X126445360Y-114678557D01*
X126232428Y-114751656D01*
X126232426Y-114751658D01*
X126034426Y-114858810D01*
X126034424Y-114858811D01*
X125856762Y-114997091D01*
X125704279Y-115162729D01*
X125615483Y-115298643D01*
X125561479Y-115344731D01*
X125491131Y-115354306D01*
X125426774Y-115324329D01*
X125404517Y-115298643D01*
X125315720Y-115162729D01*
X125163237Y-114997091D01*
X125043367Y-114903792D01*
X124985576Y-114858811D01*
X124787574Y-114751658D01*
X124787572Y-114751657D01*
X124787571Y-114751656D01*
X124574639Y-114678557D01*
X124574630Y-114678555D01*
X124530476Y-114671187D01*
X124352569Y-114641500D01*
X124127431Y-114641500D01*
X123979211Y-114666233D01*
X123905369Y-114678555D01*
X123905360Y-114678557D01*
X123692428Y-114751656D01*
X123692426Y-114751658D01*
X123494426Y-114858810D01*
X123494424Y-114858811D01*
X123316762Y-114997091D01*
X123164279Y-115162729D01*
X123075483Y-115298643D01*
X123021479Y-115344731D01*
X122951131Y-115354306D01*
X122886774Y-115324329D01*
X122864517Y-115298643D01*
X122775720Y-115162729D01*
X122623237Y-114997091D01*
X122503367Y-114903792D01*
X122445576Y-114858811D01*
X122247574Y-114751658D01*
X122247572Y-114751657D01*
X122247571Y-114751656D01*
X122034639Y-114678557D01*
X122034630Y-114678555D01*
X121990476Y-114671187D01*
X121812569Y-114641500D01*
X121587431Y-114641500D01*
X121439211Y-114666233D01*
X121365369Y-114678555D01*
X121365360Y-114678557D01*
X121152428Y-114751656D01*
X121152426Y-114751658D01*
X120954426Y-114858810D01*
X120954424Y-114858811D01*
X120776762Y-114997091D01*
X120624279Y-115162729D01*
X120535483Y-115298643D01*
X120481479Y-115344731D01*
X120411131Y-115354306D01*
X120346774Y-115324329D01*
X120324517Y-115298643D01*
X120235720Y-115162729D01*
X120083237Y-114997091D01*
X119963367Y-114903792D01*
X119905576Y-114858811D01*
X119707574Y-114751658D01*
X119707572Y-114751657D01*
X119707571Y-114751656D01*
X119494639Y-114678557D01*
X119494630Y-114678555D01*
X119450476Y-114671187D01*
X119272569Y-114641500D01*
X119047431Y-114641500D01*
X118899211Y-114666233D01*
X118825369Y-114678555D01*
X118825360Y-114678557D01*
X118612428Y-114751656D01*
X118612426Y-114751658D01*
X118414426Y-114858810D01*
X118414424Y-114858811D01*
X118236762Y-114997091D01*
X118084279Y-115162729D01*
X117995483Y-115298643D01*
X117941479Y-115344731D01*
X117871131Y-115354306D01*
X117806774Y-115324329D01*
X117784517Y-115298643D01*
X117695720Y-115162729D01*
X117543237Y-114997091D01*
X117423367Y-114903792D01*
X117365576Y-114858811D01*
X117167574Y-114751658D01*
X117167572Y-114751657D01*
X117167571Y-114751656D01*
X116954639Y-114678557D01*
X116954630Y-114678555D01*
X116910476Y-114671187D01*
X116732569Y-114641500D01*
X116507431Y-114641500D01*
X116359211Y-114666233D01*
X116285369Y-114678555D01*
X116285360Y-114678557D01*
X116072428Y-114751656D01*
X116072426Y-114751658D01*
X115874426Y-114858810D01*
X115874424Y-114858811D01*
X115696762Y-114997091D01*
X115544279Y-115162729D01*
X115455483Y-115298643D01*
X115401479Y-115344731D01*
X115331131Y-115354306D01*
X115266774Y-115324329D01*
X115244517Y-115298643D01*
X115155720Y-115162729D01*
X115003237Y-114997091D01*
X114883367Y-114903792D01*
X114825576Y-114858811D01*
X114627574Y-114751658D01*
X114627572Y-114751657D01*
X114627571Y-114751656D01*
X114414639Y-114678557D01*
X114414630Y-114678555D01*
X114370476Y-114671187D01*
X114192569Y-114641500D01*
X113967431Y-114641500D01*
X113819211Y-114666233D01*
X113745369Y-114678555D01*
X113745360Y-114678557D01*
X113532428Y-114751656D01*
X113532426Y-114751658D01*
X113334426Y-114858810D01*
X113334424Y-114858811D01*
X113156762Y-114997091D01*
X113004279Y-115162729D01*
X112915483Y-115298643D01*
X112861479Y-115344731D01*
X112791131Y-115354306D01*
X112726774Y-115324329D01*
X112704517Y-115298643D01*
X112615720Y-115162729D01*
X112463237Y-114997091D01*
X112343367Y-114903792D01*
X112285576Y-114858811D01*
X112087574Y-114751658D01*
X112087572Y-114751657D01*
X112087571Y-114751656D01*
X111874639Y-114678557D01*
X111874630Y-114678555D01*
X111830476Y-114671187D01*
X111652569Y-114641500D01*
X111427431Y-114641500D01*
X111279211Y-114666233D01*
X111205369Y-114678555D01*
X111205360Y-114678557D01*
X110992428Y-114751656D01*
X110992426Y-114751658D01*
X110794426Y-114858810D01*
X110794424Y-114858811D01*
X110616762Y-114997091D01*
X110555754Y-115063363D01*
X110494901Y-115099933D01*
X110423936Y-115097798D01*
X110365391Y-115057636D01*
X110344999Y-115022057D01*
X110300889Y-114903797D01*
X110300887Y-114903792D01*
X110213261Y-114786738D01*
X110096207Y-114699112D01*
X110096202Y-114699110D01*
X109959204Y-114648011D01*
X109959196Y-114648009D01*
X109898649Y-114641500D01*
X109898638Y-114641500D01*
X108101362Y-114641500D01*
X108101350Y-114641500D01*
X108040803Y-114648009D01*
X108040795Y-114648011D01*
X107903797Y-114699110D01*
X107903792Y-114699112D01*
X107786738Y-114786738D01*
X107699112Y-114903792D01*
X107699110Y-114903797D01*
X107648011Y-115040795D01*
X107648009Y-115040803D01*
X107641500Y-115101350D01*
X106714814Y-115101350D01*
X106690663Y-115020679D01*
X106558778Y-114714934D01*
X106392289Y-114426567D01*
X106193449Y-114159478D01*
X105964946Y-113917279D01*
X105964944Y-113917278D01*
X105964942Y-113917275D01*
X105709865Y-113703241D01*
X105431679Y-113520275D01*
X105431675Y-113520273D01*
X105431672Y-113520271D01*
X105134113Y-113370831D01*
X105134108Y-113370829D01*
X105134103Y-113370827D01*
X104821224Y-113256948D01*
X104821217Y-113256946D01*
X104821216Y-113256946D01*
X104639258Y-113213821D01*
X104497219Y-113180158D01*
X104497209Y-113180156D01*
X104166492Y-113141500D01*
X104166489Y-113141500D01*
X103833511Y-113141500D01*
X103833508Y-113141500D01*
X103502790Y-113180156D01*
X103502780Y-113180158D01*
X103178784Y-113256946D01*
X103178775Y-113256948D01*
X102865896Y-113370827D01*
X102865891Y-113370829D01*
X102568320Y-113520275D01*
X102290134Y-113703241D01*
X102035057Y-113917275D01*
X101806552Y-114159476D01*
X101607714Y-114426562D01*
X101607704Y-114426578D01*
X101441223Y-114714931D01*
X101441220Y-114714936D01*
X101309340Y-115020671D01*
X101309337Y-115020679D01*
X101286249Y-115097798D01*
X101213838Y-115339666D01*
X101156016Y-115667590D01*
X101156016Y-115667596D01*
X101136656Y-116000000D01*
X100284000Y-116000000D01*
X100284000Y-111290000D01*
X105636844Y-111290000D01*
X105643602Y-111371561D01*
X105655437Y-111514375D01*
X105710702Y-111732612D01*
X105710703Y-111732613D01*
X105801141Y-111938793D01*
X105924275Y-112127265D01*
X105924279Y-112127270D01*
X106076762Y-112292908D01*
X106131331Y-112335381D01*
X106254424Y-112431189D01*
X106452426Y-112538342D01*
X106452427Y-112538342D01*
X106452428Y-112538343D01*
X106564227Y-112576723D01*
X106665365Y-112611444D01*
X106887431Y-112648500D01*
X106887435Y-112648500D01*
X107112565Y-112648500D01*
X107112569Y-112648500D01*
X107334635Y-112611444D01*
X107547574Y-112538342D01*
X107745576Y-112431189D01*
X107923240Y-112292906D01*
X108075722Y-112127268D01*
X108164518Y-111991354D01*
X108218520Y-111945268D01*
X108288868Y-111935692D01*
X108353225Y-111965669D01*
X108375480Y-111991353D01*
X108408607Y-112042058D01*
X108464275Y-112127265D01*
X108464279Y-112127270D01*
X108616762Y-112292908D01*
X108671331Y-112335381D01*
X108794424Y-112431189D01*
X108992426Y-112538342D01*
X108992427Y-112538342D01*
X108992428Y-112538343D01*
X109104227Y-112576723D01*
X109205365Y-112611444D01*
X109427431Y-112648500D01*
X109427435Y-112648500D01*
X109652565Y-112648500D01*
X109652569Y-112648500D01*
X109874635Y-112611444D01*
X110087574Y-112538342D01*
X110285576Y-112431189D01*
X110463240Y-112292906D01*
X110615722Y-112127268D01*
X110704518Y-111991354D01*
X110758520Y-111945268D01*
X110828868Y-111935692D01*
X110893225Y-111965669D01*
X110915480Y-111991353D01*
X110948607Y-112042058D01*
X111004275Y-112127265D01*
X111004279Y-112127270D01*
X111156762Y-112292908D01*
X111211331Y-112335381D01*
X111334424Y-112431189D01*
X111532426Y-112538342D01*
X111532427Y-112538342D01*
X111532428Y-112538343D01*
X111644227Y-112576723D01*
X111745365Y-112611444D01*
X111967431Y-112648500D01*
X111967435Y-112648500D01*
X112192565Y-112648500D01*
X112192569Y-112648500D01*
X112414635Y-112611444D01*
X112627574Y-112538342D01*
X112825576Y-112431189D01*
X113003240Y-112292906D01*
X113155722Y-112127268D01*
X113278860Y-111938791D01*
X113369296Y-111732616D01*
X113424564Y-111514368D01*
X113443156Y-111290000D01*
X113424564Y-111065632D01*
X113407944Y-111000000D01*
X139086496Y-111000000D01*
X139106457Y-111189927D01*
X139136526Y-111282470D01*
X139165473Y-111371556D01*
X139165476Y-111371561D01*
X139260958Y-111536941D01*
X139260965Y-111536951D01*
X139388744Y-111678864D01*
X139388747Y-111678866D01*
X139543248Y-111791118D01*
X139717712Y-111868794D01*
X139904513Y-111908500D01*
X140095487Y-111908500D01*
X140282288Y-111868794D01*
X140456752Y-111791118D01*
X140611253Y-111678866D01*
X140739040Y-111536944D01*
X140834527Y-111371556D01*
X140893542Y-111189928D01*
X140913504Y-111000000D01*
X140893542Y-110810072D01*
X140834527Y-110628444D01*
X140739040Y-110463056D01*
X140739038Y-110463054D01*
X140739034Y-110463048D01*
X140611255Y-110321135D01*
X140456752Y-110208882D01*
X140282288Y-110131206D01*
X140095487Y-110091500D01*
X139904513Y-110091500D01*
X139717711Y-110131206D01*
X139543247Y-110208882D01*
X139388744Y-110321135D01*
X139260965Y-110463048D01*
X139260958Y-110463058D01*
X139188452Y-110588643D01*
X139165473Y-110628444D01*
X139160319Y-110644306D01*
X139106457Y-110810072D01*
X139086496Y-111000000D01*
X113407944Y-111000000D01*
X113369296Y-110847384D01*
X113278860Y-110641209D01*
X113270516Y-110628438D01*
X113155724Y-110452734D01*
X113155714Y-110452722D01*
X113012159Y-110296782D01*
X112980737Y-110233117D01*
X112988723Y-110162571D01*
X113033582Y-110107542D01*
X113060827Y-110093388D01*
X113175965Y-110050444D01*
X113243350Y-110000000D01*
X130086496Y-110000000D01*
X130106457Y-110189927D01*
X130120491Y-110233117D01*
X130165473Y-110371556D01*
X130165476Y-110371561D01*
X130260958Y-110536941D01*
X130260965Y-110536951D01*
X130388744Y-110678864D01*
X130388747Y-110678866D01*
X130543248Y-110791118D01*
X130717712Y-110868794D01*
X130904513Y-110908500D01*
X131095487Y-110908500D01*
X131282288Y-110868794D01*
X131456752Y-110791118D01*
X131611253Y-110678866D01*
X131642371Y-110644306D01*
X131739034Y-110536951D01*
X131739035Y-110536949D01*
X131739040Y-110536944D01*
X131834527Y-110371556D01*
X131893542Y-110189928D01*
X131913504Y-110000000D01*
X131893542Y-109810072D01*
X131834527Y-109628444D01*
X131739040Y-109463056D01*
X131739038Y-109463054D01*
X131739034Y-109463048D01*
X131611255Y-109321135D01*
X131456752Y-109208882D01*
X131282288Y-109131206D01*
X131095487Y-109091500D01*
X130904513Y-109091500D01*
X130717711Y-109131206D01*
X130543247Y-109208882D01*
X130388744Y-109321135D01*
X130260965Y-109463048D01*
X130260958Y-109463058D01*
X130165476Y-109628438D01*
X130165473Y-109628445D01*
X130106457Y-109810072D01*
X130086496Y-110000000D01*
X113243350Y-110000000D01*
X113292904Y-109962904D01*
X113380444Y-109845965D01*
X113380444Y-109845964D01*
X113431494Y-109709093D01*
X113437999Y-109648597D01*
X113438000Y-109648585D01*
X113438000Y-109004000D01*
X112510703Y-109004000D01*
X112545925Y-108942993D01*
X112580000Y-108815826D01*
X112580000Y-108684174D01*
X112545925Y-108557007D01*
X112510703Y-108496000D01*
X113438000Y-108496000D01*
X113438000Y-108000000D01*
X128286496Y-108000000D01*
X128306457Y-108189927D01*
X128336526Y-108282470D01*
X128365473Y-108371556D01*
X128365476Y-108371561D01*
X128460958Y-108536941D01*
X128460965Y-108536951D01*
X128588744Y-108678864D01*
X128588747Y-108678866D01*
X128743248Y-108791118D01*
X128917712Y-108868794D01*
X129104513Y-108908500D01*
X129295487Y-108908500D01*
X129482288Y-108868794D01*
X129656752Y-108791118D01*
X129811253Y-108678866D01*
X129864256Y-108620000D01*
X129939034Y-108536951D01*
X129939035Y-108536949D01*
X129939040Y-108536944D01*
X130034527Y-108371556D01*
X130093542Y-108189928D01*
X130113504Y-108000000D01*
X130093542Y-107810072D01*
X130034527Y-107628444D01*
X129939040Y-107463056D01*
X129939038Y-107463054D01*
X129939034Y-107463048D01*
X129811255Y-107321135D01*
X129656752Y-107208882D01*
X129482288Y-107131206D01*
X129295487Y-107091500D01*
X129104513Y-107091500D01*
X128917711Y-107131206D01*
X128743247Y-107208882D01*
X128588744Y-107321135D01*
X128460965Y-107463048D01*
X128460958Y-107463058D01*
X128365476Y-107628438D01*
X128365473Y-107628445D01*
X128306457Y-107810072D01*
X128286496Y-108000000D01*
X113438000Y-108000000D01*
X113438000Y-107851414D01*
X113437999Y-107851402D01*
X113431494Y-107790906D01*
X113380444Y-107654035D01*
X113380444Y-107654034D01*
X113292904Y-107537095D01*
X113175965Y-107449555D01*
X113039093Y-107398505D01*
X112978597Y-107392000D01*
X112334000Y-107392000D01*
X112334000Y-108319297D01*
X112272993Y-108284075D01*
X112145826Y-108250000D01*
X112014174Y-108250000D01*
X111887007Y-108284075D01*
X111826000Y-108319297D01*
X111826000Y-107392000D01*
X111181402Y-107392000D01*
X111120906Y-107398505D01*
X110984035Y-107449555D01*
X110984034Y-107449555D01*
X110867095Y-107537095D01*
X110779555Y-107654034D01*
X110779553Y-107654039D01*
X110735184Y-107772996D01*
X110692637Y-107829832D01*
X110626117Y-107854642D01*
X110556743Y-107839550D01*
X110524427Y-107814300D01*
X110462902Y-107747465D01*
X110285301Y-107609232D01*
X110285300Y-107609231D01*
X110087371Y-107502117D01*
X110087369Y-107502116D01*
X109874512Y-107429043D01*
X109874501Y-107429040D01*
X109794000Y-107415606D01*
X109794000Y-108319297D01*
X109732993Y-108284075D01*
X109605826Y-108250000D01*
X109474174Y-108250000D01*
X109347007Y-108284075D01*
X109286000Y-108319297D01*
X109286000Y-107415607D01*
X109285999Y-107415606D01*
X109205498Y-107429040D01*
X109205487Y-107429043D01*
X108992630Y-107502116D01*
X108992628Y-107502117D01*
X108794699Y-107609231D01*
X108794698Y-107609232D01*
X108617097Y-107747465D01*
X108464674Y-107913042D01*
X108375483Y-108049559D01*
X108321479Y-108095647D01*
X108251131Y-108105222D01*
X108186774Y-108075244D01*
X108164517Y-108049559D01*
X108075325Y-107913042D01*
X107922902Y-107747465D01*
X107745301Y-107609232D01*
X107745300Y-107609231D01*
X107547371Y-107502117D01*
X107547369Y-107502116D01*
X107334512Y-107429043D01*
X107334501Y-107429040D01*
X107254000Y-107415606D01*
X107254000Y-108319297D01*
X107192993Y-108284075D01*
X107065826Y-108250000D01*
X106934174Y-108250000D01*
X106807007Y-108284075D01*
X106746000Y-108319297D01*
X106746000Y-107415607D01*
X106745999Y-107415606D01*
X106665498Y-107429040D01*
X106665487Y-107429043D01*
X106452630Y-107502116D01*
X106452628Y-107502117D01*
X106254699Y-107609231D01*
X106254698Y-107609232D01*
X106077097Y-107747465D01*
X105924674Y-107913041D01*
X105801580Y-108101451D01*
X105711179Y-108307543D01*
X105711176Y-108307550D01*
X105663455Y-108495999D01*
X105663456Y-108496000D01*
X106569297Y-108496000D01*
X106534075Y-108557007D01*
X106500000Y-108684174D01*
X106500000Y-108815826D01*
X106534075Y-108942993D01*
X106569297Y-109004000D01*
X105663455Y-109004000D01*
X105711176Y-109192449D01*
X105711179Y-109192456D01*
X105801580Y-109398548D01*
X105924674Y-109586958D01*
X106077097Y-109752534D01*
X106254698Y-109890767D01*
X106254704Y-109890771D01*
X106288207Y-109908902D01*
X106338597Y-109958915D01*
X106353949Y-110028232D01*
X106329388Y-110094845D01*
X106288207Y-110130528D01*
X106254430Y-110148807D01*
X106254424Y-110148811D01*
X106076762Y-110287091D01*
X105924279Y-110452729D01*
X105924275Y-110452734D01*
X105801141Y-110641206D01*
X105710703Y-110847386D01*
X105710702Y-110847387D01*
X105655437Y-111065624D01*
X105655436Y-111065630D01*
X105655436Y-111065632D01*
X105636844Y-111290000D01*
X100284000Y-111290000D01*
X100284000Y-110000000D01*
X103286496Y-110000000D01*
X103306457Y-110189927D01*
X103320491Y-110233117D01*
X103365473Y-110371556D01*
X103365476Y-110371561D01*
X103460958Y-110536941D01*
X103460965Y-110536951D01*
X103588744Y-110678864D01*
X103588747Y-110678866D01*
X103743248Y-110791118D01*
X103917712Y-110868794D01*
X104104513Y-110908500D01*
X104295487Y-110908500D01*
X104482288Y-110868794D01*
X104656752Y-110791118D01*
X104811253Y-110678866D01*
X104842371Y-110644306D01*
X104939034Y-110536951D01*
X104939035Y-110536949D01*
X104939040Y-110536944D01*
X105034527Y-110371556D01*
X105093542Y-110189928D01*
X105113504Y-110000000D01*
X105093542Y-109810072D01*
X105034527Y-109628444D01*
X104939040Y-109463056D01*
X104939038Y-109463054D01*
X104939034Y-109463048D01*
X104811255Y-109321135D01*
X104656752Y-109208882D01*
X104482288Y-109131206D01*
X104295487Y-109091500D01*
X104104513Y-109091500D01*
X103917711Y-109131206D01*
X103743247Y-109208882D01*
X103588744Y-109321135D01*
X103460965Y-109463048D01*
X103460958Y-109463058D01*
X103365476Y-109628438D01*
X103365473Y-109628445D01*
X103306457Y-109810072D01*
X103286496Y-110000000D01*
X100284000Y-110000000D01*
X100284000Y-104800000D01*
X123286496Y-104800000D01*
X123306457Y-104989927D01*
X123334779Y-105077091D01*
X123365473Y-105171556D01*
X123365476Y-105171561D01*
X123460958Y-105336941D01*
X123460961Y-105336945D01*
X123531863Y-105415690D01*
X123562580Y-105479698D01*
X123553815Y-105550151D01*
X123531863Y-105584310D01*
X123460961Y-105663054D01*
X123460958Y-105663058D01*
X123365476Y-105828438D01*
X123365473Y-105828445D01*
X123306457Y-106010072D01*
X123286496Y-106200000D01*
X123306457Y-106389927D01*
X123336526Y-106482470D01*
X123365473Y-106571556D01*
X123365476Y-106571561D01*
X123460958Y-106736941D01*
X123460965Y-106736951D01*
X123588744Y-106878864D01*
X123641598Y-106917265D01*
X123743248Y-106991118D01*
X123917712Y-107068794D01*
X124104513Y-107108500D01*
X124295487Y-107108500D01*
X124482288Y-107068794D01*
X124656752Y-106991118D01*
X124811253Y-106878866D01*
X124890262Y-106791118D01*
X124939034Y-106736951D01*
X124939035Y-106736949D01*
X124939040Y-106736944D01*
X125034527Y-106571556D01*
X125093542Y-106389928D01*
X125110907Y-106224706D01*
X125137920Y-106159050D01*
X125147122Y-106148781D01*
X125215903Y-106080000D01*
X125417071Y-105878833D01*
X125486400Y-105775075D01*
X125534155Y-105659785D01*
X125558500Y-105537394D01*
X125558500Y-105412606D01*
X125558500Y-105000000D01*
X128286496Y-105000000D01*
X128306457Y-105189927D01*
X128323614Y-105242729D01*
X128365473Y-105371556D01*
X128379187Y-105395309D01*
X128460958Y-105536941D01*
X128460965Y-105536951D01*
X128588744Y-105678864D01*
X128588747Y-105678866D01*
X128743248Y-105791118D01*
X128917712Y-105868794D01*
X129104513Y-105908500D01*
X129295487Y-105908500D01*
X129482288Y-105868794D01*
X129656752Y-105791118D01*
X129811253Y-105678866D01*
X129825487Y-105663058D01*
X129939034Y-105536951D01*
X129939035Y-105536949D01*
X129939040Y-105536944D01*
X130034527Y-105371556D01*
X130093542Y-105189928D01*
X130113504Y-105000000D01*
X130093542Y-104810072D01*
X130074023Y-104750000D01*
X153086496Y-104750000D01*
X153106457Y-104939927D01*
X153136526Y-105032470D01*
X153165473Y-105121556D01*
X153165476Y-105121561D01*
X153260958Y-105286942D01*
X153260959Y-105286944D01*
X153264333Y-105290691D01*
X153295050Y-105354699D01*
X153286285Y-105425152D01*
X153264333Y-105459309D01*
X153260959Y-105463055D01*
X153260958Y-105463057D01*
X153165476Y-105628438D01*
X153165473Y-105628444D01*
X153154227Y-105663056D01*
X153106457Y-105810072D01*
X153086496Y-106000000D01*
X153106457Y-106189927D01*
X153117758Y-106224707D01*
X153165473Y-106371556D01*
X153165476Y-106371561D01*
X153260958Y-106536941D01*
X153260965Y-106536951D01*
X153388744Y-106678864D01*
X153388747Y-106678866D01*
X153543248Y-106791118D01*
X153717712Y-106868794D01*
X153904513Y-106908500D01*
X154095487Y-106908500D01*
X154282288Y-106868794D01*
X154456752Y-106791118D01*
X154611253Y-106678866D01*
X154707871Y-106571561D01*
X154739034Y-106536951D01*
X154739035Y-106536949D01*
X154739040Y-106536944D01*
X154834527Y-106371556D01*
X154893542Y-106189928D01*
X154913504Y-106000000D01*
X154893542Y-105810072D01*
X154834527Y-105628444D01*
X154739040Y-105463056D01*
X154735670Y-105459313D01*
X154704951Y-105395309D01*
X154713711Y-105324855D01*
X154735669Y-105290687D01*
X154739040Y-105286944D01*
X154834527Y-105121556D01*
X154893542Y-104939928D01*
X154913504Y-104750000D01*
X154893542Y-104560072D01*
X154834527Y-104378444D01*
X154739040Y-104213056D01*
X154739038Y-104213054D01*
X154739034Y-104213048D01*
X154611255Y-104071135D01*
X154456752Y-103958882D01*
X154282288Y-103881206D01*
X154095487Y-103841500D01*
X153904513Y-103841500D01*
X153717711Y-103881206D01*
X153543247Y-103958882D01*
X153388744Y-104071135D01*
X153260965Y-104213048D01*
X153260958Y-104213058D01*
X153165476Y-104378438D01*
X153165473Y-104378445D01*
X153106457Y-104560072D01*
X153086496Y-104750000D01*
X130074023Y-104750000D01*
X130034527Y-104628444D01*
X129939040Y-104463056D01*
X129939038Y-104463054D01*
X129939034Y-104463048D01*
X129811255Y-104321135D01*
X129656752Y-104208882D01*
X129482288Y-104131206D01*
X129295487Y-104091500D01*
X129104513Y-104091500D01*
X128917711Y-104131206D01*
X128743247Y-104208882D01*
X128588744Y-104321135D01*
X128460965Y-104463048D01*
X128460958Y-104463058D01*
X128365476Y-104628438D01*
X128365473Y-104628445D01*
X128306457Y-104810072D01*
X128286496Y-105000000D01*
X125558500Y-105000000D01*
X125558500Y-102200000D01*
X132686496Y-102200000D01*
X132706457Y-102389927D01*
X132717384Y-102423556D01*
X132765473Y-102571556D01*
X132765476Y-102571561D01*
X132860958Y-102736941D01*
X132860965Y-102736951D01*
X132988744Y-102878864D01*
X133013892Y-102897135D01*
X133143248Y-102991118D01*
X133317712Y-103068794D01*
X133504513Y-103108500D01*
X133695487Y-103108500D01*
X133882288Y-103068794D01*
X134056752Y-102991118D01*
X134211253Y-102878866D01*
X134243442Y-102843117D01*
X134339034Y-102736951D01*
X134339035Y-102736949D01*
X134339040Y-102736944D01*
X134434527Y-102571556D01*
X134493542Y-102389928D01*
X134513504Y-102200000D01*
X134493542Y-102010072D01*
X134434527Y-101828444D01*
X134339040Y-101663056D01*
X134339038Y-101663054D01*
X134339034Y-101663048D01*
X134211255Y-101521135D01*
X134056752Y-101408882D01*
X133882288Y-101331206D01*
X133695487Y-101291500D01*
X133504513Y-101291500D01*
X133317711Y-101331206D01*
X133143247Y-101408882D01*
X132988744Y-101521135D01*
X132860965Y-101663048D01*
X132860958Y-101663058D01*
X132765476Y-101828438D01*
X132765473Y-101828445D01*
X132706457Y-102010072D01*
X132686496Y-102200000D01*
X125558500Y-102200000D01*
X125558500Y-100093718D01*
X127086486Y-100093718D01*
X127106447Y-100283645D01*
X127128400Y-100351206D01*
X127165463Y-100465274D01*
X127165466Y-100465279D01*
X127260948Y-100630659D01*
X127260955Y-100630669D01*
X127388734Y-100772582D01*
X127388737Y-100772584D01*
X127543238Y-100884836D01*
X127717702Y-100962512D01*
X127904503Y-101002218D01*
X128095477Y-101002218D01*
X128282278Y-100962512D01*
X128456742Y-100884836D01*
X128611243Y-100772584D01*
X128739030Y-100630662D01*
X128834517Y-100465274D01*
X128893532Y-100283646D01*
X128903724Y-100186664D01*
X128930736Y-100121009D01*
X128977787Y-100084728D01*
X129057752Y-100049126D01*
X129212253Y-99936874D01*
X129221298Y-99926829D01*
X129340034Y-99794959D01*
X129340035Y-99794957D01*
X129340040Y-99794952D01*
X129435527Y-99629564D01*
X129473726Y-99512000D01*
X136958496Y-99512000D01*
X136978457Y-99701927D01*
X136994616Y-99751658D01*
X137037473Y-99883556D01*
X137037476Y-99883561D01*
X137132958Y-100048941D01*
X137132965Y-100048951D01*
X137260744Y-100190864D01*
X137260747Y-100190866D01*
X137415248Y-100303118D01*
X137455837Y-100321189D01*
X137509933Y-100367169D01*
X137530582Y-100435096D01*
X137524421Y-100475232D01*
X137486457Y-100592071D01*
X137466496Y-100782000D01*
X137486457Y-100971927D01*
X137516526Y-101064470D01*
X137545473Y-101153556D01*
X137545476Y-101153561D01*
X137640958Y-101318941D01*
X137640965Y-101318951D01*
X137768744Y-101460864D01*
X137768747Y-101460866D01*
X137923248Y-101573118D01*
X137963837Y-101591189D01*
X138017933Y-101637169D01*
X138038582Y-101705096D01*
X138032421Y-101745232D01*
X137994457Y-101862071D01*
X137974496Y-102052000D01*
X137994457Y-102241927D01*
X138003579Y-102270000D01*
X138053473Y-102423556D01*
X138053476Y-102423561D01*
X138148958Y-102588941D01*
X138148965Y-102588951D01*
X138276744Y-102730864D01*
X138285122Y-102736951D01*
X138431248Y-102843118D01*
X138572958Y-102906211D01*
X138627053Y-102952190D01*
X138647703Y-103020117D01*
X138630828Y-103084317D01*
X138561476Y-103204438D01*
X138561473Y-103204445D01*
X138502457Y-103386072D01*
X138482496Y-103576000D01*
X138502457Y-103765927D01*
X138527013Y-103841500D01*
X138561473Y-103947556D01*
X138561476Y-103947561D01*
X138656958Y-104112941D01*
X138656965Y-104112951D01*
X138784744Y-104254864D01*
X138845999Y-104299368D01*
X138939248Y-104367118D01*
X139113712Y-104444794D01*
X139300513Y-104484500D01*
X139491487Y-104484500D01*
X139678288Y-104444794D01*
X139852752Y-104367118D01*
X140007253Y-104254866D01*
X140048657Y-104208882D01*
X140135034Y-104112951D01*
X140135035Y-104112949D01*
X140135040Y-104112944D01*
X140230527Y-103947556D01*
X140289542Y-103765928D01*
X140309504Y-103576000D01*
X140289542Y-103386072D01*
X140230527Y-103204444D01*
X140135040Y-103039056D01*
X140135038Y-103039054D01*
X140135034Y-103039048D01*
X140007255Y-102897135D01*
X139852752Y-102784882D01*
X139774405Y-102750000D01*
X154586496Y-102750000D01*
X154606457Y-102939927D01*
X154632513Y-103020117D01*
X154665473Y-103121556D01*
X154665476Y-103121561D01*
X154760958Y-103286941D01*
X154760965Y-103286951D01*
X154888744Y-103428864D01*
X154888747Y-103428866D01*
X155043248Y-103541118D01*
X155217712Y-103618794D01*
X155404513Y-103658500D01*
X155595487Y-103658500D01*
X155782288Y-103618794D01*
X155956752Y-103541118D01*
X156111253Y-103428866D01*
X156149785Y-103386072D01*
X156239034Y-103286951D01*
X156239035Y-103286949D01*
X156239040Y-103286944D01*
X156334527Y-103121556D01*
X156393542Y-102939928D01*
X156413504Y-102750000D01*
X156393542Y-102560072D01*
X156334527Y-102378444D01*
X156239040Y-102213056D01*
X156239038Y-102213054D01*
X156239034Y-102213048D01*
X156111255Y-102071135D01*
X155956752Y-101958882D01*
X155782288Y-101881206D01*
X155595487Y-101841500D01*
X155404513Y-101841500D01*
X155217711Y-101881206D01*
X155043247Y-101958882D01*
X154888744Y-102071135D01*
X154760965Y-102213048D01*
X154760958Y-102213058D01*
X154665476Y-102378438D01*
X154665473Y-102378445D01*
X154606457Y-102560072D01*
X154586496Y-102750000D01*
X139774405Y-102750000D01*
X139711039Y-102721787D01*
X139656946Y-102675809D01*
X139636296Y-102607882D01*
X139653169Y-102543686D01*
X139722527Y-102423556D01*
X139781542Y-102241928D01*
X139801504Y-102052000D01*
X139781542Y-101862072D01*
X139722527Y-101680444D01*
X139627040Y-101515056D01*
X139627038Y-101515054D01*
X139627034Y-101515048D01*
X139499255Y-101373135D01*
X139424663Y-101318941D01*
X139344752Y-101260882D01*
X139344748Y-101260880D01*
X139304161Y-101242809D01*
X139250066Y-101196829D01*
X139229417Y-101128901D01*
X139235577Y-101088770D01*
X139273542Y-100971928D01*
X139293504Y-100782000D01*
X139273542Y-100592072D01*
X139214527Y-100410444D01*
X139119040Y-100245056D01*
X139119038Y-100245054D01*
X139119034Y-100245048D01*
X138991255Y-100103135D01*
X138916663Y-100048941D01*
X138836752Y-99990882D01*
X138836748Y-99990880D01*
X138796161Y-99972809D01*
X138742066Y-99926829D01*
X138721417Y-99858901D01*
X138727577Y-99818770D01*
X138749922Y-99750000D01*
X156586496Y-99750000D01*
X156606457Y-99939927D01*
X156636526Y-100032470D01*
X156665473Y-100121556D01*
X156665476Y-100121561D01*
X156760958Y-100286941D01*
X156760965Y-100286951D01*
X156888744Y-100428864D01*
X156888747Y-100428866D01*
X157043248Y-100541118D01*
X157217712Y-100618794D01*
X157404513Y-100658500D01*
X157595487Y-100658500D01*
X157782288Y-100618794D01*
X157956752Y-100541118D01*
X158111253Y-100428866D01*
X158111255Y-100428864D01*
X158239034Y-100286951D01*
X158239035Y-100286949D01*
X158239040Y-100286944D01*
X158334527Y-100121556D01*
X158393542Y-99939928D01*
X158413504Y-99750000D01*
X158393542Y-99560072D01*
X158334527Y-99378444D01*
X158239040Y-99213056D01*
X158239038Y-99213054D01*
X158239034Y-99213048D01*
X158111255Y-99071135D01*
X157956752Y-98958882D01*
X157782288Y-98881206D01*
X157595487Y-98841500D01*
X157404513Y-98841500D01*
X157217711Y-98881206D01*
X157043247Y-98958882D01*
X156888744Y-99071135D01*
X156760965Y-99213048D01*
X156760958Y-99213058D01*
X156665476Y-99378438D01*
X156665473Y-99378445D01*
X156606457Y-99560072D01*
X156586496Y-99750000D01*
X138749922Y-99750000D01*
X138765542Y-99701928D01*
X138785504Y-99512000D01*
X138765542Y-99322072D01*
X138706527Y-99140444D01*
X138611040Y-98975056D01*
X138611038Y-98975054D01*
X138611034Y-98975048D01*
X138483255Y-98833135D01*
X138328752Y-98720882D01*
X138154288Y-98643206D01*
X137967487Y-98603500D01*
X137776513Y-98603500D01*
X137589711Y-98643206D01*
X137415247Y-98720882D01*
X137260744Y-98833135D01*
X137132965Y-98975048D01*
X137132958Y-98975058D01*
X137037476Y-99140438D01*
X137037473Y-99140444D01*
X137024989Y-99178866D01*
X136978457Y-99322072D01*
X136958496Y-99512000D01*
X129473726Y-99512000D01*
X129494542Y-99447936D01*
X129514504Y-99258008D01*
X129494542Y-99068080D01*
X129494540Y-99068075D01*
X129493833Y-99064749D01*
X129493983Y-99062767D01*
X129493852Y-99061512D01*
X129494081Y-99061487D01*
X129499225Y-98993958D01*
X129542034Y-98937319D01*
X129542909Y-98936675D01*
X129606177Y-98890710D01*
X129610011Y-98886452D01*
X129733958Y-98748795D01*
X129733959Y-98748793D01*
X129733964Y-98748788D01*
X129829451Y-98583400D01*
X129888466Y-98401772D01*
X129908428Y-98211844D01*
X129888466Y-98021916D01*
X129829451Y-97840288D01*
X129733964Y-97674900D01*
X129733962Y-97674898D01*
X129733958Y-97674892D01*
X129606179Y-97532979D01*
X129451676Y-97420726D01*
X129277212Y-97343050D01*
X129090411Y-97303344D01*
X128899437Y-97303344D01*
X128712635Y-97343050D01*
X128538171Y-97420726D01*
X128383668Y-97532979D01*
X128255889Y-97674892D01*
X128255882Y-97674902D01*
X128166510Y-97829700D01*
X128160397Y-97840288D01*
X128150644Y-97870304D01*
X128101381Y-98021916D01*
X128081420Y-98211844D01*
X128101382Y-98401780D01*
X128102093Y-98405123D01*
X128101941Y-98407102D01*
X128102072Y-98408340D01*
X128101845Y-98408363D01*
X128096689Y-98475914D01*
X128053871Y-98532545D01*
X128052909Y-98533251D01*
X127989742Y-98579145D01*
X127861965Y-98721056D01*
X127861958Y-98721066D01*
X127766476Y-98886446D01*
X127766473Y-98886452D01*
X127761222Y-98902612D01*
X127707457Y-99068080D01*
X127697264Y-99165061D01*
X127670250Y-99230717D01*
X127623205Y-99266995D01*
X127543238Y-99302600D01*
X127388734Y-99414853D01*
X127260955Y-99556766D01*
X127260948Y-99556776D01*
X127165466Y-99722156D01*
X127165463Y-99722162D01*
X127160149Y-99738516D01*
X127106447Y-99903790D01*
X127086486Y-100093718D01*
X125558500Y-100093718D01*
X125558500Y-95702000D01*
X131370496Y-95702000D01*
X131390457Y-95891927D01*
X131420526Y-95984470D01*
X131449473Y-96073556D01*
X131449473Y-96073557D01*
X131449474Y-96073558D01*
X131491876Y-96147001D01*
X131508613Y-96215996D01*
X131491876Y-96272999D01*
X131449474Y-96346441D01*
X131449473Y-96346445D01*
X131390457Y-96528072D01*
X131370496Y-96718000D01*
X131390457Y-96907927D01*
X131420526Y-97000470D01*
X131449473Y-97089556D01*
X131449476Y-97089561D01*
X131544958Y-97254941D01*
X131544965Y-97254951D01*
X131672744Y-97396864D01*
X131672747Y-97396866D01*
X131827248Y-97509118D01*
X132001712Y-97586794D01*
X132188513Y-97626500D01*
X132379487Y-97626500D01*
X132566288Y-97586794D01*
X132740752Y-97509118D01*
X132740752Y-97509117D01*
X132811118Y-97499684D01*
X132843247Y-97509117D01*
X132843248Y-97509118D01*
X133017712Y-97586794D01*
X133204513Y-97626500D01*
X133395487Y-97626500D01*
X133582288Y-97586794D01*
X133756752Y-97509118D01*
X133911253Y-97396866D01*
X133959709Y-97343050D01*
X134039034Y-97254951D01*
X134039035Y-97254949D01*
X134039040Y-97254944D01*
X134070762Y-97200000D01*
X151836496Y-97200000D01*
X151856457Y-97389927D01*
X151883087Y-97471883D01*
X151915473Y-97571556D01*
X151915476Y-97571561D01*
X152010958Y-97736942D01*
X152010959Y-97736944D01*
X152036843Y-97765692D01*
X152067559Y-97829700D01*
X152058793Y-97900153D01*
X152036843Y-97934308D01*
X152010959Y-97963055D01*
X152010958Y-97963057D01*
X151915476Y-98128438D01*
X151915473Y-98128445D01*
X151856457Y-98310072D01*
X151836496Y-98500000D01*
X151856457Y-98689927D01*
X151866575Y-98721066D01*
X151915473Y-98871556D01*
X151924070Y-98886446D01*
X152010958Y-99036941D01*
X152010965Y-99036951D01*
X152138744Y-99178864D01*
X152138747Y-99178866D01*
X152293248Y-99291118D01*
X152467712Y-99368794D01*
X152654513Y-99408500D01*
X152845487Y-99408500D01*
X153032288Y-99368794D01*
X153206752Y-99291118D01*
X153361253Y-99178866D01*
X153373683Y-99165061D01*
X153489034Y-99036951D01*
X153489035Y-99036949D01*
X153489040Y-99036944D01*
X153584527Y-98871556D01*
X153643542Y-98689928D01*
X153663504Y-98500000D01*
X153659300Y-98460000D01*
X165136844Y-98460000D01*
X165152025Y-98643206D01*
X165155437Y-98684375D01*
X165210702Y-98902612D01*
X165210703Y-98902613D01*
X165210704Y-98902616D01*
X165280391Y-99061487D01*
X165301141Y-99108793D01*
X165424275Y-99297265D01*
X165424279Y-99297270D01*
X165576762Y-99462908D01*
X165631331Y-99505381D01*
X165754424Y-99601189D01*
X165787680Y-99619186D01*
X165838071Y-99669200D01*
X165853423Y-99738516D01*
X165828862Y-99805129D01*
X165787680Y-99840813D01*
X165754426Y-99858810D01*
X165754424Y-99858811D01*
X165576762Y-99997091D01*
X165424279Y-100162729D01*
X165424275Y-100162734D01*
X165301141Y-100351206D01*
X165210703Y-100557386D01*
X165210702Y-100557387D01*
X165155437Y-100775624D01*
X165155436Y-100775630D01*
X165155436Y-100775632D01*
X165136844Y-101000000D01*
X165149568Y-101153556D01*
X165155437Y-101224375D01*
X165210702Y-101442612D01*
X165210703Y-101442613D01*
X165210704Y-101442616D01*
X165267947Y-101573117D01*
X165301141Y-101648793D01*
X165424275Y-101837265D01*
X165424279Y-101837270D01*
X165576762Y-102002908D01*
X165631331Y-102045381D01*
X165754424Y-102141189D01*
X165787680Y-102159186D01*
X165838071Y-102209200D01*
X165853423Y-102278516D01*
X165828862Y-102345129D01*
X165787680Y-102380813D01*
X165754426Y-102398810D01*
X165754424Y-102398811D01*
X165576762Y-102537091D01*
X165424279Y-102702729D01*
X165424275Y-102702734D01*
X165301141Y-102891206D01*
X165210703Y-103097386D01*
X165210702Y-103097387D01*
X165155437Y-103315624D01*
X165155436Y-103315630D01*
X165155436Y-103315632D01*
X165136844Y-103540000D01*
X165146663Y-103658500D01*
X165155437Y-103764375D01*
X165210702Y-103982612D01*
X165210703Y-103982613D01*
X165210704Y-103982616D01*
X165301140Y-104188791D01*
X165301141Y-104188793D01*
X165424275Y-104377265D01*
X165424279Y-104377270D01*
X165576762Y-104542908D01*
X165631331Y-104585381D01*
X165754424Y-104681189D01*
X165787680Y-104699186D01*
X165838071Y-104749200D01*
X165853423Y-104818516D01*
X165828862Y-104885129D01*
X165787680Y-104920813D01*
X165754426Y-104938810D01*
X165754424Y-104938811D01*
X165576762Y-105077091D01*
X165424279Y-105242729D01*
X165424275Y-105242734D01*
X165301141Y-105431206D01*
X165210703Y-105637386D01*
X165210702Y-105637387D01*
X165155437Y-105855624D01*
X165155436Y-105855630D01*
X165155436Y-105855632D01*
X165136844Y-106080000D01*
X165143394Y-106159050D01*
X165155437Y-106304375D01*
X165210702Y-106522612D01*
X165210703Y-106522613D01*
X165210704Y-106522616D01*
X165216989Y-106536944D01*
X165301141Y-106728793D01*
X165424275Y-106917265D01*
X165424279Y-106917270D01*
X165576762Y-107082908D01*
X165587801Y-107091500D01*
X165754424Y-107221189D01*
X165787680Y-107239186D01*
X165838071Y-107289200D01*
X165853423Y-107358516D01*
X165828862Y-107425129D01*
X165787680Y-107460813D01*
X165754426Y-107478810D01*
X165754424Y-107478811D01*
X165576762Y-107617091D01*
X165424279Y-107782729D01*
X165424275Y-107782734D01*
X165301141Y-107971206D01*
X165210703Y-108177386D01*
X165210702Y-108177387D01*
X165155437Y-108395624D01*
X165155436Y-108395630D01*
X165155436Y-108395632D01*
X165136844Y-108620000D01*
X165151023Y-108791118D01*
X165155437Y-108844375D01*
X165210702Y-109062612D01*
X165210703Y-109062613D01*
X165210704Y-109062616D01*
X165267654Y-109192449D01*
X165301141Y-109268793D01*
X165424275Y-109457265D01*
X165424279Y-109457270D01*
X165576762Y-109622908D01*
X165613190Y-109651261D01*
X165754424Y-109761189D01*
X165952426Y-109868342D01*
X165952427Y-109868342D01*
X165952428Y-109868343D01*
X166017759Y-109890771D01*
X166165365Y-109941444D01*
X166387431Y-109978500D01*
X166387435Y-109978500D01*
X166612565Y-109978500D01*
X166612569Y-109978500D01*
X166834635Y-109941444D01*
X167047574Y-109868342D01*
X167245576Y-109761189D01*
X167423240Y-109622906D01*
X167575722Y-109457268D01*
X167698860Y-109268791D01*
X167789296Y-109062616D01*
X167844564Y-108844368D01*
X167863156Y-108620000D01*
X167844564Y-108395632D01*
X167792473Y-108189928D01*
X167789297Y-108177387D01*
X167789296Y-108177386D01*
X167789296Y-108177384D01*
X167698860Y-107971209D01*
X167622703Y-107854642D01*
X167575724Y-107782734D01*
X167575720Y-107782729D01*
X167433689Y-107628445D01*
X167423240Y-107617094D01*
X167423239Y-107617093D01*
X167423237Y-107617091D01*
X167275519Y-107502117D01*
X167245576Y-107478811D01*
X167212319Y-107460813D01*
X167161929Y-107410802D01*
X167146576Y-107341485D01*
X167171136Y-107274872D01*
X167212320Y-107239186D01*
X167245576Y-107221189D01*
X167423240Y-107082906D01*
X167575722Y-106917268D01*
X167698860Y-106728791D01*
X167789296Y-106522616D01*
X167844564Y-106304368D01*
X167863156Y-106080000D01*
X167844564Y-105855632D01*
X167828227Y-105791117D01*
X167789297Y-105637387D01*
X167789296Y-105637386D01*
X167789296Y-105637384D01*
X167698860Y-105431209D01*
X167659887Y-105371556D01*
X167575724Y-105242734D01*
X167575720Y-105242729D01*
X167423237Y-105077091D01*
X167311249Y-104989927D01*
X167245576Y-104938811D01*
X167212319Y-104920813D01*
X167161929Y-104870802D01*
X167146576Y-104801485D01*
X167171136Y-104734872D01*
X167212320Y-104699186D01*
X167245576Y-104681189D01*
X167423240Y-104542906D01*
X167575722Y-104377268D01*
X167698860Y-104188791D01*
X167789296Y-103982616D01*
X167844564Y-103764368D01*
X167863156Y-103540000D01*
X167844564Y-103315632D01*
X167816406Y-103204438D01*
X167789297Y-103097387D01*
X167789296Y-103097386D01*
X167789296Y-103097384D01*
X167698860Y-102891209D01*
X167667440Y-102843117D01*
X167575724Y-102702734D01*
X167575720Y-102702729D01*
X167423237Y-102537091D01*
X167277374Y-102423561D01*
X167245576Y-102398811D01*
X167212319Y-102380813D01*
X167161929Y-102330802D01*
X167146576Y-102261485D01*
X167171136Y-102194872D01*
X167212320Y-102159186D01*
X167245576Y-102141189D01*
X167423240Y-102002906D01*
X167575722Y-101837268D01*
X167698860Y-101648791D01*
X167789296Y-101442616D01*
X167844564Y-101224368D01*
X167863156Y-101000000D01*
X167844564Y-100775632D01*
X167789296Y-100557384D01*
X167698860Y-100351209D01*
X167654719Y-100283646D01*
X167575724Y-100162734D01*
X167575720Y-100162729D01*
X167423237Y-99997091D01*
X167341382Y-99933381D01*
X167245576Y-99858811D01*
X167212319Y-99840813D01*
X167161929Y-99790802D01*
X167146576Y-99721485D01*
X167171136Y-99654872D01*
X167212320Y-99619186D01*
X167245576Y-99601189D01*
X167423240Y-99462906D01*
X167575722Y-99297268D01*
X167698860Y-99108791D01*
X167789296Y-98902616D01*
X167844564Y-98684368D01*
X167863156Y-98460000D01*
X167844564Y-98235632D01*
X167789296Y-98017384D01*
X167698860Y-97811209D01*
X167650342Y-97736946D01*
X167575724Y-97622734D01*
X167575714Y-97622722D01*
X167432159Y-97466782D01*
X167400737Y-97403117D01*
X167408723Y-97332571D01*
X167453582Y-97277542D01*
X167480827Y-97263388D01*
X167595965Y-97220444D01*
X167712904Y-97132904D01*
X167800444Y-97015965D01*
X167800444Y-97015964D01*
X167851494Y-96879093D01*
X167857999Y-96818597D01*
X167858000Y-96818585D01*
X167858000Y-96174000D01*
X166930703Y-96174000D01*
X166965925Y-96112993D01*
X167000000Y-95985826D01*
X167000000Y-95854174D01*
X166965925Y-95727007D01*
X166930703Y-95666000D01*
X167858000Y-95666000D01*
X167858000Y-95021414D01*
X167857999Y-95021402D01*
X167851494Y-94960906D01*
X167800444Y-94824035D01*
X167800444Y-94824034D01*
X167712904Y-94707095D01*
X167595965Y-94619555D01*
X167459093Y-94568505D01*
X167398597Y-94562000D01*
X166754000Y-94562000D01*
X166754000Y-95489297D01*
X166692993Y-95454075D01*
X166565826Y-95420000D01*
X166434174Y-95420000D01*
X166307007Y-95454075D01*
X166246000Y-95489297D01*
X166246000Y-94562000D01*
X165601402Y-94562000D01*
X165540906Y-94568505D01*
X165404035Y-94619555D01*
X165404034Y-94619555D01*
X165287095Y-94707095D01*
X165199555Y-94824034D01*
X165199555Y-94824035D01*
X165148505Y-94960906D01*
X165142000Y-95021402D01*
X165142000Y-95666000D01*
X166069297Y-95666000D01*
X166034075Y-95727007D01*
X166000000Y-95854174D01*
X166000000Y-95985826D01*
X166034075Y-96112993D01*
X166069297Y-96174000D01*
X165142000Y-96174000D01*
X165142000Y-96818597D01*
X165148505Y-96879093D01*
X165199555Y-97015964D01*
X165199555Y-97015965D01*
X165287095Y-97132904D01*
X165404034Y-97220444D01*
X165519172Y-97263388D01*
X165576008Y-97305935D01*
X165600819Y-97372455D01*
X165585728Y-97441829D01*
X165567841Y-97466782D01*
X165424280Y-97622729D01*
X165424275Y-97622734D01*
X165301141Y-97811206D01*
X165210703Y-98017386D01*
X165210702Y-98017387D01*
X165155437Y-98235624D01*
X165155436Y-98235630D01*
X165155436Y-98235632D01*
X165136844Y-98460000D01*
X153659300Y-98460000D01*
X153643542Y-98310072D01*
X153584527Y-98128444D01*
X153489040Y-97963056D01*
X153463157Y-97934310D01*
X153432440Y-97870304D01*
X153441203Y-97799851D01*
X153463155Y-97765691D01*
X153489040Y-97736944D01*
X153584527Y-97571556D01*
X153643542Y-97389928D01*
X153663504Y-97200000D01*
X153643542Y-97010072D01*
X153584527Y-96828444D01*
X153489040Y-96663056D01*
X153489038Y-96663054D01*
X153489034Y-96663048D01*
X153361255Y-96521135D01*
X153206752Y-96408882D01*
X153032288Y-96331206D01*
X152845487Y-96291500D01*
X152654513Y-96291500D01*
X152467711Y-96331206D01*
X152293247Y-96408882D01*
X152138744Y-96521135D01*
X152010965Y-96663048D01*
X152010958Y-96663058D01*
X151915476Y-96828438D01*
X151915473Y-96828445D01*
X151856457Y-97010072D01*
X151836496Y-97200000D01*
X134070762Y-97200000D01*
X134134527Y-97089556D01*
X134193542Y-96907928D01*
X134213504Y-96718000D01*
X134193542Y-96528072D01*
X134134527Y-96346444D01*
X134092123Y-96273000D01*
X134075386Y-96204006D01*
X134092124Y-96146999D01*
X134134527Y-96073556D01*
X134193542Y-95891928D01*
X134213504Y-95702000D01*
X134193542Y-95512072D01*
X134134527Y-95330444D01*
X134039040Y-95165056D01*
X134039038Y-95165054D01*
X134039034Y-95165048D01*
X133911255Y-95023135D01*
X133756752Y-94910882D01*
X133582288Y-94833206D01*
X133395487Y-94793500D01*
X133204513Y-94793500D01*
X133017709Y-94833206D01*
X132843248Y-94910881D01*
X132772881Y-94920315D01*
X132740752Y-94910881D01*
X132566290Y-94833206D01*
X132379487Y-94793500D01*
X132188513Y-94793500D01*
X132001711Y-94833206D01*
X131827247Y-94910882D01*
X131672744Y-95023135D01*
X131544965Y-95165048D01*
X131544958Y-95165058D01*
X131449476Y-95330438D01*
X131449473Y-95330445D01*
X131390457Y-95512072D01*
X131370496Y-95702000D01*
X125558500Y-95702000D01*
X125558500Y-94989594D01*
X125578502Y-94921473D01*
X125595405Y-94900499D01*
X127079904Y-93416000D01*
X128576496Y-93416000D01*
X128596457Y-93605927D01*
X128626526Y-93698470D01*
X128655473Y-93787556D01*
X128655476Y-93787561D01*
X128750958Y-93952941D01*
X128750965Y-93952951D01*
X128878744Y-94094864D01*
X128939999Y-94139368D01*
X129033248Y-94207118D01*
X129207712Y-94284794D01*
X129269469Y-94297920D01*
X129331941Y-94331648D01*
X129363105Y-94382230D01*
X129417473Y-94549556D01*
X129417476Y-94549561D01*
X129512958Y-94714941D01*
X129512965Y-94714951D01*
X129640744Y-94856864D01*
X129640747Y-94856866D01*
X129795248Y-94969118D01*
X129969712Y-95046794D01*
X130156513Y-95086500D01*
X130347487Y-95086500D01*
X130534288Y-95046794D01*
X130708752Y-94969118D01*
X130863253Y-94856866D01*
X130991040Y-94714944D01*
X131086527Y-94549556D01*
X131145542Y-94367928D01*
X131165504Y-94178000D01*
X131145542Y-93988072D01*
X131086527Y-93806444D01*
X130991040Y-93641056D01*
X130991038Y-93641054D01*
X130991034Y-93641048D01*
X130863255Y-93499135D01*
X130708752Y-93386882D01*
X130534288Y-93309206D01*
X130472529Y-93296078D01*
X130410057Y-93262351D01*
X130378894Y-93211768D01*
X130324528Y-93044447D01*
X130324527Y-93044445D01*
X130324527Y-93044444D01*
X130229040Y-92879056D01*
X130229038Y-92879054D01*
X130229034Y-92879048D01*
X130101255Y-92737135D01*
X129946752Y-92624882D01*
X129772288Y-92547206D01*
X129585487Y-92507500D01*
X129394513Y-92507500D01*
X129207711Y-92547206D01*
X129033247Y-92624882D01*
X128878744Y-92737135D01*
X128750965Y-92879048D01*
X128750958Y-92879058D01*
X128655476Y-93044438D01*
X128655473Y-93044445D01*
X128596457Y-93226072D01*
X128576496Y-93416000D01*
X127079904Y-93416000D01*
X129292067Y-91203838D01*
X129292067Y-91203837D01*
X129292072Y-91203833D01*
X129361401Y-91100075D01*
X129401265Y-91003833D01*
X129409155Y-90984785D01*
X129433500Y-90862394D01*
X129433500Y-89969009D01*
X136958496Y-89969009D01*
X136978457Y-90158936D01*
X136991800Y-90200000D01*
X137037473Y-90340565D01*
X137037476Y-90340570D01*
X137132958Y-90505950D01*
X137132965Y-90505960D01*
X137260744Y-90647873D01*
X137260747Y-90647875D01*
X137415248Y-90760127D01*
X137589712Y-90837803D01*
X137776513Y-90877509D01*
X137967487Y-90877509D01*
X138154288Y-90837803D01*
X138328752Y-90760127D01*
X138483253Y-90647875D01*
X138483255Y-90647873D01*
X138611034Y-90505960D01*
X138611035Y-90505958D01*
X138611040Y-90505953D01*
X138706527Y-90340565D01*
X138739345Y-90239561D01*
X138779419Y-90180957D01*
X138844816Y-90153320D01*
X138859178Y-90152499D01*
X138875486Y-90152499D01*
X139062287Y-90112793D01*
X139236751Y-90035117D01*
X139382477Y-89929240D01*
X139449342Y-89905383D01*
X139507782Y-89916069D01*
X139621712Y-89966794D01*
X139808513Y-90006500D01*
X139999487Y-90006500D01*
X140186288Y-89966794D01*
X140360752Y-89889118D01*
X140360752Y-89889117D01*
X140431118Y-89879684D01*
X140463247Y-89889117D01*
X140463248Y-89889118D01*
X140637712Y-89966794D01*
X140824513Y-90006500D01*
X141015487Y-90006500D01*
X141202288Y-89966794D01*
X141376752Y-89889118D01*
X141531253Y-89776866D01*
X141551825Y-89754019D01*
X141659034Y-89634951D01*
X141659035Y-89634949D01*
X141659040Y-89634944D01*
X141754527Y-89469556D01*
X141813542Y-89287928D01*
X141833504Y-89098000D01*
X141813542Y-88908072D01*
X141754527Y-88726444D01*
X141659040Y-88561056D01*
X141659038Y-88561054D01*
X141659034Y-88561048D01*
X141531255Y-88419135D01*
X141376752Y-88306882D01*
X141202288Y-88229206D01*
X141015487Y-88189500D01*
X140824513Y-88189500D01*
X140637709Y-88229206D01*
X140463248Y-88306881D01*
X140392881Y-88316315D01*
X140360752Y-88306881D01*
X140186290Y-88229206D01*
X139999487Y-88189500D01*
X139808513Y-88189500D01*
X139621711Y-88229206D01*
X139447247Y-88306882D01*
X139301523Y-88412757D01*
X139234655Y-88436616D01*
X139176213Y-88425928D01*
X139160953Y-88419134D01*
X139062287Y-88375205D01*
X138875486Y-88335499D01*
X138684512Y-88335499D01*
X138497710Y-88375205D01*
X138323246Y-88452881D01*
X138168743Y-88565134D01*
X138040964Y-88707047D01*
X138040957Y-88707057D01*
X137960750Y-88845980D01*
X137945472Y-88872443D01*
X137913163Y-88971879D01*
X137912654Y-88973446D01*
X137872580Y-89032051D01*
X137807183Y-89059688D01*
X137792821Y-89060509D01*
X137776513Y-89060509D01*
X137589711Y-89100215D01*
X137415247Y-89177891D01*
X137260744Y-89290144D01*
X137132965Y-89432057D01*
X137132958Y-89432067D01*
X137037476Y-89597447D01*
X137037473Y-89597453D01*
X137030197Y-89619845D01*
X136978457Y-89779081D01*
X136958496Y-89969009D01*
X129433500Y-89969009D01*
X129433500Y-85800000D01*
X145086496Y-85800000D01*
X145106457Y-85989927D01*
X145136526Y-86082470D01*
X145165473Y-86171556D01*
X145165476Y-86171561D01*
X145260958Y-86336941D01*
X145260965Y-86336951D01*
X145388744Y-86478864D01*
X145388747Y-86478866D01*
X145543248Y-86591118D01*
X145717712Y-86668794D01*
X145904513Y-86708500D01*
X146095487Y-86708500D01*
X146282288Y-86668794D01*
X146456752Y-86591118D01*
X146611253Y-86478866D01*
X146739040Y-86336944D01*
X146834527Y-86171556D01*
X146893542Y-85989928D01*
X146913504Y-85800000D01*
X146893542Y-85610072D01*
X146834527Y-85428444D01*
X146739040Y-85263056D01*
X146739038Y-85263054D01*
X146739034Y-85263048D01*
X146611255Y-85121135D01*
X146456752Y-85008882D01*
X146282288Y-84931206D01*
X146095487Y-84891500D01*
X145904513Y-84891500D01*
X145717711Y-84931206D01*
X145543247Y-85008882D01*
X145388744Y-85121135D01*
X145260965Y-85263048D01*
X145260958Y-85263058D01*
X145165476Y-85428438D01*
X145165473Y-85428445D01*
X145106457Y-85610072D01*
X145086496Y-85800000D01*
X129433500Y-85800000D01*
X129433500Y-84272000D01*
X139498496Y-84272000D01*
X139518457Y-84461927D01*
X139548526Y-84554470D01*
X139577473Y-84643556D01*
X139577476Y-84643561D01*
X139672958Y-84808941D01*
X139672965Y-84808951D01*
X139800744Y-84950864D01*
X139861999Y-84995368D01*
X139955248Y-85063118D01*
X140129712Y-85140794D01*
X140316513Y-85180500D01*
X140507487Y-85180500D01*
X140694288Y-85140794D01*
X140868752Y-85063118D01*
X141023253Y-84950866D01*
X141049342Y-84921891D01*
X141151034Y-84808951D01*
X141151035Y-84808949D01*
X141151040Y-84808944D01*
X141246527Y-84643556D01*
X141293172Y-84500000D01*
X153086496Y-84500000D01*
X153106457Y-84689927D01*
X153136472Y-84782301D01*
X153165473Y-84871556D01*
X153165476Y-84871561D01*
X153260958Y-85036941D01*
X153260965Y-85036951D01*
X153388744Y-85178864D01*
X153388747Y-85178866D01*
X153543248Y-85291118D01*
X153717712Y-85368794D01*
X153904513Y-85408500D01*
X154095487Y-85408500D01*
X154282288Y-85368794D01*
X154456752Y-85291118D01*
X154611253Y-85178866D01*
X154739040Y-85036944D01*
X154834527Y-84871556D01*
X154893542Y-84689928D01*
X154913504Y-84500000D01*
X154893542Y-84310072D01*
X154834527Y-84128444D01*
X154739040Y-83963056D01*
X154739038Y-83963054D01*
X154739034Y-83963048D01*
X154611255Y-83821135D01*
X154456752Y-83708882D01*
X154282288Y-83631206D01*
X154095487Y-83591500D01*
X153904513Y-83591500D01*
X153717711Y-83631206D01*
X153543247Y-83708882D01*
X153388744Y-83821135D01*
X153260965Y-83963048D01*
X153260958Y-83963058D01*
X153165476Y-84128438D01*
X153165473Y-84128445D01*
X153106457Y-84310072D01*
X153086496Y-84500000D01*
X141293172Y-84500000D01*
X141305542Y-84461928D01*
X141325504Y-84272000D01*
X141305542Y-84082072D01*
X141246527Y-83900444D01*
X141151040Y-83735056D01*
X141151038Y-83735054D01*
X141151034Y-83735048D01*
X141023255Y-83593135D01*
X140868752Y-83480882D01*
X140694288Y-83403206D01*
X140507487Y-83363500D01*
X140316513Y-83363500D01*
X140129711Y-83403206D01*
X139955247Y-83480882D01*
X139800744Y-83593135D01*
X139672965Y-83735048D01*
X139672958Y-83735058D01*
X139577476Y-83900438D01*
X139577473Y-83900445D01*
X139518457Y-84082072D01*
X139498496Y-84272000D01*
X129433500Y-84272000D01*
X129433500Y-82739301D01*
X129409155Y-82616910D01*
X129361400Y-82501620D01*
X129292071Y-82397862D01*
X129203833Y-82309624D01*
X128945703Y-82051494D01*
X128911677Y-81989182D01*
X128916742Y-81918367D01*
X128959289Y-81861531D01*
X129004122Y-81841186D01*
X129004008Y-81840835D01*
X129007138Y-81839817D01*
X129008608Y-81839151D01*
X129010288Y-81838794D01*
X129184752Y-81761118D01*
X129339253Y-81648866D01*
X129467040Y-81506944D01*
X129562527Y-81341556D01*
X129616895Y-81174229D01*
X129656967Y-81115625D01*
X129710528Y-81089921D01*
X129772288Y-81076794D01*
X129946752Y-80999118D01*
X130101253Y-80886866D01*
X130229040Y-80744944D01*
X130324527Y-80579556D01*
X130383542Y-80397928D01*
X130403504Y-80208000D01*
X130383542Y-80018072D01*
X130324527Y-79836444D01*
X130229040Y-79671056D01*
X130229039Y-79671055D01*
X130228082Y-79669397D01*
X130211344Y-79600402D01*
X130234564Y-79533310D01*
X130290371Y-79489423D01*
X130337201Y-79480397D01*
X130531327Y-79480397D01*
X130718128Y-79440691D01*
X130892592Y-79363015D01*
X131047093Y-79250763D01*
X131050853Y-79246587D01*
X131174874Y-79108848D01*
X131174875Y-79108846D01*
X131174880Y-79108841D01*
X131270367Y-78943453D01*
X131329382Y-78761825D01*
X131349344Y-78571897D01*
X131329382Y-78381969D01*
X131270367Y-78200341D01*
X131174880Y-78034953D01*
X131174878Y-78034951D01*
X131174874Y-78034945D01*
X131047095Y-77893032D01*
X130892592Y-77780779D01*
X130718128Y-77703103D01*
X130531327Y-77663397D01*
X130340353Y-77663397D01*
X130153551Y-77703103D01*
X129979087Y-77780779D01*
X129824584Y-77893032D01*
X129696805Y-78034945D01*
X129696798Y-78034955D01*
X129601316Y-78200335D01*
X129601313Y-78200342D01*
X129542297Y-78381969D01*
X129522336Y-78571897D01*
X129542297Y-78761824D01*
X129558276Y-78811000D01*
X129601313Y-78943453D01*
X129601316Y-78943458D01*
X129697758Y-79110500D01*
X129714496Y-79179495D01*
X129691276Y-79246587D01*
X129635469Y-79290474D01*
X129588639Y-79299500D01*
X129394513Y-79299500D01*
X129207711Y-79339206D01*
X129033247Y-79416882D01*
X128878744Y-79529135D01*
X128750965Y-79671048D01*
X128750958Y-79671058D01*
X128655476Y-79836438D01*
X128655473Y-79836445D01*
X128601105Y-80003768D01*
X128561031Y-80062374D01*
X128507471Y-80088077D01*
X128445714Y-80101204D01*
X128271247Y-80178882D01*
X128116744Y-80291135D01*
X127988965Y-80433048D01*
X127988958Y-80433058D01*
X127893476Y-80598438D01*
X127893473Y-80598445D01*
X127834457Y-80780072D01*
X127814496Y-80970001D01*
X127814496Y-80970002D01*
X127815110Y-80975848D01*
X127802333Y-81045685D01*
X127753827Y-81097528D01*
X127715999Y-81112255D01*
X127692714Y-81117204D01*
X127518247Y-81194882D01*
X127363744Y-81307135D01*
X127235965Y-81449048D01*
X127235958Y-81449058D01*
X127140476Y-81614438D01*
X127140473Y-81614444D01*
X127129289Y-81648864D01*
X127081457Y-81796072D01*
X127061496Y-81986000D01*
X127081457Y-82175927D01*
X127104219Y-82245978D01*
X127140473Y-82357556D01*
X127140473Y-82357557D01*
X127140474Y-82357558D01*
X127182876Y-82431001D01*
X127199613Y-82499996D01*
X127182876Y-82556999D01*
X127140474Y-82630441D01*
X127140473Y-82630445D01*
X127081457Y-82812072D01*
X127061496Y-83002000D01*
X127071469Y-83096896D01*
X127058696Y-83166734D01*
X127010194Y-83218580D01*
X126941361Y-83235974D01*
X126894912Y-83225172D01*
X126724288Y-83149206D01*
X126537487Y-83109500D01*
X126346513Y-83109500D01*
X126159711Y-83149206D01*
X125985247Y-83226882D01*
X125830744Y-83339135D01*
X125702965Y-83481048D01*
X125702958Y-83481058D01*
X125607476Y-83646438D01*
X125607473Y-83646444D01*
X125585237Y-83714878D01*
X125561888Y-83786738D01*
X125521814Y-83845343D01*
X125456417Y-83872980D01*
X125442055Y-83873801D01*
X125330513Y-83873801D01*
X125143711Y-83913507D01*
X124969247Y-83991183D01*
X124814744Y-84103436D01*
X124686965Y-84245349D01*
X124686958Y-84245359D01*
X124591476Y-84410739D01*
X124591473Y-84410746D01*
X124532457Y-84592373D01*
X124512496Y-84782301D01*
X124532457Y-84972228D01*
X124561990Y-85063117D01*
X124591473Y-85153857D01*
X124591476Y-85153862D01*
X124686958Y-85319242D01*
X124686965Y-85319252D01*
X124814744Y-85461165D01*
X124814747Y-85461167D01*
X124969248Y-85573419D01*
X125143712Y-85651095D01*
X125330513Y-85690801D01*
X125521487Y-85690801D01*
X125708288Y-85651095D01*
X125882752Y-85573419D01*
X126037253Y-85461167D01*
X126066717Y-85428444D01*
X126165034Y-85319252D01*
X126165035Y-85319250D01*
X126165040Y-85319245D01*
X126260527Y-85153857D01*
X126306112Y-85013563D01*
X126346186Y-84954958D01*
X126411583Y-84927321D01*
X126425945Y-84926500D01*
X126537487Y-84926500D01*
X126724288Y-84886794D01*
X126898752Y-84809118D01*
X127053253Y-84696866D01*
X127101249Y-84643561D01*
X127181034Y-84554951D01*
X127181035Y-84554949D01*
X127181040Y-84554944D01*
X127212267Y-84500856D01*
X127263646Y-84451866D01*
X127333360Y-84438429D01*
X127399271Y-84464815D01*
X127426149Y-84493857D01*
X127482925Y-84578828D01*
X127482931Y-84578835D01*
X127529595Y-84625499D01*
X127563621Y-84687811D01*
X127566500Y-84714594D01*
X127566500Y-89263722D01*
X127546498Y-89331843D01*
X127492842Y-89378336D01*
X127422568Y-89388440D01*
X127389252Y-89378829D01*
X127282288Y-89331206D01*
X127095487Y-89291500D01*
X126904513Y-89291500D01*
X126717711Y-89331206D01*
X126543247Y-89408882D01*
X126388744Y-89521135D01*
X126260965Y-89663048D01*
X126260958Y-89663058D01*
X126165476Y-89828438D01*
X126165473Y-89828445D01*
X126106457Y-90010072D01*
X126086496Y-90200000D01*
X126106457Y-90389927D01*
X126136526Y-90482470D01*
X126165473Y-90571556D01*
X126177886Y-90593056D01*
X126260958Y-90736941D01*
X126260965Y-90736951D01*
X126388744Y-90878864D01*
X126388747Y-90878866D01*
X126543248Y-90991118D01*
X126628869Y-91029238D01*
X126631594Y-91030452D01*
X126685690Y-91076432D01*
X126706339Y-91144360D01*
X126686987Y-91212668D01*
X126669440Y-91234654D01*
X123796167Y-94107929D01*
X123707931Y-94196164D01*
X123707926Y-94196171D01*
X123638601Y-94299923D01*
X123590846Y-94415212D01*
X123566500Y-94537603D01*
X123566500Y-104097474D01*
X123546498Y-104165595D01*
X123534137Y-104181784D01*
X123460957Y-104263059D01*
X123365476Y-104428438D01*
X123365473Y-104428445D01*
X123306457Y-104610072D01*
X123286496Y-104800000D01*
X100284000Y-104800000D01*
X100284000Y-91130000D01*
X113590496Y-91130000D01*
X113610457Y-91319927D01*
X113640526Y-91412470D01*
X113669473Y-91501556D01*
X113669476Y-91501561D01*
X113764958Y-91666941D01*
X113764965Y-91666951D01*
X113892744Y-91808864D01*
X113912571Y-91823269D01*
X114047248Y-91921118D01*
X114221712Y-91998794D01*
X114408513Y-92038500D01*
X114599487Y-92038500D01*
X114786288Y-91998794D01*
X114960752Y-91921118D01*
X115115253Y-91808866D01*
X115243040Y-91666944D01*
X115262441Y-91633341D01*
X119437157Y-91633341D01*
X119457118Y-91823268D01*
X119487187Y-91915811D01*
X119516134Y-92004897D01*
X119516137Y-92004902D01*
X119611619Y-92170282D01*
X119611626Y-92170292D01*
X119739405Y-92312205D01*
X119739408Y-92312207D01*
X119893909Y-92424459D01*
X120068373Y-92502135D01*
X120255174Y-92541841D01*
X120446148Y-92541841D01*
X120632949Y-92502135D01*
X120807413Y-92424459D01*
X120961914Y-92312207D01*
X121089701Y-92170285D01*
X121185188Y-92004897D01*
X121244203Y-91823269D01*
X121264165Y-91633341D01*
X121244203Y-91443413D01*
X121185188Y-91261785D01*
X121089701Y-91096397D01*
X121089699Y-91096395D01*
X121089695Y-91096389D01*
X120961916Y-90954476D01*
X120807413Y-90842223D01*
X120632949Y-90764547D01*
X120446148Y-90724841D01*
X120255174Y-90724841D01*
X120068372Y-90764547D01*
X119893908Y-90842223D01*
X119739405Y-90954476D01*
X119611626Y-91096389D01*
X119611619Y-91096399D01*
X119516137Y-91261779D01*
X119516134Y-91261786D01*
X119457118Y-91443413D01*
X119437157Y-91633341D01*
X115262441Y-91633341D01*
X115338527Y-91501556D01*
X115397542Y-91319928D01*
X115417504Y-91130000D01*
X115397542Y-90940072D01*
X115338527Y-90758444D01*
X115243040Y-90593056D01*
X115243038Y-90593054D01*
X115243034Y-90593048D01*
X115115255Y-90451135D01*
X114960752Y-90338882D01*
X114786288Y-90261206D01*
X114599487Y-90221500D01*
X114408513Y-90221500D01*
X114221711Y-90261206D01*
X114047247Y-90338882D01*
X113892744Y-90451135D01*
X113764965Y-90593048D01*
X113764958Y-90593058D01*
X113681886Y-90736944D01*
X113669473Y-90758444D01*
X113668926Y-90760127D01*
X113610457Y-90940072D01*
X113590496Y-91130000D01*
X100284000Y-91130000D01*
X100284000Y-87500000D01*
X123086496Y-87500000D01*
X123106457Y-87689927D01*
X123136526Y-87782470D01*
X123165473Y-87871556D01*
X123165476Y-87871561D01*
X123260958Y-88036941D01*
X123260965Y-88036951D01*
X123388744Y-88178864D01*
X123388747Y-88178866D01*
X123543248Y-88291118D01*
X123717712Y-88368794D01*
X123904513Y-88408500D01*
X124095487Y-88408500D01*
X124282288Y-88368794D01*
X124456752Y-88291118D01*
X124611253Y-88178866D01*
X124739040Y-88036944D01*
X124834527Y-87871556D01*
X124893542Y-87689928D01*
X124913504Y-87500000D01*
X124893542Y-87310072D01*
X124834527Y-87128444D01*
X124739040Y-86963056D01*
X124739038Y-86963054D01*
X124739034Y-86963048D01*
X124611255Y-86821135D01*
X124456752Y-86708882D01*
X124282288Y-86631206D01*
X124095487Y-86591500D01*
X123904513Y-86591500D01*
X123717711Y-86631206D01*
X123543247Y-86708882D01*
X123388744Y-86821135D01*
X123260965Y-86963048D01*
X123260958Y-86963058D01*
X123165476Y-87128438D01*
X123165473Y-87128445D01*
X123106457Y-87310072D01*
X123086496Y-87500000D01*
X100284000Y-87500000D01*
X100284000Y-82303501D01*
X119876995Y-82303501D01*
X119896956Y-82493428D01*
X119899618Y-82501620D01*
X119955972Y-82675057D01*
X119955975Y-82675062D01*
X120051457Y-82840442D01*
X120051464Y-82840452D01*
X120179243Y-82982365D01*
X120230830Y-83019845D01*
X120333747Y-83094619D01*
X120508211Y-83172295D01*
X120695012Y-83212001D01*
X120885986Y-83212001D01*
X121072787Y-83172295D01*
X121247251Y-83094619D01*
X121401752Y-82982367D01*
X121401754Y-82982365D01*
X121529533Y-82840452D01*
X121529534Y-82840450D01*
X121529539Y-82840445D01*
X121625026Y-82675057D01*
X121684041Y-82493429D01*
X121704003Y-82303501D01*
X121684041Y-82113573D01*
X121625026Y-81931945D01*
X121529539Y-81766557D01*
X121529537Y-81766555D01*
X121529533Y-81766549D01*
X121401754Y-81624636D01*
X121247251Y-81512383D01*
X121072787Y-81434707D01*
X120885986Y-81395001D01*
X120695012Y-81395001D01*
X120508210Y-81434707D01*
X120333746Y-81512383D01*
X120179243Y-81624636D01*
X120051464Y-81766549D01*
X120051457Y-81766559D01*
X119955975Y-81931939D01*
X119955972Y-81931946D01*
X119896956Y-82113573D01*
X119876995Y-82303501D01*
X100284000Y-82303501D01*
X100284000Y-81000000D01*
X109586496Y-81000000D01*
X109606457Y-81189927D01*
X109636526Y-81282470D01*
X109665473Y-81371556D01*
X109665476Y-81371561D01*
X109760958Y-81536941D01*
X109760965Y-81536951D01*
X109888744Y-81678864D01*
X109888747Y-81678866D01*
X110043248Y-81791118D01*
X110217712Y-81868794D01*
X110404513Y-81908500D01*
X110595487Y-81908500D01*
X110782288Y-81868794D01*
X110956752Y-81791118D01*
X111111253Y-81678866D01*
X111239040Y-81536944D01*
X111334527Y-81371556D01*
X111393542Y-81189928D01*
X111413504Y-81000000D01*
X111393542Y-80810072D01*
X111334527Y-80628444D01*
X111239040Y-80463056D01*
X111239038Y-80463054D01*
X111239034Y-80463048D01*
X111111255Y-80321135D01*
X110956752Y-80208882D01*
X110782288Y-80131206D01*
X110595487Y-80091500D01*
X110404513Y-80091500D01*
X110217711Y-80131206D01*
X110043247Y-80208882D01*
X109888744Y-80321135D01*
X109760965Y-80463048D01*
X109760958Y-80463058D01*
X109665476Y-80628438D01*
X109665473Y-80628445D01*
X109606457Y-80810072D01*
X109586496Y-81000000D01*
X100284000Y-81000000D01*
X100284000Y-78811000D01*
X125464496Y-78811000D01*
X125484457Y-79000927D01*
X125514526Y-79093470D01*
X125543473Y-79182556D01*
X125543476Y-79182561D01*
X125638958Y-79347941D01*
X125638965Y-79347951D01*
X125766744Y-79489864D01*
X125766747Y-79489866D01*
X125921248Y-79602118D01*
X126095712Y-79679794D01*
X126282513Y-79719500D01*
X126473487Y-79719500D01*
X126660288Y-79679794D01*
X126834752Y-79602118D01*
X126989253Y-79489866D01*
X126997779Y-79480397D01*
X127117034Y-79347951D01*
X127117035Y-79347949D01*
X127117040Y-79347944D01*
X127212527Y-79182556D01*
X127271542Y-79000928D01*
X127291504Y-78811000D01*
X127271542Y-78621072D01*
X127212527Y-78439444D01*
X127117040Y-78274056D01*
X127117038Y-78274054D01*
X127117034Y-78274048D01*
X126989255Y-78132135D01*
X126834752Y-78019882D01*
X126660288Y-77942206D01*
X126473487Y-77902500D01*
X126282513Y-77902500D01*
X126095711Y-77942206D01*
X125921247Y-78019882D01*
X125766744Y-78132135D01*
X125638965Y-78274048D01*
X125638958Y-78274058D01*
X125543476Y-78439438D01*
X125543473Y-78439445D01*
X125484457Y-78621072D01*
X125464496Y-78811000D01*
X100284000Y-78811000D01*
X100284000Y-74000000D01*
X101136656Y-74000000D01*
X101156016Y-74332403D01*
X101156016Y-74332409D01*
X101166218Y-74390268D01*
X101213838Y-74660333D01*
X101309337Y-74979321D01*
X101309339Y-74979327D01*
X101309340Y-74979328D01*
X101441220Y-75285063D01*
X101441223Y-75285068D01*
X101483619Y-75358500D01*
X101607711Y-75573433D01*
X101800492Y-75832384D01*
X101806552Y-75840523D01*
X102035057Y-76082724D01*
X102181793Y-76205850D01*
X102264203Y-76275000D01*
X102290134Y-76296758D01*
X102568320Y-76479724D01*
X102568328Y-76479729D01*
X102865887Y-76629169D01*
X103022335Y-76686111D01*
X103178775Y-76743051D01*
X103178776Y-76743051D01*
X103178784Y-76743054D01*
X103502786Y-76819843D01*
X103691771Y-76841932D01*
X103833508Y-76858500D01*
X103833511Y-76858500D01*
X104166492Y-76858500D01*
X104290510Y-76844003D01*
X104497214Y-76819843D01*
X104821216Y-76743054D01*
X105134113Y-76629169D01*
X105431672Y-76479729D01*
X105709870Y-76296755D01*
X105964946Y-76082721D01*
X106193449Y-75840522D01*
X106392289Y-75573433D01*
X106558778Y-75285066D01*
X106690663Y-74979321D01*
X106786162Y-74660333D01*
X106843983Y-74332414D01*
X106863344Y-74000000D01*
X106843983Y-73667586D01*
X106786162Y-73339667D01*
X106714814Y-73101350D01*
X107641500Y-73101350D01*
X107641500Y-74898649D01*
X107648009Y-74959196D01*
X107648011Y-74959204D01*
X107699110Y-75096202D01*
X107699112Y-75096207D01*
X107786738Y-75213261D01*
X107903792Y-75300887D01*
X107903794Y-75300888D01*
X107903796Y-75300889D01*
X107943760Y-75315795D01*
X108040795Y-75351988D01*
X108040803Y-75351990D01*
X108101350Y-75358499D01*
X108101355Y-75358499D01*
X108101362Y-75358500D01*
X108101368Y-75358500D01*
X109898632Y-75358500D01*
X109898638Y-75358500D01*
X109898645Y-75358499D01*
X109898649Y-75358499D01*
X109959196Y-75351990D01*
X109959199Y-75351989D01*
X109959201Y-75351989D01*
X110096204Y-75300889D01*
X110117339Y-75285068D01*
X110213261Y-75213261D01*
X110300886Y-75096208D01*
X110300885Y-75096208D01*
X110300889Y-75096204D01*
X110344999Y-74977939D01*
X110387545Y-74921107D01*
X110454066Y-74896296D01*
X110523440Y-74911388D01*
X110555753Y-74936635D01*
X110595049Y-74979322D01*
X110616762Y-75002908D01*
X110647276Y-75026658D01*
X110794424Y-75141189D01*
X110992426Y-75248342D01*
X110992427Y-75248342D01*
X110992428Y-75248343D01*
X111061613Y-75272094D01*
X111205365Y-75321444D01*
X111427431Y-75358500D01*
X111427435Y-75358500D01*
X111652565Y-75358500D01*
X111652569Y-75358500D01*
X111874635Y-75321444D01*
X112087574Y-75248342D01*
X112285576Y-75141189D01*
X112463240Y-75002906D01*
X112615722Y-74837268D01*
X112704518Y-74701354D01*
X112758520Y-74655268D01*
X112828868Y-74645692D01*
X112893225Y-74675669D01*
X112915480Y-74701353D01*
X112932772Y-74727820D01*
X113004275Y-74837265D01*
X113004279Y-74837270D01*
X113156762Y-75002908D01*
X113187276Y-75026658D01*
X113334424Y-75141189D01*
X113532426Y-75248342D01*
X113532427Y-75248342D01*
X113532428Y-75248343D01*
X113601613Y-75272094D01*
X113745365Y-75321444D01*
X113967431Y-75358500D01*
X113967435Y-75358500D01*
X114192565Y-75358500D01*
X114192569Y-75358500D01*
X114414635Y-75321444D01*
X114627574Y-75248342D01*
X114825576Y-75141189D01*
X115003240Y-75002906D01*
X115155722Y-74837268D01*
X115244518Y-74701354D01*
X115298520Y-74655268D01*
X115368868Y-74645692D01*
X115433225Y-74675669D01*
X115455480Y-74701353D01*
X115472772Y-74727820D01*
X115544275Y-74837265D01*
X115544279Y-74837270D01*
X115696762Y-75002908D01*
X115727276Y-75026658D01*
X115874424Y-75141189D01*
X116072426Y-75248342D01*
X116072427Y-75248342D01*
X116072428Y-75248343D01*
X116141613Y-75272094D01*
X116285365Y-75321444D01*
X116507431Y-75358500D01*
X116507435Y-75358500D01*
X116732565Y-75358500D01*
X116732569Y-75358500D01*
X116954635Y-75321444D01*
X117167574Y-75248342D01*
X117365576Y-75141189D01*
X117543240Y-75002906D01*
X117695722Y-74837268D01*
X117784518Y-74701354D01*
X117838520Y-74655268D01*
X117908868Y-74645692D01*
X117973225Y-74675669D01*
X117995480Y-74701353D01*
X118012772Y-74727820D01*
X118084275Y-74837265D01*
X118084279Y-74837270D01*
X118236762Y-75002908D01*
X118267276Y-75026658D01*
X118414424Y-75141189D01*
X118612426Y-75248342D01*
X118612427Y-75248342D01*
X118612428Y-75248343D01*
X118681613Y-75272094D01*
X118825365Y-75321444D01*
X119047431Y-75358500D01*
X119047435Y-75358500D01*
X119272565Y-75358500D01*
X119272569Y-75358500D01*
X119494635Y-75321444D01*
X119707574Y-75248342D01*
X119905576Y-75141189D01*
X120083240Y-75002906D01*
X120235722Y-74837268D01*
X120324518Y-74701354D01*
X120378520Y-74655268D01*
X120448868Y-74645692D01*
X120513225Y-74675669D01*
X120535480Y-74701353D01*
X120552772Y-74727820D01*
X120624275Y-74837265D01*
X120624279Y-74837270D01*
X120776762Y-75002908D01*
X120807276Y-75026658D01*
X120954424Y-75141189D01*
X121152426Y-75248342D01*
X121152427Y-75248342D01*
X121152428Y-75248343D01*
X121221613Y-75272094D01*
X121365365Y-75321444D01*
X121587431Y-75358500D01*
X121587435Y-75358500D01*
X121812565Y-75358500D01*
X121812569Y-75358500D01*
X122034635Y-75321444D01*
X122247574Y-75248342D01*
X122445576Y-75141189D01*
X122623240Y-75002906D01*
X122775722Y-74837268D01*
X122864518Y-74701354D01*
X122918520Y-74655268D01*
X122988868Y-74645692D01*
X123053225Y-74675669D01*
X123075480Y-74701353D01*
X123092772Y-74727820D01*
X123164275Y-74837265D01*
X123164279Y-74837270D01*
X123316762Y-75002908D01*
X123347276Y-75026658D01*
X123494424Y-75141189D01*
X123692426Y-75248342D01*
X123692427Y-75248342D01*
X123692428Y-75248343D01*
X123761613Y-75272094D01*
X123905365Y-75321444D01*
X124127431Y-75358500D01*
X124127435Y-75358500D01*
X124352565Y-75358500D01*
X124352569Y-75358500D01*
X124574635Y-75321444D01*
X124787574Y-75248342D01*
X124985576Y-75141189D01*
X125163240Y-75002906D01*
X125315722Y-74837268D01*
X125404518Y-74701354D01*
X125458520Y-74655268D01*
X125528868Y-74645692D01*
X125593225Y-74675669D01*
X125615480Y-74701353D01*
X125632772Y-74727820D01*
X125704275Y-74837265D01*
X125704279Y-74837270D01*
X125856762Y-75002908D01*
X125887276Y-75026658D01*
X126034424Y-75141189D01*
X126232426Y-75248342D01*
X126232427Y-75248342D01*
X126232428Y-75248343D01*
X126301613Y-75272094D01*
X126445365Y-75321444D01*
X126667431Y-75358500D01*
X126667435Y-75358500D01*
X126892565Y-75358500D01*
X126892569Y-75358500D01*
X127114635Y-75321444D01*
X127327574Y-75248342D01*
X127525576Y-75141189D01*
X127703240Y-75002906D01*
X127855722Y-74837268D01*
X127944518Y-74701354D01*
X127998520Y-74655268D01*
X128068868Y-74645692D01*
X128133225Y-74675669D01*
X128155480Y-74701353D01*
X128172772Y-74727820D01*
X128244275Y-74837265D01*
X128244279Y-74837270D01*
X128396762Y-75002908D01*
X128427276Y-75026658D01*
X128574424Y-75141189D01*
X128772426Y-75248342D01*
X128772427Y-75248342D01*
X128772428Y-75248343D01*
X128841613Y-75272094D01*
X128985365Y-75321444D01*
X129207431Y-75358500D01*
X129207435Y-75358500D01*
X129432565Y-75358500D01*
X129432569Y-75358500D01*
X129654635Y-75321444D01*
X129867574Y-75248342D01*
X130065576Y-75141189D01*
X130243240Y-75002906D01*
X130395722Y-74837268D01*
X130484518Y-74701354D01*
X130538520Y-74655268D01*
X130608868Y-74645692D01*
X130673225Y-74675669D01*
X130695480Y-74701353D01*
X130712772Y-74727820D01*
X130784275Y-74837265D01*
X130784279Y-74837270D01*
X130936762Y-75002908D01*
X130967276Y-75026658D01*
X131114424Y-75141189D01*
X131312426Y-75248342D01*
X131312427Y-75248342D01*
X131312428Y-75248343D01*
X131381613Y-75272094D01*
X131525365Y-75321444D01*
X131747431Y-75358500D01*
X131747435Y-75358500D01*
X131972565Y-75358500D01*
X131972569Y-75358500D01*
X132194635Y-75321444D01*
X132407574Y-75248342D01*
X132605576Y-75141189D01*
X132783240Y-75002906D01*
X132935722Y-74837268D01*
X133024518Y-74701354D01*
X133078520Y-74655268D01*
X133148868Y-74645692D01*
X133213225Y-74675669D01*
X133235480Y-74701353D01*
X133252772Y-74727820D01*
X133324275Y-74837265D01*
X133324279Y-74837270D01*
X133476762Y-75002908D01*
X133507276Y-75026658D01*
X133654424Y-75141189D01*
X133852426Y-75248342D01*
X133852427Y-75248342D01*
X133852428Y-75248343D01*
X133921613Y-75272094D01*
X134065365Y-75321444D01*
X134287431Y-75358500D01*
X134287435Y-75358500D01*
X134512565Y-75358500D01*
X134512569Y-75358500D01*
X134734635Y-75321444D01*
X134947574Y-75248342D01*
X135145576Y-75141189D01*
X135323240Y-75002906D01*
X135475722Y-74837268D01*
X135564518Y-74701354D01*
X135618520Y-74655268D01*
X135688868Y-74645692D01*
X135753225Y-74675669D01*
X135775480Y-74701353D01*
X135792772Y-74727820D01*
X135864275Y-74837265D01*
X135864279Y-74837270D01*
X136016762Y-75002908D01*
X136047276Y-75026658D01*
X136194424Y-75141189D01*
X136392426Y-75248342D01*
X136392427Y-75248342D01*
X136392428Y-75248343D01*
X136461613Y-75272094D01*
X136605365Y-75321444D01*
X136827431Y-75358500D01*
X136827435Y-75358500D01*
X137052565Y-75358500D01*
X137052569Y-75358500D01*
X137274635Y-75321444D01*
X137487574Y-75248342D01*
X137685576Y-75141189D01*
X137863240Y-75002906D01*
X138015722Y-74837268D01*
X138104518Y-74701354D01*
X138158520Y-74655268D01*
X138228868Y-74645692D01*
X138293225Y-74675669D01*
X138315480Y-74701353D01*
X138332772Y-74727820D01*
X138404275Y-74837265D01*
X138404279Y-74837270D01*
X138556762Y-75002908D01*
X138587276Y-75026658D01*
X138734424Y-75141189D01*
X138932426Y-75248342D01*
X138932427Y-75248342D01*
X138932428Y-75248343D01*
X139001613Y-75272094D01*
X139145365Y-75321444D01*
X139367431Y-75358500D01*
X139367435Y-75358500D01*
X139592565Y-75358500D01*
X139592569Y-75358500D01*
X139814635Y-75321444D01*
X140027574Y-75248342D01*
X140225576Y-75141189D01*
X140403240Y-75002906D01*
X140555722Y-74837268D01*
X140644518Y-74701354D01*
X140698520Y-74655268D01*
X140768868Y-74645692D01*
X140833225Y-74675669D01*
X140855480Y-74701353D01*
X140872772Y-74727820D01*
X140944275Y-74837265D01*
X140944279Y-74837270D01*
X141096762Y-75002908D01*
X141127276Y-75026658D01*
X141274424Y-75141189D01*
X141472426Y-75248342D01*
X141472427Y-75248342D01*
X141472428Y-75248343D01*
X141541613Y-75272094D01*
X141685365Y-75321444D01*
X141907431Y-75358500D01*
X141907435Y-75358500D01*
X142132565Y-75358500D01*
X142132569Y-75358500D01*
X142354635Y-75321444D01*
X142567574Y-75248342D01*
X142765576Y-75141189D01*
X142943240Y-75002906D01*
X143095722Y-74837268D01*
X143184518Y-74701354D01*
X143238520Y-74655268D01*
X143308868Y-74645692D01*
X143373225Y-74675669D01*
X143395480Y-74701353D01*
X143412772Y-74727820D01*
X143484275Y-74837265D01*
X143484279Y-74837270D01*
X143636762Y-75002908D01*
X143667276Y-75026658D01*
X143814424Y-75141189D01*
X144012426Y-75248342D01*
X144012427Y-75248342D01*
X144012428Y-75248343D01*
X144081613Y-75272094D01*
X144225365Y-75321444D01*
X144447431Y-75358500D01*
X144447435Y-75358500D01*
X144672565Y-75358500D01*
X144672569Y-75358500D01*
X144894635Y-75321444D01*
X145107574Y-75248342D01*
X145305576Y-75141189D01*
X145483240Y-75002906D01*
X145635722Y-74837268D01*
X145724518Y-74701354D01*
X145778520Y-74655268D01*
X145848868Y-74645692D01*
X145913225Y-74675669D01*
X145935480Y-74701353D01*
X145952772Y-74727820D01*
X146024275Y-74837265D01*
X146024279Y-74837270D01*
X146176762Y-75002908D01*
X146207276Y-75026658D01*
X146354424Y-75141189D01*
X146552426Y-75248342D01*
X146552427Y-75248342D01*
X146552428Y-75248343D01*
X146621613Y-75272094D01*
X146765365Y-75321444D01*
X146987431Y-75358500D01*
X146987435Y-75358500D01*
X147212565Y-75358500D01*
X147212569Y-75358500D01*
X147434635Y-75321444D01*
X147647574Y-75248342D01*
X147845576Y-75141189D01*
X148023240Y-75002906D01*
X148175722Y-74837268D01*
X148298860Y-74648791D01*
X148389296Y-74442616D01*
X148444564Y-74224368D01*
X148463156Y-74000000D01*
X148444564Y-73775632D01*
X148434275Y-73735000D01*
X151611844Y-73735000D01*
X151630437Y-73959375D01*
X151685702Y-74177612D01*
X151685703Y-74177613D01*
X151685704Y-74177616D01*
X151753599Y-74332403D01*
X151776141Y-74383793D01*
X151899275Y-74572265D01*
X151899280Y-74572270D01*
X152042475Y-74727820D01*
X152073896Y-74791485D01*
X152065909Y-74862031D01*
X152021051Y-74917060D01*
X151993807Y-74931213D01*
X151878797Y-74974110D01*
X151878792Y-74974112D01*
X151761738Y-75061738D01*
X151674112Y-75178792D01*
X151674110Y-75178797D01*
X151623011Y-75315795D01*
X151623009Y-75315803D01*
X151616500Y-75376350D01*
X151616500Y-77173649D01*
X151623009Y-77234196D01*
X151623011Y-77234204D01*
X151674110Y-77371202D01*
X151674112Y-77371207D01*
X151761738Y-77488261D01*
X151878792Y-77575887D01*
X151878794Y-77575888D01*
X151878796Y-77575889D01*
X151933900Y-77596442D01*
X152015795Y-77626988D01*
X152015803Y-77626990D01*
X152076350Y-77633499D01*
X152076355Y-77633499D01*
X152076362Y-77633500D01*
X152076368Y-77633500D01*
X153873632Y-77633500D01*
X153873638Y-77633500D01*
X153873645Y-77633499D01*
X153873649Y-77633499D01*
X153934196Y-77626990D01*
X153934199Y-77626989D01*
X153934201Y-77626989D01*
X154071204Y-77575889D01*
X154141399Y-77523342D01*
X154188261Y-77488261D01*
X154275886Y-77371208D01*
X154275885Y-77371208D01*
X154275889Y-77371204D01*
X154319999Y-77252939D01*
X154362545Y-77196107D01*
X154429066Y-77171296D01*
X154498440Y-77186388D01*
X154530753Y-77211635D01*
X154551529Y-77234204D01*
X154591762Y-77277908D01*
X154646331Y-77320381D01*
X154769424Y-77416189D01*
X154967426Y-77523342D01*
X154967427Y-77523342D01*
X154967428Y-77523343D01*
X155079227Y-77561723D01*
X155180365Y-77596444D01*
X155402431Y-77633500D01*
X155402435Y-77633500D01*
X155627565Y-77633500D01*
X155627569Y-77633500D01*
X155849635Y-77596444D01*
X156062574Y-77523342D01*
X156260576Y-77416189D01*
X156438240Y-77277906D01*
X156590722Y-77112268D01*
X156679518Y-76976354D01*
X156733520Y-76930268D01*
X156803868Y-76920692D01*
X156868225Y-76950669D01*
X156890480Y-76976353D01*
X156923607Y-77027058D01*
X156979275Y-77112265D01*
X156979279Y-77112270D01*
X157131762Y-77277908D01*
X157186331Y-77320381D01*
X157309424Y-77416189D01*
X157507426Y-77523342D01*
X157507427Y-77523342D01*
X157507428Y-77523343D01*
X157619227Y-77561723D01*
X157720365Y-77596444D01*
X157942431Y-77633500D01*
X157942435Y-77633500D01*
X158167565Y-77633500D01*
X158167569Y-77633500D01*
X158389635Y-77596444D01*
X158602574Y-77523342D01*
X158800576Y-77416189D01*
X158978240Y-77277906D01*
X159130722Y-77112268D01*
X159253860Y-76923791D01*
X159344296Y-76717616D01*
X159399564Y-76499368D01*
X159418156Y-76275000D01*
X159399564Y-76050632D01*
X159344296Y-75832384D01*
X159253860Y-75626209D01*
X159236500Y-75599637D01*
X159130724Y-75437734D01*
X159130720Y-75437729D01*
X159001220Y-75297057D01*
X158978240Y-75272094D01*
X158978239Y-75272093D01*
X158978237Y-75272091D01*
X158858367Y-75178792D01*
X158800576Y-75133811D01*
X158767319Y-75115813D01*
X158716929Y-75065802D01*
X158701576Y-74996485D01*
X158726136Y-74929872D01*
X158767320Y-74894186D01*
X158800576Y-74876189D01*
X158978240Y-74737906D01*
X159130722Y-74572268D01*
X159253860Y-74383791D01*
X159344296Y-74177616D01*
X159389275Y-74000000D01*
X162136656Y-74000000D01*
X162156016Y-74332403D01*
X162156016Y-74332409D01*
X162166218Y-74390268D01*
X162213838Y-74660333D01*
X162309337Y-74979321D01*
X162309339Y-74979327D01*
X162309340Y-74979328D01*
X162441220Y-75285063D01*
X162441223Y-75285068D01*
X162483619Y-75358500D01*
X162607711Y-75573433D01*
X162800492Y-75832384D01*
X162806552Y-75840523D01*
X163035057Y-76082724D01*
X163181793Y-76205850D01*
X163264203Y-76275000D01*
X163290134Y-76296758D01*
X163568320Y-76479724D01*
X163568328Y-76479729D01*
X163865887Y-76629169D01*
X164022335Y-76686111D01*
X164178775Y-76743051D01*
X164178776Y-76743051D01*
X164178784Y-76743054D01*
X164502786Y-76819843D01*
X164691771Y-76841932D01*
X164833508Y-76858500D01*
X164833511Y-76858500D01*
X165166492Y-76858500D01*
X165290510Y-76844003D01*
X165497214Y-76819843D01*
X165821216Y-76743054D01*
X166134113Y-76629169D01*
X166431672Y-76479729D01*
X166709870Y-76296755D01*
X166964946Y-76082721D01*
X167193449Y-75840522D01*
X167392289Y-75573433D01*
X167558778Y-75285066D01*
X167690663Y-74979321D01*
X167786162Y-74660333D01*
X167843983Y-74332414D01*
X167863344Y-74000000D01*
X167843983Y-73667586D01*
X167786162Y-73339667D01*
X167690663Y-73020679D01*
X167558778Y-72714934D01*
X167392289Y-72426567D01*
X167193449Y-72159478D01*
X166964946Y-71917279D01*
X166964944Y-71917278D01*
X166964942Y-71917275D01*
X166709865Y-71703241D01*
X166431679Y-71520275D01*
X166431675Y-71520273D01*
X166431672Y-71520271D01*
X166134113Y-71370831D01*
X166134108Y-71370829D01*
X166134103Y-71370827D01*
X165821224Y-71256948D01*
X165821217Y-71256946D01*
X165821216Y-71256946D01*
X165639258Y-71213821D01*
X165497219Y-71180158D01*
X165497209Y-71180156D01*
X165166492Y-71141500D01*
X165166489Y-71141500D01*
X164833511Y-71141500D01*
X164833508Y-71141500D01*
X164502790Y-71180156D01*
X164502780Y-71180158D01*
X164178784Y-71256946D01*
X164178775Y-71256948D01*
X163865896Y-71370827D01*
X163865891Y-71370829D01*
X163568320Y-71520275D01*
X163290134Y-71703241D01*
X163035057Y-71917275D01*
X162806552Y-72159476D01*
X162607714Y-72426562D01*
X162607704Y-72426578D01*
X162441223Y-72714931D01*
X162441220Y-72714936D01*
X162309340Y-73020671D01*
X162309337Y-73020679D01*
X162286249Y-73097798D01*
X162213838Y-73339666D01*
X162156016Y-73667590D01*
X162156016Y-73667596D01*
X162136656Y-74000000D01*
X159389275Y-74000000D01*
X159399564Y-73959368D01*
X159418156Y-73735000D01*
X159399564Y-73510632D01*
X159356270Y-73339667D01*
X159344297Y-73292387D01*
X159344296Y-73292386D01*
X159344296Y-73292384D01*
X159253860Y-73086209D01*
X159238934Y-73063363D01*
X159130724Y-72897734D01*
X159130720Y-72897729D01*
X158978237Y-72732091D01*
X158861846Y-72641500D01*
X158800576Y-72593811D01*
X158602574Y-72486658D01*
X158602572Y-72486657D01*
X158602571Y-72486656D01*
X158389639Y-72413557D01*
X158389630Y-72413555D01*
X158345476Y-72406187D01*
X158167569Y-72376500D01*
X157942431Y-72376500D01*
X157794211Y-72401233D01*
X157720369Y-72413555D01*
X157720360Y-72413557D01*
X157507428Y-72486656D01*
X157507426Y-72486658D01*
X157309426Y-72593810D01*
X157309424Y-72593811D01*
X157131762Y-72732091D01*
X156979279Y-72897729D01*
X156890483Y-73033643D01*
X156836479Y-73079731D01*
X156766131Y-73089306D01*
X156701774Y-73059329D01*
X156679517Y-73033643D01*
X156590720Y-72897729D01*
X156438237Y-72732091D01*
X156321846Y-72641500D01*
X156260576Y-72593811D01*
X156062574Y-72486658D01*
X156062572Y-72486657D01*
X156062571Y-72486656D01*
X155849639Y-72413557D01*
X155849630Y-72413555D01*
X155805476Y-72406187D01*
X155627569Y-72376500D01*
X155402431Y-72376500D01*
X155254211Y-72401233D01*
X155180369Y-72413555D01*
X155180360Y-72413557D01*
X154967428Y-72486656D01*
X154967426Y-72486658D01*
X154769426Y-72593810D01*
X154769424Y-72593811D01*
X154591762Y-72732091D01*
X154439279Y-72897729D01*
X154350483Y-73033643D01*
X154296479Y-73079731D01*
X154226131Y-73089306D01*
X154161774Y-73059329D01*
X154139517Y-73033643D01*
X154050720Y-72897729D01*
X153898237Y-72732091D01*
X153781846Y-72641500D01*
X153720576Y-72593811D01*
X153522574Y-72486658D01*
X153522572Y-72486657D01*
X153522571Y-72486656D01*
X153309639Y-72413557D01*
X153309630Y-72413555D01*
X153265476Y-72406187D01*
X153087569Y-72376500D01*
X152862431Y-72376500D01*
X152714211Y-72401233D01*
X152640369Y-72413555D01*
X152640360Y-72413557D01*
X152427428Y-72486656D01*
X152427426Y-72486658D01*
X152229426Y-72593810D01*
X152229424Y-72593811D01*
X152051762Y-72732091D01*
X151899279Y-72897729D01*
X151899275Y-72897734D01*
X151776141Y-73086206D01*
X151685703Y-73292386D01*
X151685702Y-73292387D01*
X151630437Y-73510624D01*
X151630436Y-73510630D01*
X151630436Y-73510632D01*
X151626562Y-73557384D01*
X151611844Y-73735000D01*
X148434275Y-73735000D01*
X148389296Y-73557384D01*
X148298860Y-73351209D01*
X148281500Y-73324637D01*
X148175724Y-73162734D01*
X148175720Y-73162729D01*
X148044944Y-73020671D01*
X148023240Y-72997094D01*
X148023239Y-72997093D01*
X148023237Y-72997091D01*
X147903367Y-72903792D01*
X147845576Y-72858811D01*
X147647574Y-72751658D01*
X147647572Y-72751657D01*
X147647571Y-72751656D01*
X147434639Y-72678557D01*
X147434630Y-72678555D01*
X147390476Y-72671187D01*
X147212569Y-72641500D01*
X146987431Y-72641500D01*
X146839211Y-72666233D01*
X146765369Y-72678555D01*
X146765360Y-72678557D01*
X146552428Y-72751656D01*
X146552426Y-72751658D01*
X146354426Y-72858810D01*
X146354424Y-72858811D01*
X146176762Y-72997091D01*
X146024279Y-73162729D01*
X145935483Y-73298643D01*
X145881479Y-73344731D01*
X145811131Y-73354306D01*
X145746774Y-73324329D01*
X145724517Y-73298643D01*
X145635720Y-73162729D01*
X145504944Y-73020671D01*
X145483240Y-72997094D01*
X145483239Y-72997093D01*
X145483237Y-72997091D01*
X145363367Y-72903792D01*
X145305576Y-72858811D01*
X145107574Y-72751658D01*
X145107572Y-72751657D01*
X145107571Y-72751656D01*
X144894639Y-72678557D01*
X144894630Y-72678555D01*
X144850476Y-72671187D01*
X144672569Y-72641500D01*
X144447431Y-72641500D01*
X144299211Y-72666233D01*
X144225369Y-72678555D01*
X144225360Y-72678557D01*
X144012428Y-72751656D01*
X144012426Y-72751658D01*
X143814426Y-72858810D01*
X143814424Y-72858811D01*
X143636762Y-72997091D01*
X143484279Y-73162729D01*
X143395483Y-73298643D01*
X143341479Y-73344731D01*
X143271131Y-73354306D01*
X143206774Y-73324329D01*
X143184517Y-73298643D01*
X143095720Y-73162729D01*
X142964944Y-73020671D01*
X142943240Y-72997094D01*
X142943239Y-72997093D01*
X142943237Y-72997091D01*
X142823367Y-72903792D01*
X142765576Y-72858811D01*
X142567574Y-72751658D01*
X142567572Y-72751657D01*
X142567571Y-72751656D01*
X142354639Y-72678557D01*
X142354630Y-72678555D01*
X142310476Y-72671187D01*
X142132569Y-72641500D01*
X141907431Y-72641500D01*
X141759211Y-72666233D01*
X141685369Y-72678555D01*
X141685360Y-72678557D01*
X141472428Y-72751656D01*
X141472426Y-72751658D01*
X141274426Y-72858810D01*
X141274424Y-72858811D01*
X141096762Y-72997091D01*
X140944279Y-73162729D01*
X140855483Y-73298643D01*
X140801479Y-73344731D01*
X140731131Y-73354306D01*
X140666774Y-73324329D01*
X140644517Y-73298643D01*
X140555720Y-73162729D01*
X140424944Y-73020671D01*
X140403240Y-72997094D01*
X140403239Y-72997093D01*
X140403237Y-72997091D01*
X140283367Y-72903792D01*
X140225576Y-72858811D01*
X140027574Y-72751658D01*
X140027572Y-72751657D01*
X140027571Y-72751656D01*
X139814639Y-72678557D01*
X139814630Y-72678555D01*
X139770476Y-72671187D01*
X139592569Y-72641500D01*
X139367431Y-72641500D01*
X139219211Y-72666233D01*
X139145369Y-72678555D01*
X139145360Y-72678557D01*
X138932428Y-72751656D01*
X138932426Y-72751658D01*
X138734426Y-72858810D01*
X138734424Y-72858811D01*
X138556762Y-72997091D01*
X138404279Y-73162729D01*
X138315483Y-73298643D01*
X138261479Y-73344731D01*
X138191131Y-73354306D01*
X138126774Y-73324329D01*
X138104517Y-73298643D01*
X138015720Y-73162729D01*
X137884944Y-73020671D01*
X137863240Y-72997094D01*
X137863239Y-72997093D01*
X137863237Y-72997091D01*
X137743367Y-72903792D01*
X137685576Y-72858811D01*
X137487574Y-72751658D01*
X137487572Y-72751657D01*
X137487571Y-72751656D01*
X137274639Y-72678557D01*
X137274630Y-72678555D01*
X137230476Y-72671187D01*
X137052569Y-72641500D01*
X136827431Y-72641500D01*
X136679211Y-72666233D01*
X136605369Y-72678555D01*
X136605360Y-72678557D01*
X136392428Y-72751656D01*
X136392426Y-72751658D01*
X136194426Y-72858810D01*
X136194424Y-72858811D01*
X136016762Y-72997091D01*
X135864279Y-73162729D01*
X135775483Y-73298643D01*
X135721479Y-73344731D01*
X135651131Y-73354306D01*
X135586774Y-73324329D01*
X135564517Y-73298643D01*
X135475720Y-73162729D01*
X135344944Y-73020671D01*
X135323240Y-72997094D01*
X135323239Y-72997093D01*
X135323237Y-72997091D01*
X135203367Y-72903792D01*
X135145576Y-72858811D01*
X134947574Y-72751658D01*
X134947572Y-72751657D01*
X134947571Y-72751656D01*
X134734639Y-72678557D01*
X134734630Y-72678555D01*
X134690476Y-72671187D01*
X134512569Y-72641500D01*
X134287431Y-72641500D01*
X134139211Y-72666233D01*
X134065369Y-72678555D01*
X134065360Y-72678557D01*
X133852428Y-72751656D01*
X133852426Y-72751658D01*
X133654426Y-72858810D01*
X133654424Y-72858811D01*
X133476762Y-72997091D01*
X133324279Y-73162729D01*
X133235483Y-73298643D01*
X133181479Y-73344731D01*
X133111131Y-73354306D01*
X133046774Y-73324329D01*
X133024517Y-73298643D01*
X132935720Y-73162729D01*
X132804944Y-73020671D01*
X132783240Y-72997094D01*
X132783239Y-72997093D01*
X132783237Y-72997091D01*
X132663367Y-72903792D01*
X132605576Y-72858811D01*
X132407574Y-72751658D01*
X132407572Y-72751657D01*
X132407571Y-72751656D01*
X132194639Y-72678557D01*
X132194630Y-72678555D01*
X132150476Y-72671187D01*
X131972569Y-72641500D01*
X131747431Y-72641500D01*
X131599211Y-72666233D01*
X131525369Y-72678555D01*
X131525360Y-72678557D01*
X131312428Y-72751656D01*
X131312426Y-72751658D01*
X131114426Y-72858810D01*
X131114424Y-72858811D01*
X130936762Y-72997091D01*
X130784279Y-73162729D01*
X130695483Y-73298643D01*
X130641479Y-73344731D01*
X130571131Y-73354306D01*
X130506774Y-73324329D01*
X130484517Y-73298643D01*
X130395720Y-73162729D01*
X130264944Y-73020671D01*
X130243240Y-72997094D01*
X130243239Y-72997093D01*
X130243237Y-72997091D01*
X130123367Y-72903792D01*
X130065576Y-72858811D01*
X129867574Y-72751658D01*
X129867572Y-72751657D01*
X129867571Y-72751656D01*
X129654639Y-72678557D01*
X129654630Y-72678555D01*
X129610476Y-72671187D01*
X129432569Y-72641500D01*
X129207431Y-72641500D01*
X129059211Y-72666233D01*
X128985369Y-72678555D01*
X128985360Y-72678557D01*
X128772428Y-72751656D01*
X128772426Y-72751658D01*
X128574426Y-72858810D01*
X128574424Y-72858811D01*
X128396762Y-72997091D01*
X128244279Y-73162729D01*
X128155483Y-73298643D01*
X128101479Y-73344731D01*
X128031131Y-73354306D01*
X127966774Y-73324329D01*
X127944517Y-73298643D01*
X127855720Y-73162729D01*
X127724944Y-73020671D01*
X127703240Y-72997094D01*
X127703239Y-72997093D01*
X127703237Y-72997091D01*
X127583367Y-72903792D01*
X127525576Y-72858811D01*
X127327574Y-72751658D01*
X127327572Y-72751657D01*
X127327571Y-72751656D01*
X127114639Y-72678557D01*
X127114630Y-72678555D01*
X127070476Y-72671187D01*
X126892569Y-72641500D01*
X126667431Y-72641500D01*
X126519211Y-72666233D01*
X126445369Y-72678555D01*
X126445360Y-72678557D01*
X126232428Y-72751656D01*
X126232426Y-72751658D01*
X126034426Y-72858810D01*
X126034424Y-72858811D01*
X125856762Y-72997091D01*
X125704279Y-73162729D01*
X125615483Y-73298643D01*
X125561479Y-73344731D01*
X125491131Y-73354306D01*
X125426774Y-73324329D01*
X125404517Y-73298643D01*
X125315720Y-73162729D01*
X125184944Y-73020671D01*
X125163240Y-72997094D01*
X125163239Y-72997093D01*
X125163237Y-72997091D01*
X125043367Y-72903792D01*
X124985576Y-72858811D01*
X124787574Y-72751658D01*
X124787572Y-72751657D01*
X124787571Y-72751656D01*
X124574639Y-72678557D01*
X124574630Y-72678555D01*
X124530476Y-72671187D01*
X124352569Y-72641500D01*
X124127431Y-72641500D01*
X123979211Y-72666233D01*
X123905369Y-72678555D01*
X123905360Y-72678557D01*
X123692428Y-72751656D01*
X123692426Y-72751658D01*
X123494426Y-72858810D01*
X123494424Y-72858811D01*
X123316762Y-72997091D01*
X123164279Y-73162729D01*
X123075483Y-73298643D01*
X123021479Y-73344731D01*
X122951131Y-73354306D01*
X122886774Y-73324329D01*
X122864517Y-73298643D01*
X122775720Y-73162729D01*
X122644944Y-73020671D01*
X122623240Y-72997094D01*
X122623239Y-72997093D01*
X122623237Y-72997091D01*
X122503367Y-72903792D01*
X122445576Y-72858811D01*
X122247574Y-72751658D01*
X122247572Y-72751657D01*
X122247571Y-72751656D01*
X122034639Y-72678557D01*
X122034630Y-72678555D01*
X121990476Y-72671187D01*
X121812569Y-72641500D01*
X121587431Y-72641500D01*
X121439211Y-72666233D01*
X121365369Y-72678555D01*
X121365360Y-72678557D01*
X121152428Y-72751656D01*
X121152426Y-72751658D01*
X120954426Y-72858810D01*
X120954424Y-72858811D01*
X120776762Y-72997091D01*
X120624279Y-73162729D01*
X120535483Y-73298643D01*
X120481479Y-73344731D01*
X120411131Y-73354306D01*
X120346774Y-73324329D01*
X120324517Y-73298643D01*
X120235720Y-73162729D01*
X120104944Y-73020671D01*
X120083240Y-72997094D01*
X120083239Y-72997093D01*
X120083237Y-72997091D01*
X119963367Y-72903792D01*
X119905576Y-72858811D01*
X119707574Y-72751658D01*
X119707572Y-72751657D01*
X119707571Y-72751656D01*
X119494639Y-72678557D01*
X119494630Y-72678555D01*
X119450476Y-72671187D01*
X119272569Y-72641500D01*
X119047431Y-72641500D01*
X118899211Y-72666233D01*
X118825369Y-72678555D01*
X118825360Y-72678557D01*
X118612428Y-72751656D01*
X118612426Y-72751658D01*
X118414426Y-72858810D01*
X118414424Y-72858811D01*
X118236762Y-72997091D01*
X118084279Y-73162729D01*
X117995483Y-73298643D01*
X117941479Y-73344731D01*
X117871131Y-73354306D01*
X117806774Y-73324329D01*
X117784517Y-73298643D01*
X117695720Y-73162729D01*
X117564944Y-73020671D01*
X117543240Y-72997094D01*
X117543239Y-72997093D01*
X117543237Y-72997091D01*
X117423367Y-72903792D01*
X117365576Y-72858811D01*
X117167574Y-72751658D01*
X117167572Y-72751657D01*
X117167571Y-72751656D01*
X116954639Y-72678557D01*
X116954630Y-72678555D01*
X116910476Y-72671187D01*
X116732569Y-72641500D01*
X116507431Y-72641500D01*
X116359211Y-72666233D01*
X116285369Y-72678555D01*
X116285360Y-72678557D01*
X116072428Y-72751656D01*
X116072426Y-72751658D01*
X115874426Y-72858810D01*
X115874424Y-72858811D01*
X115696762Y-72997091D01*
X115544279Y-73162729D01*
X115455483Y-73298643D01*
X115401479Y-73344731D01*
X115331131Y-73354306D01*
X115266774Y-73324329D01*
X115244517Y-73298643D01*
X115155720Y-73162729D01*
X115024944Y-73020671D01*
X115003240Y-72997094D01*
X115003239Y-72997093D01*
X115003237Y-72997091D01*
X114883367Y-72903792D01*
X114825576Y-72858811D01*
X114627574Y-72751658D01*
X114627572Y-72751657D01*
X114627571Y-72751656D01*
X114414639Y-72678557D01*
X114414630Y-72678555D01*
X114370476Y-72671187D01*
X114192569Y-72641500D01*
X113967431Y-72641500D01*
X113819211Y-72666233D01*
X113745369Y-72678555D01*
X113745360Y-72678557D01*
X113532428Y-72751656D01*
X113532426Y-72751658D01*
X113334426Y-72858810D01*
X113334424Y-72858811D01*
X113156762Y-72997091D01*
X113004279Y-73162729D01*
X112915483Y-73298643D01*
X112861479Y-73344731D01*
X112791131Y-73354306D01*
X112726774Y-73324329D01*
X112704517Y-73298643D01*
X112615720Y-73162729D01*
X112484944Y-73020671D01*
X112463240Y-72997094D01*
X112463239Y-72997093D01*
X112463237Y-72997091D01*
X112343367Y-72903792D01*
X112285576Y-72858811D01*
X112087574Y-72751658D01*
X112087572Y-72751657D01*
X112087571Y-72751656D01*
X111874639Y-72678557D01*
X111874630Y-72678555D01*
X111830476Y-72671187D01*
X111652569Y-72641500D01*
X111427431Y-72641500D01*
X111279211Y-72666233D01*
X111205369Y-72678555D01*
X111205360Y-72678557D01*
X110992428Y-72751656D01*
X110992426Y-72751658D01*
X110794426Y-72858810D01*
X110794424Y-72858811D01*
X110616762Y-72997091D01*
X110555754Y-73063363D01*
X110494901Y-73099933D01*
X110423936Y-73097798D01*
X110365391Y-73057636D01*
X110344999Y-73022057D01*
X110300889Y-72903797D01*
X110300887Y-72903792D01*
X110213261Y-72786738D01*
X110096207Y-72699112D01*
X110096202Y-72699110D01*
X109959204Y-72648011D01*
X109959196Y-72648009D01*
X109898649Y-72641500D01*
X109898638Y-72641500D01*
X108101362Y-72641500D01*
X108101350Y-72641500D01*
X108040803Y-72648009D01*
X108040795Y-72648011D01*
X107903797Y-72699110D01*
X107903792Y-72699112D01*
X107786738Y-72786738D01*
X107699112Y-72903792D01*
X107699110Y-72903797D01*
X107648011Y-73040795D01*
X107648009Y-73040803D01*
X107641500Y-73101350D01*
X106714814Y-73101350D01*
X106690663Y-73020679D01*
X106558778Y-72714934D01*
X106392289Y-72426567D01*
X106193449Y-72159478D01*
X105964946Y-71917279D01*
X105964944Y-71917278D01*
X105964942Y-71917275D01*
X105709865Y-71703241D01*
X105431679Y-71520275D01*
X105431675Y-71520273D01*
X105431672Y-71520271D01*
X105134113Y-71370831D01*
X105134108Y-71370829D01*
X105134103Y-71370827D01*
X104821224Y-71256948D01*
X104821217Y-71256946D01*
X104821216Y-71256946D01*
X104639258Y-71213821D01*
X104497219Y-71180158D01*
X104497209Y-71180156D01*
X104166492Y-71141500D01*
X104166489Y-71141500D01*
X103833511Y-71141500D01*
X103833508Y-71141500D01*
X103502790Y-71180156D01*
X103502780Y-71180158D01*
X103178784Y-71256946D01*
X103178775Y-71256948D01*
X102865896Y-71370827D01*
X102865891Y-71370829D01*
X102568320Y-71520275D01*
X102290134Y-71703241D01*
X102035057Y-71917275D01*
X101806552Y-72159476D01*
X101607714Y-72426562D01*
X101607704Y-72426578D01*
X101441223Y-72714931D01*
X101441220Y-72714936D01*
X101309340Y-73020671D01*
X101309337Y-73020679D01*
X101286249Y-73097798D01*
X101213838Y-73339666D01*
X101156016Y-73667590D01*
X101156016Y-73667596D01*
X101136656Y-74000000D01*
X100284000Y-74000000D01*
X100284000Y-71817780D01*
X100297733Y-71760578D01*
X100339292Y-71679011D01*
X100421014Y-71518623D01*
X100427596Y-71507222D01*
X100589994Y-71257151D01*
X100597725Y-71246512D01*
X100785369Y-71014790D01*
X100794175Y-71005011D01*
X101005011Y-70794175D01*
X101014790Y-70785369D01*
X101246512Y-70597725D01*
X101257151Y-70589994D01*
X101507222Y-70427596D01*
X101518623Y-70421014D01*
X101784280Y-70285655D01*
X101796328Y-70280292D01*
X102074663Y-70173449D01*
X102087200Y-70169374D01*
X102328224Y-70104792D01*
X102360835Y-70100500D01*
X166639165Y-70100500D01*
X166671776Y-70104793D01*
G37*
G04 #@! TD.AperFunction*
M02*
