G04 #@! TF.GenerationSoftware,KiCad,Pcbnew,8.0.3+1*
G04 #@! TF.CreationDate,2024-07-01T14:09:21+00:00*
G04 #@! TF.ProjectId,STM32103_Devel,53544d33-3231-4303-935f-446576656c2e,0.0.2*
G04 #@! TF.SameCoordinates,Original*
G04 #@! TF.FileFunction,Copper,L2,Inr*
G04 #@! TF.FilePolarity,Positive*
%FSLAX46Y46*%
G04 Gerber Fmt 4.6, Leading zero omitted, Abs format (unit mm)*
G04 Created by KiCad (PCBNEW 8.0.3+1) date 2024-07-01 14:09:21*
%MOMM*%
%LPD*%
G01*
G04 APERTURE LIST*
G04 #@! TA.AperFunction,ComponentPad*
%ADD10C,4.700000*%
G04 #@! TD*
G04 #@! TA.AperFunction,ComponentPad*
%ADD11C,2.000000*%
G04 #@! TD*
G04 #@! TA.AperFunction,ComponentPad*
%ADD12C,1.800000*%
G04 #@! TD*
G04 #@! TA.AperFunction,ComponentPad*
%ADD13R,1.700000X1.700000*%
G04 #@! TD*
G04 #@! TA.AperFunction,ComponentPad*
%ADD14O,1.700000X1.700000*%
G04 #@! TD*
G04 #@! TA.AperFunction,ViaPad*
%ADD15C,0.800000*%
G04 #@! TD*
G04 APERTURE END LIST*
D10*
X165000000Y-116000000D03*
X165000000Y-74000000D03*
X104000000Y-74000000D03*
X104000000Y-116000000D03*
D11*
X151000000Y-116000000D03*
X151000000Y-109500000D03*
X155500000Y-116000000D03*
X155500000Y-109500000D03*
D12*
X167195000Y-89880000D03*
D11*
X163395000Y-89730000D03*
X163395000Y-82280000D03*
D12*
X167195000Y-82130000D03*
D13*
X109000000Y-74000000D03*
D14*
X111540000Y-74000000D03*
X114080000Y-74000000D03*
X116620000Y-74000000D03*
X119160000Y-74000000D03*
X121700000Y-74000000D03*
X124240000Y-74000000D03*
X126780000Y-74000000D03*
X129320000Y-74000000D03*
X131860000Y-74000000D03*
X134400000Y-74000000D03*
X136940000Y-74000000D03*
X139480000Y-74000000D03*
X142020000Y-74000000D03*
X144560000Y-74000000D03*
X147100000Y-74000000D03*
D13*
X109000000Y-116000000D03*
D14*
X111540000Y-116000000D03*
X114080000Y-116000000D03*
X116620000Y-116000000D03*
X119160000Y-116000000D03*
X121700000Y-116000000D03*
X124240000Y-116000000D03*
X126780000Y-116000000D03*
X129320000Y-116000000D03*
X131860000Y-116000000D03*
X134400000Y-116000000D03*
X136940000Y-116000000D03*
X139480000Y-116000000D03*
X142020000Y-116000000D03*
X144560000Y-116000000D03*
X147100000Y-116000000D03*
D15*
X133046000Y-86812000D03*
X123140000Y-81224000D03*
X122378000Y-85034000D03*
X130760000Y-101036000D03*
X116944443Y-88181557D03*
X104344000Y-103322000D03*
X142284000Y-78890000D03*
X145084000Y-105000000D03*
X146100000Y-105000000D03*
X114846300Y-83906600D03*
X148000000Y-97956000D03*
X114820900Y-77912200D03*
X166000000Y-108000000D03*
X114504000Y-91130000D03*
X126378000Y-78811000D03*
X128728000Y-80970000D03*
X140000000Y-111000000D03*
X120350661Y-91633341D03*
X137872000Y-89969009D03*
X137872000Y-99512000D03*
X125426000Y-84782301D03*
X126442000Y-84018000D03*
X127975000Y-83002000D03*
X127975000Y-81986000D03*
X129490000Y-80208000D03*
X140412000Y-84272000D03*
X130435840Y-78571897D03*
X158000000Y-103000000D03*
X140920000Y-89098000D03*
X139396000Y-103576000D03*
X139904000Y-89098000D03*
X138888000Y-102052000D03*
X156000000Y-104000000D03*
X138779999Y-89243999D03*
X138380000Y-100782000D03*
X157000000Y-105500000D03*
X132284000Y-96718000D03*
X133300000Y-96718000D03*
X133300000Y-95702000D03*
X132284000Y-95702000D03*
X130252000Y-94178000D03*
X129490000Y-93416000D03*
X128601000Y-99258008D03*
X127999990Y-100093718D03*
X128994924Y-98211844D03*
X120790499Y-82303501D03*
G04 #@! TA.AperFunction,Conductor*
G36*
X166671776Y-70104793D02*
G01*
X166912793Y-70169373D01*
X166925336Y-70173449D01*
X167203671Y-70280292D01*
X167215719Y-70285656D01*
X167481368Y-70421010D01*
X167492785Y-70427601D01*
X167742838Y-70589988D01*
X167753495Y-70597732D01*
X167985197Y-70785360D01*
X167994998Y-70794185D01*
X168205814Y-71005001D01*
X168214639Y-71014802D01*
X168402263Y-71246498D01*
X168410015Y-71257167D01*
X168572394Y-71507208D01*
X168578989Y-71518631D01*
X168714343Y-71784280D01*
X168719707Y-71796327D01*
X168826550Y-72074661D01*
X168830626Y-72087205D01*
X168907790Y-72375188D01*
X168910532Y-72388088D01*
X168957172Y-72682563D01*
X168958550Y-72695679D01*
X168974327Y-72996698D01*
X168974500Y-73003293D01*
X168974500Y-116996706D01*
X168974327Y-117003301D01*
X168958550Y-117304320D01*
X168957172Y-117317436D01*
X168910532Y-117611911D01*
X168907790Y-117624811D01*
X168830626Y-117912794D01*
X168826550Y-117925338D01*
X168719707Y-118203672D01*
X168714343Y-118215719D01*
X168578989Y-118481368D01*
X168572394Y-118492791D01*
X168410015Y-118742832D01*
X168402263Y-118753501D01*
X168214639Y-118985197D01*
X168205814Y-118994998D01*
X167994998Y-119205814D01*
X167985197Y-119214639D01*
X167753501Y-119402263D01*
X167742832Y-119410015D01*
X167492791Y-119572394D01*
X167481368Y-119578989D01*
X167215719Y-119714343D01*
X167203671Y-119719707D01*
X166925336Y-119826550D01*
X166912794Y-119830626D01*
X166783623Y-119865237D01*
X166707228Y-119885707D01*
X166674620Y-119890000D01*
X102325380Y-119890000D01*
X102292771Y-119885707D01*
X102192316Y-119858790D01*
X102087205Y-119830626D01*
X102074663Y-119826550D01*
X101796328Y-119719707D01*
X101784280Y-119714343D01*
X101518631Y-119578989D01*
X101507208Y-119572394D01*
X101257167Y-119410015D01*
X101246498Y-119402263D01*
X101187493Y-119354482D01*
X101014802Y-119214639D01*
X101005001Y-119205814D01*
X100794185Y-118994998D01*
X100785360Y-118985197D01*
X100651459Y-118819843D01*
X100597732Y-118753495D01*
X100589988Y-118742838D01*
X100427601Y-118492785D01*
X100421010Y-118481368D01*
X100297733Y-118239420D01*
X100284000Y-118182218D01*
X100284000Y-116000000D01*
X101136656Y-116000000D01*
X101156016Y-116332403D01*
X101156016Y-116332409D01*
X101179853Y-116467594D01*
X101213838Y-116660333D01*
X101309337Y-116979321D01*
X101309339Y-116979327D01*
X101309340Y-116979328D01*
X101441220Y-117285063D01*
X101441223Y-117285068D01*
X101562159Y-117494535D01*
X101607711Y-117573433D01*
X101607714Y-117573437D01*
X101806552Y-117840523D01*
X102035057Y-118082724D01*
X102290134Y-118296758D01*
X102568320Y-118479724D01*
X102568328Y-118479729D01*
X102865887Y-118629169D01*
X102923304Y-118650067D01*
X103178775Y-118743051D01*
X103178776Y-118743051D01*
X103178784Y-118743054D01*
X103502786Y-118819843D01*
X103691771Y-118841932D01*
X103833508Y-118858500D01*
X103833511Y-118858500D01*
X104166492Y-118858500D01*
X104290510Y-118844003D01*
X104497214Y-118819843D01*
X104821216Y-118743054D01*
X105134113Y-118629169D01*
X105431672Y-118479729D01*
X105709870Y-118296755D01*
X105964946Y-118082721D01*
X106193449Y-117840522D01*
X106392289Y-117573433D01*
X106558778Y-117285066D01*
X106690663Y-116979321D01*
X106786162Y-116660333D01*
X106843983Y-116332414D01*
X106863344Y-116000000D01*
X106843983Y-115667586D01*
X106786162Y-115339667D01*
X106714814Y-115101350D01*
X107641500Y-115101350D01*
X107641500Y-116898649D01*
X107648009Y-116959196D01*
X107648011Y-116959204D01*
X107699110Y-117096202D01*
X107699112Y-117096207D01*
X107786738Y-117213261D01*
X107903792Y-117300887D01*
X107903794Y-117300888D01*
X107903796Y-117300889D01*
X107930690Y-117310920D01*
X108040795Y-117351988D01*
X108040803Y-117351990D01*
X108101350Y-117358499D01*
X108101355Y-117358499D01*
X108101362Y-117358500D01*
X108101368Y-117358500D01*
X109898632Y-117358500D01*
X109898638Y-117358500D01*
X109898645Y-117358499D01*
X109898649Y-117358499D01*
X109959196Y-117351990D01*
X109959199Y-117351989D01*
X109959201Y-117351989D01*
X109969253Y-117348240D01*
X109978045Y-117344960D01*
X110096204Y-117300889D01*
X110117339Y-117285068D01*
X110213261Y-117213261D01*
X110300886Y-117096208D01*
X110300885Y-117096208D01*
X110300889Y-117096204D01*
X110344999Y-116977939D01*
X110387545Y-116921107D01*
X110454066Y-116896296D01*
X110523440Y-116911388D01*
X110555753Y-116936635D01*
X110614085Y-117000000D01*
X110616762Y-117002908D01*
X110617267Y-117003301D01*
X110794424Y-117141189D01*
X110992426Y-117248342D01*
X110992427Y-117248342D01*
X110992428Y-117248343D01*
X111099391Y-117285063D01*
X111205365Y-117321444D01*
X111427431Y-117358500D01*
X111427435Y-117358500D01*
X111652565Y-117358500D01*
X111652569Y-117358500D01*
X111874635Y-117321444D01*
X112087574Y-117248342D01*
X112285576Y-117141189D01*
X112463240Y-117002906D01*
X112615722Y-116837268D01*
X112704518Y-116701354D01*
X112758520Y-116655268D01*
X112828868Y-116645692D01*
X112893225Y-116675669D01*
X112915480Y-116701353D01*
X112948607Y-116752058D01*
X113004275Y-116837265D01*
X113004279Y-116837270D01*
X113072511Y-116911388D01*
X113151052Y-116996706D01*
X113156762Y-117002908D01*
X113157267Y-117003301D01*
X113334424Y-117141189D01*
X113532426Y-117248342D01*
X113532427Y-117248342D01*
X113532428Y-117248343D01*
X113639391Y-117285063D01*
X113745365Y-117321444D01*
X113967431Y-117358500D01*
X113967435Y-117358500D01*
X114192565Y-117358500D01*
X114192569Y-117358500D01*
X114414635Y-117321444D01*
X114627574Y-117248342D01*
X114825576Y-117141189D01*
X115003240Y-117002906D01*
X115155722Y-116837268D01*
X115244518Y-116701354D01*
X115298520Y-116655268D01*
X115368868Y-116645692D01*
X115433225Y-116675669D01*
X115455480Y-116701353D01*
X115488607Y-116752058D01*
X115544275Y-116837265D01*
X115544279Y-116837270D01*
X115612511Y-116911388D01*
X115691052Y-116996706D01*
X115696762Y-117002908D01*
X115697267Y-117003301D01*
X115874424Y-117141189D01*
X116072426Y-117248342D01*
X116072427Y-117248342D01*
X116072428Y-117248343D01*
X116179391Y-117285063D01*
X116285365Y-117321444D01*
X116507431Y-117358500D01*
X116507435Y-117358500D01*
X116732565Y-117358500D01*
X116732569Y-117358500D01*
X116954635Y-117321444D01*
X117167574Y-117248342D01*
X117365576Y-117141189D01*
X117543240Y-117002906D01*
X117695722Y-116837268D01*
X117784518Y-116701354D01*
X117838520Y-116655268D01*
X117908868Y-116645692D01*
X117973225Y-116675669D01*
X117995480Y-116701353D01*
X118028607Y-116752058D01*
X118084275Y-116837265D01*
X118084279Y-116837270D01*
X118152511Y-116911388D01*
X118231052Y-116996706D01*
X118236762Y-117002908D01*
X118237267Y-117003301D01*
X118414424Y-117141189D01*
X118612426Y-117248342D01*
X118612427Y-117248342D01*
X118612428Y-117248343D01*
X118719391Y-117285063D01*
X118825365Y-117321444D01*
X119047431Y-117358500D01*
X119047435Y-117358500D01*
X119272565Y-117358500D01*
X119272569Y-117358500D01*
X119494635Y-117321444D01*
X119707574Y-117248342D01*
X119905576Y-117141189D01*
X120083240Y-117002906D01*
X120235722Y-116837268D01*
X120324518Y-116701354D01*
X120378520Y-116655268D01*
X120448868Y-116645692D01*
X120513225Y-116675669D01*
X120535480Y-116701353D01*
X120568607Y-116752058D01*
X120624275Y-116837265D01*
X120624279Y-116837270D01*
X120692511Y-116911388D01*
X120771052Y-116996706D01*
X120776762Y-117002908D01*
X120777267Y-117003301D01*
X120954424Y-117141189D01*
X121152426Y-117248342D01*
X121152427Y-117248342D01*
X121152428Y-117248343D01*
X121259391Y-117285063D01*
X121365365Y-117321444D01*
X121587431Y-117358500D01*
X121587435Y-117358500D01*
X121812565Y-117358500D01*
X121812569Y-117358500D01*
X122034635Y-117321444D01*
X122247574Y-117248342D01*
X122445576Y-117141189D01*
X122623240Y-117002906D01*
X122775722Y-116837268D01*
X122864518Y-116701354D01*
X122918520Y-116655268D01*
X122988868Y-116645692D01*
X123053225Y-116675669D01*
X123075480Y-116701353D01*
X123108607Y-116752058D01*
X123164275Y-116837265D01*
X123164279Y-116837270D01*
X123232511Y-116911388D01*
X123311052Y-116996706D01*
X123316762Y-117002908D01*
X123317267Y-117003301D01*
X123494424Y-117141189D01*
X123692426Y-117248342D01*
X123692427Y-117248342D01*
X123692428Y-117248343D01*
X123799391Y-117285063D01*
X123905365Y-117321444D01*
X124127431Y-117358500D01*
X124127435Y-117358500D01*
X124352565Y-117358500D01*
X124352569Y-117358500D01*
X124574635Y-117321444D01*
X124787574Y-117248342D01*
X124985576Y-117141189D01*
X125163240Y-117002906D01*
X125315722Y-116837268D01*
X125404518Y-116701354D01*
X125458520Y-116655268D01*
X125528868Y-116645692D01*
X125593225Y-116675669D01*
X125615480Y-116701353D01*
X125648607Y-116752058D01*
X125704275Y-116837265D01*
X125704279Y-116837270D01*
X125772511Y-116911388D01*
X125851052Y-116996706D01*
X125856762Y-117002908D01*
X125857267Y-117003301D01*
X126034424Y-117141189D01*
X126232426Y-117248342D01*
X126232427Y-117248342D01*
X126232428Y-117248343D01*
X126339391Y-117285063D01*
X126445365Y-117321444D01*
X126667431Y-117358500D01*
X126667435Y-117358500D01*
X126892565Y-117358500D01*
X126892569Y-117358500D01*
X127114635Y-117321444D01*
X127327574Y-117248342D01*
X127525576Y-117141189D01*
X127703240Y-117002906D01*
X127855722Y-116837268D01*
X127944518Y-116701354D01*
X127998520Y-116655268D01*
X128068868Y-116645692D01*
X128133225Y-116675669D01*
X128155480Y-116701353D01*
X128188607Y-116752058D01*
X128244275Y-116837265D01*
X128244279Y-116837270D01*
X128312511Y-116911388D01*
X128391052Y-116996706D01*
X128396762Y-117002908D01*
X128397267Y-117003301D01*
X128574424Y-117141189D01*
X128772426Y-117248342D01*
X128772427Y-117248342D01*
X128772428Y-117248343D01*
X128879391Y-117285063D01*
X128985365Y-117321444D01*
X129207431Y-117358500D01*
X129207435Y-117358500D01*
X129432565Y-117358500D01*
X129432569Y-117358500D01*
X129654635Y-117321444D01*
X129867574Y-117248342D01*
X130065576Y-117141189D01*
X130243240Y-117002906D01*
X130395722Y-116837268D01*
X130484518Y-116701354D01*
X130538520Y-116655268D01*
X130608868Y-116645692D01*
X130673225Y-116675669D01*
X130695480Y-116701353D01*
X130728607Y-116752058D01*
X130784275Y-116837265D01*
X130784279Y-116837270D01*
X130852511Y-116911388D01*
X130931052Y-116996706D01*
X130936762Y-117002908D01*
X130937267Y-117003301D01*
X131114424Y-117141189D01*
X131312426Y-117248342D01*
X131312427Y-117248342D01*
X131312428Y-117248343D01*
X131419391Y-117285063D01*
X131525365Y-117321444D01*
X131747431Y-117358500D01*
X131747435Y-117358500D01*
X131972565Y-117358500D01*
X131972569Y-117358500D01*
X132194635Y-117321444D01*
X132407574Y-117248342D01*
X132605576Y-117141189D01*
X132783240Y-117002906D01*
X132935722Y-116837268D01*
X133024518Y-116701354D01*
X133078520Y-116655268D01*
X133148868Y-116645692D01*
X133213225Y-116675669D01*
X133235480Y-116701353D01*
X133268607Y-116752058D01*
X133324275Y-116837265D01*
X133324279Y-116837270D01*
X133392511Y-116911388D01*
X133471052Y-116996706D01*
X133476762Y-117002908D01*
X133477267Y-117003301D01*
X133654424Y-117141189D01*
X133852426Y-117248342D01*
X133852427Y-117248342D01*
X133852428Y-117248343D01*
X133959391Y-117285063D01*
X134065365Y-117321444D01*
X134287431Y-117358500D01*
X134287435Y-117358500D01*
X134512565Y-117358500D01*
X134512569Y-117358500D01*
X134734635Y-117321444D01*
X134947574Y-117248342D01*
X135145576Y-117141189D01*
X135323240Y-117002906D01*
X135475722Y-116837268D01*
X135564518Y-116701354D01*
X135618520Y-116655268D01*
X135688868Y-116645692D01*
X135753225Y-116675669D01*
X135775480Y-116701353D01*
X135808607Y-116752058D01*
X135864275Y-116837265D01*
X135864279Y-116837270D01*
X135932511Y-116911388D01*
X136011052Y-116996706D01*
X136016762Y-117002908D01*
X136017267Y-117003301D01*
X136194424Y-117141189D01*
X136392426Y-117248342D01*
X136392427Y-117248342D01*
X136392428Y-117248343D01*
X136499391Y-117285063D01*
X136605365Y-117321444D01*
X136827431Y-117358500D01*
X136827435Y-117358500D01*
X137052565Y-117358500D01*
X137052569Y-117358500D01*
X137274635Y-117321444D01*
X137487574Y-117248342D01*
X137685576Y-117141189D01*
X137863240Y-117002906D01*
X138015722Y-116837268D01*
X138104518Y-116701354D01*
X138158520Y-116655268D01*
X138228868Y-116645692D01*
X138293225Y-116675669D01*
X138315480Y-116701353D01*
X138348607Y-116752058D01*
X138404275Y-116837265D01*
X138404279Y-116837270D01*
X138472511Y-116911388D01*
X138551052Y-116996706D01*
X138556762Y-117002908D01*
X138557267Y-117003301D01*
X138734424Y-117141189D01*
X138932426Y-117248342D01*
X138932427Y-117248342D01*
X138932428Y-117248343D01*
X139039391Y-117285063D01*
X139145365Y-117321444D01*
X139367431Y-117358500D01*
X139367435Y-117358500D01*
X139592565Y-117358500D01*
X139592569Y-117358500D01*
X139814635Y-117321444D01*
X140027574Y-117248342D01*
X140225576Y-117141189D01*
X140403240Y-117002906D01*
X140555722Y-116837268D01*
X140644518Y-116701354D01*
X140698520Y-116655268D01*
X140768868Y-116645692D01*
X140833225Y-116675669D01*
X140855480Y-116701353D01*
X140888607Y-116752058D01*
X140944275Y-116837265D01*
X140944279Y-116837270D01*
X141012511Y-116911388D01*
X141091052Y-116996706D01*
X141096762Y-117002908D01*
X141097267Y-117003301D01*
X141274424Y-117141189D01*
X141472426Y-117248342D01*
X141472427Y-117248342D01*
X141472428Y-117248343D01*
X141579391Y-117285063D01*
X141685365Y-117321444D01*
X141907431Y-117358500D01*
X141907435Y-117358500D01*
X142132565Y-117358500D01*
X142132569Y-117358500D01*
X142354635Y-117321444D01*
X142567574Y-117248342D01*
X142765576Y-117141189D01*
X142943240Y-117002906D01*
X143095722Y-116837268D01*
X143184518Y-116701354D01*
X143238520Y-116655268D01*
X143308868Y-116645692D01*
X143373225Y-116675669D01*
X143395480Y-116701353D01*
X143428607Y-116752058D01*
X143484275Y-116837265D01*
X143484279Y-116837270D01*
X143552511Y-116911388D01*
X143631052Y-116996706D01*
X143636762Y-117002908D01*
X143637267Y-117003301D01*
X143814424Y-117141189D01*
X144012426Y-117248342D01*
X144012427Y-117248342D01*
X144012428Y-117248343D01*
X144119391Y-117285063D01*
X144225365Y-117321444D01*
X144447431Y-117358500D01*
X144447435Y-117358500D01*
X144672565Y-117358500D01*
X144672569Y-117358500D01*
X144894635Y-117321444D01*
X145107574Y-117248342D01*
X145305576Y-117141189D01*
X145483240Y-117002906D01*
X145635722Y-116837268D01*
X145724518Y-116701354D01*
X145778520Y-116655268D01*
X145848868Y-116645692D01*
X145913225Y-116675669D01*
X145935480Y-116701353D01*
X145968607Y-116752058D01*
X146024275Y-116837265D01*
X146024279Y-116837270D01*
X146092511Y-116911388D01*
X146171052Y-116996706D01*
X146176762Y-117002908D01*
X146177267Y-117003301D01*
X146354424Y-117141189D01*
X146552426Y-117248342D01*
X146552427Y-117248342D01*
X146552428Y-117248343D01*
X146659391Y-117285063D01*
X146765365Y-117321444D01*
X146987431Y-117358500D01*
X146987435Y-117358500D01*
X147212565Y-117358500D01*
X147212569Y-117358500D01*
X147434635Y-117321444D01*
X147647574Y-117248342D01*
X147845576Y-117141189D01*
X148023240Y-117002906D01*
X148175722Y-116837268D01*
X148298860Y-116648791D01*
X148389296Y-116442616D01*
X148444564Y-116224368D01*
X148463156Y-116000000D01*
X149486835Y-116000000D01*
X149505465Y-116236710D01*
X149560894Y-116467592D01*
X149640730Y-116660333D01*
X149651760Y-116686963D01*
X149743867Y-116837268D01*
X149775825Y-116889417D01*
X149775826Y-116889419D01*
X149930030Y-117069969D01*
X150097804Y-117213261D01*
X150110584Y-117224176D01*
X150313037Y-117348240D01*
X150532406Y-117439105D01*
X150763289Y-117494535D01*
X151000000Y-117513165D01*
X151236711Y-117494535D01*
X151467594Y-117439105D01*
X151686963Y-117348240D01*
X151889416Y-117224176D01*
X152069969Y-117069969D01*
X152224176Y-116889416D01*
X152348240Y-116686963D01*
X152439105Y-116467594D01*
X152494535Y-116236711D01*
X152513165Y-116000000D01*
X153986835Y-116000000D01*
X154005465Y-116236710D01*
X154060894Y-116467592D01*
X154140730Y-116660333D01*
X154151760Y-116686963D01*
X154243867Y-116837268D01*
X154275825Y-116889417D01*
X154275826Y-116889419D01*
X154430030Y-117069969D01*
X154597804Y-117213261D01*
X154610584Y-117224176D01*
X154813037Y-117348240D01*
X155032406Y-117439105D01*
X155263289Y-117494535D01*
X155500000Y-117513165D01*
X155736711Y-117494535D01*
X155967594Y-117439105D01*
X156186963Y-117348240D01*
X156389416Y-117224176D01*
X156569969Y-117069969D01*
X156724176Y-116889416D01*
X156848240Y-116686963D01*
X156939105Y-116467594D01*
X156994535Y-116236711D01*
X157013165Y-116000000D01*
X162136656Y-116000000D01*
X162156016Y-116332403D01*
X162156016Y-116332409D01*
X162179853Y-116467594D01*
X162213838Y-116660333D01*
X162309337Y-116979321D01*
X162309339Y-116979327D01*
X162309340Y-116979328D01*
X162441220Y-117285063D01*
X162441223Y-117285068D01*
X162562159Y-117494535D01*
X162607711Y-117573433D01*
X162607714Y-117573437D01*
X162806552Y-117840523D01*
X163035057Y-118082724D01*
X163290134Y-118296758D01*
X163568320Y-118479724D01*
X163568328Y-118479729D01*
X163865887Y-118629169D01*
X163923304Y-118650067D01*
X164178775Y-118743051D01*
X164178776Y-118743051D01*
X164178784Y-118743054D01*
X164502786Y-118819843D01*
X164691771Y-118841932D01*
X164833508Y-118858500D01*
X164833511Y-118858500D01*
X165166492Y-118858500D01*
X165290510Y-118844003D01*
X165497214Y-118819843D01*
X165821216Y-118743054D01*
X166134113Y-118629169D01*
X166431672Y-118479729D01*
X166709870Y-118296755D01*
X166964946Y-118082721D01*
X167193449Y-117840522D01*
X167392289Y-117573433D01*
X167558778Y-117285066D01*
X167690663Y-116979321D01*
X167786162Y-116660333D01*
X167843983Y-116332414D01*
X167863344Y-116000000D01*
X167843983Y-115667586D01*
X167786162Y-115339667D01*
X167690663Y-115020679D01*
X167558778Y-114714934D01*
X167392289Y-114426567D01*
X167193449Y-114159478D01*
X166964946Y-113917279D01*
X166964944Y-113917278D01*
X166964942Y-113917275D01*
X166709865Y-113703241D01*
X166431679Y-113520275D01*
X166431675Y-113520273D01*
X166431672Y-113520271D01*
X166134113Y-113370831D01*
X166134108Y-113370829D01*
X166134103Y-113370827D01*
X165821224Y-113256948D01*
X165821217Y-113256946D01*
X165821216Y-113256946D01*
X165639258Y-113213821D01*
X165497219Y-113180158D01*
X165497209Y-113180156D01*
X165166492Y-113141500D01*
X165166489Y-113141500D01*
X164833511Y-113141500D01*
X164833508Y-113141500D01*
X164502790Y-113180156D01*
X164502780Y-113180158D01*
X164178784Y-113256946D01*
X164178775Y-113256948D01*
X163865896Y-113370827D01*
X163865891Y-113370829D01*
X163568320Y-113520275D01*
X163290134Y-113703241D01*
X163035057Y-113917275D01*
X162806552Y-114159476D01*
X162607714Y-114426562D01*
X162607704Y-114426578D01*
X162441223Y-114714931D01*
X162441220Y-114714936D01*
X162309340Y-115020671D01*
X162309337Y-115020679D01*
X162282422Y-115110582D01*
X162213838Y-115339666D01*
X162156016Y-115667590D01*
X162156016Y-115667596D01*
X162136656Y-116000000D01*
X157013165Y-116000000D01*
X156994535Y-115763289D01*
X156939105Y-115532406D01*
X156848240Y-115313037D01*
X156724176Y-115110584D01*
X156716300Y-115101362D01*
X156569969Y-114930030D01*
X156389419Y-114775826D01*
X156389417Y-114775825D01*
X156389416Y-114775824D01*
X156186963Y-114651760D01*
X156177908Y-114648009D01*
X155967592Y-114560894D01*
X155809651Y-114522976D01*
X155736711Y-114505465D01*
X155500000Y-114486835D01*
X155263289Y-114505465D01*
X155032407Y-114560894D01*
X154813038Y-114651759D01*
X154610582Y-114775825D01*
X154610580Y-114775826D01*
X154430030Y-114930030D01*
X154275826Y-115110580D01*
X154275825Y-115110582D01*
X154151759Y-115313038D01*
X154060894Y-115532407D01*
X154005465Y-115763289D01*
X153986835Y-116000000D01*
X152513165Y-116000000D01*
X152494535Y-115763289D01*
X152439105Y-115532406D01*
X152348240Y-115313037D01*
X152224176Y-115110584D01*
X152216300Y-115101362D01*
X152069969Y-114930030D01*
X151889419Y-114775826D01*
X151889417Y-114775825D01*
X151889416Y-114775824D01*
X151686963Y-114651760D01*
X151677908Y-114648009D01*
X151467592Y-114560894D01*
X151309651Y-114522976D01*
X151236711Y-114505465D01*
X151000000Y-114486835D01*
X150763289Y-114505465D01*
X150532407Y-114560894D01*
X150313038Y-114651759D01*
X150110582Y-114775825D01*
X150110580Y-114775826D01*
X149930030Y-114930030D01*
X149775826Y-115110580D01*
X149775825Y-115110582D01*
X149651759Y-115313038D01*
X149560894Y-115532407D01*
X149505465Y-115763289D01*
X149486835Y-116000000D01*
X148463156Y-116000000D01*
X148444564Y-115775632D01*
X148389296Y-115557384D01*
X148298860Y-115351209D01*
X148281500Y-115324637D01*
X148175724Y-115162734D01*
X148175720Y-115162729D01*
X148023237Y-114997091D01*
X147903367Y-114903792D01*
X147845576Y-114858811D01*
X147647574Y-114751658D01*
X147647572Y-114751657D01*
X147647571Y-114751656D01*
X147434639Y-114678557D01*
X147434630Y-114678555D01*
X147390476Y-114671187D01*
X147212569Y-114641500D01*
X146987431Y-114641500D01*
X146839211Y-114666233D01*
X146765369Y-114678555D01*
X146765360Y-114678557D01*
X146552428Y-114751656D01*
X146552426Y-114751658D01*
X146354426Y-114858810D01*
X146354424Y-114858811D01*
X146176762Y-114997091D01*
X146024279Y-115162729D01*
X145935483Y-115298643D01*
X145881479Y-115344731D01*
X145811131Y-115354306D01*
X145746774Y-115324329D01*
X145724517Y-115298643D01*
X145635720Y-115162729D01*
X145483237Y-114997091D01*
X145363367Y-114903792D01*
X145305576Y-114858811D01*
X145107574Y-114751658D01*
X145107572Y-114751657D01*
X145107571Y-114751656D01*
X144894639Y-114678557D01*
X144894630Y-114678555D01*
X144850476Y-114671187D01*
X144672569Y-114641500D01*
X144447431Y-114641500D01*
X144299211Y-114666233D01*
X144225369Y-114678555D01*
X144225360Y-114678557D01*
X144012428Y-114751656D01*
X144012426Y-114751658D01*
X143814426Y-114858810D01*
X143814424Y-114858811D01*
X143636762Y-114997091D01*
X143484279Y-115162729D01*
X143395483Y-115298643D01*
X143341479Y-115344731D01*
X143271131Y-115354306D01*
X143206774Y-115324329D01*
X143184517Y-115298643D01*
X143095720Y-115162729D01*
X142943237Y-114997091D01*
X142823367Y-114903792D01*
X142765576Y-114858811D01*
X142567574Y-114751658D01*
X142567572Y-114751657D01*
X142567571Y-114751656D01*
X142354639Y-114678557D01*
X142354630Y-114678555D01*
X142310476Y-114671187D01*
X142132569Y-114641500D01*
X141907431Y-114641500D01*
X141759211Y-114666233D01*
X141685369Y-114678555D01*
X141685360Y-114678557D01*
X141472428Y-114751656D01*
X141472426Y-114751658D01*
X141274426Y-114858810D01*
X141274424Y-114858811D01*
X141096762Y-114997091D01*
X140944279Y-115162729D01*
X140855483Y-115298643D01*
X140801479Y-115344731D01*
X140731131Y-115354306D01*
X140666774Y-115324329D01*
X140644517Y-115298643D01*
X140555720Y-115162729D01*
X140403237Y-114997091D01*
X140283367Y-114903792D01*
X140225576Y-114858811D01*
X140027574Y-114751658D01*
X140027572Y-114751657D01*
X140027571Y-114751656D01*
X139814639Y-114678557D01*
X139814630Y-114678555D01*
X139770476Y-114671187D01*
X139592569Y-114641500D01*
X139367431Y-114641500D01*
X139219211Y-114666233D01*
X139145369Y-114678555D01*
X139145360Y-114678557D01*
X138932428Y-114751656D01*
X138932426Y-114751658D01*
X138734426Y-114858810D01*
X138734424Y-114858811D01*
X138556762Y-114997091D01*
X138404279Y-115162729D01*
X138315483Y-115298643D01*
X138261479Y-115344731D01*
X138191131Y-115354306D01*
X138126774Y-115324329D01*
X138104517Y-115298643D01*
X138015720Y-115162729D01*
X137863237Y-114997091D01*
X137743367Y-114903792D01*
X137685576Y-114858811D01*
X137487574Y-114751658D01*
X137487572Y-114751657D01*
X137487571Y-114751656D01*
X137274639Y-114678557D01*
X137274630Y-114678555D01*
X137230476Y-114671187D01*
X137052569Y-114641500D01*
X136827431Y-114641500D01*
X136679211Y-114666233D01*
X136605369Y-114678555D01*
X136605360Y-114678557D01*
X136392428Y-114751656D01*
X136392426Y-114751658D01*
X136194426Y-114858810D01*
X136194424Y-114858811D01*
X136016762Y-114997091D01*
X135864279Y-115162729D01*
X135775483Y-115298643D01*
X135721479Y-115344731D01*
X135651131Y-115354306D01*
X135586774Y-115324329D01*
X135564517Y-115298643D01*
X135475720Y-115162729D01*
X135323237Y-114997091D01*
X135203367Y-114903792D01*
X135145576Y-114858811D01*
X134947574Y-114751658D01*
X134947572Y-114751657D01*
X134947571Y-114751656D01*
X134734639Y-114678557D01*
X134734630Y-114678555D01*
X134690476Y-114671187D01*
X134512569Y-114641500D01*
X134287431Y-114641500D01*
X134139211Y-114666233D01*
X134065369Y-114678555D01*
X134065360Y-114678557D01*
X133852428Y-114751656D01*
X133852426Y-114751658D01*
X133654426Y-114858810D01*
X133654424Y-114858811D01*
X133476762Y-114997091D01*
X133324279Y-115162729D01*
X133235483Y-115298643D01*
X133181479Y-115344731D01*
X133111131Y-115354306D01*
X133046774Y-115324329D01*
X133024517Y-115298643D01*
X132935720Y-115162729D01*
X132783237Y-114997091D01*
X132663367Y-114903792D01*
X132605576Y-114858811D01*
X132407574Y-114751658D01*
X132407572Y-114751657D01*
X132407571Y-114751656D01*
X132194639Y-114678557D01*
X132194630Y-114678555D01*
X132150476Y-114671187D01*
X131972569Y-114641500D01*
X131747431Y-114641500D01*
X131599211Y-114666233D01*
X131525369Y-114678555D01*
X131525360Y-114678557D01*
X131312428Y-114751656D01*
X131312426Y-114751658D01*
X131114426Y-114858810D01*
X131114424Y-114858811D01*
X130936762Y-114997091D01*
X130784279Y-115162729D01*
X130695483Y-115298643D01*
X130641479Y-115344731D01*
X130571131Y-115354306D01*
X130506774Y-115324329D01*
X130484517Y-115298643D01*
X130395720Y-115162729D01*
X130243237Y-114997091D01*
X130123367Y-114903792D01*
X130065576Y-114858811D01*
X129867574Y-114751658D01*
X129867572Y-114751657D01*
X129867571Y-114751656D01*
X129654639Y-114678557D01*
X129654630Y-114678555D01*
X129610476Y-114671187D01*
X129432569Y-114641500D01*
X129207431Y-114641500D01*
X129059211Y-114666233D01*
X128985369Y-114678555D01*
X128985360Y-114678557D01*
X128772428Y-114751656D01*
X128772426Y-114751658D01*
X128574426Y-114858810D01*
X128574424Y-114858811D01*
X128396762Y-114997091D01*
X128244279Y-115162729D01*
X128155483Y-115298643D01*
X128101479Y-115344731D01*
X128031131Y-115354306D01*
X127966774Y-115324329D01*
X127944517Y-115298643D01*
X127855720Y-115162729D01*
X127703237Y-114997091D01*
X127583367Y-114903792D01*
X127525576Y-114858811D01*
X127327574Y-114751658D01*
X127327572Y-114751657D01*
X127327571Y-114751656D01*
X127114639Y-114678557D01*
X127114630Y-114678555D01*
X127070476Y-114671187D01*
X126892569Y-114641500D01*
X126667431Y-114641500D01*
X126519211Y-114666233D01*
X126445369Y-114678555D01*
X126445360Y-114678557D01*
X126232428Y-114751656D01*
X126232426Y-114751658D01*
X126034426Y-114858810D01*
X126034424Y-114858811D01*
X125856762Y-114997091D01*
X125704279Y-115162729D01*
X125615483Y-115298643D01*
X125561479Y-115344731D01*
X125491131Y-115354306D01*
X125426774Y-115324329D01*
X125404517Y-115298643D01*
X125315720Y-115162729D01*
X125163237Y-114997091D01*
X125043367Y-114903792D01*
X124985576Y-114858811D01*
X124787574Y-114751658D01*
X124787572Y-114751657D01*
X124787571Y-114751656D01*
X124574639Y-114678557D01*
X124574630Y-114678555D01*
X124530476Y-114671187D01*
X124352569Y-114641500D01*
X124127431Y-114641500D01*
X123979211Y-114666233D01*
X123905369Y-114678555D01*
X123905360Y-114678557D01*
X123692428Y-114751656D01*
X123692426Y-114751658D01*
X123494426Y-114858810D01*
X123494424Y-114858811D01*
X123316762Y-114997091D01*
X123164279Y-115162729D01*
X123075483Y-115298643D01*
X123021479Y-115344731D01*
X122951131Y-115354306D01*
X122886774Y-115324329D01*
X122864517Y-115298643D01*
X122775720Y-115162729D01*
X122623237Y-114997091D01*
X122503367Y-114903792D01*
X122445576Y-114858811D01*
X122247574Y-114751658D01*
X122247572Y-114751657D01*
X122247571Y-114751656D01*
X122034639Y-114678557D01*
X122034630Y-114678555D01*
X121990476Y-114671187D01*
X121812569Y-114641500D01*
X121587431Y-114641500D01*
X121439211Y-114666233D01*
X121365369Y-114678555D01*
X121365360Y-114678557D01*
X121152428Y-114751656D01*
X121152426Y-114751658D01*
X120954426Y-114858810D01*
X120954424Y-114858811D01*
X120776762Y-114997091D01*
X120624279Y-115162729D01*
X120535483Y-115298643D01*
X120481479Y-115344731D01*
X120411131Y-115354306D01*
X120346774Y-115324329D01*
X120324517Y-115298643D01*
X120235720Y-115162729D01*
X120083237Y-114997091D01*
X119963367Y-114903792D01*
X119905576Y-114858811D01*
X119707574Y-114751658D01*
X119707572Y-114751657D01*
X119707571Y-114751656D01*
X119494639Y-114678557D01*
X119494630Y-114678555D01*
X119450476Y-114671187D01*
X119272569Y-114641500D01*
X119047431Y-114641500D01*
X118899211Y-114666233D01*
X118825369Y-114678555D01*
X118825360Y-114678557D01*
X118612428Y-114751656D01*
X118612426Y-114751658D01*
X118414426Y-114858810D01*
X118414424Y-114858811D01*
X118236762Y-114997091D01*
X118084279Y-115162729D01*
X117995483Y-115298643D01*
X117941479Y-115344731D01*
X117871131Y-115354306D01*
X117806774Y-115324329D01*
X117784517Y-115298643D01*
X117695720Y-115162729D01*
X117543237Y-114997091D01*
X117423367Y-114903792D01*
X117365576Y-114858811D01*
X117167574Y-114751658D01*
X117167572Y-114751657D01*
X117167571Y-114751656D01*
X116954639Y-114678557D01*
X116954630Y-114678555D01*
X116910476Y-114671187D01*
X116732569Y-114641500D01*
X116507431Y-114641500D01*
X116359211Y-114666233D01*
X116285369Y-114678555D01*
X116285360Y-114678557D01*
X116072428Y-114751656D01*
X116072426Y-114751658D01*
X115874426Y-114858810D01*
X115874424Y-114858811D01*
X115696762Y-114997091D01*
X115544279Y-115162729D01*
X115455483Y-115298643D01*
X115401479Y-115344731D01*
X115331131Y-115354306D01*
X115266774Y-115324329D01*
X115244517Y-115298643D01*
X115155720Y-115162729D01*
X115003237Y-114997091D01*
X114883367Y-114903792D01*
X114825576Y-114858811D01*
X114627574Y-114751658D01*
X114627572Y-114751657D01*
X114627571Y-114751656D01*
X114414639Y-114678557D01*
X114414630Y-114678555D01*
X114370476Y-114671187D01*
X114192569Y-114641500D01*
X113967431Y-114641500D01*
X113819211Y-114666233D01*
X113745369Y-114678555D01*
X113745360Y-114678557D01*
X113532428Y-114751656D01*
X113532426Y-114751658D01*
X113334426Y-114858810D01*
X113334424Y-114858811D01*
X113156762Y-114997091D01*
X113004279Y-115162729D01*
X112915483Y-115298643D01*
X112861479Y-115344731D01*
X112791131Y-115354306D01*
X112726774Y-115324329D01*
X112704517Y-115298643D01*
X112615720Y-115162729D01*
X112463237Y-114997091D01*
X112343367Y-114903792D01*
X112285576Y-114858811D01*
X112087574Y-114751658D01*
X112087572Y-114751657D01*
X112087571Y-114751656D01*
X111874639Y-114678557D01*
X111874630Y-114678555D01*
X111830476Y-114671187D01*
X111652569Y-114641500D01*
X111427431Y-114641500D01*
X111279211Y-114666233D01*
X111205369Y-114678555D01*
X111205360Y-114678557D01*
X110992428Y-114751656D01*
X110992426Y-114751658D01*
X110794426Y-114858810D01*
X110794424Y-114858811D01*
X110616762Y-114997091D01*
X110555754Y-115063363D01*
X110494901Y-115099933D01*
X110423936Y-115097798D01*
X110365391Y-115057636D01*
X110344999Y-115022057D01*
X110300889Y-114903797D01*
X110300887Y-114903792D01*
X110213261Y-114786738D01*
X110096207Y-114699112D01*
X110096202Y-114699110D01*
X109959204Y-114648011D01*
X109959196Y-114648009D01*
X109898649Y-114641500D01*
X109898638Y-114641500D01*
X108101362Y-114641500D01*
X108101350Y-114641500D01*
X108040803Y-114648009D01*
X108040795Y-114648011D01*
X107903797Y-114699110D01*
X107903792Y-114699112D01*
X107786738Y-114786738D01*
X107699112Y-114903792D01*
X107699110Y-114903797D01*
X107648011Y-115040795D01*
X107648009Y-115040803D01*
X107641500Y-115101350D01*
X106714814Y-115101350D01*
X106690663Y-115020679D01*
X106558778Y-114714934D01*
X106392289Y-114426567D01*
X106193449Y-114159478D01*
X105964946Y-113917279D01*
X105964944Y-113917278D01*
X105964942Y-113917275D01*
X105709865Y-113703241D01*
X105431679Y-113520275D01*
X105431675Y-113520273D01*
X105431672Y-113520271D01*
X105134113Y-113370831D01*
X105134108Y-113370829D01*
X105134103Y-113370827D01*
X104821224Y-113256948D01*
X104821217Y-113256946D01*
X104821216Y-113256946D01*
X104639258Y-113213821D01*
X104497219Y-113180158D01*
X104497209Y-113180156D01*
X104166492Y-113141500D01*
X104166489Y-113141500D01*
X103833511Y-113141500D01*
X103833508Y-113141500D01*
X103502790Y-113180156D01*
X103502780Y-113180158D01*
X103178784Y-113256946D01*
X103178775Y-113256948D01*
X102865896Y-113370827D01*
X102865891Y-113370829D01*
X102568320Y-113520275D01*
X102290134Y-113703241D01*
X102035057Y-113917275D01*
X101806552Y-114159476D01*
X101607714Y-114426562D01*
X101607704Y-114426578D01*
X101441223Y-114714931D01*
X101441220Y-114714936D01*
X101309340Y-115020671D01*
X101309337Y-115020679D01*
X101282422Y-115110582D01*
X101213838Y-115339666D01*
X101156016Y-115667590D01*
X101156016Y-115667596D01*
X101136656Y-116000000D01*
X100284000Y-116000000D01*
X100284000Y-111000000D01*
X139086496Y-111000000D01*
X139106457Y-111189927D01*
X139136526Y-111282470D01*
X139165473Y-111371556D01*
X139165476Y-111371561D01*
X139260958Y-111536941D01*
X139260965Y-111536951D01*
X139388744Y-111678864D01*
X139388747Y-111678866D01*
X139543248Y-111791118D01*
X139717712Y-111868794D01*
X139904513Y-111908500D01*
X140095487Y-111908500D01*
X140282288Y-111868794D01*
X140456752Y-111791118D01*
X140611253Y-111678866D01*
X140739040Y-111536944D01*
X140834527Y-111371556D01*
X140893542Y-111189928D01*
X140913504Y-111000000D01*
X140893542Y-110810072D01*
X140834527Y-110628444D01*
X140739040Y-110463056D01*
X140739038Y-110463054D01*
X140739034Y-110463048D01*
X140611255Y-110321135D01*
X140456752Y-110208882D01*
X140282288Y-110131206D01*
X140095487Y-110091500D01*
X139904513Y-110091500D01*
X139717711Y-110131206D01*
X139543247Y-110208882D01*
X139388744Y-110321135D01*
X139260965Y-110463048D01*
X139260958Y-110463058D01*
X139165476Y-110628438D01*
X139165473Y-110628445D01*
X139106457Y-110810072D01*
X139086496Y-111000000D01*
X100284000Y-111000000D01*
X100284000Y-109500000D01*
X149486835Y-109500000D01*
X149505465Y-109736710D01*
X149560894Y-109967592D01*
X149651759Y-110186961D01*
X149775825Y-110389417D01*
X149775826Y-110389419D01*
X149930030Y-110569969D01*
X150110580Y-110724173D01*
X150110584Y-110724176D01*
X150313037Y-110848240D01*
X150532406Y-110939105D01*
X150763289Y-110994535D01*
X151000000Y-111013165D01*
X151236711Y-110994535D01*
X151467594Y-110939105D01*
X151686963Y-110848240D01*
X151889416Y-110724176D01*
X152069969Y-110569969D01*
X152224176Y-110389416D01*
X152348240Y-110186963D01*
X152439105Y-109967594D01*
X152494535Y-109736711D01*
X152513165Y-109500000D01*
X153986835Y-109500000D01*
X154005465Y-109736710D01*
X154060894Y-109967592D01*
X154151759Y-110186961D01*
X154275825Y-110389417D01*
X154275826Y-110389419D01*
X154430030Y-110569969D01*
X154610580Y-110724173D01*
X154610584Y-110724176D01*
X154813037Y-110848240D01*
X155032406Y-110939105D01*
X155263289Y-110994535D01*
X155500000Y-111013165D01*
X155736711Y-110994535D01*
X155967594Y-110939105D01*
X156186963Y-110848240D01*
X156389416Y-110724176D01*
X156569969Y-110569969D01*
X156724176Y-110389416D01*
X156848240Y-110186963D01*
X156939105Y-109967594D01*
X156994535Y-109736711D01*
X157013165Y-109500000D01*
X156994535Y-109263289D01*
X156939105Y-109032406D01*
X156848240Y-108813037D01*
X156724176Y-108610584D01*
X156724173Y-108610580D01*
X156569969Y-108430030D01*
X156389419Y-108275826D01*
X156389417Y-108275825D01*
X156389416Y-108275824D01*
X156186963Y-108151760D01*
X155967594Y-108060895D01*
X155967592Y-108060894D01*
X155809651Y-108022976D01*
X155736711Y-108005465D01*
X155500000Y-107986835D01*
X155263289Y-108005465D01*
X155032407Y-108060894D01*
X154813038Y-108151759D01*
X154610582Y-108275825D01*
X154610580Y-108275826D01*
X154430030Y-108430030D01*
X154275826Y-108610580D01*
X154275825Y-108610582D01*
X154151759Y-108813038D01*
X154060894Y-109032407D01*
X154005465Y-109263289D01*
X153986835Y-109500000D01*
X152513165Y-109500000D01*
X152494535Y-109263289D01*
X152439105Y-109032406D01*
X152348240Y-108813037D01*
X152224176Y-108610584D01*
X152224173Y-108610580D01*
X152069969Y-108430030D01*
X151889419Y-108275826D01*
X151889417Y-108275825D01*
X151889416Y-108275824D01*
X151686963Y-108151760D01*
X151467594Y-108060895D01*
X151467592Y-108060894D01*
X151309651Y-108022976D01*
X151236711Y-108005465D01*
X151000000Y-107986835D01*
X150763289Y-108005465D01*
X150532407Y-108060894D01*
X150313038Y-108151759D01*
X150110582Y-108275825D01*
X150110580Y-108275826D01*
X149930030Y-108430030D01*
X149775826Y-108610580D01*
X149775825Y-108610582D01*
X149651759Y-108813038D01*
X149560894Y-109032407D01*
X149505465Y-109263289D01*
X149486835Y-109500000D01*
X100284000Y-109500000D01*
X100284000Y-100093718D01*
X127086486Y-100093718D01*
X127106447Y-100283645D01*
X127133586Y-100367169D01*
X127165463Y-100465274D01*
X127165466Y-100465279D01*
X127260948Y-100630659D01*
X127260955Y-100630669D01*
X127388734Y-100772582D01*
X127388737Y-100772584D01*
X127543238Y-100884836D01*
X127717702Y-100962512D01*
X127904503Y-101002218D01*
X128095477Y-101002218D01*
X128282278Y-100962512D01*
X128456742Y-100884836D01*
X128611243Y-100772584D01*
X128739030Y-100630662D01*
X128834517Y-100465274D01*
X128893532Y-100283646D01*
X128903724Y-100186664D01*
X128930736Y-100121009D01*
X128977787Y-100084728D01*
X129057752Y-100049126D01*
X129212253Y-99936874D01*
X129221298Y-99926829D01*
X129340034Y-99794959D01*
X129340035Y-99794957D01*
X129340040Y-99794952D01*
X129435527Y-99629564D01*
X129473726Y-99512000D01*
X136958496Y-99512000D01*
X136978457Y-99701927D01*
X137008526Y-99794470D01*
X137037473Y-99883556D01*
X137037476Y-99883561D01*
X137132958Y-100048941D01*
X137132965Y-100048951D01*
X137260744Y-100190864D01*
X137260747Y-100190866D01*
X137415248Y-100303118D01*
X137455837Y-100321189D01*
X137509933Y-100367169D01*
X137530582Y-100435096D01*
X137524421Y-100475232D01*
X137486457Y-100592071D01*
X137466496Y-100782000D01*
X137486457Y-100971927D01*
X137516526Y-101064470D01*
X137545473Y-101153556D01*
X137545476Y-101153561D01*
X137640958Y-101318941D01*
X137640965Y-101318951D01*
X137768744Y-101460864D01*
X137768747Y-101460866D01*
X137923248Y-101573118D01*
X137963837Y-101591189D01*
X138017933Y-101637169D01*
X138038582Y-101705096D01*
X138032421Y-101745232D01*
X137994457Y-101862071D01*
X137974496Y-102052000D01*
X137994457Y-102241927D01*
X138020194Y-102321134D01*
X138053473Y-102423556D01*
X138053476Y-102423561D01*
X138148958Y-102588941D01*
X138148965Y-102588951D01*
X138276744Y-102730864D01*
X138276747Y-102730866D01*
X138431248Y-102843118D01*
X138572958Y-102906211D01*
X138627053Y-102952190D01*
X138647703Y-103020117D01*
X138630828Y-103084317D01*
X138561476Y-103204438D01*
X138561473Y-103204445D01*
X138502457Y-103386072D01*
X138482496Y-103576000D01*
X138502457Y-103765927D01*
X138516801Y-103810072D01*
X138561473Y-103947556D01*
X138561476Y-103947561D01*
X138656958Y-104112941D01*
X138656965Y-104112951D01*
X138784744Y-104254864D01*
X138784747Y-104254866D01*
X138939248Y-104367118D01*
X139113712Y-104444794D01*
X139300513Y-104484500D01*
X139491487Y-104484500D01*
X139678288Y-104444794D01*
X139852752Y-104367118D01*
X140007253Y-104254866D01*
X140007255Y-104254864D01*
X140135034Y-104112951D01*
X140135035Y-104112949D01*
X140135040Y-104112944D01*
X140200248Y-104000000D01*
X155086496Y-104000000D01*
X155106457Y-104189927D01*
X155127557Y-104254864D01*
X155165473Y-104371556D01*
X155165476Y-104371561D01*
X155260958Y-104536941D01*
X155260965Y-104536951D01*
X155388744Y-104678864D01*
X155388747Y-104678866D01*
X155543248Y-104791118D01*
X155717712Y-104868794D01*
X155904513Y-104908500D01*
X156074219Y-104908500D01*
X156142340Y-104928502D01*
X156188833Y-104982158D01*
X156198937Y-105052432D01*
X156183339Y-105097499D01*
X156165474Y-105128441D01*
X156165473Y-105128445D01*
X156106457Y-105310072D01*
X156086496Y-105500000D01*
X156106457Y-105689927D01*
X156136526Y-105782470D01*
X156165473Y-105871556D01*
X156165476Y-105871561D01*
X156260958Y-106036941D01*
X156260965Y-106036951D01*
X156388744Y-106178864D01*
X156388747Y-106178866D01*
X156543248Y-106291118D01*
X156717712Y-106368794D01*
X156904513Y-106408500D01*
X157095487Y-106408500D01*
X157282288Y-106368794D01*
X157456752Y-106291118D01*
X157611253Y-106178866D01*
X157739040Y-106036944D01*
X157834527Y-105871556D01*
X157893542Y-105689928D01*
X157913504Y-105500000D01*
X157893542Y-105310072D01*
X157834527Y-105128444D01*
X157739040Y-104963056D01*
X157739038Y-104963054D01*
X157739034Y-104963048D01*
X157611255Y-104821135D01*
X157456752Y-104708882D01*
X157282288Y-104631206D01*
X157095487Y-104591500D01*
X156925781Y-104591500D01*
X156857660Y-104571498D01*
X156811167Y-104517842D01*
X156801063Y-104447568D01*
X156816661Y-104402501D01*
X156819204Y-104398095D01*
X156834527Y-104371556D01*
X156893542Y-104189928D01*
X156913504Y-104000000D01*
X156893542Y-103810072D01*
X156834527Y-103628444D01*
X156739040Y-103463056D01*
X156739038Y-103463054D01*
X156739034Y-103463048D01*
X156611255Y-103321135D01*
X156456752Y-103208882D01*
X156282288Y-103131206D01*
X156095487Y-103091500D01*
X155904513Y-103091500D01*
X155717711Y-103131206D01*
X155543247Y-103208882D01*
X155388744Y-103321135D01*
X155260965Y-103463048D01*
X155260958Y-103463058D01*
X155165476Y-103628438D01*
X155165473Y-103628445D01*
X155106457Y-103810072D01*
X155086496Y-104000000D01*
X140200248Y-104000000D01*
X140230527Y-103947556D01*
X140289542Y-103765928D01*
X140309504Y-103576000D01*
X140289542Y-103386072D01*
X140230527Y-103204444D01*
X140135040Y-103039056D01*
X140135038Y-103039054D01*
X140135034Y-103039048D01*
X140099875Y-103000000D01*
X157086496Y-103000000D01*
X157106457Y-103189927D01*
X157136526Y-103282470D01*
X157165473Y-103371556D01*
X157165476Y-103371561D01*
X157260958Y-103536941D01*
X157260965Y-103536951D01*
X157388744Y-103678864D01*
X157388747Y-103678866D01*
X157543248Y-103791118D01*
X157717712Y-103868794D01*
X157904513Y-103908500D01*
X158095487Y-103908500D01*
X158282288Y-103868794D01*
X158456752Y-103791118D01*
X158611253Y-103678866D01*
X158739040Y-103536944D01*
X158834527Y-103371556D01*
X158893542Y-103189928D01*
X158913504Y-103000000D01*
X158893542Y-102810072D01*
X158834527Y-102628444D01*
X158739040Y-102463056D01*
X158739038Y-102463054D01*
X158739034Y-102463048D01*
X158611255Y-102321135D01*
X158456752Y-102208882D01*
X158282288Y-102131206D01*
X158095487Y-102091500D01*
X157904513Y-102091500D01*
X157717711Y-102131206D01*
X157543247Y-102208882D01*
X157388744Y-102321135D01*
X157260965Y-102463048D01*
X157260958Y-102463058D01*
X157165476Y-102628438D01*
X157165473Y-102628445D01*
X157106457Y-102810072D01*
X157086496Y-103000000D01*
X140099875Y-103000000D01*
X140007255Y-102897135D01*
X139852752Y-102784882D01*
X139731429Y-102730866D01*
X139711039Y-102721787D01*
X139656946Y-102675809D01*
X139636296Y-102607882D01*
X139653169Y-102543686D01*
X139722527Y-102423556D01*
X139781542Y-102241928D01*
X139801504Y-102052000D01*
X139781542Y-101862072D01*
X139722527Y-101680444D01*
X139627040Y-101515056D01*
X139627038Y-101515054D01*
X139627034Y-101515048D01*
X139499255Y-101373135D01*
X139424663Y-101318941D01*
X139344752Y-101260882D01*
X139344748Y-101260880D01*
X139304161Y-101242809D01*
X139250066Y-101196829D01*
X139229417Y-101128901D01*
X139235577Y-101088770D01*
X139273542Y-100971928D01*
X139293504Y-100782000D01*
X139273542Y-100592072D01*
X139214527Y-100410444D01*
X139119040Y-100245056D01*
X139119038Y-100245054D01*
X139119034Y-100245048D01*
X138991255Y-100103135D01*
X138916663Y-100048941D01*
X138836752Y-99990882D01*
X138836748Y-99990880D01*
X138796161Y-99972809D01*
X138742066Y-99926829D01*
X138721417Y-99858901D01*
X138727577Y-99818770D01*
X138765542Y-99701928D01*
X138785504Y-99512000D01*
X138765542Y-99322072D01*
X138706527Y-99140444D01*
X138611040Y-98975056D01*
X138611038Y-98975054D01*
X138611034Y-98975048D01*
X138483255Y-98833135D01*
X138328752Y-98720882D01*
X138154288Y-98643206D01*
X137967487Y-98603500D01*
X137776513Y-98603500D01*
X137589711Y-98643206D01*
X137415247Y-98720882D01*
X137260744Y-98833135D01*
X137132965Y-98975048D01*
X137132958Y-98975058D01*
X137079252Y-99068080D01*
X137037473Y-99140444D01*
X137022999Y-99184986D01*
X136978457Y-99322072D01*
X136958496Y-99512000D01*
X129473726Y-99512000D01*
X129494542Y-99447936D01*
X129514504Y-99258008D01*
X129494542Y-99068080D01*
X129494540Y-99068075D01*
X129493833Y-99064749D01*
X129493983Y-99062767D01*
X129493852Y-99061512D01*
X129494081Y-99061487D01*
X129499225Y-98993958D01*
X129542034Y-98937319D01*
X129542909Y-98936675D01*
X129606177Y-98890710D01*
X129610011Y-98886452D01*
X129733958Y-98748795D01*
X129733959Y-98748793D01*
X129733964Y-98748788D01*
X129829451Y-98583400D01*
X129888466Y-98401772D01*
X129908428Y-98211844D01*
X129888466Y-98021916D01*
X129829451Y-97840288D01*
X129733964Y-97674900D01*
X129733962Y-97674898D01*
X129733958Y-97674892D01*
X129606179Y-97532979D01*
X129451676Y-97420726D01*
X129277212Y-97343050D01*
X129090411Y-97303344D01*
X128899437Y-97303344D01*
X128712635Y-97343050D01*
X128538171Y-97420726D01*
X128383668Y-97532979D01*
X128255889Y-97674892D01*
X128255882Y-97674902D01*
X128160400Y-97840282D01*
X128160397Y-97840289D01*
X128101381Y-98021916D01*
X128081420Y-98211844D01*
X128101382Y-98401780D01*
X128102093Y-98405123D01*
X128101941Y-98407102D01*
X128102072Y-98408340D01*
X128101845Y-98408363D01*
X128096689Y-98475914D01*
X128053871Y-98532545D01*
X128052909Y-98533251D01*
X127989742Y-98579145D01*
X127861965Y-98721056D01*
X127861958Y-98721066D01*
X127766476Y-98886446D01*
X127766473Y-98886452D01*
X127751999Y-98930994D01*
X127707457Y-99068080D01*
X127697264Y-99165061D01*
X127670250Y-99230717D01*
X127623205Y-99266995D01*
X127543238Y-99302600D01*
X127388734Y-99414853D01*
X127260955Y-99556766D01*
X127260948Y-99556776D01*
X127165466Y-99722156D01*
X127165463Y-99722163D01*
X127106447Y-99903790D01*
X127086486Y-100093718D01*
X100284000Y-100093718D01*
X100284000Y-95702000D01*
X131370496Y-95702000D01*
X131390457Y-95891927D01*
X131420526Y-95984470D01*
X131449473Y-96073556D01*
X131449473Y-96073557D01*
X131449474Y-96073558D01*
X131491876Y-96147001D01*
X131508613Y-96215996D01*
X131491876Y-96272999D01*
X131449474Y-96346441D01*
X131449473Y-96346445D01*
X131390457Y-96528072D01*
X131370496Y-96718000D01*
X131390457Y-96907927D01*
X131420526Y-97000470D01*
X131449473Y-97089556D01*
X131449476Y-97089561D01*
X131544958Y-97254941D01*
X131544965Y-97254951D01*
X131672744Y-97396864D01*
X131672747Y-97396866D01*
X131827248Y-97509118D01*
X132001712Y-97586794D01*
X132188513Y-97626500D01*
X132379487Y-97626500D01*
X132566288Y-97586794D01*
X132740752Y-97509118D01*
X132740752Y-97509117D01*
X132811118Y-97499684D01*
X132843247Y-97509117D01*
X132843248Y-97509118D01*
X133017712Y-97586794D01*
X133204513Y-97626500D01*
X133395487Y-97626500D01*
X133582288Y-97586794D01*
X133756752Y-97509118D01*
X133911253Y-97396866D01*
X133959709Y-97343050D01*
X134039034Y-97254951D01*
X134039035Y-97254949D01*
X134039040Y-97254944D01*
X134134527Y-97089556D01*
X134193542Y-96907928D01*
X134213504Y-96718000D01*
X134193542Y-96528072D01*
X134134527Y-96346444D01*
X134092123Y-96273000D01*
X134075386Y-96204006D01*
X134092124Y-96146999D01*
X134134527Y-96073556D01*
X134193542Y-95891928D01*
X134213504Y-95702000D01*
X134193542Y-95512072D01*
X134134527Y-95330444D01*
X134039040Y-95165056D01*
X134039038Y-95165054D01*
X134039034Y-95165048D01*
X133911255Y-95023135D01*
X133756752Y-94910882D01*
X133582288Y-94833206D01*
X133395487Y-94793500D01*
X133204513Y-94793500D01*
X133017709Y-94833206D01*
X132843248Y-94910881D01*
X132772881Y-94920315D01*
X132740752Y-94910881D01*
X132566290Y-94833206D01*
X132379487Y-94793500D01*
X132188513Y-94793500D01*
X132001711Y-94833206D01*
X131827247Y-94910882D01*
X131672744Y-95023135D01*
X131544965Y-95165048D01*
X131544958Y-95165058D01*
X131449476Y-95330438D01*
X131449473Y-95330445D01*
X131390457Y-95512072D01*
X131370496Y-95702000D01*
X100284000Y-95702000D01*
X100284000Y-93416000D01*
X128576496Y-93416000D01*
X128596457Y-93605927D01*
X128626526Y-93698470D01*
X128655473Y-93787556D01*
X128655476Y-93787561D01*
X128750958Y-93952941D01*
X128750965Y-93952951D01*
X128878744Y-94094864D01*
X128878747Y-94094866D01*
X129033248Y-94207118D01*
X129207712Y-94284794D01*
X129269469Y-94297920D01*
X129331941Y-94331648D01*
X129363105Y-94382230D01*
X129417473Y-94549556D01*
X129417476Y-94549561D01*
X129512958Y-94714941D01*
X129512965Y-94714951D01*
X129640744Y-94856864D01*
X129640747Y-94856866D01*
X129795248Y-94969118D01*
X129969712Y-95046794D01*
X130156513Y-95086500D01*
X130347487Y-95086500D01*
X130534288Y-95046794D01*
X130708752Y-94969118D01*
X130863253Y-94856866D01*
X130991040Y-94714944D01*
X131086527Y-94549556D01*
X131145542Y-94367928D01*
X131165504Y-94178000D01*
X131145542Y-93988072D01*
X131086527Y-93806444D01*
X130991040Y-93641056D01*
X130991038Y-93641054D01*
X130991034Y-93641048D01*
X130863255Y-93499135D01*
X130708752Y-93386882D01*
X130534288Y-93309206D01*
X130472529Y-93296078D01*
X130410057Y-93262351D01*
X130378894Y-93211768D01*
X130324528Y-93044447D01*
X130324527Y-93044445D01*
X130324527Y-93044444D01*
X130229040Y-92879056D01*
X130229038Y-92879054D01*
X130229034Y-92879048D01*
X130101255Y-92737135D01*
X129946752Y-92624882D01*
X129772288Y-92547206D01*
X129585487Y-92507500D01*
X129394513Y-92507500D01*
X129207711Y-92547206D01*
X129033247Y-92624882D01*
X128878744Y-92737135D01*
X128750965Y-92879048D01*
X128750958Y-92879058D01*
X128655476Y-93044438D01*
X128655473Y-93044445D01*
X128596457Y-93226072D01*
X128576496Y-93416000D01*
X100284000Y-93416000D01*
X100284000Y-91130000D01*
X113590496Y-91130000D01*
X113610457Y-91319927D01*
X113640526Y-91412470D01*
X113669473Y-91501556D01*
X113669476Y-91501561D01*
X113764958Y-91666941D01*
X113764965Y-91666951D01*
X113892744Y-91808864D01*
X113912571Y-91823269D01*
X114047248Y-91921118D01*
X114221712Y-91998794D01*
X114408513Y-92038500D01*
X114599487Y-92038500D01*
X114786288Y-91998794D01*
X114960752Y-91921118D01*
X115115253Y-91808866D01*
X115243040Y-91666944D01*
X115262441Y-91633341D01*
X119437157Y-91633341D01*
X119457118Y-91823268D01*
X119487187Y-91915811D01*
X119516134Y-92004897D01*
X119516137Y-92004902D01*
X119611619Y-92170282D01*
X119611626Y-92170292D01*
X119739405Y-92312205D01*
X119739408Y-92312207D01*
X119893909Y-92424459D01*
X120068373Y-92502135D01*
X120255174Y-92541841D01*
X120446148Y-92541841D01*
X120632949Y-92502135D01*
X120807413Y-92424459D01*
X120961914Y-92312207D01*
X121089701Y-92170285D01*
X121185188Y-92004897D01*
X121244203Y-91823269D01*
X121264165Y-91633341D01*
X121244203Y-91443413D01*
X121185188Y-91261785D01*
X121089701Y-91096397D01*
X121089699Y-91096395D01*
X121089695Y-91096389D01*
X120961916Y-90954476D01*
X120807413Y-90842223D01*
X120632949Y-90764547D01*
X120446148Y-90724841D01*
X120255174Y-90724841D01*
X120068372Y-90764547D01*
X119893908Y-90842223D01*
X119739405Y-90954476D01*
X119611626Y-91096389D01*
X119611619Y-91096399D01*
X119516137Y-91261779D01*
X119516134Y-91261786D01*
X119457118Y-91443413D01*
X119437157Y-91633341D01*
X115262441Y-91633341D01*
X115338527Y-91501556D01*
X115397542Y-91319928D01*
X115417504Y-91130000D01*
X115397542Y-90940072D01*
X115338527Y-90758444D01*
X115243040Y-90593056D01*
X115243038Y-90593054D01*
X115243034Y-90593048D01*
X115115255Y-90451135D01*
X114960752Y-90338882D01*
X114786288Y-90261206D01*
X114599487Y-90221500D01*
X114408513Y-90221500D01*
X114221711Y-90261206D01*
X114047247Y-90338882D01*
X113892744Y-90451135D01*
X113764965Y-90593048D01*
X113764958Y-90593058D01*
X113669476Y-90758438D01*
X113669473Y-90758444D01*
X113668926Y-90760127D01*
X113610457Y-90940072D01*
X113590496Y-91130000D01*
X100284000Y-91130000D01*
X100284000Y-89969009D01*
X136958496Y-89969009D01*
X136978457Y-90158936D01*
X136998786Y-90221500D01*
X137037473Y-90340565D01*
X137037476Y-90340570D01*
X137132958Y-90505950D01*
X137132965Y-90505960D01*
X137260744Y-90647873D01*
X137260747Y-90647875D01*
X137415248Y-90760127D01*
X137589712Y-90837803D01*
X137776513Y-90877509D01*
X137967487Y-90877509D01*
X138154288Y-90837803D01*
X138328752Y-90760127D01*
X138483253Y-90647875D01*
X138508878Y-90619416D01*
X138611034Y-90505960D01*
X138611035Y-90505958D01*
X138611040Y-90505953D01*
X138706527Y-90340565D01*
X138739345Y-90239561D01*
X138779419Y-90180957D01*
X138844816Y-90153320D01*
X138859178Y-90152499D01*
X138875486Y-90152499D01*
X139062287Y-90112793D01*
X139236751Y-90035117D01*
X139382477Y-89929240D01*
X139449342Y-89905383D01*
X139507782Y-89916069D01*
X139621712Y-89966794D01*
X139808513Y-90006500D01*
X139999487Y-90006500D01*
X140186288Y-89966794D01*
X140360752Y-89889118D01*
X140360752Y-89889117D01*
X140431118Y-89879684D01*
X140463247Y-89889117D01*
X140463248Y-89889118D01*
X140637712Y-89966794D01*
X140824513Y-90006500D01*
X141015487Y-90006500D01*
X141202288Y-89966794D01*
X141376752Y-89889118D01*
X141531253Y-89776866D01*
X141531255Y-89776864D01*
X141573452Y-89730000D01*
X161881835Y-89730000D01*
X161900465Y-89966711D01*
X161916888Y-90035116D01*
X161955894Y-90197592D01*
X162014430Y-90338910D01*
X162046760Y-90416963D01*
X162154670Y-90593056D01*
X162170825Y-90619417D01*
X162170826Y-90619419D01*
X162325030Y-90799969D01*
X162489070Y-90940072D01*
X162505584Y-90954176D01*
X162708037Y-91078240D01*
X162927406Y-91169105D01*
X163158289Y-91224535D01*
X163395000Y-91243165D01*
X163631711Y-91224535D01*
X163862594Y-91169105D01*
X164081963Y-91078240D01*
X164284416Y-90954176D01*
X164464969Y-90799969D01*
X164619176Y-90619416D01*
X164743240Y-90416963D01*
X164834105Y-90197594D01*
X164889535Y-89966711D01*
X164896359Y-89880000D01*
X165781673Y-89880000D01*
X165794526Y-90035117D01*
X165800950Y-90112633D01*
X165858249Y-90338903D01*
X165858252Y-90338910D01*
X165952015Y-90552668D01*
X166079685Y-90748083D01*
X166237774Y-90919813D01*
X166237778Y-90919817D01*
X166263802Y-90940072D01*
X166421983Y-91063190D01*
X166627273Y-91174287D01*
X166848049Y-91250080D01*
X167078288Y-91288500D01*
X167078292Y-91288500D01*
X167311708Y-91288500D01*
X167311712Y-91288500D01*
X167541951Y-91250080D01*
X167762727Y-91174287D01*
X167968017Y-91063190D01*
X168152220Y-90919818D01*
X168191169Y-90877509D01*
X168310314Y-90748083D01*
X168394376Y-90619416D01*
X168437984Y-90552669D01*
X168531749Y-90338907D01*
X168589051Y-90112626D01*
X168608327Y-89880000D01*
X168589051Y-89647374D01*
X168576408Y-89597447D01*
X168531750Y-89421096D01*
X168531747Y-89421089D01*
X168437984Y-89207331D01*
X168310314Y-89011916D01*
X168152225Y-88840186D01*
X168152221Y-88840182D01*
X168060118Y-88768496D01*
X167968017Y-88696810D01*
X167762727Y-88585713D01*
X167762724Y-88585712D01*
X167762723Y-88585711D01*
X167541955Y-88509921D01*
X167541948Y-88509919D01*
X167443411Y-88493476D01*
X167311712Y-88471500D01*
X167078288Y-88471500D01*
X166963066Y-88490727D01*
X166848051Y-88509919D01*
X166848044Y-88509921D01*
X166627276Y-88585711D01*
X166627273Y-88585713D01*
X166421985Y-88696809D01*
X166421983Y-88696810D01*
X166237778Y-88840182D01*
X166237774Y-88840186D01*
X166079685Y-89011916D01*
X165952015Y-89207331D01*
X165858252Y-89421089D01*
X165858249Y-89421096D01*
X165800950Y-89647366D01*
X165800949Y-89647372D01*
X165800949Y-89647374D01*
X165781673Y-89880000D01*
X164896359Y-89880000D01*
X164908165Y-89730000D01*
X164889535Y-89493289D01*
X164834105Y-89262406D01*
X164797419Y-89173838D01*
X164789831Y-89103254D01*
X164821610Y-89039767D01*
X164843823Y-89020863D01*
X164859669Y-89010276D01*
X164950276Y-88919669D01*
X165021465Y-88813127D01*
X165070501Y-88694744D01*
X165095500Y-88569069D01*
X165095500Y-88440931D01*
X165070501Y-88315256D01*
X165021465Y-88196873D01*
X164950276Y-88090331D01*
X164859669Y-87999724D01*
X164753127Y-87928535D01*
X164634745Y-87879499D01*
X164592852Y-87871166D01*
X164509069Y-87854500D01*
X164380931Y-87854500D01*
X164339039Y-87862833D01*
X164255254Y-87879499D01*
X164255253Y-87879500D01*
X164136871Y-87928536D01*
X164030335Y-87999721D01*
X164030328Y-87999726D01*
X163939726Y-88090328D01*
X163939724Y-88090331D01*
X163873462Y-88189500D01*
X163865096Y-88202020D01*
X163863785Y-88201144D01*
X163819424Y-88246283D01*
X163750183Y-88261975D01*
X163728669Y-88258742D01*
X163631711Y-88235465D01*
X163395000Y-88216835D01*
X163158289Y-88235465D01*
X162927407Y-88290894D01*
X162708038Y-88381759D01*
X162505582Y-88505825D01*
X162505580Y-88505826D01*
X162325030Y-88660030D01*
X162170826Y-88840580D01*
X162170825Y-88840582D01*
X162046759Y-89043038D01*
X161955894Y-89262407D01*
X161900465Y-89493289D01*
X161881835Y-89730000D01*
X141573452Y-89730000D01*
X141659034Y-89634951D01*
X141659035Y-89634949D01*
X141659040Y-89634944D01*
X141754527Y-89469556D01*
X141813542Y-89287928D01*
X141833504Y-89098000D01*
X141813542Y-88908072D01*
X141754527Y-88726444D01*
X141659040Y-88561056D01*
X141659038Y-88561054D01*
X141659034Y-88561048D01*
X141531255Y-88419135D01*
X141376752Y-88306882D01*
X141202288Y-88229206D01*
X141015487Y-88189500D01*
X140824513Y-88189500D01*
X140637709Y-88229206D01*
X140463248Y-88306881D01*
X140392881Y-88316315D01*
X140360752Y-88306881D01*
X140186290Y-88229206D01*
X139999487Y-88189500D01*
X139808513Y-88189500D01*
X139621711Y-88229206D01*
X139447247Y-88306882D01*
X139301523Y-88412757D01*
X139234655Y-88436616D01*
X139176213Y-88425928D01*
X139160953Y-88419134D01*
X139062287Y-88375205D01*
X138875486Y-88335499D01*
X138684512Y-88335499D01*
X138497710Y-88375205D01*
X138323246Y-88452881D01*
X138168743Y-88565134D01*
X138040964Y-88707047D01*
X138040957Y-88707057D01*
X137945475Y-88872437D01*
X137945472Y-88872443D01*
X137930129Y-88919664D01*
X137912654Y-88973446D01*
X137872580Y-89032051D01*
X137807183Y-89059688D01*
X137792821Y-89060509D01*
X137776513Y-89060509D01*
X137589711Y-89100215D01*
X137415247Y-89177891D01*
X137260744Y-89290144D01*
X137132965Y-89432057D01*
X137132958Y-89432067D01*
X137037476Y-89597447D01*
X137037473Y-89597454D01*
X136978457Y-89779081D01*
X136958496Y-89969009D01*
X100284000Y-89969009D01*
X100284000Y-84782301D01*
X124512496Y-84782301D01*
X124532457Y-84972228D01*
X124545888Y-85013563D01*
X124591473Y-85153857D01*
X124591476Y-85153862D01*
X124686958Y-85319242D01*
X124686965Y-85319252D01*
X124814744Y-85461165D01*
X124814747Y-85461167D01*
X124969248Y-85573419D01*
X125143712Y-85651095D01*
X125330513Y-85690801D01*
X125521487Y-85690801D01*
X125708288Y-85651095D01*
X125882752Y-85573419D01*
X126037253Y-85461167D01*
X126165040Y-85319245D01*
X126260527Y-85153857D01*
X126306112Y-85013563D01*
X126346186Y-84954958D01*
X126411583Y-84927321D01*
X126425945Y-84926500D01*
X126537487Y-84926500D01*
X126724288Y-84886794D01*
X126898752Y-84809118D01*
X127053253Y-84696866D01*
X127101249Y-84643561D01*
X127181034Y-84554951D01*
X127181035Y-84554949D01*
X127181040Y-84554944D01*
X127276527Y-84389556D01*
X127314724Y-84272000D01*
X139498496Y-84272000D01*
X139518457Y-84461927D01*
X139548526Y-84554470D01*
X139577473Y-84643556D01*
X139577476Y-84643561D01*
X139672958Y-84808941D01*
X139672965Y-84808951D01*
X139800744Y-84950864D01*
X139861999Y-84995368D01*
X139955248Y-85063118D01*
X140129712Y-85140794D01*
X140316513Y-85180500D01*
X140507487Y-85180500D01*
X140694288Y-85140794D01*
X140868752Y-85063118D01*
X141023253Y-84950866D01*
X141080945Y-84886793D01*
X141151034Y-84808951D01*
X141151035Y-84808949D01*
X141151040Y-84808944D01*
X141246527Y-84643556D01*
X141305542Y-84461928D01*
X141325504Y-84272000D01*
X141305542Y-84082072D01*
X141246527Y-83900444D01*
X141151040Y-83735056D01*
X141151038Y-83735054D01*
X141151034Y-83735048D01*
X141023255Y-83593135D01*
X140868752Y-83480882D01*
X140694288Y-83403206D01*
X140507487Y-83363500D01*
X140316513Y-83363500D01*
X140129711Y-83403206D01*
X139955247Y-83480882D01*
X139800744Y-83593135D01*
X139672965Y-83735048D01*
X139672958Y-83735058D01*
X139577476Y-83900438D01*
X139577473Y-83900444D01*
X139571226Y-83919671D01*
X139518457Y-84082072D01*
X139498496Y-84272000D01*
X127314724Y-84272000D01*
X127335542Y-84207928D01*
X127355504Y-84018000D01*
X127345530Y-83923103D01*
X127358302Y-83853266D01*
X127406804Y-83801419D01*
X127475637Y-83784025D01*
X127522083Y-83794825D01*
X127692712Y-83870794D01*
X127879513Y-83910500D01*
X128070487Y-83910500D01*
X128257288Y-83870794D01*
X128431752Y-83793118D01*
X128586253Y-83680866D01*
X128633638Y-83628240D01*
X128714034Y-83538951D01*
X128714035Y-83538949D01*
X128714040Y-83538944D01*
X128809527Y-83373556D01*
X128868542Y-83191928D01*
X128888504Y-83002000D01*
X128868542Y-82812072D01*
X128809527Y-82630444D01*
X128767123Y-82557000D01*
X128750386Y-82488006D01*
X128767124Y-82430999D01*
X128809527Y-82357556D01*
X128834727Y-82280000D01*
X161881835Y-82280000D01*
X161899149Y-82499996D01*
X161900465Y-82516710D01*
X161955894Y-82747592D01*
X162032150Y-82931690D01*
X162046760Y-82966963D01*
X162169180Y-83166734D01*
X162170825Y-83169417D01*
X162170826Y-83169419D01*
X162325030Y-83349969D01*
X162500788Y-83500080D01*
X162505584Y-83504176D01*
X162708037Y-83628240D01*
X162927406Y-83719105D01*
X163158289Y-83774535D01*
X163395000Y-83793165D01*
X163631711Y-83774535D01*
X163728668Y-83751257D01*
X163799575Y-83754803D01*
X163857309Y-83796122D01*
X163865053Y-83808008D01*
X163865096Y-83807980D01*
X163868534Y-83813126D01*
X163868535Y-83813127D01*
X163939724Y-83919669D01*
X164030331Y-84010276D01*
X164136873Y-84081465D01*
X164255256Y-84130501D01*
X164380931Y-84155500D01*
X164380936Y-84155500D01*
X164509064Y-84155500D01*
X164509069Y-84155500D01*
X164634744Y-84130501D01*
X164753127Y-84081465D01*
X164859669Y-84010276D01*
X164950276Y-83919669D01*
X165021465Y-83813127D01*
X165070501Y-83694744D01*
X165095500Y-83569069D01*
X165095500Y-83440931D01*
X165070501Y-83315256D01*
X165021465Y-83196873D01*
X164950276Y-83090331D01*
X164859669Y-82999724D01*
X164843826Y-82989138D01*
X164798300Y-82934661D01*
X164789453Y-82864218D01*
X164797421Y-82836156D01*
X164811292Y-82802669D01*
X164834105Y-82747594D01*
X164889535Y-82516711D01*
X164908165Y-82280000D01*
X164896359Y-82130000D01*
X165781673Y-82130000D01*
X165794102Y-82280000D01*
X165800950Y-82362633D01*
X165858249Y-82588903D01*
X165858252Y-82588910D01*
X165952015Y-82802668D01*
X166079685Y-82998083D01*
X166237774Y-83169813D01*
X166237778Y-83169817D01*
X166272537Y-83196871D01*
X166421983Y-83313190D01*
X166627273Y-83424287D01*
X166848049Y-83500080D01*
X167078288Y-83538500D01*
X167078292Y-83538500D01*
X167311708Y-83538500D01*
X167311712Y-83538500D01*
X167541951Y-83500080D01*
X167762727Y-83424287D01*
X167968017Y-83313190D01*
X168152220Y-83169818D01*
X168152588Y-83169419D01*
X168310314Y-82998083D01*
X168330647Y-82966961D01*
X168437984Y-82802669D01*
X168531749Y-82588907D01*
X168589051Y-82362626D01*
X168608327Y-82130000D01*
X168589051Y-81897374D01*
X168574217Y-81838794D01*
X168531750Y-81671096D01*
X168531747Y-81671089D01*
X168511370Y-81624635D01*
X168437984Y-81457331D01*
X168362342Y-81341552D01*
X168310314Y-81261916D01*
X168152225Y-81090186D01*
X168152221Y-81090182D01*
X168035222Y-80999118D01*
X167968017Y-80946810D01*
X167762727Y-80835713D01*
X167762724Y-80835712D01*
X167762723Y-80835711D01*
X167541955Y-80759921D01*
X167541948Y-80759919D01*
X167443411Y-80743476D01*
X167311712Y-80721500D01*
X167078288Y-80721500D01*
X166963066Y-80740727D01*
X166848051Y-80759919D01*
X166848044Y-80759921D01*
X166627276Y-80835711D01*
X166627273Y-80835713D01*
X166421985Y-80946809D01*
X166421983Y-80946810D01*
X166237778Y-81090182D01*
X166237774Y-81090186D01*
X166079685Y-81261916D01*
X165952015Y-81457331D01*
X165858252Y-81671089D01*
X165858249Y-81671096D01*
X165800950Y-81897366D01*
X165800949Y-81897372D01*
X165800949Y-81897374D01*
X165781673Y-82130000D01*
X164896359Y-82130000D01*
X164889535Y-82043289D01*
X164834105Y-81812406D01*
X164743240Y-81593037D01*
X164619176Y-81390584D01*
X164619173Y-81390580D01*
X164464969Y-81210030D01*
X164284419Y-81055826D01*
X164284417Y-81055825D01*
X164284416Y-81055824D01*
X164081963Y-80931760D01*
X163862594Y-80840895D01*
X163862592Y-80840894D01*
X163704651Y-80802976D01*
X163631711Y-80785465D01*
X163395000Y-80766835D01*
X163158289Y-80785465D01*
X162927407Y-80840894D01*
X162708038Y-80931759D01*
X162505582Y-81055825D01*
X162505580Y-81055826D01*
X162325030Y-81210030D01*
X162170826Y-81390580D01*
X162170825Y-81390582D01*
X162046759Y-81593038D01*
X161955894Y-81812407D01*
X161914219Y-81986000D01*
X161900465Y-82043289D01*
X161881835Y-82280000D01*
X128834727Y-82280000D01*
X128868542Y-82175928D01*
X128888504Y-81986000D01*
X128887890Y-81980160D01*
X128900662Y-81910323D01*
X128949163Y-81858476D01*
X128987003Y-81843743D01*
X129010288Y-81838794D01*
X129184752Y-81761118D01*
X129339253Y-81648866D01*
X129467040Y-81506944D01*
X129562527Y-81341556D01*
X129616895Y-81174229D01*
X129656967Y-81115625D01*
X129710528Y-81089921D01*
X129772288Y-81076794D01*
X129946752Y-80999118D01*
X130101253Y-80886866D01*
X130101255Y-80886864D01*
X130229034Y-80744951D01*
X130229035Y-80744949D01*
X130229040Y-80744944D01*
X130324527Y-80579556D01*
X130383542Y-80397928D01*
X130403504Y-80208000D01*
X130383542Y-80018072D01*
X130324527Y-79836444D01*
X130229040Y-79671056D01*
X130229039Y-79671055D01*
X130228082Y-79669397D01*
X130211344Y-79600402D01*
X130234564Y-79533310D01*
X130290371Y-79489423D01*
X130337201Y-79480397D01*
X130531327Y-79480397D01*
X130718128Y-79440691D01*
X130892592Y-79363015D01*
X131047093Y-79250763D01*
X131050853Y-79246587D01*
X131174874Y-79108848D01*
X131174875Y-79108846D01*
X131174880Y-79108841D01*
X131270367Y-78943453D01*
X131329382Y-78761825D01*
X131349344Y-78571897D01*
X131329382Y-78381969D01*
X131270367Y-78200341D01*
X131174880Y-78034953D01*
X131174878Y-78034951D01*
X131174874Y-78034945D01*
X131047095Y-77893032D01*
X130892592Y-77780779D01*
X130718128Y-77703103D01*
X130531327Y-77663397D01*
X130340353Y-77663397D01*
X130153551Y-77703103D01*
X129979087Y-77780779D01*
X129824584Y-77893032D01*
X129696805Y-78034945D01*
X129696798Y-78034955D01*
X129601316Y-78200335D01*
X129601313Y-78200342D01*
X129542297Y-78381969D01*
X129522336Y-78571897D01*
X129542297Y-78761824D01*
X129558276Y-78811000D01*
X129601313Y-78943453D01*
X129601316Y-78943458D01*
X129697758Y-79110500D01*
X129714496Y-79179495D01*
X129691276Y-79246587D01*
X129635469Y-79290474D01*
X129588639Y-79299500D01*
X129394513Y-79299500D01*
X129207711Y-79339206D01*
X129033247Y-79416882D01*
X128878744Y-79529135D01*
X128750965Y-79671048D01*
X128750958Y-79671058D01*
X128655476Y-79836438D01*
X128655473Y-79836445D01*
X128601105Y-80003768D01*
X128561031Y-80062374D01*
X128507471Y-80088077D01*
X128445714Y-80101204D01*
X128271247Y-80178882D01*
X128116744Y-80291135D01*
X127988965Y-80433048D01*
X127988958Y-80433058D01*
X127893476Y-80598438D01*
X127893473Y-80598445D01*
X127834457Y-80780072D01*
X127814496Y-80970001D01*
X127814496Y-80970002D01*
X127815110Y-80975848D01*
X127802333Y-81045685D01*
X127753827Y-81097528D01*
X127715999Y-81112255D01*
X127692714Y-81117204D01*
X127518247Y-81194882D01*
X127363744Y-81307135D01*
X127235965Y-81449048D01*
X127235958Y-81449058D01*
X127140476Y-81614438D01*
X127140473Y-81614444D01*
X127129289Y-81648864D01*
X127081457Y-81796072D01*
X127061496Y-81986000D01*
X127081457Y-82175927D01*
X127111526Y-82268470D01*
X127140473Y-82357556D01*
X127140473Y-82357557D01*
X127140474Y-82357558D01*
X127182876Y-82431001D01*
X127199613Y-82499996D01*
X127182876Y-82556999D01*
X127140474Y-82630441D01*
X127140473Y-82630445D01*
X127081457Y-82812072D01*
X127061496Y-83002000D01*
X127071469Y-83096896D01*
X127058696Y-83166734D01*
X127010194Y-83218580D01*
X126941361Y-83235974D01*
X126894912Y-83225172D01*
X126724288Y-83149206D01*
X126537487Y-83109500D01*
X126346513Y-83109500D01*
X126159711Y-83149206D01*
X125985247Y-83226882D01*
X125830744Y-83339135D01*
X125702965Y-83481048D01*
X125702958Y-83481058D01*
X125607476Y-83646438D01*
X125607473Y-83646445D01*
X125561888Y-83786738D01*
X125521814Y-83845343D01*
X125456417Y-83872980D01*
X125442055Y-83873801D01*
X125330513Y-83873801D01*
X125143711Y-83913507D01*
X124969247Y-83991183D01*
X124814744Y-84103436D01*
X124686965Y-84245349D01*
X124686958Y-84245359D01*
X124591476Y-84410739D01*
X124591473Y-84410746D01*
X124532457Y-84592373D01*
X124512496Y-84782301D01*
X100284000Y-84782301D01*
X100284000Y-82303501D01*
X119876995Y-82303501D01*
X119896956Y-82493428D01*
X119917612Y-82556999D01*
X119955972Y-82675057D01*
X119955975Y-82675062D01*
X120051457Y-82840442D01*
X120051464Y-82840452D01*
X120179243Y-82982365D01*
X120179246Y-82982367D01*
X120333747Y-83094619D01*
X120508211Y-83172295D01*
X120695012Y-83212001D01*
X120885986Y-83212001D01*
X121072787Y-83172295D01*
X121247251Y-83094619D01*
X121401752Y-82982367D01*
X121529539Y-82840445D01*
X121625026Y-82675057D01*
X121684041Y-82493429D01*
X121704003Y-82303501D01*
X121684041Y-82113573D01*
X121625026Y-81931945D01*
X121529539Y-81766557D01*
X121529537Y-81766555D01*
X121529533Y-81766549D01*
X121401754Y-81624636D01*
X121247251Y-81512383D01*
X121072787Y-81434707D01*
X120885986Y-81395001D01*
X120695012Y-81395001D01*
X120508210Y-81434707D01*
X120333746Y-81512383D01*
X120179243Y-81624636D01*
X120051464Y-81766549D01*
X120051457Y-81766559D01*
X119955975Y-81931939D01*
X119955972Y-81931946D01*
X119896956Y-82113573D01*
X119876995Y-82303501D01*
X100284000Y-82303501D01*
X100284000Y-78811000D01*
X125464496Y-78811000D01*
X125484457Y-79000927D01*
X125514526Y-79093470D01*
X125543473Y-79182556D01*
X125543476Y-79182561D01*
X125638958Y-79347941D01*
X125638965Y-79347951D01*
X125766744Y-79489864D01*
X125766747Y-79489866D01*
X125921248Y-79602118D01*
X126095712Y-79679794D01*
X126282513Y-79719500D01*
X126473487Y-79719500D01*
X126660288Y-79679794D01*
X126834752Y-79602118D01*
X126989253Y-79489866D01*
X126997779Y-79480397D01*
X127117034Y-79347951D01*
X127117035Y-79347949D01*
X127117040Y-79347944D01*
X127212527Y-79182556D01*
X127271542Y-79000928D01*
X127291504Y-78811000D01*
X127271542Y-78621072D01*
X127212527Y-78439444D01*
X127117040Y-78274056D01*
X127117038Y-78274054D01*
X127117034Y-78274048D01*
X126989255Y-78132135D01*
X126834752Y-78019882D01*
X126660288Y-77942206D01*
X126473487Y-77902500D01*
X126282513Y-77902500D01*
X126095711Y-77942206D01*
X125921247Y-78019882D01*
X125766744Y-78132135D01*
X125638965Y-78274048D01*
X125638958Y-78274058D01*
X125543476Y-78439438D01*
X125543473Y-78439445D01*
X125484457Y-78621072D01*
X125464496Y-78811000D01*
X100284000Y-78811000D01*
X100284000Y-74000000D01*
X101136656Y-74000000D01*
X101156016Y-74332403D01*
X101156016Y-74332409D01*
X101156017Y-74332414D01*
X101213838Y-74660333D01*
X101309337Y-74979321D01*
X101309339Y-74979327D01*
X101309340Y-74979328D01*
X101441220Y-75285063D01*
X101441223Y-75285068D01*
X101483619Y-75358500D01*
X101607711Y-75573433D01*
X101607714Y-75573437D01*
X101806552Y-75840523D01*
X102035057Y-76082724D01*
X102290134Y-76296758D01*
X102568320Y-76479724D01*
X102568328Y-76479729D01*
X102865887Y-76629169D01*
X103022335Y-76686111D01*
X103178775Y-76743051D01*
X103178776Y-76743051D01*
X103178784Y-76743054D01*
X103502786Y-76819843D01*
X103691771Y-76841932D01*
X103833508Y-76858500D01*
X103833511Y-76858500D01*
X104166492Y-76858500D01*
X104290510Y-76844003D01*
X104497214Y-76819843D01*
X104821216Y-76743054D01*
X105134113Y-76629169D01*
X105431672Y-76479729D01*
X105709870Y-76296755D01*
X105964946Y-76082721D01*
X106193449Y-75840522D01*
X106392289Y-75573433D01*
X106558778Y-75285066D01*
X106690663Y-74979321D01*
X106786162Y-74660333D01*
X106843983Y-74332414D01*
X106863344Y-74000000D01*
X106843983Y-73667586D01*
X106786162Y-73339667D01*
X106714814Y-73101350D01*
X107641500Y-73101350D01*
X107641500Y-74898649D01*
X107648009Y-74959196D01*
X107648011Y-74959204D01*
X107699110Y-75096202D01*
X107699112Y-75096207D01*
X107786738Y-75213261D01*
X107903792Y-75300887D01*
X107903794Y-75300888D01*
X107903796Y-75300889D01*
X107958900Y-75321442D01*
X108040795Y-75351988D01*
X108040803Y-75351990D01*
X108101350Y-75358499D01*
X108101355Y-75358499D01*
X108101362Y-75358500D01*
X108101368Y-75358500D01*
X109898632Y-75358500D01*
X109898638Y-75358500D01*
X109898645Y-75358499D01*
X109898649Y-75358499D01*
X109959196Y-75351990D01*
X109959199Y-75351989D01*
X109959201Y-75351989D01*
X110096204Y-75300889D01*
X110117339Y-75285068D01*
X110213261Y-75213261D01*
X110300886Y-75096208D01*
X110300885Y-75096208D01*
X110300889Y-75096204D01*
X110344999Y-74977939D01*
X110387545Y-74921107D01*
X110454066Y-74896296D01*
X110523440Y-74911388D01*
X110555753Y-74936635D01*
X110595049Y-74979322D01*
X110616762Y-75002908D01*
X110671331Y-75045381D01*
X110794424Y-75141189D01*
X110992426Y-75248342D01*
X110992427Y-75248342D01*
X110992428Y-75248343D01*
X111099391Y-75285063D01*
X111205365Y-75321444D01*
X111427431Y-75358500D01*
X111427435Y-75358500D01*
X111652565Y-75358500D01*
X111652569Y-75358500D01*
X111874635Y-75321444D01*
X112087574Y-75248342D01*
X112285576Y-75141189D01*
X112463240Y-75002906D01*
X112615722Y-74837268D01*
X112704518Y-74701354D01*
X112758520Y-74655268D01*
X112828868Y-74645692D01*
X112893225Y-74675669D01*
X112915480Y-74701353D01*
X112948607Y-74752058D01*
X113004275Y-74837265D01*
X113004279Y-74837270D01*
X113156762Y-75002908D01*
X113211331Y-75045381D01*
X113334424Y-75141189D01*
X113532426Y-75248342D01*
X113532427Y-75248342D01*
X113532428Y-75248343D01*
X113639391Y-75285063D01*
X113745365Y-75321444D01*
X113967431Y-75358500D01*
X113967435Y-75358500D01*
X114192565Y-75358500D01*
X114192569Y-75358500D01*
X114414635Y-75321444D01*
X114627574Y-75248342D01*
X114825576Y-75141189D01*
X115003240Y-75002906D01*
X115155722Y-74837268D01*
X115244518Y-74701354D01*
X115298520Y-74655268D01*
X115368868Y-74645692D01*
X115433225Y-74675669D01*
X115455480Y-74701353D01*
X115488607Y-74752058D01*
X115544275Y-74837265D01*
X115544279Y-74837270D01*
X115696762Y-75002908D01*
X115751331Y-75045381D01*
X115874424Y-75141189D01*
X116072426Y-75248342D01*
X116072427Y-75248342D01*
X116072428Y-75248343D01*
X116179391Y-75285063D01*
X116285365Y-75321444D01*
X116507431Y-75358500D01*
X116507435Y-75358500D01*
X116732565Y-75358500D01*
X116732569Y-75358500D01*
X116954635Y-75321444D01*
X117167574Y-75248342D01*
X117365576Y-75141189D01*
X117543240Y-75002906D01*
X117695722Y-74837268D01*
X117784518Y-74701354D01*
X117838520Y-74655268D01*
X117908868Y-74645692D01*
X117973225Y-74675669D01*
X117995480Y-74701353D01*
X118028607Y-74752058D01*
X118084275Y-74837265D01*
X118084279Y-74837270D01*
X118236762Y-75002908D01*
X118291331Y-75045381D01*
X118414424Y-75141189D01*
X118612426Y-75248342D01*
X118612427Y-75248342D01*
X118612428Y-75248343D01*
X118719391Y-75285063D01*
X118825365Y-75321444D01*
X119047431Y-75358500D01*
X119047435Y-75358500D01*
X119272565Y-75358500D01*
X119272569Y-75358500D01*
X119494635Y-75321444D01*
X119707574Y-75248342D01*
X119905576Y-75141189D01*
X120083240Y-75002906D01*
X120235722Y-74837268D01*
X120324518Y-74701354D01*
X120378520Y-74655268D01*
X120448868Y-74645692D01*
X120513225Y-74675669D01*
X120535480Y-74701353D01*
X120568607Y-74752058D01*
X120624275Y-74837265D01*
X120624279Y-74837270D01*
X120776762Y-75002908D01*
X120831331Y-75045381D01*
X120954424Y-75141189D01*
X121152426Y-75248342D01*
X121152427Y-75248342D01*
X121152428Y-75248343D01*
X121259391Y-75285063D01*
X121365365Y-75321444D01*
X121587431Y-75358500D01*
X121587435Y-75358500D01*
X121812565Y-75358500D01*
X121812569Y-75358500D01*
X122034635Y-75321444D01*
X122247574Y-75248342D01*
X122445576Y-75141189D01*
X122623240Y-75002906D01*
X122775722Y-74837268D01*
X122864518Y-74701354D01*
X122918520Y-74655268D01*
X122988868Y-74645692D01*
X123053225Y-74675669D01*
X123075480Y-74701353D01*
X123108607Y-74752058D01*
X123164275Y-74837265D01*
X123164279Y-74837270D01*
X123316762Y-75002908D01*
X123371331Y-75045381D01*
X123494424Y-75141189D01*
X123692426Y-75248342D01*
X123692427Y-75248342D01*
X123692428Y-75248343D01*
X123799391Y-75285063D01*
X123905365Y-75321444D01*
X124127431Y-75358500D01*
X124127435Y-75358500D01*
X124352565Y-75358500D01*
X124352569Y-75358500D01*
X124574635Y-75321444D01*
X124787574Y-75248342D01*
X124985576Y-75141189D01*
X125163240Y-75002906D01*
X125315722Y-74837268D01*
X125404518Y-74701354D01*
X125458520Y-74655268D01*
X125528868Y-74645692D01*
X125593225Y-74675669D01*
X125615480Y-74701353D01*
X125648607Y-74752058D01*
X125704275Y-74837265D01*
X125704279Y-74837270D01*
X125856762Y-75002908D01*
X125911331Y-75045381D01*
X126034424Y-75141189D01*
X126232426Y-75248342D01*
X126232427Y-75248342D01*
X126232428Y-75248343D01*
X126339391Y-75285063D01*
X126445365Y-75321444D01*
X126667431Y-75358500D01*
X126667435Y-75358500D01*
X126892565Y-75358500D01*
X126892569Y-75358500D01*
X127114635Y-75321444D01*
X127327574Y-75248342D01*
X127525576Y-75141189D01*
X127703240Y-75002906D01*
X127855722Y-74837268D01*
X127944518Y-74701354D01*
X127998520Y-74655268D01*
X128068868Y-74645692D01*
X128133225Y-74675669D01*
X128155480Y-74701353D01*
X128188607Y-74752058D01*
X128244275Y-74837265D01*
X128244279Y-74837270D01*
X128396762Y-75002908D01*
X128451331Y-75045381D01*
X128574424Y-75141189D01*
X128772426Y-75248342D01*
X128772427Y-75248342D01*
X128772428Y-75248343D01*
X128879391Y-75285063D01*
X128985365Y-75321444D01*
X129207431Y-75358500D01*
X129207435Y-75358500D01*
X129432565Y-75358500D01*
X129432569Y-75358500D01*
X129654635Y-75321444D01*
X129867574Y-75248342D01*
X130065576Y-75141189D01*
X130243240Y-75002906D01*
X130395722Y-74837268D01*
X130484518Y-74701354D01*
X130538520Y-74655268D01*
X130608868Y-74645692D01*
X130673225Y-74675669D01*
X130695480Y-74701353D01*
X130728607Y-74752058D01*
X130784275Y-74837265D01*
X130784279Y-74837270D01*
X130936762Y-75002908D01*
X130991331Y-75045381D01*
X131114424Y-75141189D01*
X131312426Y-75248342D01*
X131312427Y-75248342D01*
X131312428Y-75248343D01*
X131419391Y-75285063D01*
X131525365Y-75321444D01*
X131747431Y-75358500D01*
X131747435Y-75358500D01*
X131972565Y-75358500D01*
X131972569Y-75358500D01*
X132194635Y-75321444D01*
X132407574Y-75248342D01*
X132605576Y-75141189D01*
X132783240Y-75002906D01*
X132935722Y-74837268D01*
X133024518Y-74701354D01*
X133078520Y-74655268D01*
X133148868Y-74645692D01*
X133213225Y-74675669D01*
X133235480Y-74701353D01*
X133268607Y-74752058D01*
X133324275Y-74837265D01*
X133324279Y-74837270D01*
X133476762Y-75002908D01*
X133531331Y-75045381D01*
X133654424Y-75141189D01*
X133852426Y-75248342D01*
X133852427Y-75248342D01*
X133852428Y-75248343D01*
X133959391Y-75285063D01*
X134065365Y-75321444D01*
X134287431Y-75358500D01*
X134287435Y-75358500D01*
X134512565Y-75358500D01*
X134512569Y-75358500D01*
X134734635Y-75321444D01*
X134947574Y-75248342D01*
X135145576Y-75141189D01*
X135323240Y-75002906D01*
X135475722Y-74837268D01*
X135564518Y-74701354D01*
X135618520Y-74655268D01*
X135688868Y-74645692D01*
X135753225Y-74675669D01*
X135775480Y-74701353D01*
X135808607Y-74752058D01*
X135864275Y-74837265D01*
X135864279Y-74837270D01*
X136016762Y-75002908D01*
X136071331Y-75045381D01*
X136194424Y-75141189D01*
X136392426Y-75248342D01*
X136392427Y-75248342D01*
X136392428Y-75248343D01*
X136499391Y-75285063D01*
X136605365Y-75321444D01*
X136827431Y-75358500D01*
X136827435Y-75358500D01*
X137052565Y-75358500D01*
X137052569Y-75358500D01*
X137274635Y-75321444D01*
X137487574Y-75248342D01*
X137685576Y-75141189D01*
X137863240Y-75002906D01*
X138015722Y-74837268D01*
X138104518Y-74701354D01*
X138158520Y-74655268D01*
X138228868Y-74645692D01*
X138293225Y-74675669D01*
X138315480Y-74701353D01*
X138348607Y-74752058D01*
X138404275Y-74837265D01*
X138404279Y-74837270D01*
X138556762Y-75002908D01*
X138611331Y-75045381D01*
X138734424Y-75141189D01*
X138932426Y-75248342D01*
X138932427Y-75248342D01*
X138932428Y-75248343D01*
X139039391Y-75285063D01*
X139145365Y-75321444D01*
X139367431Y-75358500D01*
X139367435Y-75358500D01*
X139592565Y-75358500D01*
X139592569Y-75358500D01*
X139814635Y-75321444D01*
X140027574Y-75248342D01*
X140225576Y-75141189D01*
X140403240Y-75002906D01*
X140555722Y-74837268D01*
X140644518Y-74701354D01*
X140698520Y-74655268D01*
X140768868Y-74645692D01*
X140833225Y-74675669D01*
X140855480Y-74701353D01*
X140888607Y-74752058D01*
X140944275Y-74837265D01*
X140944279Y-74837270D01*
X141096762Y-75002908D01*
X141151331Y-75045381D01*
X141274424Y-75141189D01*
X141472426Y-75248342D01*
X141472427Y-75248342D01*
X141472428Y-75248343D01*
X141579391Y-75285063D01*
X141685365Y-75321444D01*
X141907431Y-75358500D01*
X141907435Y-75358500D01*
X142132565Y-75358500D01*
X142132569Y-75358500D01*
X142354635Y-75321444D01*
X142567574Y-75248342D01*
X142765576Y-75141189D01*
X142943240Y-75002906D01*
X143095722Y-74837268D01*
X143184518Y-74701354D01*
X143238520Y-74655268D01*
X143308868Y-74645692D01*
X143373225Y-74675669D01*
X143395480Y-74701353D01*
X143428607Y-74752058D01*
X143484275Y-74837265D01*
X143484279Y-74837270D01*
X143636762Y-75002908D01*
X143691331Y-75045381D01*
X143814424Y-75141189D01*
X144012426Y-75248342D01*
X144012427Y-75248342D01*
X144012428Y-75248343D01*
X144119391Y-75285063D01*
X144225365Y-75321444D01*
X144447431Y-75358500D01*
X144447435Y-75358500D01*
X144672565Y-75358500D01*
X144672569Y-75358500D01*
X144894635Y-75321444D01*
X145107574Y-75248342D01*
X145305576Y-75141189D01*
X145483240Y-75002906D01*
X145635722Y-74837268D01*
X145724518Y-74701354D01*
X145778520Y-74655268D01*
X145848868Y-74645692D01*
X145913225Y-74675669D01*
X145935480Y-74701353D01*
X145968607Y-74752058D01*
X146024275Y-74837265D01*
X146024279Y-74837270D01*
X146176762Y-75002908D01*
X146231331Y-75045381D01*
X146354424Y-75141189D01*
X146552426Y-75248342D01*
X146552427Y-75248342D01*
X146552428Y-75248343D01*
X146659391Y-75285063D01*
X146765365Y-75321444D01*
X146987431Y-75358500D01*
X146987435Y-75358500D01*
X147212565Y-75358500D01*
X147212569Y-75358500D01*
X147434635Y-75321444D01*
X147647574Y-75248342D01*
X147845576Y-75141189D01*
X148023240Y-75002906D01*
X148175722Y-74837268D01*
X148298860Y-74648791D01*
X148389296Y-74442616D01*
X148444564Y-74224368D01*
X148463156Y-74000000D01*
X162136656Y-74000000D01*
X162156016Y-74332403D01*
X162156016Y-74332409D01*
X162156017Y-74332414D01*
X162213838Y-74660333D01*
X162309337Y-74979321D01*
X162309339Y-74979327D01*
X162309340Y-74979328D01*
X162441220Y-75285063D01*
X162441223Y-75285068D01*
X162483619Y-75358500D01*
X162607711Y-75573433D01*
X162607714Y-75573437D01*
X162806552Y-75840523D01*
X163035057Y-76082724D01*
X163290134Y-76296758D01*
X163568320Y-76479724D01*
X163568328Y-76479729D01*
X163865887Y-76629169D01*
X164022335Y-76686111D01*
X164178775Y-76743051D01*
X164178776Y-76743051D01*
X164178784Y-76743054D01*
X164502786Y-76819843D01*
X164691771Y-76841932D01*
X164833508Y-76858500D01*
X164833511Y-76858500D01*
X165166492Y-76858500D01*
X165290510Y-76844003D01*
X165497214Y-76819843D01*
X165821216Y-76743054D01*
X166134113Y-76629169D01*
X166431672Y-76479729D01*
X166709870Y-76296755D01*
X166964946Y-76082721D01*
X167193449Y-75840522D01*
X167392289Y-75573433D01*
X167558778Y-75285066D01*
X167690663Y-74979321D01*
X167786162Y-74660333D01*
X167843983Y-74332414D01*
X167863344Y-74000000D01*
X167843983Y-73667586D01*
X167786162Y-73339667D01*
X167690663Y-73020679D01*
X167558778Y-72714934D01*
X167392289Y-72426567D01*
X167193449Y-72159478D01*
X166964946Y-71917279D01*
X166964944Y-71917278D01*
X166964942Y-71917275D01*
X166709865Y-71703241D01*
X166431679Y-71520275D01*
X166431675Y-71520273D01*
X166431672Y-71520271D01*
X166134113Y-71370831D01*
X166134108Y-71370829D01*
X166134103Y-71370827D01*
X165821224Y-71256948D01*
X165821217Y-71256946D01*
X165821216Y-71256946D01*
X165639258Y-71213821D01*
X165497219Y-71180158D01*
X165497209Y-71180156D01*
X165166492Y-71141500D01*
X165166489Y-71141500D01*
X164833511Y-71141500D01*
X164833508Y-71141500D01*
X164502790Y-71180156D01*
X164502780Y-71180158D01*
X164178784Y-71256946D01*
X164178775Y-71256948D01*
X163865896Y-71370827D01*
X163865891Y-71370829D01*
X163568320Y-71520275D01*
X163290134Y-71703241D01*
X163035057Y-71917275D01*
X162806552Y-72159476D01*
X162607714Y-72426562D01*
X162607704Y-72426578D01*
X162441223Y-72714931D01*
X162441220Y-72714936D01*
X162309340Y-73020671D01*
X162309337Y-73020679D01*
X162286249Y-73097798D01*
X162213838Y-73339666D01*
X162156016Y-73667590D01*
X162156016Y-73667596D01*
X162136656Y-74000000D01*
X148463156Y-74000000D01*
X148444564Y-73775632D01*
X148389296Y-73557384D01*
X148298860Y-73351209D01*
X148281500Y-73324637D01*
X148175724Y-73162734D01*
X148175720Y-73162729D01*
X148044944Y-73020671D01*
X148023240Y-72997094D01*
X148023239Y-72997093D01*
X148023237Y-72997091D01*
X147903367Y-72903792D01*
X147845576Y-72858811D01*
X147647574Y-72751658D01*
X147647572Y-72751657D01*
X147647571Y-72751656D01*
X147434639Y-72678557D01*
X147434630Y-72678555D01*
X147390476Y-72671187D01*
X147212569Y-72641500D01*
X146987431Y-72641500D01*
X146839211Y-72666233D01*
X146765369Y-72678555D01*
X146765360Y-72678557D01*
X146552428Y-72751656D01*
X146552426Y-72751658D01*
X146354426Y-72858810D01*
X146354424Y-72858811D01*
X146176762Y-72997091D01*
X146024279Y-73162729D01*
X145935483Y-73298643D01*
X145881479Y-73344731D01*
X145811131Y-73354306D01*
X145746774Y-73324329D01*
X145724517Y-73298643D01*
X145635720Y-73162729D01*
X145504944Y-73020671D01*
X145483240Y-72997094D01*
X145483239Y-72997093D01*
X145483237Y-72997091D01*
X145363367Y-72903792D01*
X145305576Y-72858811D01*
X145107574Y-72751658D01*
X145107572Y-72751657D01*
X145107571Y-72751656D01*
X144894639Y-72678557D01*
X144894630Y-72678555D01*
X144850476Y-72671187D01*
X144672569Y-72641500D01*
X144447431Y-72641500D01*
X144299211Y-72666233D01*
X144225369Y-72678555D01*
X144225360Y-72678557D01*
X144012428Y-72751656D01*
X144012426Y-72751658D01*
X143814426Y-72858810D01*
X143814424Y-72858811D01*
X143636762Y-72997091D01*
X143484279Y-73162729D01*
X143395483Y-73298643D01*
X143341479Y-73344731D01*
X143271131Y-73354306D01*
X143206774Y-73324329D01*
X143184517Y-73298643D01*
X143095720Y-73162729D01*
X142964944Y-73020671D01*
X142943240Y-72997094D01*
X142943239Y-72997093D01*
X142943237Y-72997091D01*
X142823367Y-72903792D01*
X142765576Y-72858811D01*
X142567574Y-72751658D01*
X142567572Y-72751657D01*
X142567571Y-72751656D01*
X142354639Y-72678557D01*
X142354630Y-72678555D01*
X142310476Y-72671187D01*
X142132569Y-72641500D01*
X141907431Y-72641500D01*
X141759211Y-72666233D01*
X141685369Y-72678555D01*
X141685360Y-72678557D01*
X141472428Y-72751656D01*
X141472426Y-72751658D01*
X141274426Y-72858810D01*
X141274424Y-72858811D01*
X141096762Y-72997091D01*
X140944279Y-73162729D01*
X140855483Y-73298643D01*
X140801479Y-73344731D01*
X140731131Y-73354306D01*
X140666774Y-73324329D01*
X140644517Y-73298643D01*
X140555720Y-73162729D01*
X140424944Y-73020671D01*
X140403240Y-72997094D01*
X140403239Y-72997093D01*
X140403237Y-72997091D01*
X140283367Y-72903792D01*
X140225576Y-72858811D01*
X140027574Y-72751658D01*
X140027572Y-72751657D01*
X140027571Y-72751656D01*
X139814639Y-72678557D01*
X139814630Y-72678555D01*
X139770476Y-72671187D01*
X139592569Y-72641500D01*
X139367431Y-72641500D01*
X139219211Y-72666233D01*
X139145369Y-72678555D01*
X139145360Y-72678557D01*
X138932428Y-72751656D01*
X138932426Y-72751658D01*
X138734426Y-72858810D01*
X138734424Y-72858811D01*
X138556762Y-72997091D01*
X138404279Y-73162729D01*
X138315483Y-73298643D01*
X138261479Y-73344731D01*
X138191131Y-73354306D01*
X138126774Y-73324329D01*
X138104517Y-73298643D01*
X138015720Y-73162729D01*
X137884944Y-73020671D01*
X137863240Y-72997094D01*
X137863239Y-72997093D01*
X137863237Y-72997091D01*
X137743367Y-72903792D01*
X137685576Y-72858811D01*
X137487574Y-72751658D01*
X137487572Y-72751657D01*
X137487571Y-72751656D01*
X137274639Y-72678557D01*
X137274630Y-72678555D01*
X137230476Y-72671187D01*
X137052569Y-72641500D01*
X136827431Y-72641500D01*
X136679211Y-72666233D01*
X136605369Y-72678555D01*
X136605360Y-72678557D01*
X136392428Y-72751656D01*
X136392426Y-72751658D01*
X136194426Y-72858810D01*
X136194424Y-72858811D01*
X136016762Y-72997091D01*
X135864279Y-73162729D01*
X135775483Y-73298643D01*
X135721479Y-73344731D01*
X135651131Y-73354306D01*
X135586774Y-73324329D01*
X135564517Y-73298643D01*
X135475720Y-73162729D01*
X135344944Y-73020671D01*
X135323240Y-72997094D01*
X135323239Y-72997093D01*
X135323237Y-72997091D01*
X135203367Y-72903792D01*
X135145576Y-72858811D01*
X134947574Y-72751658D01*
X134947572Y-72751657D01*
X134947571Y-72751656D01*
X134734639Y-72678557D01*
X134734630Y-72678555D01*
X134690476Y-72671187D01*
X134512569Y-72641500D01*
X134287431Y-72641500D01*
X134139211Y-72666233D01*
X134065369Y-72678555D01*
X134065360Y-72678557D01*
X133852428Y-72751656D01*
X133852426Y-72751658D01*
X133654426Y-72858810D01*
X133654424Y-72858811D01*
X133476762Y-72997091D01*
X133324279Y-73162729D01*
X133235483Y-73298643D01*
X133181479Y-73344731D01*
X133111131Y-73354306D01*
X133046774Y-73324329D01*
X133024517Y-73298643D01*
X132935720Y-73162729D01*
X132804944Y-73020671D01*
X132783240Y-72997094D01*
X132783239Y-72997093D01*
X132783237Y-72997091D01*
X132663367Y-72903792D01*
X132605576Y-72858811D01*
X132407574Y-72751658D01*
X132407572Y-72751657D01*
X132407571Y-72751656D01*
X132194639Y-72678557D01*
X132194630Y-72678555D01*
X132150476Y-72671187D01*
X131972569Y-72641500D01*
X131747431Y-72641500D01*
X131599211Y-72666233D01*
X131525369Y-72678555D01*
X131525360Y-72678557D01*
X131312428Y-72751656D01*
X131312426Y-72751658D01*
X131114426Y-72858810D01*
X131114424Y-72858811D01*
X130936762Y-72997091D01*
X130784279Y-73162729D01*
X130695483Y-73298643D01*
X130641479Y-73344731D01*
X130571131Y-73354306D01*
X130506774Y-73324329D01*
X130484517Y-73298643D01*
X130395720Y-73162729D01*
X130264944Y-73020671D01*
X130243240Y-72997094D01*
X130243239Y-72997093D01*
X130243237Y-72997091D01*
X130123367Y-72903792D01*
X130065576Y-72858811D01*
X129867574Y-72751658D01*
X129867572Y-72751657D01*
X129867571Y-72751656D01*
X129654639Y-72678557D01*
X129654630Y-72678555D01*
X129610476Y-72671187D01*
X129432569Y-72641500D01*
X129207431Y-72641500D01*
X129059211Y-72666233D01*
X128985369Y-72678555D01*
X128985360Y-72678557D01*
X128772428Y-72751656D01*
X128772426Y-72751658D01*
X128574426Y-72858810D01*
X128574424Y-72858811D01*
X128396762Y-72997091D01*
X128244279Y-73162729D01*
X128155483Y-73298643D01*
X128101479Y-73344731D01*
X128031131Y-73354306D01*
X127966774Y-73324329D01*
X127944517Y-73298643D01*
X127855720Y-73162729D01*
X127724944Y-73020671D01*
X127703240Y-72997094D01*
X127703239Y-72997093D01*
X127703237Y-72997091D01*
X127583367Y-72903792D01*
X127525576Y-72858811D01*
X127327574Y-72751658D01*
X127327572Y-72751657D01*
X127327571Y-72751656D01*
X127114639Y-72678557D01*
X127114630Y-72678555D01*
X127070476Y-72671187D01*
X126892569Y-72641500D01*
X126667431Y-72641500D01*
X126519211Y-72666233D01*
X126445369Y-72678555D01*
X126445360Y-72678557D01*
X126232428Y-72751656D01*
X126232426Y-72751658D01*
X126034426Y-72858810D01*
X126034424Y-72858811D01*
X125856762Y-72997091D01*
X125704279Y-73162729D01*
X125615483Y-73298643D01*
X125561479Y-73344731D01*
X125491131Y-73354306D01*
X125426774Y-73324329D01*
X125404517Y-73298643D01*
X125315720Y-73162729D01*
X125184944Y-73020671D01*
X125163240Y-72997094D01*
X125163239Y-72997093D01*
X125163237Y-72997091D01*
X125043367Y-72903792D01*
X124985576Y-72858811D01*
X124787574Y-72751658D01*
X124787572Y-72751657D01*
X124787571Y-72751656D01*
X124574639Y-72678557D01*
X124574630Y-72678555D01*
X124530476Y-72671187D01*
X124352569Y-72641500D01*
X124127431Y-72641500D01*
X123979211Y-72666233D01*
X123905369Y-72678555D01*
X123905360Y-72678557D01*
X123692428Y-72751656D01*
X123692426Y-72751658D01*
X123494426Y-72858810D01*
X123494424Y-72858811D01*
X123316762Y-72997091D01*
X123164279Y-73162729D01*
X123075483Y-73298643D01*
X123021479Y-73344731D01*
X122951131Y-73354306D01*
X122886774Y-73324329D01*
X122864517Y-73298643D01*
X122775720Y-73162729D01*
X122644944Y-73020671D01*
X122623240Y-72997094D01*
X122623239Y-72997093D01*
X122623237Y-72997091D01*
X122503367Y-72903792D01*
X122445576Y-72858811D01*
X122247574Y-72751658D01*
X122247572Y-72751657D01*
X122247571Y-72751656D01*
X122034639Y-72678557D01*
X122034630Y-72678555D01*
X121990476Y-72671187D01*
X121812569Y-72641500D01*
X121587431Y-72641500D01*
X121439211Y-72666233D01*
X121365369Y-72678555D01*
X121365360Y-72678557D01*
X121152428Y-72751656D01*
X121152426Y-72751658D01*
X120954426Y-72858810D01*
X120954424Y-72858811D01*
X120776762Y-72997091D01*
X120624279Y-73162729D01*
X120535483Y-73298643D01*
X120481479Y-73344731D01*
X120411131Y-73354306D01*
X120346774Y-73324329D01*
X120324517Y-73298643D01*
X120235720Y-73162729D01*
X120104944Y-73020671D01*
X120083240Y-72997094D01*
X120083239Y-72997093D01*
X120083237Y-72997091D01*
X119963367Y-72903792D01*
X119905576Y-72858811D01*
X119707574Y-72751658D01*
X119707572Y-72751657D01*
X119707571Y-72751656D01*
X119494639Y-72678557D01*
X119494630Y-72678555D01*
X119450476Y-72671187D01*
X119272569Y-72641500D01*
X119047431Y-72641500D01*
X118899211Y-72666233D01*
X118825369Y-72678555D01*
X118825360Y-72678557D01*
X118612428Y-72751656D01*
X118612426Y-72751658D01*
X118414426Y-72858810D01*
X118414424Y-72858811D01*
X118236762Y-72997091D01*
X118084279Y-73162729D01*
X117995483Y-73298643D01*
X117941479Y-73344731D01*
X117871131Y-73354306D01*
X117806774Y-73324329D01*
X117784517Y-73298643D01*
X117695720Y-73162729D01*
X117564944Y-73020671D01*
X117543240Y-72997094D01*
X117543239Y-72997093D01*
X117543237Y-72997091D01*
X117423367Y-72903792D01*
X117365576Y-72858811D01*
X117167574Y-72751658D01*
X117167572Y-72751657D01*
X117167571Y-72751656D01*
X116954639Y-72678557D01*
X116954630Y-72678555D01*
X116910476Y-72671187D01*
X116732569Y-72641500D01*
X116507431Y-72641500D01*
X116359211Y-72666233D01*
X116285369Y-72678555D01*
X116285360Y-72678557D01*
X116072428Y-72751656D01*
X116072426Y-72751658D01*
X115874426Y-72858810D01*
X115874424Y-72858811D01*
X115696762Y-72997091D01*
X115544279Y-73162729D01*
X115455483Y-73298643D01*
X115401479Y-73344731D01*
X115331131Y-73354306D01*
X115266774Y-73324329D01*
X115244517Y-73298643D01*
X115155720Y-73162729D01*
X115024944Y-73020671D01*
X115003240Y-72997094D01*
X115003239Y-72997093D01*
X115003237Y-72997091D01*
X114883367Y-72903792D01*
X114825576Y-72858811D01*
X114627574Y-72751658D01*
X114627572Y-72751657D01*
X114627571Y-72751656D01*
X114414639Y-72678557D01*
X114414630Y-72678555D01*
X114370476Y-72671187D01*
X114192569Y-72641500D01*
X113967431Y-72641500D01*
X113819211Y-72666233D01*
X113745369Y-72678555D01*
X113745360Y-72678557D01*
X113532428Y-72751656D01*
X113532426Y-72751658D01*
X113334426Y-72858810D01*
X113334424Y-72858811D01*
X113156762Y-72997091D01*
X113004279Y-73162729D01*
X112915483Y-73298643D01*
X112861479Y-73344731D01*
X112791131Y-73354306D01*
X112726774Y-73324329D01*
X112704517Y-73298643D01*
X112615720Y-73162729D01*
X112484944Y-73020671D01*
X112463240Y-72997094D01*
X112463239Y-72997093D01*
X112463237Y-72997091D01*
X112343367Y-72903792D01*
X112285576Y-72858811D01*
X112087574Y-72751658D01*
X112087572Y-72751657D01*
X112087571Y-72751656D01*
X111874639Y-72678557D01*
X111874630Y-72678555D01*
X111830476Y-72671187D01*
X111652569Y-72641500D01*
X111427431Y-72641500D01*
X111279211Y-72666233D01*
X111205369Y-72678555D01*
X111205360Y-72678557D01*
X110992428Y-72751656D01*
X110992426Y-72751658D01*
X110794426Y-72858810D01*
X110794424Y-72858811D01*
X110616762Y-72997091D01*
X110555754Y-73063363D01*
X110494901Y-73099933D01*
X110423936Y-73097798D01*
X110365391Y-73057636D01*
X110344999Y-73022057D01*
X110300889Y-72903797D01*
X110300887Y-72903792D01*
X110213261Y-72786738D01*
X110096207Y-72699112D01*
X110096202Y-72699110D01*
X109959204Y-72648011D01*
X109959196Y-72648009D01*
X109898649Y-72641500D01*
X109898638Y-72641500D01*
X108101362Y-72641500D01*
X108101350Y-72641500D01*
X108040803Y-72648009D01*
X108040795Y-72648011D01*
X107903797Y-72699110D01*
X107903792Y-72699112D01*
X107786738Y-72786738D01*
X107699112Y-72903792D01*
X107699110Y-72903797D01*
X107648011Y-73040795D01*
X107648009Y-73040803D01*
X107641500Y-73101350D01*
X106714814Y-73101350D01*
X106690663Y-73020679D01*
X106558778Y-72714934D01*
X106392289Y-72426567D01*
X106193449Y-72159478D01*
X105964946Y-71917279D01*
X105964944Y-71917278D01*
X105964942Y-71917275D01*
X105709865Y-71703241D01*
X105431679Y-71520275D01*
X105431675Y-71520273D01*
X105431672Y-71520271D01*
X105134113Y-71370831D01*
X105134108Y-71370829D01*
X105134103Y-71370827D01*
X104821224Y-71256948D01*
X104821217Y-71256946D01*
X104821216Y-71256946D01*
X104639258Y-71213821D01*
X104497219Y-71180158D01*
X104497209Y-71180156D01*
X104166492Y-71141500D01*
X104166489Y-71141500D01*
X103833511Y-71141500D01*
X103833508Y-71141500D01*
X103502790Y-71180156D01*
X103502780Y-71180158D01*
X103178784Y-71256946D01*
X103178775Y-71256948D01*
X102865896Y-71370827D01*
X102865891Y-71370829D01*
X102568320Y-71520275D01*
X102290134Y-71703241D01*
X102035057Y-71917275D01*
X101806552Y-72159476D01*
X101607714Y-72426562D01*
X101607704Y-72426578D01*
X101441223Y-72714931D01*
X101441220Y-72714936D01*
X101309340Y-73020671D01*
X101309337Y-73020679D01*
X101286249Y-73097798D01*
X101213838Y-73339666D01*
X101156016Y-73667590D01*
X101156016Y-73667596D01*
X101136656Y-74000000D01*
X100284000Y-74000000D01*
X100284000Y-71817780D01*
X100297733Y-71760578D01*
X100339292Y-71679011D01*
X100421014Y-71518623D01*
X100427596Y-71507222D01*
X100589994Y-71257151D01*
X100597725Y-71246512D01*
X100785369Y-71014790D01*
X100794175Y-71005011D01*
X101005011Y-70794175D01*
X101014790Y-70785369D01*
X101246512Y-70597725D01*
X101257151Y-70589994D01*
X101507222Y-70427596D01*
X101518623Y-70421014D01*
X101784280Y-70285655D01*
X101796328Y-70280292D01*
X102074663Y-70173449D01*
X102087200Y-70169374D01*
X102328224Y-70104792D01*
X102360835Y-70100500D01*
X166639165Y-70100500D01*
X166671776Y-70104793D01*
G37*
G04 #@! TD.AperFunction*
M02*
