G04 #@! TF.GenerationSoftware,KiCad,Pcbnew,5.1.10-88a1d61d58~90~ubuntu21.04.1*
G04 #@! TF.CreationDate,2021-09-03T15:04:53+02:00*
G04 #@! TF.ProjectId,STM32F030K6T6TR_Devel,53544d33-3246-4303-9330-4b3654365452,0.0.2*
G04 #@! TF.SameCoordinates,Original*
G04 #@! TF.FileFunction,Legend,Top*
G04 #@! TF.FilePolarity,Positive*
%FSLAX46Y46*%
G04 Gerber Fmt 4.6, Leading zero omitted, Abs format (unit mm)*
G04 Created by KiCad (PCBNEW 5.1.10-88a1d61d58~90~ubuntu21.04.1) date 2021-09-03 15:04:53*
%MOMM*%
%LPD*%
G01*
G04 APERTURE LIST*
%ADD10C,0.150000*%
%ADD11C,0.200000*%
%ADD12C,0.120000*%
%ADD13O,1.800000X1.800000*%
%ADD14C,2.800000*%
%ADD15C,2.100000*%
G04 APERTURE END LIST*
D10*
X134952380Y-113592976D02*
X134476190Y-113926309D01*
X134952380Y-114164404D02*
X133952380Y-114164404D01*
X133952380Y-113783452D01*
X134000000Y-113688214D01*
X134047619Y-113640595D01*
X134142857Y-113592976D01*
X134285714Y-113592976D01*
X134380952Y-113640595D01*
X134428571Y-113688214D01*
X134476190Y-113783452D01*
X134476190Y-114164404D01*
X134952380Y-113259642D02*
X134285714Y-112735833D01*
X134285714Y-113259642D02*
X134952380Y-112735833D01*
X131452380Y-114307261D02*
X131452380Y-113735833D01*
X132452380Y-114021547D02*
X131452380Y-114021547D01*
X132452380Y-113497738D02*
X131785714Y-112973928D01*
X131785714Y-113497738D02*
X132452380Y-112973928D01*
X154988095Y-71000000D02*
X154892857Y-70952380D01*
X154750000Y-70952380D01*
X154607142Y-71000000D01*
X154511904Y-71095238D01*
X154464285Y-71190476D01*
X154416666Y-71380952D01*
X154416666Y-71523809D01*
X154464285Y-71714285D01*
X154511904Y-71809523D01*
X154607142Y-71904761D01*
X154750000Y-71952380D01*
X154845238Y-71952380D01*
X154988095Y-71904761D01*
X155035714Y-71857142D01*
X155035714Y-71523809D01*
X154845238Y-71523809D01*
X155464285Y-71952380D02*
X155464285Y-70952380D01*
X156035714Y-71952380D01*
X156035714Y-70952380D01*
X156511904Y-71952380D02*
X156511904Y-70952380D01*
X156750000Y-70952380D01*
X156892857Y-71000000D01*
X156988095Y-71095238D01*
X157035714Y-71190476D01*
X157083333Y-71380952D01*
X157083333Y-71523809D01*
X157035714Y-71714285D01*
X156988095Y-71809523D01*
X156892857Y-71904761D01*
X156750000Y-71952380D01*
X156511904Y-71952380D01*
X150309523Y-70952380D02*
X149833333Y-70952380D01*
X149785714Y-71428571D01*
X149833333Y-71380952D01*
X149928571Y-71333333D01*
X150166666Y-71333333D01*
X150261904Y-71380952D01*
X150309523Y-71428571D01*
X150357142Y-71523809D01*
X150357142Y-71761904D01*
X150309523Y-71857142D01*
X150261904Y-71904761D01*
X150166666Y-71952380D01*
X149928571Y-71952380D01*
X149833333Y-71904761D01*
X149785714Y-71857142D01*
X150642857Y-70952380D02*
X150976190Y-71952380D01*
X151309523Y-70952380D01*
X144809523Y-70952380D02*
X145380952Y-70952380D01*
X145095238Y-71952380D02*
X145095238Y-70952380D01*
X145619047Y-71952380D02*
X146142857Y-71285714D01*
X145619047Y-71285714D02*
X146142857Y-71952380D01*
X147904761Y-71952380D02*
X147571428Y-71476190D01*
X147333333Y-71952380D02*
X147333333Y-70952380D01*
X147714285Y-70952380D01*
X147809523Y-71000000D01*
X147857142Y-71047619D01*
X147904761Y-71142857D01*
X147904761Y-71285714D01*
X147857142Y-71380952D01*
X147809523Y-71428571D01*
X147714285Y-71476190D01*
X147333333Y-71476190D01*
X148238095Y-71952380D02*
X148761904Y-71285714D01*
X148238095Y-71285714D02*
X148761904Y-71952380D01*
D11*
X152793928Y-79049057D02*
X152222500Y-79049057D01*
X152165357Y-79620485D01*
X152222500Y-79563342D01*
X152336785Y-79506200D01*
X152622500Y-79506200D01*
X152736785Y-79563342D01*
X152793928Y-79620485D01*
X152851071Y-79734771D01*
X152851071Y-80020485D01*
X152793928Y-80134771D01*
X152736785Y-80191914D01*
X152622500Y-80249057D01*
X152336785Y-80249057D01*
X152222500Y-80191914D01*
X152165357Y-80134771D01*
X153193928Y-79049057D02*
X153593928Y-80249057D01*
X153993928Y-79049057D01*
X152108214Y-81106200D02*
X151993928Y-81049057D01*
X151822500Y-81049057D01*
X151651071Y-81106200D01*
X151536785Y-81220485D01*
X151479642Y-81334771D01*
X151422500Y-81563342D01*
X151422500Y-81734771D01*
X151479642Y-81963342D01*
X151536785Y-82077628D01*
X151651071Y-82191914D01*
X151822500Y-82249057D01*
X151936785Y-82249057D01*
X152108214Y-82191914D01*
X152165357Y-82134771D01*
X152165357Y-81734771D01*
X151936785Y-81734771D01*
X152679642Y-82249057D02*
X152679642Y-81049057D01*
X153365357Y-82249057D01*
X153365357Y-81049057D01*
X153936785Y-82249057D02*
X153936785Y-81049057D01*
X154222500Y-81049057D01*
X154393928Y-81106200D01*
X154508214Y-81220485D01*
X154565357Y-81334771D01*
X154622500Y-81563342D01*
X154622500Y-81734771D01*
X154565357Y-81963342D01*
X154508214Y-82077628D01*
X154393928Y-82191914D01*
X154222500Y-82249057D01*
X153936785Y-82249057D01*
X112890614Y-95286000D02*
X112776328Y-95228857D01*
X112604900Y-95228857D01*
X112433471Y-95286000D01*
X112319185Y-95400285D01*
X112262042Y-95514571D01*
X112204900Y-95743142D01*
X112204900Y-95914571D01*
X112262042Y-96143142D01*
X112319185Y-96257428D01*
X112433471Y-96371714D01*
X112604900Y-96428857D01*
X112719185Y-96428857D01*
X112890614Y-96371714D01*
X112947757Y-96314571D01*
X112947757Y-95914571D01*
X112719185Y-95914571D01*
X113462042Y-96428857D02*
X113462042Y-95228857D01*
X114147757Y-96428857D01*
X114147757Y-95228857D01*
X114719185Y-96428857D02*
X114719185Y-95228857D01*
X115004900Y-95228857D01*
X115176328Y-95286000D01*
X115290614Y-95400285D01*
X115347757Y-95514571D01*
X115404900Y-95743142D01*
X115404900Y-95914571D01*
X115347757Y-96143142D01*
X115290614Y-96257428D01*
X115176328Y-96371714D01*
X115004900Y-96428857D01*
X114719185Y-96428857D01*
X112033471Y-97228857D02*
X112776328Y-97228857D01*
X112376328Y-97686000D01*
X112547757Y-97686000D01*
X112662042Y-97743142D01*
X112719185Y-97800285D01*
X112776328Y-97914571D01*
X112776328Y-98200285D01*
X112719185Y-98314571D01*
X112662042Y-98371714D01*
X112547757Y-98428857D01*
X112204900Y-98428857D01*
X112090614Y-98371714D01*
X112033471Y-98314571D01*
X113290614Y-98314571D02*
X113347757Y-98371714D01*
X113290614Y-98428857D01*
X113233471Y-98371714D01*
X113290614Y-98314571D01*
X113290614Y-98428857D01*
X113747757Y-97228857D02*
X114490614Y-97228857D01*
X114090614Y-97686000D01*
X114262042Y-97686000D01*
X114376328Y-97743142D01*
X114433471Y-97800285D01*
X114490614Y-97914571D01*
X114490614Y-98200285D01*
X114433471Y-98314571D01*
X114376328Y-98371714D01*
X114262042Y-98428857D01*
X113919185Y-98428857D01*
X113804900Y-98371714D01*
X113747757Y-98314571D01*
X114833471Y-97228857D02*
X115233471Y-98428857D01*
X115633471Y-97228857D01*
D10*
X143594428Y-96051000D02*
X143594428Y-95289095D01*
X142975380Y-94908142D02*
X142975380Y-94289095D01*
X143356333Y-94622428D01*
X143356333Y-94479571D01*
X143403952Y-94384333D01*
X143451571Y-94336714D01*
X143546809Y-94289095D01*
X143784904Y-94289095D01*
X143880142Y-94336714D01*
X143927761Y-94384333D01*
X143975380Y-94479571D01*
X143975380Y-94765285D01*
X143927761Y-94860523D01*
X143880142Y-94908142D01*
X143880142Y-93860523D02*
X143927761Y-93812904D01*
X143975380Y-93860523D01*
X143927761Y-93908142D01*
X143880142Y-93860523D01*
X143975380Y-93860523D01*
X142975380Y-93479571D02*
X142975380Y-92860523D01*
X143356333Y-93193857D01*
X143356333Y-93051000D01*
X143403952Y-92955761D01*
X143451571Y-92908142D01*
X143546809Y-92860523D01*
X143784904Y-92860523D01*
X143880142Y-92908142D01*
X143927761Y-92955761D01*
X143975380Y-93051000D01*
X143975380Y-93336714D01*
X143927761Y-93431952D01*
X143880142Y-93479571D01*
X142975380Y-92574809D02*
X143975380Y-92241476D01*
X142975380Y-91908142D01*
X137371428Y-96098714D02*
X137371428Y-95336809D01*
X136752380Y-94384428D02*
X136752380Y-94860619D01*
X137228571Y-94908238D01*
X137180952Y-94860619D01*
X137133333Y-94765380D01*
X137133333Y-94527285D01*
X137180952Y-94432047D01*
X137228571Y-94384428D01*
X137323809Y-94336809D01*
X137561904Y-94336809D01*
X137657142Y-94384428D01*
X137704761Y-94432047D01*
X137752380Y-94527285D01*
X137752380Y-94765380D01*
X137704761Y-94860619D01*
X137657142Y-94908238D01*
X136752380Y-94051095D02*
X137752380Y-93717761D01*
X136752380Y-93384428D01*
X122068380Y-71738666D02*
X122068380Y-72214857D01*
X121068380Y-72214857D01*
X122068380Y-70881523D02*
X122068380Y-71452952D01*
X122068380Y-71167238D02*
X121068380Y-71167238D01*
X121211238Y-71262476D01*
X121306476Y-71357714D01*
X121354095Y-71452952D01*
X126362857Y-77231428D02*
X127124761Y-77231428D01*
X127600952Y-77612380D02*
X127600952Y-76612380D01*
X127981904Y-76612380D01*
X128077142Y-76660000D01*
X128124761Y-76707619D01*
X128172380Y-76802857D01*
X128172380Y-76945714D01*
X128124761Y-77040952D01*
X128077142Y-77088571D01*
X127981904Y-77136190D01*
X127600952Y-77136190D01*
X128934285Y-77088571D02*
X129077142Y-77136190D01*
X129124761Y-77183809D01*
X129172380Y-77279047D01*
X129172380Y-77421904D01*
X129124761Y-77517142D01*
X129077142Y-77564761D01*
X128981904Y-77612380D01*
X128600952Y-77612380D01*
X128600952Y-76612380D01*
X128934285Y-76612380D01*
X129029523Y-76660000D01*
X129077142Y-76707619D01*
X129124761Y-76802857D01*
X129124761Y-76898095D01*
X129077142Y-76993333D01*
X129029523Y-77040952D01*
X128934285Y-77088571D01*
X128600952Y-77088571D01*
X130077142Y-76612380D02*
X129600952Y-76612380D01*
X129553333Y-77088571D01*
X129600952Y-77040952D01*
X129696190Y-76993333D01*
X129934285Y-76993333D01*
X130029523Y-77040952D01*
X130077142Y-77088571D01*
X130124761Y-77183809D01*
X130124761Y-77421904D01*
X130077142Y-77517142D01*
X130029523Y-77564761D01*
X129934285Y-77612380D01*
X129696190Y-77612380D01*
X129600952Y-77564761D01*
X129553333Y-77517142D01*
X116242380Y-72381523D02*
X116242380Y-71810095D01*
X117242380Y-72095809D02*
X116242380Y-72095809D01*
X116242380Y-71286285D02*
X116242380Y-71095809D01*
X116290000Y-71000571D01*
X116385238Y-70905333D01*
X116575714Y-70857714D01*
X116909047Y-70857714D01*
X117099523Y-70905333D01*
X117194761Y-71000571D01*
X117242380Y-71095809D01*
X117242380Y-71286285D01*
X117194761Y-71381523D01*
X117099523Y-71476761D01*
X116909047Y-71524380D01*
X116575714Y-71524380D01*
X116385238Y-71476761D01*
X116290000Y-71381523D01*
X116242380Y-71286285D01*
X144952380Y-114164404D02*
X143952380Y-114164404D01*
X143952380Y-113926309D01*
X144000000Y-113783452D01*
X144095238Y-113688214D01*
X144190476Y-113640595D01*
X144380952Y-113592976D01*
X144523809Y-113592976D01*
X144714285Y-113640595D01*
X144809523Y-113688214D01*
X144904761Y-113783452D01*
X144952380Y-113926309D01*
X144952380Y-114164404D01*
X144857142Y-112592976D02*
X144904761Y-112640595D01*
X144952380Y-112783452D01*
X144952380Y-112878690D01*
X144904761Y-113021547D01*
X144809523Y-113116785D01*
X144714285Y-113164404D01*
X144523809Y-113212023D01*
X144380952Y-113212023D01*
X144190476Y-113164404D01*
X144095238Y-113116785D01*
X144000000Y-113021547D01*
X143952380Y-112878690D01*
X143952380Y-112783452D01*
X144000000Y-112640595D01*
X144047619Y-112592976D01*
X144952380Y-111688214D02*
X144952380Y-112164404D01*
X143952380Y-112164404D01*
X144952380Y-111354880D02*
X143952380Y-111354880D01*
X144952380Y-110783452D02*
X144380952Y-111212023D01*
X143952380Y-110783452D02*
X144523809Y-111354880D01*
X142452380Y-114164404D02*
X141452380Y-114164404D01*
X141452380Y-113926309D01*
X141500000Y-113783452D01*
X141595238Y-113688214D01*
X141690476Y-113640595D01*
X141880952Y-113592976D01*
X142023809Y-113592976D01*
X142214285Y-113640595D01*
X142309523Y-113688214D01*
X142404761Y-113783452D01*
X142452380Y-113926309D01*
X142452380Y-114164404D01*
X142452380Y-113164404D02*
X141452380Y-113164404D01*
X141452380Y-112497738D02*
X141452380Y-112307261D01*
X141500000Y-112212023D01*
X141595238Y-112116785D01*
X141785714Y-112069166D01*
X142119047Y-112069166D01*
X142309523Y-112116785D01*
X142404761Y-112212023D01*
X142452380Y-112307261D01*
X142452380Y-112497738D01*
X142404761Y-112592976D01*
X142309523Y-112688214D01*
X142119047Y-112735833D01*
X141785714Y-112735833D01*
X141595238Y-112688214D01*
X141500000Y-112592976D01*
X141452380Y-112497738D01*
X109463619Y-71524380D02*
X109463619Y-71619619D01*
X109416000Y-71714857D01*
X109368380Y-71762476D01*
X109273142Y-71810095D01*
X109082666Y-71857714D01*
X108844571Y-71857714D01*
X108654095Y-71810095D01*
X108558857Y-71762476D01*
X108511238Y-71714857D01*
X108463619Y-71619619D01*
X108463619Y-71524380D01*
X108511238Y-71429142D01*
X108558857Y-71381523D01*
X108654095Y-71333904D01*
X108844571Y-71286285D01*
X109082666Y-71286285D01*
X109273142Y-71333904D01*
X109368380Y-71381523D01*
X109416000Y-71429142D01*
X109463619Y-71524380D01*
X146563619Y-118117523D02*
X146563619Y-117546095D01*
X146563619Y-117831809D02*
X147563619Y-117831809D01*
X147420761Y-117736571D01*
X147325523Y-117641333D01*
X147277904Y-117546095D01*
X147563619Y-119022285D02*
X147563619Y-118546095D01*
X147087428Y-118498476D01*
X147135047Y-118546095D01*
X147182666Y-118641333D01*
X147182666Y-118879428D01*
X147135047Y-118974666D01*
X147087428Y-119022285D01*
X146992190Y-119069904D01*
X146754095Y-119069904D01*
X146658857Y-119022285D01*
X146611238Y-118974666D01*
X146563619Y-118879428D01*
X146563619Y-118641333D01*
X146611238Y-118546095D01*
X146658857Y-118498476D01*
X109463619Y-118387380D02*
X109463619Y-118482619D01*
X109416000Y-118577857D01*
X109368380Y-118625476D01*
X109273142Y-118673095D01*
X109082666Y-118720714D01*
X108844571Y-118720714D01*
X108654095Y-118673095D01*
X108558857Y-118625476D01*
X108511238Y-118577857D01*
X108463619Y-118482619D01*
X108463619Y-118387380D01*
X108511238Y-118292142D01*
X108558857Y-118244523D01*
X108654095Y-118196904D01*
X108844571Y-118149285D01*
X109082666Y-118149285D01*
X109273142Y-118196904D01*
X109368380Y-118244523D01*
X109416000Y-118292142D01*
X109463619Y-118387380D01*
X110833333Y-75952380D02*
X110928571Y-75952380D01*
X111023809Y-76000000D01*
X111071428Y-76047619D01*
X111119047Y-76142857D01*
X111166666Y-76333333D01*
X111166666Y-76571428D01*
X111119047Y-76761904D01*
X111071428Y-76857142D01*
X111023809Y-76904761D01*
X110928571Y-76952380D01*
X110833333Y-76952380D01*
X110738095Y-76904761D01*
X110690476Y-76857142D01*
X110642857Y-76761904D01*
X110595238Y-76571428D01*
X110595238Y-76333333D01*
X110642857Y-76142857D01*
X110690476Y-76047619D01*
X110738095Y-76000000D01*
X110833333Y-75952380D01*
X113119047Y-76571428D02*
X113880952Y-76571428D01*
X116404761Y-76952380D02*
X115833333Y-76952380D01*
X116119047Y-76952380D02*
X116119047Y-75952380D01*
X116023809Y-76095238D01*
X115928571Y-76190476D01*
X115833333Y-76238095D01*
X101986209Y-79962171D02*
X102129066Y-80009790D01*
X102176685Y-80057409D01*
X102224304Y-80152647D01*
X102224304Y-80295504D01*
X102176685Y-80390742D01*
X102129066Y-80438361D01*
X102033828Y-80485980D01*
X101652876Y-80485980D01*
X101652876Y-79485980D01*
X101986209Y-79485980D01*
X102081447Y-79533600D01*
X102129066Y-79581219D01*
X102176685Y-79676457D01*
X102176685Y-79771695D01*
X102129066Y-79866933D01*
X102081447Y-79914552D01*
X101986209Y-79962171D01*
X101652876Y-79962171D01*
X102795733Y-80485980D02*
X102700495Y-80438361D01*
X102652876Y-80390742D01*
X102605257Y-80295504D01*
X102605257Y-80009790D01*
X102652876Y-79914552D01*
X102700495Y-79866933D01*
X102795733Y-79819314D01*
X102938590Y-79819314D01*
X103033828Y-79866933D01*
X103081447Y-79914552D01*
X103129066Y-80009790D01*
X103129066Y-80295504D01*
X103081447Y-80390742D01*
X103033828Y-80438361D01*
X102938590Y-80485980D01*
X102795733Y-80485980D01*
X103700495Y-80485980D02*
X103605257Y-80438361D01*
X103557638Y-80390742D01*
X103510019Y-80295504D01*
X103510019Y-80009790D01*
X103557638Y-79914552D01*
X103605257Y-79866933D01*
X103700495Y-79819314D01*
X103843352Y-79819314D01*
X103938590Y-79866933D01*
X103986209Y-79914552D01*
X104033828Y-80009790D01*
X104033828Y-80295504D01*
X103986209Y-80390742D01*
X103938590Y-80438361D01*
X103843352Y-80485980D01*
X103700495Y-80485980D01*
X104319542Y-79819314D02*
X104700495Y-79819314D01*
X104462400Y-79485980D02*
X104462400Y-80343123D01*
X104510019Y-80438361D01*
X104605257Y-80485980D01*
X104700495Y-80485980D01*
X105986209Y-79485980D02*
X106081447Y-79485980D01*
X106176685Y-79533600D01*
X106224304Y-79581219D01*
X106271923Y-79676457D01*
X106319542Y-79866933D01*
X106319542Y-80105028D01*
X106271923Y-80295504D01*
X106224304Y-80390742D01*
X106176685Y-80438361D01*
X106081447Y-80485980D01*
X105986209Y-80485980D01*
X105890971Y-80438361D01*
X105843352Y-80390742D01*
X105795733Y-80295504D01*
X105748114Y-80105028D01*
X105748114Y-79866933D01*
X105795733Y-79676457D01*
X105843352Y-79581219D01*
X105890971Y-79533600D01*
X105986209Y-79485980D01*
X101986209Y-81612171D02*
X102129066Y-81659790D01*
X102176685Y-81707409D01*
X102224304Y-81802647D01*
X102224304Y-81945504D01*
X102176685Y-82040742D01*
X102129066Y-82088361D01*
X102033828Y-82135980D01*
X101652876Y-82135980D01*
X101652876Y-81135980D01*
X101986209Y-81135980D01*
X102081447Y-81183600D01*
X102129066Y-81231219D01*
X102176685Y-81326457D01*
X102176685Y-81421695D01*
X102129066Y-81516933D01*
X102081447Y-81564552D01*
X101986209Y-81612171D01*
X101652876Y-81612171D01*
X102795733Y-82135980D02*
X102700495Y-82088361D01*
X102652876Y-82040742D01*
X102605257Y-81945504D01*
X102605257Y-81659790D01*
X102652876Y-81564552D01*
X102700495Y-81516933D01*
X102795733Y-81469314D01*
X102938590Y-81469314D01*
X103033828Y-81516933D01*
X103081447Y-81564552D01*
X103129066Y-81659790D01*
X103129066Y-81945504D01*
X103081447Y-82040742D01*
X103033828Y-82088361D01*
X102938590Y-82135980D01*
X102795733Y-82135980D01*
X103700495Y-82135980D02*
X103605257Y-82088361D01*
X103557638Y-82040742D01*
X103510019Y-81945504D01*
X103510019Y-81659790D01*
X103557638Y-81564552D01*
X103605257Y-81516933D01*
X103700495Y-81469314D01*
X103843352Y-81469314D01*
X103938590Y-81516933D01*
X103986209Y-81564552D01*
X104033828Y-81659790D01*
X104033828Y-81945504D01*
X103986209Y-82040742D01*
X103938590Y-82088361D01*
X103843352Y-82135980D01*
X103700495Y-82135980D01*
X104319542Y-81469314D02*
X104700495Y-81469314D01*
X104462400Y-81135980D02*
X104462400Y-81993123D01*
X104510019Y-82088361D01*
X104605257Y-82135980D01*
X104700495Y-82135980D01*
X106319542Y-82135980D02*
X105748114Y-82135980D01*
X106033828Y-82135980D02*
X106033828Y-81135980D01*
X105938590Y-81278838D01*
X105843352Y-81374076D01*
X105748114Y-81421695D01*
X159396380Y-105974380D02*
X159063047Y-105498190D01*
X158824952Y-105974380D02*
X158824952Y-104974380D01*
X159205904Y-104974380D01*
X159301142Y-105022000D01*
X159348761Y-105069619D01*
X159396380Y-105164857D01*
X159396380Y-105307714D01*
X159348761Y-105402952D01*
X159301142Y-105450571D01*
X159205904Y-105498190D01*
X158824952Y-105498190D01*
X159777333Y-105926761D02*
X159920190Y-105974380D01*
X160158285Y-105974380D01*
X160253523Y-105926761D01*
X160301142Y-105879142D01*
X160348761Y-105783904D01*
X160348761Y-105688666D01*
X160301142Y-105593428D01*
X160253523Y-105545809D01*
X160158285Y-105498190D01*
X159967809Y-105450571D01*
X159872571Y-105402952D01*
X159824952Y-105355333D01*
X159777333Y-105260095D01*
X159777333Y-105164857D01*
X159824952Y-105069619D01*
X159872571Y-105022000D01*
X159967809Y-104974380D01*
X160205904Y-104974380D01*
X160348761Y-105022000D01*
X160634476Y-104974380D02*
X161205904Y-104974380D01*
X160920190Y-105974380D02*
X160920190Y-104974380D01*
X158817047Y-108720761D02*
X158959904Y-108768380D01*
X159198000Y-108768380D01*
X159293238Y-108720761D01*
X159340857Y-108673142D01*
X159388476Y-108577904D01*
X159388476Y-108482666D01*
X159340857Y-108387428D01*
X159293238Y-108339809D01*
X159198000Y-108292190D01*
X159007523Y-108244571D01*
X158912285Y-108196952D01*
X158864666Y-108149333D01*
X158817047Y-108054095D01*
X158817047Y-107958857D01*
X158864666Y-107863619D01*
X158912285Y-107816000D01*
X159007523Y-107768380D01*
X159245619Y-107768380D01*
X159388476Y-107816000D01*
X159721809Y-107768380D02*
X159959904Y-108768380D01*
X160150380Y-108054095D01*
X160340857Y-108768380D01*
X160578952Y-107768380D01*
X161150380Y-107768380D02*
X161340857Y-107768380D01*
X161436095Y-107816000D01*
X161531333Y-107911238D01*
X161578952Y-108101714D01*
X161578952Y-108435047D01*
X161531333Y-108625523D01*
X161436095Y-108720761D01*
X161340857Y-108768380D01*
X161150380Y-108768380D01*
X161055142Y-108720761D01*
X160959904Y-108625523D01*
X160912285Y-108435047D01*
X160912285Y-108101714D01*
X160959904Y-107911238D01*
X161055142Y-107816000D01*
X161150380Y-107768380D01*
X156420095Y-98306761D02*
X156562952Y-98354380D01*
X156801047Y-98354380D01*
X156896285Y-98306761D01*
X156943904Y-98259142D01*
X156991523Y-98163904D01*
X156991523Y-98068666D01*
X156943904Y-97973428D01*
X156896285Y-97925809D01*
X156801047Y-97878190D01*
X156610571Y-97830571D01*
X156515333Y-97782952D01*
X156467714Y-97735333D01*
X156420095Y-97640095D01*
X156420095Y-97544857D01*
X156467714Y-97449619D01*
X156515333Y-97402000D01*
X156610571Y-97354380D01*
X156848666Y-97354380D01*
X156991523Y-97402000D01*
X157324857Y-97354380D02*
X157562952Y-98354380D01*
X157753428Y-97640095D01*
X157943904Y-98354380D01*
X158182000Y-97354380D01*
X158562952Y-98354380D02*
X158562952Y-97354380D01*
X158801047Y-97354380D01*
X158943904Y-97402000D01*
X159039142Y-97497238D01*
X159086761Y-97592476D01*
X159134380Y-97782952D01*
X159134380Y-97925809D01*
X159086761Y-98116285D01*
X159039142Y-98211523D01*
X158943904Y-98306761D01*
X158801047Y-98354380D01*
X158562952Y-98354380D01*
X160134380Y-98259142D02*
X160086761Y-98306761D01*
X159943904Y-98354380D01*
X159848666Y-98354380D01*
X159705809Y-98306761D01*
X159610571Y-98211523D01*
X159562952Y-98116285D01*
X159515333Y-97925809D01*
X159515333Y-97782952D01*
X159562952Y-97592476D01*
X159610571Y-97497238D01*
X159705809Y-97402000D01*
X159848666Y-97354380D01*
X159943904Y-97354380D01*
X160086761Y-97402000D01*
X160134380Y-97449619D01*
X161039142Y-98354380D02*
X160562952Y-98354380D01*
X160562952Y-97354380D01*
X161372476Y-98354380D02*
X161372476Y-97354380D01*
X161943904Y-98354380D02*
X161515333Y-97782952D01*
X161943904Y-97354380D02*
X161372476Y-97925809D01*
X157570952Y-103386761D02*
X157713809Y-103434380D01*
X157951904Y-103434380D01*
X158047142Y-103386761D01*
X158094761Y-103339142D01*
X158142380Y-103243904D01*
X158142380Y-103148666D01*
X158094761Y-103053428D01*
X158047142Y-103005809D01*
X157951904Y-102958190D01*
X157761428Y-102910571D01*
X157666190Y-102862952D01*
X157618571Y-102815333D01*
X157570952Y-102720095D01*
X157570952Y-102624857D01*
X157618571Y-102529619D01*
X157666190Y-102482000D01*
X157761428Y-102434380D01*
X157999523Y-102434380D01*
X158142380Y-102482000D01*
X158475714Y-102434380D02*
X158713809Y-103434380D01*
X158904285Y-102720095D01*
X159094761Y-103434380D01*
X159332857Y-102434380D01*
X159713809Y-103434380D02*
X159713809Y-102434380D01*
X159951904Y-102434380D01*
X160094761Y-102482000D01*
X160190000Y-102577238D01*
X160237619Y-102672476D01*
X160285238Y-102862952D01*
X160285238Y-103005809D01*
X160237619Y-103196285D01*
X160190000Y-103291523D01*
X160094761Y-103386761D01*
X159951904Y-103434380D01*
X159713809Y-103434380D01*
X160713809Y-103434380D02*
X160713809Y-102434380D01*
X161380476Y-102434380D02*
X161570952Y-102434380D01*
X161666190Y-102482000D01*
X161761428Y-102577238D01*
X161809047Y-102767714D01*
X161809047Y-103101047D01*
X161761428Y-103291523D01*
X161666190Y-103386761D01*
X161570952Y-103434380D01*
X161380476Y-103434380D01*
X161285238Y-103386761D01*
X161190000Y-103291523D01*
X161142380Y-103101047D01*
X161142380Y-102767714D01*
X161190000Y-102577238D01*
X161285238Y-102482000D01*
X161380476Y-102434380D01*
X127275523Y-118760380D02*
X127275523Y-117760380D01*
X127656476Y-117760380D01*
X127751714Y-117808000D01*
X127799333Y-117855619D01*
X127846952Y-117950857D01*
X127846952Y-118093714D01*
X127799333Y-118188952D01*
X127751714Y-118236571D01*
X127656476Y-118284190D01*
X127275523Y-118284190D01*
X128227904Y-118474666D02*
X128704095Y-118474666D01*
X128132666Y-118760380D02*
X128466000Y-117760380D01*
X128799333Y-118760380D01*
X127204095Y-71770380D02*
X127204095Y-70770380D01*
X127585047Y-70770380D01*
X127680285Y-70818000D01*
X127727904Y-70865619D01*
X127775523Y-70960857D01*
X127775523Y-71103714D01*
X127727904Y-71198952D01*
X127680285Y-71246571D01*
X127585047Y-71294190D01*
X127204095Y-71294190D01*
X128537428Y-71246571D02*
X128680285Y-71294190D01*
X128727904Y-71341809D01*
X128775523Y-71437047D01*
X128775523Y-71579904D01*
X128727904Y-71675142D01*
X128680285Y-71722761D01*
X128585047Y-71770380D01*
X128204095Y-71770380D01*
X128204095Y-70770380D01*
X128537428Y-70770380D01*
X128632666Y-70818000D01*
X128680285Y-70865619D01*
X128727904Y-70960857D01*
X128727904Y-71056095D01*
X128680285Y-71151333D01*
X128632666Y-71198952D01*
X128537428Y-71246571D01*
X128204095Y-71246571D01*
D12*
X160293000Y-83810000D02*
X160293000Y-83745000D01*
X163823000Y-83810000D02*
X163823000Y-83745000D01*
X160293000Y-90215000D02*
X160293000Y-90150000D01*
X163823000Y-90215000D02*
X163823000Y-90150000D01*
X165148000Y-90150000D02*
X163823000Y-90150000D01*
X163823000Y-83745000D02*
X160293000Y-83745000D01*
X163823000Y-90215000D02*
X160293000Y-90215000D01*
X162424000Y-94032000D02*
X163754000Y-94032000D01*
X162424000Y-95362000D02*
X162424000Y-94032000D01*
X162424000Y-96632000D02*
X165084000Y-96632000D01*
X165084000Y-96632000D02*
X165084000Y-109392000D01*
X162424000Y-96632000D02*
X162424000Y-109392000D01*
X162424000Y-109392000D02*
X165084000Y-109392000D01*
X123042378Y-82180600D02*
X122525222Y-82180600D01*
X123042378Y-83600600D02*
X122525222Y-83600600D01*
X112604667Y-81442800D02*
X112604667Y-82712800D01*
X111398000Y-82642800D02*
X112604667Y-82642800D01*
X111398000Y-82522800D02*
X112604667Y-82522800D01*
X111398000Y-82402800D02*
X112604667Y-82402800D01*
X111398000Y-82282800D02*
X112604667Y-82282800D01*
X111398000Y-82162800D02*
X112604667Y-82162800D01*
X111398000Y-82042800D02*
X112604667Y-82042800D01*
X111398000Y-81922800D02*
X112604667Y-81922800D01*
X111398000Y-81802800D02*
X112604667Y-81802800D01*
X111398000Y-81682800D02*
X112604667Y-81682800D01*
X111398000Y-81562800D02*
X112604667Y-81562800D01*
X115018000Y-81442800D02*
X111398000Y-81442800D01*
X115018000Y-82712800D02*
X115018000Y-81442800D01*
X111398000Y-82712800D02*
X115018000Y-82712800D01*
X111398000Y-81442800D02*
X111398000Y-82712800D01*
X112604667Y-78902800D02*
X112604667Y-80172800D01*
X111398000Y-80102800D02*
X112604667Y-80102800D01*
X111398000Y-79982800D02*
X112604667Y-79982800D01*
X111398000Y-79862800D02*
X112604667Y-79862800D01*
X111398000Y-79742800D02*
X112604667Y-79742800D01*
X111398000Y-79622800D02*
X112604667Y-79622800D01*
X111398000Y-79502800D02*
X112604667Y-79502800D01*
X111398000Y-79382800D02*
X112604667Y-79382800D01*
X111398000Y-79262800D02*
X112604667Y-79262800D01*
X111398000Y-79142800D02*
X112604667Y-79142800D01*
X111398000Y-79022800D02*
X112604667Y-79022800D01*
X115018000Y-78902800D02*
X111398000Y-78902800D01*
X115018000Y-80172800D02*
X115018000Y-78902800D01*
X111398000Y-80172800D02*
X115018000Y-80172800D01*
X111398000Y-78902800D02*
X111398000Y-80172800D01*
X109558000Y-77187800D02*
X109558000Y-78570800D01*
X109558000Y-77187800D02*
X110941000Y-77187800D01*
X116618000Y-80337800D02*
X116618000Y-81277800D01*
X116618000Y-77427800D02*
X116618000Y-78737800D01*
X116618000Y-82877800D02*
X116618000Y-84187800D01*
X109798000Y-82877800D02*
X109798000Y-84187800D01*
X109798000Y-80337800D02*
X109798000Y-81277800D01*
X109798000Y-77427800D02*
X109798000Y-78737800D01*
X109798000Y-84187800D02*
X116618000Y-84187800D01*
X109798000Y-77427800D02*
X116618000Y-77427800D01*
X111007400Y-99232000D02*
X111007400Y-94032000D01*
X105867400Y-99232000D02*
X111007400Y-99232000D01*
X103267400Y-94032000D02*
X111007400Y-94032000D01*
X105867400Y-99232000D02*
X105867400Y-96632000D01*
X105867400Y-96632000D02*
X103267400Y-96632000D01*
X103267400Y-96632000D02*
X103267400Y-94032000D01*
X104597400Y-99232000D02*
X103267400Y-99232000D01*
X103267400Y-99232000D02*
X103267400Y-97902000D01*
X141621400Y-78106200D02*
X141621400Y-83306200D01*
X146761400Y-78106200D02*
X141621400Y-78106200D01*
X149361400Y-83306200D02*
X141621400Y-83306200D01*
X146761400Y-78106200D02*
X146761400Y-80706200D01*
X146761400Y-80706200D02*
X149361400Y-80706200D01*
X149361400Y-80706200D02*
X149361400Y-83306200D01*
X148031400Y-78106200D02*
X149361400Y-78106200D01*
X149361400Y-78106200D02*
X149361400Y-79436200D01*
X141608700Y-75330000D02*
X141608700Y-74000000D01*
X142938700Y-75330000D02*
X141608700Y-75330000D01*
X144208700Y-75330000D02*
X144208700Y-72670000D01*
X144208700Y-72670000D02*
X156968700Y-72670000D01*
X144208700Y-75330000D02*
X156968700Y-75330000D01*
X156968700Y-75330000D02*
X156968700Y-72670000D01*
X107790978Y-90806900D02*
X107273822Y-90806900D01*
X107790978Y-92226900D02*
X107273822Y-92226900D01*
X107728478Y-86806900D02*
X107211322Y-86806900D01*
X107728478Y-88226900D02*
X107211322Y-88226900D01*
X110669900Y-86466900D02*
X110669900Y-92216900D01*
X114269900Y-86466900D02*
X110669900Y-86466900D01*
X114269900Y-92216900D02*
X114269900Y-86466900D01*
X131310000Y-95610000D02*
X131610000Y-95610000D01*
X131610000Y-95610000D02*
X131610000Y-95310000D01*
X124690000Y-95610000D02*
X124390000Y-95610000D01*
X124390000Y-95610000D02*
X124390000Y-95310000D01*
X131310000Y-88390000D02*
X131610000Y-88390000D01*
X131610000Y-88390000D02*
X131610000Y-88690000D01*
X124690000Y-88390000D02*
X124390000Y-88390000D01*
X124390000Y-88390000D02*
X124390000Y-88690000D01*
X124390000Y-88690000D02*
X123075000Y-88690000D01*
X110270000Y-75330000D02*
X110270000Y-72670000D01*
X110270000Y-75330000D02*
X128110000Y-75330000D01*
X128110000Y-75330000D02*
X128110000Y-72670000D01*
X110270000Y-72670000D02*
X128110000Y-72670000D01*
X107670000Y-72670000D02*
X109000000Y-72670000D01*
X107670000Y-74000000D02*
X107670000Y-72670000D01*
X122594500Y-86111822D02*
X122594500Y-86628978D01*
X124014500Y-86111822D02*
X124014500Y-86628978D01*
X110270000Y-117330000D02*
X110270000Y-114670000D01*
X110270000Y-117330000D02*
X148430000Y-117330000D01*
X148430000Y-117330000D02*
X148430000Y-114670000D01*
X110270000Y-114670000D02*
X148430000Y-114670000D01*
X107670000Y-114670000D02*
X109000000Y-114670000D01*
X107670000Y-116000000D02*
X107670000Y-114670000D01*
X151410000Y-94900000D02*
X151410000Y-100910000D01*
X144590000Y-97150000D02*
X144590000Y-100910000D01*
X151410000Y-100910000D02*
X150150000Y-100910000D01*
X144590000Y-100910000D02*
X145850000Y-100910000D01*
X154000000Y-109250000D02*
X152500000Y-109250000D01*
X150000000Y-110500000D02*
X150000000Y-115000000D01*
X152500000Y-116250000D02*
X154000000Y-116250000D01*
X156500000Y-115000000D02*
X156500000Y-110500000D01*
X122373422Y-80156000D02*
X122890578Y-80156000D01*
X122373422Y-78736000D02*
X122890578Y-78736000D01*
X142710000Y-102196078D02*
X142710000Y-101678922D01*
X141290000Y-102196078D02*
X141290000Y-101678922D01*
X143290000Y-108803922D02*
X143290000Y-109321078D01*
X144710000Y-108803922D02*
X144710000Y-109321078D01*
X140162578Y-92452000D02*
X139645422Y-92452000D01*
X140162578Y-93872000D02*
X139645422Y-93872000D01*
X112476578Y-102866000D02*
X111959422Y-102866000D01*
X112476578Y-104286000D02*
X111959422Y-104286000D01*
X120868500Y-78120000D02*
X123553500Y-78120000D01*
X120868500Y-76200000D02*
X120868500Y-78120000D01*
X123553500Y-76200000D02*
X120868500Y-76200000D01*
X141040000Y-95377500D02*
X141040000Y-98062500D01*
X142960000Y-95377500D02*
X141040000Y-95377500D01*
X142960000Y-98062500D02*
X142960000Y-95377500D01*
X139960000Y-98685000D02*
X139960000Y-96000000D01*
X138040000Y-98685000D02*
X139960000Y-98685000D01*
X138040000Y-96000000D02*
X138040000Y-98685000D01*
X118008000Y-102564578D02*
X118008000Y-102047422D01*
X116588000Y-102564578D02*
X116588000Y-102047422D01*
X146690000Y-105935000D02*
X150600000Y-105935000D01*
X146690000Y-104065000D02*
X146690000Y-105935000D01*
X150600000Y-104065000D02*
X146690000Y-104065000D01*
X115884000Y-102559078D02*
X115884000Y-102041922D01*
X114464000Y-102559078D02*
X114464000Y-102041922D01*
X109372000Y-102496578D02*
X109372000Y-101979422D01*
X107952000Y-102496578D02*
X107952000Y-101979422D01*
X141710000Y-109258578D02*
X141710000Y-108741422D01*
X140290000Y-109258578D02*
X140290000Y-108741422D01*
X144690000Y-93935000D02*
X148600000Y-93935000D01*
X144690000Y-92065000D02*
X144690000Y-93935000D01*
X148600000Y-92065000D02*
X144690000Y-92065000D01*
X107086000Y-102496578D02*
X107086000Y-101979422D01*
X105666000Y-102496578D02*
X105666000Y-101979422D01*
X134492000Y-97741478D02*
X134492000Y-97224322D01*
X133072000Y-97741478D02*
X133072000Y-97224322D01*
D10*
X161724666Y-90667380D02*
X161724666Y-91381666D01*
X161677047Y-91524523D01*
X161581809Y-91619761D01*
X161438952Y-91667380D01*
X161343714Y-91667380D01*
X162629428Y-90667380D02*
X162438952Y-90667380D01*
X162343714Y-90715000D01*
X162296095Y-90762619D01*
X162200857Y-90905476D01*
X162153238Y-91095952D01*
X162153238Y-91476904D01*
X162200857Y-91572142D01*
X162248476Y-91619761D01*
X162343714Y-91667380D01*
X162534190Y-91667380D01*
X162629428Y-91619761D01*
X162677047Y-91572142D01*
X162724666Y-91476904D01*
X162724666Y-91238809D01*
X162677047Y-91143571D01*
X162629428Y-91095952D01*
X162534190Y-91048333D01*
X162343714Y-91048333D01*
X162248476Y-91095952D01*
X162200857Y-91143571D01*
X162153238Y-91238809D01*
X163420666Y-92484380D02*
X163420666Y-93198666D01*
X163373047Y-93341523D01*
X163277809Y-93436761D01*
X163134952Y-93484380D01*
X163039714Y-93484380D01*
X163801619Y-92484380D02*
X164420666Y-92484380D01*
X164087333Y-92865333D01*
X164230190Y-92865333D01*
X164325428Y-92912952D01*
X164373047Y-92960571D01*
X164420666Y-93055809D01*
X164420666Y-93293904D01*
X164373047Y-93389142D01*
X164325428Y-93436761D01*
X164230190Y-93484380D01*
X163944476Y-93484380D01*
X163849238Y-93436761D01*
X163801619Y-93389142D01*
X125525433Y-83457280D02*
X125192100Y-82981090D01*
X124954004Y-83457280D02*
X124954004Y-82457280D01*
X125334957Y-82457280D01*
X125430195Y-82504900D01*
X125477814Y-82552519D01*
X125525433Y-82647757D01*
X125525433Y-82790614D01*
X125477814Y-82885852D01*
X125430195Y-82933471D01*
X125334957Y-82981090D01*
X124954004Y-82981090D01*
X126477814Y-83457280D02*
X125906385Y-83457280D01*
X126192100Y-83457280D02*
X126192100Y-82457280D01*
X126096861Y-82600138D01*
X126001623Y-82695376D01*
X125906385Y-82742995D01*
X105916666Y-84654761D02*
X106059523Y-84702380D01*
X106297619Y-84702380D01*
X106392857Y-84654761D01*
X106440476Y-84607142D01*
X106488095Y-84511904D01*
X106488095Y-84416666D01*
X106440476Y-84321428D01*
X106392857Y-84273809D01*
X106297619Y-84226190D01*
X106107142Y-84178571D01*
X106011904Y-84130952D01*
X105964285Y-84083333D01*
X105916666Y-83988095D01*
X105916666Y-83892857D01*
X105964285Y-83797619D01*
X106011904Y-83750000D01*
X106107142Y-83702380D01*
X106345238Y-83702380D01*
X106488095Y-83750000D01*
X106821428Y-83702380D02*
X107059523Y-84702380D01*
X107250000Y-83988095D01*
X107440476Y-84702380D01*
X107678571Y-83702380D01*
X108011904Y-83797619D02*
X108059523Y-83750000D01*
X108154761Y-83702380D01*
X108392857Y-83702380D01*
X108488095Y-83750000D01*
X108535714Y-83797619D01*
X108583333Y-83892857D01*
X108583333Y-83988095D01*
X108535714Y-84130952D01*
X107964285Y-84702380D01*
X108583333Y-84702380D01*
X101719780Y-96965333D02*
X102434066Y-96965333D01*
X102576923Y-97012952D01*
X102672161Y-97108190D01*
X102719780Y-97251047D01*
X102719780Y-97346285D01*
X101719780Y-96584380D02*
X101719780Y-95917714D01*
X102719780Y-96346285D01*
X149813780Y-81039533D02*
X150528066Y-81039533D01*
X150670923Y-81087152D01*
X150766161Y-81182390D01*
X150813780Y-81325247D01*
X150813780Y-81420485D01*
X149909019Y-80610961D02*
X149861400Y-80563342D01*
X149813780Y-80468104D01*
X149813780Y-80230009D01*
X149861400Y-80134771D01*
X149909019Y-80087152D01*
X150004257Y-80039533D01*
X150099495Y-80039533D01*
X150242352Y-80087152D01*
X150813780Y-80658580D01*
X150813780Y-80039533D01*
X140061080Y-74333333D02*
X140775366Y-74333333D01*
X140918223Y-74380952D01*
X141013461Y-74476190D01*
X141061080Y-74619047D01*
X141061080Y-74714285D01*
X141061080Y-73333333D02*
X141061080Y-73904761D01*
X141061080Y-73619047D02*
X140061080Y-73619047D01*
X140203938Y-73714285D01*
X140299176Y-73809523D01*
X140346795Y-73904761D01*
X104393233Y-91830042D02*
X104345614Y-91877661D01*
X104202757Y-91925280D01*
X104107519Y-91925280D01*
X103964661Y-91877661D01*
X103869423Y-91782423D01*
X103821804Y-91687185D01*
X103774185Y-91496709D01*
X103774185Y-91353852D01*
X103821804Y-91163376D01*
X103869423Y-91068138D01*
X103964661Y-90972900D01*
X104107519Y-90925280D01*
X104202757Y-90925280D01*
X104345614Y-90972900D01*
X104393233Y-91020519D01*
X104726566Y-90925280D02*
X105345614Y-90925280D01*
X105012280Y-91306233D01*
X105155138Y-91306233D01*
X105250376Y-91353852D01*
X105297995Y-91401471D01*
X105345614Y-91496709D01*
X105345614Y-91734804D01*
X105297995Y-91830042D01*
X105250376Y-91877661D01*
X105155138Y-91925280D01*
X104869423Y-91925280D01*
X104774185Y-91877661D01*
X104726566Y-91830042D01*
X104393233Y-88020042D02*
X104345614Y-88067661D01*
X104202757Y-88115280D01*
X104107519Y-88115280D01*
X103964661Y-88067661D01*
X103869423Y-87972423D01*
X103821804Y-87877185D01*
X103774185Y-87686709D01*
X103774185Y-87543852D01*
X103821804Y-87353376D01*
X103869423Y-87258138D01*
X103964661Y-87162900D01*
X104107519Y-87115280D01*
X104202757Y-87115280D01*
X104345614Y-87162900D01*
X104393233Y-87210519D01*
X104774185Y-87210519D02*
X104821804Y-87162900D01*
X104917042Y-87115280D01*
X105155138Y-87115280D01*
X105250376Y-87162900D01*
X105297995Y-87210519D01*
X105345614Y-87305757D01*
X105345614Y-87400995D01*
X105297995Y-87543852D01*
X104726566Y-88115280D01*
X105345614Y-88115280D01*
X115246090Y-89993090D02*
X115722280Y-89993090D01*
X114722280Y-90326423D02*
X115246090Y-89993090D01*
X114722280Y-89659757D01*
X115722280Y-88802614D02*
X115722280Y-89374042D01*
X115722280Y-89088328D02*
X114722280Y-89088328D01*
X114865138Y-89183566D01*
X114960376Y-89278804D01*
X115007995Y-89374042D01*
X127238095Y-85572380D02*
X127238095Y-86381904D01*
X127285714Y-86477142D01*
X127333333Y-86524761D01*
X127428571Y-86572380D01*
X127619047Y-86572380D01*
X127714285Y-86524761D01*
X127761904Y-86477142D01*
X127809523Y-86381904D01*
X127809523Y-85572380D01*
X128809523Y-86572380D02*
X128238095Y-86572380D01*
X128523809Y-86572380D02*
X128523809Y-85572380D01*
X128428571Y-85715238D01*
X128333333Y-85810476D01*
X128238095Y-85858095D01*
X105682380Y-74333333D02*
X106396666Y-74333333D01*
X106539523Y-74380952D01*
X106634761Y-74476190D01*
X106682380Y-74619047D01*
X106682380Y-74714285D01*
X105682380Y-73380952D02*
X105682380Y-73857142D01*
X106158571Y-73904761D01*
X106110952Y-73857142D01*
X106063333Y-73761904D01*
X106063333Y-73523809D01*
X106110952Y-73428571D01*
X106158571Y-73380952D01*
X106253809Y-73333333D01*
X106491904Y-73333333D01*
X106587142Y-73380952D01*
X106634761Y-73428571D01*
X106682380Y-73523809D01*
X106682380Y-73761904D01*
X106634761Y-73857142D01*
X106587142Y-73904761D01*
X122123642Y-86572566D02*
X122171261Y-86620185D01*
X122218880Y-86763042D01*
X122218880Y-86858280D01*
X122171261Y-87001138D01*
X122076023Y-87096376D01*
X121980785Y-87143995D01*
X121790309Y-87191614D01*
X121647452Y-87191614D01*
X121456976Y-87143995D01*
X121361738Y-87096376D01*
X121266500Y-87001138D01*
X121218880Y-86858280D01*
X121218880Y-86763042D01*
X121266500Y-86620185D01*
X121314119Y-86572566D01*
X121218880Y-86239233D02*
X121218880Y-85572566D01*
X122218880Y-86001138D01*
X107502666Y-113061380D02*
X107502666Y-113775666D01*
X107455047Y-113918523D01*
X107359809Y-114013761D01*
X107216952Y-114061380D01*
X107121714Y-114061380D01*
X108407428Y-113394714D02*
X108407428Y-114061380D01*
X108169333Y-113013761D02*
X107931238Y-113728047D01*
X108550285Y-113728047D01*
X149643380Y-99765904D02*
X150452904Y-99765904D01*
X150548142Y-99718285D01*
X150595761Y-99670666D01*
X150643380Y-99575428D01*
X150643380Y-99384952D01*
X150595761Y-99289714D01*
X150548142Y-99242095D01*
X150452904Y-99194476D01*
X149643380Y-99194476D01*
X149738619Y-98765904D02*
X149691000Y-98718285D01*
X149643380Y-98623047D01*
X149643380Y-98384952D01*
X149691000Y-98289714D01*
X149738619Y-98242095D01*
X149833857Y-98194476D01*
X149929095Y-98194476D01*
X150071952Y-98242095D01*
X150643380Y-98813523D01*
X150643380Y-98194476D01*
X149404761Y-114083333D02*
X149452380Y-113940476D01*
X149452380Y-113702380D01*
X149404761Y-113607142D01*
X149357142Y-113559523D01*
X149261904Y-113511904D01*
X149166666Y-113511904D01*
X149071428Y-113559523D01*
X149023809Y-113607142D01*
X148976190Y-113702380D01*
X148928571Y-113892857D01*
X148880952Y-113988095D01*
X148833333Y-114035714D01*
X148738095Y-114083333D01*
X148642857Y-114083333D01*
X148547619Y-114035714D01*
X148500000Y-113988095D01*
X148452380Y-113892857D01*
X148452380Y-113654761D01*
X148500000Y-113511904D01*
X148452380Y-113178571D02*
X149452380Y-112940476D01*
X148738095Y-112750000D01*
X149452380Y-112559523D01*
X148452380Y-112321428D01*
X149452380Y-111416666D02*
X149452380Y-111988095D01*
X149452380Y-111702380D02*
X148452380Y-111702380D01*
X148595238Y-111797619D01*
X148690476Y-111892857D01*
X148738095Y-111988095D01*
X125005333Y-79898380D02*
X124672000Y-79422190D01*
X124433904Y-79898380D02*
X124433904Y-78898380D01*
X124814857Y-78898380D01*
X124910095Y-78946000D01*
X124957714Y-78993619D01*
X125005333Y-79088857D01*
X125005333Y-79231714D01*
X124957714Y-79326952D01*
X124910095Y-79374571D01*
X124814857Y-79422190D01*
X124433904Y-79422190D01*
X125862476Y-78898380D02*
X125672000Y-78898380D01*
X125576761Y-78946000D01*
X125529142Y-78993619D01*
X125433904Y-79136476D01*
X125386285Y-79326952D01*
X125386285Y-79707904D01*
X125433904Y-79803142D01*
X125481523Y-79850761D01*
X125576761Y-79898380D01*
X125767238Y-79898380D01*
X125862476Y-79850761D01*
X125910095Y-79803142D01*
X125957714Y-79707904D01*
X125957714Y-79469809D01*
X125910095Y-79374571D01*
X125862476Y-79326952D01*
X125767238Y-79279333D01*
X125576761Y-79279333D01*
X125481523Y-79326952D01*
X125433904Y-79374571D01*
X125386285Y-79469809D01*
X140802380Y-102104166D02*
X140326190Y-102437500D01*
X140802380Y-102675595D02*
X139802380Y-102675595D01*
X139802380Y-102294642D01*
X139850000Y-102199404D01*
X139897619Y-102151785D01*
X139992857Y-102104166D01*
X140135714Y-102104166D01*
X140230952Y-102151785D01*
X140278571Y-102199404D01*
X140326190Y-102294642D01*
X140326190Y-102675595D01*
X140135714Y-101247023D02*
X140802380Y-101247023D01*
X139754761Y-101485119D02*
X140469047Y-101723214D01*
X140469047Y-101104166D01*
X146102380Y-109229166D02*
X145626190Y-109562500D01*
X146102380Y-109800595D02*
X145102380Y-109800595D01*
X145102380Y-109419642D01*
X145150000Y-109324404D01*
X145197619Y-109276785D01*
X145292857Y-109229166D01*
X145435714Y-109229166D01*
X145530952Y-109276785D01*
X145578571Y-109324404D01*
X145626190Y-109419642D01*
X145626190Y-109800595D01*
X145102380Y-108895833D02*
X145102380Y-108276785D01*
X145483333Y-108610119D01*
X145483333Y-108467261D01*
X145530952Y-108372023D01*
X145578571Y-108324404D01*
X145673809Y-108276785D01*
X145911904Y-108276785D01*
X146007142Y-108324404D01*
X146054761Y-108372023D01*
X146102380Y-108467261D01*
X146102380Y-108752976D01*
X146054761Y-108848214D01*
X146007142Y-108895833D01*
X139737333Y-91836380D02*
X139404000Y-91360190D01*
X139165904Y-91836380D02*
X139165904Y-90836380D01*
X139546857Y-90836380D01*
X139642095Y-90884000D01*
X139689714Y-90931619D01*
X139737333Y-91026857D01*
X139737333Y-91169714D01*
X139689714Y-91264952D01*
X139642095Y-91312571D01*
X139546857Y-91360190D01*
X139165904Y-91360190D01*
X140118285Y-90931619D02*
X140165904Y-90884000D01*
X140261142Y-90836380D01*
X140499238Y-90836380D01*
X140594476Y-90884000D01*
X140642095Y-90931619D01*
X140689714Y-91026857D01*
X140689714Y-91122095D01*
X140642095Y-91264952D01*
X140070666Y-91836380D01*
X140689714Y-91836380D01*
X112051333Y-105678380D02*
X111575142Y-105678380D01*
X111575142Y-104678380D01*
X112908476Y-105678380D02*
X112337047Y-105678380D01*
X112622761Y-105678380D02*
X112622761Y-104678380D01*
X112527523Y-104821238D01*
X112432285Y-104916476D01*
X112337047Y-104964095D01*
X124433904Y-77626380D02*
X124433904Y-76626380D01*
X124672000Y-76626380D01*
X124814857Y-76674000D01*
X124910095Y-76769238D01*
X124957714Y-76864476D01*
X125005333Y-77054952D01*
X125005333Y-77197809D01*
X124957714Y-77388285D01*
X124910095Y-77483523D01*
X124814857Y-77578761D01*
X124672000Y-77626380D01*
X124433904Y-77626380D01*
X125338666Y-76626380D02*
X125957714Y-76626380D01*
X125624380Y-77007333D01*
X125767238Y-77007333D01*
X125862476Y-77054952D01*
X125910095Y-77102571D01*
X125957714Y-77197809D01*
X125957714Y-77435904D01*
X125910095Y-77531142D01*
X125862476Y-77578761D01*
X125767238Y-77626380D01*
X125481523Y-77626380D01*
X125386285Y-77578761D01*
X125338666Y-77531142D01*
X144102380Y-97800595D02*
X143102380Y-97800595D01*
X143102380Y-97562500D01*
X143150000Y-97419642D01*
X143245238Y-97324404D01*
X143340476Y-97276785D01*
X143530952Y-97229166D01*
X143673809Y-97229166D01*
X143864285Y-97276785D01*
X143959523Y-97324404D01*
X144054761Y-97419642D01*
X144102380Y-97562500D01*
X144102380Y-97800595D01*
X143197619Y-96848214D02*
X143150000Y-96800595D01*
X143102380Y-96705357D01*
X143102380Y-96467261D01*
X143150000Y-96372023D01*
X143197619Y-96324404D01*
X143292857Y-96276785D01*
X143388095Y-96276785D01*
X143530952Y-96324404D01*
X144102380Y-96895833D01*
X144102380Y-96276785D01*
X137802380Y-97738095D02*
X136802380Y-97738095D01*
X136802380Y-97500000D01*
X136850000Y-97357142D01*
X136945238Y-97261904D01*
X137040476Y-97214285D01*
X137230952Y-97166666D01*
X137373809Y-97166666D01*
X137564285Y-97214285D01*
X137659523Y-97261904D01*
X137754761Y-97357142D01*
X137802380Y-97500000D01*
X137802380Y-97738095D01*
X137802380Y-96214285D02*
X137802380Y-96785714D01*
X137802380Y-96500000D02*
X136802380Y-96500000D01*
X136945238Y-96595238D01*
X137040476Y-96690476D01*
X137088095Y-96785714D01*
X117811142Y-106318857D02*
X117858761Y-106366476D01*
X117906380Y-106509333D01*
X117906380Y-106604571D01*
X117858761Y-106747428D01*
X117763523Y-106842666D01*
X117668285Y-106890285D01*
X117477809Y-106937904D01*
X117334952Y-106937904D01*
X117144476Y-106890285D01*
X117049238Y-106842666D01*
X116954000Y-106747428D01*
X116906380Y-106604571D01*
X116906380Y-106509333D01*
X116954000Y-106366476D01*
X117001619Y-106318857D01*
X117906380Y-105366476D02*
X117906380Y-105937904D01*
X117906380Y-105652190D02*
X116906380Y-105652190D01*
X117049238Y-105747428D01*
X117144476Y-105842666D01*
X117192095Y-105937904D01*
X116906380Y-104461714D02*
X116906380Y-104937904D01*
X117382571Y-104985523D01*
X117334952Y-104937904D01*
X117287333Y-104842666D01*
X117287333Y-104604571D01*
X117334952Y-104509333D01*
X117382571Y-104461714D01*
X117477809Y-104414095D01*
X117715904Y-104414095D01*
X117811142Y-104461714D01*
X117858761Y-104509333D01*
X117906380Y-104604571D01*
X117906380Y-104842666D01*
X117858761Y-104937904D01*
X117811142Y-104985523D01*
X152215142Y-105457142D02*
X152167523Y-105504761D01*
X152024666Y-105552380D01*
X151929428Y-105552380D01*
X151786571Y-105504761D01*
X151691333Y-105409523D01*
X151643714Y-105314285D01*
X151596095Y-105123809D01*
X151596095Y-104980952D01*
X151643714Y-104790476D01*
X151691333Y-104695238D01*
X151786571Y-104600000D01*
X151929428Y-104552380D01*
X152024666Y-104552380D01*
X152167523Y-104600000D01*
X152215142Y-104647619D01*
X153167523Y-105552380D02*
X152596095Y-105552380D01*
X152881809Y-105552380D02*
X152881809Y-104552380D01*
X152786571Y-104695238D01*
X152691333Y-104790476D01*
X152596095Y-104838095D01*
X154024666Y-104885714D02*
X154024666Y-105552380D01*
X153786571Y-104504761D02*
X153548476Y-105219047D01*
X154167523Y-105219047D01*
X115623142Y-106758857D02*
X115670761Y-106806476D01*
X115718380Y-106949333D01*
X115718380Y-107044571D01*
X115670761Y-107187428D01*
X115575523Y-107282666D01*
X115480285Y-107330285D01*
X115289809Y-107377904D01*
X115146952Y-107377904D01*
X114956476Y-107330285D01*
X114861238Y-107282666D01*
X114766000Y-107187428D01*
X114718380Y-107044571D01*
X114718380Y-106949333D01*
X114766000Y-106806476D01*
X114813619Y-106758857D01*
X115718380Y-105806476D02*
X115718380Y-106377904D01*
X115718380Y-106092190D02*
X114718380Y-106092190D01*
X114861238Y-106187428D01*
X114956476Y-106282666D01*
X115004095Y-106377904D01*
X114718380Y-105473142D02*
X114718380Y-104854095D01*
X115099333Y-105187428D01*
X115099333Y-105044571D01*
X115146952Y-104949333D01*
X115194571Y-104901714D01*
X115289809Y-104854095D01*
X115527904Y-104854095D01*
X115623142Y-104901714D01*
X115670761Y-104949333D01*
X115718380Y-105044571D01*
X115718380Y-105330285D01*
X115670761Y-105425523D01*
X115623142Y-105473142D01*
X108983142Y-106250857D02*
X109030761Y-106298476D01*
X109078380Y-106441333D01*
X109078380Y-106536571D01*
X109030761Y-106679428D01*
X108935523Y-106774666D01*
X108840285Y-106822285D01*
X108649809Y-106869904D01*
X108506952Y-106869904D01*
X108316476Y-106822285D01*
X108221238Y-106774666D01*
X108126000Y-106679428D01*
X108078380Y-106536571D01*
X108078380Y-106441333D01*
X108126000Y-106298476D01*
X108173619Y-106250857D01*
X109078380Y-105298476D02*
X109078380Y-105869904D01*
X109078380Y-105584190D02*
X108078380Y-105584190D01*
X108221238Y-105679428D01*
X108316476Y-105774666D01*
X108364095Y-105869904D01*
X108173619Y-104917523D02*
X108126000Y-104869904D01*
X108078380Y-104774666D01*
X108078380Y-104536571D01*
X108126000Y-104441333D01*
X108173619Y-104393714D01*
X108268857Y-104346095D01*
X108364095Y-104346095D01*
X108506952Y-104393714D01*
X109078380Y-104965142D01*
X109078380Y-104346095D01*
X139707142Y-109642857D02*
X139754761Y-109690476D01*
X139802380Y-109833333D01*
X139802380Y-109928571D01*
X139754761Y-110071428D01*
X139659523Y-110166666D01*
X139564285Y-110214285D01*
X139373809Y-110261904D01*
X139230952Y-110261904D01*
X139040476Y-110214285D01*
X138945238Y-110166666D01*
X138850000Y-110071428D01*
X138802380Y-109928571D01*
X138802380Y-109833333D01*
X138850000Y-109690476D01*
X138897619Y-109642857D01*
X139802380Y-108690476D02*
X139802380Y-109261904D01*
X139802380Y-108976190D02*
X138802380Y-108976190D01*
X138945238Y-109071428D01*
X139040476Y-109166666D01*
X139088095Y-109261904D01*
X139802380Y-107738095D02*
X139802380Y-108309523D01*
X139802380Y-108023809D02*
X138802380Y-108023809D01*
X138945238Y-108119047D01*
X139040476Y-108214285D01*
X139088095Y-108309523D01*
X146357142Y-91607142D02*
X146309523Y-91654761D01*
X146166666Y-91702380D01*
X146071428Y-91702380D01*
X145928571Y-91654761D01*
X145833333Y-91559523D01*
X145785714Y-91464285D01*
X145738095Y-91273809D01*
X145738095Y-91130952D01*
X145785714Y-90940476D01*
X145833333Y-90845238D01*
X145928571Y-90750000D01*
X146071428Y-90702380D01*
X146166666Y-90702380D01*
X146309523Y-90750000D01*
X146357142Y-90797619D01*
X147309523Y-91702380D02*
X146738095Y-91702380D01*
X147023809Y-91702380D02*
X147023809Y-90702380D01*
X146928571Y-90845238D01*
X146833333Y-90940476D01*
X146738095Y-90988095D01*
X147928571Y-90702380D02*
X148023809Y-90702380D01*
X148119047Y-90750000D01*
X148166666Y-90797619D01*
X148214285Y-90892857D01*
X148261904Y-91083333D01*
X148261904Y-91321428D01*
X148214285Y-91511904D01*
X148166666Y-91607142D01*
X148119047Y-91654761D01*
X148023809Y-91702380D01*
X147928571Y-91702380D01*
X147833333Y-91654761D01*
X147785714Y-91607142D01*
X147738095Y-91511904D01*
X147690476Y-91321428D01*
X147690476Y-91083333D01*
X147738095Y-90892857D01*
X147785714Y-90797619D01*
X147833333Y-90750000D01*
X147928571Y-90702380D01*
X106733142Y-105266666D02*
X106780761Y-105314285D01*
X106828380Y-105457142D01*
X106828380Y-105552380D01*
X106780761Y-105695238D01*
X106685523Y-105790476D01*
X106590285Y-105838095D01*
X106399809Y-105885714D01*
X106256952Y-105885714D01*
X106066476Y-105838095D01*
X105971238Y-105790476D01*
X105876000Y-105695238D01*
X105828380Y-105552380D01*
X105828380Y-105457142D01*
X105876000Y-105314285D01*
X105923619Y-105266666D01*
X106828380Y-104790476D02*
X106828380Y-104600000D01*
X106780761Y-104504761D01*
X106733142Y-104457142D01*
X106590285Y-104361904D01*
X106399809Y-104314285D01*
X106018857Y-104314285D01*
X105923619Y-104361904D01*
X105876000Y-104409523D01*
X105828380Y-104504761D01*
X105828380Y-104695238D01*
X105876000Y-104790476D01*
X105923619Y-104838095D01*
X106018857Y-104885714D01*
X106256952Y-104885714D01*
X106352190Y-104838095D01*
X106399809Y-104790476D01*
X106447428Y-104695238D01*
X106447428Y-104504761D01*
X106399809Y-104409523D01*
X106352190Y-104361904D01*
X106256952Y-104314285D01*
X132489142Y-97649566D02*
X132536761Y-97697185D01*
X132584380Y-97840042D01*
X132584380Y-97935280D01*
X132536761Y-98078138D01*
X132441523Y-98173376D01*
X132346285Y-98220995D01*
X132155809Y-98268614D01*
X132012952Y-98268614D01*
X131822476Y-98220995D01*
X131727238Y-98173376D01*
X131632000Y-98078138D01*
X131584380Y-97935280D01*
X131584380Y-97840042D01*
X131632000Y-97697185D01*
X131679619Y-97649566D01*
X131584380Y-96792423D02*
X131584380Y-96982900D01*
X131632000Y-97078138D01*
X131679619Y-97125757D01*
X131822476Y-97220995D01*
X132012952Y-97268614D01*
X132393904Y-97268614D01*
X132489142Y-97220995D01*
X132536761Y-97173376D01*
X132584380Y-97078138D01*
X132584380Y-96887661D01*
X132536761Y-96792423D01*
X132489142Y-96744804D01*
X132393904Y-96697185D01*
X132155809Y-96697185D01*
X132060571Y-96744804D01*
X132012952Y-96792423D01*
X131965333Y-96887661D01*
X131965333Y-97078138D01*
X132012952Y-97173376D01*
X132060571Y-97220995D01*
X132155809Y-97268614D01*
%LPC*%
G36*
G01*
X161358000Y-84070000D02*
X161358000Y-84810000D01*
G75*
G02*
X161308000Y-84860000I-50000J0D01*
G01*
X158908000Y-84860000D01*
G75*
G02*
X158858000Y-84810000I0J50000D01*
G01*
X158858000Y-84070000D01*
G75*
G02*
X158908000Y-84020000I50000J0D01*
G01*
X161308000Y-84020000D01*
G75*
G02*
X161358000Y-84070000I0J-50000D01*
G01*
G37*
G36*
G01*
X165258000Y-84070000D02*
X165258000Y-84810000D01*
G75*
G02*
X165208000Y-84860000I-50000J0D01*
G01*
X162808000Y-84860000D01*
G75*
G02*
X162758000Y-84810000I0J50000D01*
G01*
X162758000Y-84070000D01*
G75*
G02*
X162808000Y-84020000I50000J0D01*
G01*
X165208000Y-84020000D01*
G75*
G02*
X165258000Y-84070000I0J-50000D01*
G01*
G37*
G36*
G01*
X161358000Y-85340000D02*
X161358000Y-86080000D01*
G75*
G02*
X161308000Y-86130000I-50000J0D01*
G01*
X158908000Y-86130000D01*
G75*
G02*
X158858000Y-86080000I0J50000D01*
G01*
X158858000Y-85340000D01*
G75*
G02*
X158908000Y-85290000I50000J0D01*
G01*
X161308000Y-85290000D01*
G75*
G02*
X161358000Y-85340000I0J-50000D01*
G01*
G37*
G36*
G01*
X165258000Y-85340000D02*
X165258000Y-86080000D01*
G75*
G02*
X165208000Y-86130000I-50000J0D01*
G01*
X162808000Y-86130000D01*
G75*
G02*
X162758000Y-86080000I0J50000D01*
G01*
X162758000Y-85340000D01*
G75*
G02*
X162808000Y-85290000I50000J0D01*
G01*
X165208000Y-85290000D01*
G75*
G02*
X165258000Y-85340000I0J-50000D01*
G01*
G37*
G36*
G01*
X161358000Y-86610000D02*
X161358000Y-87350000D01*
G75*
G02*
X161308000Y-87400000I-50000J0D01*
G01*
X158908000Y-87400000D01*
G75*
G02*
X158858000Y-87350000I0J50000D01*
G01*
X158858000Y-86610000D01*
G75*
G02*
X158908000Y-86560000I50000J0D01*
G01*
X161308000Y-86560000D01*
G75*
G02*
X161358000Y-86610000I0J-50000D01*
G01*
G37*
G36*
G01*
X165258000Y-86610000D02*
X165258000Y-87350000D01*
G75*
G02*
X165208000Y-87400000I-50000J0D01*
G01*
X162808000Y-87400000D01*
G75*
G02*
X162758000Y-87350000I0J50000D01*
G01*
X162758000Y-86610000D01*
G75*
G02*
X162808000Y-86560000I50000J0D01*
G01*
X165208000Y-86560000D01*
G75*
G02*
X165258000Y-86610000I0J-50000D01*
G01*
G37*
G36*
G01*
X161358000Y-87880000D02*
X161358000Y-88620000D01*
G75*
G02*
X161308000Y-88670000I-50000J0D01*
G01*
X158908000Y-88670000D01*
G75*
G02*
X158858000Y-88620000I0J50000D01*
G01*
X158858000Y-87880000D01*
G75*
G02*
X158908000Y-87830000I50000J0D01*
G01*
X161308000Y-87830000D01*
G75*
G02*
X161358000Y-87880000I0J-50000D01*
G01*
G37*
G36*
G01*
X165258000Y-87880000D02*
X165258000Y-88620000D01*
G75*
G02*
X165208000Y-88670000I-50000J0D01*
G01*
X162808000Y-88670000D01*
G75*
G02*
X162758000Y-88620000I0J50000D01*
G01*
X162758000Y-87880000D01*
G75*
G02*
X162808000Y-87830000I50000J0D01*
G01*
X165208000Y-87830000D01*
G75*
G02*
X165258000Y-87880000I0J-50000D01*
G01*
G37*
G36*
G01*
X161358000Y-89150000D02*
X161358000Y-89890000D01*
G75*
G02*
X161308000Y-89940000I-50000J0D01*
G01*
X158908000Y-89940000D01*
G75*
G02*
X158858000Y-89890000I0J50000D01*
G01*
X158858000Y-89150000D01*
G75*
G02*
X158908000Y-89100000I50000J0D01*
G01*
X161308000Y-89100000D01*
G75*
G02*
X161358000Y-89150000I0J-50000D01*
G01*
G37*
G36*
G01*
X165258000Y-89150000D02*
X165258000Y-89890000D01*
G75*
G02*
X165208000Y-89940000I-50000J0D01*
G01*
X162808000Y-89940000D01*
G75*
G02*
X162758000Y-89890000I0J50000D01*
G01*
X162758000Y-89150000D01*
G75*
G02*
X162808000Y-89100000I50000J0D01*
G01*
X165208000Y-89100000D01*
G75*
G02*
X165258000Y-89150000I0J-50000D01*
G01*
G37*
D13*
X163754000Y-108062000D03*
X163754000Y-105522000D03*
X163754000Y-102982000D03*
X163754000Y-100442000D03*
X163754000Y-97902000D03*
G36*
G01*
X162854000Y-96212000D02*
X162854000Y-94512000D01*
G75*
G02*
X162904000Y-94462000I50000J0D01*
G01*
X164604000Y-94462000D01*
G75*
G02*
X164654000Y-94512000I0J-50000D01*
G01*
X164654000Y-96212000D01*
G75*
G02*
X164604000Y-96262000I-50000J0D01*
G01*
X162904000Y-96262000D01*
G75*
G02*
X162854000Y-96212000I0J50000D01*
G01*
G37*
G36*
G01*
X122383800Y-82409350D02*
X122383800Y-83371850D01*
G75*
G02*
X122115050Y-83640600I-268750J0D01*
G01*
X121577550Y-83640600D01*
G75*
G02*
X121308800Y-83371850I0J268750D01*
G01*
X121308800Y-82409350D01*
G75*
G02*
X121577550Y-82140600I268750J0D01*
G01*
X122115050Y-82140600D01*
G75*
G02*
X122383800Y-82409350I0J-268750D01*
G01*
G37*
G36*
G01*
X124258800Y-82409350D02*
X124258800Y-83371850D01*
G75*
G02*
X123990050Y-83640600I-268750J0D01*
G01*
X123452550Y-83640600D01*
G75*
G02*
X123183800Y-83371850I0J268750D01*
G01*
X123183800Y-82409350D01*
G75*
G02*
X123452550Y-82140600I268750J0D01*
G01*
X123990050Y-82140600D01*
G75*
G02*
X124258800Y-82409350I0J-268750D01*
G01*
G37*
G36*
G01*
X116243000Y-80097801D02*
X116243000Y-78977799D01*
G75*
G02*
X116292999Y-78927800I49999J0D01*
G01*
X118733001Y-78927800D01*
G75*
G02*
X118783000Y-78977799I0J-49999D01*
G01*
X118783000Y-80097801D01*
G75*
G02*
X118733001Y-80147800I-49999J0D01*
G01*
X116292999Y-80147800D01*
G75*
G02*
X116243000Y-80097801I0J49999D01*
G01*
G37*
G36*
G01*
X107633000Y-82637801D02*
X107633000Y-81517799D01*
G75*
G02*
X107682999Y-81467800I49999J0D01*
G01*
X110123001Y-81467800D01*
G75*
G02*
X110173000Y-81517799I0J-49999D01*
G01*
X110173000Y-82637801D01*
G75*
G02*
X110123001Y-82687800I-49999J0D01*
G01*
X107682999Y-82687800D01*
G75*
G02*
X107633000Y-82637801I0J49999D01*
G01*
G37*
G36*
G01*
X116243000Y-82637801D02*
X116243000Y-81517799D01*
G75*
G02*
X116292999Y-81467800I49999J0D01*
G01*
X118733001Y-81467800D01*
G75*
G02*
X118783000Y-81517799I0J-49999D01*
G01*
X118783000Y-82637801D01*
G75*
G02*
X118733001Y-82687800I-49999J0D01*
G01*
X116292999Y-82687800D01*
G75*
G02*
X116243000Y-82637801I0J49999D01*
G01*
G37*
G36*
G01*
X107633000Y-80097801D02*
X107633000Y-78977799D01*
G75*
G02*
X107682999Y-78927800I49999J0D01*
G01*
X110123001Y-78927800D01*
G75*
G02*
X110173000Y-78977799I0J-49999D01*
G01*
X110173000Y-80097801D01*
G75*
G02*
X110123001Y-80147800I-49999J0D01*
G01*
X107682999Y-80147800D01*
G75*
G02*
X107633000Y-80097801I0J49999D01*
G01*
G37*
X109677400Y-95362000D03*
X109677400Y-97902000D03*
X107137400Y-95362000D03*
X107137400Y-97902000D03*
X104597400Y-95362000D03*
G36*
G01*
X105447400Y-98802000D02*
X103747400Y-98802000D01*
G75*
G02*
X103697400Y-98752000I0J50000D01*
G01*
X103697400Y-97052000D01*
G75*
G02*
X103747400Y-97002000I50000J0D01*
G01*
X105447400Y-97002000D01*
G75*
G02*
X105497400Y-97052000I0J-50000D01*
G01*
X105497400Y-98752000D01*
G75*
G02*
X105447400Y-98802000I-50000J0D01*
G01*
G37*
X142951400Y-81976200D03*
X142951400Y-79436200D03*
X145491400Y-81976200D03*
X145491400Y-79436200D03*
X148031400Y-81976200D03*
G36*
G01*
X147181400Y-78536200D02*
X148881400Y-78536200D01*
G75*
G02*
X148931400Y-78586200I0J-50000D01*
G01*
X148931400Y-80286200D01*
G75*
G02*
X148881400Y-80336200I-50000J0D01*
G01*
X147181400Y-80336200D01*
G75*
G02*
X147131400Y-80286200I0J50000D01*
G01*
X147131400Y-78586200D01*
G75*
G02*
X147181400Y-78536200I50000J0D01*
G01*
G37*
X155638700Y-74000000D03*
X153098700Y-74000000D03*
X150558700Y-74000000D03*
X148018700Y-74000000D03*
X145478700Y-74000000D03*
G36*
G01*
X143788700Y-74900000D02*
X142088700Y-74900000D01*
G75*
G02*
X142038700Y-74850000I0J50000D01*
G01*
X142038700Y-73150000D01*
G75*
G02*
X142088700Y-73100000I50000J0D01*
G01*
X143788700Y-73100000D01*
G75*
G02*
X143838700Y-73150000I0J-50000D01*
G01*
X143838700Y-74850000D01*
G75*
G02*
X143788700Y-74900000I-50000J0D01*
G01*
G37*
G36*
G01*
X107132400Y-91035650D02*
X107132400Y-91998150D01*
G75*
G02*
X106863650Y-92266900I-268750J0D01*
G01*
X106326150Y-92266900D01*
G75*
G02*
X106057400Y-91998150I0J268750D01*
G01*
X106057400Y-91035650D01*
G75*
G02*
X106326150Y-90766900I268750J0D01*
G01*
X106863650Y-90766900D01*
G75*
G02*
X107132400Y-91035650I0J-268750D01*
G01*
G37*
G36*
G01*
X109007400Y-91035650D02*
X109007400Y-91998150D01*
G75*
G02*
X108738650Y-92266900I-268750J0D01*
G01*
X108201150Y-92266900D01*
G75*
G02*
X107932400Y-91998150I0J268750D01*
G01*
X107932400Y-91035650D01*
G75*
G02*
X108201150Y-90766900I268750J0D01*
G01*
X108738650Y-90766900D01*
G75*
G02*
X109007400Y-91035650I0J-268750D01*
G01*
G37*
G36*
G01*
X107069900Y-87035650D02*
X107069900Y-87998150D01*
G75*
G02*
X106801150Y-88266900I-268750J0D01*
G01*
X106263650Y-88266900D01*
G75*
G02*
X105994900Y-87998150I0J268750D01*
G01*
X105994900Y-87035650D01*
G75*
G02*
X106263650Y-86766900I268750J0D01*
G01*
X106801150Y-86766900D01*
G75*
G02*
X107069900Y-87035650I0J-268750D01*
G01*
G37*
G36*
G01*
X108944900Y-87035650D02*
X108944900Y-87998150D01*
G75*
G02*
X108676150Y-88266900I-268750J0D01*
G01*
X108138650Y-88266900D01*
G75*
G02*
X107869900Y-87998150I0J268750D01*
G01*
X107869900Y-87035650D01*
G75*
G02*
X108138650Y-86766900I268750J0D01*
G01*
X108676150Y-86766900D01*
G75*
G02*
X108944900Y-87035650I0J-268750D01*
G01*
G37*
G36*
G01*
X111269900Y-90316900D02*
X113669900Y-90316900D01*
G75*
G02*
X113719900Y-90366900I0J-50000D01*
G01*
X113719900Y-92366900D01*
G75*
G02*
X113669900Y-92416900I-50000J0D01*
G01*
X111269900Y-92416900D01*
G75*
G02*
X111219900Y-92366900I0J50000D01*
G01*
X111219900Y-90366900D01*
G75*
G02*
X111269900Y-90316900I50000J0D01*
G01*
G37*
G36*
G01*
X111269900Y-86616900D02*
X113669900Y-86616900D01*
G75*
G02*
X113719900Y-86666900I0J-50000D01*
G01*
X113719900Y-88666900D01*
G75*
G02*
X113669900Y-88716900I-50000J0D01*
G01*
X111269900Y-88716900D01*
G75*
G02*
X111219900Y-88666900I0J50000D01*
G01*
X111219900Y-86666900D01*
G75*
G02*
X111269900Y-86616900I50000J0D01*
G01*
G37*
G36*
G01*
X124900000Y-88475000D02*
X124900000Y-87175000D01*
G75*
G02*
X125050000Y-87025000I150000J0D01*
G01*
X125350000Y-87025000D01*
G75*
G02*
X125500000Y-87175000I0J-150000D01*
G01*
X125500000Y-88475000D01*
G75*
G02*
X125350000Y-88625000I-150000J0D01*
G01*
X125050000Y-88625000D01*
G75*
G02*
X124900000Y-88475000I0J150000D01*
G01*
G37*
G36*
G01*
X125700000Y-88475000D02*
X125700000Y-87175000D01*
G75*
G02*
X125850000Y-87025000I150000J0D01*
G01*
X126150000Y-87025000D01*
G75*
G02*
X126300000Y-87175000I0J-150000D01*
G01*
X126300000Y-88475000D01*
G75*
G02*
X126150000Y-88625000I-150000J0D01*
G01*
X125850000Y-88625000D01*
G75*
G02*
X125700000Y-88475000I0J150000D01*
G01*
G37*
G36*
G01*
X126500000Y-88475000D02*
X126500000Y-87175000D01*
G75*
G02*
X126650000Y-87025000I150000J0D01*
G01*
X126950000Y-87025000D01*
G75*
G02*
X127100000Y-87175000I0J-150000D01*
G01*
X127100000Y-88475000D01*
G75*
G02*
X126950000Y-88625000I-150000J0D01*
G01*
X126650000Y-88625000D01*
G75*
G02*
X126500000Y-88475000I0J150000D01*
G01*
G37*
G36*
G01*
X127300000Y-88475000D02*
X127300000Y-87175000D01*
G75*
G02*
X127450000Y-87025000I150000J0D01*
G01*
X127750000Y-87025000D01*
G75*
G02*
X127900000Y-87175000I0J-150000D01*
G01*
X127900000Y-88475000D01*
G75*
G02*
X127750000Y-88625000I-150000J0D01*
G01*
X127450000Y-88625000D01*
G75*
G02*
X127300000Y-88475000I0J150000D01*
G01*
G37*
G36*
G01*
X128100000Y-88475000D02*
X128100000Y-87175000D01*
G75*
G02*
X128250000Y-87025000I150000J0D01*
G01*
X128550000Y-87025000D01*
G75*
G02*
X128700000Y-87175000I0J-150000D01*
G01*
X128700000Y-88475000D01*
G75*
G02*
X128550000Y-88625000I-150000J0D01*
G01*
X128250000Y-88625000D01*
G75*
G02*
X128100000Y-88475000I0J150000D01*
G01*
G37*
G36*
G01*
X128900000Y-88475000D02*
X128900000Y-87175000D01*
G75*
G02*
X129050000Y-87025000I150000J0D01*
G01*
X129350000Y-87025000D01*
G75*
G02*
X129500000Y-87175000I0J-150000D01*
G01*
X129500000Y-88475000D01*
G75*
G02*
X129350000Y-88625000I-150000J0D01*
G01*
X129050000Y-88625000D01*
G75*
G02*
X128900000Y-88475000I0J150000D01*
G01*
G37*
G36*
G01*
X129700000Y-88475000D02*
X129700000Y-87175000D01*
G75*
G02*
X129850000Y-87025000I150000J0D01*
G01*
X130150000Y-87025000D01*
G75*
G02*
X130300000Y-87175000I0J-150000D01*
G01*
X130300000Y-88475000D01*
G75*
G02*
X130150000Y-88625000I-150000J0D01*
G01*
X129850000Y-88625000D01*
G75*
G02*
X129700000Y-88475000I0J150000D01*
G01*
G37*
G36*
G01*
X130500000Y-88475000D02*
X130500000Y-87175000D01*
G75*
G02*
X130650000Y-87025000I150000J0D01*
G01*
X130950000Y-87025000D01*
G75*
G02*
X131100000Y-87175000I0J-150000D01*
G01*
X131100000Y-88475000D01*
G75*
G02*
X130950000Y-88625000I-150000J0D01*
G01*
X130650000Y-88625000D01*
G75*
G02*
X130500000Y-88475000I0J150000D01*
G01*
G37*
G36*
G01*
X131375000Y-89350000D02*
X131375000Y-89050000D01*
G75*
G02*
X131525000Y-88900000I150000J0D01*
G01*
X132825000Y-88900000D01*
G75*
G02*
X132975000Y-89050000I0J-150000D01*
G01*
X132975000Y-89350000D01*
G75*
G02*
X132825000Y-89500000I-150000J0D01*
G01*
X131525000Y-89500000D01*
G75*
G02*
X131375000Y-89350000I0J150000D01*
G01*
G37*
G36*
G01*
X131375000Y-90150000D02*
X131375000Y-89850000D01*
G75*
G02*
X131525000Y-89700000I150000J0D01*
G01*
X132825000Y-89700000D01*
G75*
G02*
X132975000Y-89850000I0J-150000D01*
G01*
X132975000Y-90150000D01*
G75*
G02*
X132825000Y-90300000I-150000J0D01*
G01*
X131525000Y-90300000D01*
G75*
G02*
X131375000Y-90150000I0J150000D01*
G01*
G37*
G36*
G01*
X131375000Y-90950000D02*
X131375000Y-90650000D01*
G75*
G02*
X131525000Y-90500000I150000J0D01*
G01*
X132825000Y-90500000D01*
G75*
G02*
X132975000Y-90650000I0J-150000D01*
G01*
X132975000Y-90950000D01*
G75*
G02*
X132825000Y-91100000I-150000J0D01*
G01*
X131525000Y-91100000D01*
G75*
G02*
X131375000Y-90950000I0J150000D01*
G01*
G37*
G36*
G01*
X131375000Y-91750000D02*
X131375000Y-91450000D01*
G75*
G02*
X131525000Y-91300000I150000J0D01*
G01*
X132825000Y-91300000D01*
G75*
G02*
X132975000Y-91450000I0J-150000D01*
G01*
X132975000Y-91750000D01*
G75*
G02*
X132825000Y-91900000I-150000J0D01*
G01*
X131525000Y-91900000D01*
G75*
G02*
X131375000Y-91750000I0J150000D01*
G01*
G37*
G36*
G01*
X131375000Y-92550000D02*
X131375000Y-92250000D01*
G75*
G02*
X131525000Y-92100000I150000J0D01*
G01*
X132825000Y-92100000D01*
G75*
G02*
X132975000Y-92250000I0J-150000D01*
G01*
X132975000Y-92550000D01*
G75*
G02*
X132825000Y-92700000I-150000J0D01*
G01*
X131525000Y-92700000D01*
G75*
G02*
X131375000Y-92550000I0J150000D01*
G01*
G37*
G36*
G01*
X131375000Y-93350000D02*
X131375000Y-93050000D01*
G75*
G02*
X131525000Y-92900000I150000J0D01*
G01*
X132825000Y-92900000D01*
G75*
G02*
X132975000Y-93050000I0J-150000D01*
G01*
X132975000Y-93350000D01*
G75*
G02*
X132825000Y-93500000I-150000J0D01*
G01*
X131525000Y-93500000D01*
G75*
G02*
X131375000Y-93350000I0J150000D01*
G01*
G37*
G36*
G01*
X131375000Y-94150000D02*
X131375000Y-93850000D01*
G75*
G02*
X131525000Y-93700000I150000J0D01*
G01*
X132825000Y-93700000D01*
G75*
G02*
X132975000Y-93850000I0J-150000D01*
G01*
X132975000Y-94150000D01*
G75*
G02*
X132825000Y-94300000I-150000J0D01*
G01*
X131525000Y-94300000D01*
G75*
G02*
X131375000Y-94150000I0J150000D01*
G01*
G37*
G36*
G01*
X131375000Y-94950000D02*
X131375000Y-94650000D01*
G75*
G02*
X131525000Y-94500000I150000J0D01*
G01*
X132825000Y-94500000D01*
G75*
G02*
X132975000Y-94650000I0J-150000D01*
G01*
X132975000Y-94950000D01*
G75*
G02*
X132825000Y-95100000I-150000J0D01*
G01*
X131525000Y-95100000D01*
G75*
G02*
X131375000Y-94950000I0J150000D01*
G01*
G37*
G36*
G01*
X130500000Y-96825000D02*
X130500000Y-95525000D01*
G75*
G02*
X130650000Y-95375000I150000J0D01*
G01*
X130950000Y-95375000D01*
G75*
G02*
X131100000Y-95525000I0J-150000D01*
G01*
X131100000Y-96825000D01*
G75*
G02*
X130950000Y-96975000I-150000J0D01*
G01*
X130650000Y-96975000D01*
G75*
G02*
X130500000Y-96825000I0J150000D01*
G01*
G37*
G36*
G01*
X129700000Y-96825000D02*
X129700000Y-95525000D01*
G75*
G02*
X129850000Y-95375000I150000J0D01*
G01*
X130150000Y-95375000D01*
G75*
G02*
X130300000Y-95525000I0J-150000D01*
G01*
X130300000Y-96825000D01*
G75*
G02*
X130150000Y-96975000I-150000J0D01*
G01*
X129850000Y-96975000D01*
G75*
G02*
X129700000Y-96825000I0J150000D01*
G01*
G37*
G36*
G01*
X128900000Y-96825000D02*
X128900000Y-95525000D01*
G75*
G02*
X129050000Y-95375000I150000J0D01*
G01*
X129350000Y-95375000D01*
G75*
G02*
X129500000Y-95525000I0J-150000D01*
G01*
X129500000Y-96825000D01*
G75*
G02*
X129350000Y-96975000I-150000J0D01*
G01*
X129050000Y-96975000D01*
G75*
G02*
X128900000Y-96825000I0J150000D01*
G01*
G37*
G36*
G01*
X128100000Y-96825000D02*
X128100000Y-95525000D01*
G75*
G02*
X128250000Y-95375000I150000J0D01*
G01*
X128550000Y-95375000D01*
G75*
G02*
X128700000Y-95525000I0J-150000D01*
G01*
X128700000Y-96825000D01*
G75*
G02*
X128550000Y-96975000I-150000J0D01*
G01*
X128250000Y-96975000D01*
G75*
G02*
X128100000Y-96825000I0J150000D01*
G01*
G37*
G36*
G01*
X127300000Y-96825000D02*
X127300000Y-95525000D01*
G75*
G02*
X127450000Y-95375000I150000J0D01*
G01*
X127750000Y-95375000D01*
G75*
G02*
X127900000Y-95525000I0J-150000D01*
G01*
X127900000Y-96825000D01*
G75*
G02*
X127750000Y-96975000I-150000J0D01*
G01*
X127450000Y-96975000D01*
G75*
G02*
X127300000Y-96825000I0J150000D01*
G01*
G37*
G36*
G01*
X126500000Y-96825000D02*
X126500000Y-95525000D01*
G75*
G02*
X126650000Y-95375000I150000J0D01*
G01*
X126950000Y-95375000D01*
G75*
G02*
X127100000Y-95525000I0J-150000D01*
G01*
X127100000Y-96825000D01*
G75*
G02*
X126950000Y-96975000I-150000J0D01*
G01*
X126650000Y-96975000D01*
G75*
G02*
X126500000Y-96825000I0J150000D01*
G01*
G37*
G36*
G01*
X125700000Y-96825000D02*
X125700000Y-95525000D01*
G75*
G02*
X125850000Y-95375000I150000J0D01*
G01*
X126150000Y-95375000D01*
G75*
G02*
X126300000Y-95525000I0J-150000D01*
G01*
X126300000Y-96825000D01*
G75*
G02*
X126150000Y-96975000I-150000J0D01*
G01*
X125850000Y-96975000D01*
G75*
G02*
X125700000Y-96825000I0J150000D01*
G01*
G37*
G36*
G01*
X124900000Y-96825000D02*
X124900000Y-95525000D01*
G75*
G02*
X125050000Y-95375000I150000J0D01*
G01*
X125350000Y-95375000D01*
G75*
G02*
X125500000Y-95525000I0J-150000D01*
G01*
X125500000Y-96825000D01*
G75*
G02*
X125350000Y-96975000I-150000J0D01*
G01*
X125050000Y-96975000D01*
G75*
G02*
X124900000Y-96825000I0J150000D01*
G01*
G37*
G36*
G01*
X123025000Y-94950000D02*
X123025000Y-94650000D01*
G75*
G02*
X123175000Y-94500000I150000J0D01*
G01*
X124475000Y-94500000D01*
G75*
G02*
X124625000Y-94650000I0J-150000D01*
G01*
X124625000Y-94950000D01*
G75*
G02*
X124475000Y-95100000I-150000J0D01*
G01*
X123175000Y-95100000D01*
G75*
G02*
X123025000Y-94950000I0J150000D01*
G01*
G37*
G36*
G01*
X123025000Y-94150000D02*
X123025000Y-93850000D01*
G75*
G02*
X123175000Y-93700000I150000J0D01*
G01*
X124475000Y-93700000D01*
G75*
G02*
X124625000Y-93850000I0J-150000D01*
G01*
X124625000Y-94150000D01*
G75*
G02*
X124475000Y-94300000I-150000J0D01*
G01*
X123175000Y-94300000D01*
G75*
G02*
X123025000Y-94150000I0J150000D01*
G01*
G37*
G36*
G01*
X123025000Y-93350000D02*
X123025000Y-93050000D01*
G75*
G02*
X123175000Y-92900000I150000J0D01*
G01*
X124475000Y-92900000D01*
G75*
G02*
X124625000Y-93050000I0J-150000D01*
G01*
X124625000Y-93350000D01*
G75*
G02*
X124475000Y-93500000I-150000J0D01*
G01*
X123175000Y-93500000D01*
G75*
G02*
X123025000Y-93350000I0J150000D01*
G01*
G37*
G36*
G01*
X123025000Y-92550000D02*
X123025000Y-92250000D01*
G75*
G02*
X123175000Y-92100000I150000J0D01*
G01*
X124475000Y-92100000D01*
G75*
G02*
X124625000Y-92250000I0J-150000D01*
G01*
X124625000Y-92550000D01*
G75*
G02*
X124475000Y-92700000I-150000J0D01*
G01*
X123175000Y-92700000D01*
G75*
G02*
X123025000Y-92550000I0J150000D01*
G01*
G37*
G36*
G01*
X123025000Y-91750000D02*
X123025000Y-91450000D01*
G75*
G02*
X123175000Y-91300000I150000J0D01*
G01*
X124475000Y-91300000D01*
G75*
G02*
X124625000Y-91450000I0J-150000D01*
G01*
X124625000Y-91750000D01*
G75*
G02*
X124475000Y-91900000I-150000J0D01*
G01*
X123175000Y-91900000D01*
G75*
G02*
X123025000Y-91750000I0J150000D01*
G01*
G37*
G36*
G01*
X123025000Y-90950000D02*
X123025000Y-90650000D01*
G75*
G02*
X123175000Y-90500000I150000J0D01*
G01*
X124475000Y-90500000D01*
G75*
G02*
X124625000Y-90650000I0J-150000D01*
G01*
X124625000Y-90950000D01*
G75*
G02*
X124475000Y-91100000I-150000J0D01*
G01*
X123175000Y-91100000D01*
G75*
G02*
X123025000Y-90950000I0J150000D01*
G01*
G37*
G36*
G01*
X123025000Y-90150000D02*
X123025000Y-89850000D01*
G75*
G02*
X123175000Y-89700000I150000J0D01*
G01*
X124475000Y-89700000D01*
G75*
G02*
X124625000Y-89850000I0J-150000D01*
G01*
X124625000Y-90150000D01*
G75*
G02*
X124475000Y-90300000I-150000J0D01*
G01*
X123175000Y-90300000D01*
G75*
G02*
X123025000Y-90150000I0J150000D01*
G01*
G37*
G36*
G01*
X123025000Y-89350000D02*
X123025000Y-89050000D01*
G75*
G02*
X123175000Y-88900000I150000J0D01*
G01*
X124475000Y-88900000D01*
G75*
G02*
X124625000Y-89050000I0J-150000D01*
G01*
X124625000Y-89350000D01*
G75*
G02*
X124475000Y-89500000I-150000J0D01*
G01*
X123175000Y-89500000D01*
G75*
G02*
X123025000Y-89350000I0J150000D01*
G01*
G37*
X126780000Y-74000000D03*
X124240000Y-74000000D03*
X121700000Y-74000000D03*
X119160000Y-74000000D03*
X116620000Y-74000000D03*
X114080000Y-74000000D03*
X111540000Y-74000000D03*
G36*
G01*
X109850000Y-74900000D02*
X108150000Y-74900000D01*
G75*
G02*
X108100000Y-74850000I0J50000D01*
G01*
X108100000Y-73150000D01*
G75*
G02*
X108150000Y-73100000I50000J0D01*
G01*
X109850000Y-73100000D01*
G75*
G02*
X109900000Y-73150000I0J-50000D01*
G01*
X109900000Y-74850000D01*
G75*
G02*
X109850000Y-74900000I-50000J0D01*
G01*
G37*
G36*
G01*
X122823250Y-86770400D02*
X123785750Y-86770400D01*
G75*
G02*
X124054500Y-87039150I0J-268750D01*
G01*
X124054500Y-87576650D01*
G75*
G02*
X123785750Y-87845400I-268750J0D01*
G01*
X122823250Y-87845400D01*
G75*
G02*
X122554500Y-87576650I0J268750D01*
G01*
X122554500Y-87039150D01*
G75*
G02*
X122823250Y-86770400I268750J0D01*
G01*
G37*
G36*
G01*
X122823250Y-84895400D02*
X123785750Y-84895400D01*
G75*
G02*
X124054500Y-85164150I0J-268750D01*
G01*
X124054500Y-85701650D01*
G75*
G02*
X123785750Y-85970400I-268750J0D01*
G01*
X122823250Y-85970400D01*
G75*
G02*
X122554500Y-85701650I0J268750D01*
G01*
X122554500Y-85164150D01*
G75*
G02*
X122823250Y-84895400I268750J0D01*
G01*
G37*
X147100000Y-116000000D03*
X144560000Y-116000000D03*
X142020000Y-116000000D03*
X139480000Y-116000000D03*
X136940000Y-116000000D03*
X134400000Y-116000000D03*
X131860000Y-116000000D03*
X129320000Y-116000000D03*
X126780000Y-116000000D03*
X124240000Y-116000000D03*
X121700000Y-116000000D03*
X119160000Y-116000000D03*
X116620000Y-116000000D03*
X114080000Y-116000000D03*
X111540000Y-116000000D03*
G36*
G01*
X109850000Y-116900000D02*
X108150000Y-116900000D01*
G75*
G02*
X108100000Y-116850000I0J50000D01*
G01*
X108100000Y-115150000D01*
G75*
G02*
X108150000Y-115100000I50000J0D01*
G01*
X109850000Y-115100000D01*
G75*
G02*
X109900000Y-115150000I0J-50000D01*
G01*
X109900000Y-116850000D01*
G75*
G02*
X109850000Y-116900000I-50000J0D01*
G01*
G37*
D14*
X104000000Y-116000000D03*
X104000000Y-74000000D03*
X165000000Y-116000000D03*
X165000000Y-74000000D03*
G36*
G01*
X149550000Y-94800000D02*
X151050000Y-94800000D01*
G75*
G02*
X151100000Y-94850000I0J-50000D01*
G01*
X151100000Y-96850000D01*
G75*
G02*
X151050000Y-96900000I-50000J0D01*
G01*
X149550000Y-96900000D01*
G75*
G02*
X149500000Y-96850000I0J50000D01*
G01*
X149500000Y-94850000D01*
G75*
G02*
X149550000Y-94800000I50000J0D01*
G01*
G37*
G36*
G01*
X144950000Y-94800000D02*
X146450000Y-94800000D01*
G75*
G02*
X146500000Y-94850000I0J-50000D01*
G01*
X146500000Y-96850000D01*
G75*
G02*
X146450000Y-96900000I-50000J0D01*
G01*
X144950000Y-96900000D01*
G75*
G02*
X144900000Y-96850000I0J50000D01*
G01*
X144900000Y-94850000D01*
G75*
G02*
X144950000Y-94800000I50000J0D01*
G01*
G37*
G36*
G01*
X147250000Y-94800000D02*
X148750000Y-94800000D01*
G75*
G02*
X148800000Y-94850000I0J-50000D01*
G01*
X148800000Y-96850000D01*
G75*
G02*
X148750000Y-96900000I-50000J0D01*
G01*
X147250000Y-96900000D01*
G75*
G02*
X147200000Y-96850000I0J50000D01*
G01*
X147200000Y-94850000D01*
G75*
G02*
X147250000Y-94800000I50000J0D01*
G01*
G37*
G36*
G01*
X146100000Y-101100000D02*
X149900000Y-101100000D01*
G75*
G02*
X149950000Y-101150000I0J-50000D01*
G01*
X149950000Y-103150000D01*
G75*
G02*
X149900000Y-103200000I-50000J0D01*
G01*
X146100000Y-103200000D01*
G75*
G02*
X146050000Y-103150000I0J50000D01*
G01*
X146050000Y-101150000D01*
G75*
G02*
X146100000Y-101100000I50000J0D01*
G01*
G37*
D15*
X151000000Y-109500000D03*
X155500000Y-109500000D03*
X151000000Y-116000000D03*
X155500000Y-116000000D03*
G36*
G01*
X123032000Y-79927250D02*
X123032000Y-78964750D01*
G75*
G02*
X123300750Y-78696000I268750J0D01*
G01*
X123838250Y-78696000D01*
G75*
G02*
X124107000Y-78964750I0J-268750D01*
G01*
X124107000Y-79927250D01*
G75*
G02*
X123838250Y-80196000I-268750J0D01*
G01*
X123300750Y-80196000D01*
G75*
G02*
X123032000Y-79927250I0J268750D01*
G01*
G37*
G36*
G01*
X121157000Y-79927250D02*
X121157000Y-78964750D01*
G75*
G02*
X121425750Y-78696000I268750J0D01*
G01*
X121963250Y-78696000D01*
G75*
G02*
X122232000Y-78964750I0J-268750D01*
G01*
X122232000Y-79927250D01*
G75*
G02*
X121963250Y-80196000I-268750J0D01*
G01*
X121425750Y-80196000D01*
G75*
G02*
X121157000Y-79927250I0J268750D01*
G01*
G37*
G36*
G01*
X142481250Y-101537500D02*
X141518750Y-101537500D01*
G75*
G02*
X141250000Y-101268750I0J268750D01*
G01*
X141250000Y-100731250D01*
G75*
G02*
X141518750Y-100462500I268750J0D01*
G01*
X142481250Y-100462500D01*
G75*
G02*
X142750000Y-100731250I0J-268750D01*
G01*
X142750000Y-101268750D01*
G75*
G02*
X142481250Y-101537500I-268750J0D01*
G01*
G37*
G36*
G01*
X142481250Y-103412500D02*
X141518750Y-103412500D01*
G75*
G02*
X141250000Y-103143750I0J268750D01*
G01*
X141250000Y-102606250D01*
G75*
G02*
X141518750Y-102337500I268750J0D01*
G01*
X142481250Y-102337500D01*
G75*
G02*
X142750000Y-102606250I0J-268750D01*
G01*
X142750000Y-103143750D01*
G75*
G02*
X142481250Y-103412500I-268750J0D01*
G01*
G37*
G36*
G01*
X143518750Y-109462500D02*
X144481250Y-109462500D01*
G75*
G02*
X144750000Y-109731250I0J-268750D01*
G01*
X144750000Y-110268750D01*
G75*
G02*
X144481250Y-110537500I-268750J0D01*
G01*
X143518750Y-110537500D01*
G75*
G02*
X143250000Y-110268750I0J268750D01*
G01*
X143250000Y-109731250D01*
G75*
G02*
X143518750Y-109462500I268750J0D01*
G01*
G37*
G36*
G01*
X143518750Y-107587500D02*
X144481250Y-107587500D01*
G75*
G02*
X144750000Y-107856250I0J-268750D01*
G01*
X144750000Y-108393750D01*
G75*
G02*
X144481250Y-108662500I-268750J0D01*
G01*
X143518750Y-108662500D01*
G75*
G02*
X143250000Y-108393750I0J268750D01*
G01*
X143250000Y-107856250D01*
G75*
G02*
X143518750Y-107587500I268750J0D01*
G01*
G37*
G36*
G01*
X139504000Y-92680750D02*
X139504000Y-93643250D01*
G75*
G02*
X139235250Y-93912000I-268750J0D01*
G01*
X138697750Y-93912000D01*
G75*
G02*
X138429000Y-93643250I0J268750D01*
G01*
X138429000Y-92680750D01*
G75*
G02*
X138697750Y-92412000I268750J0D01*
G01*
X139235250Y-92412000D01*
G75*
G02*
X139504000Y-92680750I0J-268750D01*
G01*
G37*
G36*
G01*
X141379000Y-92680750D02*
X141379000Y-93643250D01*
G75*
G02*
X141110250Y-93912000I-268750J0D01*
G01*
X140572750Y-93912000D01*
G75*
G02*
X140304000Y-93643250I0J268750D01*
G01*
X140304000Y-92680750D01*
G75*
G02*
X140572750Y-92412000I268750J0D01*
G01*
X141110250Y-92412000D01*
G75*
G02*
X141379000Y-92680750I0J-268750D01*
G01*
G37*
G36*
G01*
X111818000Y-103094750D02*
X111818000Y-104057250D01*
G75*
G02*
X111549250Y-104326000I-268750J0D01*
G01*
X111011750Y-104326000D01*
G75*
G02*
X110743000Y-104057250I0J268750D01*
G01*
X110743000Y-103094750D01*
G75*
G02*
X111011750Y-102826000I268750J0D01*
G01*
X111549250Y-102826000D01*
G75*
G02*
X111818000Y-103094750I0J-268750D01*
G01*
G37*
G36*
G01*
X113693000Y-103094750D02*
X113693000Y-104057250D01*
G75*
G02*
X113424250Y-104326000I-268750J0D01*
G01*
X112886750Y-104326000D01*
G75*
G02*
X112618000Y-104057250I0J268750D01*
G01*
X112618000Y-103094750D01*
G75*
G02*
X112886750Y-102826000I268750J0D01*
G01*
X113424250Y-102826000D01*
G75*
G02*
X113693000Y-103094750I0J-268750D01*
G01*
G37*
G36*
G01*
X122953500Y-77641250D02*
X122953500Y-76678750D01*
G75*
G02*
X123222250Y-76410000I268750J0D01*
G01*
X123759750Y-76410000D01*
G75*
G02*
X124028500Y-76678750I0J-268750D01*
G01*
X124028500Y-77641250D01*
G75*
G02*
X123759750Y-77910000I-268750J0D01*
G01*
X123222250Y-77910000D01*
G75*
G02*
X122953500Y-77641250I0J268750D01*
G01*
G37*
G36*
G01*
X121078500Y-77641250D02*
X121078500Y-76678750D01*
G75*
G02*
X121347250Y-76410000I268750J0D01*
G01*
X121884750Y-76410000D01*
G75*
G02*
X122153500Y-76678750I0J-268750D01*
G01*
X122153500Y-77641250D01*
G75*
G02*
X121884750Y-77910000I-268750J0D01*
G01*
X121347250Y-77910000D01*
G75*
G02*
X121078500Y-77641250I0J268750D01*
G01*
G37*
G36*
G01*
X141518750Y-97462500D02*
X142481250Y-97462500D01*
G75*
G02*
X142750000Y-97731250I0J-268750D01*
G01*
X142750000Y-98268750D01*
G75*
G02*
X142481250Y-98537500I-268750J0D01*
G01*
X141518750Y-98537500D01*
G75*
G02*
X141250000Y-98268750I0J268750D01*
G01*
X141250000Y-97731250D01*
G75*
G02*
X141518750Y-97462500I268750J0D01*
G01*
G37*
G36*
G01*
X141518750Y-95587500D02*
X142481250Y-95587500D01*
G75*
G02*
X142750000Y-95856250I0J-268750D01*
G01*
X142750000Y-96393750D01*
G75*
G02*
X142481250Y-96662500I-268750J0D01*
G01*
X141518750Y-96662500D01*
G75*
G02*
X141250000Y-96393750I0J268750D01*
G01*
X141250000Y-95856250D01*
G75*
G02*
X141518750Y-95587500I268750J0D01*
G01*
G37*
G36*
G01*
X139481250Y-96600000D02*
X138518750Y-96600000D01*
G75*
G02*
X138250000Y-96331250I0J268750D01*
G01*
X138250000Y-95793750D01*
G75*
G02*
X138518750Y-95525000I268750J0D01*
G01*
X139481250Y-95525000D01*
G75*
G02*
X139750000Y-95793750I0J-268750D01*
G01*
X139750000Y-96331250D01*
G75*
G02*
X139481250Y-96600000I-268750J0D01*
G01*
G37*
G36*
G01*
X139481250Y-98475000D02*
X138518750Y-98475000D01*
G75*
G02*
X138250000Y-98206250I0J268750D01*
G01*
X138250000Y-97668750D01*
G75*
G02*
X138518750Y-97400000I268750J0D01*
G01*
X139481250Y-97400000D01*
G75*
G02*
X139750000Y-97668750I0J-268750D01*
G01*
X139750000Y-98206250D01*
G75*
G02*
X139481250Y-98475000I-268750J0D01*
G01*
G37*
G36*
G01*
X117779250Y-101906000D02*
X116816750Y-101906000D01*
G75*
G02*
X116548000Y-101637250I0J268750D01*
G01*
X116548000Y-101099750D01*
G75*
G02*
X116816750Y-100831000I268750J0D01*
G01*
X117779250Y-100831000D01*
G75*
G02*
X118048000Y-101099750I0J-268750D01*
G01*
X118048000Y-101637250D01*
G75*
G02*
X117779250Y-101906000I-268750J0D01*
G01*
G37*
G36*
G01*
X117779250Y-103781000D02*
X116816750Y-103781000D01*
G75*
G02*
X116548000Y-103512250I0J268750D01*
G01*
X116548000Y-102974750D01*
G75*
G02*
X116816750Y-102706000I268750J0D01*
G01*
X117779250Y-102706000D01*
G75*
G02*
X118048000Y-102974750I0J-268750D01*
G01*
X118048000Y-103512250D01*
G75*
G02*
X117779250Y-103781000I-268750J0D01*
G01*
G37*
G36*
G01*
X149600000Y-105456483D02*
X149600000Y-104543517D01*
G75*
G02*
X149868517Y-104275000I268517J0D01*
G01*
X150831483Y-104275000D01*
G75*
G02*
X151100000Y-104543517I0J-268517D01*
G01*
X151100000Y-105456483D01*
G75*
G02*
X150831483Y-105725000I-268517J0D01*
G01*
X149868517Y-105725000D01*
G75*
G02*
X149600000Y-105456483I0J268517D01*
G01*
G37*
G36*
G01*
X146900000Y-105456483D02*
X146900000Y-104543517D01*
G75*
G02*
X147168517Y-104275000I268517J0D01*
G01*
X148131483Y-104275000D01*
G75*
G02*
X148400000Y-104543517I0J-268517D01*
G01*
X148400000Y-105456483D01*
G75*
G02*
X148131483Y-105725000I-268517J0D01*
G01*
X147168517Y-105725000D01*
G75*
G02*
X146900000Y-105456483I0J268517D01*
G01*
G37*
G36*
G01*
X115655250Y-101900500D02*
X114692750Y-101900500D01*
G75*
G02*
X114424000Y-101631750I0J268750D01*
G01*
X114424000Y-101094250D01*
G75*
G02*
X114692750Y-100825500I268750J0D01*
G01*
X115655250Y-100825500D01*
G75*
G02*
X115924000Y-101094250I0J-268750D01*
G01*
X115924000Y-101631750D01*
G75*
G02*
X115655250Y-101900500I-268750J0D01*
G01*
G37*
G36*
G01*
X115655250Y-103775500D02*
X114692750Y-103775500D01*
G75*
G02*
X114424000Y-103506750I0J268750D01*
G01*
X114424000Y-102969250D01*
G75*
G02*
X114692750Y-102700500I268750J0D01*
G01*
X115655250Y-102700500D01*
G75*
G02*
X115924000Y-102969250I0J-268750D01*
G01*
X115924000Y-103506750D01*
G75*
G02*
X115655250Y-103775500I-268750J0D01*
G01*
G37*
G36*
G01*
X109143250Y-101838000D02*
X108180750Y-101838000D01*
G75*
G02*
X107912000Y-101569250I0J268750D01*
G01*
X107912000Y-101031750D01*
G75*
G02*
X108180750Y-100763000I268750J0D01*
G01*
X109143250Y-100763000D01*
G75*
G02*
X109412000Y-101031750I0J-268750D01*
G01*
X109412000Y-101569250D01*
G75*
G02*
X109143250Y-101838000I-268750J0D01*
G01*
G37*
G36*
G01*
X109143250Y-103713000D02*
X108180750Y-103713000D01*
G75*
G02*
X107912000Y-103444250I0J268750D01*
G01*
X107912000Y-102906750D01*
G75*
G02*
X108180750Y-102638000I268750J0D01*
G01*
X109143250Y-102638000D01*
G75*
G02*
X109412000Y-102906750I0J-268750D01*
G01*
X109412000Y-103444250D01*
G75*
G02*
X109143250Y-103713000I-268750J0D01*
G01*
G37*
G36*
G01*
X141481250Y-108600000D02*
X140518750Y-108600000D01*
G75*
G02*
X140250000Y-108331250I0J268750D01*
G01*
X140250000Y-107793750D01*
G75*
G02*
X140518750Y-107525000I268750J0D01*
G01*
X141481250Y-107525000D01*
G75*
G02*
X141750000Y-107793750I0J-268750D01*
G01*
X141750000Y-108331250D01*
G75*
G02*
X141481250Y-108600000I-268750J0D01*
G01*
G37*
G36*
G01*
X141481250Y-110475000D02*
X140518750Y-110475000D01*
G75*
G02*
X140250000Y-110206250I0J268750D01*
G01*
X140250000Y-109668750D01*
G75*
G02*
X140518750Y-109400000I268750J0D01*
G01*
X141481250Y-109400000D01*
G75*
G02*
X141750000Y-109668750I0J-268750D01*
G01*
X141750000Y-110206250D01*
G75*
G02*
X141481250Y-110475000I-268750J0D01*
G01*
G37*
G36*
G01*
X147600000Y-93456483D02*
X147600000Y-92543517D01*
G75*
G02*
X147868517Y-92275000I268517J0D01*
G01*
X148831483Y-92275000D01*
G75*
G02*
X149100000Y-92543517I0J-268517D01*
G01*
X149100000Y-93456483D01*
G75*
G02*
X148831483Y-93725000I-268517J0D01*
G01*
X147868517Y-93725000D01*
G75*
G02*
X147600000Y-93456483I0J268517D01*
G01*
G37*
G36*
G01*
X144900000Y-93456483D02*
X144900000Y-92543517D01*
G75*
G02*
X145168517Y-92275000I268517J0D01*
G01*
X146131483Y-92275000D01*
G75*
G02*
X146400000Y-92543517I0J-268517D01*
G01*
X146400000Y-93456483D01*
G75*
G02*
X146131483Y-93725000I-268517J0D01*
G01*
X145168517Y-93725000D01*
G75*
G02*
X144900000Y-93456483I0J268517D01*
G01*
G37*
G36*
G01*
X106857250Y-101838000D02*
X105894750Y-101838000D01*
G75*
G02*
X105626000Y-101569250I0J268750D01*
G01*
X105626000Y-101031750D01*
G75*
G02*
X105894750Y-100763000I268750J0D01*
G01*
X106857250Y-100763000D01*
G75*
G02*
X107126000Y-101031750I0J-268750D01*
G01*
X107126000Y-101569250D01*
G75*
G02*
X106857250Y-101838000I-268750J0D01*
G01*
G37*
G36*
G01*
X106857250Y-103713000D02*
X105894750Y-103713000D01*
G75*
G02*
X105626000Y-103444250I0J268750D01*
G01*
X105626000Y-102906750D01*
G75*
G02*
X105894750Y-102638000I268750J0D01*
G01*
X106857250Y-102638000D01*
G75*
G02*
X107126000Y-102906750I0J-268750D01*
G01*
X107126000Y-103444250D01*
G75*
G02*
X106857250Y-103713000I-268750J0D01*
G01*
G37*
G36*
G01*
X134263250Y-97082900D02*
X133300750Y-97082900D01*
G75*
G02*
X133032000Y-96814150I0J268750D01*
G01*
X133032000Y-96276650D01*
G75*
G02*
X133300750Y-96007900I268750J0D01*
G01*
X134263250Y-96007900D01*
G75*
G02*
X134532000Y-96276650I0J-268750D01*
G01*
X134532000Y-96814150D01*
G75*
G02*
X134263250Y-97082900I-268750J0D01*
G01*
G37*
G36*
G01*
X134263250Y-98957900D02*
X133300750Y-98957900D01*
G75*
G02*
X133032000Y-98689150I0J268750D01*
G01*
X133032000Y-98151650D01*
G75*
G02*
X133300750Y-97882900I268750J0D01*
G01*
X134263250Y-97882900D01*
G75*
G02*
X134532000Y-98151650I0J-268750D01*
G01*
X134532000Y-98689150D01*
G75*
G02*
X134263250Y-98957900I-268750J0D01*
G01*
G37*
M02*
