G04 #@! TF.GenerationSoftware,KiCad,Pcbnew,8.0.3+1*
G04 #@! TF.CreationDate,2024-10-12T15:40:48+00:00*
G04 #@! TF.ProjectId,STM32F030K6T6TR_Devel,53544d33-3246-4303-9330-4b3654365452,0.0.2*
G04 #@! TF.SameCoordinates,Original*
G04 #@! TF.FileFunction,Legend,Bot*
G04 #@! TF.FilePolarity,Positive*
%FSLAX46Y46*%
G04 Gerber Fmt 4.6, Leading zero omitted, Abs format (unit mm)*
G04 Created by KiCad (PCBNEW 8.0.3+1) date 2024-10-12 15:40:48*
%MOMM*%
%LPD*%
G01*
G04 APERTURE LIST*
%ADD10C,2.800000*%
%ADD11C,2.100000*%
%ADD12O,1.800000X1.800000*%
G04 APERTURE END LIST*
%LPC*%
D10*
X165000000Y-116000000D03*
X165000000Y-74000000D03*
X104000000Y-74000000D03*
X104000000Y-116000000D03*
D11*
X151000000Y-116000000D03*
X151000000Y-109500000D03*
X155500000Y-116000000D03*
X155500000Y-109500000D03*
G36*
G01*
X109850000Y-74900000D02*
X108150000Y-74900000D01*
G75*
G02*
X108100000Y-74850000I0J50000D01*
G01*
X108100000Y-73150000D01*
G75*
G02*
X108150000Y-73100000I50000J0D01*
G01*
X109850000Y-73100000D01*
G75*
G02*
X109900000Y-73150000I0J-50000D01*
G01*
X109900000Y-74850000D01*
G75*
G02*
X109850000Y-74900000I-50000J0D01*
G01*
G37*
D12*
X111540000Y-74000000D03*
X114080000Y-74000000D03*
X116620000Y-74000000D03*
X119160000Y-74000000D03*
X121700000Y-74000000D03*
X124240000Y-74000000D03*
X126780000Y-74000000D03*
G36*
G01*
X109850000Y-116900000D02*
X108150000Y-116900000D01*
G75*
G02*
X108100000Y-116850000I0J50000D01*
G01*
X108100000Y-115150000D01*
G75*
G02*
X108150000Y-115100000I50000J0D01*
G01*
X109850000Y-115100000D01*
G75*
G02*
X109900000Y-115150000I0J-50000D01*
G01*
X109900000Y-116850000D01*
G75*
G02*
X109850000Y-116900000I-50000J0D01*
G01*
G37*
X111540000Y-116000000D03*
X114080000Y-116000000D03*
X116620000Y-116000000D03*
X119160000Y-116000000D03*
X121700000Y-116000000D03*
X124240000Y-116000000D03*
X126780000Y-116000000D03*
X129320000Y-116000000D03*
X131860000Y-116000000D03*
X134400000Y-116000000D03*
X136940000Y-116000000D03*
X139480000Y-116000000D03*
X142020000Y-116000000D03*
X144560000Y-116000000D03*
X147100000Y-116000000D03*
G36*
G01*
X143788700Y-74900000D02*
X142088700Y-74900000D01*
G75*
G02*
X142038700Y-74850000I0J50000D01*
G01*
X142038700Y-73150000D01*
G75*
G02*
X142088700Y-73100000I50000J0D01*
G01*
X143788700Y-73100000D01*
G75*
G02*
X143838700Y-73150000I0J-50000D01*
G01*
X143838700Y-74850000D01*
G75*
G02*
X143788700Y-74900000I-50000J0D01*
G01*
G37*
X145478700Y-74000000D03*
X148018700Y-74000000D03*
X150558700Y-74000000D03*
X153098700Y-74000000D03*
X155638700Y-74000000D03*
G36*
G01*
X147181400Y-78536200D02*
X148881400Y-78536200D01*
G75*
G02*
X148931400Y-78586200I0J-50000D01*
G01*
X148931400Y-80286200D01*
G75*
G02*
X148881400Y-80336200I-50000J0D01*
G01*
X147181400Y-80336200D01*
G75*
G02*
X147131400Y-80286200I0J50000D01*
G01*
X147131400Y-78586200D01*
G75*
G02*
X147181400Y-78536200I50000J0D01*
G01*
G37*
X148031400Y-81976200D03*
X145491400Y-79436200D03*
X145491400Y-81976200D03*
X142951400Y-79436200D03*
X142951400Y-81976200D03*
G36*
G01*
X105447400Y-98802000D02*
X103747400Y-98802000D01*
G75*
G02*
X103697400Y-98752000I0J50000D01*
G01*
X103697400Y-97052000D01*
G75*
G02*
X103747400Y-97002000I50000J0D01*
G01*
X105447400Y-97002000D01*
G75*
G02*
X105497400Y-97052000I0J-50000D01*
G01*
X105497400Y-98752000D01*
G75*
G02*
X105447400Y-98802000I-50000J0D01*
G01*
G37*
X104597400Y-95362000D03*
X107137400Y-97902000D03*
X107137400Y-95362000D03*
X109677400Y-97902000D03*
X109677400Y-95362000D03*
G36*
G01*
X162854000Y-96212000D02*
X162854000Y-94512000D01*
G75*
G02*
X162904000Y-94462000I50000J0D01*
G01*
X164604000Y-94462000D01*
G75*
G02*
X164654000Y-94512000I0J-50000D01*
G01*
X164654000Y-96212000D01*
G75*
G02*
X164604000Y-96262000I-50000J0D01*
G01*
X162904000Y-96262000D01*
G75*
G02*
X162854000Y-96212000I0J50000D01*
G01*
G37*
X163754000Y-97902000D03*
X163754000Y-100442000D03*
X163754000Y-102982000D03*
X163754000Y-105522000D03*
X163754000Y-108062000D03*
%LPD*%
M02*
