G04 #@! TF.GenerationSoftware,KiCad,Pcbnew,5.1.10-88a1d61d58~90~ubuntu21.04.1*
G04 #@! TF.CreationDate,2021-08-23T11:11:00+02:00*
G04 #@! TF.ProjectId,STM32F030K6T6TR_Devel,53544d33-3246-4303-9330-4b3654365452,0.0.2*
G04 #@! TF.SameCoordinates,Original*
G04 #@! TF.FileFunction,Soldermask,Top*
G04 #@! TF.FilePolarity,Negative*
%FSLAX46Y46*%
G04 Gerber Fmt 4.6, Leading zero omitted, Abs format (unit mm)*
G04 Created by KiCad (PCBNEW 5.1.10-88a1d61d58~90~ubuntu21.04.1) date 2021-08-23 11:11:00*
%MOMM*%
%LPD*%
G01*
G04 APERTURE LIST*
%ADD10O,1.800000X1.800000*%
%ADD11O,1.100000X1.100000*%
%ADD12C,2.800000*%
%ADD13C,2.100000*%
G04 APERTURE END LIST*
G36*
G01*
X122383800Y-82409350D02*
X122383800Y-83371850D01*
G75*
G02*
X122115050Y-83640600I-268750J0D01*
G01*
X121577550Y-83640600D01*
G75*
G02*
X121308800Y-83371850I0J268750D01*
G01*
X121308800Y-82409350D01*
G75*
G02*
X121577550Y-82140600I268750J0D01*
G01*
X122115050Y-82140600D01*
G75*
G02*
X122383800Y-82409350I0J-268750D01*
G01*
G37*
G36*
G01*
X124258800Y-82409350D02*
X124258800Y-83371850D01*
G75*
G02*
X123990050Y-83640600I-268750J0D01*
G01*
X123452550Y-83640600D01*
G75*
G02*
X123183800Y-83371850I0J268750D01*
G01*
X123183800Y-82409350D01*
G75*
G02*
X123452550Y-82140600I268750J0D01*
G01*
X123990050Y-82140600D01*
G75*
G02*
X124258800Y-82409350I0J-268750D01*
G01*
G37*
G36*
G01*
X116243000Y-80097801D02*
X116243000Y-78977799D01*
G75*
G02*
X116292999Y-78927800I49999J0D01*
G01*
X118733001Y-78927800D01*
G75*
G02*
X118783000Y-78977799I0J-49999D01*
G01*
X118783000Y-80097801D01*
G75*
G02*
X118733001Y-80147800I-49999J0D01*
G01*
X116292999Y-80147800D01*
G75*
G02*
X116243000Y-80097801I0J49999D01*
G01*
G37*
G36*
G01*
X107633000Y-82637801D02*
X107633000Y-81517799D01*
G75*
G02*
X107682999Y-81467800I49999J0D01*
G01*
X110123001Y-81467800D01*
G75*
G02*
X110173000Y-81517799I0J-49999D01*
G01*
X110173000Y-82637801D01*
G75*
G02*
X110123001Y-82687800I-49999J0D01*
G01*
X107682999Y-82687800D01*
G75*
G02*
X107633000Y-82637801I0J49999D01*
G01*
G37*
G36*
G01*
X116243000Y-82637801D02*
X116243000Y-81517799D01*
G75*
G02*
X116292999Y-81467800I49999J0D01*
G01*
X118733001Y-81467800D01*
G75*
G02*
X118783000Y-81517799I0J-49999D01*
G01*
X118783000Y-82637801D01*
G75*
G02*
X118733001Y-82687800I-49999J0D01*
G01*
X116292999Y-82687800D01*
G75*
G02*
X116243000Y-82637801I0J49999D01*
G01*
G37*
G36*
G01*
X107633000Y-80097801D02*
X107633000Y-78977799D01*
G75*
G02*
X107682999Y-78927800I49999J0D01*
G01*
X110123001Y-78927800D01*
G75*
G02*
X110173000Y-78977799I0J-49999D01*
G01*
X110173000Y-80097801D01*
G75*
G02*
X110123001Y-80147800I-49999J0D01*
G01*
X107682999Y-80147800D01*
G75*
G02*
X107633000Y-80097801I0J49999D01*
G01*
G37*
D10*
X109677400Y-95362000D03*
X109677400Y-97902000D03*
X107137400Y-95362000D03*
X107137400Y-97902000D03*
X104597400Y-95362000D03*
G36*
G01*
X105447400Y-98802000D02*
X103747400Y-98802000D01*
G75*
G02*
X103697400Y-98752000I0J50000D01*
G01*
X103697400Y-97052000D01*
G75*
G02*
X103747400Y-97002000I50000J0D01*
G01*
X105447400Y-97002000D01*
G75*
G02*
X105497400Y-97052000I0J-50000D01*
G01*
X105497400Y-98752000D01*
G75*
G02*
X105447400Y-98802000I-50000J0D01*
G01*
G37*
X142951400Y-81976200D03*
X142951400Y-79436200D03*
X145491400Y-81976200D03*
X145491400Y-79436200D03*
X148031400Y-81976200D03*
G36*
G01*
X147181400Y-78536200D02*
X148881400Y-78536200D01*
G75*
G02*
X148931400Y-78586200I0J-50000D01*
G01*
X148931400Y-80286200D01*
G75*
G02*
X148881400Y-80336200I-50000J0D01*
G01*
X147181400Y-80336200D01*
G75*
G02*
X147131400Y-80286200I0J50000D01*
G01*
X147131400Y-78586200D01*
G75*
G02*
X147181400Y-78536200I50000J0D01*
G01*
G37*
X155638700Y-74000000D03*
X153098700Y-74000000D03*
X150558700Y-74000000D03*
X148018700Y-74000000D03*
X145478700Y-74000000D03*
G36*
G01*
X143788700Y-74900000D02*
X142088700Y-74900000D01*
G75*
G02*
X142038700Y-74850000I0J50000D01*
G01*
X142038700Y-73150000D01*
G75*
G02*
X142088700Y-73100000I50000J0D01*
G01*
X143788700Y-73100000D01*
G75*
G02*
X143838700Y-73150000I0J-50000D01*
G01*
X143838700Y-74850000D01*
G75*
G02*
X143788700Y-74900000I-50000J0D01*
G01*
G37*
G36*
G01*
X107132400Y-91035650D02*
X107132400Y-91998150D01*
G75*
G02*
X106863650Y-92266900I-268750J0D01*
G01*
X106326150Y-92266900D01*
G75*
G02*
X106057400Y-91998150I0J268750D01*
G01*
X106057400Y-91035650D01*
G75*
G02*
X106326150Y-90766900I268750J0D01*
G01*
X106863650Y-90766900D01*
G75*
G02*
X107132400Y-91035650I0J-268750D01*
G01*
G37*
G36*
G01*
X109007400Y-91035650D02*
X109007400Y-91998150D01*
G75*
G02*
X108738650Y-92266900I-268750J0D01*
G01*
X108201150Y-92266900D01*
G75*
G02*
X107932400Y-91998150I0J268750D01*
G01*
X107932400Y-91035650D01*
G75*
G02*
X108201150Y-90766900I268750J0D01*
G01*
X108738650Y-90766900D01*
G75*
G02*
X109007400Y-91035650I0J-268750D01*
G01*
G37*
G36*
G01*
X107069900Y-87035650D02*
X107069900Y-87998150D01*
G75*
G02*
X106801150Y-88266900I-268750J0D01*
G01*
X106263650Y-88266900D01*
G75*
G02*
X105994900Y-87998150I0J268750D01*
G01*
X105994900Y-87035650D01*
G75*
G02*
X106263650Y-86766900I268750J0D01*
G01*
X106801150Y-86766900D01*
G75*
G02*
X107069900Y-87035650I0J-268750D01*
G01*
G37*
G36*
G01*
X108944900Y-87035650D02*
X108944900Y-87998150D01*
G75*
G02*
X108676150Y-88266900I-268750J0D01*
G01*
X108138650Y-88266900D01*
G75*
G02*
X107869900Y-87998150I0J268750D01*
G01*
X107869900Y-87035650D01*
G75*
G02*
X108138650Y-86766900I268750J0D01*
G01*
X108676150Y-86766900D01*
G75*
G02*
X108944900Y-87035650I0J-268750D01*
G01*
G37*
G36*
G01*
X111269900Y-90316900D02*
X113669900Y-90316900D01*
G75*
G02*
X113719900Y-90366900I0J-50000D01*
G01*
X113719900Y-92366900D01*
G75*
G02*
X113669900Y-92416900I-50000J0D01*
G01*
X111269900Y-92416900D01*
G75*
G02*
X111219900Y-92366900I0J50000D01*
G01*
X111219900Y-90366900D01*
G75*
G02*
X111269900Y-90316900I50000J0D01*
G01*
G37*
G36*
G01*
X111269900Y-86616900D02*
X113669900Y-86616900D01*
G75*
G02*
X113719900Y-86666900I0J-50000D01*
G01*
X113719900Y-88666900D01*
G75*
G02*
X113669900Y-88716900I-50000J0D01*
G01*
X111269900Y-88716900D01*
G75*
G02*
X111219900Y-88666900I0J50000D01*
G01*
X111219900Y-86666900D01*
G75*
G02*
X111269900Y-86616900I50000J0D01*
G01*
G37*
G36*
G01*
X124900000Y-88475000D02*
X124900000Y-87175000D01*
G75*
G02*
X125050000Y-87025000I150000J0D01*
G01*
X125350000Y-87025000D01*
G75*
G02*
X125500000Y-87175000I0J-150000D01*
G01*
X125500000Y-88475000D01*
G75*
G02*
X125350000Y-88625000I-150000J0D01*
G01*
X125050000Y-88625000D01*
G75*
G02*
X124900000Y-88475000I0J150000D01*
G01*
G37*
G36*
G01*
X125700000Y-88475000D02*
X125700000Y-87175000D01*
G75*
G02*
X125850000Y-87025000I150000J0D01*
G01*
X126150000Y-87025000D01*
G75*
G02*
X126300000Y-87175000I0J-150000D01*
G01*
X126300000Y-88475000D01*
G75*
G02*
X126150000Y-88625000I-150000J0D01*
G01*
X125850000Y-88625000D01*
G75*
G02*
X125700000Y-88475000I0J150000D01*
G01*
G37*
G36*
G01*
X126500000Y-88475000D02*
X126500000Y-87175000D01*
G75*
G02*
X126650000Y-87025000I150000J0D01*
G01*
X126950000Y-87025000D01*
G75*
G02*
X127100000Y-87175000I0J-150000D01*
G01*
X127100000Y-88475000D01*
G75*
G02*
X126950000Y-88625000I-150000J0D01*
G01*
X126650000Y-88625000D01*
G75*
G02*
X126500000Y-88475000I0J150000D01*
G01*
G37*
G36*
G01*
X127300000Y-88475000D02*
X127300000Y-87175000D01*
G75*
G02*
X127450000Y-87025000I150000J0D01*
G01*
X127750000Y-87025000D01*
G75*
G02*
X127900000Y-87175000I0J-150000D01*
G01*
X127900000Y-88475000D01*
G75*
G02*
X127750000Y-88625000I-150000J0D01*
G01*
X127450000Y-88625000D01*
G75*
G02*
X127300000Y-88475000I0J150000D01*
G01*
G37*
G36*
G01*
X128100000Y-88475000D02*
X128100000Y-87175000D01*
G75*
G02*
X128250000Y-87025000I150000J0D01*
G01*
X128550000Y-87025000D01*
G75*
G02*
X128700000Y-87175000I0J-150000D01*
G01*
X128700000Y-88475000D01*
G75*
G02*
X128550000Y-88625000I-150000J0D01*
G01*
X128250000Y-88625000D01*
G75*
G02*
X128100000Y-88475000I0J150000D01*
G01*
G37*
G36*
G01*
X128900000Y-88475000D02*
X128900000Y-87175000D01*
G75*
G02*
X129050000Y-87025000I150000J0D01*
G01*
X129350000Y-87025000D01*
G75*
G02*
X129500000Y-87175000I0J-150000D01*
G01*
X129500000Y-88475000D01*
G75*
G02*
X129350000Y-88625000I-150000J0D01*
G01*
X129050000Y-88625000D01*
G75*
G02*
X128900000Y-88475000I0J150000D01*
G01*
G37*
G36*
G01*
X129700000Y-88475000D02*
X129700000Y-87175000D01*
G75*
G02*
X129850000Y-87025000I150000J0D01*
G01*
X130150000Y-87025000D01*
G75*
G02*
X130300000Y-87175000I0J-150000D01*
G01*
X130300000Y-88475000D01*
G75*
G02*
X130150000Y-88625000I-150000J0D01*
G01*
X129850000Y-88625000D01*
G75*
G02*
X129700000Y-88475000I0J150000D01*
G01*
G37*
G36*
G01*
X130500000Y-88475000D02*
X130500000Y-87175000D01*
G75*
G02*
X130650000Y-87025000I150000J0D01*
G01*
X130950000Y-87025000D01*
G75*
G02*
X131100000Y-87175000I0J-150000D01*
G01*
X131100000Y-88475000D01*
G75*
G02*
X130950000Y-88625000I-150000J0D01*
G01*
X130650000Y-88625000D01*
G75*
G02*
X130500000Y-88475000I0J150000D01*
G01*
G37*
G36*
G01*
X131375000Y-89350000D02*
X131375000Y-89050000D01*
G75*
G02*
X131525000Y-88900000I150000J0D01*
G01*
X132825000Y-88900000D01*
G75*
G02*
X132975000Y-89050000I0J-150000D01*
G01*
X132975000Y-89350000D01*
G75*
G02*
X132825000Y-89500000I-150000J0D01*
G01*
X131525000Y-89500000D01*
G75*
G02*
X131375000Y-89350000I0J150000D01*
G01*
G37*
G36*
G01*
X131375000Y-90150000D02*
X131375000Y-89850000D01*
G75*
G02*
X131525000Y-89700000I150000J0D01*
G01*
X132825000Y-89700000D01*
G75*
G02*
X132975000Y-89850000I0J-150000D01*
G01*
X132975000Y-90150000D01*
G75*
G02*
X132825000Y-90300000I-150000J0D01*
G01*
X131525000Y-90300000D01*
G75*
G02*
X131375000Y-90150000I0J150000D01*
G01*
G37*
G36*
G01*
X131375000Y-90950000D02*
X131375000Y-90650000D01*
G75*
G02*
X131525000Y-90500000I150000J0D01*
G01*
X132825000Y-90500000D01*
G75*
G02*
X132975000Y-90650000I0J-150000D01*
G01*
X132975000Y-90950000D01*
G75*
G02*
X132825000Y-91100000I-150000J0D01*
G01*
X131525000Y-91100000D01*
G75*
G02*
X131375000Y-90950000I0J150000D01*
G01*
G37*
G36*
G01*
X131375000Y-91750000D02*
X131375000Y-91450000D01*
G75*
G02*
X131525000Y-91300000I150000J0D01*
G01*
X132825000Y-91300000D01*
G75*
G02*
X132975000Y-91450000I0J-150000D01*
G01*
X132975000Y-91750000D01*
G75*
G02*
X132825000Y-91900000I-150000J0D01*
G01*
X131525000Y-91900000D01*
G75*
G02*
X131375000Y-91750000I0J150000D01*
G01*
G37*
G36*
G01*
X131375000Y-92550000D02*
X131375000Y-92250000D01*
G75*
G02*
X131525000Y-92100000I150000J0D01*
G01*
X132825000Y-92100000D01*
G75*
G02*
X132975000Y-92250000I0J-150000D01*
G01*
X132975000Y-92550000D01*
G75*
G02*
X132825000Y-92700000I-150000J0D01*
G01*
X131525000Y-92700000D01*
G75*
G02*
X131375000Y-92550000I0J150000D01*
G01*
G37*
G36*
G01*
X131375000Y-93350000D02*
X131375000Y-93050000D01*
G75*
G02*
X131525000Y-92900000I150000J0D01*
G01*
X132825000Y-92900000D01*
G75*
G02*
X132975000Y-93050000I0J-150000D01*
G01*
X132975000Y-93350000D01*
G75*
G02*
X132825000Y-93500000I-150000J0D01*
G01*
X131525000Y-93500000D01*
G75*
G02*
X131375000Y-93350000I0J150000D01*
G01*
G37*
G36*
G01*
X131375000Y-94150000D02*
X131375000Y-93850000D01*
G75*
G02*
X131525000Y-93700000I150000J0D01*
G01*
X132825000Y-93700000D01*
G75*
G02*
X132975000Y-93850000I0J-150000D01*
G01*
X132975000Y-94150000D01*
G75*
G02*
X132825000Y-94300000I-150000J0D01*
G01*
X131525000Y-94300000D01*
G75*
G02*
X131375000Y-94150000I0J150000D01*
G01*
G37*
G36*
G01*
X131375000Y-94950000D02*
X131375000Y-94650000D01*
G75*
G02*
X131525000Y-94500000I150000J0D01*
G01*
X132825000Y-94500000D01*
G75*
G02*
X132975000Y-94650000I0J-150000D01*
G01*
X132975000Y-94950000D01*
G75*
G02*
X132825000Y-95100000I-150000J0D01*
G01*
X131525000Y-95100000D01*
G75*
G02*
X131375000Y-94950000I0J150000D01*
G01*
G37*
G36*
G01*
X130500000Y-96825000D02*
X130500000Y-95525000D01*
G75*
G02*
X130650000Y-95375000I150000J0D01*
G01*
X130950000Y-95375000D01*
G75*
G02*
X131100000Y-95525000I0J-150000D01*
G01*
X131100000Y-96825000D01*
G75*
G02*
X130950000Y-96975000I-150000J0D01*
G01*
X130650000Y-96975000D01*
G75*
G02*
X130500000Y-96825000I0J150000D01*
G01*
G37*
G36*
G01*
X129700000Y-96825000D02*
X129700000Y-95525000D01*
G75*
G02*
X129850000Y-95375000I150000J0D01*
G01*
X130150000Y-95375000D01*
G75*
G02*
X130300000Y-95525000I0J-150000D01*
G01*
X130300000Y-96825000D01*
G75*
G02*
X130150000Y-96975000I-150000J0D01*
G01*
X129850000Y-96975000D01*
G75*
G02*
X129700000Y-96825000I0J150000D01*
G01*
G37*
G36*
G01*
X128900000Y-96825000D02*
X128900000Y-95525000D01*
G75*
G02*
X129050000Y-95375000I150000J0D01*
G01*
X129350000Y-95375000D01*
G75*
G02*
X129500000Y-95525000I0J-150000D01*
G01*
X129500000Y-96825000D01*
G75*
G02*
X129350000Y-96975000I-150000J0D01*
G01*
X129050000Y-96975000D01*
G75*
G02*
X128900000Y-96825000I0J150000D01*
G01*
G37*
G36*
G01*
X128100000Y-96825000D02*
X128100000Y-95525000D01*
G75*
G02*
X128250000Y-95375000I150000J0D01*
G01*
X128550000Y-95375000D01*
G75*
G02*
X128700000Y-95525000I0J-150000D01*
G01*
X128700000Y-96825000D01*
G75*
G02*
X128550000Y-96975000I-150000J0D01*
G01*
X128250000Y-96975000D01*
G75*
G02*
X128100000Y-96825000I0J150000D01*
G01*
G37*
G36*
G01*
X127300000Y-96825000D02*
X127300000Y-95525000D01*
G75*
G02*
X127450000Y-95375000I150000J0D01*
G01*
X127750000Y-95375000D01*
G75*
G02*
X127900000Y-95525000I0J-150000D01*
G01*
X127900000Y-96825000D01*
G75*
G02*
X127750000Y-96975000I-150000J0D01*
G01*
X127450000Y-96975000D01*
G75*
G02*
X127300000Y-96825000I0J150000D01*
G01*
G37*
G36*
G01*
X126500000Y-96825000D02*
X126500000Y-95525000D01*
G75*
G02*
X126650000Y-95375000I150000J0D01*
G01*
X126950000Y-95375000D01*
G75*
G02*
X127100000Y-95525000I0J-150000D01*
G01*
X127100000Y-96825000D01*
G75*
G02*
X126950000Y-96975000I-150000J0D01*
G01*
X126650000Y-96975000D01*
G75*
G02*
X126500000Y-96825000I0J150000D01*
G01*
G37*
G36*
G01*
X125700000Y-96825000D02*
X125700000Y-95525000D01*
G75*
G02*
X125850000Y-95375000I150000J0D01*
G01*
X126150000Y-95375000D01*
G75*
G02*
X126300000Y-95525000I0J-150000D01*
G01*
X126300000Y-96825000D01*
G75*
G02*
X126150000Y-96975000I-150000J0D01*
G01*
X125850000Y-96975000D01*
G75*
G02*
X125700000Y-96825000I0J150000D01*
G01*
G37*
G36*
G01*
X124900000Y-96825000D02*
X124900000Y-95525000D01*
G75*
G02*
X125050000Y-95375000I150000J0D01*
G01*
X125350000Y-95375000D01*
G75*
G02*
X125500000Y-95525000I0J-150000D01*
G01*
X125500000Y-96825000D01*
G75*
G02*
X125350000Y-96975000I-150000J0D01*
G01*
X125050000Y-96975000D01*
G75*
G02*
X124900000Y-96825000I0J150000D01*
G01*
G37*
G36*
G01*
X123025000Y-94950000D02*
X123025000Y-94650000D01*
G75*
G02*
X123175000Y-94500000I150000J0D01*
G01*
X124475000Y-94500000D01*
G75*
G02*
X124625000Y-94650000I0J-150000D01*
G01*
X124625000Y-94950000D01*
G75*
G02*
X124475000Y-95100000I-150000J0D01*
G01*
X123175000Y-95100000D01*
G75*
G02*
X123025000Y-94950000I0J150000D01*
G01*
G37*
G36*
G01*
X123025000Y-94150000D02*
X123025000Y-93850000D01*
G75*
G02*
X123175000Y-93700000I150000J0D01*
G01*
X124475000Y-93700000D01*
G75*
G02*
X124625000Y-93850000I0J-150000D01*
G01*
X124625000Y-94150000D01*
G75*
G02*
X124475000Y-94300000I-150000J0D01*
G01*
X123175000Y-94300000D01*
G75*
G02*
X123025000Y-94150000I0J150000D01*
G01*
G37*
G36*
G01*
X123025000Y-93350000D02*
X123025000Y-93050000D01*
G75*
G02*
X123175000Y-92900000I150000J0D01*
G01*
X124475000Y-92900000D01*
G75*
G02*
X124625000Y-93050000I0J-150000D01*
G01*
X124625000Y-93350000D01*
G75*
G02*
X124475000Y-93500000I-150000J0D01*
G01*
X123175000Y-93500000D01*
G75*
G02*
X123025000Y-93350000I0J150000D01*
G01*
G37*
G36*
G01*
X123025000Y-92550000D02*
X123025000Y-92250000D01*
G75*
G02*
X123175000Y-92100000I150000J0D01*
G01*
X124475000Y-92100000D01*
G75*
G02*
X124625000Y-92250000I0J-150000D01*
G01*
X124625000Y-92550000D01*
G75*
G02*
X124475000Y-92700000I-150000J0D01*
G01*
X123175000Y-92700000D01*
G75*
G02*
X123025000Y-92550000I0J150000D01*
G01*
G37*
G36*
G01*
X123025000Y-91750000D02*
X123025000Y-91450000D01*
G75*
G02*
X123175000Y-91300000I150000J0D01*
G01*
X124475000Y-91300000D01*
G75*
G02*
X124625000Y-91450000I0J-150000D01*
G01*
X124625000Y-91750000D01*
G75*
G02*
X124475000Y-91900000I-150000J0D01*
G01*
X123175000Y-91900000D01*
G75*
G02*
X123025000Y-91750000I0J150000D01*
G01*
G37*
G36*
G01*
X123025000Y-90950000D02*
X123025000Y-90650000D01*
G75*
G02*
X123175000Y-90500000I150000J0D01*
G01*
X124475000Y-90500000D01*
G75*
G02*
X124625000Y-90650000I0J-150000D01*
G01*
X124625000Y-90950000D01*
G75*
G02*
X124475000Y-91100000I-150000J0D01*
G01*
X123175000Y-91100000D01*
G75*
G02*
X123025000Y-90950000I0J150000D01*
G01*
G37*
G36*
G01*
X123025000Y-90150000D02*
X123025000Y-89850000D01*
G75*
G02*
X123175000Y-89700000I150000J0D01*
G01*
X124475000Y-89700000D01*
G75*
G02*
X124625000Y-89850000I0J-150000D01*
G01*
X124625000Y-90150000D01*
G75*
G02*
X124475000Y-90300000I-150000J0D01*
G01*
X123175000Y-90300000D01*
G75*
G02*
X123025000Y-90150000I0J150000D01*
G01*
G37*
G36*
G01*
X123025000Y-89350000D02*
X123025000Y-89050000D01*
G75*
G02*
X123175000Y-88900000I150000J0D01*
G01*
X124475000Y-88900000D01*
G75*
G02*
X124625000Y-89050000I0J-150000D01*
G01*
X124625000Y-89350000D01*
G75*
G02*
X124475000Y-89500000I-150000J0D01*
G01*
X123175000Y-89500000D01*
G75*
G02*
X123025000Y-89350000I0J150000D01*
G01*
G37*
X126780000Y-74000000D03*
X124240000Y-74000000D03*
X121700000Y-74000000D03*
X119160000Y-74000000D03*
X116620000Y-74000000D03*
X114080000Y-74000000D03*
X111540000Y-74000000D03*
G36*
G01*
X109850000Y-74900000D02*
X108150000Y-74900000D01*
G75*
G02*
X108100000Y-74850000I0J50000D01*
G01*
X108100000Y-73150000D01*
G75*
G02*
X108150000Y-73100000I50000J0D01*
G01*
X109850000Y-73100000D01*
G75*
G02*
X109900000Y-73150000I0J-50000D01*
G01*
X109900000Y-74850000D01*
G75*
G02*
X109850000Y-74900000I-50000J0D01*
G01*
G37*
D11*
X159779000Y-82494000D03*
X159779000Y-81224000D03*
X161049000Y-82494000D03*
X161049000Y-81224000D03*
X162319000Y-82494000D03*
X162319000Y-81224000D03*
X163589000Y-82494000D03*
X163589000Y-81224000D03*
X164859000Y-82494000D03*
G36*
G01*
X164359000Y-80674000D02*
X165359000Y-80674000D01*
G75*
G02*
X165409000Y-80724000I0J-50000D01*
G01*
X165409000Y-81724000D01*
G75*
G02*
X165359000Y-81774000I-50000J0D01*
G01*
X164359000Y-81774000D01*
G75*
G02*
X164309000Y-81724000I0J50000D01*
G01*
X164309000Y-80724000D01*
G75*
G02*
X164359000Y-80674000I50000J0D01*
G01*
G37*
G36*
G01*
X122823250Y-86770400D02*
X123785750Y-86770400D01*
G75*
G02*
X124054500Y-87039150I0J-268750D01*
G01*
X124054500Y-87576650D01*
G75*
G02*
X123785750Y-87845400I-268750J0D01*
G01*
X122823250Y-87845400D01*
G75*
G02*
X122554500Y-87576650I0J268750D01*
G01*
X122554500Y-87039150D01*
G75*
G02*
X122823250Y-86770400I268750J0D01*
G01*
G37*
G36*
G01*
X122823250Y-84895400D02*
X123785750Y-84895400D01*
G75*
G02*
X124054500Y-85164150I0J-268750D01*
G01*
X124054500Y-85701650D01*
G75*
G02*
X123785750Y-85970400I-268750J0D01*
G01*
X122823250Y-85970400D01*
G75*
G02*
X122554500Y-85701650I0J268750D01*
G01*
X122554500Y-85164150D01*
G75*
G02*
X122823250Y-84895400I268750J0D01*
G01*
G37*
D10*
X162002000Y-110180000D03*
X159462000Y-110180000D03*
X162002000Y-107640000D03*
X159462000Y-107640000D03*
X162002000Y-105100000D03*
X159462000Y-105100000D03*
X162002000Y-102560000D03*
X159462000Y-102560000D03*
X162002000Y-100020000D03*
X159462000Y-100020000D03*
X162002000Y-97480000D03*
X159462000Y-97480000D03*
X162002000Y-94940000D03*
X159462000Y-94940000D03*
X162002000Y-92400000D03*
X159462000Y-92400000D03*
X162002000Y-89860000D03*
X159462000Y-89860000D03*
X162002000Y-87320000D03*
G36*
G01*
X158562000Y-88170000D02*
X158562000Y-86470000D01*
G75*
G02*
X158612000Y-86420000I50000J0D01*
G01*
X160312000Y-86420000D01*
G75*
G02*
X160362000Y-86470000I0J-50000D01*
G01*
X160362000Y-88170000D01*
G75*
G02*
X160312000Y-88220000I-50000J0D01*
G01*
X158612000Y-88220000D01*
G75*
G02*
X158562000Y-88170000I0J50000D01*
G01*
G37*
X147100000Y-116000000D03*
X144560000Y-116000000D03*
X142020000Y-116000000D03*
X139480000Y-116000000D03*
X136940000Y-116000000D03*
X134400000Y-116000000D03*
X131860000Y-116000000D03*
X129320000Y-116000000D03*
X126780000Y-116000000D03*
X124240000Y-116000000D03*
X121700000Y-116000000D03*
X119160000Y-116000000D03*
X116620000Y-116000000D03*
X114080000Y-116000000D03*
X111540000Y-116000000D03*
G36*
G01*
X109850000Y-116900000D02*
X108150000Y-116900000D01*
G75*
G02*
X108100000Y-116850000I0J50000D01*
G01*
X108100000Y-115150000D01*
G75*
G02*
X108150000Y-115100000I50000J0D01*
G01*
X109850000Y-115100000D01*
G75*
G02*
X109900000Y-115150000I0J-50000D01*
G01*
X109900000Y-116850000D01*
G75*
G02*
X109850000Y-116900000I-50000J0D01*
G01*
G37*
D12*
X104000000Y-116000000D03*
X104000000Y-74000000D03*
X165000000Y-116000000D03*
X165000000Y-74000000D03*
G36*
G01*
X149550000Y-94800000D02*
X151050000Y-94800000D01*
G75*
G02*
X151100000Y-94850000I0J-50000D01*
G01*
X151100000Y-96850000D01*
G75*
G02*
X151050000Y-96900000I-50000J0D01*
G01*
X149550000Y-96900000D01*
G75*
G02*
X149500000Y-96850000I0J50000D01*
G01*
X149500000Y-94850000D01*
G75*
G02*
X149550000Y-94800000I50000J0D01*
G01*
G37*
G36*
G01*
X144950000Y-94800000D02*
X146450000Y-94800000D01*
G75*
G02*
X146500000Y-94850000I0J-50000D01*
G01*
X146500000Y-96850000D01*
G75*
G02*
X146450000Y-96900000I-50000J0D01*
G01*
X144950000Y-96900000D01*
G75*
G02*
X144900000Y-96850000I0J50000D01*
G01*
X144900000Y-94850000D01*
G75*
G02*
X144950000Y-94800000I50000J0D01*
G01*
G37*
G36*
G01*
X147250000Y-94800000D02*
X148750000Y-94800000D01*
G75*
G02*
X148800000Y-94850000I0J-50000D01*
G01*
X148800000Y-96850000D01*
G75*
G02*
X148750000Y-96900000I-50000J0D01*
G01*
X147250000Y-96900000D01*
G75*
G02*
X147200000Y-96850000I0J50000D01*
G01*
X147200000Y-94850000D01*
G75*
G02*
X147250000Y-94800000I50000J0D01*
G01*
G37*
G36*
G01*
X146100000Y-101100000D02*
X149900000Y-101100000D01*
G75*
G02*
X149950000Y-101150000I0J-50000D01*
G01*
X149950000Y-103150000D01*
G75*
G02*
X149900000Y-103200000I-50000J0D01*
G01*
X146100000Y-103200000D01*
G75*
G02*
X146050000Y-103150000I0J50000D01*
G01*
X146050000Y-101150000D01*
G75*
G02*
X146100000Y-101100000I50000J0D01*
G01*
G37*
D13*
X151000000Y-109500000D03*
X155500000Y-109500000D03*
X151000000Y-116000000D03*
X155500000Y-116000000D03*
G36*
G01*
X123032000Y-79927250D02*
X123032000Y-78964750D01*
G75*
G02*
X123300750Y-78696000I268750J0D01*
G01*
X123838250Y-78696000D01*
G75*
G02*
X124107000Y-78964750I0J-268750D01*
G01*
X124107000Y-79927250D01*
G75*
G02*
X123838250Y-80196000I-268750J0D01*
G01*
X123300750Y-80196000D01*
G75*
G02*
X123032000Y-79927250I0J268750D01*
G01*
G37*
G36*
G01*
X121157000Y-79927250D02*
X121157000Y-78964750D01*
G75*
G02*
X121425750Y-78696000I268750J0D01*
G01*
X121963250Y-78696000D01*
G75*
G02*
X122232000Y-78964750I0J-268750D01*
G01*
X122232000Y-79927250D01*
G75*
G02*
X121963250Y-80196000I-268750J0D01*
G01*
X121425750Y-80196000D01*
G75*
G02*
X121157000Y-79927250I0J268750D01*
G01*
G37*
G36*
G01*
X142481250Y-101537500D02*
X141518750Y-101537500D01*
G75*
G02*
X141250000Y-101268750I0J268750D01*
G01*
X141250000Y-100731250D01*
G75*
G02*
X141518750Y-100462500I268750J0D01*
G01*
X142481250Y-100462500D01*
G75*
G02*
X142750000Y-100731250I0J-268750D01*
G01*
X142750000Y-101268750D01*
G75*
G02*
X142481250Y-101537500I-268750J0D01*
G01*
G37*
G36*
G01*
X142481250Y-103412500D02*
X141518750Y-103412500D01*
G75*
G02*
X141250000Y-103143750I0J268750D01*
G01*
X141250000Y-102606250D01*
G75*
G02*
X141518750Y-102337500I268750J0D01*
G01*
X142481250Y-102337500D01*
G75*
G02*
X142750000Y-102606250I0J-268750D01*
G01*
X142750000Y-103143750D01*
G75*
G02*
X142481250Y-103412500I-268750J0D01*
G01*
G37*
G36*
G01*
X143518750Y-109462500D02*
X144481250Y-109462500D01*
G75*
G02*
X144750000Y-109731250I0J-268750D01*
G01*
X144750000Y-110268750D01*
G75*
G02*
X144481250Y-110537500I-268750J0D01*
G01*
X143518750Y-110537500D01*
G75*
G02*
X143250000Y-110268750I0J268750D01*
G01*
X143250000Y-109731250D01*
G75*
G02*
X143518750Y-109462500I268750J0D01*
G01*
G37*
G36*
G01*
X143518750Y-107587500D02*
X144481250Y-107587500D01*
G75*
G02*
X144750000Y-107856250I0J-268750D01*
G01*
X144750000Y-108393750D01*
G75*
G02*
X144481250Y-108662500I-268750J0D01*
G01*
X143518750Y-108662500D01*
G75*
G02*
X143250000Y-108393750I0J268750D01*
G01*
X143250000Y-107856250D01*
G75*
G02*
X143518750Y-107587500I268750J0D01*
G01*
G37*
G36*
G01*
X139504000Y-92680750D02*
X139504000Y-93643250D01*
G75*
G02*
X139235250Y-93912000I-268750J0D01*
G01*
X138697750Y-93912000D01*
G75*
G02*
X138429000Y-93643250I0J268750D01*
G01*
X138429000Y-92680750D01*
G75*
G02*
X138697750Y-92412000I268750J0D01*
G01*
X139235250Y-92412000D01*
G75*
G02*
X139504000Y-92680750I0J-268750D01*
G01*
G37*
G36*
G01*
X141379000Y-92680750D02*
X141379000Y-93643250D01*
G75*
G02*
X141110250Y-93912000I-268750J0D01*
G01*
X140572750Y-93912000D01*
G75*
G02*
X140304000Y-93643250I0J268750D01*
G01*
X140304000Y-92680750D01*
G75*
G02*
X140572750Y-92412000I268750J0D01*
G01*
X141110250Y-92412000D01*
G75*
G02*
X141379000Y-92680750I0J-268750D01*
G01*
G37*
G36*
G01*
X111818000Y-103094750D02*
X111818000Y-104057250D01*
G75*
G02*
X111549250Y-104326000I-268750J0D01*
G01*
X111011750Y-104326000D01*
G75*
G02*
X110743000Y-104057250I0J268750D01*
G01*
X110743000Y-103094750D01*
G75*
G02*
X111011750Y-102826000I268750J0D01*
G01*
X111549250Y-102826000D01*
G75*
G02*
X111818000Y-103094750I0J-268750D01*
G01*
G37*
G36*
G01*
X113693000Y-103094750D02*
X113693000Y-104057250D01*
G75*
G02*
X113424250Y-104326000I-268750J0D01*
G01*
X112886750Y-104326000D01*
G75*
G02*
X112618000Y-104057250I0J268750D01*
G01*
X112618000Y-103094750D01*
G75*
G02*
X112886750Y-102826000I268750J0D01*
G01*
X113424250Y-102826000D01*
G75*
G02*
X113693000Y-103094750I0J-268750D01*
G01*
G37*
G36*
G01*
X122953500Y-77641250D02*
X122953500Y-76678750D01*
G75*
G02*
X123222250Y-76410000I268750J0D01*
G01*
X123759750Y-76410000D01*
G75*
G02*
X124028500Y-76678750I0J-268750D01*
G01*
X124028500Y-77641250D01*
G75*
G02*
X123759750Y-77910000I-268750J0D01*
G01*
X123222250Y-77910000D01*
G75*
G02*
X122953500Y-77641250I0J268750D01*
G01*
G37*
G36*
G01*
X121078500Y-77641250D02*
X121078500Y-76678750D01*
G75*
G02*
X121347250Y-76410000I268750J0D01*
G01*
X121884750Y-76410000D01*
G75*
G02*
X122153500Y-76678750I0J-268750D01*
G01*
X122153500Y-77641250D01*
G75*
G02*
X121884750Y-77910000I-268750J0D01*
G01*
X121347250Y-77910000D01*
G75*
G02*
X121078500Y-77641250I0J268750D01*
G01*
G37*
G36*
G01*
X141518750Y-97462500D02*
X142481250Y-97462500D01*
G75*
G02*
X142750000Y-97731250I0J-268750D01*
G01*
X142750000Y-98268750D01*
G75*
G02*
X142481250Y-98537500I-268750J0D01*
G01*
X141518750Y-98537500D01*
G75*
G02*
X141250000Y-98268750I0J268750D01*
G01*
X141250000Y-97731250D01*
G75*
G02*
X141518750Y-97462500I268750J0D01*
G01*
G37*
G36*
G01*
X141518750Y-95587500D02*
X142481250Y-95587500D01*
G75*
G02*
X142750000Y-95856250I0J-268750D01*
G01*
X142750000Y-96393750D01*
G75*
G02*
X142481250Y-96662500I-268750J0D01*
G01*
X141518750Y-96662500D01*
G75*
G02*
X141250000Y-96393750I0J268750D01*
G01*
X141250000Y-95856250D01*
G75*
G02*
X141518750Y-95587500I268750J0D01*
G01*
G37*
G36*
G01*
X139481250Y-96600000D02*
X138518750Y-96600000D01*
G75*
G02*
X138250000Y-96331250I0J268750D01*
G01*
X138250000Y-95793750D01*
G75*
G02*
X138518750Y-95525000I268750J0D01*
G01*
X139481250Y-95525000D01*
G75*
G02*
X139750000Y-95793750I0J-268750D01*
G01*
X139750000Y-96331250D01*
G75*
G02*
X139481250Y-96600000I-268750J0D01*
G01*
G37*
G36*
G01*
X139481250Y-98475000D02*
X138518750Y-98475000D01*
G75*
G02*
X138250000Y-98206250I0J268750D01*
G01*
X138250000Y-97668750D01*
G75*
G02*
X138518750Y-97400000I268750J0D01*
G01*
X139481250Y-97400000D01*
G75*
G02*
X139750000Y-97668750I0J-268750D01*
G01*
X139750000Y-98206250D01*
G75*
G02*
X139481250Y-98475000I-268750J0D01*
G01*
G37*
G36*
G01*
X117779250Y-101906000D02*
X116816750Y-101906000D01*
G75*
G02*
X116548000Y-101637250I0J268750D01*
G01*
X116548000Y-101099750D01*
G75*
G02*
X116816750Y-100831000I268750J0D01*
G01*
X117779250Y-100831000D01*
G75*
G02*
X118048000Y-101099750I0J-268750D01*
G01*
X118048000Y-101637250D01*
G75*
G02*
X117779250Y-101906000I-268750J0D01*
G01*
G37*
G36*
G01*
X117779250Y-103781000D02*
X116816750Y-103781000D01*
G75*
G02*
X116548000Y-103512250I0J268750D01*
G01*
X116548000Y-102974750D01*
G75*
G02*
X116816750Y-102706000I268750J0D01*
G01*
X117779250Y-102706000D01*
G75*
G02*
X118048000Y-102974750I0J-268750D01*
G01*
X118048000Y-103512250D01*
G75*
G02*
X117779250Y-103781000I-268750J0D01*
G01*
G37*
G36*
G01*
X149600000Y-105456483D02*
X149600000Y-104543517D01*
G75*
G02*
X149868517Y-104275000I268517J0D01*
G01*
X150831483Y-104275000D01*
G75*
G02*
X151100000Y-104543517I0J-268517D01*
G01*
X151100000Y-105456483D01*
G75*
G02*
X150831483Y-105725000I-268517J0D01*
G01*
X149868517Y-105725000D01*
G75*
G02*
X149600000Y-105456483I0J268517D01*
G01*
G37*
G36*
G01*
X146900000Y-105456483D02*
X146900000Y-104543517D01*
G75*
G02*
X147168517Y-104275000I268517J0D01*
G01*
X148131483Y-104275000D01*
G75*
G02*
X148400000Y-104543517I0J-268517D01*
G01*
X148400000Y-105456483D01*
G75*
G02*
X148131483Y-105725000I-268517J0D01*
G01*
X147168517Y-105725000D01*
G75*
G02*
X146900000Y-105456483I0J268517D01*
G01*
G37*
G36*
G01*
X115655250Y-101900500D02*
X114692750Y-101900500D01*
G75*
G02*
X114424000Y-101631750I0J268750D01*
G01*
X114424000Y-101094250D01*
G75*
G02*
X114692750Y-100825500I268750J0D01*
G01*
X115655250Y-100825500D01*
G75*
G02*
X115924000Y-101094250I0J-268750D01*
G01*
X115924000Y-101631750D01*
G75*
G02*
X115655250Y-101900500I-268750J0D01*
G01*
G37*
G36*
G01*
X115655250Y-103775500D02*
X114692750Y-103775500D01*
G75*
G02*
X114424000Y-103506750I0J268750D01*
G01*
X114424000Y-102969250D01*
G75*
G02*
X114692750Y-102700500I268750J0D01*
G01*
X115655250Y-102700500D01*
G75*
G02*
X115924000Y-102969250I0J-268750D01*
G01*
X115924000Y-103506750D01*
G75*
G02*
X115655250Y-103775500I-268750J0D01*
G01*
G37*
G36*
G01*
X109143250Y-101838000D02*
X108180750Y-101838000D01*
G75*
G02*
X107912000Y-101569250I0J268750D01*
G01*
X107912000Y-101031750D01*
G75*
G02*
X108180750Y-100763000I268750J0D01*
G01*
X109143250Y-100763000D01*
G75*
G02*
X109412000Y-101031750I0J-268750D01*
G01*
X109412000Y-101569250D01*
G75*
G02*
X109143250Y-101838000I-268750J0D01*
G01*
G37*
G36*
G01*
X109143250Y-103713000D02*
X108180750Y-103713000D01*
G75*
G02*
X107912000Y-103444250I0J268750D01*
G01*
X107912000Y-102906750D01*
G75*
G02*
X108180750Y-102638000I268750J0D01*
G01*
X109143250Y-102638000D01*
G75*
G02*
X109412000Y-102906750I0J-268750D01*
G01*
X109412000Y-103444250D01*
G75*
G02*
X109143250Y-103713000I-268750J0D01*
G01*
G37*
G36*
G01*
X141481250Y-108600000D02*
X140518750Y-108600000D01*
G75*
G02*
X140250000Y-108331250I0J268750D01*
G01*
X140250000Y-107793750D01*
G75*
G02*
X140518750Y-107525000I268750J0D01*
G01*
X141481250Y-107525000D01*
G75*
G02*
X141750000Y-107793750I0J-268750D01*
G01*
X141750000Y-108331250D01*
G75*
G02*
X141481250Y-108600000I-268750J0D01*
G01*
G37*
G36*
G01*
X141481250Y-110475000D02*
X140518750Y-110475000D01*
G75*
G02*
X140250000Y-110206250I0J268750D01*
G01*
X140250000Y-109668750D01*
G75*
G02*
X140518750Y-109400000I268750J0D01*
G01*
X141481250Y-109400000D01*
G75*
G02*
X141750000Y-109668750I0J-268750D01*
G01*
X141750000Y-110206250D01*
G75*
G02*
X141481250Y-110475000I-268750J0D01*
G01*
G37*
G36*
G01*
X147600000Y-93456483D02*
X147600000Y-92543517D01*
G75*
G02*
X147868517Y-92275000I268517J0D01*
G01*
X148831483Y-92275000D01*
G75*
G02*
X149100000Y-92543517I0J-268517D01*
G01*
X149100000Y-93456483D01*
G75*
G02*
X148831483Y-93725000I-268517J0D01*
G01*
X147868517Y-93725000D01*
G75*
G02*
X147600000Y-93456483I0J268517D01*
G01*
G37*
G36*
G01*
X144900000Y-93456483D02*
X144900000Y-92543517D01*
G75*
G02*
X145168517Y-92275000I268517J0D01*
G01*
X146131483Y-92275000D01*
G75*
G02*
X146400000Y-92543517I0J-268517D01*
G01*
X146400000Y-93456483D01*
G75*
G02*
X146131483Y-93725000I-268517J0D01*
G01*
X145168517Y-93725000D01*
G75*
G02*
X144900000Y-93456483I0J268517D01*
G01*
G37*
G36*
G01*
X106857250Y-101838000D02*
X105894750Y-101838000D01*
G75*
G02*
X105626000Y-101569250I0J268750D01*
G01*
X105626000Y-101031750D01*
G75*
G02*
X105894750Y-100763000I268750J0D01*
G01*
X106857250Y-100763000D01*
G75*
G02*
X107126000Y-101031750I0J-268750D01*
G01*
X107126000Y-101569250D01*
G75*
G02*
X106857250Y-101838000I-268750J0D01*
G01*
G37*
G36*
G01*
X106857250Y-103713000D02*
X105894750Y-103713000D01*
G75*
G02*
X105626000Y-103444250I0J268750D01*
G01*
X105626000Y-102906750D01*
G75*
G02*
X105894750Y-102638000I268750J0D01*
G01*
X106857250Y-102638000D01*
G75*
G02*
X107126000Y-102906750I0J-268750D01*
G01*
X107126000Y-103444250D01*
G75*
G02*
X106857250Y-103713000I-268750J0D01*
G01*
G37*
G36*
G01*
X134263250Y-97082900D02*
X133300750Y-97082900D01*
G75*
G02*
X133032000Y-96814150I0J268750D01*
G01*
X133032000Y-96276650D01*
G75*
G02*
X133300750Y-96007900I268750J0D01*
G01*
X134263250Y-96007900D01*
G75*
G02*
X134532000Y-96276650I0J-268750D01*
G01*
X134532000Y-96814150D01*
G75*
G02*
X134263250Y-97082900I-268750J0D01*
G01*
G37*
G36*
G01*
X134263250Y-98957900D02*
X133300750Y-98957900D01*
G75*
G02*
X133032000Y-98689150I0J268750D01*
G01*
X133032000Y-98151650D01*
G75*
G02*
X133300750Y-97882900I268750J0D01*
G01*
X134263250Y-97882900D01*
G75*
G02*
X134532000Y-98151650I0J-268750D01*
G01*
X134532000Y-98689150D01*
G75*
G02*
X134263250Y-98957900I-268750J0D01*
G01*
G37*
M02*
