G04 #@! TF.GenerationSoftware,KiCad,Pcbnew,5.1.10-88a1d61d58~90~ubuntu21.04.1*
G04 #@! TF.CreationDate,2021-09-10T13:33:54+02:00*
G04 #@! TF.ProjectId,STM32F030K6T6TR_Devel,53544d33-3246-4303-9330-4b3654365452,0.0.2*
G04 #@! TF.SameCoordinates,Original*
G04 #@! TF.FileFunction,Copper,L3,Inr*
G04 #@! TF.FilePolarity,Positive*
%FSLAX46Y46*%
G04 Gerber Fmt 4.6, Leading zero omitted, Abs format (unit mm)*
G04 Created by KiCad (PCBNEW 5.1.10-88a1d61d58~90~ubuntu21.04.1) date 2021-09-10 13:33:54*
%MOMM*%
%LPD*%
G01*
G04 APERTURE LIST*
G04 #@! TA.AperFunction,ComponentPad*
%ADD10O,1.700000X1.700000*%
G04 #@! TD*
G04 #@! TA.AperFunction,ComponentPad*
%ADD11R,1.700000X1.700000*%
G04 #@! TD*
G04 #@! TA.AperFunction,ComponentPad*
%ADD12C,2.000000*%
G04 #@! TD*
G04 #@! TA.AperFunction,ViaPad*
%ADD13C,0.800000*%
G04 #@! TD*
G04 #@! TA.AperFunction,Conductor*
%ADD14C,0.254000*%
G04 #@! TD*
G04 #@! TA.AperFunction,Conductor*
%ADD15C,0.100000*%
G04 #@! TD*
G04 APERTURE END LIST*
D10*
X163754000Y-108062000D03*
X163754000Y-105522000D03*
X163754000Y-102982000D03*
X163754000Y-100442000D03*
X163754000Y-97902000D03*
D11*
X163754000Y-95362000D03*
D10*
X109677400Y-95362000D03*
X109677400Y-97902000D03*
X107137400Y-95362000D03*
X107137400Y-97902000D03*
X104597400Y-95362000D03*
D11*
X104597400Y-97902000D03*
D10*
X142951400Y-81976200D03*
X142951400Y-79436200D03*
X145491400Y-81976200D03*
X145491400Y-79436200D03*
X148031400Y-81976200D03*
D11*
X148031400Y-79436200D03*
D10*
X155638700Y-74000000D03*
X153098700Y-74000000D03*
X150558700Y-74000000D03*
X148018700Y-74000000D03*
X145478700Y-74000000D03*
D11*
X142938700Y-74000000D03*
D10*
X126780000Y-74000000D03*
X124240000Y-74000000D03*
X121700000Y-74000000D03*
X119160000Y-74000000D03*
X116620000Y-74000000D03*
X114080000Y-74000000D03*
X111540000Y-74000000D03*
D11*
X109000000Y-74000000D03*
D10*
X147100000Y-116000000D03*
X144560000Y-116000000D03*
X142020000Y-116000000D03*
X139480000Y-116000000D03*
X136940000Y-116000000D03*
X134400000Y-116000000D03*
X131860000Y-116000000D03*
X129320000Y-116000000D03*
X126780000Y-116000000D03*
X124240000Y-116000000D03*
X121700000Y-116000000D03*
X119160000Y-116000000D03*
X116620000Y-116000000D03*
X114080000Y-116000000D03*
X111540000Y-116000000D03*
D11*
X109000000Y-116000000D03*
D12*
X151000000Y-109500000D03*
X155500000Y-109500000D03*
X151000000Y-116000000D03*
X155500000Y-116000000D03*
D13*
X148000000Y-97956000D03*
X146100000Y-105000000D03*
X145084000Y-105000000D03*
X104344000Y-103322000D03*
X123140000Y-81224000D03*
X114820900Y-77912200D03*
X120370800Y-88199200D03*
X132231835Y-98425952D03*
X156500000Y-88500000D03*
X130760000Y-101036000D03*
X126378000Y-78811000D03*
X128728000Y-80970000D03*
X137872000Y-99512000D03*
X137872000Y-89969009D03*
X127975000Y-83002000D03*
X127975000Y-81986000D03*
X129490000Y-80208000D03*
X130435840Y-78571897D03*
X140412000Y-84272000D03*
X154610000Y-84440000D03*
X139396000Y-103576000D03*
X140920000Y-89098000D03*
X138888000Y-102052000D03*
X139904000Y-89098000D03*
X158760000Y-91892000D03*
X138380000Y-100782000D03*
X138779999Y-89243999D03*
X160000000Y-92000000D03*
X129959300Y-98854500D03*
X129146500Y-100175300D03*
X127000000Y-94225010D03*
X126000000Y-93500000D03*
X120350661Y-91633341D03*
X140000000Y-111000000D03*
X160250000Y-82500000D03*
D14*
X166453893Y-70707670D02*
X166890498Y-70839489D01*
X167293185Y-71053600D01*
X167646612Y-71341848D01*
X167937327Y-71693261D01*
X168154242Y-72094439D01*
X168289106Y-72530113D01*
X168340000Y-73014344D01*
X168340001Y-116967711D01*
X168292330Y-117453894D01*
X168160512Y-117890497D01*
X167946399Y-118293186D01*
X167658150Y-118646613D01*
X167306739Y-118937327D01*
X166905564Y-119154240D01*
X166469886Y-119289106D01*
X165985664Y-119340000D01*
X103032279Y-119340000D01*
X102546106Y-119292330D01*
X102109503Y-119160512D01*
X101706814Y-118946399D01*
X101353387Y-118658150D01*
X101062673Y-118306739D01*
X100845760Y-117905564D01*
X100710894Y-117469886D01*
X100660000Y-116985664D01*
X100660000Y-115804495D01*
X102015000Y-115804495D01*
X102015000Y-116195505D01*
X102091282Y-116579003D01*
X102240915Y-116940250D01*
X102458149Y-117265364D01*
X102734636Y-117541851D01*
X103059750Y-117759085D01*
X103420997Y-117908718D01*
X103804495Y-117985000D01*
X104195505Y-117985000D01*
X104579003Y-117908718D01*
X104940250Y-117759085D01*
X105265364Y-117541851D01*
X105541851Y-117265364D01*
X105759085Y-116940250D01*
X105908718Y-116579003D01*
X105985000Y-116195505D01*
X105985000Y-115804495D01*
X105908718Y-115420997D01*
X105796468Y-115150000D01*
X107511928Y-115150000D01*
X107511928Y-116850000D01*
X107524188Y-116974482D01*
X107560498Y-117094180D01*
X107619463Y-117204494D01*
X107698815Y-117301185D01*
X107795506Y-117380537D01*
X107905820Y-117439502D01*
X108025518Y-117475812D01*
X108150000Y-117488072D01*
X109850000Y-117488072D01*
X109974482Y-117475812D01*
X110094180Y-117439502D01*
X110204494Y-117380537D01*
X110301185Y-117301185D01*
X110380537Y-117204494D01*
X110439502Y-117094180D01*
X110461513Y-117021620D01*
X110593368Y-117153475D01*
X110836589Y-117315990D01*
X111106842Y-117427932D01*
X111393740Y-117485000D01*
X111686260Y-117485000D01*
X111973158Y-117427932D01*
X112243411Y-117315990D01*
X112486632Y-117153475D01*
X112693475Y-116946632D01*
X112810000Y-116772240D01*
X112926525Y-116946632D01*
X113133368Y-117153475D01*
X113376589Y-117315990D01*
X113646842Y-117427932D01*
X113933740Y-117485000D01*
X114226260Y-117485000D01*
X114513158Y-117427932D01*
X114783411Y-117315990D01*
X115026632Y-117153475D01*
X115233475Y-116946632D01*
X115350000Y-116772240D01*
X115466525Y-116946632D01*
X115673368Y-117153475D01*
X115916589Y-117315990D01*
X116186842Y-117427932D01*
X116473740Y-117485000D01*
X116766260Y-117485000D01*
X117053158Y-117427932D01*
X117323411Y-117315990D01*
X117566632Y-117153475D01*
X117773475Y-116946632D01*
X117890000Y-116772240D01*
X118006525Y-116946632D01*
X118213368Y-117153475D01*
X118456589Y-117315990D01*
X118726842Y-117427932D01*
X119013740Y-117485000D01*
X119306260Y-117485000D01*
X119593158Y-117427932D01*
X119863411Y-117315990D01*
X120106632Y-117153475D01*
X120313475Y-116946632D01*
X120430000Y-116772240D01*
X120546525Y-116946632D01*
X120753368Y-117153475D01*
X120996589Y-117315990D01*
X121266842Y-117427932D01*
X121553740Y-117485000D01*
X121846260Y-117485000D01*
X122133158Y-117427932D01*
X122403411Y-117315990D01*
X122646632Y-117153475D01*
X122853475Y-116946632D01*
X122970000Y-116772240D01*
X123086525Y-116946632D01*
X123293368Y-117153475D01*
X123536589Y-117315990D01*
X123806842Y-117427932D01*
X124093740Y-117485000D01*
X124386260Y-117485000D01*
X124673158Y-117427932D01*
X124943411Y-117315990D01*
X125186632Y-117153475D01*
X125393475Y-116946632D01*
X125510000Y-116772240D01*
X125626525Y-116946632D01*
X125833368Y-117153475D01*
X126076589Y-117315990D01*
X126346842Y-117427932D01*
X126633740Y-117485000D01*
X126926260Y-117485000D01*
X127213158Y-117427932D01*
X127483411Y-117315990D01*
X127726632Y-117153475D01*
X127933475Y-116946632D01*
X128050000Y-116772240D01*
X128166525Y-116946632D01*
X128373368Y-117153475D01*
X128616589Y-117315990D01*
X128886842Y-117427932D01*
X129173740Y-117485000D01*
X129466260Y-117485000D01*
X129753158Y-117427932D01*
X130023411Y-117315990D01*
X130266632Y-117153475D01*
X130473475Y-116946632D01*
X130590000Y-116772240D01*
X130706525Y-116946632D01*
X130913368Y-117153475D01*
X131156589Y-117315990D01*
X131426842Y-117427932D01*
X131713740Y-117485000D01*
X132006260Y-117485000D01*
X132293158Y-117427932D01*
X132563411Y-117315990D01*
X132806632Y-117153475D01*
X133013475Y-116946632D01*
X133130000Y-116772240D01*
X133246525Y-116946632D01*
X133453368Y-117153475D01*
X133696589Y-117315990D01*
X133966842Y-117427932D01*
X134253740Y-117485000D01*
X134546260Y-117485000D01*
X134833158Y-117427932D01*
X135103411Y-117315990D01*
X135346632Y-117153475D01*
X135553475Y-116946632D01*
X135670000Y-116772240D01*
X135786525Y-116946632D01*
X135993368Y-117153475D01*
X136236589Y-117315990D01*
X136506842Y-117427932D01*
X136793740Y-117485000D01*
X137086260Y-117485000D01*
X137373158Y-117427932D01*
X137643411Y-117315990D01*
X137886632Y-117153475D01*
X138093475Y-116946632D01*
X138210000Y-116772240D01*
X138326525Y-116946632D01*
X138533368Y-117153475D01*
X138776589Y-117315990D01*
X139046842Y-117427932D01*
X139333740Y-117485000D01*
X139626260Y-117485000D01*
X139913158Y-117427932D01*
X140183411Y-117315990D01*
X140426632Y-117153475D01*
X140633475Y-116946632D01*
X140750000Y-116772240D01*
X140866525Y-116946632D01*
X141073368Y-117153475D01*
X141316589Y-117315990D01*
X141586842Y-117427932D01*
X141873740Y-117485000D01*
X142166260Y-117485000D01*
X142453158Y-117427932D01*
X142723411Y-117315990D01*
X142966632Y-117153475D01*
X143173475Y-116946632D01*
X143290000Y-116772240D01*
X143406525Y-116946632D01*
X143613368Y-117153475D01*
X143856589Y-117315990D01*
X144126842Y-117427932D01*
X144413740Y-117485000D01*
X144706260Y-117485000D01*
X144993158Y-117427932D01*
X145263411Y-117315990D01*
X145506632Y-117153475D01*
X145713475Y-116946632D01*
X145830000Y-116772240D01*
X145946525Y-116946632D01*
X146153368Y-117153475D01*
X146396589Y-117315990D01*
X146666842Y-117427932D01*
X146953740Y-117485000D01*
X147246260Y-117485000D01*
X147533158Y-117427932D01*
X147803411Y-117315990D01*
X148046632Y-117153475D01*
X148253475Y-116946632D01*
X148415990Y-116703411D01*
X148527932Y-116433158D01*
X148585000Y-116146260D01*
X148585000Y-115853740D01*
X148582062Y-115838967D01*
X149365000Y-115838967D01*
X149365000Y-116161033D01*
X149427832Y-116476912D01*
X149551082Y-116774463D01*
X149730013Y-117042252D01*
X149957748Y-117269987D01*
X150225537Y-117448918D01*
X150523088Y-117572168D01*
X150838967Y-117635000D01*
X151161033Y-117635000D01*
X151476912Y-117572168D01*
X151774463Y-117448918D01*
X152042252Y-117269987D01*
X152176826Y-117135413D01*
X154544192Y-117135413D01*
X154639956Y-117399814D01*
X154929571Y-117540704D01*
X155241108Y-117622384D01*
X155562595Y-117641718D01*
X155881675Y-117597961D01*
X156186088Y-117492795D01*
X156360044Y-117399814D01*
X156455808Y-117135413D01*
X155500000Y-116179605D01*
X154544192Y-117135413D01*
X152176826Y-117135413D01*
X152269987Y-117042252D01*
X152448918Y-116774463D01*
X152572168Y-116476912D01*
X152635000Y-116161033D01*
X152635000Y-116062595D01*
X153858282Y-116062595D01*
X153902039Y-116381675D01*
X154007205Y-116686088D01*
X154100186Y-116860044D01*
X154364587Y-116955808D01*
X155320395Y-116000000D01*
X155679605Y-116000000D01*
X156635413Y-116955808D01*
X156899814Y-116860044D01*
X157040704Y-116570429D01*
X157122384Y-116258892D01*
X157141718Y-115937405D01*
X157123492Y-115804495D01*
X163015000Y-115804495D01*
X163015000Y-116195505D01*
X163091282Y-116579003D01*
X163240915Y-116940250D01*
X163458149Y-117265364D01*
X163734636Y-117541851D01*
X164059750Y-117759085D01*
X164420997Y-117908718D01*
X164804495Y-117985000D01*
X165195505Y-117985000D01*
X165579003Y-117908718D01*
X165940250Y-117759085D01*
X166265364Y-117541851D01*
X166541851Y-117265364D01*
X166759085Y-116940250D01*
X166908718Y-116579003D01*
X166985000Y-116195505D01*
X166985000Y-115804495D01*
X166908718Y-115420997D01*
X166759085Y-115059750D01*
X166541851Y-114734636D01*
X166265364Y-114458149D01*
X165940250Y-114240915D01*
X165579003Y-114091282D01*
X165195505Y-114015000D01*
X164804495Y-114015000D01*
X164420997Y-114091282D01*
X164059750Y-114240915D01*
X163734636Y-114458149D01*
X163458149Y-114734636D01*
X163240915Y-115059750D01*
X163091282Y-115420997D01*
X163015000Y-115804495D01*
X157123492Y-115804495D01*
X157097961Y-115618325D01*
X156992795Y-115313912D01*
X156899814Y-115139956D01*
X156635413Y-115044192D01*
X155679605Y-116000000D01*
X155320395Y-116000000D01*
X154364587Y-115044192D01*
X154100186Y-115139956D01*
X153959296Y-115429571D01*
X153877616Y-115741108D01*
X153858282Y-116062595D01*
X152635000Y-116062595D01*
X152635000Y-115838967D01*
X152572168Y-115523088D01*
X152448918Y-115225537D01*
X152269987Y-114957748D01*
X152176826Y-114864587D01*
X154544192Y-114864587D01*
X155500000Y-115820395D01*
X156455808Y-114864587D01*
X156360044Y-114600186D01*
X156070429Y-114459296D01*
X155758892Y-114377616D01*
X155437405Y-114358282D01*
X155118325Y-114402039D01*
X154813912Y-114507205D01*
X154639956Y-114600186D01*
X154544192Y-114864587D01*
X152176826Y-114864587D01*
X152042252Y-114730013D01*
X151774463Y-114551082D01*
X151476912Y-114427832D01*
X151161033Y-114365000D01*
X150838967Y-114365000D01*
X150523088Y-114427832D01*
X150225537Y-114551082D01*
X149957748Y-114730013D01*
X149730013Y-114957748D01*
X149551082Y-115225537D01*
X149427832Y-115523088D01*
X149365000Y-115838967D01*
X148582062Y-115838967D01*
X148527932Y-115566842D01*
X148415990Y-115296589D01*
X148253475Y-115053368D01*
X148046632Y-114846525D01*
X147803411Y-114684010D01*
X147533158Y-114572068D01*
X147246260Y-114515000D01*
X146953740Y-114515000D01*
X146666842Y-114572068D01*
X146396589Y-114684010D01*
X146153368Y-114846525D01*
X145946525Y-115053368D01*
X145830000Y-115227760D01*
X145713475Y-115053368D01*
X145506632Y-114846525D01*
X145263411Y-114684010D01*
X144993158Y-114572068D01*
X144706260Y-114515000D01*
X144413740Y-114515000D01*
X144126842Y-114572068D01*
X143856589Y-114684010D01*
X143613368Y-114846525D01*
X143406525Y-115053368D01*
X143290000Y-115227760D01*
X143173475Y-115053368D01*
X142966632Y-114846525D01*
X142723411Y-114684010D01*
X142453158Y-114572068D01*
X142166260Y-114515000D01*
X141873740Y-114515000D01*
X141586842Y-114572068D01*
X141316589Y-114684010D01*
X141073368Y-114846525D01*
X140866525Y-115053368D01*
X140750000Y-115227760D01*
X140633475Y-115053368D01*
X140426632Y-114846525D01*
X140183411Y-114684010D01*
X139913158Y-114572068D01*
X139626260Y-114515000D01*
X139333740Y-114515000D01*
X139046842Y-114572068D01*
X138776589Y-114684010D01*
X138533368Y-114846525D01*
X138326525Y-115053368D01*
X138210000Y-115227760D01*
X138093475Y-115053368D01*
X137886632Y-114846525D01*
X137643411Y-114684010D01*
X137373158Y-114572068D01*
X137086260Y-114515000D01*
X136793740Y-114515000D01*
X136506842Y-114572068D01*
X136236589Y-114684010D01*
X135993368Y-114846525D01*
X135786525Y-115053368D01*
X135670000Y-115227760D01*
X135553475Y-115053368D01*
X135346632Y-114846525D01*
X135103411Y-114684010D01*
X134833158Y-114572068D01*
X134546260Y-114515000D01*
X134253740Y-114515000D01*
X133966842Y-114572068D01*
X133696589Y-114684010D01*
X133453368Y-114846525D01*
X133246525Y-115053368D01*
X133130000Y-115227760D01*
X133013475Y-115053368D01*
X132806632Y-114846525D01*
X132563411Y-114684010D01*
X132293158Y-114572068D01*
X132006260Y-114515000D01*
X131713740Y-114515000D01*
X131426842Y-114572068D01*
X131156589Y-114684010D01*
X130913368Y-114846525D01*
X130706525Y-115053368D01*
X130590000Y-115227760D01*
X130473475Y-115053368D01*
X130266632Y-114846525D01*
X130023411Y-114684010D01*
X129753158Y-114572068D01*
X129466260Y-114515000D01*
X129173740Y-114515000D01*
X128886842Y-114572068D01*
X128616589Y-114684010D01*
X128373368Y-114846525D01*
X128166525Y-115053368D01*
X128050000Y-115227760D01*
X127933475Y-115053368D01*
X127726632Y-114846525D01*
X127483411Y-114684010D01*
X127213158Y-114572068D01*
X126926260Y-114515000D01*
X126633740Y-114515000D01*
X126346842Y-114572068D01*
X126076589Y-114684010D01*
X125833368Y-114846525D01*
X125626525Y-115053368D01*
X125510000Y-115227760D01*
X125393475Y-115053368D01*
X125186632Y-114846525D01*
X124943411Y-114684010D01*
X124673158Y-114572068D01*
X124386260Y-114515000D01*
X124093740Y-114515000D01*
X123806842Y-114572068D01*
X123536589Y-114684010D01*
X123293368Y-114846525D01*
X123086525Y-115053368D01*
X122970000Y-115227760D01*
X122853475Y-115053368D01*
X122646632Y-114846525D01*
X122403411Y-114684010D01*
X122133158Y-114572068D01*
X121846260Y-114515000D01*
X121553740Y-114515000D01*
X121266842Y-114572068D01*
X120996589Y-114684010D01*
X120753368Y-114846525D01*
X120546525Y-115053368D01*
X120430000Y-115227760D01*
X120313475Y-115053368D01*
X120106632Y-114846525D01*
X119863411Y-114684010D01*
X119593158Y-114572068D01*
X119306260Y-114515000D01*
X119013740Y-114515000D01*
X118726842Y-114572068D01*
X118456589Y-114684010D01*
X118213368Y-114846525D01*
X118006525Y-115053368D01*
X117890000Y-115227760D01*
X117773475Y-115053368D01*
X117566632Y-114846525D01*
X117323411Y-114684010D01*
X117053158Y-114572068D01*
X116766260Y-114515000D01*
X116473740Y-114515000D01*
X116186842Y-114572068D01*
X115916589Y-114684010D01*
X115673368Y-114846525D01*
X115466525Y-115053368D01*
X115350000Y-115227760D01*
X115233475Y-115053368D01*
X115026632Y-114846525D01*
X114783411Y-114684010D01*
X114513158Y-114572068D01*
X114226260Y-114515000D01*
X113933740Y-114515000D01*
X113646842Y-114572068D01*
X113376589Y-114684010D01*
X113133368Y-114846525D01*
X112926525Y-115053368D01*
X112810000Y-115227760D01*
X112693475Y-115053368D01*
X112486632Y-114846525D01*
X112243411Y-114684010D01*
X111973158Y-114572068D01*
X111686260Y-114515000D01*
X111393740Y-114515000D01*
X111106842Y-114572068D01*
X110836589Y-114684010D01*
X110593368Y-114846525D01*
X110461513Y-114978380D01*
X110439502Y-114905820D01*
X110380537Y-114795506D01*
X110301185Y-114698815D01*
X110204494Y-114619463D01*
X110094180Y-114560498D01*
X109974482Y-114524188D01*
X109850000Y-114511928D01*
X108150000Y-114511928D01*
X108025518Y-114524188D01*
X107905820Y-114560498D01*
X107795506Y-114619463D01*
X107698815Y-114698815D01*
X107619463Y-114795506D01*
X107560498Y-114905820D01*
X107524188Y-115025518D01*
X107511928Y-115150000D01*
X105796468Y-115150000D01*
X105759085Y-115059750D01*
X105541851Y-114734636D01*
X105265364Y-114458149D01*
X104940250Y-114240915D01*
X104579003Y-114091282D01*
X104195505Y-114015000D01*
X103804495Y-114015000D01*
X103420997Y-114091282D01*
X103059750Y-114240915D01*
X102734636Y-114458149D01*
X102458149Y-114734636D01*
X102240915Y-115059750D01*
X102091282Y-115420997D01*
X102015000Y-115804495D01*
X100660000Y-115804495D01*
X100660000Y-110898061D01*
X138965000Y-110898061D01*
X138965000Y-111101939D01*
X139004774Y-111301898D01*
X139082795Y-111490256D01*
X139196063Y-111659774D01*
X139340226Y-111803937D01*
X139509744Y-111917205D01*
X139698102Y-111995226D01*
X139898061Y-112035000D01*
X140101939Y-112035000D01*
X140301898Y-111995226D01*
X140490256Y-111917205D01*
X140659774Y-111803937D01*
X140803937Y-111659774D01*
X140917205Y-111490256D01*
X140995226Y-111301898D01*
X141035000Y-111101939D01*
X141035000Y-110898061D01*
X140995226Y-110698102D01*
X140917205Y-110509744D01*
X140803937Y-110340226D01*
X140659774Y-110196063D01*
X140490256Y-110082795D01*
X140301898Y-110004774D01*
X140101939Y-109965000D01*
X139898061Y-109965000D01*
X139698102Y-110004774D01*
X139509744Y-110082795D01*
X139340226Y-110196063D01*
X139196063Y-110340226D01*
X139082795Y-110509744D01*
X139004774Y-110698102D01*
X138965000Y-110898061D01*
X100660000Y-110898061D01*
X100660000Y-109338967D01*
X149365000Y-109338967D01*
X149365000Y-109661033D01*
X149427832Y-109976912D01*
X149551082Y-110274463D01*
X149730013Y-110542252D01*
X149957748Y-110769987D01*
X150225537Y-110948918D01*
X150523088Y-111072168D01*
X150838967Y-111135000D01*
X151161033Y-111135000D01*
X151476912Y-111072168D01*
X151774463Y-110948918D01*
X152042252Y-110769987D01*
X152176826Y-110635413D01*
X154544192Y-110635413D01*
X154639956Y-110899814D01*
X154929571Y-111040704D01*
X155241108Y-111122384D01*
X155562595Y-111141718D01*
X155881675Y-111097961D01*
X156186088Y-110992795D01*
X156360044Y-110899814D01*
X156455808Y-110635413D01*
X155500000Y-109679605D01*
X154544192Y-110635413D01*
X152176826Y-110635413D01*
X152269987Y-110542252D01*
X152448918Y-110274463D01*
X152572168Y-109976912D01*
X152635000Y-109661033D01*
X152635000Y-109562595D01*
X153858282Y-109562595D01*
X153902039Y-109881675D01*
X154007205Y-110186088D01*
X154100186Y-110360044D01*
X154364587Y-110455808D01*
X155320395Y-109500000D01*
X155679605Y-109500000D01*
X156635413Y-110455808D01*
X156899814Y-110360044D01*
X157040704Y-110070429D01*
X157122384Y-109758892D01*
X157141718Y-109437405D01*
X157097961Y-109118325D01*
X156992795Y-108813912D01*
X156899814Y-108639956D01*
X156635413Y-108544192D01*
X155679605Y-109500000D01*
X155320395Y-109500000D01*
X154364587Y-108544192D01*
X154100186Y-108639956D01*
X153959296Y-108929571D01*
X153877616Y-109241108D01*
X153858282Y-109562595D01*
X152635000Y-109562595D01*
X152635000Y-109338967D01*
X152572168Y-109023088D01*
X152448918Y-108725537D01*
X152269987Y-108457748D01*
X152176826Y-108364587D01*
X154544192Y-108364587D01*
X155500000Y-109320395D01*
X156455808Y-108364587D01*
X156360044Y-108100186D01*
X156070429Y-107959296D01*
X155758892Y-107877616D01*
X155437405Y-107858282D01*
X155118325Y-107902039D01*
X154813912Y-108007205D01*
X154639956Y-108100186D01*
X154544192Y-108364587D01*
X152176826Y-108364587D01*
X152042252Y-108230013D01*
X151774463Y-108051082D01*
X151476912Y-107927832D01*
X151161033Y-107865000D01*
X150838967Y-107865000D01*
X150523088Y-107927832D01*
X150225537Y-108051082D01*
X149957748Y-108230013D01*
X149730013Y-108457748D01*
X149551082Y-108725537D01*
X149427832Y-109023088D01*
X149365000Y-109338967D01*
X100660000Y-109338967D01*
X100660000Y-104898061D01*
X144049000Y-104898061D01*
X144049000Y-105101939D01*
X144088774Y-105301898D01*
X144166795Y-105490256D01*
X144280063Y-105659774D01*
X144424226Y-105803937D01*
X144593744Y-105917205D01*
X144782102Y-105995226D01*
X144982061Y-106035000D01*
X145185939Y-106035000D01*
X145385898Y-105995226D01*
X145574256Y-105917205D01*
X145592000Y-105905349D01*
X145609744Y-105917205D01*
X145798102Y-105995226D01*
X145998061Y-106035000D01*
X146201939Y-106035000D01*
X146401898Y-105995226D01*
X146590256Y-105917205D01*
X146759774Y-105803937D01*
X146903937Y-105659774D01*
X147017205Y-105490256D01*
X147095226Y-105301898D01*
X147135000Y-105101939D01*
X147135000Y-104898061D01*
X147095226Y-104698102D01*
X147017205Y-104509744D01*
X146903937Y-104340226D01*
X146759774Y-104196063D01*
X146590256Y-104082795D01*
X146401898Y-104004774D01*
X146201939Y-103965000D01*
X145998061Y-103965000D01*
X145798102Y-104004774D01*
X145609744Y-104082795D01*
X145592000Y-104094651D01*
X145574256Y-104082795D01*
X145385898Y-104004774D01*
X145185939Y-103965000D01*
X144982061Y-103965000D01*
X144782102Y-104004774D01*
X144593744Y-104082795D01*
X144424226Y-104196063D01*
X144280063Y-104340226D01*
X144166795Y-104509744D01*
X144088774Y-104698102D01*
X144049000Y-104898061D01*
X100660000Y-104898061D01*
X100660000Y-103220061D01*
X103309000Y-103220061D01*
X103309000Y-103423939D01*
X103348774Y-103623898D01*
X103426795Y-103812256D01*
X103540063Y-103981774D01*
X103684226Y-104125937D01*
X103853744Y-104239205D01*
X104042102Y-104317226D01*
X104242061Y-104357000D01*
X104445939Y-104357000D01*
X104645898Y-104317226D01*
X104834256Y-104239205D01*
X105003774Y-104125937D01*
X105147937Y-103981774D01*
X105261205Y-103812256D01*
X105339226Y-103623898D01*
X105379000Y-103423939D01*
X105379000Y-103220061D01*
X105339226Y-103020102D01*
X105261205Y-102831744D01*
X105147937Y-102662226D01*
X105003774Y-102518063D01*
X104834256Y-102404795D01*
X104645898Y-102326774D01*
X104445939Y-102287000D01*
X104242061Y-102287000D01*
X104042102Y-102326774D01*
X103853744Y-102404795D01*
X103684226Y-102518063D01*
X103540063Y-102662226D01*
X103426795Y-102831744D01*
X103348774Y-103020102D01*
X103309000Y-103220061D01*
X100660000Y-103220061D01*
X100660000Y-100073361D01*
X128111500Y-100073361D01*
X128111500Y-100277239D01*
X128151274Y-100477198D01*
X128229295Y-100665556D01*
X128342563Y-100835074D01*
X128486726Y-100979237D01*
X128656244Y-101092505D01*
X128844602Y-101170526D01*
X129044561Y-101210300D01*
X129248439Y-101210300D01*
X129448398Y-101170526D01*
X129636756Y-101092505D01*
X129806274Y-100979237D01*
X129950437Y-100835074D01*
X130063705Y-100665556D01*
X130141726Y-100477198D01*
X130181500Y-100277239D01*
X130181500Y-100073361D01*
X130141743Y-99873487D01*
X130261198Y-99849726D01*
X130449556Y-99771705D01*
X130619074Y-99658437D01*
X130763237Y-99514274D01*
X130876505Y-99344756D01*
X130954526Y-99156398D01*
X130994300Y-98956439D01*
X130994300Y-98752561D01*
X130954526Y-98552602D01*
X130876505Y-98364244D01*
X130849624Y-98324013D01*
X131196835Y-98324013D01*
X131196835Y-98527891D01*
X131236609Y-98727850D01*
X131314630Y-98916208D01*
X131427898Y-99085726D01*
X131572061Y-99229889D01*
X131741579Y-99343157D01*
X131929937Y-99421178D01*
X132129896Y-99460952D01*
X132333774Y-99460952D01*
X132533733Y-99421178D01*
X132560571Y-99410061D01*
X136837000Y-99410061D01*
X136837000Y-99613939D01*
X136876774Y-99813898D01*
X136954795Y-100002256D01*
X137068063Y-100171774D01*
X137212226Y-100315937D01*
X137381744Y-100429205D01*
X137402325Y-100437730D01*
X137384774Y-100480102D01*
X137345000Y-100680061D01*
X137345000Y-100883939D01*
X137384774Y-101083898D01*
X137462795Y-101272256D01*
X137576063Y-101441774D01*
X137720226Y-101585937D01*
X137889744Y-101699205D01*
X137910325Y-101707730D01*
X137892774Y-101750102D01*
X137853000Y-101950061D01*
X137853000Y-102153939D01*
X137892774Y-102353898D01*
X137970795Y-102542256D01*
X138084063Y-102711774D01*
X138228226Y-102855937D01*
X138397744Y-102969205D01*
X138522214Y-103020763D01*
X138478795Y-103085744D01*
X138400774Y-103274102D01*
X138361000Y-103474061D01*
X138361000Y-103677939D01*
X138400774Y-103877898D01*
X138478795Y-104066256D01*
X138592063Y-104235774D01*
X138736226Y-104379937D01*
X138905744Y-104493205D01*
X139094102Y-104571226D01*
X139294061Y-104611000D01*
X139497939Y-104611000D01*
X139697898Y-104571226D01*
X139886256Y-104493205D01*
X140055774Y-104379937D01*
X140199937Y-104235774D01*
X140313205Y-104066256D01*
X140391226Y-103877898D01*
X140431000Y-103677939D01*
X140431000Y-103474061D01*
X140391226Y-103274102D01*
X140313205Y-103085744D01*
X140199937Y-102916226D01*
X140119451Y-102835740D01*
X162269000Y-102835740D01*
X162269000Y-103128260D01*
X162326068Y-103415158D01*
X162438010Y-103685411D01*
X162600525Y-103928632D01*
X162807368Y-104135475D01*
X162981760Y-104252000D01*
X162807368Y-104368525D01*
X162600525Y-104575368D01*
X162438010Y-104818589D01*
X162326068Y-105088842D01*
X162269000Y-105375740D01*
X162269000Y-105668260D01*
X162326068Y-105955158D01*
X162438010Y-106225411D01*
X162600525Y-106468632D01*
X162807368Y-106675475D01*
X162981760Y-106792000D01*
X162807368Y-106908525D01*
X162600525Y-107115368D01*
X162438010Y-107358589D01*
X162326068Y-107628842D01*
X162269000Y-107915740D01*
X162269000Y-108208260D01*
X162326068Y-108495158D01*
X162438010Y-108765411D01*
X162600525Y-109008632D01*
X162807368Y-109215475D01*
X163050589Y-109377990D01*
X163320842Y-109489932D01*
X163607740Y-109547000D01*
X163900260Y-109547000D01*
X164187158Y-109489932D01*
X164457411Y-109377990D01*
X164700632Y-109215475D01*
X164907475Y-109008632D01*
X165069990Y-108765411D01*
X165181932Y-108495158D01*
X165239000Y-108208260D01*
X165239000Y-107915740D01*
X165181932Y-107628842D01*
X165069990Y-107358589D01*
X164907475Y-107115368D01*
X164700632Y-106908525D01*
X164526240Y-106792000D01*
X164700632Y-106675475D01*
X164907475Y-106468632D01*
X165069990Y-106225411D01*
X165181932Y-105955158D01*
X165239000Y-105668260D01*
X165239000Y-105375740D01*
X165181932Y-105088842D01*
X165069990Y-104818589D01*
X164907475Y-104575368D01*
X164700632Y-104368525D01*
X164526240Y-104252000D01*
X164700632Y-104135475D01*
X164907475Y-103928632D01*
X165069990Y-103685411D01*
X165181932Y-103415158D01*
X165239000Y-103128260D01*
X165239000Y-102835740D01*
X165181932Y-102548842D01*
X165069990Y-102278589D01*
X164907475Y-102035368D01*
X164700632Y-101828525D01*
X164518466Y-101706805D01*
X164635355Y-101637178D01*
X164851588Y-101442269D01*
X165025641Y-101208920D01*
X165150825Y-100946099D01*
X165195476Y-100798890D01*
X165074155Y-100569000D01*
X163881000Y-100569000D01*
X163881000Y-100589000D01*
X163627000Y-100589000D01*
X163627000Y-100569000D01*
X162433845Y-100569000D01*
X162312524Y-100798890D01*
X162357175Y-100946099D01*
X162482359Y-101208920D01*
X162656412Y-101442269D01*
X162872645Y-101637178D01*
X162989534Y-101706805D01*
X162807368Y-101828525D01*
X162600525Y-102035368D01*
X162438010Y-102278589D01*
X162326068Y-102548842D01*
X162269000Y-102835740D01*
X140119451Y-102835740D01*
X140055774Y-102772063D01*
X139886256Y-102658795D01*
X139761786Y-102607237D01*
X139805205Y-102542256D01*
X139883226Y-102353898D01*
X139923000Y-102153939D01*
X139923000Y-101950061D01*
X139883226Y-101750102D01*
X139805205Y-101561744D01*
X139691937Y-101392226D01*
X139547774Y-101248063D01*
X139378256Y-101134795D01*
X139357675Y-101126270D01*
X139375226Y-101083898D01*
X139415000Y-100883939D01*
X139415000Y-100680061D01*
X139375226Y-100480102D01*
X139297205Y-100291744D01*
X139183937Y-100122226D01*
X139039774Y-99978063D01*
X138870256Y-99864795D01*
X138849675Y-99856270D01*
X138867226Y-99813898D01*
X138907000Y-99613939D01*
X138907000Y-99410061D01*
X138867226Y-99210102D01*
X138789205Y-99021744D01*
X138675937Y-98852226D01*
X138531774Y-98708063D01*
X138362256Y-98594795D01*
X138173898Y-98516774D01*
X137973939Y-98477000D01*
X137770061Y-98477000D01*
X137570102Y-98516774D01*
X137381744Y-98594795D01*
X137212226Y-98708063D01*
X137068063Y-98852226D01*
X136954795Y-99021744D01*
X136876774Y-99210102D01*
X136837000Y-99410061D01*
X132560571Y-99410061D01*
X132722091Y-99343157D01*
X132891609Y-99229889D01*
X133035772Y-99085726D01*
X133149040Y-98916208D01*
X133227061Y-98727850D01*
X133266835Y-98527891D01*
X133266835Y-98324013D01*
X133227061Y-98124054D01*
X133149040Y-97935696D01*
X133094494Y-97854061D01*
X146965000Y-97854061D01*
X146965000Y-98057939D01*
X147004774Y-98257898D01*
X147082795Y-98446256D01*
X147196063Y-98615774D01*
X147340226Y-98759937D01*
X147509744Y-98873205D01*
X147698102Y-98951226D01*
X147898061Y-98991000D01*
X148101939Y-98991000D01*
X148301898Y-98951226D01*
X148490256Y-98873205D01*
X148659774Y-98759937D01*
X148803937Y-98615774D01*
X148917205Y-98446256D01*
X148995226Y-98257898D01*
X149035000Y-98057939D01*
X149035000Y-97854061D01*
X148995226Y-97654102D01*
X148917205Y-97465744D01*
X148803937Y-97296226D01*
X148659774Y-97152063D01*
X148490256Y-97038795D01*
X148301898Y-96960774D01*
X148101939Y-96921000D01*
X147898061Y-96921000D01*
X147698102Y-96960774D01*
X147509744Y-97038795D01*
X147340226Y-97152063D01*
X147196063Y-97296226D01*
X147082795Y-97465744D01*
X147004774Y-97654102D01*
X146965000Y-97854061D01*
X133094494Y-97854061D01*
X133035772Y-97766178D01*
X132891609Y-97622015D01*
X132722091Y-97508747D01*
X132533733Y-97430726D01*
X132333774Y-97390952D01*
X132129896Y-97390952D01*
X131929937Y-97430726D01*
X131741579Y-97508747D01*
X131572061Y-97622015D01*
X131427898Y-97766178D01*
X131314630Y-97935696D01*
X131236609Y-98124054D01*
X131196835Y-98324013D01*
X130849624Y-98324013D01*
X130763237Y-98194726D01*
X130619074Y-98050563D01*
X130449556Y-97937295D01*
X130261198Y-97859274D01*
X130061239Y-97819500D01*
X129857361Y-97819500D01*
X129657402Y-97859274D01*
X129469044Y-97937295D01*
X129299526Y-98050563D01*
X129155363Y-98194726D01*
X129042095Y-98364244D01*
X128964074Y-98552602D01*
X128924300Y-98752561D01*
X128924300Y-98956439D01*
X128964057Y-99156313D01*
X128844602Y-99180074D01*
X128656244Y-99258095D01*
X128486726Y-99371363D01*
X128342563Y-99515526D01*
X128229295Y-99685044D01*
X128151274Y-99873402D01*
X128111500Y-100073361D01*
X100660000Y-100073361D01*
X100660000Y-97052000D01*
X103109328Y-97052000D01*
X103109328Y-98752000D01*
X103121588Y-98876482D01*
X103157898Y-98996180D01*
X103216863Y-99106494D01*
X103296215Y-99203185D01*
X103392906Y-99282537D01*
X103503220Y-99341502D01*
X103622918Y-99377812D01*
X103747400Y-99390072D01*
X105447400Y-99390072D01*
X105571882Y-99377812D01*
X105691580Y-99341502D01*
X105801894Y-99282537D01*
X105898585Y-99203185D01*
X105977937Y-99106494D01*
X106036902Y-98996180D01*
X106058913Y-98923620D01*
X106190768Y-99055475D01*
X106433989Y-99217990D01*
X106704242Y-99329932D01*
X106991140Y-99387000D01*
X107283660Y-99387000D01*
X107570558Y-99329932D01*
X107840811Y-99217990D01*
X108084032Y-99055475D01*
X108290875Y-98848632D01*
X108407400Y-98674240D01*
X108523925Y-98848632D01*
X108730768Y-99055475D01*
X108973989Y-99217990D01*
X109244242Y-99329932D01*
X109531140Y-99387000D01*
X109823660Y-99387000D01*
X110110558Y-99329932D01*
X110380811Y-99217990D01*
X110624032Y-99055475D01*
X110830875Y-98848632D01*
X110993390Y-98605411D01*
X111105332Y-98335158D01*
X111162400Y-98048260D01*
X111162400Y-97755740D01*
X111105332Y-97468842D01*
X110993390Y-97198589D01*
X110830875Y-96955368D01*
X110624032Y-96748525D01*
X110447994Y-96630900D01*
X110677669Y-96459588D01*
X110872578Y-96243355D01*
X111021557Y-95993252D01*
X111118881Y-95718891D01*
X110998214Y-95489000D01*
X109804400Y-95489000D01*
X109804400Y-95509000D01*
X109550400Y-95509000D01*
X109550400Y-95489000D01*
X107264400Y-95489000D01*
X107264400Y-95509000D01*
X107010400Y-95509000D01*
X107010400Y-95489000D01*
X104724400Y-95489000D01*
X104724400Y-95509000D01*
X104470400Y-95509000D01*
X104470400Y-95489000D01*
X103276586Y-95489000D01*
X103155919Y-95718891D01*
X103253243Y-95993252D01*
X103402222Y-96243355D01*
X103579026Y-96439502D01*
X103503220Y-96462498D01*
X103392906Y-96521463D01*
X103296215Y-96600815D01*
X103216863Y-96697506D01*
X103157898Y-96807820D01*
X103121588Y-96927518D01*
X103109328Y-97052000D01*
X100660000Y-97052000D01*
X100660000Y-95005109D01*
X103155919Y-95005109D01*
X103276586Y-95235000D01*
X104470400Y-95235000D01*
X104470400Y-94041845D01*
X104724400Y-94041845D01*
X104724400Y-95235000D01*
X107010400Y-95235000D01*
X107010400Y-94041845D01*
X107264400Y-94041845D01*
X107264400Y-95235000D01*
X109550400Y-95235000D01*
X109550400Y-94041845D01*
X109804400Y-94041845D01*
X109804400Y-95235000D01*
X110998214Y-95235000D01*
X111118881Y-95005109D01*
X111021557Y-94730748D01*
X110872578Y-94480645D01*
X110677669Y-94264412D01*
X110444320Y-94090359D01*
X110181499Y-93965175D01*
X110034290Y-93920524D01*
X109804400Y-94041845D01*
X109550400Y-94041845D01*
X109320510Y-93920524D01*
X109173301Y-93965175D01*
X108910480Y-94090359D01*
X108677131Y-94264412D01*
X108482222Y-94480645D01*
X108407400Y-94606255D01*
X108332578Y-94480645D01*
X108137669Y-94264412D01*
X107904320Y-94090359D01*
X107641499Y-93965175D01*
X107494290Y-93920524D01*
X107264400Y-94041845D01*
X107010400Y-94041845D01*
X106780510Y-93920524D01*
X106633301Y-93965175D01*
X106370480Y-94090359D01*
X106137131Y-94264412D01*
X105942222Y-94480645D01*
X105867400Y-94606255D01*
X105792578Y-94480645D01*
X105597669Y-94264412D01*
X105364320Y-94090359D01*
X105101499Y-93965175D01*
X104954290Y-93920524D01*
X104724400Y-94041845D01*
X104470400Y-94041845D01*
X104240510Y-93920524D01*
X104093301Y-93965175D01*
X103830480Y-94090359D01*
X103597131Y-94264412D01*
X103402222Y-94480645D01*
X103253243Y-94730748D01*
X103155919Y-95005109D01*
X100660000Y-95005109D01*
X100660000Y-93398061D01*
X124965000Y-93398061D01*
X124965000Y-93601939D01*
X125004774Y-93801898D01*
X125082795Y-93990256D01*
X125196063Y-94159774D01*
X125340226Y-94303937D01*
X125509744Y-94417205D01*
X125698102Y-94495226D01*
X125898061Y-94535000D01*
X126008126Y-94535000D01*
X126082795Y-94715266D01*
X126196063Y-94884784D01*
X126340226Y-95028947D01*
X126509744Y-95142215D01*
X126698102Y-95220236D01*
X126898061Y-95260010D01*
X127101939Y-95260010D01*
X127301898Y-95220236D01*
X127490256Y-95142215D01*
X127659774Y-95028947D01*
X127803937Y-94884784D01*
X127917205Y-94715266D01*
X127995226Y-94526908D01*
X127998191Y-94512000D01*
X162265928Y-94512000D01*
X162265928Y-96212000D01*
X162278188Y-96336482D01*
X162314498Y-96456180D01*
X162373463Y-96566494D01*
X162452815Y-96663185D01*
X162549506Y-96742537D01*
X162659820Y-96801502D01*
X162732380Y-96823513D01*
X162600525Y-96955368D01*
X162438010Y-97198589D01*
X162326068Y-97468842D01*
X162269000Y-97755740D01*
X162269000Y-98048260D01*
X162326068Y-98335158D01*
X162438010Y-98605411D01*
X162600525Y-98848632D01*
X162807368Y-99055475D01*
X162989534Y-99177195D01*
X162872645Y-99246822D01*
X162656412Y-99441731D01*
X162482359Y-99675080D01*
X162357175Y-99937901D01*
X162312524Y-100085110D01*
X162433845Y-100315000D01*
X163627000Y-100315000D01*
X163627000Y-100295000D01*
X163881000Y-100295000D01*
X163881000Y-100315000D01*
X165074155Y-100315000D01*
X165195476Y-100085110D01*
X165150825Y-99937901D01*
X165025641Y-99675080D01*
X164851588Y-99441731D01*
X164635355Y-99246822D01*
X164518466Y-99177195D01*
X164700632Y-99055475D01*
X164907475Y-98848632D01*
X165069990Y-98605411D01*
X165181932Y-98335158D01*
X165239000Y-98048260D01*
X165239000Y-97755740D01*
X165181932Y-97468842D01*
X165069990Y-97198589D01*
X164907475Y-96955368D01*
X164775620Y-96823513D01*
X164848180Y-96801502D01*
X164958494Y-96742537D01*
X165055185Y-96663185D01*
X165134537Y-96566494D01*
X165193502Y-96456180D01*
X165229812Y-96336482D01*
X165242072Y-96212000D01*
X165242072Y-94512000D01*
X165229812Y-94387518D01*
X165193502Y-94267820D01*
X165134537Y-94157506D01*
X165055185Y-94060815D01*
X164958494Y-93981463D01*
X164848180Y-93922498D01*
X164728482Y-93886188D01*
X164604000Y-93873928D01*
X162904000Y-93873928D01*
X162779518Y-93886188D01*
X162659820Y-93922498D01*
X162549506Y-93981463D01*
X162452815Y-94060815D01*
X162373463Y-94157506D01*
X162314498Y-94267820D01*
X162278188Y-94387518D01*
X162265928Y-94512000D01*
X127998191Y-94512000D01*
X128035000Y-94326949D01*
X128035000Y-94123071D01*
X127995226Y-93923112D01*
X127917205Y-93734754D01*
X127803937Y-93565236D01*
X127659774Y-93421073D01*
X127490256Y-93307805D01*
X127301898Y-93229784D01*
X127101939Y-93190010D01*
X126991874Y-93190010D01*
X126917205Y-93009744D01*
X126803937Y-92840226D01*
X126659774Y-92696063D01*
X126490256Y-92582795D01*
X126301898Y-92504774D01*
X126101939Y-92465000D01*
X125898061Y-92465000D01*
X125698102Y-92504774D01*
X125509744Y-92582795D01*
X125340226Y-92696063D01*
X125196063Y-92840226D01*
X125082795Y-93009744D01*
X125004774Y-93198102D01*
X124965000Y-93398061D01*
X100660000Y-93398061D01*
X100660000Y-91531402D01*
X119315661Y-91531402D01*
X119315661Y-91735280D01*
X119355435Y-91935239D01*
X119433456Y-92123597D01*
X119546724Y-92293115D01*
X119690887Y-92437278D01*
X119860405Y-92550546D01*
X120048763Y-92628567D01*
X120248722Y-92668341D01*
X120452600Y-92668341D01*
X120652559Y-92628567D01*
X120840917Y-92550546D01*
X121010435Y-92437278D01*
X121154598Y-92293115D01*
X121267866Y-92123597D01*
X121345887Y-91935239D01*
X121374764Y-91790061D01*
X157725000Y-91790061D01*
X157725000Y-91993939D01*
X157764774Y-92193898D01*
X157842795Y-92382256D01*
X157956063Y-92551774D01*
X158100226Y-92695937D01*
X158269744Y-92809205D01*
X158458102Y-92887226D01*
X158658061Y-92927000D01*
X158861939Y-92927000D01*
X159061898Y-92887226D01*
X159250256Y-92809205D01*
X159307347Y-92771058D01*
X159340226Y-92803937D01*
X159509744Y-92917205D01*
X159698102Y-92995226D01*
X159898061Y-93035000D01*
X160101939Y-93035000D01*
X160301898Y-92995226D01*
X160490256Y-92917205D01*
X160659774Y-92803937D01*
X160803937Y-92659774D01*
X160917205Y-92490256D01*
X160995226Y-92301898D01*
X161035000Y-92101939D01*
X161035000Y-91898061D01*
X160995226Y-91698102D01*
X160917205Y-91509744D01*
X160803937Y-91340226D01*
X160659774Y-91196063D01*
X160490256Y-91082795D01*
X160301898Y-91004774D01*
X160101939Y-90965000D01*
X159898061Y-90965000D01*
X159698102Y-91004774D01*
X159509744Y-91082795D01*
X159452653Y-91120942D01*
X159419774Y-91088063D01*
X159250256Y-90974795D01*
X159061898Y-90896774D01*
X158861939Y-90857000D01*
X158658061Y-90857000D01*
X158458102Y-90896774D01*
X158269744Y-90974795D01*
X158100226Y-91088063D01*
X157956063Y-91232226D01*
X157842795Y-91401744D01*
X157764774Y-91590102D01*
X157725000Y-91790061D01*
X121374764Y-91790061D01*
X121385661Y-91735280D01*
X121385661Y-91531402D01*
X121345887Y-91331443D01*
X121267866Y-91143085D01*
X121154598Y-90973567D01*
X121010435Y-90829404D01*
X120840917Y-90716136D01*
X120652559Y-90638115D01*
X120452600Y-90598341D01*
X120248722Y-90598341D01*
X120048763Y-90638115D01*
X119860405Y-90716136D01*
X119690887Y-90829404D01*
X119546724Y-90973567D01*
X119433456Y-91143085D01*
X119355435Y-91331443D01*
X119315661Y-91531402D01*
X100660000Y-91531402D01*
X100660000Y-89867070D01*
X136837000Y-89867070D01*
X136837000Y-90070948D01*
X136876774Y-90270907D01*
X136954795Y-90459265D01*
X137068063Y-90628783D01*
X137212226Y-90772946D01*
X137381744Y-90886214D01*
X137570102Y-90964235D01*
X137770061Y-91004009D01*
X137973939Y-91004009D01*
X138173898Y-90964235D01*
X138362256Y-90886214D01*
X138531774Y-90772946D01*
X138675937Y-90628783D01*
X138789205Y-90459265D01*
X138863874Y-90278999D01*
X138881938Y-90278999D01*
X139081897Y-90239225D01*
X139270255Y-90161204D01*
X139439773Y-90047936D01*
X139455294Y-90032415D01*
X139602102Y-90093226D01*
X139802061Y-90133000D01*
X140005939Y-90133000D01*
X140205898Y-90093226D01*
X140394256Y-90015205D01*
X140412000Y-90003349D01*
X140429744Y-90015205D01*
X140618102Y-90093226D01*
X140818061Y-90133000D01*
X141021939Y-90133000D01*
X141221898Y-90093226D01*
X141410256Y-90015205D01*
X141579774Y-89901937D01*
X141723937Y-89757774D01*
X141837205Y-89588256D01*
X141915226Y-89399898D01*
X141955000Y-89199939D01*
X141955000Y-88996061D01*
X141915226Y-88796102D01*
X141837205Y-88607744D01*
X141723937Y-88438226D01*
X141579774Y-88294063D01*
X141410256Y-88180795D01*
X141221898Y-88102774D01*
X141021939Y-88063000D01*
X140818061Y-88063000D01*
X140618102Y-88102774D01*
X140429744Y-88180795D01*
X140412000Y-88192651D01*
X140394256Y-88180795D01*
X140205898Y-88102774D01*
X140005939Y-88063000D01*
X139802061Y-88063000D01*
X139602102Y-88102774D01*
X139413744Y-88180795D01*
X139244226Y-88294063D01*
X139228705Y-88309584D01*
X139081897Y-88248773D01*
X138881938Y-88208999D01*
X138678060Y-88208999D01*
X138478101Y-88248773D01*
X138289743Y-88326794D01*
X138120225Y-88440062D01*
X137976062Y-88584225D01*
X137862794Y-88753743D01*
X137788125Y-88934009D01*
X137770061Y-88934009D01*
X137570102Y-88973783D01*
X137381744Y-89051804D01*
X137212226Y-89165072D01*
X137068063Y-89309235D01*
X136954795Y-89478753D01*
X136876774Y-89667111D01*
X136837000Y-89867070D01*
X100660000Y-89867070D01*
X100660000Y-88097261D01*
X119335800Y-88097261D01*
X119335800Y-88301139D01*
X119375574Y-88501098D01*
X119453595Y-88689456D01*
X119566863Y-88858974D01*
X119711026Y-89003137D01*
X119880544Y-89116405D01*
X120068902Y-89194426D01*
X120268861Y-89234200D01*
X120472739Y-89234200D01*
X120672698Y-89194426D01*
X120861056Y-89116405D01*
X121030574Y-89003137D01*
X121174737Y-88858974D01*
X121288005Y-88689456D01*
X121366026Y-88501098D01*
X121405800Y-88301139D01*
X121405800Y-88097261D01*
X121366026Y-87897302D01*
X121288005Y-87708944D01*
X121174737Y-87539426D01*
X121030574Y-87395263D01*
X120861056Y-87281995D01*
X120672698Y-87203974D01*
X120472739Y-87164200D01*
X120268861Y-87164200D01*
X120068902Y-87203974D01*
X119880544Y-87281995D01*
X119711026Y-87395263D01*
X119566863Y-87539426D01*
X119453595Y-87708944D01*
X119375574Y-87897302D01*
X119335800Y-88097261D01*
X100660000Y-88097261D01*
X100660000Y-84170061D01*
X139377000Y-84170061D01*
X139377000Y-84373939D01*
X139416774Y-84573898D01*
X139494795Y-84762256D01*
X139608063Y-84931774D01*
X139752226Y-85075937D01*
X139921744Y-85189205D01*
X140110102Y-85267226D01*
X140310061Y-85307000D01*
X140513939Y-85307000D01*
X140713898Y-85267226D01*
X140902256Y-85189205D01*
X141071774Y-85075937D01*
X141215937Y-84931774D01*
X141329205Y-84762256D01*
X141407226Y-84573898D01*
X141447000Y-84373939D01*
X141447000Y-84338061D01*
X153575000Y-84338061D01*
X153575000Y-84541939D01*
X153614774Y-84741898D01*
X153692795Y-84930256D01*
X153806063Y-85099774D01*
X153950226Y-85243937D01*
X154119744Y-85357205D01*
X154308102Y-85435226D01*
X154508061Y-85475000D01*
X154711939Y-85475000D01*
X154911898Y-85435226D01*
X155100256Y-85357205D01*
X155269774Y-85243937D01*
X155413937Y-85099774D01*
X155527205Y-84930256D01*
X155605226Y-84741898D01*
X155645000Y-84541939D01*
X155645000Y-84338061D01*
X155605226Y-84138102D01*
X155527205Y-83949744D01*
X155413937Y-83780226D01*
X155269774Y-83636063D01*
X155100256Y-83522795D01*
X154911898Y-83444774D01*
X154711939Y-83405000D01*
X154508061Y-83405000D01*
X154308102Y-83444774D01*
X154119744Y-83522795D01*
X153950226Y-83636063D01*
X153806063Y-83780226D01*
X153692795Y-83949744D01*
X153614774Y-84138102D01*
X153575000Y-84338061D01*
X141447000Y-84338061D01*
X141447000Y-84170061D01*
X141407226Y-83970102D01*
X141329205Y-83781744D01*
X141215937Y-83612226D01*
X141071774Y-83468063D01*
X140902256Y-83354795D01*
X140713898Y-83276774D01*
X140513939Y-83237000D01*
X140310061Y-83237000D01*
X140110102Y-83276774D01*
X139921744Y-83354795D01*
X139752226Y-83468063D01*
X139608063Y-83612226D01*
X139494795Y-83781744D01*
X139416774Y-83970102D01*
X139377000Y-84170061D01*
X100660000Y-84170061D01*
X100660000Y-81122061D01*
X122105000Y-81122061D01*
X122105000Y-81325939D01*
X122144774Y-81525898D01*
X122222795Y-81714256D01*
X122336063Y-81883774D01*
X122480226Y-82027937D01*
X122649744Y-82141205D01*
X122838102Y-82219226D01*
X123038061Y-82259000D01*
X123241939Y-82259000D01*
X123441898Y-82219226D01*
X123630256Y-82141205D01*
X123799774Y-82027937D01*
X123943650Y-81884061D01*
X126940000Y-81884061D01*
X126940000Y-82087939D01*
X126979774Y-82287898D01*
X127057795Y-82476256D01*
X127069651Y-82494000D01*
X127057795Y-82511744D01*
X126979774Y-82700102D01*
X126940000Y-82900061D01*
X126940000Y-83103939D01*
X126979774Y-83303898D01*
X127057795Y-83492256D01*
X127171063Y-83661774D01*
X127315226Y-83805937D01*
X127484744Y-83919205D01*
X127673102Y-83997226D01*
X127873061Y-84037000D01*
X128076939Y-84037000D01*
X128276898Y-83997226D01*
X128465256Y-83919205D01*
X128634774Y-83805937D01*
X128778937Y-83661774D01*
X128892205Y-83492256D01*
X128970226Y-83303898D01*
X129010000Y-83103939D01*
X129010000Y-82900061D01*
X128970226Y-82700102D01*
X128892205Y-82511744D01*
X128880349Y-82494000D01*
X128892205Y-82476256D01*
X128951506Y-82333091D01*
X141509919Y-82333091D01*
X141607243Y-82607452D01*
X141756222Y-82857555D01*
X141951131Y-83073788D01*
X142184480Y-83247841D01*
X142447301Y-83373025D01*
X142594510Y-83417676D01*
X142824400Y-83296355D01*
X142824400Y-82103200D01*
X143078400Y-82103200D01*
X143078400Y-83296355D01*
X143308290Y-83417676D01*
X143455499Y-83373025D01*
X143718320Y-83247841D01*
X143951669Y-83073788D01*
X144146578Y-82857555D01*
X144221400Y-82731945D01*
X144296222Y-82857555D01*
X144491131Y-83073788D01*
X144724480Y-83247841D01*
X144987301Y-83373025D01*
X145134510Y-83417676D01*
X145364400Y-83296355D01*
X145364400Y-82103200D01*
X145618400Y-82103200D01*
X145618400Y-83296355D01*
X145848290Y-83417676D01*
X145995499Y-83373025D01*
X146258320Y-83247841D01*
X146491669Y-83073788D01*
X146686578Y-82857555D01*
X146761400Y-82731945D01*
X146836222Y-82857555D01*
X147031131Y-83073788D01*
X147264480Y-83247841D01*
X147527301Y-83373025D01*
X147674510Y-83417676D01*
X147904400Y-83296355D01*
X147904400Y-82103200D01*
X148158400Y-82103200D01*
X148158400Y-83296355D01*
X148388290Y-83417676D01*
X148535499Y-83373025D01*
X148798320Y-83247841D01*
X149031669Y-83073788D01*
X149226578Y-82857555D01*
X149375557Y-82607452D01*
X149449834Y-82398061D01*
X159215000Y-82398061D01*
X159215000Y-82601939D01*
X159254774Y-82801898D01*
X159332795Y-82990256D01*
X159446063Y-83159774D01*
X159590226Y-83303937D01*
X159759744Y-83417205D01*
X159948102Y-83495226D01*
X160148061Y-83535000D01*
X160351939Y-83535000D01*
X160551898Y-83495226D01*
X160740256Y-83417205D01*
X160909774Y-83303937D01*
X161053937Y-83159774D01*
X161167205Y-82990256D01*
X161245226Y-82801898D01*
X161285000Y-82601939D01*
X161285000Y-82398061D01*
X161245226Y-82198102D01*
X161167205Y-82009744D01*
X161053937Y-81840226D01*
X160909774Y-81696063D01*
X160740256Y-81582795D01*
X160551898Y-81504774D01*
X160351939Y-81465000D01*
X160148061Y-81465000D01*
X159948102Y-81504774D01*
X159759744Y-81582795D01*
X159590226Y-81696063D01*
X159446063Y-81840226D01*
X159332795Y-82009744D01*
X159254774Y-82198102D01*
X159215000Y-82398061D01*
X149449834Y-82398061D01*
X149472881Y-82333091D01*
X149352214Y-82103200D01*
X148158400Y-82103200D01*
X147904400Y-82103200D01*
X145618400Y-82103200D01*
X145364400Y-82103200D01*
X143078400Y-82103200D01*
X142824400Y-82103200D01*
X141630586Y-82103200D01*
X141509919Y-82333091D01*
X128951506Y-82333091D01*
X128970226Y-82287898D01*
X129010000Y-82087939D01*
X129010000Y-81969184D01*
X129029898Y-81965226D01*
X129218256Y-81887205D01*
X129387774Y-81773937D01*
X129531937Y-81629774D01*
X129645205Y-81460256D01*
X129723226Y-81271898D01*
X129734619Y-81214619D01*
X129791898Y-81203226D01*
X129980256Y-81125205D01*
X130149774Y-81011937D01*
X130293937Y-80867774D01*
X130407205Y-80698256D01*
X130485226Y-80509898D01*
X130525000Y-80309939D01*
X130525000Y-80106061D01*
X130485226Y-79906102D01*
X130407205Y-79717744D01*
X130333023Y-79606722D01*
X130333901Y-79606897D01*
X130537779Y-79606897D01*
X130737738Y-79567123D01*
X130926096Y-79489102D01*
X131095614Y-79375834D01*
X131181508Y-79289940D01*
X141466400Y-79289940D01*
X141466400Y-79582460D01*
X141523468Y-79869358D01*
X141635410Y-80139611D01*
X141797925Y-80382832D01*
X142004768Y-80589675D01*
X142180806Y-80707300D01*
X141951131Y-80878612D01*
X141756222Y-81094845D01*
X141607243Y-81344948D01*
X141509919Y-81619309D01*
X141630586Y-81849200D01*
X142824400Y-81849200D01*
X142824400Y-81829200D01*
X143078400Y-81829200D01*
X143078400Y-81849200D01*
X145364400Y-81849200D01*
X145364400Y-81829200D01*
X145618400Y-81829200D01*
X145618400Y-81849200D01*
X147904400Y-81849200D01*
X147904400Y-81829200D01*
X148158400Y-81829200D01*
X148158400Y-81849200D01*
X149352214Y-81849200D01*
X149472881Y-81619309D01*
X149375557Y-81344948D01*
X149226578Y-81094845D01*
X149049774Y-80898698D01*
X149125580Y-80875702D01*
X149235894Y-80816737D01*
X149332585Y-80737385D01*
X149411937Y-80640694D01*
X149470902Y-80530380D01*
X149507212Y-80410682D01*
X149519472Y-80286200D01*
X149519472Y-78586200D01*
X149507212Y-78461718D01*
X149470902Y-78342020D01*
X149411937Y-78231706D01*
X149332585Y-78135015D01*
X149235894Y-78055663D01*
X149125580Y-77996698D01*
X149005882Y-77960388D01*
X148881400Y-77948128D01*
X147181400Y-77948128D01*
X147056918Y-77960388D01*
X146937220Y-77996698D01*
X146826906Y-78055663D01*
X146730215Y-78135015D01*
X146650863Y-78231706D01*
X146591898Y-78342020D01*
X146569887Y-78414580D01*
X146438032Y-78282725D01*
X146194811Y-78120210D01*
X145924558Y-78008268D01*
X145637660Y-77951200D01*
X145345140Y-77951200D01*
X145058242Y-78008268D01*
X144787989Y-78120210D01*
X144544768Y-78282725D01*
X144337925Y-78489568D01*
X144221400Y-78663960D01*
X144104875Y-78489568D01*
X143898032Y-78282725D01*
X143654811Y-78120210D01*
X143384558Y-78008268D01*
X143097660Y-77951200D01*
X142805140Y-77951200D01*
X142518242Y-78008268D01*
X142247989Y-78120210D01*
X142004768Y-78282725D01*
X141797925Y-78489568D01*
X141635410Y-78732789D01*
X141523468Y-79003042D01*
X141466400Y-79289940D01*
X131181508Y-79289940D01*
X131239777Y-79231671D01*
X131353045Y-79062153D01*
X131431066Y-78873795D01*
X131470840Y-78673836D01*
X131470840Y-78469958D01*
X131431066Y-78269999D01*
X131353045Y-78081641D01*
X131239777Y-77912123D01*
X131095614Y-77767960D01*
X130926096Y-77654692D01*
X130737738Y-77576671D01*
X130537779Y-77536897D01*
X130333901Y-77536897D01*
X130133942Y-77576671D01*
X129945584Y-77654692D01*
X129776066Y-77767960D01*
X129631903Y-77912123D01*
X129518635Y-78081641D01*
X129440614Y-78269999D01*
X129400840Y-78469958D01*
X129400840Y-78673836D01*
X129440614Y-78873795D01*
X129518635Y-79062153D01*
X129592817Y-79173175D01*
X129591939Y-79173000D01*
X129388061Y-79173000D01*
X129188102Y-79212774D01*
X128999744Y-79290795D01*
X128830226Y-79404063D01*
X128686063Y-79548226D01*
X128572795Y-79717744D01*
X128494774Y-79906102D01*
X128483381Y-79963381D01*
X128426102Y-79974774D01*
X128237744Y-80052795D01*
X128068226Y-80166063D01*
X127924063Y-80310226D01*
X127810795Y-80479744D01*
X127732774Y-80668102D01*
X127693000Y-80868061D01*
X127693000Y-80986816D01*
X127673102Y-80990774D01*
X127484744Y-81068795D01*
X127315226Y-81182063D01*
X127171063Y-81326226D01*
X127057795Y-81495744D01*
X126979774Y-81684102D01*
X126940000Y-81884061D01*
X123943650Y-81884061D01*
X123943937Y-81883774D01*
X124057205Y-81714256D01*
X124135226Y-81525898D01*
X124175000Y-81325939D01*
X124175000Y-81122061D01*
X124135226Y-80922102D01*
X124057205Y-80733744D01*
X123943937Y-80564226D01*
X123799774Y-80420063D01*
X123630256Y-80306795D01*
X123441898Y-80228774D01*
X123241939Y-80189000D01*
X123038061Y-80189000D01*
X122838102Y-80228774D01*
X122649744Y-80306795D01*
X122480226Y-80420063D01*
X122336063Y-80564226D01*
X122222795Y-80733744D01*
X122144774Y-80922102D01*
X122105000Y-81122061D01*
X100660000Y-81122061D01*
X100660000Y-77810261D01*
X113785900Y-77810261D01*
X113785900Y-78014139D01*
X113825674Y-78214098D01*
X113903695Y-78402456D01*
X114016963Y-78571974D01*
X114161126Y-78716137D01*
X114330644Y-78829405D01*
X114519002Y-78907426D01*
X114718961Y-78947200D01*
X114922839Y-78947200D01*
X115122798Y-78907426D01*
X115311156Y-78829405D01*
X115480674Y-78716137D01*
X115624837Y-78571974D01*
X115738105Y-78402456D01*
X115816126Y-78214098D01*
X115855900Y-78014139D01*
X115855900Y-77810261D01*
X115816126Y-77610302D01*
X115738105Y-77421944D01*
X115624837Y-77252426D01*
X115480674Y-77108263D01*
X115311156Y-76994995D01*
X115122798Y-76916974D01*
X114922839Y-76877200D01*
X114718961Y-76877200D01*
X114519002Y-76916974D01*
X114330644Y-76994995D01*
X114161126Y-77108263D01*
X114016963Y-77252426D01*
X113903695Y-77421944D01*
X113825674Y-77610302D01*
X113785900Y-77810261D01*
X100660000Y-77810261D01*
X100660000Y-73804495D01*
X102015000Y-73804495D01*
X102015000Y-74195505D01*
X102091282Y-74579003D01*
X102240915Y-74940250D01*
X102458149Y-75265364D01*
X102734636Y-75541851D01*
X103059750Y-75759085D01*
X103420997Y-75908718D01*
X103804495Y-75985000D01*
X104195505Y-75985000D01*
X104579003Y-75908718D01*
X104940250Y-75759085D01*
X105265364Y-75541851D01*
X105541851Y-75265364D01*
X105759085Y-74940250D01*
X105908718Y-74579003D01*
X105985000Y-74195505D01*
X105985000Y-73804495D01*
X105908718Y-73420997D01*
X105796468Y-73150000D01*
X107511928Y-73150000D01*
X107511928Y-74850000D01*
X107524188Y-74974482D01*
X107560498Y-75094180D01*
X107619463Y-75204494D01*
X107698815Y-75301185D01*
X107795506Y-75380537D01*
X107905820Y-75439502D01*
X108025518Y-75475812D01*
X108150000Y-75488072D01*
X109850000Y-75488072D01*
X109974482Y-75475812D01*
X110094180Y-75439502D01*
X110204494Y-75380537D01*
X110301185Y-75301185D01*
X110380537Y-75204494D01*
X110439502Y-75094180D01*
X110461513Y-75021620D01*
X110593368Y-75153475D01*
X110836589Y-75315990D01*
X111106842Y-75427932D01*
X111393740Y-75485000D01*
X111686260Y-75485000D01*
X111973158Y-75427932D01*
X112243411Y-75315990D01*
X112486632Y-75153475D01*
X112693475Y-74946632D01*
X112810000Y-74772240D01*
X112926525Y-74946632D01*
X113133368Y-75153475D01*
X113376589Y-75315990D01*
X113646842Y-75427932D01*
X113933740Y-75485000D01*
X114226260Y-75485000D01*
X114513158Y-75427932D01*
X114783411Y-75315990D01*
X115026632Y-75153475D01*
X115233475Y-74946632D01*
X115350000Y-74772240D01*
X115466525Y-74946632D01*
X115673368Y-75153475D01*
X115916589Y-75315990D01*
X116186842Y-75427932D01*
X116473740Y-75485000D01*
X116766260Y-75485000D01*
X117053158Y-75427932D01*
X117323411Y-75315990D01*
X117566632Y-75153475D01*
X117773475Y-74946632D01*
X117890000Y-74772240D01*
X118006525Y-74946632D01*
X118213368Y-75153475D01*
X118456589Y-75315990D01*
X118726842Y-75427932D01*
X119013740Y-75485000D01*
X119306260Y-75485000D01*
X119593158Y-75427932D01*
X119863411Y-75315990D01*
X120106632Y-75153475D01*
X120313475Y-74946632D01*
X120430000Y-74772240D01*
X120546525Y-74946632D01*
X120753368Y-75153475D01*
X120996589Y-75315990D01*
X121266842Y-75427932D01*
X121553740Y-75485000D01*
X121846260Y-75485000D01*
X122133158Y-75427932D01*
X122403411Y-75315990D01*
X122646632Y-75153475D01*
X122853475Y-74946632D01*
X122970000Y-74772240D01*
X123086525Y-74946632D01*
X123293368Y-75153475D01*
X123536589Y-75315990D01*
X123806842Y-75427932D01*
X124093740Y-75485000D01*
X124386260Y-75485000D01*
X124673158Y-75427932D01*
X124943411Y-75315990D01*
X125186632Y-75153475D01*
X125393475Y-74946632D01*
X125510000Y-74772240D01*
X125626525Y-74946632D01*
X125833368Y-75153475D01*
X126076589Y-75315990D01*
X126346842Y-75427932D01*
X126633740Y-75485000D01*
X126926260Y-75485000D01*
X127213158Y-75427932D01*
X127483411Y-75315990D01*
X127726632Y-75153475D01*
X127933475Y-74946632D01*
X128095990Y-74703411D01*
X128207932Y-74433158D01*
X128265000Y-74146260D01*
X128265000Y-73853740D01*
X128207932Y-73566842D01*
X128095990Y-73296589D01*
X127998043Y-73150000D01*
X141450628Y-73150000D01*
X141450628Y-74850000D01*
X141462888Y-74974482D01*
X141499198Y-75094180D01*
X141558163Y-75204494D01*
X141637515Y-75301185D01*
X141734206Y-75380537D01*
X141844520Y-75439502D01*
X141964218Y-75475812D01*
X142088700Y-75488072D01*
X143788700Y-75488072D01*
X143913182Y-75475812D01*
X144032880Y-75439502D01*
X144143194Y-75380537D01*
X144239885Y-75301185D01*
X144319237Y-75204494D01*
X144378202Y-75094180D01*
X144400213Y-75021620D01*
X144532068Y-75153475D01*
X144775289Y-75315990D01*
X145045542Y-75427932D01*
X145332440Y-75485000D01*
X145624960Y-75485000D01*
X145911858Y-75427932D01*
X146182111Y-75315990D01*
X146425332Y-75153475D01*
X146632175Y-74946632D01*
X146748700Y-74772240D01*
X146865225Y-74946632D01*
X147072068Y-75153475D01*
X147315289Y-75315990D01*
X147585542Y-75427932D01*
X147872440Y-75485000D01*
X148164960Y-75485000D01*
X148451858Y-75427932D01*
X148722111Y-75315990D01*
X148965332Y-75153475D01*
X149172175Y-74946632D01*
X149288700Y-74772240D01*
X149405225Y-74946632D01*
X149612068Y-75153475D01*
X149855289Y-75315990D01*
X150125542Y-75427932D01*
X150412440Y-75485000D01*
X150704960Y-75485000D01*
X150991858Y-75427932D01*
X151262111Y-75315990D01*
X151505332Y-75153475D01*
X151712175Y-74946632D01*
X151828700Y-74772240D01*
X151945225Y-74946632D01*
X152152068Y-75153475D01*
X152395289Y-75315990D01*
X152665542Y-75427932D01*
X152952440Y-75485000D01*
X153244960Y-75485000D01*
X153531858Y-75427932D01*
X153802111Y-75315990D01*
X154045332Y-75153475D01*
X154252175Y-74946632D01*
X154373895Y-74764466D01*
X154443522Y-74881355D01*
X154638431Y-75097588D01*
X154871780Y-75271641D01*
X155134601Y-75396825D01*
X155281810Y-75441476D01*
X155511700Y-75320155D01*
X155511700Y-74127000D01*
X155765700Y-74127000D01*
X155765700Y-75320155D01*
X155995590Y-75441476D01*
X156142799Y-75396825D01*
X156405620Y-75271641D01*
X156638969Y-75097588D01*
X156833878Y-74881355D01*
X156982857Y-74631252D01*
X157080181Y-74356891D01*
X156959514Y-74127000D01*
X155765700Y-74127000D01*
X155511700Y-74127000D01*
X155491700Y-74127000D01*
X155491700Y-73873000D01*
X155511700Y-73873000D01*
X155511700Y-72679845D01*
X155765700Y-72679845D01*
X155765700Y-73873000D01*
X156959514Y-73873000D01*
X156995471Y-73804495D01*
X163015000Y-73804495D01*
X163015000Y-74195505D01*
X163091282Y-74579003D01*
X163240915Y-74940250D01*
X163458149Y-75265364D01*
X163734636Y-75541851D01*
X164059750Y-75759085D01*
X164420997Y-75908718D01*
X164804495Y-75985000D01*
X165195505Y-75985000D01*
X165579003Y-75908718D01*
X165940250Y-75759085D01*
X166265364Y-75541851D01*
X166541851Y-75265364D01*
X166759085Y-74940250D01*
X166908718Y-74579003D01*
X166985000Y-74195505D01*
X166985000Y-73804495D01*
X166908718Y-73420997D01*
X166759085Y-73059750D01*
X166541851Y-72734636D01*
X166265364Y-72458149D01*
X165940250Y-72240915D01*
X165579003Y-72091282D01*
X165195505Y-72015000D01*
X164804495Y-72015000D01*
X164420997Y-72091282D01*
X164059750Y-72240915D01*
X163734636Y-72458149D01*
X163458149Y-72734636D01*
X163240915Y-73059750D01*
X163091282Y-73420997D01*
X163015000Y-73804495D01*
X156995471Y-73804495D01*
X157080181Y-73643109D01*
X156982857Y-73368748D01*
X156833878Y-73118645D01*
X156638969Y-72902412D01*
X156405620Y-72728359D01*
X156142799Y-72603175D01*
X155995590Y-72558524D01*
X155765700Y-72679845D01*
X155511700Y-72679845D01*
X155281810Y-72558524D01*
X155134601Y-72603175D01*
X154871780Y-72728359D01*
X154638431Y-72902412D01*
X154443522Y-73118645D01*
X154373895Y-73235534D01*
X154252175Y-73053368D01*
X154045332Y-72846525D01*
X153802111Y-72684010D01*
X153531858Y-72572068D01*
X153244960Y-72515000D01*
X152952440Y-72515000D01*
X152665542Y-72572068D01*
X152395289Y-72684010D01*
X152152068Y-72846525D01*
X151945225Y-73053368D01*
X151828700Y-73227760D01*
X151712175Y-73053368D01*
X151505332Y-72846525D01*
X151262111Y-72684010D01*
X150991858Y-72572068D01*
X150704960Y-72515000D01*
X150412440Y-72515000D01*
X150125542Y-72572068D01*
X149855289Y-72684010D01*
X149612068Y-72846525D01*
X149405225Y-73053368D01*
X149288700Y-73227760D01*
X149172175Y-73053368D01*
X148965332Y-72846525D01*
X148722111Y-72684010D01*
X148451858Y-72572068D01*
X148164960Y-72515000D01*
X147872440Y-72515000D01*
X147585542Y-72572068D01*
X147315289Y-72684010D01*
X147072068Y-72846525D01*
X146865225Y-73053368D01*
X146748700Y-73227760D01*
X146632175Y-73053368D01*
X146425332Y-72846525D01*
X146182111Y-72684010D01*
X145911858Y-72572068D01*
X145624960Y-72515000D01*
X145332440Y-72515000D01*
X145045542Y-72572068D01*
X144775289Y-72684010D01*
X144532068Y-72846525D01*
X144400213Y-72978380D01*
X144378202Y-72905820D01*
X144319237Y-72795506D01*
X144239885Y-72698815D01*
X144143194Y-72619463D01*
X144032880Y-72560498D01*
X143913182Y-72524188D01*
X143788700Y-72511928D01*
X142088700Y-72511928D01*
X141964218Y-72524188D01*
X141844520Y-72560498D01*
X141734206Y-72619463D01*
X141637515Y-72698815D01*
X141558163Y-72795506D01*
X141499198Y-72905820D01*
X141462888Y-73025518D01*
X141450628Y-73150000D01*
X127998043Y-73150000D01*
X127933475Y-73053368D01*
X127726632Y-72846525D01*
X127483411Y-72684010D01*
X127213158Y-72572068D01*
X126926260Y-72515000D01*
X126633740Y-72515000D01*
X126346842Y-72572068D01*
X126076589Y-72684010D01*
X125833368Y-72846525D01*
X125626525Y-73053368D01*
X125510000Y-73227760D01*
X125393475Y-73053368D01*
X125186632Y-72846525D01*
X124943411Y-72684010D01*
X124673158Y-72572068D01*
X124386260Y-72515000D01*
X124093740Y-72515000D01*
X123806842Y-72572068D01*
X123536589Y-72684010D01*
X123293368Y-72846525D01*
X123086525Y-73053368D01*
X122970000Y-73227760D01*
X122853475Y-73053368D01*
X122646632Y-72846525D01*
X122403411Y-72684010D01*
X122133158Y-72572068D01*
X121846260Y-72515000D01*
X121553740Y-72515000D01*
X121266842Y-72572068D01*
X120996589Y-72684010D01*
X120753368Y-72846525D01*
X120546525Y-73053368D01*
X120430000Y-73227760D01*
X120313475Y-73053368D01*
X120106632Y-72846525D01*
X119863411Y-72684010D01*
X119593158Y-72572068D01*
X119306260Y-72515000D01*
X119013740Y-72515000D01*
X118726842Y-72572068D01*
X118456589Y-72684010D01*
X118213368Y-72846525D01*
X118006525Y-73053368D01*
X117890000Y-73227760D01*
X117773475Y-73053368D01*
X117566632Y-72846525D01*
X117323411Y-72684010D01*
X117053158Y-72572068D01*
X116766260Y-72515000D01*
X116473740Y-72515000D01*
X116186842Y-72572068D01*
X115916589Y-72684010D01*
X115673368Y-72846525D01*
X115466525Y-73053368D01*
X115350000Y-73227760D01*
X115233475Y-73053368D01*
X115026632Y-72846525D01*
X114783411Y-72684010D01*
X114513158Y-72572068D01*
X114226260Y-72515000D01*
X113933740Y-72515000D01*
X113646842Y-72572068D01*
X113376589Y-72684010D01*
X113133368Y-72846525D01*
X112926525Y-73053368D01*
X112810000Y-73227760D01*
X112693475Y-73053368D01*
X112486632Y-72846525D01*
X112243411Y-72684010D01*
X111973158Y-72572068D01*
X111686260Y-72515000D01*
X111393740Y-72515000D01*
X111106842Y-72572068D01*
X110836589Y-72684010D01*
X110593368Y-72846525D01*
X110461513Y-72978380D01*
X110439502Y-72905820D01*
X110380537Y-72795506D01*
X110301185Y-72698815D01*
X110204494Y-72619463D01*
X110094180Y-72560498D01*
X109974482Y-72524188D01*
X109850000Y-72511928D01*
X108150000Y-72511928D01*
X108025518Y-72524188D01*
X107905820Y-72560498D01*
X107795506Y-72619463D01*
X107698815Y-72698815D01*
X107619463Y-72795506D01*
X107560498Y-72905820D01*
X107524188Y-73025518D01*
X107511928Y-73150000D01*
X105796468Y-73150000D01*
X105759085Y-73059750D01*
X105541851Y-72734636D01*
X105265364Y-72458149D01*
X104940250Y-72240915D01*
X104579003Y-72091282D01*
X104195505Y-72015000D01*
X103804495Y-72015000D01*
X103420997Y-72091282D01*
X103059750Y-72240915D01*
X102734636Y-72458149D01*
X102458149Y-72734636D01*
X102240915Y-73059750D01*
X102091282Y-73420997D01*
X102015000Y-73804495D01*
X100660000Y-73804495D01*
X100660000Y-73032279D01*
X100707670Y-72546107D01*
X100839489Y-72109502D01*
X101053600Y-71706815D01*
X101341848Y-71353388D01*
X101693261Y-71062673D01*
X102094439Y-70845758D01*
X102530113Y-70710894D01*
X103014344Y-70660000D01*
X165967721Y-70660000D01*
X166453893Y-70707670D01*
G04 #@! TA.AperFunction,Conductor*
D15*
G36*
X166453893Y-70707670D02*
G01*
X166890498Y-70839489D01*
X167293185Y-71053600D01*
X167646612Y-71341848D01*
X167937327Y-71693261D01*
X168154242Y-72094439D01*
X168289106Y-72530113D01*
X168340000Y-73014344D01*
X168340001Y-116967711D01*
X168292330Y-117453894D01*
X168160512Y-117890497D01*
X167946399Y-118293186D01*
X167658150Y-118646613D01*
X167306739Y-118937327D01*
X166905564Y-119154240D01*
X166469886Y-119289106D01*
X165985664Y-119340000D01*
X103032279Y-119340000D01*
X102546106Y-119292330D01*
X102109503Y-119160512D01*
X101706814Y-118946399D01*
X101353387Y-118658150D01*
X101062673Y-118306739D01*
X100845760Y-117905564D01*
X100710894Y-117469886D01*
X100660000Y-116985664D01*
X100660000Y-115804495D01*
X102015000Y-115804495D01*
X102015000Y-116195505D01*
X102091282Y-116579003D01*
X102240915Y-116940250D01*
X102458149Y-117265364D01*
X102734636Y-117541851D01*
X103059750Y-117759085D01*
X103420997Y-117908718D01*
X103804495Y-117985000D01*
X104195505Y-117985000D01*
X104579003Y-117908718D01*
X104940250Y-117759085D01*
X105265364Y-117541851D01*
X105541851Y-117265364D01*
X105759085Y-116940250D01*
X105908718Y-116579003D01*
X105985000Y-116195505D01*
X105985000Y-115804495D01*
X105908718Y-115420997D01*
X105796468Y-115150000D01*
X107511928Y-115150000D01*
X107511928Y-116850000D01*
X107524188Y-116974482D01*
X107560498Y-117094180D01*
X107619463Y-117204494D01*
X107698815Y-117301185D01*
X107795506Y-117380537D01*
X107905820Y-117439502D01*
X108025518Y-117475812D01*
X108150000Y-117488072D01*
X109850000Y-117488072D01*
X109974482Y-117475812D01*
X110094180Y-117439502D01*
X110204494Y-117380537D01*
X110301185Y-117301185D01*
X110380537Y-117204494D01*
X110439502Y-117094180D01*
X110461513Y-117021620D01*
X110593368Y-117153475D01*
X110836589Y-117315990D01*
X111106842Y-117427932D01*
X111393740Y-117485000D01*
X111686260Y-117485000D01*
X111973158Y-117427932D01*
X112243411Y-117315990D01*
X112486632Y-117153475D01*
X112693475Y-116946632D01*
X112810000Y-116772240D01*
X112926525Y-116946632D01*
X113133368Y-117153475D01*
X113376589Y-117315990D01*
X113646842Y-117427932D01*
X113933740Y-117485000D01*
X114226260Y-117485000D01*
X114513158Y-117427932D01*
X114783411Y-117315990D01*
X115026632Y-117153475D01*
X115233475Y-116946632D01*
X115350000Y-116772240D01*
X115466525Y-116946632D01*
X115673368Y-117153475D01*
X115916589Y-117315990D01*
X116186842Y-117427932D01*
X116473740Y-117485000D01*
X116766260Y-117485000D01*
X117053158Y-117427932D01*
X117323411Y-117315990D01*
X117566632Y-117153475D01*
X117773475Y-116946632D01*
X117890000Y-116772240D01*
X118006525Y-116946632D01*
X118213368Y-117153475D01*
X118456589Y-117315990D01*
X118726842Y-117427932D01*
X119013740Y-117485000D01*
X119306260Y-117485000D01*
X119593158Y-117427932D01*
X119863411Y-117315990D01*
X120106632Y-117153475D01*
X120313475Y-116946632D01*
X120430000Y-116772240D01*
X120546525Y-116946632D01*
X120753368Y-117153475D01*
X120996589Y-117315990D01*
X121266842Y-117427932D01*
X121553740Y-117485000D01*
X121846260Y-117485000D01*
X122133158Y-117427932D01*
X122403411Y-117315990D01*
X122646632Y-117153475D01*
X122853475Y-116946632D01*
X122970000Y-116772240D01*
X123086525Y-116946632D01*
X123293368Y-117153475D01*
X123536589Y-117315990D01*
X123806842Y-117427932D01*
X124093740Y-117485000D01*
X124386260Y-117485000D01*
X124673158Y-117427932D01*
X124943411Y-117315990D01*
X125186632Y-117153475D01*
X125393475Y-116946632D01*
X125510000Y-116772240D01*
X125626525Y-116946632D01*
X125833368Y-117153475D01*
X126076589Y-117315990D01*
X126346842Y-117427932D01*
X126633740Y-117485000D01*
X126926260Y-117485000D01*
X127213158Y-117427932D01*
X127483411Y-117315990D01*
X127726632Y-117153475D01*
X127933475Y-116946632D01*
X128050000Y-116772240D01*
X128166525Y-116946632D01*
X128373368Y-117153475D01*
X128616589Y-117315990D01*
X128886842Y-117427932D01*
X129173740Y-117485000D01*
X129466260Y-117485000D01*
X129753158Y-117427932D01*
X130023411Y-117315990D01*
X130266632Y-117153475D01*
X130473475Y-116946632D01*
X130590000Y-116772240D01*
X130706525Y-116946632D01*
X130913368Y-117153475D01*
X131156589Y-117315990D01*
X131426842Y-117427932D01*
X131713740Y-117485000D01*
X132006260Y-117485000D01*
X132293158Y-117427932D01*
X132563411Y-117315990D01*
X132806632Y-117153475D01*
X133013475Y-116946632D01*
X133130000Y-116772240D01*
X133246525Y-116946632D01*
X133453368Y-117153475D01*
X133696589Y-117315990D01*
X133966842Y-117427932D01*
X134253740Y-117485000D01*
X134546260Y-117485000D01*
X134833158Y-117427932D01*
X135103411Y-117315990D01*
X135346632Y-117153475D01*
X135553475Y-116946632D01*
X135670000Y-116772240D01*
X135786525Y-116946632D01*
X135993368Y-117153475D01*
X136236589Y-117315990D01*
X136506842Y-117427932D01*
X136793740Y-117485000D01*
X137086260Y-117485000D01*
X137373158Y-117427932D01*
X137643411Y-117315990D01*
X137886632Y-117153475D01*
X138093475Y-116946632D01*
X138210000Y-116772240D01*
X138326525Y-116946632D01*
X138533368Y-117153475D01*
X138776589Y-117315990D01*
X139046842Y-117427932D01*
X139333740Y-117485000D01*
X139626260Y-117485000D01*
X139913158Y-117427932D01*
X140183411Y-117315990D01*
X140426632Y-117153475D01*
X140633475Y-116946632D01*
X140750000Y-116772240D01*
X140866525Y-116946632D01*
X141073368Y-117153475D01*
X141316589Y-117315990D01*
X141586842Y-117427932D01*
X141873740Y-117485000D01*
X142166260Y-117485000D01*
X142453158Y-117427932D01*
X142723411Y-117315990D01*
X142966632Y-117153475D01*
X143173475Y-116946632D01*
X143290000Y-116772240D01*
X143406525Y-116946632D01*
X143613368Y-117153475D01*
X143856589Y-117315990D01*
X144126842Y-117427932D01*
X144413740Y-117485000D01*
X144706260Y-117485000D01*
X144993158Y-117427932D01*
X145263411Y-117315990D01*
X145506632Y-117153475D01*
X145713475Y-116946632D01*
X145830000Y-116772240D01*
X145946525Y-116946632D01*
X146153368Y-117153475D01*
X146396589Y-117315990D01*
X146666842Y-117427932D01*
X146953740Y-117485000D01*
X147246260Y-117485000D01*
X147533158Y-117427932D01*
X147803411Y-117315990D01*
X148046632Y-117153475D01*
X148253475Y-116946632D01*
X148415990Y-116703411D01*
X148527932Y-116433158D01*
X148585000Y-116146260D01*
X148585000Y-115853740D01*
X148582062Y-115838967D01*
X149365000Y-115838967D01*
X149365000Y-116161033D01*
X149427832Y-116476912D01*
X149551082Y-116774463D01*
X149730013Y-117042252D01*
X149957748Y-117269987D01*
X150225537Y-117448918D01*
X150523088Y-117572168D01*
X150838967Y-117635000D01*
X151161033Y-117635000D01*
X151476912Y-117572168D01*
X151774463Y-117448918D01*
X152042252Y-117269987D01*
X152176826Y-117135413D01*
X154544192Y-117135413D01*
X154639956Y-117399814D01*
X154929571Y-117540704D01*
X155241108Y-117622384D01*
X155562595Y-117641718D01*
X155881675Y-117597961D01*
X156186088Y-117492795D01*
X156360044Y-117399814D01*
X156455808Y-117135413D01*
X155500000Y-116179605D01*
X154544192Y-117135413D01*
X152176826Y-117135413D01*
X152269987Y-117042252D01*
X152448918Y-116774463D01*
X152572168Y-116476912D01*
X152635000Y-116161033D01*
X152635000Y-116062595D01*
X153858282Y-116062595D01*
X153902039Y-116381675D01*
X154007205Y-116686088D01*
X154100186Y-116860044D01*
X154364587Y-116955808D01*
X155320395Y-116000000D01*
X155679605Y-116000000D01*
X156635413Y-116955808D01*
X156899814Y-116860044D01*
X157040704Y-116570429D01*
X157122384Y-116258892D01*
X157141718Y-115937405D01*
X157123492Y-115804495D01*
X163015000Y-115804495D01*
X163015000Y-116195505D01*
X163091282Y-116579003D01*
X163240915Y-116940250D01*
X163458149Y-117265364D01*
X163734636Y-117541851D01*
X164059750Y-117759085D01*
X164420997Y-117908718D01*
X164804495Y-117985000D01*
X165195505Y-117985000D01*
X165579003Y-117908718D01*
X165940250Y-117759085D01*
X166265364Y-117541851D01*
X166541851Y-117265364D01*
X166759085Y-116940250D01*
X166908718Y-116579003D01*
X166985000Y-116195505D01*
X166985000Y-115804495D01*
X166908718Y-115420997D01*
X166759085Y-115059750D01*
X166541851Y-114734636D01*
X166265364Y-114458149D01*
X165940250Y-114240915D01*
X165579003Y-114091282D01*
X165195505Y-114015000D01*
X164804495Y-114015000D01*
X164420997Y-114091282D01*
X164059750Y-114240915D01*
X163734636Y-114458149D01*
X163458149Y-114734636D01*
X163240915Y-115059750D01*
X163091282Y-115420997D01*
X163015000Y-115804495D01*
X157123492Y-115804495D01*
X157097961Y-115618325D01*
X156992795Y-115313912D01*
X156899814Y-115139956D01*
X156635413Y-115044192D01*
X155679605Y-116000000D01*
X155320395Y-116000000D01*
X154364587Y-115044192D01*
X154100186Y-115139956D01*
X153959296Y-115429571D01*
X153877616Y-115741108D01*
X153858282Y-116062595D01*
X152635000Y-116062595D01*
X152635000Y-115838967D01*
X152572168Y-115523088D01*
X152448918Y-115225537D01*
X152269987Y-114957748D01*
X152176826Y-114864587D01*
X154544192Y-114864587D01*
X155500000Y-115820395D01*
X156455808Y-114864587D01*
X156360044Y-114600186D01*
X156070429Y-114459296D01*
X155758892Y-114377616D01*
X155437405Y-114358282D01*
X155118325Y-114402039D01*
X154813912Y-114507205D01*
X154639956Y-114600186D01*
X154544192Y-114864587D01*
X152176826Y-114864587D01*
X152042252Y-114730013D01*
X151774463Y-114551082D01*
X151476912Y-114427832D01*
X151161033Y-114365000D01*
X150838967Y-114365000D01*
X150523088Y-114427832D01*
X150225537Y-114551082D01*
X149957748Y-114730013D01*
X149730013Y-114957748D01*
X149551082Y-115225537D01*
X149427832Y-115523088D01*
X149365000Y-115838967D01*
X148582062Y-115838967D01*
X148527932Y-115566842D01*
X148415990Y-115296589D01*
X148253475Y-115053368D01*
X148046632Y-114846525D01*
X147803411Y-114684010D01*
X147533158Y-114572068D01*
X147246260Y-114515000D01*
X146953740Y-114515000D01*
X146666842Y-114572068D01*
X146396589Y-114684010D01*
X146153368Y-114846525D01*
X145946525Y-115053368D01*
X145830000Y-115227760D01*
X145713475Y-115053368D01*
X145506632Y-114846525D01*
X145263411Y-114684010D01*
X144993158Y-114572068D01*
X144706260Y-114515000D01*
X144413740Y-114515000D01*
X144126842Y-114572068D01*
X143856589Y-114684010D01*
X143613368Y-114846525D01*
X143406525Y-115053368D01*
X143290000Y-115227760D01*
X143173475Y-115053368D01*
X142966632Y-114846525D01*
X142723411Y-114684010D01*
X142453158Y-114572068D01*
X142166260Y-114515000D01*
X141873740Y-114515000D01*
X141586842Y-114572068D01*
X141316589Y-114684010D01*
X141073368Y-114846525D01*
X140866525Y-115053368D01*
X140750000Y-115227760D01*
X140633475Y-115053368D01*
X140426632Y-114846525D01*
X140183411Y-114684010D01*
X139913158Y-114572068D01*
X139626260Y-114515000D01*
X139333740Y-114515000D01*
X139046842Y-114572068D01*
X138776589Y-114684010D01*
X138533368Y-114846525D01*
X138326525Y-115053368D01*
X138210000Y-115227760D01*
X138093475Y-115053368D01*
X137886632Y-114846525D01*
X137643411Y-114684010D01*
X137373158Y-114572068D01*
X137086260Y-114515000D01*
X136793740Y-114515000D01*
X136506842Y-114572068D01*
X136236589Y-114684010D01*
X135993368Y-114846525D01*
X135786525Y-115053368D01*
X135670000Y-115227760D01*
X135553475Y-115053368D01*
X135346632Y-114846525D01*
X135103411Y-114684010D01*
X134833158Y-114572068D01*
X134546260Y-114515000D01*
X134253740Y-114515000D01*
X133966842Y-114572068D01*
X133696589Y-114684010D01*
X133453368Y-114846525D01*
X133246525Y-115053368D01*
X133130000Y-115227760D01*
X133013475Y-115053368D01*
X132806632Y-114846525D01*
X132563411Y-114684010D01*
X132293158Y-114572068D01*
X132006260Y-114515000D01*
X131713740Y-114515000D01*
X131426842Y-114572068D01*
X131156589Y-114684010D01*
X130913368Y-114846525D01*
X130706525Y-115053368D01*
X130590000Y-115227760D01*
X130473475Y-115053368D01*
X130266632Y-114846525D01*
X130023411Y-114684010D01*
X129753158Y-114572068D01*
X129466260Y-114515000D01*
X129173740Y-114515000D01*
X128886842Y-114572068D01*
X128616589Y-114684010D01*
X128373368Y-114846525D01*
X128166525Y-115053368D01*
X128050000Y-115227760D01*
X127933475Y-115053368D01*
X127726632Y-114846525D01*
X127483411Y-114684010D01*
X127213158Y-114572068D01*
X126926260Y-114515000D01*
X126633740Y-114515000D01*
X126346842Y-114572068D01*
X126076589Y-114684010D01*
X125833368Y-114846525D01*
X125626525Y-115053368D01*
X125510000Y-115227760D01*
X125393475Y-115053368D01*
X125186632Y-114846525D01*
X124943411Y-114684010D01*
X124673158Y-114572068D01*
X124386260Y-114515000D01*
X124093740Y-114515000D01*
X123806842Y-114572068D01*
X123536589Y-114684010D01*
X123293368Y-114846525D01*
X123086525Y-115053368D01*
X122970000Y-115227760D01*
X122853475Y-115053368D01*
X122646632Y-114846525D01*
X122403411Y-114684010D01*
X122133158Y-114572068D01*
X121846260Y-114515000D01*
X121553740Y-114515000D01*
X121266842Y-114572068D01*
X120996589Y-114684010D01*
X120753368Y-114846525D01*
X120546525Y-115053368D01*
X120430000Y-115227760D01*
X120313475Y-115053368D01*
X120106632Y-114846525D01*
X119863411Y-114684010D01*
X119593158Y-114572068D01*
X119306260Y-114515000D01*
X119013740Y-114515000D01*
X118726842Y-114572068D01*
X118456589Y-114684010D01*
X118213368Y-114846525D01*
X118006525Y-115053368D01*
X117890000Y-115227760D01*
X117773475Y-115053368D01*
X117566632Y-114846525D01*
X117323411Y-114684010D01*
X117053158Y-114572068D01*
X116766260Y-114515000D01*
X116473740Y-114515000D01*
X116186842Y-114572068D01*
X115916589Y-114684010D01*
X115673368Y-114846525D01*
X115466525Y-115053368D01*
X115350000Y-115227760D01*
X115233475Y-115053368D01*
X115026632Y-114846525D01*
X114783411Y-114684010D01*
X114513158Y-114572068D01*
X114226260Y-114515000D01*
X113933740Y-114515000D01*
X113646842Y-114572068D01*
X113376589Y-114684010D01*
X113133368Y-114846525D01*
X112926525Y-115053368D01*
X112810000Y-115227760D01*
X112693475Y-115053368D01*
X112486632Y-114846525D01*
X112243411Y-114684010D01*
X111973158Y-114572068D01*
X111686260Y-114515000D01*
X111393740Y-114515000D01*
X111106842Y-114572068D01*
X110836589Y-114684010D01*
X110593368Y-114846525D01*
X110461513Y-114978380D01*
X110439502Y-114905820D01*
X110380537Y-114795506D01*
X110301185Y-114698815D01*
X110204494Y-114619463D01*
X110094180Y-114560498D01*
X109974482Y-114524188D01*
X109850000Y-114511928D01*
X108150000Y-114511928D01*
X108025518Y-114524188D01*
X107905820Y-114560498D01*
X107795506Y-114619463D01*
X107698815Y-114698815D01*
X107619463Y-114795506D01*
X107560498Y-114905820D01*
X107524188Y-115025518D01*
X107511928Y-115150000D01*
X105796468Y-115150000D01*
X105759085Y-115059750D01*
X105541851Y-114734636D01*
X105265364Y-114458149D01*
X104940250Y-114240915D01*
X104579003Y-114091282D01*
X104195505Y-114015000D01*
X103804495Y-114015000D01*
X103420997Y-114091282D01*
X103059750Y-114240915D01*
X102734636Y-114458149D01*
X102458149Y-114734636D01*
X102240915Y-115059750D01*
X102091282Y-115420997D01*
X102015000Y-115804495D01*
X100660000Y-115804495D01*
X100660000Y-110898061D01*
X138965000Y-110898061D01*
X138965000Y-111101939D01*
X139004774Y-111301898D01*
X139082795Y-111490256D01*
X139196063Y-111659774D01*
X139340226Y-111803937D01*
X139509744Y-111917205D01*
X139698102Y-111995226D01*
X139898061Y-112035000D01*
X140101939Y-112035000D01*
X140301898Y-111995226D01*
X140490256Y-111917205D01*
X140659774Y-111803937D01*
X140803937Y-111659774D01*
X140917205Y-111490256D01*
X140995226Y-111301898D01*
X141035000Y-111101939D01*
X141035000Y-110898061D01*
X140995226Y-110698102D01*
X140917205Y-110509744D01*
X140803937Y-110340226D01*
X140659774Y-110196063D01*
X140490256Y-110082795D01*
X140301898Y-110004774D01*
X140101939Y-109965000D01*
X139898061Y-109965000D01*
X139698102Y-110004774D01*
X139509744Y-110082795D01*
X139340226Y-110196063D01*
X139196063Y-110340226D01*
X139082795Y-110509744D01*
X139004774Y-110698102D01*
X138965000Y-110898061D01*
X100660000Y-110898061D01*
X100660000Y-109338967D01*
X149365000Y-109338967D01*
X149365000Y-109661033D01*
X149427832Y-109976912D01*
X149551082Y-110274463D01*
X149730013Y-110542252D01*
X149957748Y-110769987D01*
X150225537Y-110948918D01*
X150523088Y-111072168D01*
X150838967Y-111135000D01*
X151161033Y-111135000D01*
X151476912Y-111072168D01*
X151774463Y-110948918D01*
X152042252Y-110769987D01*
X152176826Y-110635413D01*
X154544192Y-110635413D01*
X154639956Y-110899814D01*
X154929571Y-111040704D01*
X155241108Y-111122384D01*
X155562595Y-111141718D01*
X155881675Y-111097961D01*
X156186088Y-110992795D01*
X156360044Y-110899814D01*
X156455808Y-110635413D01*
X155500000Y-109679605D01*
X154544192Y-110635413D01*
X152176826Y-110635413D01*
X152269987Y-110542252D01*
X152448918Y-110274463D01*
X152572168Y-109976912D01*
X152635000Y-109661033D01*
X152635000Y-109562595D01*
X153858282Y-109562595D01*
X153902039Y-109881675D01*
X154007205Y-110186088D01*
X154100186Y-110360044D01*
X154364587Y-110455808D01*
X155320395Y-109500000D01*
X155679605Y-109500000D01*
X156635413Y-110455808D01*
X156899814Y-110360044D01*
X157040704Y-110070429D01*
X157122384Y-109758892D01*
X157141718Y-109437405D01*
X157097961Y-109118325D01*
X156992795Y-108813912D01*
X156899814Y-108639956D01*
X156635413Y-108544192D01*
X155679605Y-109500000D01*
X155320395Y-109500000D01*
X154364587Y-108544192D01*
X154100186Y-108639956D01*
X153959296Y-108929571D01*
X153877616Y-109241108D01*
X153858282Y-109562595D01*
X152635000Y-109562595D01*
X152635000Y-109338967D01*
X152572168Y-109023088D01*
X152448918Y-108725537D01*
X152269987Y-108457748D01*
X152176826Y-108364587D01*
X154544192Y-108364587D01*
X155500000Y-109320395D01*
X156455808Y-108364587D01*
X156360044Y-108100186D01*
X156070429Y-107959296D01*
X155758892Y-107877616D01*
X155437405Y-107858282D01*
X155118325Y-107902039D01*
X154813912Y-108007205D01*
X154639956Y-108100186D01*
X154544192Y-108364587D01*
X152176826Y-108364587D01*
X152042252Y-108230013D01*
X151774463Y-108051082D01*
X151476912Y-107927832D01*
X151161033Y-107865000D01*
X150838967Y-107865000D01*
X150523088Y-107927832D01*
X150225537Y-108051082D01*
X149957748Y-108230013D01*
X149730013Y-108457748D01*
X149551082Y-108725537D01*
X149427832Y-109023088D01*
X149365000Y-109338967D01*
X100660000Y-109338967D01*
X100660000Y-104898061D01*
X144049000Y-104898061D01*
X144049000Y-105101939D01*
X144088774Y-105301898D01*
X144166795Y-105490256D01*
X144280063Y-105659774D01*
X144424226Y-105803937D01*
X144593744Y-105917205D01*
X144782102Y-105995226D01*
X144982061Y-106035000D01*
X145185939Y-106035000D01*
X145385898Y-105995226D01*
X145574256Y-105917205D01*
X145592000Y-105905349D01*
X145609744Y-105917205D01*
X145798102Y-105995226D01*
X145998061Y-106035000D01*
X146201939Y-106035000D01*
X146401898Y-105995226D01*
X146590256Y-105917205D01*
X146759774Y-105803937D01*
X146903937Y-105659774D01*
X147017205Y-105490256D01*
X147095226Y-105301898D01*
X147135000Y-105101939D01*
X147135000Y-104898061D01*
X147095226Y-104698102D01*
X147017205Y-104509744D01*
X146903937Y-104340226D01*
X146759774Y-104196063D01*
X146590256Y-104082795D01*
X146401898Y-104004774D01*
X146201939Y-103965000D01*
X145998061Y-103965000D01*
X145798102Y-104004774D01*
X145609744Y-104082795D01*
X145592000Y-104094651D01*
X145574256Y-104082795D01*
X145385898Y-104004774D01*
X145185939Y-103965000D01*
X144982061Y-103965000D01*
X144782102Y-104004774D01*
X144593744Y-104082795D01*
X144424226Y-104196063D01*
X144280063Y-104340226D01*
X144166795Y-104509744D01*
X144088774Y-104698102D01*
X144049000Y-104898061D01*
X100660000Y-104898061D01*
X100660000Y-103220061D01*
X103309000Y-103220061D01*
X103309000Y-103423939D01*
X103348774Y-103623898D01*
X103426795Y-103812256D01*
X103540063Y-103981774D01*
X103684226Y-104125937D01*
X103853744Y-104239205D01*
X104042102Y-104317226D01*
X104242061Y-104357000D01*
X104445939Y-104357000D01*
X104645898Y-104317226D01*
X104834256Y-104239205D01*
X105003774Y-104125937D01*
X105147937Y-103981774D01*
X105261205Y-103812256D01*
X105339226Y-103623898D01*
X105379000Y-103423939D01*
X105379000Y-103220061D01*
X105339226Y-103020102D01*
X105261205Y-102831744D01*
X105147937Y-102662226D01*
X105003774Y-102518063D01*
X104834256Y-102404795D01*
X104645898Y-102326774D01*
X104445939Y-102287000D01*
X104242061Y-102287000D01*
X104042102Y-102326774D01*
X103853744Y-102404795D01*
X103684226Y-102518063D01*
X103540063Y-102662226D01*
X103426795Y-102831744D01*
X103348774Y-103020102D01*
X103309000Y-103220061D01*
X100660000Y-103220061D01*
X100660000Y-100073361D01*
X128111500Y-100073361D01*
X128111500Y-100277239D01*
X128151274Y-100477198D01*
X128229295Y-100665556D01*
X128342563Y-100835074D01*
X128486726Y-100979237D01*
X128656244Y-101092505D01*
X128844602Y-101170526D01*
X129044561Y-101210300D01*
X129248439Y-101210300D01*
X129448398Y-101170526D01*
X129636756Y-101092505D01*
X129806274Y-100979237D01*
X129950437Y-100835074D01*
X130063705Y-100665556D01*
X130141726Y-100477198D01*
X130181500Y-100277239D01*
X130181500Y-100073361D01*
X130141743Y-99873487D01*
X130261198Y-99849726D01*
X130449556Y-99771705D01*
X130619074Y-99658437D01*
X130763237Y-99514274D01*
X130876505Y-99344756D01*
X130954526Y-99156398D01*
X130994300Y-98956439D01*
X130994300Y-98752561D01*
X130954526Y-98552602D01*
X130876505Y-98364244D01*
X130849624Y-98324013D01*
X131196835Y-98324013D01*
X131196835Y-98527891D01*
X131236609Y-98727850D01*
X131314630Y-98916208D01*
X131427898Y-99085726D01*
X131572061Y-99229889D01*
X131741579Y-99343157D01*
X131929937Y-99421178D01*
X132129896Y-99460952D01*
X132333774Y-99460952D01*
X132533733Y-99421178D01*
X132560571Y-99410061D01*
X136837000Y-99410061D01*
X136837000Y-99613939D01*
X136876774Y-99813898D01*
X136954795Y-100002256D01*
X137068063Y-100171774D01*
X137212226Y-100315937D01*
X137381744Y-100429205D01*
X137402325Y-100437730D01*
X137384774Y-100480102D01*
X137345000Y-100680061D01*
X137345000Y-100883939D01*
X137384774Y-101083898D01*
X137462795Y-101272256D01*
X137576063Y-101441774D01*
X137720226Y-101585937D01*
X137889744Y-101699205D01*
X137910325Y-101707730D01*
X137892774Y-101750102D01*
X137853000Y-101950061D01*
X137853000Y-102153939D01*
X137892774Y-102353898D01*
X137970795Y-102542256D01*
X138084063Y-102711774D01*
X138228226Y-102855937D01*
X138397744Y-102969205D01*
X138522214Y-103020763D01*
X138478795Y-103085744D01*
X138400774Y-103274102D01*
X138361000Y-103474061D01*
X138361000Y-103677939D01*
X138400774Y-103877898D01*
X138478795Y-104066256D01*
X138592063Y-104235774D01*
X138736226Y-104379937D01*
X138905744Y-104493205D01*
X139094102Y-104571226D01*
X139294061Y-104611000D01*
X139497939Y-104611000D01*
X139697898Y-104571226D01*
X139886256Y-104493205D01*
X140055774Y-104379937D01*
X140199937Y-104235774D01*
X140313205Y-104066256D01*
X140391226Y-103877898D01*
X140431000Y-103677939D01*
X140431000Y-103474061D01*
X140391226Y-103274102D01*
X140313205Y-103085744D01*
X140199937Y-102916226D01*
X140119451Y-102835740D01*
X162269000Y-102835740D01*
X162269000Y-103128260D01*
X162326068Y-103415158D01*
X162438010Y-103685411D01*
X162600525Y-103928632D01*
X162807368Y-104135475D01*
X162981760Y-104252000D01*
X162807368Y-104368525D01*
X162600525Y-104575368D01*
X162438010Y-104818589D01*
X162326068Y-105088842D01*
X162269000Y-105375740D01*
X162269000Y-105668260D01*
X162326068Y-105955158D01*
X162438010Y-106225411D01*
X162600525Y-106468632D01*
X162807368Y-106675475D01*
X162981760Y-106792000D01*
X162807368Y-106908525D01*
X162600525Y-107115368D01*
X162438010Y-107358589D01*
X162326068Y-107628842D01*
X162269000Y-107915740D01*
X162269000Y-108208260D01*
X162326068Y-108495158D01*
X162438010Y-108765411D01*
X162600525Y-109008632D01*
X162807368Y-109215475D01*
X163050589Y-109377990D01*
X163320842Y-109489932D01*
X163607740Y-109547000D01*
X163900260Y-109547000D01*
X164187158Y-109489932D01*
X164457411Y-109377990D01*
X164700632Y-109215475D01*
X164907475Y-109008632D01*
X165069990Y-108765411D01*
X165181932Y-108495158D01*
X165239000Y-108208260D01*
X165239000Y-107915740D01*
X165181932Y-107628842D01*
X165069990Y-107358589D01*
X164907475Y-107115368D01*
X164700632Y-106908525D01*
X164526240Y-106792000D01*
X164700632Y-106675475D01*
X164907475Y-106468632D01*
X165069990Y-106225411D01*
X165181932Y-105955158D01*
X165239000Y-105668260D01*
X165239000Y-105375740D01*
X165181932Y-105088842D01*
X165069990Y-104818589D01*
X164907475Y-104575368D01*
X164700632Y-104368525D01*
X164526240Y-104252000D01*
X164700632Y-104135475D01*
X164907475Y-103928632D01*
X165069990Y-103685411D01*
X165181932Y-103415158D01*
X165239000Y-103128260D01*
X165239000Y-102835740D01*
X165181932Y-102548842D01*
X165069990Y-102278589D01*
X164907475Y-102035368D01*
X164700632Y-101828525D01*
X164518466Y-101706805D01*
X164635355Y-101637178D01*
X164851588Y-101442269D01*
X165025641Y-101208920D01*
X165150825Y-100946099D01*
X165195476Y-100798890D01*
X165074155Y-100569000D01*
X163881000Y-100569000D01*
X163881000Y-100589000D01*
X163627000Y-100589000D01*
X163627000Y-100569000D01*
X162433845Y-100569000D01*
X162312524Y-100798890D01*
X162357175Y-100946099D01*
X162482359Y-101208920D01*
X162656412Y-101442269D01*
X162872645Y-101637178D01*
X162989534Y-101706805D01*
X162807368Y-101828525D01*
X162600525Y-102035368D01*
X162438010Y-102278589D01*
X162326068Y-102548842D01*
X162269000Y-102835740D01*
X140119451Y-102835740D01*
X140055774Y-102772063D01*
X139886256Y-102658795D01*
X139761786Y-102607237D01*
X139805205Y-102542256D01*
X139883226Y-102353898D01*
X139923000Y-102153939D01*
X139923000Y-101950061D01*
X139883226Y-101750102D01*
X139805205Y-101561744D01*
X139691937Y-101392226D01*
X139547774Y-101248063D01*
X139378256Y-101134795D01*
X139357675Y-101126270D01*
X139375226Y-101083898D01*
X139415000Y-100883939D01*
X139415000Y-100680061D01*
X139375226Y-100480102D01*
X139297205Y-100291744D01*
X139183937Y-100122226D01*
X139039774Y-99978063D01*
X138870256Y-99864795D01*
X138849675Y-99856270D01*
X138867226Y-99813898D01*
X138907000Y-99613939D01*
X138907000Y-99410061D01*
X138867226Y-99210102D01*
X138789205Y-99021744D01*
X138675937Y-98852226D01*
X138531774Y-98708063D01*
X138362256Y-98594795D01*
X138173898Y-98516774D01*
X137973939Y-98477000D01*
X137770061Y-98477000D01*
X137570102Y-98516774D01*
X137381744Y-98594795D01*
X137212226Y-98708063D01*
X137068063Y-98852226D01*
X136954795Y-99021744D01*
X136876774Y-99210102D01*
X136837000Y-99410061D01*
X132560571Y-99410061D01*
X132722091Y-99343157D01*
X132891609Y-99229889D01*
X133035772Y-99085726D01*
X133149040Y-98916208D01*
X133227061Y-98727850D01*
X133266835Y-98527891D01*
X133266835Y-98324013D01*
X133227061Y-98124054D01*
X133149040Y-97935696D01*
X133094494Y-97854061D01*
X146965000Y-97854061D01*
X146965000Y-98057939D01*
X147004774Y-98257898D01*
X147082795Y-98446256D01*
X147196063Y-98615774D01*
X147340226Y-98759937D01*
X147509744Y-98873205D01*
X147698102Y-98951226D01*
X147898061Y-98991000D01*
X148101939Y-98991000D01*
X148301898Y-98951226D01*
X148490256Y-98873205D01*
X148659774Y-98759937D01*
X148803937Y-98615774D01*
X148917205Y-98446256D01*
X148995226Y-98257898D01*
X149035000Y-98057939D01*
X149035000Y-97854061D01*
X148995226Y-97654102D01*
X148917205Y-97465744D01*
X148803937Y-97296226D01*
X148659774Y-97152063D01*
X148490256Y-97038795D01*
X148301898Y-96960774D01*
X148101939Y-96921000D01*
X147898061Y-96921000D01*
X147698102Y-96960774D01*
X147509744Y-97038795D01*
X147340226Y-97152063D01*
X147196063Y-97296226D01*
X147082795Y-97465744D01*
X147004774Y-97654102D01*
X146965000Y-97854061D01*
X133094494Y-97854061D01*
X133035772Y-97766178D01*
X132891609Y-97622015D01*
X132722091Y-97508747D01*
X132533733Y-97430726D01*
X132333774Y-97390952D01*
X132129896Y-97390952D01*
X131929937Y-97430726D01*
X131741579Y-97508747D01*
X131572061Y-97622015D01*
X131427898Y-97766178D01*
X131314630Y-97935696D01*
X131236609Y-98124054D01*
X131196835Y-98324013D01*
X130849624Y-98324013D01*
X130763237Y-98194726D01*
X130619074Y-98050563D01*
X130449556Y-97937295D01*
X130261198Y-97859274D01*
X130061239Y-97819500D01*
X129857361Y-97819500D01*
X129657402Y-97859274D01*
X129469044Y-97937295D01*
X129299526Y-98050563D01*
X129155363Y-98194726D01*
X129042095Y-98364244D01*
X128964074Y-98552602D01*
X128924300Y-98752561D01*
X128924300Y-98956439D01*
X128964057Y-99156313D01*
X128844602Y-99180074D01*
X128656244Y-99258095D01*
X128486726Y-99371363D01*
X128342563Y-99515526D01*
X128229295Y-99685044D01*
X128151274Y-99873402D01*
X128111500Y-100073361D01*
X100660000Y-100073361D01*
X100660000Y-97052000D01*
X103109328Y-97052000D01*
X103109328Y-98752000D01*
X103121588Y-98876482D01*
X103157898Y-98996180D01*
X103216863Y-99106494D01*
X103296215Y-99203185D01*
X103392906Y-99282537D01*
X103503220Y-99341502D01*
X103622918Y-99377812D01*
X103747400Y-99390072D01*
X105447400Y-99390072D01*
X105571882Y-99377812D01*
X105691580Y-99341502D01*
X105801894Y-99282537D01*
X105898585Y-99203185D01*
X105977937Y-99106494D01*
X106036902Y-98996180D01*
X106058913Y-98923620D01*
X106190768Y-99055475D01*
X106433989Y-99217990D01*
X106704242Y-99329932D01*
X106991140Y-99387000D01*
X107283660Y-99387000D01*
X107570558Y-99329932D01*
X107840811Y-99217990D01*
X108084032Y-99055475D01*
X108290875Y-98848632D01*
X108407400Y-98674240D01*
X108523925Y-98848632D01*
X108730768Y-99055475D01*
X108973989Y-99217990D01*
X109244242Y-99329932D01*
X109531140Y-99387000D01*
X109823660Y-99387000D01*
X110110558Y-99329932D01*
X110380811Y-99217990D01*
X110624032Y-99055475D01*
X110830875Y-98848632D01*
X110993390Y-98605411D01*
X111105332Y-98335158D01*
X111162400Y-98048260D01*
X111162400Y-97755740D01*
X111105332Y-97468842D01*
X110993390Y-97198589D01*
X110830875Y-96955368D01*
X110624032Y-96748525D01*
X110447994Y-96630900D01*
X110677669Y-96459588D01*
X110872578Y-96243355D01*
X111021557Y-95993252D01*
X111118881Y-95718891D01*
X110998214Y-95489000D01*
X109804400Y-95489000D01*
X109804400Y-95509000D01*
X109550400Y-95509000D01*
X109550400Y-95489000D01*
X107264400Y-95489000D01*
X107264400Y-95509000D01*
X107010400Y-95509000D01*
X107010400Y-95489000D01*
X104724400Y-95489000D01*
X104724400Y-95509000D01*
X104470400Y-95509000D01*
X104470400Y-95489000D01*
X103276586Y-95489000D01*
X103155919Y-95718891D01*
X103253243Y-95993252D01*
X103402222Y-96243355D01*
X103579026Y-96439502D01*
X103503220Y-96462498D01*
X103392906Y-96521463D01*
X103296215Y-96600815D01*
X103216863Y-96697506D01*
X103157898Y-96807820D01*
X103121588Y-96927518D01*
X103109328Y-97052000D01*
X100660000Y-97052000D01*
X100660000Y-95005109D01*
X103155919Y-95005109D01*
X103276586Y-95235000D01*
X104470400Y-95235000D01*
X104470400Y-94041845D01*
X104724400Y-94041845D01*
X104724400Y-95235000D01*
X107010400Y-95235000D01*
X107010400Y-94041845D01*
X107264400Y-94041845D01*
X107264400Y-95235000D01*
X109550400Y-95235000D01*
X109550400Y-94041845D01*
X109804400Y-94041845D01*
X109804400Y-95235000D01*
X110998214Y-95235000D01*
X111118881Y-95005109D01*
X111021557Y-94730748D01*
X110872578Y-94480645D01*
X110677669Y-94264412D01*
X110444320Y-94090359D01*
X110181499Y-93965175D01*
X110034290Y-93920524D01*
X109804400Y-94041845D01*
X109550400Y-94041845D01*
X109320510Y-93920524D01*
X109173301Y-93965175D01*
X108910480Y-94090359D01*
X108677131Y-94264412D01*
X108482222Y-94480645D01*
X108407400Y-94606255D01*
X108332578Y-94480645D01*
X108137669Y-94264412D01*
X107904320Y-94090359D01*
X107641499Y-93965175D01*
X107494290Y-93920524D01*
X107264400Y-94041845D01*
X107010400Y-94041845D01*
X106780510Y-93920524D01*
X106633301Y-93965175D01*
X106370480Y-94090359D01*
X106137131Y-94264412D01*
X105942222Y-94480645D01*
X105867400Y-94606255D01*
X105792578Y-94480645D01*
X105597669Y-94264412D01*
X105364320Y-94090359D01*
X105101499Y-93965175D01*
X104954290Y-93920524D01*
X104724400Y-94041845D01*
X104470400Y-94041845D01*
X104240510Y-93920524D01*
X104093301Y-93965175D01*
X103830480Y-94090359D01*
X103597131Y-94264412D01*
X103402222Y-94480645D01*
X103253243Y-94730748D01*
X103155919Y-95005109D01*
X100660000Y-95005109D01*
X100660000Y-93398061D01*
X124965000Y-93398061D01*
X124965000Y-93601939D01*
X125004774Y-93801898D01*
X125082795Y-93990256D01*
X125196063Y-94159774D01*
X125340226Y-94303937D01*
X125509744Y-94417205D01*
X125698102Y-94495226D01*
X125898061Y-94535000D01*
X126008126Y-94535000D01*
X126082795Y-94715266D01*
X126196063Y-94884784D01*
X126340226Y-95028947D01*
X126509744Y-95142215D01*
X126698102Y-95220236D01*
X126898061Y-95260010D01*
X127101939Y-95260010D01*
X127301898Y-95220236D01*
X127490256Y-95142215D01*
X127659774Y-95028947D01*
X127803937Y-94884784D01*
X127917205Y-94715266D01*
X127995226Y-94526908D01*
X127998191Y-94512000D01*
X162265928Y-94512000D01*
X162265928Y-96212000D01*
X162278188Y-96336482D01*
X162314498Y-96456180D01*
X162373463Y-96566494D01*
X162452815Y-96663185D01*
X162549506Y-96742537D01*
X162659820Y-96801502D01*
X162732380Y-96823513D01*
X162600525Y-96955368D01*
X162438010Y-97198589D01*
X162326068Y-97468842D01*
X162269000Y-97755740D01*
X162269000Y-98048260D01*
X162326068Y-98335158D01*
X162438010Y-98605411D01*
X162600525Y-98848632D01*
X162807368Y-99055475D01*
X162989534Y-99177195D01*
X162872645Y-99246822D01*
X162656412Y-99441731D01*
X162482359Y-99675080D01*
X162357175Y-99937901D01*
X162312524Y-100085110D01*
X162433845Y-100315000D01*
X163627000Y-100315000D01*
X163627000Y-100295000D01*
X163881000Y-100295000D01*
X163881000Y-100315000D01*
X165074155Y-100315000D01*
X165195476Y-100085110D01*
X165150825Y-99937901D01*
X165025641Y-99675080D01*
X164851588Y-99441731D01*
X164635355Y-99246822D01*
X164518466Y-99177195D01*
X164700632Y-99055475D01*
X164907475Y-98848632D01*
X165069990Y-98605411D01*
X165181932Y-98335158D01*
X165239000Y-98048260D01*
X165239000Y-97755740D01*
X165181932Y-97468842D01*
X165069990Y-97198589D01*
X164907475Y-96955368D01*
X164775620Y-96823513D01*
X164848180Y-96801502D01*
X164958494Y-96742537D01*
X165055185Y-96663185D01*
X165134537Y-96566494D01*
X165193502Y-96456180D01*
X165229812Y-96336482D01*
X165242072Y-96212000D01*
X165242072Y-94512000D01*
X165229812Y-94387518D01*
X165193502Y-94267820D01*
X165134537Y-94157506D01*
X165055185Y-94060815D01*
X164958494Y-93981463D01*
X164848180Y-93922498D01*
X164728482Y-93886188D01*
X164604000Y-93873928D01*
X162904000Y-93873928D01*
X162779518Y-93886188D01*
X162659820Y-93922498D01*
X162549506Y-93981463D01*
X162452815Y-94060815D01*
X162373463Y-94157506D01*
X162314498Y-94267820D01*
X162278188Y-94387518D01*
X162265928Y-94512000D01*
X127998191Y-94512000D01*
X128035000Y-94326949D01*
X128035000Y-94123071D01*
X127995226Y-93923112D01*
X127917205Y-93734754D01*
X127803937Y-93565236D01*
X127659774Y-93421073D01*
X127490256Y-93307805D01*
X127301898Y-93229784D01*
X127101939Y-93190010D01*
X126991874Y-93190010D01*
X126917205Y-93009744D01*
X126803937Y-92840226D01*
X126659774Y-92696063D01*
X126490256Y-92582795D01*
X126301898Y-92504774D01*
X126101939Y-92465000D01*
X125898061Y-92465000D01*
X125698102Y-92504774D01*
X125509744Y-92582795D01*
X125340226Y-92696063D01*
X125196063Y-92840226D01*
X125082795Y-93009744D01*
X125004774Y-93198102D01*
X124965000Y-93398061D01*
X100660000Y-93398061D01*
X100660000Y-91531402D01*
X119315661Y-91531402D01*
X119315661Y-91735280D01*
X119355435Y-91935239D01*
X119433456Y-92123597D01*
X119546724Y-92293115D01*
X119690887Y-92437278D01*
X119860405Y-92550546D01*
X120048763Y-92628567D01*
X120248722Y-92668341D01*
X120452600Y-92668341D01*
X120652559Y-92628567D01*
X120840917Y-92550546D01*
X121010435Y-92437278D01*
X121154598Y-92293115D01*
X121267866Y-92123597D01*
X121345887Y-91935239D01*
X121374764Y-91790061D01*
X157725000Y-91790061D01*
X157725000Y-91993939D01*
X157764774Y-92193898D01*
X157842795Y-92382256D01*
X157956063Y-92551774D01*
X158100226Y-92695937D01*
X158269744Y-92809205D01*
X158458102Y-92887226D01*
X158658061Y-92927000D01*
X158861939Y-92927000D01*
X159061898Y-92887226D01*
X159250256Y-92809205D01*
X159307347Y-92771058D01*
X159340226Y-92803937D01*
X159509744Y-92917205D01*
X159698102Y-92995226D01*
X159898061Y-93035000D01*
X160101939Y-93035000D01*
X160301898Y-92995226D01*
X160490256Y-92917205D01*
X160659774Y-92803937D01*
X160803937Y-92659774D01*
X160917205Y-92490256D01*
X160995226Y-92301898D01*
X161035000Y-92101939D01*
X161035000Y-91898061D01*
X160995226Y-91698102D01*
X160917205Y-91509744D01*
X160803937Y-91340226D01*
X160659774Y-91196063D01*
X160490256Y-91082795D01*
X160301898Y-91004774D01*
X160101939Y-90965000D01*
X159898061Y-90965000D01*
X159698102Y-91004774D01*
X159509744Y-91082795D01*
X159452653Y-91120942D01*
X159419774Y-91088063D01*
X159250256Y-90974795D01*
X159061898Y-90896774D01*
X158861939Y-90857000D01*
X158658061Y-90857000D01*
X158458102Y-90896774D01*
X158269744Y-90974795D01*
X158100226Y-91088063D01*
X157956063Y-91232226D01*
X157842795Y-91401744D01*
X157764774Y-91590102D01*
X157725000Y-91790061D01*
X121374764Y-91790061D01*
X121385661Y-91735280D01*
X121385661Y-91531402D01*
X121345887Y-91331443D01*
X121267866Y-91143085D01*
X121154598Y-90973567D01*
X121010435Y-90829404D01*
X120840917Y-90716136D01*
X120652559Y-90638115D01*
X120452600Y-90598341D01*
X120248722Y-90598341D01*
X120048763Y-90638115D01*
X119860405Y-90716136D01*
X119690887Y-90829404D01*
X119546724Y-90973567D01*
X119433456Y-91143085D01*
X119355435Y-91331443D01*
X119315661Y-91531402D01*
X100660000Y-91531402D01*
X100660000Y-89867070D01*
X136837000Y-89867070D01*
X136837000Y-90070948D01*
X136876774Y-90270907D01*
X136954795Y-90459265D01*
X137068063Y-90628783D01*
X137212226Y-90772946D01*
X137381744Y-90886214D01*
X137570102Y-90964235D01*
X137770061Y-91004009D01*
X137973939Y-91004009D01*
X138173898Y-90964235D01*
X138362256Y-90886214D01*
X138531774Y-90772946D01*
X138675937Y-90628783D01*
X138789205Y-90459265D01*
X138863874Y-90278999D01*
X138881938Y-90278999D01*
X139081897Y-90239225D01*
X139270255Y-90161204D01*
X139439773Y-90047936D01*
X139455294Y-90032415D01*
X139602102Y-90093226D01*
X139802061Y-90133000D01*
X140005939Y-90133000D01*
X140205898Y-90093226D01*
X140394256Y-90015205D01*
X140412000Y-90003349D01*
X140429744Y-90015205D01*
X140618102Y-90093226D01*
X140818061Y-90133000D01*
X141021939Y-90133000D01*
X141221898Y-90093226D01*
X141410256Y-90015205D01*
X141579774Y-89901937D01*
X141723937Y-89757774D01*
X141837205Y-89588256D01*
X141915226Y-89399898D01*
X141955000Y-89199939D01*
X141955000Y-88996061D01*
X141915226Y-88796102D01*
X141837205Y-88607744D01*
X141723937Y-88438226D01*
X141579774Y-88294063D01*
X141410256Y-88180795D01*
X141221898Y-88102774D01*
X141021939Y-88063000D01*
X140818061Y-88063000D01*
X140618102Y-88102774D01*
X140429744Y-88180795D01*
X140412000Y-88192651D01*
X140394256Y-88180795D01*
X140205898Y-88102774D01*
X140005939Y-88063000D01*
X139802061Y-88063000D01*
X139602102Y-88102774D01*
X139413744Y-88180795D01*
X139244226Y-88294063D01*
X139228705Y-88309584D01*
X139081897Y-88248773D01*
X138881938Y-88208999D01*
X138678060Y-88208999D01*
X138478101Y-88248773D01*
X138289743Y-88326794D01*
X138120225Y-88440062D01*
X137976062Y-88584225D01*
X137862794Y-88753743D01*
X137788125Y-88934009D01*
X137770061Y-88934009D01*
X137570102Y-88973783D01*
X137381744Y-89051804D01*
X137212226Y-89165072D01*
X137068063Y-89309235D01*
X136954795Y-89478753D01*
X136876774Y-89667111D01*
X136837000Y-89867070D01*
X100660000Y-89867070D01*
X100660000Y-88097261D01*
X119335800Y-88097261D01*
X119335800Y-88301139D01*
X119375574Y-88501098D01*
X119453595Y-88689456D01*
X119566863Y-88858974D01*
X119711026Y-89003137D01*
X119880544Y-89116405D01*
X120068902Y-89194426D01*
X120268861Y-89234200D01*
X120472739Y-89234200D01*
X120672698Y-89194426D01*
X120861056Y-89116405D01*
X121030574Y-89003137D01*
X121174737Y-88858974D01*
X121288005Y-88689456D01*
X121366026Y-88501098D01*
X121405800Y-88301139D01*
X121405800Y-88097261D01*
X121366026Y-87897302D01*
X121288005Y-87708944D01*
X121174737Y-87539426D01*
X121030574Y-87395263D01*
X120861056Y-87281995D01*
X120672698Y-87203974D01*
X120472739Y-87164200D01*
X120268861Y-87164200D01*
X120068902Y-87203974D01*
X119880544Y-87281995D01*
X119711026Y-87395263D01*
X119566863Y-87539426D01*
X119453595Y-87708944D01*
X119375574Y-87897302D01*
X119335800Y-88097261D01*
X100660000Y-88097261D01*
X100660000Y-84170061D01*
X139377000Y-84170061D01*
X139377000Y-84373939D01*
X139416774Y-84573898D01*
X139494795Y-84762256D01*
X139608063Y-84931774D01*
X139752226Y-85075937D01*
X139921744Y-85189205D01*
X140110102Y-85267226D01*
X140310061Y-85307000D01*
X140513939Y-85307000D01*
X140713898Y-85267226D01*
X140902256Y-85189205D01*
X141071774Y-85075937D01*
X141215937Y-84931774D01*
X141329205Y-84762256D01*
X141407226Y-84573898D01*
X141447000Y-84373939D01*
X141447000Y-84338061D01*
X153575000Y-84338061D01*
X153575000Y-84541939D01*
X153614774Y-84741898D01*
X153692795Y-84930256D01*
X153806063Y-85099774D01*
X153950226Y-85243937D01*
X154119744Y-85357205D01*
X154308102Y-85435226D01*
X154508061Y-85475000D01*
X154711939Y-85475000D01*
X154911898Y-85435226D01*
X155100256Y-85357205D01*
X155269774Y-85243937D01*
X155413937Y-85099774D01*
X155527205Y-84930256D01*
X155605226Y-84741898D01*
X155645000Y-84541939D01*
X155645000Y-84338061D01*
X155605226Y-84138102D01*
X155527205Y-83949744D01*
X155413937Y-83780226D01*
X155269774Y-83636063D01*
X155100256Y-83522795D01*
X154911898Y-83444774D01*
X154711939Y-83405000D01*
X154508061Y-83405000D01*
X154308102Y-83444774D01*
X154119744Y-83522795D01*
X153950226Y-83636063D01*
X153806063Y-83780226D01*
X153692795Y-83949744D01*
X153614774Y-84138102D01*
X153575000Y-84338061D01*
X141447000Y-84338061D01*
X141447000Y-84170061D01*
X141407226Y-83970102D01*
X141329205Y-83781744D01*
X141215937Y-83612226D01*
X141071774Y-83468063D01*
X140902256Y-83354795D01*
X140713898Y-83276774D01*
X140513939Y-83237000D01*
X140310061Y-83237000D01*
X140110102Y-83276774D01*
X139921744Y-83354795D01*
X139752226Y-83468063D01*
X139608063Y-83612226D01*
X139494795Y-83781744D01*
X139416774Y-83970102D01*
X139377000Y-84170061D01*
X100660000Y-84170061D01*
X100660000Y-81122061D01*
X122105000Y-81122061D01*
X122105000Y-81325939D01*
X122144774Y-81525898D01*
X122222795Y-81714256D01*
X122336063Y-81883774D01*
X122480226Y-82027937D01*
X122649744Y-82141205D01*
X122838102Y-82219226D01*
X123038061Y-82259000D01*
X123241939Y-82259000D01*
X123441898Y-82219226D01*
X123630256Y-82141205D01*
X123799774Y-82027937D01*
X123943650Y-81884061D01*
X126940000Y-81884061D01*
X126940000Y-82087939D01*
X126979774Y-82287898D01*
X127057795Y-82476256D01*
X127069651Y-82494000D01*
X127057795Y-82511744D01*
X126979774Y-82700102D01*
X126940000Y-82900061D01*
X126940000Y-83103939D01*
X126979774Y-83303898D01*
X127057795Y-83492256D01*
X127171063Y-83661774D01*
X127315226Y-83805937D01*
X127484744Y-83919205D01*
X127673102Y-83997226D01*
X127873061Y-84037000D01*
X128076939Y-84037000D01*
X128276898Y-83997226D01*
X128465256Y-83919205D01*
X128634774Y-83805937D01*
X128778937Y-83661774D01*
X128892205Y-83492256D01*
X128970226Y-83303898D01*
X129010000Y-83103939D01*
X129010000Y-82900061D01*
X128970226Y-82700102D01*
X128892205Y-82511744D01*
X128880349Y-82494000D01*
X128892205Y-82476256D01*
X128951506Y-82333091D01*
X141509919Y-82333091D01*
X141607243Y-82607452D01*
X141756222Y-82857555D01*
X141951131Y-83073788D01*
X142184480Y-83247841D01*
X142447301Y-83373025D01*
X142594510Y-83417676D01*
X142824400Y-83296355D01*
X142824400Y-82103200D01*
X143078400Y-82103200D01*
X143078400Y-83296355D01*
X143308290Y-83417676D01*
X143455499Y-83373025D01*
X143718320Y-83247841D01*
X143951669Y-83073788D01*
X144146578Y-82857555D01*
X144221400Y-82731945D01*
X144296222Y-82857555D01*
X144491131Y-83073788D01*
X144724480Y-83247841D01*
X144987301Y-83373025D01*
X145134510Y-83417676D01*
X145364400Y-83296355D01*
X145364400Y-82103200D01*
X145618400Y-82103200D01*
X145618400Y-83296355D01*
X145848290Y-83417676D01*
X145995499Y-83373025D01*
X146258320Y-83247841D01*
X146491669Y-83073788D01*
X146686578Y-82857555D01*
X146761400Y-82731945D01*
X146836222Y-82857555D01*
X147031131Y-83073788D01*
X147264480Y-83247841D01*
X147527301Y-83373025D01*
X147674510Y-83417676D01*
X147904400Y-83296355D01*
X147904400Y-82103200D01*
X148158400Y-82103200D01*
X148158400Y-83296355D01*
X148388290Y-83417676D01*
X148535499Y-83373025D01*
X148798320Y-83247841D01*
X149031669Y-83073788D01*
X149226578Y-82857555D01*
X149375557Y-82607452D01*
X149449834Y-82398061D01*
X159215000Y-82398061D01*
X159215000Y-82601939D01*
X159254774Y-82801898D01*
X159332795Y-82990256D01*
X159446063Y-83159774D01*
X159590226Y-83303937D01*
X159759744Y-83417205D01*
X159948102Y-83495226D01*
X160148061Y-83535000D01*
X160351939Y-83535000D01*
X160551898Y-83495226D01*
X160740256Y-83417205D01*
X160909774Y-83303937D01*
X161053937Y-83159774D01*
X161167205Y-82990256D01*
X161245226Y-82801898D01*
X161285000Y-82601939D01*
X161285000Y-82398061D01*
X161245226Y-82198102D01*
X161167205Y-82009744D01*
X161053937Y-81840226D01*
X160909774Y-81696063D01*
X160740256Y-81582795D01*
X160551898Y-81504774D01*
X160351939Y-81465000D01*
X160148061Y-81465000D01*
X159948102Y-81504774D01*
X159759744Y-81582795D01*
X159590226Y-81696063D01*
X159446063Y-81840226D01*
X159332795Y-82009744D01*
X159254774Y-82198102D01*
X159215000Y-82398061D01*
X149449834Y-82398061D01*
X149472881Y-82333091D01*
X149352214Y-82103200D01*
X148158400Y-82103200D01*
X147904400Y-82103200D01*
X145618400Y-82103200D01*
X145364400Y-82103200D01*
X143078400Y-82103200D01*
X142824400Y-82103200D01*
X141630586Y-82103200D01*
X141509919Y-82333091D01*
X128951506Y-82333091D01*
X128970226Y-82287898D01*
X129010000Y-82087939D01*
X129010000Y-81969184D01*
X129029898Y-81965226D01*
X129218256Y-81887205D01*
X129387774Y-81773937D01*
X129531937Y-81629774D01*
X129645205Y-81460256D01*
X129723226Y-81271898D01*
X129734619Y-81214619D01*
X129791898Y-81203226D01*
X129980256Y-81125205D01*
X130149774Y-81011937D01*
X130293937Y-80867774D01*
X130407205Y-80698256D01*
X130485226Y-80509898D01*
X130525000Y-80309939D01*
X130525000Y-80106061D01*
X130485226Y-79906102D01*
X130407205Y-79717744D01*
X130333023Y-79606722D01*
X130333901Y-79606897D01*
X130537779Y-79606897D01*
X130737738Y-79567123D01*
X130926096Y-79489102D01*
X131095614Y-79375834D01*
X131181508Y-79289940D01*
X141466400Y-79289940D01*
X141466400Y-79582460D01*
X141523468Y-79869358D01*
X141635410Y-80139611D01*
X141797925Y-80382832D01*
X142004768Y-80589675D01*
X142180806Y-80707300D01*
X141951131Y-80878612D01*
X141756222Y-81094845D01*
X141607243Y-81344948D01*
X141509919Y-81619309D01*
X141630586Y-81849200D01*
X142824400Y-81849200D01*
X142824400Y-81829200D01*
X143078400Y-81829200D01*
X143078400Y-81849200D01*
X145364400Y-81849200D01*
X145364400Y-81829200D01*
X145618400Y-81829200D01*
X145618400Y-81849200D01*
X147904400Y-81849200D01*
X147904400Y-81829200D01*
X148158400Y-81829200D01*
X148158400Y-81849200D01*
X149352214Y-81849200D01*
X149472881Y-81619309D01*
X149375557Y-81344948D01*
X149226578Y-81094845D01*
X149049774Y-80898698D01*
X149125580Y-80875702D01*
X149235894Y-80816737D01*
X149332585Y-80737385D01*
X149411937Y-80640694D01*
X149470902Y-80530380D01*
X149507212Y-80410682D01*
X149519472Y-80286200D01*
X149519472Y-78586200D01*
X149507212Y-78461718D01*
X149470902Y-78342020D01*
X149411937Y-78231706D01*
X149332585Y-78135015D01*
X149235894Y-78055663D01*
X149125580Y-77996698D01*
X149005882Y-77960388D01*
X148881400Y-77948128D01*
X147181400Y-77948128D01*
X147056918Y-77960388D01*
X146937220Y-77996698D01*
X146826906Y-78055663D01*
X146730215Y-78135015D01*
X146650863Y-78231706D01*
X146591898Y-78342020D01*
X146569887Y-78414580D01*
X146438032Y-78282725D01*
X146194811Y-78120210D01*
X145924558Y-78008268D01*
X145637660Y-77951200D01*
X145345140Y-77951200D01*
X145058242Y-78008268D01*
X144787989Y-78120210D01*
X144544768Y-78282725D01*
X144337925Y-78489568D01*
X144221400Y-78663960D01*
X144104875Y-78489568D01*
X143898032Y-78282725D01*
X143654811Y-78120210D01*
X143384558Y-78008268D01*
X143097660Y-77951200D01*
X142805140Y-77951200D01*
X142518242Y-78008268D01*
X142247989Y-78120210D01*
X142004768Y-78282725D01*
X141797925Y-78489568D01*
X141635410Y-78732789D01*
X141523468Y-79003042D01*
X141466400Y-79289940D01*
X131181508Y-79289940D01*
X131239777Y-79231671D01*
X131353045Y-79062153D01*
X131431066Y-78873795D01*
X131470840Y-78673836D01*
X131470840Y-78469958D01*
X131431066Y-78269999D01*
X131353045Y-78081641D01*
X131239777Y-77912123D01*
X131095614Y-77767960D01*
X130926096Y-77654692D01*
X130737738Y-77576671D01*
X130537779Y-77536897D01*
X130333901Y-77536897D01*
X130133942Y-77576671D01*
X129945584Y-77654692D01*
X129776066Y-77767960D01*
X129631903Y-77912123D01*
X129518635Y-78081641D01*
X129440614Y-78269999D01*
X129400840Y-78469958D01*
X129400840Y-78673836D01*
X129440614Y-78873795D01*
X129518635Y-79062153D01*
X129592817Y-79173175D01*
X129591939Y-79173000D01*
X129388061Y-79173000D01*
X129188102Y-79212774D01*
X128999744Y-79290795D01*
X128830226Y-79404063D01*
X128686063Y-79548226D01*
X128572795Y-79717744D01*
X128494774Y-79906102D01*
X128483381Y-79963381D01*
X128426102Y-79974774D01*
X128237744Y-80052795D01*
X128068226Y-80166063D01*
X127924063Y-80310226D01*
X127810795Y-80479744D01*
X127732774Y-80668102D01*
X127693000Y-80868061D01*
X127693000Y-80986816D01*
X127673102Y-80990774D01*
X127484744Y-81068795D01*
X127315226Y-81182063D01*
X127171063Y-81326226D01*
X127057795Y-81495744D01*
X126979774Y-81684102D01*
X126940000Y-81884061D01*
X123943650Y-81884061D01*
X123943937Y-81883774D01*
X124057205Y-81714256D01*
X124135226Y-81525898D01*
X124175000Y-81325939D01*
X124175000Y-81122061D01*
X124135226Y-80922102D01*
X124057205Y-80733744D01*
X123943937Y-80564226D01*
X123799774Y-80420063D01*
X123630256Y-80306795D01*
X123441898Y-80228774D01*
X123241939Y-80189000D01*
X123038061Y-80189000D01*
X122838102Y-80228774D01*
X122649744Y-80306795D01*
X122480226Y-80420063D01*
X122336063Y-80564226D01*
X122222795Y-80733744D01*
X122144774Y-80922102D01*
X122105000Y-81122061D01*
X100660000Y-81122061D01*
X100660000Y-77810261D01*
X113785900Y-77810261D01*
X113785900Y-78014139D01*
X113825674Y-78214098D01*
X113903695Y-78402456D01*
X114016963Y-78571974D01*
X114161126Y-78716137D01*
X114330644Y-78829405D01*
X114519002Y-78907426D01*
X114718961Y-78947200D01*
X114922839Y-78947200D01*
X115122798Y-78907426D01*
X115311156Y-78829405D01*
X115480674Y-78716137D01*
X115624837Y-78571974D01*
X115738105Y-78402456D01*
X115816126Y-78214098D01*
X115855900Y-78014139D01*
X115855900Y-77810261D01*
X115816126Y-77610302D01*
X115738105Y-77421944D01*
X115624837Y-77252426D01*
X115480674Y-77108263D01*
X115311156Y-76994995D01*
X115122798Y-76916974D01*
X114922839Y-76877200D01*
X114718961Y-76877200D01*
X114519002Y-76916974D01*
X114330644Y-76994995D01*
X114161126Y-77108263D01*
X114016963Y-77252426D01*
X113903695Y-77421944D01*
X113825674Y-77610302D01*
X113785900Y-77810261D01*
X100660000Y-77810261D01*
X100660000Y-73804495D01*
X102015000Y-73804495D01*
X102015000Y-74195505D01*
X102091282Y-74579003D01*
X102240915Y-74940250D01*
X102458149Y-75265364D01*
X102734636Y-75541851D01*
X103059750Y-75759085D01*
X103420997Y-75908718D01*
X103804495Y-75985000D01*
X104195505Y-75985000D01*
X104579003Y-75908718D01*
X104940250Y-75759085D01*
X105265364Y-75541851D01*
X105541851Y-75265364D01*
X105759085Y-74940250D01*
X105908718Y-74579003D01*
X105985000Y-74195505D01*
X105985000Y-73804495D01*
X105908718Y-73420997D01*
X105796468Y-73150000D01*
X107511928Y-73150000D01*
X107511928Y-74850000D01*
X107524188Y-74974482D01*
X107560498Y-75094180D01*
X107619463Y-75204494D01*
X107698815Y-75301185D01*
X107795506Y-75380537D01*
X107905820Y-75439502D01*
X108025518Y-75475812D01*
X108150000Y-75488072D01*
X109850000Y-75488072D01*
X109974482Y-75475812D01*
X110094180Y-75439502D01*
X110204494Y-75380537D01*
X110301185Y-75301185D01*
X110380537Y-75204494D01*
X110439502Y-75094180D01*
X110461513Y-75021620D01*
X110593368Y-75153475D01*
X110836589Y-75315990D01*
X111106842Y-75427932D01*
X111393740Y-75485000D01*
X111686260Y-75485000D01*
X111973158Y-75427932D01*
X112243411Y-75315990D01*
X112486632Y-75153475D01*
X112693475Y-74946632D01*
X112810000Y-74772240D01*
X112926525Y-74946632D01*
X113133368Y-75153475D01*
X113376589Y-75315990D01*
X113646842Y-75427932D01*
X113933740Y-75485000D01*
X114226260Y-75485000D01*
X114513158Y-75427932D01*
X114783411Y-75315990D01*
X115026632Y-75153475D01*
X115233475Y-74946632D01*
X115350000Y-74772240D01*
X115466525Y-74946632D01*
X115673368Y-75153475D01*
X115916589Y-75315990D01*
X116186842Y-75427932D01*
X116473740Y-75485000D01*
X116766260Y-75485000D01*
X117053158Y-75427932D01*
X117323411Y-75315990D01*
X117566632Y-75153475D01*
X117773475Y-74946632D01*
X117890000Y-74772240D01*
X118006525Y-74946632D01*
X118213368Y-75153475D01*
X118456589Y-75315990D01*
X118726842Y-75427932D01*
X119013740Y-75485000D01*
X119306260Y-75485000D01*
X119593158Y-75427932D01*
X119863411Y-75315990D01*
X120106632Y-75153475D01*
X120313475Y-74946632D01*
X120430000Y-74772240D01*
X120546525Y-74946632D01*
X120753368Y-75153475D01*
X120996589Y-75315990D01*
X121266842Y-75427932D01*
X121553740Y-75485000D01*
X121846260Y-75485000D01*
X122133158Y-75427932D01*
X122403411Y-75315990D01*
X122646632Y-75153475D01*
X122853475Y-74946632D01*
X122970000Y-74772240D01*
X123086525Y-74946632D01*
X123293368Y-75153475D01*
X123536589Y-75315990D01*
X123806842Y-75427932D01*
X124093740Y-75485000D01*
X124386260Y-75485000D01*
X124673158Y-75427932D01*
X124943411Y-75315990D01*
X125186632Y-75153475D01*
X125393475Y-74946632D01*
X125510000Y-74772240D01*
X125626525Y-74946632D01*
X125833368Y-75153475D01*
X126076589Y-75315990D01*
X126346842Y-75427932D01*
X126633740Y-75485000D01*
X126926260Y-75485000D01*
X127213158Y-75427932D01*
X127483411Y-75315990D01*
X127726632Y-75153475D01*
X127933475Y-74946632D01*
X128095990Y-74703411D01*
X128207932Y-74433158D01*
X128265000Y-74146260D01*
X128265000Y-73853740D01*
X128207932Y-73566842D01*
X128095990Y-73296589D01*
X127998043Y-73150000D01*
X141450628Y-73150000D01*
X141450628Y-74850000D01*
X141462888Y-74974482D01*
X141499198Y-75094180D01*
X141558163Y-75204494D01*
X141637515Y-75301185D01*
X141734206Y-75380537D01*
X141844520Y-75439502D01*
X141964218Y-75475812D01*
X142088700Y-75488072D01*
X143788700Y-75488072D01*
X143913182Y-75475812D01*
X144032880Y-75439502D01*
X144143194Y-75380537D01*
X144239885Y-75301185D01*
X144319237Y-75204494D01*
X144378202Y-75094180D01*
X144400213Y-75021620D01*
X144532068Y-75153475D01*
X144775289Y-75315990D01*
X145045542Y-75427932D01*
X145332440Y-75485000D01*
X145624960Y-75485000D01*
X145911858Y-75427932D01*
X146182111Y-75315990D01*
X146425332Y-75153475D01*
X146632175Y-74946632D01*
X146748700Y-74772240D01*
X146865225Y-74946632D01*
X147072068Y-75153475D01*
X147315289Y-75315990D01*
X147585542Y-75427932D01*
X147872440Y-75485000D01*
X148164960Y-75485000D01*
X148451858Y-75427932D01*
X148722111Y-75315990D01*
X148965332Y-75153475D01*
X149172175Y-74946632D01*
X149288700Y-74772240D01*
X149405225Y-74946632D01*
X149612068Y-75153475D01*
X149855289Y-75315990D01*
X150125542Y-75427932D01*
X150412440Y-75485000D01*
X150704960Y-75485000D01*
X150991858Y-75427932D01*
X151262111Y-75315990D01*
X151505332Y-75153475D01*
X151712175Y-74946632D01*
X151828700Y-74772240D01*
X151945225Y-74946632D01*
X152152068Y-75153475D01*
X152395289Y-75315990D01*
X152665542Y-75427932D01*
X152952440Y-75485000D01*
X153244960Y-75485000D01*
X153531858Y-75427932D01*
X153802111Y-75315990D01*
X154045332Y-75153475D01*
X154252175Y-74946632D01*
X154373895Y-74764466D01*
X154443522Y-74881355D01*
X154638431Y-75097588D01*
X154871780Y-75271641D01*
X155134601Y-75396825D01*
X155281810Y-75441476D01*
X155511700Y-75320155D01*
X155511700Y-74127000D01*
X155765700Y-74127000D01*
X155765700Y-75320155D01*
X155995590Y-75441476D01*
X156142799Y-75396825D01*
X156405620Y-75271641D01*
X156638969Y-75097588D01*
X156833878Y-74881355D01*
X156982857Y-74631252D01*
X157080181Y-74356891D01*
X156959514Y-74127000D01*
X155765700Y-74127000D01*
X155511700Y-74127000D01*
X155491700Y-74127000D01*
X155491700Y-73873000D01*
X155511700Y-73873000D01*
X155511700Y-72679845D01*
X155765700Y-72679845D01*
X155765700Y-73873000D01*
X156959514Y-73873000D01*
X156995471Y-73804495D01*
X163015000Y-73804495D01*
X163015000Y-74195505D01*
X163091282Y-74579003D01*
X163240915Y-74940250D01*
X163458149Y-75265364D01*
X163734636Y-75541851D01*
X164059750Y-75759085D01*
X164420997Y-75908718D01*
X164804495Y-75985000D01*
X165195505Y-75985000D01*
X165579003Y-75908718D01*
X165940250Y-75759085D01*
X166265364Y-75541851D01*
X166541851Y-75265364D01*
X166759085Y-74940250D01*
X166908718Y-74579003D01*
X166985000Y-74195505D01*
X166985000Y-73804495D01*
X166908718Y-73420997D01*
X166759085Y-73059750D01*
X166541851Y-72734636D01*
X166265364Y-72458149D01*
X165940250Y-72240915D01*
X165579003Y-72091282D01*
X165195505Y-72015000D01*
X164804495Y-72015000D01*
X164420997Y-72091282D01*
X164059750Y-72240915D01*
X163734636Y-72458149D01*
X163458149Y-72734636D01*
X163240915Y-73059750D01*
X163091282Y-73420997D01*
X163015000Y-73804495D01*
X156995471Y-73804495D01*
X157080181Y-73643109D01*
X156982857Y-73368748D01*
X156833878Y-73118645D01*
X156638969Y-72902412D01*
X156405620Y-72728359D01*
X156142799Y-72603175D01*
X155995590Y-72558524D01*
X155765700Y-72679845D01*
X155511700Y-72679845D01*
X155281810Y-72558524D01*
X155134601Y-72603175D01*
X154871780Y-72728359D01*
X154638431Y-72902412D01*
X154443522Y-73118645D01*
X154373895Y-73235534D01*
X154252175Y-73053368D01*
X154045332Y-72846525D01*
X153802111Y-72684010D01*
X153531858Y-72572068D01*
X153244960Y-72515000D01*
X152952440Y-72515000D01*
X152665542Y-72572068D01*
X152395289Y-72684010D01*
X152152068Y-72846525D01*
X151945225Y-73053368D01*
X151828700Y-73227760D01*
X151712175Y-73053368D01*
X151505332Y-72846525D01*
X151262111Y-72684010D01*
X150991858Y-72572068D01*
X150704960Y-72515000D01*
X150412440Y-72515000D01*
X150125542Y-72572068D01*
X149855289Y-72684010D01*
X149612068Y-72846525D01*
X149405225Y-73053368D01*
X149288700Y-73227760D01*
X149172175Y-73053368D01*
X148965332Y-72846525D01*
X148722111Y-72684010D01*
X148451858Y-72572068D01*
X148164960Y-72515000D01*
X147872440Y-72515000D01*
X147585542Y-72572068D01*
X147315289Y-72684010D01*
X147072068Y-72846525D01*
X146865225Y-73053368D01*
X146748700Y-73227760D01*
X146632175Y-73053368D01*
X146425332Y-72846525D01*
X146182111Y-72684010D01*
X145911858Y-72572068D01*
X145624960Y-72515000D01*
X145332440Y-72515000D01*
X145045542Y-72572068D01*
X144775289Y-72684010D01*
X144532068Y-72846525D01*
X144400213Y-72978380D01*
X144378202Y-72905820D01*
X144319237Y-72795506D01*
X144239885Y-72698815D01*
X144143194Y-72619463D01*
X144032880Y-72560498D01*
X143913182Y-72524188D01*
X143788700Y-72511928D01*
X142088700Y-72511928D01*
X141964218Y-72524188D01*
X141844520Y-72560498D01*
X141734206Y-72619463D01*
X141637515Y-72698815D01*
X141558163Y-72795506D01*
X141499198Y-72905820D01*
X141462888Y-73025518D01*
X141450628Y-73150000D01*
X127998043Y-73150000D01*
X127933475Y-73053368D01*
X127726632Y-72846525D01*
X127483411Y-72684010D01*
X127213158Y-72572068D01*
X126926260Y-72515000D01*
X126633740Y-72515000D01*
X126346842Y-72572068D01*
X126076589Y-72684010D01*
X125833368Y-72846525D01*
X125626525Y-73053368D01*
X125510000Y-73227760D01*
X125393475Y-73053368D01*
X125186632Y-72846525D01*
X124943411Y-72684010D01*
X124673158Y-72572068D01*
X124386260Y-72515000D01*
X124093740Y-72515000D01*
X123806842Y-72572068D01*
X123536589Y-72684010D01*
X123293368Y-72846525D01*
X123086525Y-73053368D01*
X122970000Y-73227760D01*
X122853475Y-73053368D01*
X122646632Y-72846525D01*
X122403411Y-72684010D01*
X122133158Y-72572068D01*
X121846260Y-72515000D01*
X121553740Y-72515000D01*
X121266842Y-72572068D01*
X120996589Y-72684010D01*
X120753368Y-72846525D01*
X120546525Y-73053368D01*
X120430000Y-73227760D01*
X120313475Y-73053368D01*
X120106632Y-72846525D01*
X119863411Y-72684010D01*
X119593158Y-72572068D01*
X119306260Y-72515000D01*
X119013740Y-72515000D01*
X118726842Y-72572068D01*
X118456589Y-72684010D01*
X118213368Y-72846525D01*
X118006525Y-73053368D01*
X117890000Y-73227760D01*
X117773475Y-73053368D01*
X117566632Y-72846525D01*
X117323411Y-72684010D01*
X117053158Y-72572068D01*
X116766260Y-72515000D01*
X116473740Y-72515000D01*
X116186842Y-72572068D01*
X115916589Y-72684010D01*
X115673368Y-72846525D01*
X115466525Y-73053368D01*
X115350000Y-73227760D01*
X115233475Y-73053368D01*
X115026632Y-72846525D01*
X114783411Y-72684010D01*
X114513158Y-72572068D01*
X114226260Y-72515000D01*
X113933740Y-72515000D01*
X113646842Y-72572068D01*
X113376589Y-72684010D01*
X113133368Y-72846525D01*
X112926525Y-73053368D01*
X112810000Y-73227760D01*
X112693475Y-73053368D01*
X112486632Y-72846525D01*
X112243411Y-72684010D01*
X111973158Y-72572068D01*
X111686260Y-72515000D01*
X111393740Y-72515000D01*
X111106842Y-72572068D01*
X110836589Y-72684010D01*
X110593368Y-72846525D01*
X110461513Y-72978380D01*
X110439502Y-72905820D01*
X110380537Y-72795506D01*
X110301185Y-72698815D01*
X110204494Y-72619463D01*
X110094180Y-72560498D01*
X109974482Y-72524188D01*
X109850000Y-72511928D01*
X108150000Y-72511928D01*
X108025518Y-72524188D01*
X107905820Y-72560498D01*
X107795506Y-72619463D01*
X107698815Y-72698815D01*
X107619463Y-72795506D01*
X107560498Y-72905820D01*
X107524188Y-73025518D01*
X107511928Y-73150000D01*
X105796468Y-73150000D01*
X105759085Y-73059750D01*
X105541851Y-72734636D01*
X105265364Y-72458149D01*
X104940250Y-72240915D01*
X104579003Y-72091282D01*
X104195505Y-72015000D01*
X103804495Y-72015000D01*
X103420997Y-72091282D01*
X103059750Y-72240915D01*
X102734636Y-72458149D01*
X102458149Y-72734636D01*
X102240915Y-73059750D01*
X102091282Y-73420997D01*
X102015000Y-73804495D01*
X100660000Y-73804495D01*
X100660000Y-73032279D01*
X100707670Y-72546107D01*
X100839489Y-72109502D01*
X101053600Y-71706815D01*
X101341848Y-71353388D01*
X101693261Y-71062673D01*
X102094439Y-70845758D01*
X102530113Y-70710894D01*
X103014344Y-70660000D01*
X165967721Y-70660000D01*
X166453893Y-70707670D01*
G37*
G04 #@! TD.AperFunction*
M02*
