G04 #@! TF.GenerationSoftware,KiCad,Pcbnew,8.0.3+1*
G04 #@! TF.CreationDate,2024-07-04T17:01:04+00:00*
G04 #@! TF.ProjectId,STM32F030K6T6TR_Devel,53544d33-3246-4303-9330-4b3654365452,0.0.2*
G04 #@! TF.SameCoordinates,Original*
G04 #@! TF.FileFunction,Legend,Top*
G04 #@! TF.FilePolarity,Positive*
%FSLAX46Y46*%
G04 Gerber Fmt 4.6, Leading zero omitted, Abs format (unit mm)*
G04 Created by KiCad (PCBNEW 8.0.3+1) date 2024-07-04 17:01:04*
%MOMM*%
%LPD*%
G01*
G04 APERTURE LIST*
%ADD10C,0.150000*%
%ADD11C,0.200000*%
%ADD12C,0.120000*%
%ADD13C,2.800000*%
%ADD14C,2.100000*%
%ADD15O,1.800000X1.800000*%
G04 APERTURE END LIST*
D10*
X110833333Y-75954819D02*
X110928571Y-75954819D01*
X110928571Y-75954819D02*
X111023809Y-76002438D01*
X111023809Y-76002438D02*
X111071428Y-76050057D01*
X111071428Y-76050057D02*
X111119047Y-76145295D01*
X111119047Y-76145295D02*
X111166666Y-76335771D01*
X111166666Y-76335771D02*
X111166666Y-76573866D01*
X111166666Y-76573866D02*
X111119047Y-76764342D01*
X111119047Y-76764342D02*
X111071428Y-76859580D01*
X111071428Y-76859580D02*
X111023809Y-76907200D01*
X111023809Y-76907200D02*
X110928571Y-76954819D01*
X110928571Y-76954819D02*
X110833333Y-76954819D01*
X110833333Y-76954819D02*
X110738095Y-76907200D01*
X110738095Y-76907200D02*
X110690476Y-76859580D01*
X110690476Y-76859580D02*
X110642857Y-76764342D01*
X110642857Y-76764342D02*
X110595238Y-76573866D01*
X110595238Y-76573866D02*
X110595238Y-76335771D01*
X110595238Y-76335771D02*
X110642857Y-76145295D01*
X110642857Y-76145295D02*
X110690476Y-76050057D01*
X110690476Y-76050057D02*
X110738095Y-76002438D01*
X110738095Y-76002438D02*
X110833333Y-75954819D01*
X113119048Y-76573866D02*
X113880953Y-76573866D01*
X116404762Y-76954819D02*
X115833334Y-76954819D01*
X116119048Y-76954819D02*
X116119048Y-75954819D01*
X116119048Y-75954819D02*
X116023810Y-76097676D01*
X116023810Y-76097676D02*
X115928572Y-76192914D01*
X115928572Y-76192914D02*
X115833334Y-76240533D01*
X126362857Y-77233866D02*
X127124762Y-77233866D01*
X127600952Y-77614819D02*
X127600952Y-76614819D01*
X127600952Y-76614819D02*
X127981904Y-76614819D01*
X127981904Y-76614819D02*
X128077142Y-76662438D01*
X128077142Y-76662438D02*
X128124761Y-76710057D01*
X128124761Y-76710057D02*
X128172380Y-76805295D01*
X128172380Y-76805295D02*
X128172380Y-76948152D01*
X128172380Y-76948152D02*
X128124761Y-77043390D01*
X128124761Y-77043390D02*
X128077142Y-77091009D01*
X128077142Y-77091009D02*
X127981904Y-77138628D01*
X127981904Y-77138628D02*
X127600952Y-77138628D01*
X128934285Y-77091009D02*
X129077142Y-77138628D01*
X129077142Y-77138628D02*
X129124761Y-77186247D01*
X129124761Y-77186247D02*
X129172380Y-77281485D01*
X129172380Y-77281485D02*
X129172380Y-77424342D01*
X129172380Y-77424342D02*
X129124761Y-77519580D01*
X129124761Y-77519580D02*
X129077142Y-77567200D01*
X129077142Y-77567200D02*
X128981904Y-77614819D01*
X128981904Y-77614819D02*
X128600952Y-77614819D01*
X128600952Y-77614819D02*
X128600952Y-76614819D01*
X128600952Y-76614819D02*
X128934285Y-76614819D01*
X128934285Y-76614819D02*
X129029523Y-76662438D01*
X129029523Y-76662438D02*
X129077142Y-76710057D01*
X129077142Y-76710057D02*
X129124761Y-76805295D01*
X129124761Y-76805295D02*
X129124761Y-76900533D01*
X129124761Y-76900533D02*
X129077142Y-76995771D01*
X129077142Y-76995771D02*
X129029523Y-77043390D01*
X129029523Y-77043390D02*
X128934285Y-77091009D01*
X128934285Y-77091009D02*
X128600952Y-77091009D01*
X130077142Y-76614819D02*
X129600952Y-76614819D01*
X129600952Y-76614819D02*
X129553333Y-77091009D01*
X129553333Y-77091009D02*
X129600952Y-77043390D01*
X129600952Y-77043390D02*
X129696190Y-76995771D01*
X129696190Y-76995771D02*
X129934285Y-76995771D01*
X129934285Y-76995771D02*
X130029523Y-77043390D01*
X130029523Y-77043390D02*
X130077142Y-77091009D01*
X130077142Y-77091009D02*
X130124761Y-77186247D01*
X130124761Y-77186247D02*
X130124761Y-77424342D01*
X130124761Y-77424342D02*
X130077142Y-77519580D01*
X130077142Y-77519580D02*
X130029523Y-77567200D01*
X130029523Y-77567200D02*
X129934285Y-77614819D01*
X129934285Y-77614819D02*
X129696190Y-77614819D01*
X129696190Y-77614819D02*
X129600952Y-77567200D01*
X129600952Y-77567200D02*
X129553333Y-77519580D01*
X144954819Y-114163220D02*
X143954819Y-114163220D01*
X143954819Y-114163220D02*
X143954819Y-113925125D01*
X143954819Y-113925125D02*
X144002438Y-113782268D01*
X144002438Y-113782268D02*
X144097676Y-113687030D01*
X144097676Y-113687030D02*
X144192914Y-113639411D01*
X144192914Y-113639411D02*
X144383390Y-113591792D01*
X144383390Y-113591792D02*
X144526247Y-113591792D01*
X144526247Y-113591792D02*
X144716723Y-113639411D01*
X144716723Y-113639411D02*
X144811961Y-113687030D01*
X144811961Y-113687030D02*
X144907200Y-113782268D01*
X144907200Y-113782268D02*
X144954819Y-113925125D01*
X144954819Y-113925125D02*
X144954819Y-114163220D01*
X144859580Y-112591792D02*
X144907200Y-112639411D01*
X144907200Y-112639411D02*
X144954819Y-112782268D01*
X144954819Y-112782268D02*
X144954819Y-112877506D01*
X144954819Y-112877506D02*
X144907200Y-113020363D01*
X144907200Y-113020363D02*
X144811961Y-113115601D01*
X144811961Y-113115601D02*
X144716723Y-113163220D01*
X144716723Y-113163220D02*
X144526247Y-113210839D01*
X144526247Y-113210839D02*
X144383390Y-113210839D01*
X144383390Y-113210839D02*
X144192914Y-113163220D01*
X144192914Y-113163220D02*
X144097676Y-113115601D01*
X144097676Y-113115601D02*
X144002438Y-113020363D01*
X144002438Y-113020363D02*
X143954819Y-112877506D01*
X143954819Y-112877506D02*
X143954819Y-112782268D01*
X143954819Y-112782268D02*
X144002438Y-112639411D01*
X144002438Y-112639411D02*
X144050057Y-112591792D01*
X144954819Y-111687030D02*
X144954819Y-112163220D01*
X144954819Y-112163220D02*
X143954819Y-112163220D01*
X144954819Y-111353696D02*
X143954819Y-111353696D01*
X144954819Y-110782268D02*
X144383390Y-111210839D01*
X143954819Y-110782268D02*
X144526247Y-111353696D01*
X101986209Y-79984637D02*
X102129066Y-80032256D01*
X102129066Y-80032256D02*
X102176685Y-80079875D01*
X102176685Y-80079875D02*
X102224304Y-80175113D01*
X102224304Y-80175113D02*
X102224304Y-80317970D01*
X102224304Y-80317970D02*
X102176685Y-80413208D01*
X102176685Y-80413208D02*
X102129066Y-80460828D01*
X102129066Y-80460828D02*
X102033828Y-80508447D01*
X102033828Y-80508447D02*
X101652876Y-80508447D01*
X101652876Y-80508447D02*
X101652876Y-79508447D01*
X101652876Y-79508447D02*
X101986209Y-79508447D01*
X101986209Y-79508447D02*
X102081447Y-79556066D01*
X102081447Y-79556066D02*
X102129066Y-79603685D01*
X102129066Y-79603685D02*
X102176685Y-79698923D01*
X102176685Y-79698923D02*
X102176685Y-79794161D01*
X102176685Y-79794161D02*
X102129066Y-79889399D01*
X102129066Y-79889399D02*
X102081447Y-79937018D01*
X102081447Y-79937018D02*
X101986209Y-79984637D01*
X101986209Y-79984637D02*
X101652876Y-79984637D01*
X102795733Y-80508447D02*
X102700495Y-80460828D01*
X102700495Y-80460828D02*
X102652876Y-80413208D01*
X102652876Y-80413208D02*
X102605257Y-80317970D01*
X102605257Y-80317970D02*
X102605257Y-80032256D01*
X102605257Y-80032256D02*
X102652876Y-79937018D01*
X102652876Y-79937018D02*
X102700495Y-79889399D01*
X102700495Y-79889399D02*
X102795733Y-79841780D01*
X102795733Y-79841780D02*
X102938590Y-79841780D01*
X102938590Y-79841780D02*
X103033828Y-79889399D01*
X103033828Y-79889399D02*
X103081447Y-79937018D01*
X103081447Y-79937018D02*
X103129066Y-80032256D01*
X103129066Y-80032256D02*
X103129066Y-80317970D01*
X103129066Y-80317970D02*
X103081447Y-80413208D01*
X103081447Y-80413208D02*
X103033828Y-80460828D01*
X103033828Y-80460828D02*
X102938590Y-80508447D01*
X102938590Y-80508447D02*
X102795733Y-80508447D01*
X103700495Y-80508447D02*
X103605257Y-80460828D01*
X103605257Y-80460828D02*
X103557638Y-80413208D01*
X103557638Y-80413208D02*
X103510019Y-80317970D01*
X103510019Y-80317970D02*
X103510019Y-80032256D01*
X103510019Y-80032256D02*
X103557638Y-79937018D01*
X103557638Y-79937018D02*
X103605257Y-79889399D01*
X103605257Y-79889399D02*
X103700495Y-79841780D01*
X103700495Y-79841780D02*
X103843352Y-79841780D01*
X103843352Y-79841780D02*
X103938590Y-79889399D01*
X103938590Y-79889399D02*
X103986209Y-79937018D01*
X103986209Y-79937018D02*
X104033828Y-80032256D01*
X104033828Y-80032256D02*
X104033828Y-80317970D01*
X104033828Y-80317970D02*
X103986209Y-80413208D01*
X103986209Y-80413208D02*
X103938590Y-80460828D01*
X103938590Y-80460828D02*
X103843352Y-80508447D01*
X103843352Y-80508447D02*
X103700495Y-80508447D01*
X104319543Y-79841780D02*
X104700495Y-79841780D01*
X104462400Y-79508447D02*
X104462400Y-80365589D01*
X104462400Y-80365589D02*
X104510019Y-80460828D01*
X104510019Y-80460828D02*
X104605257Y-80508447D01*
X104605257Y-80508447D02*
X104700495Y-80508447D01*
X105986210Y-79508447D02*
X106081448Y-79508447D01*
X106081448Y-79508447D02*
X106176686Y-79556066D01*
X106176686Y-79556066D02*
X106224305Y-79603685D01*
X106224305Y-79603685D02*
X106271924Y-79698923D01*
X106271924Y-79698923D02*
X106319543Y-79889399D01*
X106319543Y-79889399D02*
X106319543Y-80127494D01*
X106319543Y-80127494D02*
X106271924Y-80317970D01*
X106271924Y-80317970D02*
X106224305Y-80413208D01*
X106224305Y-80413208D02*
X106176686Y-80460828D01*
X106176686Y-80460828D02*
X106081448Y-80508447D01*
X106081448Y-80508447D02*
X105986210Y-80508447D01*
X105986210Y-80508447D02*
X105890972Y-80460828D01*
X105890972Y-80460828D02*
X105843353Y-80413208D01*
X105843353Y-80413208D02*
X105795734Y-80317970D01*
X105795734Y-80317970D02*
X105748115Y-80127494D01*
X105748115Y-80127494D02*
X105748115Y-79889399D01*
X105748115Y-79889399D02*
X105795734Y-79698923D01*
X105795734Y-79698923D02*
X105843353Y-79603685D01*
X105843353Y-79603685D02*
X105890972Y-79556066D01*
X105890972Y-79556066D02*
X105986210Y-79508447D01*
X101986209Y-81594581D02*
X102129066Y-81642200D01*
X102129066Y-81642200D02*
X102176685Y-81689819D01*
X102176685Y-81689819D02*
X102224304Y-81785057D01*
X102224304Y-81785057D02*
X102224304Y-81927914D01*
X102224304Y-81927914D02*
X102176685Y-82023152D01*
X102176685Y-82023152D02*
X102129066Y-82070772D01*
X102129066Y-82070772D02*
X102033828Y-82118391D01*
X102033828Y-82118391D02*
X101652876Y-82118391D01*
X101652876Y-82118391D02*
X101652876Y-81118391D01*
X101652876Y-81118391D02*
X101986209Y-81118391D01*
X101986209Y-81118391D02*
X102081447Y-81166010D01*
X102081447Y-81166010D02*
X102129066Y-81213629D01*
X102129066Y-81213629D02*
X102176685Y-81308867D01*
X102176685Y-81308867D02*
X102176685Y-81404105D01*
X102176685Y-81404105D02*
X102129066Y-81499343D01*
X102129066Y-81499343D02*
X102081447Y-81546962D01*
X102081447Y-81546962D02*
X101986209Y-81594581D01*
X101986209Y-81594581D02*
X101652876Y-81594581D01*
X102795733Y-82118391D02*
X102700495Y-82070772D01*
X102700495Y-82070772D02*
X102652876Y-82023152D01*
X102652876Y-82023152D02*
X102605257Y-81927914D01*
X102605257Y-81927914D02*
X102605257Y-81642200D01*
X102605257Y-81642200D02*
X102652876Y-81546962D01*
X102652876Y-81546962D02*
X102700495Y-81499343D01*
X102700495Y-81499343D02*
X102795733Y-81451724D01*
X102795733Y-81451724D02*
X102938590Y-81451724D01*
X102938590Y-81451724D02*
X103033828Y-81499343D01*
X103033828Y-81499343D02*
X103081447Y-81546962D01*
X103081447Y-81546962D02*
X103129066Y-81642200D01*
X103129066Y-81642200D02*
X103129066Y-81927914D01*
X103129066Y-81927914D02*
X103081447Y-82023152D01*
X103081447Y-82023152D02*
X103033828Y-82070772D01*
X103033828Y-82070772D02*
X102938590Y-82118391D01*
X102938590Y-82118391D02*
X102795733Y-82118391D01*
X103700495Y-82118391D02*
X103605257Y-82070772D01*
X103605257Y-82070772D02*
X103557638Y-82023152D01*
X103557638Y-82023152D02*
X103510019Y-81927914D01*
X103510019Y-81927914D02*
X103510019Y-81642200D01*
X103510019Y-81642200D02*
X103557638Y-81546962D01*
X103557638Y-81546962D02*
X103605257Y-81499343D01*
X103605257Y-81499343D02*
X103700495Y-81451724D01*
X103700495Y-81451724D02*
X103843352Y-81451724D01*
X103843352Y-81451724D02*
X103938590Y-81499343D01*
X103938590Y-81499343D02*
X103986209Y-81546962D01*
X103986209Y-81546962D02*
X104033828Y-81642200D01*
X104033828Y-81642200D02*
X104033828Y-81927914D01*
X104033828Y-81927914D02*
X103986209Y-82023152D01*
X103986209Y-82023152D02*
X103938590Y-82070772D01*
X103938590Y-82070772D02*
X103843352Y-82118391D01*
X103843352Y-82118391D02*
X103700495Y-82118391D01*
X104319543Y-81451724D02*
X104700495Y-81451724D01*
X104462400Y-81118391D02*
X104462400Y-81975533D01*
X104462400Y-81975533D02*
X104510019Y-82070772D01*
X104510019Y-82070772D02*
X104605257Y-82118391D01*
X104605257Y-82118391D02*
X104700495Y-82118391D01*
X106319543Y-82118391D02*
X105748115Y-82118391D01*
X106033829Y-82118391D02*
X106033829Y-81118391D01*
X106033829Y-81118391D02*
X105938591Y-81261248D01*
X105938591Y-81261248D02*
X105843353Y-81356486D01*
X105843353Y-81356486D02*
X105748115Y-81404105D01*
X109461180Y-71524381D02*
X109461180Y-71619619D01*
X109461180Y-71619619D02*
X109413561Y-71714857D01*
X109413561Y-71714857D02*
X109365942Y-71762476D01*
X109365942Y-71762476D02*
X109270704Y-71810095D01*
X109270704Y-71810095D02*
X109080228Y-71857714D01*
X109080228Y-71857714D02*
X108842133Y-71857714D01*
X108842133Y-71857714D02*
X108651657Y-71810095D01*
X108651657Y-71810095D02*
X108556419Y-71762476D01*
X108556419Y-71762476D02*
X108508800Y-71714857D01*
X108508800Y-71714857D02*
X108461180Y-71619619D01*
X108461180Y-71619619D02*
X108461180Y-71524381D01*
X108461180Y-71524381D02*
X108508800Y-71429143D01*
X108508800Y-71429143D02*
X108556419Y-71381524D01*
X108556419Y-71381524D02*
X108651657Y-71333905D01*
X108651657Y-71333905D02*
X108842133Y-71286286D01*
X108842133Y-71286286D02*
X109080228Y-71286286D01*
X109080228Y-71286286D02*
X109270704Y-71333905D01*
X109270704Y-71333905D02*
X109365942Y-71381524D01*
X109365942Y-71381524D02*
X109413561Y-71429143D01*
X109413561Y-71429143D02*
X109461180Y-71524381D01*
X146561180Y-118117523D02*
X146561180Y-117546095D01*
X146561180Y-117831809D02*
X147561180Y-117831809D01*
X147561180Y-117831809D02*
X147418323Y-117736571D01*
X147418323Y-117736571D02*
X147323085Y-117641333D01*
X147323085Y-117641333D02*
X147275466Y-117546095D01*
X147561180Y-119022285D02*
X147561180Y-118546095D01*
X147561180Y-118546095D02*
X147084990Y-118498476D01*
X147084990Y-118498476D02*
X147132609Y-118546095D01*
X147132609Y-118546095D02*
X147180228Y-118641333D01*
X147180228Y-118641333D02*
X147180228Y-118879428D01*
X147180228Y-118879428D02*
X147132609Y-118974666D01*
X147132609Y-118974666D02*
X147084990Y-119022285D01*
X147084990Y-119022285D02*
X146989752Y-119069904D01*
X146989752Y-119069904D02*
X146751657Y-119069904D01*
X146751657Y-119069904D02*
X146656419Y-119022285D01*
X146656419Y-119022285D02*
X146608800Y-118974666D01*
X146608800Y-118974666D02*
X146561180Y-118879428D01*
X146561180Y-118879428D02*
X146561180Y-118641333D01*
X146561180Y-118641333D02*
X146608800Y-118546095D01*
X146608800Y-118546095D02*
X146656419Y-118498476D01*
X109461180Y-118387381D02*
X109461180Y-118482619D01*
X109461180Y-118482619D02*
X109413561Y-118577857D01*
X109413561Y-118577857D02*
X109365942Y-118625476D01*
X109365942Y-118625476D02*
X109270704Y-118673095D01*
X109270704Y-118673095D02*
X109080228Y-118720714D01*
X109080228Y-118720714D02*
X108842133Y-118720714D01*
X108842133Y-118720714D02*
X108651657Y-118673095D01*
X108651657Y-118673095D02*
X108556419Y-118625476D01*
X108556419Y-118625476D02*
X108508800Y-118577857D01*
X108508800Y-118577857D02*
X108461180Y-118482619D01*
X108461180Y-118482619D02*
X108461180Y-118387381D01*
X108461180Y-118387381D02*
X108508800Y-118292143D01*
X108508800Y-118292143D02*
X108556419Y-118244524D01*
X108556419Y-118244524D02*
X108651657Y-118196905D01*
X108651657Y-118196905D02*
X108842133Y-118149286D01*
X108842133Y-118149286D02*
X109080228Y-118149286D01*
X109080228Y-118149286D02*
X109270704Y-118196905D01*
X109270704Y-118196905D02*
X109365942Y-118244524D01*
X109365942Y-118244524D02*
X109413561Y-118292143D01*
X109413561Y-118292143D02*
X109461180Y-118387381D01*
X142454819Y-114163220D02*
X141454819Y-114163220D01*
X141454819Y-114163220D02*
X141454819Y-113925125D01*
X141454819Y-113925125D02*
X141502438Y-113782268D01*
X141502438Y-113782268D02*
X141597676Y-113687030D01*
X141597676Y-113687030D02*
X141692914Y-113639411D01*
X141692914Y-113639411D02*
X141883390Y-113591792D01*
X141883390Y-113591792D02*
X142026247Y-113591792D01*
X142026247Y-113591792D02*
X142216723Y-113639411D01*
X142216723Y-113639411D02*
X142311961Y-113687030D01*
X142311961Y-113687030D02*
X142407200Y-113782268D01*
X142407200Y-113782268D02*
X142454819Y-113925125D01*
X142454819Y-113925125D02*
X142454819Y-114163220D01*
X142454819Y-113163220D02*
X141454819Y-113163220D01*
X141454819Y-112496554D02*
X141454819Y-112306078D01*
X141454819Y-112306078D02*
X141502438Y-112210840D01*
X141502438Y-112210840D02*
X141597676Y-112115602D01*
X141597676Y-112115602D02*
X141788152Y-112067983D01*
X141788152Y-112067983D02*
X142121485Y-112067983D01*
X142121485Y-112067983D02*
X142311961Y-112115602D01*
X142311961Y-112115602D02*
X142407200Y-112210840D01*
X142407200Y-112210840D02*
X142454819Y-112306078D01*
X142454819Y-112306078D02*
X142454819Y-112496554D01*
X142454819Y-112496554D02*
X142407200Y-112591792D01*
X142407200Y-112591792D02*
X142311961Y-112687030D01*
X142311961Y-112687030D02*
X142121485Y-112734649D01*
X142121485Y-112734649D02*
X141788152Y-112734649D01*
X141788152Y-112734649D02*
X141597676Y-112687030D01*
X141597676Y-112687030D02*
X141502438Y-112591792D01*
X141502438Y-112591792D02*
X141454819Y-112496554D01*
X122070819Y-71738666D02*
X122070819Y-72214856D01*
X122070819Y-72214856D02*
X121070819Y-72214856D01*
X122070819Y-70881523D02*
X122070819Y-71452951D01*
X122070819Y-71167237D02*
X121070819Y-71167237D01*
X121070819Y-71167237D02*
X121213676Y-71262475D01*
X121213676Y-71262475D02*
X121308914Y-71357713D01*
X121308914Y-71357713D02*
X121356533Y-71452951D01*
X116244819Y-72381523D02*
X116244819Y-71810095D01*
X117244819Y-72095809D02*
X116244819Y-72095809D01*
X116244819Y-71286285D02*
X116244819Y-71095809D01*
X116244819Y-71095809D02*
X116292438Y-71000571D01*
X116292438Y-71000571D02*
X116387676Y-70905333D01*
X116387676Y-70905333D02*
X116578152Y-70857714D01*
X116578152Y-70857714D02*
X116911485Y-70857714D01*
X116911485Y-70857714D02*
X117101961Y-70905333D01*
X117101961Y-70905333D02*
X117197200Y-71000571D01*
X117197200Y-71000571D02*
X117244819Y-71095809D01*
X117244819Y-71095809D02*
X117244819Y-71286285D01*
X117244819Y-71286285D02*
X117197200Y-71381523D01*
X117197200Y-71381523D02*
X117101961Y-71476761D01*
X117101961Y-71476761D02*
X116911485Y-71524380D01*
X116911485Y-71524380D02*
X116578152Y-71524380D01*
X116578152Y-71524380D02*
X116387676Y-71476761D01*
X116387676Y-71476761D02*
X116292438Y-71381523D01*
X116292438Y-71381523D02*
X116244819Y-71286285D01*
X127204095Y-71772819D02*
X127204095Y-70772819D01*
X127204095Y-70772819D02*
X127585047Y-70772819D01*
X127585047Y-70772819D02*
X127680285Y-70820438D01*
X127680285Y-70820438D02*
X127727904Y-70868057D01*
X127727904Y-70868057D02*
X127775523Y-70963295D01*
X127775523Y-70963295D02*
X127775523Y-71106152D01*
X127775523Y-71106152D02*
X127727904Y-71201390D01*
X127727904Y-71201390D02*
X127680285Y-71249009D01*
X127680285Y-71249009D02*
X127585047Y-71296628D01*
X127585047Y-71296628D02*
X127204095Y-71296628D01*
X128537428Y-71249009D02*
X128680285Y-71296628D01*
X128680285Y-71296628D02*
X128727904Y-71344247D01*
X128727904Y-71344247D02*
X128775523Y-71439485D01*
X128775523Y-71439485D02*
X128775523Y-71582342D01*
X128775523Y-71582342D02*
X128727904Y-71677580D01*
X128727904Y-71677580D02*
X128680285Y-71725200D01*
X128680285Y-71725200D02*
X128585047Y-71772819D01*
X128585047Y-71772819D02*
X128204095Y-71772819D01*
X128204095Y-71772819D02*
X128204095Y-70772819D01*
X128204095Y-70772819D02*
X128537428Y-70772819D01*
X128537428Y-70772819D02*
X128632666Y-70820438D01*
X128632666Y-70820438D02*
X128680285Y-70868057D01*
X128680285Y-70868057D02*
X128727904Y-70963295D01*
X128727904Y-70963295D02*
X128727904Y-71058533D01*
X128727904Y-71058533D02*
X128680285Y-71153771D01*
X128680285Y-71153771D02*
X128632666Y-71201390D01*
X128632666Y-71201390D02*
X128537428Y-71249009D01*
X128537428Y-71249009D02*
X128204095Y-71249009D01*
X127275524Y-118762819D02*
X127275524Y-117762819D01*
X127275524Y-117762819D02*
X127656476Y-117762819D01*
X127656476Y-117762819D02*
X127751714Y-117810438D01*
X127751714Y-117810438D02*
X127799333Y-117858057D01*
X127799333Y-117858057D02*
X127846952Y-117953295D01*
X127846952Y-117953295D02*
X127846952Y-118096152D01*
X127846952Y-118096152D02*
X127799333Y-118191390D01*
X127799333Y-118191390D02*
X127751714Y-118239009D01*
X127751714Y-118239009D02*
X127656476Y-118286628D01*
X127656476Y-118286628D02*
X127275524Y-118286628D01*
X128227905Y-118477104D02*
X128704095Y-118477104D01*
X128132667Y-118762819D02*
X128466000Y-117762819D01*
X128466000Y-117762819D02*
X128799333Y-118762819D01*
X157570953Y-103389200D02*
X157713810Y-103436819D01*
X157713810Y-103436819D02*
X157951905Y-103436819D01*
X157951905Y-103436819D02*
X158047143Y-103389200D01*
X158047143Y-103389200D02*
X158094762Y-103341580D01*
X158094762Y-103341580D02*
X158142381Y-103246342D01*
X158142381Y-103246342D02*
X158142381Y-103151104D01*
X158142381Y-103151104D02*
X158094762Y-103055866D01*
X158094762Y-103055866D02*
X158047143Y-103008247D01*
X158047143Y-103008247D02*
X157951905Y-102960628D01*
X157951905Y-102960628D02*
X157761429Y-102913009D01*
X157761429Y-102913009D02*
X157666191Y-102865390D01*
X157666191Y-102865390D02*
X157618572Y-102817771D01*
X157618572Y-102817771D02*
X157570953Y-102722533D01*
X157570953Y-102722533D02*
X157570953Y-102627295D01*
X157570953Y-102627295D02*
X157618572Y-102532057D01*
X157618572Y-102532057D02*
X157666191Y-102484438D01*
X157666191Y-102484438D02*
X157761429Y-102436819D01*
X157761429Y-102436819D02*
X157999524Y-102436819D01*
X157999524Y-102436819D02*
X158142381Y-102484438D01*
X158475715Y-102436819D02*
X158713810Y-103436819D01*
X158713810Y-103436819D02*
X158904286Y-102722533D01*
X158904286Y-102722533D02*
X159094762Y-103436819D01*
X159094762Y-103436819D02*
X159332858Y-102436819D01*
X159713810Y-103436819D02*
X159713810Y-102436819D01*
X159713810Y-102436819D02*
X159951905Y-102436819D01*
X159951905Y-102436819D02*
X160094762Y-102484438D01*
X160094762Y-102484438D02*
X160190000Y-102579676D01*
X160190000Y-102579676D02*
X160237619Y-102674914D01*
X160237619Y-102674914D02*
X160285238Y-102865390D01*
X160285238Y-102865390D02*
X160285238Y-103008247D01*
X160285238Y-103008247D02*
X160237619Y-103198723D01*
X160237619Y-103198723D02*
X160190000Y-103293961D01*
X160190000Y-103293961D02*
X160094762Y-103389200D01*
X160094762Y-103389200D02*
X159951905Y-103436819D01*
X159951905Y-103436819D02*
X159713810Y-103436819D01*
X160713810Y-103436819D02*
X160713810Y-102436819D01*
X161380476Y-102436819D02*
X161570952Y-102436819D01*
X161570952Y-102436819D02*
X161666190Y-102484438D01*
X161666190Y-102484438D02*
X161761428Y-102579676D01*
X161761428Y-102579676D02*
X161809047Y-102770152D01*
X161809047Y-102770152D02*
X161809047Y-103103485D01*
X161809047Y-103103485D02*
X161761428Y-103293961D01*
X161761428Y-103293961D02*
X161666190Y-103389200D01*
X161666190Y-103389200D02*
X161570952Y-103436819D01*
X161570952Y-103436819D02*
X161380476Y-103436819D01*
X161380476Y-103436819D02*
X161285238Y-103389200D01*
X161285238Y-103389200D02*
X161190000Y-103293961D01*
X161190000Y-103293961D02*
X161142381Y-103103485D01*
X161142381Y-103103485D02*
X161142381Y-102770152D01*
X161142381Y-102770152D02*
X161190000Y-102579676D01*
X161190000Y-102579676D02*
X161285238Y-102484438D01*
X161285238Y-102484438D02*
X161380476Y-102436819D01*
X156420095Y-98309200D02*
X156562952Y-98356819D01*
X156562952Y-98356819D02*
X156801047Y-98356819D01*
X156801047Y-98356819D02*
X156896285Y-98309200D01*
X156896285Y-98309200D02*
X156943904Y-98261580D01*
X156943904Y-98261580D02*
X156991523Y-98166342D01*
X156991523Y-98166342D02*
X156991523Y-98071104D01*
X156991523Y-98071104D02*
X156943904Y-97975866D01*
X156943904Y-97975866D02*
X156896285Y-97928247D01*
X156896285Y-97928247D02*
X156801047Y-97880628D01*
X156801047Y-97880628D02*
X156610571Y-97833009D01*
X156610571Y-97833009D02*
X156515333Y-97785390D01*
X156515333Y-97785390D02*
X156467714Y-97737771D01*
X156467714Y-97737771D02*
X156420095Y-97642533D01*
X156420095Y-97642533D02*
X156420095Y-97547295D01*
X156420095Y-97547295D02*
X156467714Y-97452057D01*
X156467714Y-97452057D02*
X156515333Y-97404438D01*
X156515333Y-97404438D02*
X156610571Y-97356819D01*
X156610571Y-97356819D02*
X156848666Y-97356819D01*
X156848666Y-97356819D02*
X156991523Y-97404438D01*
X157324857Y-97356819D02*
X157562952Y-98356819D01*
X157562952Y-98356819D02*
X157753428Y-97642533D01*
X157753428Y-97642533D02*
X157943904Y-98356819D01*
X157943904Y-98356819D02*
X158182000Y-97356819D01*
X158562952Y-98356819D02*
X158562952Y-97356819D01*
X158562952Y-97356819D02*
X158801047Y-97356819D01*
X158801047Y-97356819D02*
X158943904Y-97404438D01*
X158943904Y-97404438D02*
X159039142Y-97499676D01*
X159039142Y-97499676D02*
X159086761Y-97594914D01*
X159086761Y-97594914D02*
X159134380Y-97785390D01*
X159134380Y-97785390D02*
X159134380Y-97928247D01*
X159134380Y-97928247D02*
X159086761Y-98118723D01*
X159086761Y-98118723D02*
X159039142Y-98213961D01*
X159039142Y-98213961D02*
X158943904Y-98309200D01*
X158943904Y-98309200D02*
X158801047Y-98356819D01*
X158801047Y-98356819D02*
X158562952Y-98356819D01*
X160134380Y-98261580D02*
X160086761Y-98309200D01*
X160086761Y-98309200D02*
X159943904Y-98356819D01*
X159943904Y-98356819D02*
X159848666Y-98356819D01*
X159848666Y-98356819D02*
X159705809Y-98309200D01*
X159705809Y-98309200D02*
X159610571Y-98213961D01*
X159610571Y-98213961D02*
X159562952Y-98118723D01*
X159562952Y-98118723D02*
X159515333Y-97928247D01*
X159515333Y-97928247D02*
X159515333Y-97785390D01*
X159515333Y-97785390D02*
X159562952Y-97594914D01*
X159562952Y-97594914D02*
X159610571Y-97499676D01*
X159610571Y-97499676D02*
X159705809Y-97404438D01*
X159705809Y-97404438D02*
X159848666Y-97356819D01*
X159848666Y-97356819D02*
X159943904Y-97356819D01*
X159943904Y-97356819D02*
X160086761Y-97404438D01*
X160086761Y-97404438D02*
X160134380Y-97452057D01*
X161039142Y-98356819D02*
X160562952Y-98356819D01*
X160562952Y-98356819D02*
X160562952Y-97356819D01*
X161372476Y-98356819D02*
X161372476Y-97356819D01*
X161943904Y-98356819D02*
X161515333Y-97785390D01*
X161943904Y-97356819D02*
X161372476Y-97928247D01*
X158817048Y-108723200D02*
X158959905Y-108770819D01*
X158959905Y-108770819D02*
X159198000Y-108770819D01*
X159198000Y-108770819D02*
X159293238Y-108723200D01*
X159293238Y-108723200D02*
X159340857Y-108675580D01*
X159340857Y-108675580D02*
X159388476Y-108580342D01*
X159388476Y-108580342D02*
X159388476Y-108485104D01*
X159388476Y-108485104D02*
X159340857Y-108389866D01*
X159340857Y-108389866D02*
X159293238Y-108342247D01*
X159293238Y-108342247D02*
X159198000Y-108294628D01*
X159198000Y-108294628D02*
X159007524Y-108247009D01*
X159007524Y-108247009D02*
X158912286Y-108199390D01*
X158912286Y-108199390D02*
X158864667Y-108151771D01*
X158864667Y-108151771D02*
X158817048Y-108056533D01*
X158817048Y-108056533D02*
X158817048Y-107961295D01*
X158817048Y-107961295D02*
X158864667Y-107866057D01*
X158864667Y-107866057D02*
X158912286Y-107818438D01*
X158912286Y-107818438D02*
X159007524Y-107770819D01*
X159007524Y-107770819D02*
X159245619Y-107770819D01*
X159245619Y-107770819D02*
X159388476Y-107818438D01*
X159721810Y-107770819D02*
X159959905Y-108770819D01*
X159959905Y-108770819D02*
X160150381Y-108056533D01*
X160150381Y-108056533D02*
X160340857Y-108770819D01*
X160340857Y-108770819D02*
X160578953Y-107770819D01*
X161150381Y-107770819D02*
X161340857Y-107770819D01*
X161340857Y-107770819D02*
X161436095Y-107818438D01*
X161436095Y-107818438D02*
X161531333Y-107913676D01*
X161531333Y-107913676D02*
X161578952Y-108104152D01*
X161578952Y-108104152D02*
X161578952Y-108437485D01*
X161578952Y-108437485D02*
X161531333Y-108627961D01*
X161531333Y-108627961D02*
X161436095Y-108723200D01*
X161436095Y-108723200D02*
X161340857Y-108770819D01*
X161340857Y-108770819D02*
X161150381Y-108770819D01*
X161150381Y-108770819D02*
X161055143Y-108723200D01*
X161055143Y-108723200D02*
X160959905Y-108627961D01*
X160959905Y-108627961D02*
X160912286Y-108437485D01*
X160912286Y-108437485D02*
X160912286Y-108104152D01*
X160912286Y-108104152D02*
X160959905Y-107913676D01*
X160959905Y-107913676D02*
X161055143Y-107818438D01*
X161055143Y-107818438D02*
X161150381Y-107770819D01*
X159396380Y-105976819D02*
X159063047Y-105500628D01*
X158824952Y-105976819D02*
X158824952Y-104976819D01*
X158824952Y-104976819D02*
X159205904Y-104976819D01*
X159205904Y-104976819D02*
X159301142Y-105024438D01*
X159301142Y-105024438D02*
X159348761Y-105072057D01*
X159348761Y-105072057D02*
X159396380Y-105167295D01*
X159396380Y-105167295D02*
X159396380Y-105310152D01*
X159396380Y-105310152D02*
X159348761Y-105405390D01*
X159348761Y-105405390D02*
X159301142Y-105453009D01*
X159301142Y-105453009D02*
X159205904Y-105500628D01*
X159205904Y-105500628D02*
X158824952Y-105500628D01*
X159777333Y-105929200D02*
X159920190Y-105976819D01*
X159920190Y-105976819D02*
X160158285Y-105976819D01*
X160158285Y-105976819D02*
X160253523Y-105929200D01*
X160253523Y-105929200D02*
X160301142Y-105881580D01*
X160301142Y-105881580D02*
X160348761Y-105786342D01*
X160348761Y-105786342D02*
X160348761Y-105691104D01*
X160348761Y-105691104D02*
X160301142Y-105595866D01*
X160301142Y-105595866D02*
X160253523Y-105548247D01*
X160253523Y-105548247D02*
X160158285Y-105500628D01*
X160158285Y-105500628D02*
X159967809Y-105453009D01*
X159967809Y-105453009D02*
X159872571Y-105405390D01*
X159872571Y-105405390D02*
X159824952Y-105357771D01*
X159824952Y-105357771D02*
X159777333Y-105262533D01*
X159777333Y-105262533D02*
X159777333Y-105167295D01*
X159777333Y-105167295D02*
X159824952Y-105072057D01*
X159824952Y-105072057D02*
X159872571Y-105024438D01*
X159872571Y-105024438D02*
X159967809Y-104976819D01*
X159967809Y-104976819D02*
X160205904Y-104976819D01*
X160205904Y-104976819D02*
X160348761Y-105024438D01*
X160634476Y-104976819D02*
X161205904Y-104976819D01*
X160920190Y-105976819D02*
X160920190Y-104976819D01*
D11*
X152793928Y-79084976D02*
X152222500Y-79084976D01*
X152222500Y-79084976D02*
X152165357Y-79656405D01*
X152165357Y-79656405D02*
X152222500Y-79599262D01*
X152222500Y-79599262D02*
X152336786Y-79542119D01*
X152336786Y-79542119D02*
X152622500Y-79542119D01*
X152622500Y-79542119D02*
X152736786Y-79599262D01*
X152736786Y-79599262D02*
X152793928Y-79656405D01*
X152793928Y-79656405D02*
X152851071Y-79770691D01*
X152851071Y-79770691D02*
X152851071Y-80056405D01*
X152851071Y-80056405D02*
X152793928Y-80170691D01*
X152793928Y-80170691D02*
X152736786Y-80227834D01*
X152736786Y-80227834D02*
X152622500Y-80284976D01*
X152622500Y-80284976D02*
X152336786Y-80284976D01*
X152336786Y-80284976D02*
X152222500Y-80227834D01*
X152222500Y-80227834D02*
X152165357Y-80170691D01*
X153193928Y-79084976D02*
X153593928Y-80284976D01*
X153593928Y-80284976D02*
X153993928Y-79084976D01*
X152108214Y-81074052D02*
X151993929Y-81016909D01*
X151993929Y-81016909D02*
X151822500Y-81016909D01*
X151822500Y-81016909D02*
X151651071Y-81074052D01*
X151651071Y-81074052D02*
X151536786Y-81188338D01*
X151536786Y-81188338D02*
X151479643Y-81302624D01*
X151479643Y-81302624D02*
X151422500Y-81531195D01*
X151422500Y-81531195D02*
X151422500Y-81702624D01*
X151422500Y-81702624D02*
X151479643Y-81931195D01*
X151479643Y-81931195D02*
X151536786Y-82045481D01*
X151536786Y-82045481D02*
X151651071Y-82159767D01*
X151651071Y-82159767D02*
X151822500Y-82216909D01*
X151822500Y-82216909D02*
X151936786Y-82216909D01*
X151936786Y-82216909D02*
X152108214Y-82159767D01*
X152108214Y-82159767D02*
X152165357Y-82102624D01*
X152165357Y-82102624D02*
X152165357Y-81702624D01*
X152165357Y-81702624D02*
X151936786Y-81702624D01*
X152679643Y-82216909D02*
X152679643Y-81016909D01*
X152679643Y-81016909D02*
X153365357Y-82216909D01*
X153365357Y-82216909D02*
X153365357Y-81016909D01*
X153936786Y-82216909D02*
X153936786Y-81016909D01*
X153936786Y-81016909D02*
X154222500Y-81016909D01*
X154222500Y-81016909D02*
X154393929Y-81074052D01*
X154393929Y-81074052D02*
X154508214Y-81188338D01*
X154508214Y-81188338D02*
X154565357Y-81302624D01*
X154565357Y-81302624D02*
X154622500Y-81531195D01*
X154622500Y-81531195D02*
X154622500Y-81702624D01*
X154622500Y-81702624D02*
X154565357Y-81931195D01*
X154565357Y-81931195D02*
X154508214Y-82045481D01*
X154508214Y-82045481D02*
X154393929Y-82159767D01*
X154393929Y-82159767D02*
X154222500Y-82216909D01*
X154222500Y-82216909D02*
X153936786Y-82216909D01*
D10*
X113454819Y-113806077D02*
X113454819Y-113234649D01*
X114454819Y-113520363D02*
X113454819Y-113520363D01*
X114454819Y-112996553D02*
X113788152Y-112472744D01*
X113788152Y-112996553D02*
X114454819Y-112472744D01*
X116954819Y-113091792D02*
X116478628Y-113425125D01*
X116954819Y-113663220D02*
X115954819Y-113663220D01*
X115954819Y-113663220D02*
X115954819Y-113282268D01*
X115954819Y-113282268D02*
X116002438Y-113187030D01*
X116002438Y-113187030D02*
X116050057Y-113139411D01*
X116050057Y-113139411D02*
X116145295Y-113091792D01*
X116145295Y-113091792D02*
X116288152Y-113091792D01*
X116288152Y-113091792D02*
X116383390Y-113139411D01*
X116383390Y-113139411D02*
X116431009Y-113187030D01*
X116431009Y-113187030D02*
X116478628Y-113282268D01*
X116478628Y-113282268D02*
X116478628Y-113663220D01*
X116954819Y-112758458D02*
X116288152Y-112234649D01*
X116288152Y-112758458D02*
X116954819Y-112234649D01*
X131907200Y-114210839D02*
X131954819Y-114067982D01*
X131954819Y-114067982D02*
X131954819Y-113829887D01*
X131954819Y-113829887D02*
X131907200Y-113734649D01*
X131907200Y-113734649D02*
X131859580Y-113687030D01*
X131859580Y-113687030D02*
X131764342Y-113639411D01*
X131764342Y-113639411D02*
X131669104Y-113639411D01*
X131669104Y-113639411D02*
X131573866Y-113687030D01*
X131573866Y-113687030D02*
X131526247Y-113734649D01*
X131526247Y-113734649D02*
X131478628Y-113829887D01*
X131478628Y-113829887D02*
X131431009Y-114020363D01*
X131431009Y-114020363D02*
X131383390Y-114115601D01*
X131383390Y-114115601D02*
X131335771Y-114163220D01*
X131335771Y-114163220D02*
X131240533Y-114210839D01*
X131240533Y-114210839D02*
X131145295Y-114210839D01*
X131145295Y-114210839D02*
X131050057Y-114163220D01*
X131050057Y-114163220D02*
X131002438Y-114115601D01*
X131002438Y-114115601D02*
X130954819Y-114020363D01*
X130954819Y-114020363D02*
X130954819Y-113782268D01*
X130954819Y-113782268D02*
X131002438Y-113639411D01*
X131859580Y-112639411D02*
X131907200Y-112687030D01*
X131907200Y-112687030D02*
X131954819Y-112829887D01*
X131954819Y-112829887D02*
X131954819Y-112925125D01*
X131954819Y-112925125D02*
X131907200Y-113067982D01*
X131907200Y-113067982D02*
X131811961Y-113163220D01*
X131811961Y-113163220D02*
X131716723Y-113210839D01*
X131716723Y-113210839D02*
X131526247Y-113258458D01*
X131526247Y-113258458D02*
X131383390Y-113258458D01*
X131383390Y-113258458D02*
X131192914Y-113210839D01*
X131192914Y-113210839D02*
X131097676Y-113163220D01*
X131097676Y-113163220D02*
X131002438Y-113067982D01*
X131002438Y-113067982D02*
X130954819Y-112925125D01*
X130954819Y-112925125D02*
X130954819Y-112829887D01*
X130954819Y-112829887D02*
X131002438Y-112687030D01*
X131002438Y-112687030D02*
X131050057Y-112639411D01*
X131954819Y-111734649D02*
X131954819Y-112210839D01*
X131954819Y-112210839D02*
X130954819Y-112210839D01*
X134407200Y-114210839D02*
X134454819Y-114067982D01*
X134454819Y-114067982D02*
X134454819Y-113829887D01*
X134454819Y-113829887D02*
X134407200Y-113734649D01*
X134407200Y-113734649D02*
X134359580Y-113687030D01*
X134359580Y-113687030D02*
X134264342Y-113639411D01*
X134264342Y-113639411D02*
X134169104Y-113639411D01*
X134169104Y-113639411D02*
X134073866Y-113687030D01*
X134073866Y-113687030D02*
X134026247Y-113734649D01*
X134026247Y-113734649D02*
X133978628Y-113829887D01*
X133978628Y-113829887D02*
X133931009Y-114020363D01*
X133931009Y-114020363D02*
X133883390Y-114115601D01*
X133883390Y-114115601D02*
X133835771Y-114163220D01*
X133835771Y-114163220D02*
X133740533Y-114210839D01*
X133740533Y-114210839D02*
X133645295Y-114210839D01*
X133645295Y-114210839D02*
X133550057Y-114163220D01*
X133550057Y-114163220D02*
X133502438Y-114115601D01*
X133502438Y-114115601D02*
X133454819Y-114020363D01*
X133454819Y-114020363D02*
X133454819Y-113782268D01*
X133454819Y-113782268D02*
X133502438Y-113639411D01*
X134454819Y-113210839D02*
X133454819Y-113210839D01*
X133454819Y-113210839D02*
X133454819Y-112972744D01*
X133454819Y-112972744D02*
X133502438Y-112829887D01*
X133502438Y-112829887D02*
X133597676Y-112734649D01*
X133597676Y-112734649D02*
X133692914Y-112687030D01*
X133692914Y-112687030D02*
X133883390Y-112639411D01*
X133883390Y-112639411D02*
X134026247Y-112639411D01*
X134026247Y-112639411D02*
X134216723Y-112687030D01*
X134216723Y-112687030D02*
X134311961Y-112734649D01*
X134311961Y-112734649D02*
X134407200Y-112829887D01*
X134407200Y-112829887D02*
X134454819Y-112972744D01*
X134454819Y-112972744D02*
X134454819Y-113210839D01*
X134169104Y-112258458D02*
X134169104Y-111782268D01*
X134454819Y-112353696D02*
X133454819Y-112020363D01*
X133454819Y-112020363D02*
X134454819Y-111687030D01*
X124454819Y-114163220D02*
X123454819Y-114163220D01*
X123454819Y-114163220D02*
X124169104Y-113829887D01*
X124169104Y-113829887D02*
X123454819Y-113496554D01*
X123454819Y-113496554D02*
X124454819Y-113496554D01*
X124454819Y-113020363D02*
X123454819Y-113020363D01*
X124407200Y-112591792D02*
X124454819Y-112448935D01*
X124454819Y-112448935D02*
X124454819Y-112210840D01*
X124454819Y-112210840D02*
X124407200Y-112115602D01*
X124407200Y-112115602D02*
X124359580Y-112067983D01*
X124359580Y-112067983D02*
X124264342Y-112020364D01*
X124264342Y-112020364D02*
X124169104Y-112020364D01*
X124169104Y-112020364D02*
X124073866Y-112067983D01*
X124073866Y-112067983D02*
X124026247Y-112115602D01*
X124026247Y-112115602D02*
X123978628Y-112210840D01*
X123978628Y-112210840D02*
X123931009Y-112401316D01*
X123931009Y-112401316D02*
X123883390Y-112496554D01*
X123883390Y-112496554D02*
X123835771Y-112544173D01*
X123835771Y-112544173D02*
X123740533Y-112591792D01*
X123740533Y-112591792D02*
X123645295Y-112591792D01*
X123645295Y-112591792D02*
X123550057Y-112544173D01*
X123550057Y-112544173D02*
X123502438Y-112496554D01*
X123502438Y-112496554D02*
X123454819Y-112401316D01*
X123454819Y-112401316D02*
X123454819Y-112163221D01*
X123454819Y-112163221D02*
X123502438Y-112020364D01*
X123454819Y-111401316D02*
X123454819Y-111210840D01*
X123454819Y-111210840D02*
X123502438Y-111115602D01*
X123502438Y-111115602D02*
X123597676Y-111020364D01*
X123597676Y-111020364D02*
X123788152Y-110972745D01*
X123788152Y-110972745D02*
X124121485Y-110972745D01*
X124121485Y-110972745D02*
X124311961Y-111020364D01*
X124311961Y-111020364D02*
X124407200Y-111115602D01*
X124407200Y-111115602D02*
X124454819Y-111210840D01*
X124454819Y-111210840D02*
X124454819Y-111401316D01*
X124454819Y-111401316D02*
X124407200Y-111496554D01*
X124407200Y-111496554D02*
X124311961Y-111591792D01*
X124311961Y-111591792D02*
X124121485Y-111639411D01*
X124121485Y-111639411D02*
X123788152Y-111639411D01*
X123788152Y-111639411D02*
X123597676Y-111591792D01*
X123597676Y-111591792D02*
X123502438Y-111496554D01*
X123502438Y-111496554D02*
X123454819Y-111401316D01*
X126954819Y-114163220D02*
X125954819Y-114163220D01*
X125954819Y-114163220D02*
X126669104Y-113829887D01*
X126669104Y-113829887D02*
X125954819Y-113496554D01*
X125954819Y-113496554D02*
X126954819Y-113496554D01*
X125954819Y-112829887D02*
X125954819Y-112639411D01*
X125954819Y-112639411D02*
X126002438Y-112544173D01*
X126002438Y-112544173D02*
X126097676Y-112448935D01*
X126097676Y-112448935D02*
X126288152Y-112401316D01*
X126288152Y-112401316D02*
X126621485Y-112401316D01*
X126621485Y-112401316D02*
X126811961Y-112448935D01*
X126811961Y-112448935D02*
X126907200Y-112544173D01*
X126907200Y-112544173D02*
X126954819Y-112639411D01*
X126954819Y-112639411D02*
X126954819Y-112829887D01*
X126954819Y-112829887D02*
X126907200Y-112925125D01*
X126907200Y-112925125D02*
X126811961Y-113020363D01*
X126811961Y-113020363D02*
X126621485Y-113067982D01*
X126621485Y-113067982D02*
X126288152Y-113067982D01*
X126288152Y-113067982D02*
X126097676Y-113020363D01*
X126097676Y-113020363D02*
X126002438Y-112925125D01*
X126002438Y-112925125D02*
X125954819Y-112829887D01*
X126907200Y-112020363D02*
X126954819Y-111877506D01*
X126954819Y-111877506D02*
X126954819Y-111639411D01*
X126954819Y-111639411D02*
X126907200Y-111544173D01*
X126907200Y-111544173D02*
X126859580Y-111496554D01*
X126859580Y-111496554D02*
X126764342Y-111448935D01*
X126764342Y-111448935D02*
X126669104Y-111448935D01*
X126669104Y-111448935D02*
X126573866Y-111496554D01*
X126573866Y-111496554D02*
X126526247Y-111544173D01*
X126526247Y-111544173D02*
X126478628Y-111639411D01*
X126478628Y-111639411D02*
X126431009Y-111829887D01*
X126431009Y-111829887D02*
X126383390Y-111925125D01*
X126383390Y-111925125D02*
X126335771Y-111972744D01*
X126335771Y-111972744D02*
X126240533Y-112020363D01*
X126240533Y-112020363D02*
X126145295Y-112020363D01*
X126145295Y-112020363D02*
X126050057Y-111972744D01*
X126050057Y-111972744D02*
X126002438Y-111925125D01*
X126002438Y-111925125D02*
X125954819Y-111829887D01*
X125954819Y-111829887D02*
X125954819Y-111591792D01*
X125954819Y-111591792D02*
X126002438Y-111448935D01*
X126954819Y-111020363D02*
X125954819Y-111020363D01*
X147309524Y-70954819D02*
X147880952Y-70954819D01*
X147595238Y-71954819D02*
X147595238Y-70954819D01*
X148119048Y-71954819D02*
X148642857Y-71288152D01*
X148119048Y-71288152D02*
X148642857Y-71954819D01*
X143596866Y-96050999D02*
X143596866Y-95289095D01*
X142977819Y-94908142D02*
X142977819Y-94289095D01*
X142977819Y-94289095D02*
X143358771Y-94622428D01*
X143358771Y-94622428D02*
X143358771Y-94479571D01*
X143358771Y-94479571D02*
X143406390Y-94384333D01*
X143406390Y-94384333D02*
X143454009Y-94336714D01*
X143454009Y-94336714D02*
X143549247Y-94289095D01*
X143549247Y-94289095D02*
X143787342Y-94289095D01*
X143787342Y-94289095D02*
X143882580Y-94336714D01*
X143882580Y-94336714D02*
X143930200Y-94384333D01*
X143930200Y-94384333D02*
X143977819Y-94479571D01*
X143977819Y-94479571D02*
X143977819Y-94765285D01*
X143977819Y-94765285D02*
X143930200Y-94860523D01*
X143930200Y-94860523D02*
X143882580Y-94908142D01*
X143882580Y-93860523D02*
X143930200Y-93812904D01*
X143930200Y-93812904D02*
X143977819Y-93860523D01*
X143977819Y-93860523D02*
X143930200Y-93908142D01*
X143930200Y-93908142D02*
X143882580Y-93860523D01*
X143882580Y-93860523D02*
X143977819Y-93860523D01*
X142977819Y-93479571D02*
X142977819Y-92860524D01*
X142977819Y-92860524D02*
X143358771Y-93193857D01*
X143358771Y-93193857D02*
X143358771Y-93051000D01*
X143358771Y-93051000D02*
X143406390Y-92955762D01*
X143406390Y-92955762D02*
X143454009Y-92908143D01*
X143454009Y-92908143D02*
X143549247Y-92860524D01*
X143549247Y-92860524D02*
X143787342Y-92860524D01*
X143787342Y-92860524D02*
X143882580Y-92908143D01*
X143882580Y-92908143D02*
X143930200Y-92955762D01*
X143930200Y-92955762D02*
X143977819Y-93051000D01*
X143977819Y-93051000D02*
X143977819Y-93336714D01*
X143977819Y-93336714D02*
X143930200Y-93431952D01*
X143930200Y-93431952D02*
X143882580Y-93479571D01*
X142977819Y-92574809D02*
X143977819Y-92241476D01*
X143977819Y-92241476D02*
X142977819Y-91908143D01*
X147454819Y-114163220D02*
X146454819Y-114163220D01*
X146454819Y-114163220D02*
X147454819Y-113591792D01*
X147454819Y-113591792D02*
X146454819Y-113591792D01*
X147407200Y-113163220D02*
X147454819Y-113020363D01*
X147454819Y-113020363D02*
X147454819Y-112782268D01*
X147454819Y-112782268D02*
X147407200Y-112687030D01*
X147407200Y-112687030D02*
X147359580Y-112639411D01*
X147359580Y-112639411D02*
X147264342Y-112591792D01*
X147264342Y-112591792D02*
X147169104Y-112591792D01*
X147169104Y-112591792D02*
X147073866Y-112639411D01*
X147073866Y-112639411D02*
X147026247Y-112687030D01*
X147026247Y-112687030D02*
X146978628Y-112782268D01*
X146978628Y-112782268D02*
X146931009Y-112972744D01*
X146931009Y-112972744D02*
X146883390Y-113067982D01*
X146883390Y-113067982D02*
X146835771Y-113115601D01*
X146835771Y-113115601D02*
X146740533Y-113163220D01*
X146740533Y-113163220D02*
X146645295Y-113163220D01*
X146645295Y-113163220D02*
X146550057Y-113115601D01*
X146550057Y-113115601D02*
X146502438Y-113067982D01*
X146502438Y-113067982D02*
X146454819Y-112972744D01*
X146454819Y-112972744D02*
X146454819Y-112734649D01*
X146454819Y-112734649D02*
X146502438Y-112591792D01*
X147407200Y-112210839D02*
X147454819Y-112067982D01*
X147454819Y-112067982D02*
X147454819Y-111829887D01*
X147454819Y-111829887D02*
X147407200Y-111734649D01*
X147407200Y-111734649D02*
X147359580Y-111687030D01*
X147359580Y-111687030D02*
X147264342Y-111639411D01*
X147264342Y-111639411D02*
X147169104Y-111639411D01*
X147169104Y-111639411D02*
X147073866Y-111687030D01*
X147073866Y-111687030D02*
X147026247Y-111734649D01*
X147026247Y-111734649D02*
X146978628Y-111829887D01*
X146978628Y-111829887D02*
X146931009Y-112020363D01*
X146931009Y-112020363D02*
X146883390Y-112115601D01*
X146883390Y-112115601D02*
X146835771Y-112163220D01*
X146835771Y-112163220D02*
X146740533Y-112210839D01*
X146740533Y-112210839D02*
X146645295Y-112210839D01*
X146645295Y-112210839D02*
X146550057Y-112163220D01*
X146550057Y-112163220D02*
X146502438Y-112115601D01*
X146502438Y-112115601D02*
X146454819Y-112020363D01*
X146454819Y-112020363D02*
X146454819Y-111782268D01*
X146454819Y-111782268D02*
X146502438Y-111639411D01*
X111954819Y-113547619D02*
X111478628Y-113880952D01*
X111954819Y-114119047D02*
X110954819Y-114119047D01*
X110954819Y-114119047D02*
X110954819Y-113738095D01*
X110954819Y-113738095D02*
X111002438Y-113642857D01*
X111002438Y-113642857D02*
X111050057Y-113595238D01*
X111050057Y-113595238D02*
X111145295Y-113547619D01*
X111145295Y-113547619D02*
X111288152Y-113547619D01*
X111288152Y-113547619D02*
X111383390Y-113595238D01*
X111383390Y-113595238D02*
X111431009Y-113642857D01*
X111431009Y-113642857D02*
X111478628Y-113738095D01*
X111478628Y-113738095D02*
X111478628Y-114119047D01*
X110954819Y-113261904D02*
X110954819Y-112690476D01*
X111954819Y-112976190D02*
X110954819Y-112976190D01*
X111907200Y-112404761D02*
X111954819Y-112261904D01*
X111954819Y-112261904D02*
X111954819Y-112023809D01*
X111954819Y-112023809D02*
X111907200Y-111928571D01*
X111907200Y-111928571D02*
X111859580Y-111880952D01*
X111859580Y-111880952D02*
X111764342Y-111833333D01*
X111764342Y-111833333D02*
X111669104Y-111833333D01*
X111669104Y-111833333D02*
X111573866Y-111880952D01*
X111573866Y-111880952D02*
X111526247Y-111928571D01*
X111526247Y-111928571D02*
X111478628Y-112023809D01*
X111478628Y-112023809D02*
X111431009Y-112214285D01*
X111431009Y-112214285D02*
X111383390Y-112309523D01*
X111383390Y-112309523D02*
X111335771Y-112357142D01*
X111335771Y-112357142D02*
X111240533Y-112404761D01*
X111240533Y-112404761D02*
X111145295Y-112404761D01*
X111145295Y-112404761D02*
X111050057Y-112357142D01*
X111050057Y-112357142D02*
X111002438Y-112309523D01*
X111002438Y-112309523D02*
X110954819Y-112214285D01*
X110954819Y-112214285D02*
X110954819Y-111976190D01*
X110954819Y-111976190D02*
X111002438Y-111833333D01*
X121907200Y-114210839D02*
X121954819Y-114067982D01*
X121954819Y-114067982D02*
X121954819Y-113829887D01*
X121954819Y-113829887D02*
X121907200Y-113734649D01*
X121907200Y-113734649D02*
X121859580Y-113687030D01*
X121859580Y-113687030D02*
X121764342Y-113639411D01*
X121764342Y-113639411D02*
X121669104Y-113639411D01*
X121669104Y-113639411D02*
X121573866Y-113687030D01*
X121573866Y-113687030D02*
X121526247Y-113734649D01*
X121526247Y-113734649D02*
X121478628Y-113829887D01*
X121478628Y-113829887D02*
X121431009Y-114020363D01*
X121431009Y-114020363D02*
X121383390Y-114115601D01*
X121383390Y-114115601D02*
X121335771Y-114163220D01*
X121335771Y-114163220D02*
X121240533Y-114210839D01*
X121240533Y-114210839D02*
X121145295Y-114210839D01*
X121145295Y-114210839D02*
X121050057Y-114163220D01*
X121050057Y-114163220D02*
X121002438Y-114115601D01*
X121002438Y-114115601D02*
X120954819Y-114020363D01*
X120954819Y-114020363D02*
X120954819Y-113782268D01*
X120954819Y-113782268D02*
X121002438Y-113639411D01*
X121859580Y-112639411D02*
X121907200Y-112687030D01*
X121907200Y-112687030D02*
X121954819Y-112829887D01*
X121954819Y-112829887D02*
X121954819Y-112925125D01*
X121954819Y-112925125D02*
X121907200Y-113067982D01*
X121907200Y-113067982D02*
X121811961Y-113163220D01*
X121811961Y-113163220D02*
X121716723Y-113210839D01*
X121716723Y-113210839D02*
X121526247Y-113258458D01*
X121526247Y-113258458D02*
X121383390Y-113258458D01*
X121383390Y-113258458D02*
X121192914Y-113210839D01*
X121192914Y-113210839D02*
X121097676Y-113163220D01*
X121097676Y-113163220D02*
X121002438Y-113067982D01*
X121002438Y-113067982D02*
X120954819Y-112925125D01*
X120954819Y-112925125D02*
X120954819Y-112829887D01*
X120954819Y-112829887D02*
X121002438Y-112687030D01*
X121002438Y-112687030D02*
X121050057Y-112639411D01*
X121954819Y-112210839D02*
X120954819Y-112210839D01*
X121954819Y-111639411D02*
X121383390Y-112067982D01*
X120954819Y-111639411D02*
X121526247Y-112210839D01*
X154988095Y-71002438D02*
X154892857Y-70954819D01*
X154892857Y-70954819D02*
X154750000Y-70954819D01*
X154750000Y-70954819D02*
X154607143Y-71002438D01*
X154607143Y-71002438D02*
X154511905Y-71097676D01*
X154511905Y-71097676D02*
X154464286Y-71192914D01*
X154464286Y-71192914D02*
X154416667Y-71383390D01*
X154416667Y-71383390D02*
X154416667Y-71526247D01*
X154416667Y-71526247D02*
X154464286Y-71716723D01*
X154464286Y-71716723D02*
X154511905Y-71811961D01*
X154511905Y-71811961D02*
X154607143Y-71907200D01*
X154607143Y-71907200D02*
X154750000Y-71954819D01*
X154750000Y-71954819D02*
X154845238Y-71954819D01*
X154845238Y-71954819D02*
X154988095Y-71907200D01*
X154988095Y-71907200D02*
X155035714Y-71859580D01*
X155035714Y-71859580D02*
X155035714Y-71526247D01*
X155035714Y-71526247D02*
X154845238Y-71526247D01*
X155464286Y-71954819D02*
X155464286Y-70954819D01*
X155464286Y-70954819D02*
X156035714Y-71954819D01*
X156035714Y-71954819D02*
X156035714Y-70954819D01*
X156511905Y-71954819D02*
X156511905Y-70954819D01*
X156511905Y-70954819D02*
X156750000Y-70954819D01*
X156750000Y-70954819D02*
X156892857Y-71002438D01*
X156892857Y-71002438D02*
X156988095Y-71097676D01*
X156988095Y-71097676D02*
X157035714Y-71192914D01*
X157035714Y-71192914D02*
X157083333Y-71383390D01*
X157083333Y-71383390D02*
X157083333Y-71526247D01*
X157083333Y-71526247D02*
X157035714Y-71716723D01*
X157035714Y-71716723D02*
X156988095Y-71811961D01*
X156988095Y-71811961D02*
X156892857Y-71907200D01*
X156892857Y-71907200D02*
X156750000Y-71954819D01*
X156750000Y-71954819D02*
X156511905Y-71954819D01*
X123095238Y-103602228D02*
X123238095Y-103649847D01*
X123238095Y-103649847D02*
X123476190Y-103649847D01*
X123476190Y-103649847D02*
X123571428Y-103602228D01*
X123571428Y-103602228D02*
X123619047Y-103554608D01*
X123619047Y-103554608D02*
X123666666Y-103459370D01*
X123666666Y-103459370D02*
X123666666Y-103364132D01*
X123666666Y-103364132D02*
X123619047Y-103268894D01*
X123619047Y-103268894D02*
X123571428Y-103221275D01*
X123571428Y-103221275D02*
X123476190Y-103173656D01*
X123476190Y-103173656D02*
X123285714Y-103126037D01*
X123285714Y-103126037D02*
X123190476Y-103078418D01*
X123190476Y-103078418D02*
X123142857Y-103030799D01*
X123142857Y-103030799D02*
X123095238Y-102935561D01*
X123095238Y-102935561D02*
X123095238Y-102840323D01*
X123095238Y-102840323D02*
X123142857Y-102745085D01*
X123142857Y-102745085D02*
X123190476Y-102697466D01*
X123190476Y-102697466D02*
X123285714Y-102649847D01*
X123285714Y-102649847D02*
X123523809Y-102649847D01*
X123523809Y-102649847D02*
X123666666Y-102697466D01*
X123952381Y-102649847D02*
X124523809Y-102649847D01*
X124238095Y-103649847D02*
X124238095Y-102649847D01*
X124857143Y-103649847D02*
X124857143Y-102649847D01*
X124857143Y-102649847D02*
X125190476Y-103364132D01*
X125190476Y-103364132D02*
X125523809Y-102649847D01*
X125523809Y-102649847D02*
X125523809Y-103649847D01*
X125904762Y-102649847D02*
X126523809Y-102649847D01*
X126523809Y-102649847D02*
X126190476Y-103030799D01*
X126190476Y-103030799D02*
X126333333Y-103030799D01*
X126333333Y-103030799D02*
X126428571Y-103078418D01*
X126428571Y-103078418D02*
X126476190Y-103126037D01*
X126476190Y-103126037D02*
X126523809Y-103221275D01*
X126523809Y-103221275D02*
X126523809Y-103459370D01*
X126523809Y-103459370D02*
X126476190Y-103554608D01*
X126476190Y-103554608D02*
X126428571Y-103602228D01*
X126428571Y-103602228D02*
X126333333Y-103649847D01*
X126333333Y-103649847D02*
X126047619Y-103649847D01*
X126047619Y-103649847D02*
X125952381Y-103602228D01*
X125952381Y-103602228D02*
X125904762Y-103554608D01*
X126904762Y-102745085D02*
X126952381Y-102697466D01*
X126952381Y-102697466D02*
X127047619Y-102649847D01*
X127047619Y-102649847D02*
X127285714Y-102649847D01*
X127285714Y-102649847D02*
X127380952Y-102697466D01*
X127380952Y-102697466D02*
X127428571Y-102745085D01*
X127428571Y-102745085D02*
X127476190Y-102840323D01*
X127476190Y-102840323D02*
X127476190Y-102935561D01*
X127476190Y-102935561D02*
X127428571Y-103078418D01*
X127428571Y-103078418D02*
X126857143Y-103649847D01*
X126857143Y-103649847D02*
X127476190Y-103649847D01*
X128238095Y-103126037D02*
X127904762Y-103126037D01*
X127904762Y-103649847D02*
X127904762Y-102649847D01*
X127904762Y-102649847D02*
X128380952Y-102649847D01*
X128952381Y-102649847D02*
X129047619Y-102649847D01*
X129047619Y-102649847D02*
X129142857Y-102697466D01*
X129142857Y-102697466D02*
X129190476Y-102745085D01*
X129190476Y-102745085D02*
X129238095Y-102840323D01*
X129238095Y-102840323D02*
X129285714Y-103030799D01*
X129285714Y-103030799D02*
X129285714Y-103268894D01*
X129285714Y-103268894D02*
X129238095Y-103459370D01*
X129238095Y-103459370D02*
X129190476Y-103554608D01*
X129190476Y-103554608D02*
X129142857Y-103602228D01*
X129142857Y-103602228D02*
X129047619Y-103649847D01*
X129047619Y-103649847D02*
X128952381Y-103649847D01*
X128952381Y-103649847D02*
X128857143Y-103602228D01*
X128857143Y-103602228D02*
X128809524Y-103554608D01*
X128809524Y-103554608D02*
X128761905Y-103459370D01*
X128761905Y-103459370D02*
X128714286Y-103268894D01*
X128714286Y-103268894D02*
X128714286Y-103030799D01*
X128714286Y-103030799D02*
X128761905Y-102840323D01*
X128761905Y-102840323D02*
X128809524Y-102745085D01*
X128809524Y-102745085D02*
X128857143Y-102697466D01*
X128857143Y-102697466D02*
X128952381Y-102649847D01*
X129619048Y-102649847D02*
X130238095Y-102649847D01*
X130238095Y-102649847D02*
X129904762Y-103030799D01*
X129904762Y-103030799D02*
X130047619Y-103030799D01*
X130047619Y-103030799D02*
X130142857Y-103078418D01*
X130142857Y-103078418D02*
X130190476Y-103126037D01*
X130190476Y-103126037D02*
X130238095Y-103221275D01*
X130238095Y-103221275D02*
X130238095Y-103459370D01*
X130238095Y-103459370D02*
X130190476Y-103554608D01*
X130190476Y-103554608D02*
X130142857Y-103602228D01*
X130142857Y-103602228D02*
X130047619Y-103649847D01*
X130047619Y-103649847D02*
X129761905Y-103649847D01*
X129761905Y-103649847D02*
X129666667Y-103602228D01*
X129666667Y-103602228D02*
X129619048Y-103554608D01*
X130857143Y-102649847D02*
X130952381Y-102649847D01*
X130952381Y-102649847D02*
X131047619Y-102697466D01*
X131047619Y-102697466D02*
X131095238Y-102745085D01*
X131095238Y-102745085D02*
X131142857Y-102840323D01*
X131142857Y-102840323D02*
X131190476Y-103030799D01*
X131190476Y-103030799D02*
X131190476Y-103268894D01*
X131190476Y-103268894D02*
X131142857Y-103459370D01*
X131142857Y-103459370D02*
X131095238Y-103554608D01*
X131095238Y-103554608D02*
X131047619Y-103602228D01*
X131047619Y-103602228D02*
X130952381Y-103649847D01*
X130952381Y-103649847D02*
X130857143Y-103649847D01*
X130857143Y-103649847D02*
X130761905Y-103602228D01*
X130761905Y-103602228D02*
X130714286Y-103554608D01*
X130714286Y-103554608D02*
X130666667Y-103459370D01*
X130666667Y-103459370D02*
X130619048Y-103268894D01*
X130619048Y-103268894D02*
X130619048Y-103030799D01*
X130619048Y-103030799D02*
X130666667Y-102840323D01*
X130666667Y-102840323D02*
X130714286Y-102745085D01*
X130714286Y-102745085D02*
X130761905Y-102697466D01*
X130761905Y-102697466D02*
X130857143Y-102649847D01*
X131619048Y-103649847D02*
X131619048Y-102649847D01*
X132190476Y-103649847D02*
X131761905Y-103078418D01*
X132190476Y-102649847D02*
X131619048Y-103221275D01*
X133047619Y-102649847D02*
X132857143Y-102649847D01*
X132857143Y-102649847D02*
X132761905Y-102697466D01*
X132761905Y-102697466D02*
X132714286Y-102745085D01*
X132714286Y-102745085D02*
X132619048Y-102887942D01*
X132619048Y-102887942D02*
X132571429Y-103078418D01*
X132571429Y-103078418D02*
X132571429Y-103459370D01*
X132571429Y-103459370D02*
X132619048Y-103554608D01*
X132619048Y-103554608D02*
X132666667Y-103602228D01*
X132666667Y-103602228D02*
X132761905Y-103649847D01*
X132761905Y-103649847D02*
X132952381Y-103649847D01*
X132952381Y-103649847D02*
X133047619Y-103602228D01*
X133047619Y-103602228D02*
X133095238Y-103554608D01*
X133095238Y-103554608D02*
X133142857Y-103459370D01*
X133142857Y-103459370D02*
X133142857Y-103221275D01*
X133142857Y-103221275D02*
X133095238Y-103126037D01*
X133095238Y-103126037D02*
X133047619Y-103078418D01*
X133047619Y-103078418D02*
X132952381Y-103030799D01*
X132952381Y-103030799D02*
X132761905Y-103030799D01*
X132761905Y-103030799D02*
X132666667Y-103078418D01*
X132666667Y-103078418D02*
X132619048Y-103126037D01*
X132619048Y-103126037D02*
X132571429Y-103221275D01*
X133428572Y-102649847D02*
X134000000Y-102649847D01*
X133714286Y-103649847D02*
X133714286Y-102649847D01*
X122952380Y-105259791D02*
X122952380Y-104259791D01*
X122952380Y-104259791D02*
X123190475Y-104259791D01*
X123190475Y-104259791D02*
X123333332Y-104307410D01*
X123333332Y-104307410D02*
X123428570Y-104402648D01*
X123428570Y-104402648D02*
X123476189Y-104497886D01*
X123476189Y-104497886D02*
X123523808Y-104688362D01*
X123523808Y-104688362D02*
X123523808Y-104831219D01*
X123523808Y-104831219D02*
X123476189Y-105021695D01*
X123476189Y-105021695D02*
X123428570Y-105116933D01*
X123428570Y-105116933D02*
X123333332Y-105212172D01*
X123333332Y-105212172D02*
X123190475Y-105259791D01*
X123190475Y-105259791D02*
X122952380Y-105259791D01*
X124333332Y-105212172D02*
X124238094Y-105259791D01*
X124238094Y-105259791D02*
X124047618Y-105259791D01*
X124047618Y-105259791D02*
X123952380Y-105212172D01*
X123952380Y-105212172D02*
X123904761Y-105116933D01*
X123904761Y-105116933D02*
X123904761Y-104735981D01*
X123904761Y-104735981D02*
X123952380Y-104640743D01*
X123952380Y-104640743D02*
X124047618Y-104593124D01*
X124047618Y-104593124D02*
X124238094Y-104593124D01*
X124238094Y-104593124D02*
X124333332Y-104640743D01*
X124333332Y-104640743D02*
X124380951Y-104735981D01*
X124380951Y-104735981D02*
X124380951Y-104831219D01*
X124380951Y-104831219D02*
X123904761Y-104926457D01*
X124714285Y-104593124D02*
X124952380Y-105259791D01*
X124952380Y-105259791D02*
X125190475Y-104593124D01*
X125952380Y-105212172D02*
X125857142Y-105259791D01*
X125857142Y-105259791D02*
X125666666Y-105259791D01*
X125666666Y-105259791D02*
X125571428Y-105212172D01*
X125571428Y-105212172D02*
X125523809Y-105116933D01*
X125523809Y-105116933D02*
X125523809Y-104735981D01*
X125523809Y-104735981D02*
X125571428Y-104640743D01*
X125571428Y-104640743D02*
X125666666Y-104593124D01*
X125666666Y-104593124D02*
X125857142Y-104593124D01*
X125857142Y-104593124D02*
X125952380Y-104640743D01*
X125952380Y-104640743D02*
X125999999Y-104735981D01*
X125999999Y-104735981D02*
X125999999Y-104831219D01*
X125999999Y-104831219D02*
X125523809Y-104926457D01*
X126571428Y-105259791D02*
X126476190Y-105212172D01*
X126476190Y-105212172D02*
X126428571Y-105116933D01*
X126428571Y-105116933D02*
X126428571Y-104259791D01*
X128047619Y-104735981D02*
X128190476Y-104783600D01*
X128190476Y-104783600D02*
X128238095Y-104831219D01*
X128238095Y-104831219D02*
X128285714Y-104926457D01*
X128285714Y-104926457D02*
X128285714Y-105069314D01*
X128285714Y-105069314D02*
X128238095Y-105164552D01*
X128238095Y-105164552D02*
X128190476Y-105212172D01*
X128190476Y-105212172D02*
X128095238Y-105259791D01*
X128095238Y-105259791D02*
X127714286Y-105259791D01*
X127714286Y-105259791D02*
X127714286Y-104259791D01*
X127714286Y-104259791D02*
X128047619Y-104259791D01*
X128047619Y-104259791D02*
X128142857Y-104307410D01*
X128142857Y-104307410D02*
X128190476Y-104355029D01*
X128190476Y-104355029D02*
X128238095Y-104450267D01*
X128238095Y-104450267D02*
X128238095Y-104545505D01*
X128238095Y-104545505D02*
X128190476Y-104640743D01*
X128190476Y-104640743D02*
X128142857Y-104688362D01*
X128142857Y-104688362D02*
X128047619Y-104735981D01*
X128047619Y-104735981D02*
X127714286Y-104735981D01*
X128857143Y-105259791D02*
X128761905Y-105212172D01*
X128761905Y-105212172D02*
X128714286Y-105164552D01*
X128714286Y-105164552D02*
X128666667Y-105069314D01*
X128666667Y-105069314D02*
X128666667Y-104783600D01*
X128666667Y-104783600D02*
X128714286Y-104688362D01*
X128714286Y-104688362D02*
X128761905Y-104640743D01*
X128761905Y-104640743D02*
X128857143Y-104593124D01*
X128857143Y-104593124D02*
X129000000Y-104593124D01*
X129000000Y-104593124D02*
X129095238Y-104640743D01*
X129095238Y-104640743D02*
X129142857Y-104688362D01*
X129142857Y-104688362D02*
X129190476Y-104783600D01*
X129190476Y-104783600D02*
X129190476Y-105069314D01*
X129190476Y-105069314D02*
X129142857Y-105164552D01*
X129142857Y-105164552D02*
X129095238Y-105212172D01*
X129095238Y-105212172D02*
X129000000Y-105259791D01*
X129000000Y-105259791D02*
X128857143Y-105259791D01*
X130047619Y-105259791D02*
X130047619Y-104735981D01*
X130047619Y-104735981D02*
X130000000Y-104640743D01*
X130000000Y-104640743D02*
X129904762Y-104593124D01*
X129904762Y-104593124D02*
X129714286Y-104593124D01*
X129714286Y-104593124D02*
X129619048Y-104640743D01*
X130047619Y-105212172D02*
X129952381Y-105259791D01*
X129952381Y-105259791D02*
X129714286Y-105259791D01*
X129714286Y-105259791D02*
X129619048Y-105212172D01*
X129619048Y-105212172D02*
X129571429Y-105116933D01*
X129571429Y-105116933D02*
X129571429Y-105021695D01*
X129571429Y-105021695D02*
X129619048Y-104926457D01*
X129619048Y-104926457D02*
X129714286Y-104878838D01*
X129714286Y-104878838D02*
X129952381Y-104878838D01*
X129952381Y-104878838D02*
X130047619Y-104831219D01*
X130523810Y-105259791D02*
X130523810Y-104593124D01*
X130523810Y-104783600D02*
X130571429Y-104688362D01*
X130571429Y-104688362D02*
X130619048Y-104640743D01*
X130619048Y-104640743D02*
X130714286Y-104593124D01*
X130714286Y-104593124D02*
X130809524Y-104593124D01*
X131571429Y-105259791D02*
X131571429Y-104259791D01*
X131571429Y-105212172D02*
X131476191Y-105259791D01*
X131476191Y-105259791D02*
X131285715Y-105259791D01*
X131285715Y-105259791D02*
X131190477Y-105212172D01*
X131190477Y-105212172D02*
X131142858Y-105164552D01*
X131142858Y-105164552D02*
X131095239Y-105069314D01*
X131095239Y-105069314D02*
X131095239Y-104783600D01*
X131095239Y-104783600D02*
X131142858Y-104688362D01*
X131142858Y-104688362D02*
X131190477Y-104640743D01*
X131190477Y-104640743D02*
X131285715Y-104593124D01*
X131285715Y-104593124D02*
X131476191Y-104593124D01*
X131476191Y-104593124D02*
X131571429Y-104640743D01*
X132714287Y-104593124D02*
X132952382Y-105259791D01*
X132952382Y-105259791D02*
X133190477Y-104593124D01*
X133523811Y-104355029D02*
X133571430Y-104307410D01*
X133571430Y-104307410D02*
X133666668Y-104259791D01*
X133666668Y-104259791D02*
X133904763Y-104259791D01*
X133904763Y-104259791D02*
X134000001Y-104307410D01*
X134000001Y-104307410D02*
X134047620Y-104355029D01*
X134047620Y-104355029D02*
X134095239Y-104450267D01*
X134095239Y-104450267D02*
X134095239Y-104545505D01*
X134095239Y-104545505D02*
X134047620Y-104688362D01*
X134047620Y-104688362D02*
X133476192Y-105259791D01*
X133476192Y-105259791D02*
X134095239Y-105259791D01*
X137373866Y-96098713D02*
X137373866Y-95336809D01*
X136754819Y-94384428D02*
X136754819Y-94860618D01*
X136754819Y-94860618D02*
X137231009Y-94908237D01*
X137231009Y-94908237D02*
X137183390Y-94860618D01*
X137183390Y-94860618D02*
X137135771Y-94765380D01*
X137135771Y-94765380D02*
X137135771Y-94527285D01*
X137135771Y-94527285D02*
X137183390Y-94432047D01*
X137183390Y-94432047D02*
X137231009Y-94384428D01*
X137231009Y-94384428D02*
X137326247Y-94336809D01*
X137326247Y-94336809D02*
X137564342Y-94336809D01*
X137564342Y-94336809D02*
X137659580Y-94384428D01*
X137659580Y-94384428D02*
X137707200Y-94432047D01*
X137707200Y-94432047D02*
X137754819Y-94527285D01*
X137754819Y-94527285D02*
X137754819Y-94765380D01*
X137754819Y-94765380D02*
X137707200Y-94860618D01*
X137707200Y-94860618D02*
X137659580Y-94908237D01*
X136754819Y-94051094D02*
X137754819Y-93717761D01*
X137754819Y-93717761D02*
X136754819Y-93384428D01*
X150309523Y-70954819D02*
X149833333Y-70954819D01*
X149833333Y-70954819D02*
X149785714Y-71431009D01*
X149785714Y-71431009D02*
X149833333Y-71383390D01*
X149833333Y-71383390D02*
X149928571Y-71335771D01*
X149928571Y-71335771D02*
X150166666Y-71335771D01*
X150166666Y-71335771D02*
X150261904Y-71383390D01*
X150261904Y-71383390D02*
X150309523Y-71431009D01*
X150309523Y-71431009D02*
X150357142Y-71526247D01*
X150357142Y-71526247D02*
X150357142Y-71764342D01*
X150357142Y-71764342D02*
X150309523Y-71859580D01*
X150309523Y-71859580D02*
X150261904Y-71907200D01*
X150261904Y-71907200D02*
X150166666Y-71954819D01*
X150166666Y-71954819D02*
X149928571Y-71954819D01*
X149928571Y-71954819D02*
X149833333Y-71907200D01*
X149833333Y-71907200D02*
X149785714Y-71859580D01*
X150642857Y-70954819D02*
X150976190Y-71954819D01*
X150976190Y-71954819D02*
X151309523Y-70954819D01*
D11*
X112890614Y-95321919D02*
X112776329Y-95264776D01*
X112776329Y-95264776D02*
X112604900Y-95264776D01*
X112604900Y-95264776D02*
X112433471Y-95321919D01*
X112433471Y-95321919D02*
X112319186Y-95436205D01*
X112319186Y-95436205D02*
X112262043Y-95550491D01*
X112262043Y-95550491D02*
X112204900Y-95779062D01*
X112204900Y-95779062D02*
X112204900Y-95950491D01*
X112204900Y-95950491D02*
X112262043Y-96179062D01*
X112262043Y-96179062D02*
X112319186Y-96293348D01*
X112319186Y-96293348D02*
X112433471Y-96407634D01*
X112433471Y-96407634D02*
X112604900Y-96464776D01*
X112604900Y-96464776D02*
X112719186Y-96464776D01*
X112719186Y-96464776D02*
X112890614Y-96407634D01*
X112890614Y-96407634D02*
X112947757Y-96350491D01*
X112947757Y-96350491D02*
X112947757Y-95950491D01*
X112947757Y-95950491D02*
X112719186Y-95950491D01*
X113462043Y-96464776D02*
X113462043Y-95264776D01*
X113462043Y-95264776D02*
X114147757Y-96464776D01*
X114147757Y-96464776D02*
X114147757Y-95264776D01*
X114719186Y-96464776D02*
X114719186Y-95264776D01*
X114719186Y-95264776D02*
X115004900Y-95264776D01*
X115004900Y-95264776D02*
X115176329Y-95321919D01*
X115176329Y-95321919D02*
X115290614Y-95436205D01*
X115290614Y-95436205D02*
X115347757Y-95550491D01*
X115347757Y-95550491D02*
X115404900Y-95779062D01*
X115404900Y-95779062D02*
X115404900Y-95950491D01*
X115404900Y-95950491D02*
X115347757Y-96179062D01*
X115347757Y-96179062D02*
X115290614Y-96293348D01*
X115290614Y-96293348D02*
X115176329Y-96407634D01*
X115176329Y-96407634D02*
X115004900Y-96464776D01*
X115004900Y-96464776D02*
X114719186Y-96464776D01*
X112033471Y-97196709D02*
X112776328Y-97196709D01*
X112776328Y-97196709D02*
X112376328Y-97653852D01*
X112376328Y-97653852D02*
X112547757Y-97653852D01*
X112547757Y-97653852D02*
X112662043Y-97710995D01*
X112662043Y-97710995D02*
X112719185Y-97768138D01*
X112719185Y-97768138D02*
X112776328Y-97882424D01*
X112776328Y-97882424D02*
X112776328Y-98168138D01*
X112776328Y-98168138D02*
X112719185Y-98282424D01*
X112719185Y-98282424D02*
X112662043Y-98339567D01*
X112662043Y-98339567D02*
X112547757Y-98396709D01*
X112547757Y-98396709D02*
X112204900Y-98396709D01*
X112204900Y-98396709D02*
X112090614Y-98339567D01*
X112090614Y-98339567D02*
X112033471Y-98282424D01*
X113290614Y-98282424D02*
X113347757Y-98339567D01*
X113347757Y-98339567D02*
X113290614Y-98396709D01*
X113290614Y-98396709D02*
X113233471Y-98339567D01*
X113233471Y-98339567D02*
X113290614Y-98282424D01*
X113290614Y-98282424D02*
X113290614Y-98396709D01*
X113747757Y-97196709D02*
X114490614Y-97196709D01*
X114490614Y-97196709D02*
X114090614Y-97653852D01*
X114090614Y-97653852D02*
X114262043Y-97653852D01*
X114262043Y-97653852D02*
X114376329Y-97710995D01*
X114376329Y-97710995D02*
X114433471Y-97768138D01*
X114433471Y-97768138D02*
X114490614Y-97882424D01*
X114490614Y-97882424D02*
X114490614Y-98168138D01*
X114490614Y-98168138D02*
X114433471Y-98282424D01*
X114433471Y-98282424D02*
X114376329Y-98339567D01*
X114376329Y-98339567D02*
X114262043Y-98396709D01*
X114262043Y-98396709D02*
X113919186Y-98396709D01*
X113919186Y-98396709D02*
X113804900Y-98339567D01*
X113804900Y-98339567D02*
X113747757Y-98282424D01*
X114833471Y-97196709D02*
X115233471Y-98396709D01*
X115233471Y-98396709D02*
X115633471Y-97196709D01*
D10*
X145404761Y-71954819D02*
X145071428Y-71478628D01*
X144833333Y-71954819D02*
X144833333Y-70954819D01*
X144833333Y-70954819D02*
X145214285Y-70954819D01*
X145214285Y-70954819D02*
X145309523Y-71002438D01*
X145309523Y-71002438D02*
X145357142Y-71050057D01*
X145357142Y-71050057D02*
X145404761Y-71145295D01*
X145404761Y-71145295D02*
X145404761Y-71288152D01*
X145404761Y-71288152D02*
X145357142Y-71383390D01*
X145357142Y-71383390D02*
X145309523Y-71431009D01*
X145309523Y-71431009D02*
X145214285Y-71478628D01*
X145214285Y-71478628D02*
X144833333Y-71478628D01*
X145738095Y-71954819D02*
X146261904Y-71288152D01*
X145738095Y-71288152D02*
X146261904Y-71954819D01*
X140785714Y-71431009D02*
X140452381Y-71431009D01*
X140452381Y-71954819D02*
X140452381Y-70954819D01*
X140452381Y-70954819D02*
X140928571Y-70954819D01*
X141166667Y-70954819D02*
X141738095Y-70954819D01*
X141452381Y-71954819D02*
X141452381Y-70954819D01*
X142071429Y-71954819D02*
X142071429Y-70954819D01*
X142071429Y-70954819D02*
X142309524Y-70954819D01*
X142309524Y-70954819D02*
X142452381Y-71002438D01*
X142452381Y-71002438D02*
X142547619Y-71097676D01*
X142547619Y-71097676D02*
X142595238Y-71192914D01*
X142595238Y-71192914D02*
X142642857Y-71383390D01*
X142642857Y-71383390D02*
X142642857Y-71526247D01*
X142642857Y-71526247D02*
X142595238Y-71716723D01*
X142595238Y-71716723D02*
X142547619Y-71811961D01*
X142547619Y-71811961D02*
X142452381Y-71907200D01*
X142452381Y-71907200D02*
X142309524Y-71954819D01*
X142309524Y-71954819D02*
X142071429Y-71954819D01*
X143071429Y-71954819D02*
X143071429Y-70954819D01*
X143547619Y-71859580D02*
X143595238Y-71907200D01*
X143595238Y-71907200D02*
X143547619Y-71954819D01*
X143547619Y-71954819D02*
X143500000Y-71907200D01*
X143500000Y-71907200D02*
X143547619Y-71859580D01*
X143547619Y-71859580D02*
X143547619Y-71954819D01*
X143547619Y-71335771D02*
X143595238Y-71383390D01*
X143595238Y-71383390D02*
X143547619Y-71431009D01*
X143547619Y-71431009D02*
X143500000Y-71383390D01*
X143500000Y-71383390D02*
X143547619Y-71335771D01*
X143547619Y-71335771D02*
X143547619Y-71431009D01*
X109359580Y-113547619D02*
X109407200Y-113595238D01*
X109407200Y-113595238D02*
X109454819Y-113738095D01*
X109454819Y-113738095D02*
X109454819Y-113833333D01*
X109454819Y-113833333D02*
X109407200Y-113976190D01*
X109407200Y-113976190D02*
X109311961Y-114071428D01*
X109311961Y-114071428D02*
X109216723Y-114119047D01*
X109216723Y-114119047D02*
X109026247Y-114166666D01*
X109026247Y-114166666D02*
X108883390Y-114166666D01*
X108883390Y-114166666D02*
X108692914Y-114119047D01*
X108692914Y-114119047D02*
X108597676Y-114071428D01*
X108597676Y-114071428D02*
X108502438Y-113976190D01*
X108502438Y-113976190D02*
X108454819Y-113833333D01*
X108454819Y-113833333D02*
X108454819Y-113738095D01*
X108454819Y-113738095D02*
X108502438Y-113595238D01*
X108502438Y-113595238D02*
X108550057Y-113547619D01*
X108454819Y-113261904D02*
X108454819Y-112690476D01*
X109454819Y-112976190D02*
X108454819Y-112976190D01*
X109407200Y-112404761D02*
X109454819Y-112261904D01*
X109454819Y-112261904D02*
X109454819Y-112023809D01*
X109454819Y-112023809D02*
X109407200Y-111928571D01*
X109407200Y-111928571D02*
X109359580Y-111880952D01*
X109359580Y-111880952D02*
X109264342Y-111833333D01*
X109264342Y-111833333D02*
X109169104Y-111833333D01*
X109169104Y-111833333D02*
X109073866Y-111880952D01*
X109073866Y-111880952D02*
X109026247Y-111928571D01*
X109026247Y-111928571D02*
X108978628Y-112023809D01*
X108978628Y-112023809D02*
X108931009Y-112214285D01*
X108931009Y-112214285D02*
X108883390Y-112309523D01*
X108883390Y-112309523D02*
X108835771Y-112357142D01*
X108835771Y-112357142D02*
X108740533Y-112404761D01*
X108740533Y-112404761D02*
X108645295Y-112404761D01*
X108645295Y-112404761D02*
X108550057Y-112357142D01*
X108550057Y-112357142D02*
X108502438Y-112309523D01*
X108502438Y-112309523D02*
X108454819Y-112214285D01*
X108454819Y-112214285D02*
X108454819Y-111976190D01*
X108454819Y-111976190D02*
X108502438Y-111833333D01*
X115248528Y-89993090D02*
X115724719Y-89993090D01*
X114724719Y-90326423D02*
X115248528Y-89993090D01*
X115248528Y-89993090D02*
X114724719Y-89659757D01*
X115724719Y-88802614D02*
X115724719Y-89374042D01*
X115724719Y-89088328D02*
X114724719Y-89088328D01*
X114724719Y-89088328D02*
X114867576Y-89183566D01*
X114867576Y-89183566D02*
X114962814Y-89278804D01*
X114962814Y-89278804D02*
X115010433Y-89374042D01*
X125005333Y-79900819D02*
X124672000Y-79424628D01*
X124433905Y-79900819D02*
X124433905Y-78900819D01*
X124433905Y-78900819D02*
X124814857Y-78900819D01*
X124814857Y-78900819D02*
X124910095Y-78948438D01*
X124910095Y-78948438D02*
X124957714Y-78996057D01*
X124957714Y-78996057D02*
X125005333Y-79091295D01*
X125005333Y-79091295D02*
X125005333Y-79234152D01*
X125005333Y-79234152D02*
X124957714Y-79329390D01*
X124957714Y-79329390D02*
X124910095Y-79377009D01*
X124910095Y-79377009D02*
X124814857Y-79424628D01*
X124814857Y-79424628D02*
X124433905Y-79424628D01*
X125862476Y-78900819D02*
X125672000Y-78900819D01*
X125672000Y-78900819D02*
X125576762Y-78948438D01*
X125576762Y-78948438D02*
X125529143Y-78996057D01*
X125529143Y-78996057D02*
X125433905Y-79138914D01*
X125433905Y-79138914D02*
X125386286Y-79329390D01*
X125386286Y-79329390D02*
X125386286Y-79710342D01*
X125386286Y-79710342D02*
X125433905Y-79805580D01*
X125433905Y-79805580D02*
X125481524Y-79853200D01*
X125481524Y-79853200D02*
X125576762Y-79900819D01*
X125576762Y-79900819D02*
X125767238Y-79900819D01*
X125767238Y-79900819D02*
X125862476Y-79853200D01*
X125862476Y-79853200D02*
X125910095Y-79805580D01*
X125910095Y-79805580D02*
X125957714Y-79710342D01*
X125957714Y-79710342D02*
X125957714Y-79472247D01*
X125957714Y-79472247D02*
X125910095Y-79377009D01*
X125910095Y-79377009D02*
X125862476Y-79329390D01*
X125862476Y-79329390D02*
X125767238Y-79281771D01*
X125767238Y-79281771D02*
X125576762Y-79281771D01*
X125576762Y-79281771D02*
X125481524Y-79329390D01*
X125481524Y-79329390D02*
X125433905Y-79377009D01*
X125433905Y-79377009D02*
X125386286Y-79472247D01*
X152215142Y-105459580D02*
X152167523Y-105507200D01*
X152167523Y-105507200D02*
X152024666Y-105554819D01*
X152024666Y-105554819D02*
X151929428Y-105554819D01*
X151929428Y-105554819D02*
X151786571Y-105507200D01*
X151786571Y-105507200D02*
X151691333Y-105411961D01*
X151691333Y-105411961D02*
X151643714Y-105316723D01*
X151643714Y-105316723D02*
X151596095Y-105126247D01*
X151596095Y-105126247D02*
X151596095Y-104983390D01*
X151596095Y-104983390D02*
X151643714Y-104792914D01*
X151643714Y-104792914D02*
X151691333Y-104697676D01*
X151691333Y-104697676D02*
X151786571Y-104602438D01*
X151786571Y-104602438D02*
X151929428Y-104554819D01*
X151929428Y-104554819D02*
X152024666Y-104554819D01*
X152024666Y-104554819D02*
X152167523Y-104602438D01*
X152167523Y-104602438D02*
X152215142Y-104650057D01*
X153167523Y-105554819D02*
X152596095Y-105554819D01*
X152881809Y-105554819D02*
X152881809Y-104554819D01*
X152881809Y-104554819D02*
X152786571Y-104697676D01*
X152786571Y-104697676D02*
X152691333Y-104792914D01*
X152691333Y-104792914D02*
X152596095Y-104840533D01*
X154024666Y-104888152D02*
X154024666Y-105554819D01*
X153786571Y-104507200D02*
X153548476Y-105221485D01*
X153548476Y-105221485D02*
X154167523Y-105221485D01*
X115625580Y-106758857D02*
X115673200Y-106806476D01*
X115673200Y-106806476D02*
X115720819Y-106949333D01*
X115720819Y-106949333D02*
X115720819Y-107044571D01*
X115720819Y-107044571D02*
X115673200Y-107187428D01*
X115673200Y-107187428D02*
X115577961Y-107282666D01*
X115577961Y-107282666D02*
X115482723Y-107330285D01*
X115482723Y-107330285D02*
X115292247Y-107377904D01*
X115292247Y-107377904D02*
X115149390Y-107377904D01*
X115149390Y-107377904D02*
X114958914Y-107330285D01*
X114958914Y-107330285D02*
X114863676Y-107282666D01*
X114863676Y-107282666D02*
X114768438Y-107187428D01*
X114768438Y-107187428D02*
X114720819Y-107044571D01*
X114720819Y-107044571D02*
X114720819Y-106949333D01*
X114720819Y-106949333D02*
X114768438Y-106806476D01*
X114768438Y-106806476D02*
X114816057Y-106758857D01*
X115720819Y-105806476D02*
X115720819Y-106377904D01*
X115720819Y-106092190D02*
X114720819Y-106092190D01*
X114720819Y-106092190D02*
X114863676Y-106187428D01*
X114863676Y-106187428D02*
X114958914Y-106282666D01*
X114958914Y-106282666D02*
X115006533Y-106377904D01*
X114720819Y-105473142D02*
X114720819Y-104854095D01*
X114720819Y-104854095D02*
X115101771Y-105187428D01*
X115101771Y-105187428D02*
X115101771Y-105044571D01*
X115101771Y-105044571D02*
X115149390Y-104949333D01*
X115149390Y-104949333D02*
X115197009Y-104901714D01*
X115197009Y-104901714D02*
X115292247Y-104854095D01*
X115292247Y-104854095D02*
X115530342Y-104854095D01*
X115530342Y-104854095D02*
X115625580Y-104901714D01*
X115625580Y-104901714D02*
X115673200Y-104949333D01*
X115673200Y-104949333D02*
X115720819Y-105044571D01*
X115720819Y-105044571D02*
X115720819Y-105330285D01*
X115720819Y-105330285D02*
X115673200Y-105425523D01*
X115673200Y-105425523D02*
X115625580Y-105473142D01*
X139737333Y-91838819D02*
X139404000Y-91362628D01*
X139165905Y-91838819D02*
X139165905Y-90838819D01*
X139165905Y-90838819D02*
X139546857Y-90838819D01*
X139546857Y-90838819D02*
X139642095Y-90886438D01*
X139642095Y-90886438D02*
X139689714Y-90934057D01*
X139689714Y-90934057D02*
X139737333Y-91029295D01*
X139737333Y-91029295D02*
X139737333Y-91172152D01*
X139737333Y-91172152D02*
X139689714Y-91267390D01*
X139689714Y-91267390D02*
X139642095Y-91315009D01*
X139642095Y-91315009D02*
X139546857Y-91362628D01*
X139546857Y-91362628D02*
X139165905Y-91362628D01*
X140118286Y-90934057D02*
X140165905Y-90886438D01*
X140165905Y-90886438D02*
X140261143Y-90838819D01*
X140261143Y-90838819D02*
X140499238Y-90838819D01*
X140499238Y-90838819D02*
X140594476Y-90886438D01*
X140594476Y-90886438D02*
X140642095Y-90934057D01*
X140642095Y-90934057D02*
X140689714Y-91029295D01*
X140689714Y-91029295D02*
X140689714Y-91124533D01*
X140689714Y-91124533D02*
X140642095Y-91267390D01*
X140642095Y-91267390D02*
X140070667Y-91838819D01*
X140070667Y-91838819D02*
X140689714Y-91838819D01*
X106735580Y-105266666D02*
X106783200Y-105314285D01*
X106783200Y-105314285D02*
X106830819Y-105457142D01*
X106830819Y-105457142D02*
X106830819Y-105552380D01*
X106830819Y-105552380D02*
X106783200Y-105695237D01*
X106783200Y-105695237D02*
X106687961Y-105790475D01*
X106687961Y-105790475D02*
X106592723Y-105838094D01*
X106592723Y-105838094D02*
X106402247Y-105885713D01*
X106402247Y-105885713D02*
X106259390Y-105885713D01*
X106259390Y-105885713D02*
X106068914Y-105838094D01*
X106068914Y-105838094D02*
X105973676Y-105790475D01*
X105973676Y-105790475D02*
X105878438Y-105695237D01*
X105878438Y-105695237D02*
X105830819Y-105552380D01*
X105830819Y-105552380D02*
X105830819Y-105457142D01*
X105830819Y-105457142D02*
X105878438Y-105314285D01*
X105878438Y-105314285D02*
X105926057Y-105266666D01*
X106830819Y-104790475D02*
X106830819Y-104599999D01*
X106830819Y-104599999D02*
X106783200Y-104504761D01*
X106783200Y-104504761D02*
X106735580Y-104457142D01*
X106735580Y-104457142D02*
X106592723Y-104361904D01*
X106592723Y-104361904D02*
X106402247Y-104314285D01*
X106402247Y-104314285D02*
X106021295Y-104314285D01*
X106021295Y-104314285D02*
X105926057Y-104361904D01*
X105926057Y-104361904D02*
X105878438Y-104409523D01*
X105878438Y-104409523D02*
X105830819Y-104504761D01*
X105830819Y-104504761D02*
X105830819Y-104695237D01*
X105830819Y-104695237D02*
X105878438Y-104790475D01*
X105878438Y-104790475D02*
X105926057Y-104838094D01*
X105926057Y-104838094D02*
X106021295Y-104885713D01*
X106021295Y-104885713D02*
X106259390Y-104885713D01*
X106259390Y-104885713D02*
X106354628Y-104838094D01*
X106354628Y-104838094D02*
X106402247Y-104790475D01*
X106402247Y-104790475D02*
X106449866Y-104695237D01*
X106449866Y-104695237D02*
X106449866Y-104504761D01*
X106449866Y-104504761D02*
X106402247Y-104409523D01*
X106402247Y-104409523D02*
X106354628Y-104361904D01*
X106354628Y-104361904D02*
X106259390Y-104314285D01*
X146104819Y-109229166D02*
X145628628Y-109562499D01*
X146104819Y-109800594D02*
X145104819Y-109800594D01*
X145104819Y-109800594D02*
X145104819Y-109419642D01*
X145104819Y-109419642D02*
X145152438Y-109324404D01*
X145152438Y-109324404D02*
X145200057Y-109276785D01*
X145200057Y-109276785D02*
X145295295Y-109229166D01*
X145295295Y-109229166D02*
X145438152Y-109229166D01*
X145438152Y-109229166D02*
X145533390Y-109276785D01*
X145533390Y-109276785D02*
X145581009Y-109324404D01*
X145581009Y-109324404D02*
X145628628Y-109419642D01*
X145628628Y-109419642D02*
X145628628Y-109800594D01*
X145104819Y-108895832D02*
X145104819Y-108276785D01*
X145104819Y-108276785D02*
X145485771Y-108610118D01*
X145485771Y-108610118D02*
X145485771Y-108467261D01*
X145485771Y-108467261D02*
X145533390Y-108372023D01*
X145533390Y-108372023D02*
X145581009Y-108324404D01*
X145581009Y-108324404D02*
X145676247Y-108276785D01*
X145676247Y-108276785D02*
X145914342Y-108276785D01*
X145914342Y-108276785D02*
X146009580Y-108324404D01*
X146009580Y-108324404D02*
X146057200Y-108372023D01*
X146057200Y-108372023D02*
X146104819Y-108467261D01*
X146104819Y-108467261D02*
X146104819Y-108752975D01*
X146104819Y-108752975D02*
X146057200Y-108848213D01*
X146057200Y-108848213D02*
X146009580Y-108895832D01*
X144104819Y-97800594D02*
X143104819Y-97800594D01*
X143104819Y-97800594D02*
X143104819Y-97562499D01*
X143104819Y-97562499D02*
X143152438Y-97419642D01*
X143152438Y-97419642D02*
X143247676Y-97324404D01*
X143247676Y-97324404D02*
X143342914Y-97276785D01*
X143342914Y-97276785D02*
X143533390Y-97229166D01*
X143533390Y-97229166D02*
X143676247Y-97229166D01*
X143676247Y-97229166D02*
X143866723Y-97276785D01*
X143866723Y-97276785D02*
X143961961Y-97324404D01*
X143961961Y-97324404D02*
X144057200Y-97419642D01*
X144057200Y-97419642D02*
X144104819Y-97562499D01*
X144104819Y-97562499D02*
X144104819Y-97800594D01*
X143200057Y-96848213D02*
X143152438Y-96800594D01*
X143152438Y-96800594D02*
X143104819Y-96705356D01*
X143104819Y-96705356D02*
X143104819Y-96467261D01*
X143104819Y-96467261D02*
X143152438Y-96372023D01*
X143152438Y-96372023D02*
X143200057Y-96324404D01*
X143200057Y-96324404D02*
X143295295Y-96276785D01*
X143295295Y-96276785D02*
X143390533Y-96276785D01*
X143390533Y-96276785D02*
X143533390Y-96324404D01*
X143533390Y-96324404D02*
X144104819Y-96895832D01*
X144104819Y-96895832D02*
X144104819Y-96276785D01*
X140804819Y-102104166D02*
X140328628Y-102437499D01*
X140804819Y-102675594D02*
X139804819Y-102675594D01*
X139804819Y-102675594D02*
X139804819Y-102294642D01*
X139804819Y-102294642D02*
X139852438Y-102199404D01*
X139852438Y-102199404D02*
X139900057Y-102151785D01*
X139900057Y-102151785D02*
X139995295Y-102104166D01*
X139995295Y-102104166D02*
X140138152Y-102104166D01*
X140138152Y-102104166D02*
X140233390Y-102151785D01*
X140233390Y-102151785D02*
X140281009Y-102199404D01*
X140281009Y-102199404D02*
X140328628Y-102294642D01*
X140328628Y-102294642D02*
X140328628Y-102675594D01*
X140138152Y-101247023D02*
X140804819Y-101247023D01*
X139757200Y-101485118D02*
X140471485Y-101723213D01*
X140471485Y-101723213D02*
X140471485Y-101104166D01*
X125525433Y-83459719D02*
X125192100Y-82983528D01*
X124954005Y-83459719D02*
X124954005Y-82459719D01*
X124954005Y-82459719D02*
X125334957Y-82459719D01*
X125334957Y-82459719D02*
X125430195Y-82507338D01*
X125430195Y-82507338D02*
X125477814Y-82554957D01*
X125477814Y-82554957D02*
X125525433Y-82650195D01*
X125525433Y-82650195D02*
X125525433Y-82793052D01*
X125525433Y-82793052D02*
X125477814Y-82888290D01*
X125477814Y-82888290D02*
X125430195Y-82935909D01*
X125430195Y-82935909D02*
X125334957Y-82983528D01*
X125334957Y-82983528D02*
X124954005Y-82983528D01*
X126477814Y-83459719D02*
X125906386Y-83459719D01*
X126192100Y-83459719D02*
X126192100Y-82459719D01*
X126192100Y-82459719D02*
X126096862Y-82602576D01*
X126096862Y-82602576D02*
X126001624Y-82697814D01*
X126001624Y-82697814D02*
X125906386Y-82745433D01*
X149645819Y-99765904D02*
X150455342Y-99765904D01*
X150455342Y-99765904D02*
X150550580Y-99718285D01*
X150550580Y-99718285D02*
X150598200Y-99670666D01*
X150598200Y-99670666D02*
X150645819Y-99575428D01*
X150645819Y-99575428D02*
X150645819Y-99384952D01*
X150645819Y-99384952D02*
X150598200Y-99289714D01*
X150598200Y-99289714D02*
X150550580Y-99242095D01*
X150550580Y-99242095D02*
X150455342Y-99194476D01*
X150455342Y-99194476D02*
X149645819Y-99194476D01*
X149741057Y-98765904D02*
X149693438Y-98718285D01*
X149693438Y-98718285D02*
X149645819Y-98623047D01*
X149645819Y-98623047D02*
X149645819Y-98384952D01*
X149645819Y-98384952D02*
X149693438Y-98289714D01*
X149693438Y-98289714D02*
X149741057Y-98242095D01*
X149741057Y-98242095D02*
X149836295Y-98194476D01*
X149836295Y-98194476D02*
X149931533Y-98194476D01*
X149931533Y-98194476D02*
X150074390Y-98242095D01*
X150074390Y-98242095D02*
X150645819Y-98813523D01*
X150645819Y-98813523D02*
X150645819Y-98194476D01*
X158407200Y-114333332D02*
X158454819Y-114190475D01*
X158454819Y-114190475D02*
X158454819Y-113952380D01*
X158454819Y-113952380D02*
X158407200Y-113857142D01*
X158407200Y-113857142D02*
X158359580Y-113809523D01*
X158359580Y-113809523D02*
X158264342Y-113761904D01*
X158264342Y-113761904D02*
X158169104Y-113761904D01*
X158169104Y-113761904D02*
X158073866Y-113809523D01*
X158073866Y-113809523D02*
X158026247Y-113857142D01*
X158026247Y-113857142D02*
X157978628Y-113952380D01*
X157978628Y-113952380D02*
X157931009Y-114142856D01*
X157931009Y-114142856D02*
X157883390Y-114238094D01*
X157883390Y-114238094D02*
X157835771Y-114285713D01*
X157835771Y-114285713D02*
X157740533Y-114333332D01*
X157740533Y-114333332D02*
X157645295Y-114333332D01*
X157645295Y-114333332D02*
X157550057Y-114285713D01*
X157550057Y-114285713D02*
X157502438Y-114238094D01*
X157502438Y-114238094D02*
X157454819Y-114142856D01*
X157454819Y-114142856D02*
X157454819Y-113904761D01*
X157454819Y-113904761D02*
X157502438Y-113761904D01*
X157454819Y-113428570D02*
X158454819Y-113190475D01*
X158454819Y-113190475D02*
X157740533Y-112999999D01*
X157740533Y-112999999D02*
X158454819Y-112809523D01*
X158454819Y-112809523D02*
X157454819Y-112571428D01*
X158454819Y-111666666D02*
X158454819Y-112238094D01*
X158454819Y-111952380D02*
X157454819Y-111952380D01*
X157454819Y-111952380D02*
X157597676Y-112047618D01*
X157597676Y-112047618D02*
X157692914Y-112142856D01*
X157692914Y-112142856D02*
X157740533Y-112238094D01*
X104393233Y-91832480D02*
X104345614Y-91880100D01*
X104345614Y-91880100D02*
X104202757Y-91927719D01*
X104202757Y-91927719D02*
X104107519Y-91927719D01*
X104107519Y-91927719D02*
X103964662Y-91880100D01*
X103964662Y-91880100D02*
X103869424Y-91784861D01*
X103869424Y-91784861D02*
X103821805Y-91689623D01*
X103821805Y-91689623D02*
X103774186Y-91499147D01*
X103774186Y-91499147D02*
X103774186Y-91356290D01*
X103774186Y-91356290D02*
X103821805Y-91165814D01*
X103821805Y-91165814D02*
X103869424Y-91070576D01*
X103869424Y-91070576D02*
X103964662Y-90975338D01*
X103964662Y-90975338D02*
X104107519Y-90927719D01*
X104107519Y-90927719D02*
X104202757Y-90927719D01*
X104202757Y-90927719D02*
X104345614Y-90975338D01*
X104345614Y-90975338D02*
X104393233Y-91022957D01*
X104726567Y-90927719D02*
X105345614Y-90927719D01*
X105345614Y-90927719D02*
X105012281Y-91308671D01*
X105012281Y-91308671D02*
X105155138Y-91308671D01*
X105155138Y-91308671D02*
X105250376Y-91356290D01*
X105250376Y-91356290D02*
X105297995Y-91403909D01*
X105297995Y-91403909D02*
X105345614Y-91499147D01*
X105345614Y-91499147D02*
X105345614Y-91737242D01*
X105345614Y-91737242D02*
X105297995Y-91832480D01*
X105297995Y-91832480D02*
X105250376Y-91880100D01*
X105250376Y-91880100D02*
X105155138Y-91927719D01*
X105155138Y-91927719D02*
X104869424Y-91927719D01*
X104869424Y-91927719D02*
X104774186Y-91880100D01*
X104774186Y-91880100D02*
X104726567Y-91832480D01*
X124433905Y-77628819D02*
X124433905Y-76628819D01*
X124433905Y-76628819D02*
X124672000Y-76628819D01*
X124672000Y-76628819D02*
X124814857Y-76676438D01*
X124814857Y-76676438D02*
X124910095Y-76771676D01*
X124910095Y-76771676D02*
X124957714Y-76866914D01*
X124957714Y-76866914D02*
X125005333Y-77057390D01*
X125005333Y-77057390D02*
X125005333Y-77200247D01*
X125005333Y-77200247D02*
X124957714Y-77390723D01*
X124957714Y-77390723D02*
X124910095Y-77485961D01*
X124910095Y-77485961D02*
X124814857Y-77581200D01*
X124814857Y-77581200D02*
X124672000Y-77628819D01*
X124672000Y-77628819D02*
X124433905Y-77628819D01*
X125338667Y-76628819D02*
X125957714Y-76628819D01*
X125957714Y-76628819D02*
X125624381Y-77009771D01*
X125624381Y-77009771D02*
X125767238Y-77009771D01*
X125767238Y-77009771D02*
X125862476Y-77057390D01*
X125862476Y-77057390D02*
X125910095Y-77105009D01*
X125910095Y-77105009D02*
X125957714Y-77200247D01*
X125957714Y-77200247D02*
X125957714Y-77438342D01*
X125957714Y-77438342D02*
X125910095Y-77533580D01*
X125910095Y-77533580D02*
X125862476Y-77581200D01*
X125862476Y-77581200D02*
X125767238Y-77628819D01*
X125767238Y-77628819D02*
X125481524Y-77628819D01*
X125481524Y-77628819D02*
X125386286Y-77581200D01*
X125386286Y-77581200D02*
X125338667Y-77533580D01*
X137804819Y-97738094D02*
X136804819Y-97738094D01*
X136804819Y-97738094D02*
X136804819Y-97499999D01*
X136804819Y-97499999D02*
X136852438Y-97357142D01*
X136852438Y-97357142D02*
X136947676Y-97261904D01*
X136947676Y-97261904D02*
X137042914Y-97214285D01*
X137042914Y-97214285D02*
X137233390Y-97166666D01*
X137233390Y-97166666D02*
X137376247Y-97166666D01*
X137376247Y-97166666D02*
X137566723Y-97214285D01*
X137566723Y-97214285D02*
X137661961Y-97261904D01*
X137661961Y-97261904D02*
X137757200Y-97357142D01*
X137757200Y-97357142D02*
X137804819Y-97499999D01*
X137804819Y-97499999D02*
X137804819Y-97738094D01*
X137804819Y-96214285D02*
X137804819Y-96785713D01*
X137804819Y-96499999D02*
X136804819Y-96499999D01*
X136804819Y-96499999D02*
X136947676Y-96595237D01*
X136947676Y-96595237D02*
X137042914Y-96690475D01*
X137042914Y-96690475D02*
X137090533Y-96785713D01*
X108985580Y-106250857D02*
X109033200Y-106298476D01*
X109033200Y-106298476D02*
X109080819Y-106441333D01*
X109080819Y-106441333D02*
X109080819Y-106536571D01*
X109080819Y-106536571D02*
X109033200Y-106679428D01*
X109033200Y-106679428D02*
X108937961Y-106774666D01*
X108937961Y-106774666D02*
X108842723Y-106822285D01*
X108842723Y-106822285D02*
X108652247Y-106869904D01*
X108652247Y-106869904D02*
X108509390Y-106869904D01*
X108509390Y-106869904D02*
X108318914Y-106822285D01*
X108318914Y-106822285D02*
X108223676Y-106774666D01*
X108223676Y-106774666D02*
X108128438Y-106679428D01*
X108128438Y-106679428D02*
X108080819Y-106536571D01*
X108080819Y-106536571D02*
X108080819Y-106441333D01*
X108080819Y-106441333D02*
X108128438Y-106298476D01*
X108128438Y-106298476D02*
X108176057Y-106250857D01*
X109080819Y-105298476D02*
X109080819Y-105869904D01*
X109080819Y-105584190D02*
X108080819Y-105584190D01*
X108080819Y-105584190D02*
X108223676Y-105679428D01*
X108223676Y-105679428D02*
X108318914Y-105774666D01*
X108318914Y-105774666D02*
X108366533Y-105869904D01*
X108176057Y-104917523D02*
X108128438Y-104869904D01*
X108128438Y-104869904D02*
X108080819Y-104774666D01*
X108080819Y-104774666D02*
X108080819Y-104536571D01*
X108080819Y-104536571D02*
X108128438Y-104441333D01*
X108128438Y-104441333D02*
X108176057Y-104393714D01*
X108176057Y-104393714D02*
X108271295Y-104346095D01*
X108271295Y-104346095D02*
X108366533Y-104346095D01*
X108366533Y-104346095D02*
X108509390Y-104393714D01*
X108509390Y-104393714D02*
X109080819Y-104965142D01*
X109080819Y-104965142D02*
X109080819Y-104346095D01*
X127238095Y-85574819D02*
X127238095Y-86384342D01*
X127238095Y-86384342D02*
X127285714Y-86479580D01*
X127285714Y-86479580D02*
X127333333Y-86527200D01*
X127333333Y-86527200D02*
X127428571Y-86574819D01*
X127428571Y-86574819D02*
X127619047Y-86574819D01*
X127619047Y-86574819D02*
X127714285Y-86527200D01*
X127714285Y-86527200D02*
X127761904Y-86479580D01*
X127761904Y-86479580D02*
X127809523Y-86384342D01*
X127809523Y-86384342D02*
X127809523Y-85574819D01*
X128809523Y-86574819D02*
X128238095Y-86574819D01*
X128523809Y-86574819D02*
X128523809Y-85574819D01*
X128523809Y-85574819D02*
X128428571Y-85717676D01*
X128428571Y-85717676D02*
X128333333Y-85812914D01*
X128333333Y-85812914D02*
X128238095Y-85860533D01*
X104393233Y-88022480D02*
X104345614Y-88070100D01*
X104345614Y-88070100D02*
X104202757Y-88117719D01*
X104202757Y-88117719D02*
X104107519Y-88117719D01*
X104107519Y-88117719D02*
X103964662Y-88070100D01*
X103964662Y-88070100D02*
X103869424Y-87974861D01*
X103869424Y-87974861D02*
X103821805Y-87879623D01*
X103821805Y-87879623D02*
X103774186Y-87689147D01*
X103774186Y-87689147D02*
X103774186Y-87546290D01*
X103774186Y-87546290D02*
X103821805Y-87355814D01*
X103821805Y-87355814D02*
X103869424Y-87260576D01*
X103869424Y-87260576D02*
X103964662Y-87165338D01*
X103964662Y-87165338D02*
X104107519Y-87117719D01*
X104107519Y-87117719D02*
X104202757Y-87117719D01*
X104202757Y-87117719D02*
X104345614Y-87165338D01*
X104345614Y-87165338D02*
X104393233Y-87212957D01*
X104774186Y-87212957D02*
X104821805Y-87165338D01*
X104821805Y-87165338D02*
X104917043Y-87117719D01*
X104917043Y-87117719D02*
X105155138Y-87117719D01*
X105155138Y-87117719D02*
X105250376Y-87165338D01*
X105250376Y-87165338D02*
X105297995Y-87212957D01*
X105297995Y-87212957D02*
X105345614Y-87308195D01*
X105345614Y-87308195D02*
X105345614Y-87403433D01*
X105345614Y-87403433D02*
X105297995Y-87546290D01*
X105297995Y-87546290D02*
X104726567Y-88117719D01*
X104726567Y-88117719D02*
X105345614Y-88117719D01*
X139709580Y-109642857D02*
X139757200Y-109690476D01*
X139757200Y-109690476D02*
X139804819Y-109833333D01*
X139804819Y-109833333D02*
X139804819Y-109928571D01*
X139804819Y-109928571D02*
X139757200Y-110071428D01*
X139757200Y-110071428D02*
X139661961Y-110166666D01*
X139661961Y-110166666D02*
X139566723Y-110214285D01*
X139566723Y-110214285D02*
X139376247Y-110261904D01*
X139376247Y-110261904D02*
X139233390Y-110261904D01*
X139233390Y-110261904D02*
X139042914Y-110214285D01*
X139042914Y-110214285D02*
X138947676Y-110166666D01*
X138947676Y-110166666D02*
X138852438Y-110071428D01*
X138852438Y-110071428D02*
X138804819Y-109928571D01*
X138804819Y-109928571D02*
X138804819Y-109833333D01*
X138804819Y-109833333D02*
X138852438Y-109690476D01*
X138852438Y-109690476D02*
X138900057Y-109642857D01*
X139804819Y-108690476D02*
X139804819Y-109261904D01*
X139804819Y-108976190D02*
X138804819Y-108976190D01*
X138804819Y-108976190D02*
X138947676Y-109071428D01*
X138947676Y-109071428D02*
X139042914Y-109166666D01*
X139042914Y-109166666D02*
X139090533Y-109261904D01*
X139804819Y-107738095D02*
X139804819Y-108309523D01*
X139804819Y-108023809D02*
X138804819Y-108023809D01*
X138804819Y-108023809D02*
X138947676Y-108119047D01*
X138947676Y-108119047D02*
X139042914Y-108214285D01*
X139042914Y-108214285D02*
X139090533Y-108309523D01*
X146357142Y-91609580D02*
X146309523Y-91657200D01*
X146309523Y-91657200D02*
X146166666Y-91704819D01*
X146166666Y-91704819D02*
X146071428Y-91704819D01*
X146071428Y-91704819D02*
X145928571Y-91657200D01*
X145928571Y-91657200D02*
X145833333Y-91561961D01*
X145833333Y-91561961D02*
X145785714Y-91466723D01*
X145785714Y-91466723D02*
X145738095Y-91276247D01*
X145738095Y-91276247D02*
X145738095Y-91133390D01*
X145738095Y-91133390D02*
X145785714Y-90942914D01*
X145785714Y-90942914D02*
X145833333Y-90847676D01*
X145833333Y-90847676D02*
X145928571Y-90752438D01*
X145928571Y-90752438D02*
X146071428Y-90704819D01*
X146071428Y-90704819D02*
X146166666Y-90704819D01*
X146166666Y-90704819D02*
X146309523Y-90752438D01*
X146309523Y-90752438D02*
X146357142Y-90800057D01*
X147309523Y-91704819D02*
X146738095Y-91704819D01*
X147023809Y-91704819D02*
X147023809Y-90704819D01*
X147023809Y-90704819D02*
X146928571Y-90847676D01*
X146928571Y-90847676D02*
X146833333Y-90942914D01*
X146833333Y-90942914D02*
X146738095Y-90990533D01*
X147928571Y-90704819D02*
X148023809Y-90704819D01*
X148023809Y-90704819D02*
X148119047Y-90752438D01*
X148119047Y-90752438D02*
X148166666Y-90800057D01*
X148166666Y-90800057D02*
X148214285Y-90895295D01*
X148214285Y-90895295D02*
X148261904Y-91085771D01*
X148261904Y-91085771D02*
X148261904Y-91323866D01*
X148261904Y-91323866D02*
X148214285Y-91514342D01*
X148214285Y-91514342D02*
X148166666Y-91609580D01*
X148166666Y-91609580D02*
X148119047Y-91657200D01*
X148119047Y-91657200D02*
X148023809Y-91704819D01*
X148023809Y-91704819D02*
X147928571Y-91704819D01*
X147928571Y-91704819D02*
X147833333Y-91657200D01*
X147833333Y-91657200D02*
X147785714Y-91609580D01*
X147785714Y-91609580D02*
X147738095Y-91514342D01*
X147738095Y-91514342D02*
X147690476Y-91323866D01*
X147690476Y-91323866D02*
X147690476Y-91085771D01*
X147690476Y-91085771D02*
X147738095Y-90895295D01*
X147738095Y-90895295D02*
X147785714Y-90800057D01*
X147785714Y-90800057D02*
X147833333Y-90752438D01*
X147833333Y-90752438D02*
X147928571Y-90704819D01*
X112051333Y-105680819D02*
X111575143Y-105680819D01*
X111575143Y-105680819D02*
X111575143Y-104680819D01*
X112908476Y-105680819D02*
X112337048Y-105680819D01*
X112622762Y-105680819D02*
X112622762Y-104680819D01*
X112622762Y-104680819D02*
X112527524Y-104823676D01*
X112527524Y-104823676D02*
X112432286Y-104918914D01*
X112432286Y-104918914D02*
X112337048Y-104966533D01*
X132491580Y-97649566D02*
X132539200Y-97697185D01*
X132539200Y-97697185D02*
X132586819Y-97840042D01*
X132586819Y-97840042D02*
X132586819Y-97935280D01*
X132586819Y-97935280D02*
X132539200Y-98078137D01*
X132539200Y-98078137D02*
X132443961Y-98173375D01*
X132443961Y-98173375D02*
X132348723Y-98220994D01*
X132348723Y-98220994D02*
X132158247Y-98268613D01*
X132158247Y-98268613D02*
X132015390Y-98268613D01*
X132015390Y-98268613D02*
X131824914Y-98220994D01*
X131824914Y-98220994D02*
X131729676Y-98173375D01*
X131729676Y-98173375D02*
X131634438Y-98078137D01*
X131634438Y-98078137D02*
X131586819Y-97935280D01*
X131586819Y-97935280D02*
X131586819Y-97840042D01*
X131586819Y-97840042D02*
X131634438Y-97697185D01*
X131634438Y-97697185D02*
X131682057Y-97649566D01*
X131586819Y-96792423D02*
X131586819Y-96982899D01*
X131586819Y-96982899D02*
X131634438Y-97078137D01*
X131634438Y-97078137D02*
X131682057Y-97125756D01*
X131682057Y-97125756D02*
X131824914Y-97220994D01*
X131824914Y-97220994D02*
X132015390Y-97268613D01*
X132015390Y-97268613D02*
X132396342Y-97268613D01*
X132396342Y-97268613D02*
X132491580Y-97220994D01*
X132491580Y-97220994D02*
X132539200Y-97173375D01*
X132539200Y-97173375D02*
X132586819Y-97078137D01*
X132586819Y-97078137D02*
X132586819Y-96887661D01*
X132586819Y-96887661D02*
X132539200Y-96792423D01*
X132539200Y-96792423D02*
X132491580Y-96744804D01*
X132491580Y-96744804D02*
X132396342Y-96697185D01*
X132396342Y-96697185D02*
X132158247Y-96697185D01*
X132158247Y-96697185D02*
X132063009Y-96744804D01*
X132063009Y-96744804D02*
X132015390Y-96792423D01*
X132015390Y-96792423D02*
X131967771Y-96887661D01*
X131967771Y-96887661D02*
X131967771Y-97078137D01*
X131967771Y-97078137D02*
X132015390Y-97173375D01*
X132015390Y-97173375D02*
X132063009Y-97220994D01*
X132063009Y-97220994D02*
X132158247Y-97268613D01*
X117813580Y-106318857D02*
X117861200Y-106366476D01*
X117861200Y-106366476D02*
X117908819Y-106509333D01*
X117908819Y-106509333D02*
X117908819Y-106604571D01*
X117908819Y-106604571D02*
X117861200Y-106747428D01*
X117861200Y-106747428D02*
X117765961Y-106842666D01*
X117765961Y-106842666D02*
X117670723Y-106890285D01*
X117670723Y-106890285D02*
X117480247Y-106937904D01*
X117480247Y-106937904D02*
X117337390Y-106937904D01*
X117337390Y-106937904D02*
X117146914Y-106890285D01*
X117146914Y-106890285D02*
X117051676Y-106842666D01*
X117051676Y-106842666D02*
X116956438Y-106747428D01*
X116956438Y-106747428D02*
X116908819Y-106604571D01*
X116908819Y-106604571D02*
X116908819Y-106509333D01*
X116908819Y-106509333D02*
X116956438Y-106366476D01*
X116956438Y-106366476D02*
X117004057Y-106318857D01*
X117908819Y-105366476D02*
X117908819Y-105937904D01*
X117908819Y-105652190D02*
X116908819Y-105652190D01*
X116908819Y-105652190D02*
X117051676Y-105747428D01*
X117051676Y-105747428D02*
X117146914Y-105842666D01*
X117146914Y-105842666D02*
X117194533Y-105937904D01*
X116908819Y-104461714D02*
X116908819Y-104937904D01*
X116908819Y-104937904D02*
X117385009Y-104985523D01*
X117385009Y-104985523D02*
X117337390Y-104937904D01*
X117337390Y-104937904D02*
X117289771Y-104842666D01*
X117289771Y-104842666D02*
X117289771Y-104604571D01*
X117289771Y-104604571D02*
X117337390Y-104509333D01*
X117337390Y-104509333D02*
X117385009Y-104461714D01*
X117385009Y-104461714D02*
X117480247Y-104414095D01*
X117480247Y-104414095D02*
X117718342Y-104414095D01*
X117718342Y-104414095D02*
X117813580Y-104461714D01*
X117813580Y-104461714D02*
X117861200Y-104509333D01*
X117861200Y-104509333D02*
X117908819Y-104604571D01*
X117908819Y-104604571D02*
X117908819Y-104842666D01*
X117908819Y-104842666D02*
X117861200Y-104937904D01*
X117861200Y-104937904D02*
X117813580Y-104985523D01*
X122126080Y-86572566D02*
X122173700Y-86620185D01*
X122173700Y-86620185D02*
X122221319Y-86763042D01*
X122221319Y-86763042D02*
X122221319Y-86858280D01*
X122221319Y-86858280D02*
X122173700Y-87001137D01*
X122173700Y-87001137D02*
X122078461Y-87096375D01*
X122078461Y-87096375D02*
X121983223Y-87143994D01*
X121983223Y-87143994D02*
X121792747Y-87191613D01*
X121792747Y-87191613D02*
X121649890Y-87191613D01*
X121649890Y-87191613D02*
X121459414Y-87143994D01*
X121459414Y-87143994D02*
X121364176Y-87096375D01*
X121364176Y-87096375D02*
X121268938Y-87001137D01*
X121268938Y-87001137D02*
X121221319Y-86858280D01*
X121221319Y-86858280D02*
X121221319Y-86763042D01*
X121221319Y-86763042D02*
X121268938Y-86620185D01*
X121268938Y-86620185D02*
X121316557Y-86572566D01*
X121221319Y-86239232D02*
X121221319Y-85572566D01*
X121221319Y-85572566D02*
X122221319Y-86001137D01*
X105684819Y-74333333D02*
X106399104Y-74333333D01*
X106399104Y-74333333D02*
X106541961Y-74380952D01*
X106541961Y-74380952D02*
X106637200Y-74476190D01*
X106637200Y-74476190D02*
X106684819Y-74619047D01*
X106684819Y-74619047D02*
X106684819Y-74714285D01*
X105684819Y-73380952D02*
X105684819Y-73857142D01*
X105684819Y-73857142D02*
X106161009Y-73904761D01*
X106161009Y-73904761D02*
X106113390Y-73857142D01*
X106113390Y-73857142D02*
X106065771Y-73761904D01*
X106065771Y-73761904D02*
X106065771Y-73523809D01*
X106065771Y-73523809D02*
X106113390Y-73428571D01*
X106113390Y-73428571D02*
X106161009Y-73380952D01*
X106161009Y-73380952D02*
X106256247Y-73333333D01*
X106256247Y-73333333D02*
X106494342Y-73333333D01*
X106494342Y-73333333D02*
X106589580Y-73380952D01*
X106589580Y-73380952D02*
X106637200Y-73428571D01*
X106637200Y-73428571D02*
X106684819Y-73523809D01*
X106684819Y-73523809D02*
X106684819Y-73761904D01*
X106684819Y-73761904D02*
X106637200Y-73857142D01*
X106637200Y-73857142D02*
X106589580Y-73904761D01*
X110166666Y-117954819D02*
X110166666Y-118669104D01*
X110166666Y-118669104D02*
X110119047Y-118811961D01*
X110119047Y-118811961D02*
X110023809Y-118907200D01*
X110023809Y-118907200D02*
X109880952Y-118954819D01*
X109880952Y-118954819D02*
X109785714Y-118954819D01*
X111071428Y-118288152D02*
X111071428Y-118954819D01*
X110833333Y-117907200D02*
X110595238Y-118621485D01*
X110595238Y-118621485D02*
X111214285Y-118621485D01*
X161724666Y-90669819D02*
X161724666Y-91384104D01*
X161724666Y-91384104D02*
X161677047Y-91526961D01*
X161677047Y-91526961D02*
X161581809Y-91622200D01*
X161581809Y-91622200D02*
X161438952Y-91669819D01*
X161438952Y-91669819D02*
X161343714Y-91669819D01*
X162629428Y-90669819D02*
X162438952Y-90669819D01*
X162438952Y-90669819D02*
X162343714Y-90717438D01*
X162343714Y-90717438D02*
X162296095Y-90765057D01*
X162296095Y-90765057D02*
X162200857Y-90907914D01*
X162200857Y-90907914D02*
X162153238Y-91098390D01*
X162153238Y-91098390D02*
X162153238Y-91479342D01*
X162153238Y-91479342D02*
X162200857Y-91574580D01*
X162200857Y-91574580D02*
X162248476Y-91622200D01*
X162248476Y-91622200D02*
X162343714Y-91669819D01*
X162343714Y-91669819D02*
X162534190Y-91669819D01*
X162534190Y-91669819D02*
X162629428Y-91622200D01*
X162629428Y-91622200D02*
X162677047Y-91574580D01*
X162677047Y-91574580D02*
X162724666Y-91479342D01*
X162724666Y-91479342D02*
X162724666Y-91241247D01*
X162724666Y-91241247D02*
X162677047Y-91146009D01*
X162677047Y-91146009D02*
X162629428Y-91098390D01*
X162629428Y-91098390D02*
X162534190Y-91050771D01*
X162534190Y-91050771D02*
X162343714Y-91050771D01*
X162343714Y-91050771D02*
X162248476Y-91098390D01*
X162248476Y-91098390D02*
X162200857Y-91146009D01*
X162200857Y-91146009D02*
X162153238Y-91241247D01*
X105916667Y-84657200D02*
X106059524Y-84704819D01*
X106059524Y-84704819D02*
X106297619Y-84704819D01*
X106297619Y-84704819D02*
X106392857Y-84657200D01*
X106392857Y-84657200D02*
X106440476Y-84609580D01*
X106440476Y-84609580D02*
X106488095Y-84514342D01*
X106488095Y-84514342D02*
X106488095Y-84419104D01*
X106488095Y-84419104D02*
X106440476Y-84323866D01*
X106440476Y-84323866D02*
X106392857Y-84276247D01*
X106392857Y-84276247D02*
X106297619Y-84228628D01*
X106297619Y-84228628D02*
X106107143Y-84181009D01*
X106107143Y-84181009D02*
X106011905Y-84133390D01*
X106011905Y-84133390D02*
X105964286Y-84085771D01*
X105964286Y-84085771D02*
X105916667Y-83990533D01*
X105916667Y-83990533D02*
X105916667Y-83895295D01*
X105916667Y-83895295D02*
X105964286Y-83800057D01*
X105964286Y-83800057D02*
X106011905Y-83752438D01*
X106011905Y-83752438D02*
X106107143Y-83704819D01*
X106107143Y-83704819D02*
X106345238Y-83704819D01*
X106345238Y-83704819D02*
X106488095Y-83752438D01*
X106821429Y-83704819D02*
X107059524Y-84704819D01*
X107059524Y-84704819D02*
X107250000Y-83990533D01*
X107250000Y-83990533D02*
X107440476Y-84704819D01*
X107440476Y-84704819D02*
X107678572Y-83704819D01*
X108011905Y-83800057D02*
X108059524Y-83752438D01*
X108059524Y-83752438D02*
X108154762Y-83704819D01*
X108154762Y-83704819D02*
X108392857Y-83704819D01*
X108392857Y-83704819D02*
X108488095Y-83752438D01*
X108488095Y-83752438D02*
X108535714Y-83800057D01*
X108535714Y-83800057D02*
X108583333Y-83895295D01*
X108583333Y-83895295D02*
X108583333Y-83990533D01*
X108583333Y-83990533D02*
X108535714Y-84133390D01*
X108535714Y-84133390D02*
X107964286Y-84704819D01*
X107964286Y-84704819D02*
X108583333Y-84704819D01*
X140063519Y-74333333D02*
X140777804Y-74333333D01*
X140777804Y-74333333D02*
X140920661Y-74380952D01*
X140920661Y-74380952D02*
X141015900Y-74476190D01*
X141015900Y-74476190D02*
X141063519Y-74619047D01*
X141063519Y-74619047D02*
X141063519Y-74714285D01*
X141063519Y-73333333D02*
X141063519Y-73904761D01*
X141063519Y-73619047D02*
X140063519Y-73619047D01*
X140063519Y-73619047D02*
X140206376Y-73714285D01*
X140206376Y-73714285D02*
X140301614Y-73809523D01*
X140301614Y-73809523D02*
X140349233Y-73904761D01*
X149816219Y-81039533D02*
X150530504Y-81039533D01*
X150530504Y-81039533D02*
X150673361Y-81087152D01*
X150673361Y-81087152D02*
X150768600Y-81182390D01*
X150768600Y-81182390D02*
X150816219Y-81325247D01*
X150816219Y-81325247D02*
X150816219Y-81420485D01*
X149911457Y-80610961D02*
X149863838Y-80563342D01*
X149863838Y-80563342D02*
X149816219Y-80468104D01*
X149816219Y-80468104D02*
X149816219Y-80230009D01*
X149816219Y-80230009D02*
X149863838Y-80134771D01*
X149863838Y-80134771D02*
X149911457Y-80087152D01*
X149911457Y-80087152D02*
X150006695Y-80039533D01*
X150006695Y-80039533D02*
X150101933Y-80039533D01*
X150101933Y-80039533D02*
X150244790Y-80087152D01*
X150244790Y-80087152D02*
X150816219Y-80658580D01*
X150816219Y-80658580D02*
X150816219Y-80039533D01*
X101722219Y-96965333D02*
X102436504Y-96965333D01*
X102436504Y-96965333D02*
X102579361Y-97012952D01*
X102579361Y-97012952D02*
X102674600Y-97108190D01*
X102674600Y-97108190D02*
X102722219Y-97251047D01*
X102722219Y-97251047D02*
X102722219Y-97346285D01*
X101722219Y-96584380D02*
X101722219Y-95917714D01*
X101722219Y-95917714D02*
X102722219Y-96346285D01*
X163420666Y-92486819D02*
X163420666Y-93201104D01*
X163420666Y-93201104D02*
X163373047Y-93343961D01*
X163373047Y-93343961D02*
X163277809Y-93439200D01*
X163277809Y-93439200D02*
X163134952Y-93486819D01*
X163134952Y-93486819D02*
X163039714Y-93486819D01*
X163801619Y-92486819D02*
X164420666Y-92486819D01*
X164420666Y-92486819D02*
X164087333Y-92867771D01*
X164087333Y-92867771D02*
X164230190Y-92867771D01*
X164230190Y-92867771D02*
X164325428Y-92915390D01*
X164325428Y-92915390D02*
X164373047Y-92963009D01*
X164373047Y-92963009D02*
X164420666Y-93058247D01*
X164420666Y-93058247D02*
X164420666Y-93296342D01*
X164420666Y-93296342D02*
X164373047Y-93391580D01*
X164373047Y-93391580D02*
X164325428Y-93439200D01*
X164325428Y-93439200D02*
X164230190Y-93486819D01*
X164230190Y-93486819D02*
X163944476Y-93486819D01*
X163944476Y-93486819D02*
X163849238Y-93439200D01*
X163849238Y-93439200D02*
X163801619Y-93391580D01*
D12*
X110669900Y-86466900D02*
X110669900Y-92216900D01*
X114269900Y-86466900D02*
X110669900Y-86466900D01*
X114269900Y-92216900D02*
X114269900Y-86466900D01*
X122373422Y-78736000D02*
X122890578Y-78736000D01*
X122373422Y-80156000D02*
X122890578Y-80156000D01*
X146690000Y-104065000D02*
X146690000Y-105935000D01*
X146690000Y-105935000D02*
X150600000Y-105935000D01*
X150600000Y-104065000D02*
X146690000Y-104065000D01*
X114464000Y-102559078D02*
X114464000Y-102041922D01*
X115884000Y-102559078D02*
X115884000Y-102041922D01*
X140162578Y-92452000D02*
X139645422Y-92452000D01*
X140162578Y-93872000D02*
X139645422Y-93872000D01*
X105666000Y-102496578D02*
X105666000Y-101979422D01*
X107086000Y-102496578D02*
X107086000Y-101979422D01*
X143290000Y-108803922D02*
X143290000Y-109321078D01*
X144710000Y-108803922D02*
X144710000Y-109321078D01*
X141040000Y-95377500D02*
X141040000Y-98062500D01*
X142960000Y-95377500D02*
X141040000Y-95377500D01*
X142960000Y-98062500D02*
X142960000Y-95377500D01*
X141290000Y-102196078D02*
X141290000Y-101678922D01*
X142710000Y-102196078D02*
X142710000Y-101678922D01*
X123042378Y-82180600D02*
X122525222Y-82180600D01*
X123042378Y-83600600D02*
X122525222Y-83600600D01*
X144590000Y-97150000D02*
X144590000Y-100910000D01*
X144590000Y-100910000D02*
X145850000Y-100910000D01*
X151410000Y-94900000D02*
X151410000Y-100910000D01*
X151410000Y-100910000D02*
X150150000Y-100910000D01*
X150000000Y-110500000D02*
X150000000Y-115000000D01*
X152500000Y-116250000D02*
X154000000Y-116250000D01*
X154000000Y-109250000D02*
X152500000Y-109250000D01*
X156500000Y-115000000D02*
X156500000Y-110500000D01*
X107790978Y-90806900D02*
X107273822Y-90806900D01*
X107790978Y-92226900D02*
X107273822Y-92226900D01*
X120868500Y-76200000D02*
X120868500Y-78120000D01*
X120868500Y-78120000D02*
X123553500Y-78120000D01*
X123553500Y-76200000D02*
X120868500Y-76200000D01*
X138040000Y-96000000D02*
X138040000Y-98685000D01*
X138040000Y-98685000D02*
X139960000Y-98685000D01*
X139960000Y-98685000D02*
X139960000Y-96000000D01*
X107952000Y-102496578D02*
X107952000Y-101979422D01*
X109372000Y-102496578D02*
X109372000Y-101979422D01*
X124390000Y-88390000D02*
X124390000Y-88690000D01*
X124390000Y-88690000D02*
X123075000Y-88690000D01*
X124390000Y-95610000D02*
X124390000Y-95310000D01*
X124690000Y-88390000D02*
X124390000Y-88390000D01*
X124690000Y-95610000D02*
X124390000Y-95610000D01*
X131310000Y-88390000D02*
X131610000Y-88390000D01*
X131310000Y-95610000D02*
X131610000Y-95610000D01*
X131610000Y-88390000D02*
X131610000Y-88690000D01*
X131610000Y-95610000D02*
X131610000Y-95310000D01*
X107728478Y-86806900D02*
X107211322Y-86806900D01*
X107728478Y-88226900D02*
X107211322Y-88226900D01*
X140290000Y-109258578D02*
X140290000Y-108741422D01*
X141710000Y-109258578D02*
X141710000Y-108741422D01*
X144690000Y-92065000D02*
X144690000Y-93935000D01*
X144690000Y-93935000D02*
X148600000Y-93935000D01*
X148600000Y-92065000D02*
X144690000Y-92065000D01*
X112476578Y-102866000D02*
X111959422Y-102866000D01*
X112476578Y-104286000D02*
X111959422Y-104286000D01*
X133072000Y-97741478D02*
X133072000Y-97224322D01*
X134492000Y-97741478D02*
X134492000Y-97224322D01*
X116588000Y-102564578D02*
X116588000Y-102047422D01*
X118008000Y-102564578D02*
X118008000Y-102047422D01*
X122594500Y-86111822D02*
X122594500Y-86628978D01*
X124014500Y-86111822D02*
X124014500Y-86628978D01*
X107670000Y-72670000D02*
X109000000Y-72670000D01*
X107670000Y-74000000D02*
X107670000Y-72670000D01*
X110270000Y-72670000D02*
X128110000Y-72670000D01*
X110270000Y-75330000D02*
X110270000Y-72670000D01*
X110270000Y-75330000D02*
X128110000Y-75330000D01*
X128110000Y-75330000D02*
X128110000Y-72670000D01*
X107670000Y-114670000D02*
X109000000Y-114670000D01*
X107670000Y-116000000D02*
X107670000Y-114670000D01*
X110270000Y-114670000D02*
X148430000Y-114670000D01*
X110270000Y-117330000D02*
X110270000Y-114670000D01*
X110270000Y-117330000D02*
X148430000Y-117330000D01*
X148430000Y-117330000D02*
X148430000Y-114670000D01*
X160293000Y-83810000D02*
X160293000Y-83745000D01*
X160293000Y-90215000D02*
X160293000Y-90150000D01*
X163823000Y-83745000D02*
X160293000Y-83745000D01*
X163823000Y-83810000D02*
X163823000Y-83745000D01*
X163823000Y-90215000D02*
X160293000Y-90215000D01*
X163823000Y-90215000D02*
X163823000Y-90150000D01*
X165148000Y-90150000D02*
X163823000Y-90150000D01*
X109558000Y-77187800D02*
X109558000Y-78570800D01*
X109558000Y-77187800D02*
X110941000Y-77187800D01*
X109798000Y-77427800D02*
X109798000Y-78737800D01*
X109798000Y-77427800D02*
X116618000Y-77427800D01*
X109798000Y-80337800D02*
X109798000Y-81277800D01*
X109798000Y-82877800D02*
X109798000Y-84187800D01*
X109798000Y-84187800D02*
X116618000Y-84187800D01*
X111398000Y-78902800D02*
X111398000Y-80172800D01*
X111398000Y-79022800D02*
X112604667Y-79022800D01*
X111398000Y-79142800D02*
X112604667Y-79142800D01*
X111398000Y-79262800D02*
X112604667Y-79262800D01*
X111398000Y-79382800D02*
X112604667Y-79382800D01*
X111398000Y-79502800D02*
X112604667Y-79502800D01*
X111398000Y-79622800D02*
X112604667Y-79622800D01*
X111398000Y-79742800D02*
X112604667Y-79742800D01*
X111398000Y-79862800D02*
X112604667Y-79862800D01*
X111398000Y-79982800D02*
X112604667Y-79982800D01*
X111398000Y-80102800D02*
X112604667Y-80102800D01*
X111398000Y-80172800D02*
X115018000Y-80172800D01*
X111398000Y-81442800D02*
X111398000Y-82712800D01*
X111398000Y-81562800D02*
X112604667Y-81562800D01*
X111398000Y-81682800D02*
X112604667Y-81682800D01*
X111398000Y-81802800D02*
X112604667Y-81802800D01*
X111398000Y-81922800D02*
X112604667Y-81922800D01*
X111398000Y-82042800D02*
X112604667Y-82042800D01*
X111398000Y-82162800D02*
X112604667Y-82162800D01*
X111398000Y-82282800D02*
X112604667Y-82282800D01*
X111398000Y-82402800D02*
X112604667Y-82402800D01*
X111398000Y-82522800D02*
X112604667Y-82522800D01*
X111398000Y-82642800D02*
X112604667Y-82642800D01*
X111398000Y-82712800D02*
X115018000Y-82712800D01*
X112604667Y-78902800D02*
X112604667Y-80172800D01*
X112604667Y-81442800D02*
X112604667Y-82712800D01*
X115018000Y-78902800D02*
X111398000Y-78902800D01*
X115018000Y-80172800D02*
X115018000Y-78902800D01*
X115018000Y-81442800D02*
X111398000Y-81442800D01*
X115018000Y-82712800D02*
X115018000Y-81442800D01*
X116618000Y-77427800D02*
X116618000Y-78737800D01*
X116618000Y-80337800D02*
X116618000Y-81277800D01*
X116618000Y-82877800D02*
X116618000Y-84187800D01*
X141608700Y-75330000D02*
X141608700Y-74000000D01*
X142938700Y-75330000D02*
X141608700Y-75330000D01*
X144208700Y-72670000D02*
X156968700Y-72670000D01*
X144208700Y-75330000D02*
X144208700Y-72670000D01*
X144208700Y-75330000D02*
X156968700Y-75330000D01*
X156968700Y-75330000D02*
X156968700Y-72670000D01*
X141621400Y-78106200D02*
X141621400Y-83306200D01*
X146761400Y-78106200D02*
X141621400Y-78106200D01*
X146761400Y-78106200D02*
X146761400Y-80706200D01*
X146761400Y-80706200D02*
X149361400Y-80706200D01*
X148031400Y-78106200D02*
X149361400Y-78106200D01*
X149361400Y-78106200D02*
X149361400Y-79436200D01*
X149361400Y-80706200D02*
X149361400Y-83306200D01*
X149361400Y-83306200D02*
X141621400Y-83306200D01*
X103267400Y-94032000D02*
X111007400Y-94032000D01*
X103267400Y-96632000D02*
X103267400Y-94032000D01*
X103267400Y-99232000D02*
X103267400Y-97902000D01*
X104597400Y-99232000D02*
X103267400Y-99232000D01*
X105867400Y-96632000D02*
X103267400Y-96632000D01*
X105867400Y-99232000D02*
X105867400Y-96632000D01*
X105867400Y-99232000D02*
X111007400Y-99232000D01*
X111007400Y-99232000D02*
X111007400Y-94032000D01*
X162424000Y-94032000D02*
X163754000Y-94032000D01*
X162424000Y-95362000D02*
X162424000Y-94032000D01*
X162424000Y-96632000D02*
X162424000Y-109392000D01*
X162424000Y-96632000D02*
X165084000Y-96632000D01*
X162424000Y-109392000D02*
X165084000Y-109392000D01*
X165084000Y-96632000D02*
X165084000Y-109392000D01*
%LPC*%
D13*
X165000000Y-116000000D03*
X165000000Y-74000000D03*
X104000000Y-74000000D03*
X104000000Y-116000000D03*
G36*
G01*
X111269900Y-86616900D02*
X113669900Y-86616900D01*
G75*
G02*
X113719900Y-86666900I0J-50000D01*
G01*
X113719900Y-88666900D01*
G75*
G02*
X113669900Y-88716900I-50000J0D01*
G01*
X111269900Y-88716900D01*
G75*
G02*
X111219900Y-88666900I0J50000D01*
G01*
X111219900Y-86666900D01*
G75*
G02*
X111269900Y-86616900I50000J0D01*
G01*
G37*
G36*
G01*
X111269900Y-90316900D02*
X113669900Y-90316900D01*
G75*
G02*
X113719900Y-90366900I0J-50000D01*
G01*
X113719900Y-92366900D01*
G75*
G02*
X113669900Y-92416900I-50000J0D01*
G01*
X111269900Y-92416900D01*
G75*
G02*
X111219900Y-92366900I0J50000D01*
G01*
X111219900Y-90366900D01*
G75*
G02*
X111269900Y-90316900I50000J0D01*
G01*
G37*
G36*
G01*
X121157000Y-79927250D02*
X121157000Y-78964750D01*
G75*
G02*
X121425750Y-78696000I268750J0D01*
G01*
X121963250Y-78696000D01*
G75*
G02*
X122232000Y-78964750I0J-268750D01*
G01*
X122232000Y-79927250D01*
G75*
G02*
X121963250Y-80196000I-268750J0D01*
G01*
X121425750Y-80196000D01*
G75*
G02*
X121157000Y-79927250I0J268750D01*
G01*
G37*
G36*
G01*
X123032000Y-79927250D02*
X123032000Y-78964750D01*
G75*
G02*
X123300750Y-78696000I268750J0D01*
G01*
X123838250Y-78696000D01*
G75*
G02*
X124107000Y-78964750I0J-268750D01*
G01*
X124107000Y-79927250D01*
G75*
G02*
X123838250Y-80196000I-268750J0D01*
G01*
X123300750Y-80196000D01*
G75*
G02*
X123032000Y-79927250I0J268750D01*
G01*
G37*
G36*
G01*
X146900000Y-105456482D02*
X146900000Y-104543518D01*
G75*
G02*
X147168518Y-104275000I268518J0D01*
G01*
X148131482Y-104275000D01*
G75*
G02*
X148400000Y-104543518I0J-268518D01*
G01*
X148400000Y-105456482D01*
G75*
G02*
X148131482Y-105725000I-268518J0D01*
G01*
X147168518Y-105725000D01*
G75*
G02*
X146900000Y-105456482I0J268518D01*
G01*
G37*
G36*
G01*
X149600000Y-105456482D02*
X149600000Y-104543518D01*
G75*
G02*
X149868518Y-104275000I268518J0D01*
G01*
X150831482Y-104275000D01*
G75*
G02*
X151100000Y-104543518I0J-268518D01*
G01*
X151100000Y-105456482D01*
G75*
G02*
X150831482Y-105725000I-268518J0D01*
G01*
X149868518Y-105725000D01*
G75*
G02*
X149600000Y-105456482I0J268518D01*
G01*
G37*
G36*
G01*
X115655250Y-103775500D02*
X114692750Y-103775500D01*
G75*
G02*
X114424000Y-103506750I0J268750D01*
G01*
X114424000Y-102969250D01*
G75*
G02*
X114692750Y-102700500I268750J0D01*
G01*
X115655250Y-102700500D01*
G75*
G02*
X115924000Y-102969250I0J-268750D01*
G01*
X115924000Y-103506750D01*
G75*
G02*
X115655250Y-103775500I-268750J0D01*
G01*
G37*
G36*
G01*
X115655250Y-101900500D02*
X114692750Y-101900500D01*
G75*
G02*
X114424000Y-101631750I0J268750D01*
G01*
X114424000Y-101094250D01*
G75*
G02*
X114692750Y-100825500I268750J0D01*
G01*
X115655250Y-100825500D01*
G75*
G02*
X115924000Y-101094250I0J-268750D01*
G01*
X115924000Y-101631750D01*
G75*
G02*
X115655250Y-101900500I-268750J0D01*
G01*
G37*
G36*
G01*
X141379000Y-92680750D02*
X141379000Y-93643250D01*
G75*
G02*
X141110250Y-93912000I-268750J0D01*
G01*
X140572750Y-93912000D01*
G75*
G02*
X140304000Y-93643250I0J268750D01*
G01*
X140304000Y-92680750D01*
G75*
G02*
X140572750Y-92412000I268750J0D01*
G01*
X141110250Y-92412000D01*
G75*
G02*
X141379000Y-92680750I0J-268750D01*
G01*
G37*
G36*
G01*
X139504000Y-92680750D02*
X139504000Y-93643250D01*
G75*
G02*
X139235250Y-93912000I-268750J0D01*
G01*
X138697750Y-93912000D01*
G75*
G02*
X138429000Y-93643250I0J268750D01*
G01*
X138429000Y-92680750D01*
G75*
G02*
X138697750Y-92412000I268750J0D01*
G01*
X139235250Y-92412000D01*
G75*
G02*
X139504000Y-92680750I0J-268750D01*
G01*
G37*
G36*
G01*
X106857250Y-103713000D02*
X105894750Y-103713000D01*
G75*
G02*
X105626000Y-103444250I0J268750D01*
G01*
X105626000Y-102906750D01*
G75*
G02*
X105894750Y-102638000I268750J0D01*
G01*
X106857250Y-102638000D01*
G75*
G02*
X107126000Y-102906750I0J-268750D01*
G01*
X107126000Y-103444250D01*
G75*
G02*
X106857250Y-103713000I-268750J0D01*
G01*
G37*
G36*
G01*
X106857250Y-101838000D02*
X105894750Y-101838000D01*
G75*
G02*
X105626000Y-101569250I0J268750D01*
G01*
X105626000Y-101031750D01*
G75*
G02*
X105894750Y-100763000I268750J0D01*
G01*
X106857250Y-100763000D01*
G75*
G02*
X107126000Y-101031750I0J-268750D01*
G01*
X107126000Y-101569250D01*
G75*
G02*
X106857250Y-101838000I-268750J0D01*
G01*
G37*
G36*
G01*
X143518750Y-107587500D02*
X144481250Y-107587500D01*
G75*
G02*
X144750000Y-107856250I0J-268750D01*
G01*
X144750000Y-108393750D01*
G75*
G02*
X144481250Y-108662500I-268750J0D01*
G01*
X143518750Y-108662500D01*
G75*
G02*
X143250000Y-108393750I0J268750D01*
G01*
X143250000Y-107856250D01*
G75*
G02*
X143518750Y-107587500I268750J0D01*
G01*
G37*
G36*
G01*
X143518750Y-109462500D02*
X144481250Y-109462500D01*
G75*
G02*
X144750000Y-109731250I0J-268750D01*
G01*
X144750000Y-110268750D01*
G75*
G02*
X144481250Y-110537500I-268750J0D01*
G01*
X143518750Y-110537500D01*
G75*
G02*
X143250000Y-110268750I0J268750D01*
G01*
X143250000Y-109731250D01*
G75*
G02*
X143518750Y-109462500I268750J0D01*
G01*
G37*
G36*
G01*
X141518750Y-95587500D02*
X142481250Y-95587500D01*
G75*
G02*
X142750000Y-95856250I0J-268750D01*
G01*
X142750000Y-96393750D01*
G75*
G02*
X142481250Y-96662500I-268750J0D01*
G01*
X141518750Y-96662500D01*
G75*
G02*
X141250000Y-96393750I0J268750D01*
G01*
X141250000Y-95856250D01*
G75*
G02*
X141518750Y-95587500I268750J0D01*
G01*
G37*
G36*
G01*
X141518750Y-97462500D02*
X142481250Y-97462500D01*
G75*
G02*
X142750000Y-97731250I0J-268750D01*
G01*
X142750000Y-98268750D01*
G75*
G02*
X142481250Y-98537500I-268750J0D01*
G01*
X141518750Y-98537500D01*
G75*
G02*
X141250000Y-98268750I0J268750D01*
G01*
X141250000Y-97731250D01*
G75*
G02*
X141518750Y-97462500I268750J0D01*
G01*
G37*
G36*
G01*
X142481250Y-103412500D02*
X141518750Y-103412500D01*
G75*
G02*
X141250000Y-103143750I0J268750D01*
G01*
X141250000Y-102606250D01*
G75*
G02*
X141518750Y-102337500I268750J0D01*
G01*
X142481250Y-102337500D01*
G75*
G02*
X142750000Y-102606250I0J-268750D01*
G01*
X142750000Y-103143750D01*
G75*
G02*
X142481250Y-103412500I-268750J0D01*
G01*
G37*
G36*
G01*
X142481250Y-101537500D02*
X141518750Y-101537500D01*
G75*
G02*
X141250000Y-101268750I0J268750D01*
G01*
X141250000Y-100731250D01*
G75*
G02*
X141518750Y-100462500I268750J0D01*
G01*
X142481250Y-100462500D01*
G75*
G02*
X142750000Y-100731250I0J-268750D01*
G01*
X142750000Y-101268750D01*
G75*
G02*
X142481250Y-101537500I-268750J0D01*
G01*
G37*
G36*
G01*
X124258800Y-82409350D02*
X124258800Y-83371850D01*
G75*
G02*
X123990050Y-83640600I-268750J0D01*
G01*
X123452550Y-83640600D01*
G75*
G02*
X123183800Y-83371850I0J268750D01*
G01*
X123183800Y-82409350D01*
G75*
G02*
X123452550Y-82140600I268750J0D01*
G01*
X123990050Y-82140600D01*
G75*
G02*
X124258800Y-82409350I0J-268750D01*
G01*
G37*
G36*
G01*
X122383800Y-82409350D02*
X122383800Y-83371850D01*
G75*
G02*
X122115050Y-83640600I-268750J0D01*
G01*
X121577550Y-83640600D01*
G75*
G02*
X121308800Y-83371850I0J268750D01*
G01*
X121308800Y-82409350D01*
G75*
G02*
X121577550Y-82140600I268750J0D01*
G01*
X122115050Y-82140600D01*
G75*
G02*
X122383800Y-82409350I0J-268750D01*
G01*
G37*
G36*
G01*
X149550000Y-94800000D02*
X151050000Y-94800000D01*
G75*
G02*
X151100000Y-94850000I0J-50000D01*
G01*
X151100000Y-96850000D01*
G75*
G02*
X151050000Y-96900000I-50000J0D01*
G01*
X149550000Y-96900000D01*
G75*
G02*
X149500000Y-96850000I0J50000D01*
G01*
X149500000Y-94850000D01*
G75*
G02*
X149550000Y-94800000I50000J0D01*
G01*
G37*
G36*
G01*
X147250000Y-94800000D02*
X148750000Y-94800000D01*
G75*
G02*
X148800000Y-94850000I0J-50000D01*
G01*
X148800000Y-96850000D01*
G75*
G02*
X148750000Y-96900000I-50000J0D01*
G01*
X147250000Y-96900000D01*
G75*
G02*
X147200000Y-96850000I0J50000D01*
G01*
X147200000Y-94850000D01*
G75*
G02*
X147250000Y-94800000I50000J0D01*
G01*
G37*
G36*
G01*
X146100000Y-101100000D02*
X149900000Y-101100000D01*
G75*
G02*
X149950000Y-101150000I0J-50000D01*
G01*
X149950000Y-103150000D01*
G75*
G02*
X149900000Y-103200000I-50000J0D01*
G01*
X146100000Y-103200000D01*
G75*
G02*
X146050000Y-103150000I0J50000D01*
G01*
X146050000Y-101150000D01*
G75*
G02*
X146100000Y-101100000I50000J0D01*
G01*
G37*
G36*
G01*
X144950000Y-94800000D02*
X146450000Y-94800000D01*
G75*
G02*
X146500000Y-94850000I0J-50000D01*
G01*
X146500000Y-96850000D01*
G75*
G02*
X146450000Y-96900000I-50000J0D01*
G01*
X144950000Y-96900000D01*
G75*
G02*
X144900000Y-96850000I0J50000D01*
G01*
X144900000Y-94850000D01*
G75*
G02*
X144950000Y-94800000I50000J0D01*
G01*
G37*
D14*
X151000000Y-116000000D03*
X151000000Y-109500000D03*
X155500000Y-116000000D03*
X155500000Y-109500000D03*
G36*
G01*
X109007400Y-91035650D02*
X109007400Y-91998150D01*
G75*
G02*
X108738650Y-92266900I-268750J0D01*
G01*
X108201150Y-92266900D01*
G75*
G02*
X107932400Y-91998150I0J268750D01*
G01*
X107932400Y-91035650D01*
G75*
G02*
X108201150Y-90766900I268750J0D01*
G01*
X108738650Y-90766900D01*
G75*
G02*
X109007400Y-91035650I0J-268750D01*
G01*
G37*
G36*
G01*
X107132400Y-91035650D02*
X107132400Y-91998150D01*
G75*
G02*
X106863650Y-92266900I-268750J0D01*
G01*
X106326150Y-92266900D01*
G75*
G02*
X106057400Y-91998150I0J268750D01*
G01*
X106057400Y-91035650D01*
G75*
G02*
X106326150Y-90766900I268750J0D01*
G01*
X106863650Y-90766900D01*
G75*
G02*
X107132400Y-91035650I0J-268750D01*
G01*
G37*
G36*
G01*
X121078500Y-77641250D02*
X121078500Y-76678750D01*
G75*
G02*
X121347250Y-76410000I268750J0D01*
G01*
X121884750Y-76410000D01*
G75*
G02*
X122153500Y-76678750I0J-268750D01*
G01*
X122153500Y-77641250D01*
G75*
G02*
X121884750Y-77910000I-268750J0D01*
G01*
X121347250Y-77910000D01*
G75*
G02*
X121078500Y-77641250I0J268750D01*
G01*
G37*
G36*
G01*
X122953500Y-77641250D02*
X122953500Y-76678750D01*
G75*
G02*
X123222250Y-76410000I268750J0D01*
G01*
X123759750Y-76410000D01*
G75*
G02*
X124028500Y-76678750I0J-268750D01*
G01*
X124028500Y-77641250D01*
G75*
G02*
X123759750Y-77910000I-268750J0D01*
G01*
X123222250Y-77910000D01*
G75*
G02*
X122953500Y-77641250I0J268750D01*
G01*
G37*
G36*
G01*
X139481250Y-98475000D02*
X138518750Y-98475000D01*
G75*
G02*
X138250000Y-98206250I0J268750D01*
G01*
X138250000Y-97668750D01*
G75*
G02*
X138518750Y-97400000I268750J0D01*
G01*
X139481250Y-97400000D01*
G75*
G02*
X139750000Y-97668750I0J-268750D01*
G01*
X139750000Y-98206250D01*
G75*
G02*
X139481250Y-98475000I-268750J0D01*
G01*
G37*
G36*
G01*
X139481250Y-96600000D02*
X138518750Y-96600000D01*
G75*
G02*
X138250000Y-96331250I0J268750D01*
G01*
X138250000Y-95793750D01*
G75*
G02*
X138518750Y-95525000I268750J0D01*
G01*
X139481250Y-95525000D01*
G75*
G02*
X139750000Y-95793750I0J-268750D01*
G01*
X139750000Y-96331250D01*
G75*
G02*
X139481250Y-96600000I-268750J0D01*
G01*
G37*
G36*
G01*
X109143250Y-103713000D02*
X108180750Y-103713000D01*
G75*
G02*
X107912000Y-103444250I0J268750D01*
G01*
X107912000Y-102906750D01*
G75*
G02*
X108180750Y-102638000I268750J0D01*
G01*
X109143250Y-102638000D01*
G75*
G02*
X109412000Y-102906750I0J-268750D01*
G01*
X109412000Y-103444250D01*
G75*
G02*
X109143250Y-103713000I-268750J0D01*
G01*
G37*
G36*
G01*
X109143250Y-101838000D02*
X108180750Y-101838000D01*
G75*
G02*
X107912000Y-101569250I0J268750D01*
G01*
X107912000Y-101031750D01*
G75*
G02*
X108180750Y-100763000I268750J0D01*
G01*
X109143250Y-100763000D01*
G75*
G02*
X109412000Y-101031750I0J-268750D01*
G01*
X109412000Y-101569250D01*
G75*
G02*
X109143250Y-101838000I-268750J0D01*
G01*
G37*
G36*
G01*
X123025000Y-89350000D02*
X123025000Y-89050000D01*
G75*
G02*
X123175000Y-88900000I150000J0D01*
G01*
X124475000Y-88900000D01*
G75*
G02*
X124625000Y-89050000I0J-150000D01*
G01*
X124625000Y-89350000D01*
G75*
G02*
X124475000Y-89500000I-150000J0D01*
G01*
X123175000Y-89500000D01*
G75*
G02*
X123025000Y-89350000I0J150000D01*
G01*
G37*
G36*
G01*
X123025000Y-90150000D02*
X123025000Y-89850000D01*
G75*
G02*
X123175000Y-89700000I150000J0D01*
G01*
X124475000Y-89700000D01*
G75*
G02*
X124625000Y-89850000I0J-150000D01*
G01*
X124625000Y-90150000D01*
G75*
G02*
X124475000Y-90300000I-150000J0D01*
G01*
X123175000Y-90300000D01*
G75*
G02*
X123025000Y-90150000I0J150000D01*
G01*
G37*
G36*
G01*
X123025000Y-90950000D02*
X123025000Y-90650000D01*
G75*
G02*
X123175000Y-90500000I150000J0D01*
G01*
X124475000Y-90500000D01*
G75*
G02*
X124625000Y-90650000I0J-150000D01*
G01*
X124625000Y-90950000D01*
G75*
G02*
X124475000Y-91100000I-150000J0D01*
G01*
X123175000Y-91100000D01*
G75*
G02*
X123025000Y-90950000I0J150000D01*
G01*
G37*
G36*
G01*
X123025000Y-91750000D02*
X123025000Y-91450000D01*
G75*
G02*
X123175000Y-91300000I150000J0D01*
G01*
X124475000Y-91300000D01*
G75*
G02*
X124625000Y-91450000I0J-150000D01*
G01*
X124625000Y-91750000D01*
G75*
G02*
X124475000Y-91900000I-150000J0D01*
G01*
X123175000Y-91900000D01*
G75*
G02*
X123025000Y-91750000I0J150000D01*
G01*
G37*
G36*
G01*
X123025000Y-92550000D02*
X123025000Y-92250000D01*
G75*
G02*
X123175000Y-92100000I150000J0D01*
G01*
X124475000Y-92100000D01*
G75*
G02*
X124625000Y-92250000I0J-150000D01*
G01*
X124625000Y-92550000D01*
G75*
G02*
X124475000Y-92700000I-150000J0D01*
G01*
X123175000Y-92700000D01*
G75*
G02*
X123025000Y-92550000I0J150000D01*
G01*
G37*
G36*
G01*
X123025000Y-93350000D02*
X123025000Y-93050000D01*
G75*
G02*
X123175000Y-92900000I150000J0D01*
G01*
X124475000Y-92900000D01*
G75*
G02*
X124625000Y-93050000I0J-150000D01*
G01*
X124625000Y-93350000D01*
G75*
G02*
X124475000Y-93500000I-150000J0D01*
G01*
X123175000Y-93500000D01*
G75*
G02*
X123025000Y-93350000I0J150000D01*
G01*
G37*
G36*
G01*
X123025000Y-94150000D02*
X123025000Y-93850000D01*
G75*
G02*
X123175000Y-93700000I150000J0D01*
G01*
X124475000Y-93700000D01*
G75*
G02*
X124625000Y-93850000I0J-150000D01*
G01*
X124625000Y-94150000D01*
G75*
G02*
X124475000Y-94300000I-150000J0D01*
G01*
X123175000Y-94300000D01*
G75*
G02*
X123025000Y-94150000I0J150000D01*
G01*
G37*
G36*
G01*
X123025000Y-94950000D02*
X123025000Y-94650000D01*
G75*
G02*
X123175000Y-94500000I150000J0D01*
G01*
X124475000Y-94500000D01*
G75*
G02*
X124625000Y-94650000I0J-150000D01*
G01*
X124625000Y-94950000D01*
G75*
G02*
X124475000Y-95100000I-150000J0D01*
G01*
X123175000Y-95100000D01*
G75*
G02*
X123025000Y-94950000I0J150000D01*
G01*
G37*
G36*
G01*
X124900000Y-96825000D02*
X124900000Y-95525000D01*
G75*
G02*
X125050000Y-95375000I150000J0D01*
G01*
X125350000Y-95375000D01*
G75*
G02*
X125500000Y-95525000I0J-150000D01*
G01*
X125500000Y-96825000D01*
G75*
G02*
X125350000Y-96975000I-150000J0D01*
G01*
X125050000Y-96975000D01*
G75*
G02*
X124900000Y-96825000I0J150000D01*
G01*
G37*
G36*
G01*
X125700000Y-96825000D02*
X125700000Y-95525000D01*
G75*
G02*
X125850000Y-95375000I150000J0D01*
G01*
X126150000Y-95375000D01*
G75*
G02*
X126300000Y-95525000I0J-150000D01*
G01*
X126300000Y-96825000D01*
G75*
G02*
X126150000Y-96975000I-150000J0D01*
G01*
X125850000Y-96975000D01*
G75*
G02*
X125700000Y-96825000I0J150000D01*
G01*
G37*
G36*
G01*
X126500000Y-96825000D02*
X126500000Y-95525000D01*
G75*
G02*
X126650000Y-95375000I150000J0D01*
G01*
X126950000Y-95375000D01*
G75*
G02*
X127100000Y-95525000I0J-150000D01*
G01*
X127100000Y-96825000D01*
G75*
G02*
X126950000Y-96975000I-150000J0D01*
G01*
X126650000Y-96975000D01*
G75*
G02*
X126500000Y-96825000I0J150000D01*
G01*
G37*
G36*
G01*
X127300000Y-96825000D02*
X127300000Y-95525000D01*
G75*
G02*
X127450000Y-95375000I150000J0D01*
G01*
X127750000Y-95375000D01*
G75*
G02*
X127900000Y-95525000I0J-150000D01*
G01*
X127900000Y-96825000D01*
G75*
G02*
X127750000Y-96975000I-150000J0D01*
G01*
X127450000Y-96975000D01*
G75*
G02*
X127300000Y-96825000I0J150000D01*
G01*
G37*
G36*
G01*
X128100000Y-96825000D02*
X128100000Y-95525000D01*
G75*
G02*
X128250000Y-95375000I150000J0D01*
G01*
X128550000Y-95375000D01*
G75*
G02*
X128700000Y-95525000I0J-150000D01*
G01*
X128700000Y-96825000D01*
G75*
G02*
X128550000Y-96975000I-150000J0D01*
G01*
X128250000Y-96975000D01*
G75*
G02*
X128100000Y-96825000I0J150000D01*
G01*
G37*
G36*
G01*
X128900000Y-96825000D02*
X128900000Y-95525000D01*
G75*
G02*
X129050000Y-95375000I150000J0D01*
G01*
X129350000Y-95375000D01*
G75*
G02*
X129500000Y-95525000I0J-150000D01*
G01*
X129500000Y-96825000D01*
G75*
G02*
X129350000Y-96975000I-150000J0D01*
G01*
X129050000Y-96975000D01*
G75*
G02*
X128900000Y-96825000I0J150000D01*
G01*
G37*
G36*
G01*
X129700000Y-96825000D02*
X129700000Y-95525000D01*
G75*
G02*
X129850000Y-95375000I150000J0D01*
G01*
X130150000Y-95375000D01*
G75*
G02*
X130300000Y-95525000I0J-150000D01*
G01*
X130300000Y-96825000D01*
G75*
G02*
X130150000Y-96975000I-150000J0D01*
G01*
X129850000Y-96975000D01*
G75*
G02*
X129700000Y-96825000I0J150000D01*
G01*
G37*
G36*
G01*
X130500000Y-96825000D02*
X130500000Y-95525000D01*
G75*
G02*
X130650000Y-95375000I150000J0D01*
G01*
X130950000Y-95375000D01*
G75*
G02*
X131100000Y-95525000I0J-150000D01*
G01*
X131100000Y-96825000D01*
G75*
G02*
X130950000Y-96975000I-150000J0D01*
G01*
X130650000Y-96975000D01*
G75*
G02*
X130500000Y-96825000I0J150000D01*
G01*
G37*
G36*
G01*
X131375000Y-94950000D02*
X131375000Y-94650000D01*
G75*
G02*
X131525000Y-94500000I150000J0D01*
G01*
X132825000Y-94500000D01*
G75*
G02*
X132975000Y-94650000I0J-150000D01*
G01*
X132975000Y-94950000D01*
G75*
G02*
X132825000Y-95100000I-150000J0D01*
G01*
X131525000Y-95100000D01*
G75*
G02*
X131375000Y-94950000I0J150000D01*
G01*
G37*
G36*
G01*
X131375000Y-94150000D02*
X131375000Y-93850000D01*
G75*
G02*
X131525000Y-93700000I150000J0D01*
G01*
X132825000Y-93700000D01*
G75*
G02*
X132975000Y-93850000I0J-150000D01*
G01*
X132975000Y-94150000D01*
G75*
G02*
X132825000Y-94300000I-150000J0D01*
G01*
X131525000Y-94300000D01*
G75*
G02*
X131375000Y-94150000I0J150000D01*
G01*
G37*
G36*
G01*
X131375000Y-93350000D02*
X131375000Y-93050000D01*
G75*
G02*
X131525000Y-92900000I150000J0D01*
G01*
X132825000Y-92900000D01*
G75*
G02*
X132975000Y-93050000I0J-150000D01*
G01*
X132975000Y-93350000D01*
G75*
G02*
X132825000Y-93500000I-150000J0D01*
G01*
X131525000Y-93500000D01*
G75*
G02*
X131375000Y-93350000I0J150000D01*
G01*
G37*
G36*
G01*
X131375000Y-92550000D02*
X131375000Y-92250000D01*
G75*
G02*
X131525000Y-92100000I150000J0D01*
G01*
X132825000Y-92100000D01*
G75*
G02*
X132975000Y-92250000I0J-150000D01*
G01*
X132975000Y-92550000D01*
G75*
G02*
X132825000Y-92700000I-150000J0D01*
G01*
X131525000Y-92700000D01*
G75*
G02*
X131375000Y-92550000I0J150000D01*
G01*
G37*
G36*
G01*
X131375000Y-91750000D02*
X131375000Y-91450000D01*
G75*
G02*
X131525000Y-91300000I150000J0D01*
G01*
X132825000Y-91300000D01*
G75*
G02*
X132975000Y-91450000I0J-150000D01*
G01*
X132975000Y-91750000D01*
G75*
G02*
X132825000Y-91900000I-150000J0D01*
G01*
X131525000Y-91900000D01*
G75*
G02*
X131375000Y-91750000I0J150000D01*
G01*
G37*
G36*
G01*
X131375000Y-90950000D02*
X131375000Y-90650000D01*
G75*
G02*
X131525000Y-90500000I150000J0D01*
G01*
X132825000Y-90500000D01*
G75*
G02*
X132975000Y-90650000I0J-150000D01*
G01*
X132975000Y-90950000D01*
G75*
G02*
X132825000Y-91100000I-150000J0D01*
G01*
X131525000Y-91100000D01*
G75*
G02*
X131375000Y-90950000I0J150000D01*
G01*
G37*
G36*
G01*
X131375000Y-90150000D02*
X131375000Y-89850000D01*
G75*
G02*
X131525000Y-89700000I150000J0D01*
G01*
X132825000Y-89700000D01*
G75*
G02*
X132975000Y-89850000I0J-150000D01*
G01*
X132975000Y-90150000D01*
G75*
G02*
X132825000Y-90300000I-150000J0D01*
G01*
X131525000Y-90300000D01*
G75*
G02*
X131375000Y-90150000I0J150000D01*
G01*
G37*
G36*
G01*
X131375000Y-89350000D02*
X131375000Y-89050000D01*
G75*
G02*
X131525000Y-88900000I150000J0D01*
G01*
X132825000Y-88900000D01*
G75*
G02*
X132975000Y-89050000I0J-150000D01*
G01*
X132975000Y-89350000D01*
G75*
G02*
X132825000Y-89500000I-150000J0D01*
G01*
X131525000Y-89500000D01*
G75*
G02*
X131375000Y-89350000I0J150000D01*
G01*
G37*
G36*
G01*
X130500000Y-88475000D02*
X130500000Y-87175000D01*
G75*
G02*
X130650000Y-87025000I150000J0D01*
G01*
X130950000Y-87025000D01*
G75*
G02*
X131100000Y-87175000I0J-150000D01*
G01*
X131100000Y-88475000D01*
G75*
G02*
X130950000Y-88625000I-150000J0D01*
G01*
X130650000Y-88625000D01*
G75*
G02*
X130500000Y-88475000I0J150000D01*
G01*
G37*
G36*
G01*
X129700000Y-88475000D02*
X129700000Y-87175000D01*
G75*
G02*
X129850000Y-87025000I150000J0D01*
G01*
X130150000Y-87025000D01*
G75*
G02*
X130300000Y-87175000I0J-150000D01*
G01*
X130300000Y-88475000D01*
G75*
G02*
X130150000Y-88625000I-150000J0D01*
G01*
X129850000Y-88625000D01*
G75*
G02*
X129700000Y-88475000I0J150000D01*
G01*
G37*
G36*
G01*
X128900000Y-88475000D02*
X128900000Y-87175000D01*
G75*
G02*
X129050000Y-87025000I150000J0D01*
G01*
X129350000Y-87025000D01*
G75*
G02*
X129500000Y-87175000I0J-150000D01*
G01*
X129500000Y-88475000D01*
G75*
G02*
X129350000Y-88625000I-150000J0D01*
G01*
X129050000Y-88625000D01*
G75*
G02*
X128900000Y-88475000I0J150000D01*
G01*
G37*
G36*
G01*
X128100000Y-88475000D02*
X128100000Y-87175000D01*
G75*
G02*
X128250000Y-87025000I150000J0D01*
G01*
X128550000Y-87025000D01*
G75*
G02*
X128700000Y-87175000I0J-150000D01*
G01*
X128700000Y-88475000D01*
G75*
G02*
X128550000Y-88625000I-150000J0D01*
G01*
X128250000Y-88625000D01*
G75*
G02*
X128100000Y-88475000I0J150000D01*
G01*
G37*
G36*
G01*
X127300000Y-88475000D02*
X127300000Y-87175000D01*
G75*
G02*
X127450000Y-87025000I150000J0D01*
G01*
X127750000Y-87025000D01*
G75*
G02*
X127900000Y-87175000I0J-150000D01*
G01*
X127900000Y-88475000D01*
G75*
G02*
X127750000Y-88625000I-150000J0D01*
G01*
X127450000Y-88625000D01*
G75*
G02*
X127300000Y-88475000I0J150000D01*
G01*
G37*
G36*
G01*
X126500000Y-88475000D02*
X126500000Y-87175000D01*
G75*
G02*
X126650000Y-87025000I150000J0D01*
G01*
X126950000Y-87025000D01*
G75*
G02*
X127100000Y-87175000I0J-150000D01*
G01*
X127100000Y-88475000D01*
G75*
G02*
X126950000Y-88625000I-150000J0D01*
G01*
X126650000Y-88625000D01*
G75*
G02*
X126500000Y-88475000I0J150000D01*
G01*
G37*
G36*
G01*
X125700000Y-88475000D02*
X125700000Y-87175000D01*
G75*
G02*
X125850000Y-87025000I150000J0D01*
G01*
X126150000Y-87025000D01*
G75*
G02*
X126300000Y-87175000I0J-150000D01*
G01*
X126300000Y-88475000D01*
G75*
G02*
X126150000Y-88625000I-150000J0D01*
G01*
X125850000Y-88625000D01*
G75*
G02*
X125700000Y-88475000I0J150000D01*
G01*
G37*
G36*
G01*
X124900000Y-88475000D02*
X124900000Y-87175000D01*
G75*
G02*
X125050000Y-87025000I150000J0D01*
G01*
X125350000Y-87025000D01*
G75*
G02*
X125500000Y-87175000I0J-150000D01*
G01*
X125500000Y-88475000D01*
G75*
G02*
X125350000Y-88625000I-150000J0D01*
G01*
X125050000Y-88625000D01*
G75*
G02*
X124900000Y-88475000I0J150000D01*
G01*
G37*
G36*
G01*
X108944900Y-87035650D02*
X108944900Y-87998150D01*
G75*
G02*
X108676150Y-88266900I-268750J0D01*
G01*
X108138650Y-88266900D01*
G75*
G02*
X107869900Y-87998150I0J268750D01*
G01*
X107869900Y-87035650D01*
G75*
G02*
X108138650Y-86766900I268750J0D01*
G01*
X108676150Y-86766900D01*
G75*
G02*
X108944900Y-87035650I0J-268750D01*
G01*
G37*
G36*
G01*
X107069900Y-87035650D02*
X107069900Y-87998150D01*
G75*
G02*
X106801150Y-88266900I-268750J0D01*
G01*
X106263650Y-88266900D01*
G75*
G02*
X105994900Y-87998150I0J268750D01*
G01*
X105994900Y-87035650D01*
G75*
G02*
X106263650Y-86766900I268750J0D01*
G01*
X106801150Y-86766900D01*
G75*
G02*
X107069900Y-87035650I0J-268750D01*
G01*
G37*
G36*
G01*
X141481250Y-110475000D02*
X140518750Y-110475000D01*
G75*
G02*
X140250000Y-110206250I0J268750D01*
G01*
X140250000Y-109668750D01*
G75*
G02*
X140518750Y-109400000I268750J0D01*
G01*
X141481250Y-109400000D01*
G75*
G02*
X141750000Y-109668750I0J-268750D01*
G01*
X141750000Y-110206250D01*
G75*
G02*
X141481250Y-110475000I-268750J0D01*
G01*
G37*
G36*
G01*
X141481250Y-108600000D02*
X140518750Y-108600000D01*
G75*
G02*
X140250000Y-108331250I0J268750D01*
G01*
X140250000Y-107793750D01*
G75*
G02*
X140518750Y-107525000I268750J0D01*
G01*
X141481250Y-107525000D01*
G75*
G02*
X141750000Y-107793750I0J-268750D01*
G01*
X141750000Y-108331250D01*
G75*
G02*
X141481250Y-108600000I-268750J0D01*
G01*
G37*
G36*
G01*
X144900000Y-93456482D02*
X144900000Y-92543518D01*
G75*
G02*
X145168518Y-92275000I268518J0D01*
G01*
X146131482Y-92275000D01*
G75*
G02*
X146400000Y-92543518I0J-268518D01*
G01*
X146400000Y-93456482D01*
G75*
G02*
X146131482Y-93725000I-268518J0D01*
G01*
X145168518Y-93725000D01*
G75*
G02*
X144900000Y-93456482I0J268518D01*
G01*
G37*
G36*
G01*
X147600000Y-93456482D02*
X147600000Y-92543518D01*
G75*
G02*
X147868518Y-92275000I268518J0D01*
G01*
X148831482Y-92275000D01*
G75*
G02*
X149100000Y-92543518I0J-268518D01*
G01*
X149100000Y-93456482D01*
G75*
G02*
X148831482Y-93725000I-268518J0D01*
G01*
X147868518Y-93725000D01*
G75*
G02*
X147600000Y-93456482I0J268518D01*
G01*
G37*
G36*
G01*
X113693000Y-103094750D02*
X113693000Y-104057250D01*
G75*
G02*
X113424250Y-104326000I-268750J0D01*
G01*
X112886750Y-104326000D01*
G75*
G02*
X112618000Y-104057250I0J268750D01*
G01*
X112618000Y-103094750D01*
G75*
G02*
X112886750Y-102826000I268750J0D01*
G01*
X113424250Y-102826000D01*
G75*
G02*
X113693000Y-103094750I0J-268750D01*
G01*
G37*
G36*
G01*
X111818000Y-103094750D02*
X111818000Y-104057250D01*
G75*
G02*
X111549250Y-104326000I-268750J0D01*
G01*
X111011750Y-104326000D01*
G75*
G02*
X110743000Y-104057250I0J268750D01*
G01*
X110743000Y-103094750D01*
G75*
G02*
X111011750Y-102826000I268750J0D01*
G01*
X111549250Y-102826000D01*
G75*
G02*
X111818000Y-103094750I0J-268750D01*
G01*
G37*
G36*
G01*
X134263250Y-98957900D02*
X133300750Y-98957900D01*
G75*
G02*
X133032000Y-98689150I0J268750D01*
G01*
X133032000Y-98151650D01*
G75*
G02*
X133300750Y-97882900I268750J0D01*
G01*
X134263250Y-97882900D01*
G75*
G02*
X134532000Y-98151650I0J-268750D01*
G01*
X134532000Y-98689150D01*
G75*
G02*
X134263250Y-98957900I-268750J0D01*
G01*
G37*
G36*
G01*
X134263250Y-97082900D02*
X133300750Y-97082900D01*
G75*
G02*
X133032000Y-96814150I0J268750D01*
G01*
X133032000Y-96276650D01*
G75*
G02*
X133300750Y-96007900I268750J0D01*
G01*
X134263250Y-96007900D01*
G75*
G02*
X134532000Y-96276650I0J-268750D01*
G01*
X134532000Y-96814150D01*
G75*
G02*
X134263250Y-97082900I-268750J0D01*
G01*
G37*
G36*
G01*
X117779250Y-103781000D02*
X116816750Y-103781000D01*
G75*
G02*
X116548000Y-103512250I0J268750D01*
G01*
X116548000Y-102974750D01*
G75*
G02*
X116816750Y-102706000I268750J0D01*
G01*
X117779250Y-102706000D01*
G75*
G02*
X118048000Y-102974750I0J-268750D01*
G01*
X118048000Y-103512250D01*
G75*
G02*
X117779250Y-103781000I-268750J0D01*
G01*
G37*
G36*
G01*
X117779250Y-101906000D02*
X116816750Y-101906000D01*
G75*
G02*
X116548000Y-101637250I0J268750D01*
G01*
X116548000Y-101099750D01*
G75*
G02*
X116816750Y-100831000I268750J0D01*
G01*
X117779250Y-100831000D01*
G75*
G02*
X118048000Y-101099750I0J-268750D01*
G01*
X118048000Y-101637250D01*
G75*
G02*
X117779250Y-101906000I-268750J0D01*
G01*
G37*
G36*
G01*
X122823250Y-84895400D02*
X123785750Y-84895400D01*
G75*
G02*
X124054500Y-85164150I0J-268750D01*
G01*
X124054500Y-85701650D01*
G75*
G02*
X123785750Y-85970400I-268750J0D01*
G01*
X122823250Y-85970400D01*
G75*
G02*
X122554500Y-85701650I0J268750D01*
G01*
X122554500Y-85164150D01*
G75*
G02*
X122823250Y-84895400I268750J0D01*
G01*
G37*
G36*
G01*
X122823250Y-86770400D02*
X123785750Y-86770400D01*
G75*
G02*
X124054500Y-87039150I0J-268750D01*
G01*
X124054500Y-87576650D01*
G75*
G02*
X123785750Y-87845400I-268750J0D01*
G01*
X122823250Y-87845400D01*
G75*
G02*
X122554500Y-87576650I0J268750D01*
G01*
X122554500Y-87039150D01*
G75*
G02*
X122823250Y-86770400I268750J0D01*
G01*
G37*
G36*
G01*
X109850000Y-74900000D02*
X108150000Y-74900000D01*
G75*
G02*
X108100000Y-74850000I0J50000D01*
G01*
X108100000Y-73150000D01*
G75*
G02*
X108150000Y-73100000I50000J0D01*
G01*
X109850000Y-73100000D01*
G75*
G02*
X109900000Y-73150000I0J-50000D01*
G01*
X109900000Y-74850000D01*
G75*
G02*
X109850000Y-74900000I-50000J0D01*
G01*
G37*
D15*
X111540000Y-74000000D03*
X114080000Y-74000000D03*
X116620000Y-74000000D03*
X119160000Y-74000000D03*
X121700000Y-74000000D03*
X124240000Y-74000000D03*
X126780000Y-74000000D03*
G36*
G01*
X109850000Y-116900000D02*
X108150000Y-116900000D01*
G75*
G02*
X108100000Y-116850000I0J50000D01*
G01*
X108100000Y-115150000D01*
G75*
G02*
X108150000Y-115100000I50000J0D01*
G01*
X109850000Y-115100000D01*
G75*
G02*
X109900000Y-115150000I0J-50000D01*
G01*
X109900000Y-116850000D01*
G75*
G02*
X109850000Y-116900000I-50000J0D01*
G01*
G37*
X111540000Y-116000000D03*
X114080000Y-116000000D03*
X116620000Y-116000000D03*
X119160000Y-116000000D03*
X121700000Y-116000000D03*
X124240000Y-116000000D03*
X126780000Y-116000000D03*
X129320000Y-116000000D03*
X131860000Y-116000000D03*
X134400000Y-116000000D03*
X136940000Y-116000000D03*
X139480000Y-116000000D03*
X142020000Y-116000000D03*
X144560000Y-116000000D03*
X147100000Y-116000000D03*
G36*
G01*
X165258000Y-89150000D02*
X165258000Y-89890000D01*
G75*
G02*
X165208000Y-89940000I-50000J0D01*
G01*
X162808000Y-89940000D01*
G75*
G02*
X162758000Y-89890000I0J50000D01*
G01*
X162758000Y-89150000D01*
G75*
G02*
X162808000Y-89100000I50000J0D01*
G01*
X165208000Y-89100000D01*
G75*
G02*
X165258000Y-89150000I0J-50000D01*
G01*
G37*
G36*
G01*
X161358000Y-89150000D02*
X161358000Y-89890000D01*
G75*
G02*
X161308000Y-89940000I-50000J0D01*
G01*
X158908000Y-89940000D01*
G75*
G02*
X158858000Y-89890000I0J50000D01*
G01*
X158858000Y-89150000D01*
G75*
G02*
X158908000Y-89100000I50000J0D01*
G01*
X161308000Y-89100000D01*
G75*
G02*
X161358000Y-89150000I0J-50000D01*
G01*
G37*
G36*
G01*
X165258000Y-87880000D02*
X165258000Y-88620000D01*
G75*
G02*
X165208000Y-88670000I-50000J0D01*
G01*
X162808000Y-88670000D01*
G75*
G02*
X162758000Y-88620000I0J50000D01*
G01*
X162758000Y-87880000D01*
G75*
G02*
X162808000Y-87830000I50000J0D01*
G01*
X165208000Y-87830000D01*
G75*
G02*
X165258000Y-87880000I0J-50000D01*
G01*
G37*
G36*
G01*
X161358000Y-87880000D02*
X161358000Y-88620000D01*
G75*
G02*
X161308000Y-88670000I-50000J0D01*
G01*
X158908000Y-88670000D01*
G75*
G02*
X158858000Y-88620000I0J50000D01*
G01*
X158858000Y-87880000D01*
G75*
G02*
X158908000Y-87830000I50000J0D01*
G01*
X161308000Y-87830000D01*
G75*
G02*
X161358000Y-87880000I0J-50000D01*
G01*
G37*
G36*
G01*
X165258000Y-86610000D02*
X165258000Y-87350000D01*
G75*
G02*
X165208000Y-87400000I-50000J0D01*
G01*
X162808000Y-87400000D01*
G75*
G02*
X162758000Y-87350000I0J50000D01*
G01*
X162758000Y-86610000D01*
G75*
G02*
X162808000Y-86560000I50000J0D01*
G01*
X165208000Y-86560000D01*
G75*
G02*
X165258000Y-86610000I0J-50000D01*
G01*
G37*
G36*
G01*
X161358000Y-86610000D02*
X161358000Y-87350000D01*
G75*
G02*
X161308000Y-87400000I-50000J0D01*
G01*
X158908000Y-87400000D01*
G75*
G02*
X158858000Y-87350000I0J50000D01*
G01*
X158858000Y-86610000D01*
G75*
G02*
X158908000Y-86560000I50000J0D01*
G01*
X161308000Y-86560000D01*
G75*
G02*
X161358000Y-86610000I0J-50000D01*
G01*
G37*
G36*
G01*
X165258000Y-85340000D02*
X165258000Y-86080000D01*
G75*
G02*
X165208000Y-86130000I-50000J0D01*
G01*
X162808000Y-86130000D01*
G75*
G02*
X162758000Y-86080000I0J50000D01*
G01*
X162758000Y-85340000D01*
G75*
G02*
X162808000Y-85290000I50000J0D01*
G01*
X165208000Y-85290000D01*
G75*
G02*
X165258000Y-85340000I0J-50000D01*
G01*
G37*
G36*
G01*
X161358000Y-85340000D02*
X161358000Y-86080000D01*
G75*
G02*
X161308000Y-86130000I-50000J0D01*
G01*
X158908000Y-86130000D01*
G75*
G02*
X158858000Y-86080000I0J50000D01*
G01*
X158858000Y-85340000D01*
G75*
G02*
X158908000Y-85290000I50000J0D01*
G01*
X161308000Y-85290000D01*
G75*
G02*
X161358000Y-85340000I0J-50000D01*
G01*
G37*
G36*
G01*
X165258000Y-84070000D02*
X165258000Y-84810000D01*
G75*
G02*
X165208000Y-84860000I-50000J0D01*
G01*
X162808000Y-84860000D01*
G75*
G02*
X162758000Y-84810000I0J50000D01*
G01*
X162758000Y-84070000D01*
G75*
G02*
X162808000Y-84020000I50000J0D01*
G01*
X165208000Y-84020000D01*
G75*
G02*
X165258000Y-84070000I0J-50000D01*
G01*
G37*
G36*
G01*
X161358000Y-84070000D02*
X161358000Y-84810000D01*
G75*
G02*
X161308000Y-84860000I-50000J0D01*
G01*
X158908000Y-84860000D01*
G75*
G02*
X158858000Y-84810000I0J50000D01*
G01*
X158858000Y-84070000D01*
G75*
G02*
X158908000Y-84020000I50000J0D01*
G01*
X161308000Y-84020000D01*
G75*
G02*
X161358000Y-84070000I0J-50000D01*
G01*
G37*
G36*
G01*
X107633000Y-80097800D02*
X107633000Y-78977800D01*
G75*
G02*
X107683000Y-78927800I50000J0D01*
G01*
X110123000Y-78927800D01*
G75*
G02*
X110173000Y-78977800I0J-50000D01*
G01*
X110173000Y-80097800D01*
G75*
G02*
X110123000Y-80147800I-50000J0D01*
G01*
X107683000Y-80147800D01*
G75*
G02*
X107633000Y-80097800I0J50000D01*
G01*
G37*
G36*
G01*
X107633000Y-82637800D02*
X107633000Y-81517800D01*
G75*
G02*
X107683000Y-81467800I50000J0D01*
G01*
X110123000Y-81467800D01*
G75*
G02*
X110173000Y-81517800I0J-50000D01*
G01*
X110173000Y-82637800D01*
G75*
G02*
X110123000Y-82687800I-50000J0D01*
G01*
X107683000Y-82687800D01*
G75*
G02*
X107633000Y-82637800I0J50000D01*
G01*
G37*
G36*
G01*
X116243000Y-82637800D02*
X116243000Y-81517800D01*
G75*
G02*
X116293000Y-81467800I50000J0D01*
G01*
X118733000Y-81467800D01*
G75*
G02*
X118783000Y-81517800I0J-50000D01*
G01*
X118783000Y-82637800D01*
G75*
G02*
X118733000Y-82687800I-50000J0D01*
G01*
X116293000Y-82687800D01*
G75*
G02*
X116243000Y-82637800I0J50000D01*
G01*
G37*
G36*
G01*
X116243000Y-80097800D02*
X116243000Y-78977800D01*
G75*
G02*
X116293000Y-78927800I50000J0D01*
G01*
X118733000Y-78927800D01*
G75*
G02*
X118783000Y-78977800I0J-50000D01*
G01*
X118783000Y-80097800D01*
G75*
G02*
X118733000Y-80147800I-50000J0D01*
G01*
X116293000Y-80147800D01*
G75*
G02*
X116243000Y-80097800I0J50000D01*
G01*
G37*
G36*
G01*
X143788700Y-74900000D02*
X142088700Y-74900000D01*
G75*
G02*
X142038700Y-74850000I0J50000D01*
G01*
X142038700Y-73150000D01*
G75*
G02*
X142088700Y-73100000I50000J0D01*
G01*
X143788700Y-73100000D01*
G75*
G02*
X143838700Y-73150000I0J-50000D01*
G01*
X143838700Y-74850000D01*
G75*
G02*
X143788700Y-74900000I-50000J0D01*
G01*
G37*
X145478700Y-74000000D03*
X148018700Y-74000000D03*
X150558700Y-74000000D03*
X153098700Y-74000000D03*
X155638700Y-74000000D03*
G36*
G01*
X147181400Y-78536200D02*
X148881400Y-78536200D01*
G75*
G02*
X148931400Y-78586200I0J-50000D01*
G01*
X148931400Y-80286200D01*
G75*
G02*
X148881400Y-80336200I-50000J0D01*
G01*
X147181400Y-80336200D01*
G75*
G02*
X147131400Y-80286200I0J50000D01*
G01*
X147131400Y-78586200D01*
G75*
G02*
X147181400Y-78536200I50000J0D01*
G01*
G37*
X148031400Y-81976200D03*
X145491400Y-79436200D03*
X145491400Y-81976200D03*
X142951400Y-79436200D03*
X142951400Y-81976200D03*
G36*
G01*
X105447400Y-98802000D02*
X103747400Y-98802000D01*
G75*
G02*
X103697400Y-98752000I0J50000D01*
G01*
X103697400Y-97052000D01*
G75*
G02*
X103747400Y-97002000I50000J0D01*
G01*
X105447400Y-97002000D01*
G75*
G02*
X105497400Y-97052000I0J-50000D01*
G01*
X105497400Y-98752000D01*
G75*
G02*
X105447400Y-98802000I-50000J0D01*
G01*
G37*
X104597400Y-95362000D03*
X107137400Y-97902000D03*
X107137400Y-95362000D03*
X109677400Y-97902000D03*
X109677400Y-95362000D03*
G36*
G01*
X162854000Y-96212000D02*
X162854000Y-94512000D01*
G75*
G02*
X162904000Y-94462000I50000J0D01*
G01*
X164604000Y-94462000D01*
G75*
G02*
X164654000Y-94512000I0J-50000D01*
G01*
X164654000Y-96212000D01*
G75*
G02*
X164604000Y-96262000I-50000J0D01*
G01*
X162904000Y-96262000D01*
G75*
G02*
X162854000Y-96212000I0J50000D01*
G01*
G37*
X163754000Y-97902000D03*
X163754000Y-100442000D03*
X163754000Y-102982000D03*
X163754000Y-105522000D03*
X163754000Y-108062000D03*
%LPD*%
M02*
