M48
; DRILL file {KiCad 8.0.3+1} date 2024-10-28T10:42:50+0000
; FORMAT={-:-/ absolute / inch / decimal}
; #@! TF.CreationDate,2024-10-28T10:42:50+00:00
; #@! TF.GenerationSoftware,Kicad,Pcbnew,8.0.3+1
; #@! TF.FileFunction,Plated,1,4,PTH
FMAT,2
INCH
; #@! TA.AperFunction,Plated,PTH,ViaDrill
T1C0.0157
; #@! TA.AperFunction,Plated,PTH,ComponentDrill
T2C0.0394
; #@! TA.AperFunction,Plated,PTH,ComponentDrill
T3C0.0433
%
G90
G05
T1
X4.108Y-4.0678
X4.5205Y-3.0674
X4.7382Y-3.6076
X4.739Y-3.4724
X4.848Y-3.1978
X4.9606Y-3.6811
X4.9755Y-3.1028
X5.0Y-3.7096
X5.0384Y-3.2278
X5.0384Y-3.2678
X5.068Y-3.1878
X5.0845Y-3.9439
X5.098Y-3.1578
X5.1165Y-3.8919
X5.1353Y-3.0934
X5.148Y-3.9778
X5.206Y-3.875
X5.428Y-3.5421
X5.428Y-3.9178
X5.448Y-3.9678
X5.4638Y-3.5135
X5.468Y-4.0178
X5.488Y-4.0778
X5.508Y-3.5078
X5.5118Y-4.3701
X5.528Y-3.3178
X5.548Y-3.5078
X5.712Y-4.1339
X5.752Y-4.1339
X5.8268Y-3.8565
X6.087Y-3.3244
X6.1614Y-3.4843
X6.2504Y-3.6178
X6.2992Y-3.622
X6.3091Y-3.248
T2
X4.118Y-3.7544
X4.118Y-3.8544
X4.218Y-3.7544
X4.218Y-3.8544
X4.2913Y-2.9134
X4.2913Y-4.5669
X4.318Y-3.7544
X4.318Y-3.8544
X4.3913Y-2.9134
X4.3913Y-4.5669
X4.4913Y-2.9134
X4.4913Y-4.5669
X4.5913Y-2.9134
X4.5913Y-4.5669
X4.6913Y-2.9134
X4.6913Y-4.5669
X4.7913Y-2.9134
X4.7913Y-4.5669
X4.8913Y-2.9134
X4.8913Y-4.5669
X4.9913Y-2.9134
X4.9913Y-4.5669
X5.0913Y-4.5669
X5.1913Y-4.5669
X5.2913Y-4.5669
X5.3913Y-4.5669
X5.4913Y-4.5669
X5.5913Y-4.5669
X5.6275Y-2.9134
X5.628Y-3.1274
X5.628Y-3.2274
X5.6913Y-4.5669
X5.7275Y-2.9134
X5.728Y-3.1274
X5.728Y-3.2274
X5.7913Y-4.5669
X5.8275Y-2.9134
X5.828Y-3.1274
X5.828Y-3.2274
X5.9275Y-2.9134
X6.0275Y-2.9134
X6.1275Y-2.9134
X6.447Y-3.7544
X6.447Y-3.8544
X6.447Y-3.9544
X6.447Y-4.0544
X6.447Y-4.1544
X6.447Y-4.2544
T3
X5.9449Y-4.311
X5.9449Y-4.5669
X6.122Y-4.311
X6.122Y-4.5669
M30
