M48
; DRILL file {KiCad 5.1.10-88a1d61d58~90~ubuntu21.04.1} date Mon Aug 23 11:11:00 2021
; FORMAT={-:-/ absolute / inch / decimal}
; #@! TF.CreationDate,2021-08-23T11:11:00+02:00
; #@! TF.GenerationSoftware,Kicad,Pcbnew,5.1.10-88a1d61d58~90~ubuntu21.04.1
; #@! TF.FileFunction,Plated,1,4,PTH
FMAT,2
INCH
T1C0.0157
T2C0.0256
T3C0.0394
T4C0.0433
%
G90
G05
T1
X4.108Y-4.0678
X4.5205Y-3.0674
X4.7382Y-3.6076
X4.739Y-3.4724
X4.848Y-3.1978
X4.9755Y-3.1028
X5.0384Y-3.2278
X5.0384Y-3.2678
X5.068Y-3.1878
X5.0845Y-3.6399
X5.0845Y-3.9439
X5.098Y-3.1578
X5.1165Y-3.8919
X5.1353Y-3.0934
X5.1425Y-3.6719
X5.148Y-3.9778
X5.206Y-3.875
X5.428Y-3.5421
X5.428Y-3.9178
X5.448Y-3.9678
X5.4638Y-3.5135
X5.468Y-4.0178
X5.488Y-4.0778
X5.508Y-3.5078
X5.5118Y-4.3701
X5.528Y-3.3178
X5.548Y-3.5078
X5.712Y-4.1339
X5.752Y-4.1339
X5.8268Y-3.8565
X5.978Y-3.5678
X5.978Y-3.6178
X6.073Y-3.8328
X6.1355Y-3.6228
X6.1955Y-3.7728
X6.3805Y-3.3378
T2
X6.2905Y-3.1978
X6.2905Y-3.2478
X6.3405Y-3.1978
X6.3405Y-3.2478
X6.3905Y-3.1978
X6.3905Y-3.2478
X6.4405Y-3.1978
X6.4405Y-3.2478
X6.4905Y-3.1978
X6.4905Y-3.2478
T3
X4.118Y-3.7544
X4.118Y-3.8544
X4.218Y-3.7544
X4.218Y-3.8544
X4.2913Y-2.9134
X4.2913Y-4.5669
X4.318Y-3.7544
X4.318Y-3.8544
X4.3913Y-2.9134
X4.3913Y-4.5669
X4.4913Y-2.9134
X4.4913Y-4.5669
X4.5913Y-2.9134
X4.5913Y-4.5669
X4.6913Y-2.9134
X4.6913Y-4.5669
X4.7913Y-2.9134
X4.7913Y-4.5669
X4.8913Y-2.9134
X4.8913Y-4.5669
X4.9913Y-2.9134
X4.9913Y-4.5669
X5.0913Y-4.5669
X5.1913Y-4.5669
X5.2913Y-4.5669
X5.3913Y-4.5669
X5.4913Y-4.5669
X5.5913Y-4.5669
X5.6275Y-2.9134
X5.628Y-3.1274
X5.628Y-3.2274
X5.6913Y-4.5669
X5.7275Y-2.9134
X5.728Y-3.1274
X5.728Y-3.2274
X5.7913Y-4.5669
X5.8275Y-2.9134
X5.828Y-3.1274
X5.828Y-3.2274
X5.9275Y-2.9134
X6.0275Y-2.9134
X6.1275Y-2.9134
X6.278Y-3.4378
X6.278Y-3.5378
X6.278Y-3.6378
X6.278Y-3.7378
X6.278Y-3.8378
X6.278Y-3.9378
X6.278Y-4.0378
X6.278Y-4.1378
X6.278Y-4.2378
X6.278Y-4.3378
X6.378Y-3.4378
X6.378Y-3.5378
X6.378Y-3.6378
X6.378Y-3.7378
X6.378Y-3.8378
X6.378Y-3.9378
X6.378Y-4.0378
X6.378Y-4.1378
X6.378Y-4.2378
X6.378Y-4.3378
T4
X5.9449Y-4.311
X5.9449Y-4.5669
X6.122Y-4.311
X6.122Y-4.5669
T0
M30
